<?xml version="1.0" encoding="UTF-8"?>
<svg id="Capa_2" xmlns="http://www.w3.org/2000/svg" version="1.1" viewBox="0 0 232.2 232.1">
  <!-- Generator: Adobe Illustrator 30.3.0, SVG Export Plug-In . SVG Version: 2.1.3 Build 157)  -->
  <defs>
    <style>
      .st0 {
        fill: #fff;
      }

      .st1 {
        fill: #d00;
      }

      .st2 {
        fill: #ab1f23;
      }
    </style>
  </defs>
  <path d="M2576.6-427.1c2-.3,5.5-.3,7.7-.2,43.1.7,88.9,20.2,110.7,59,5.3,9.5,8.1,18.2,11.3,28.1,9.7-.1,27.5-2.1,34,4,3.1,3,4.9,7.1,4.9,11.4,0,15.3-14.8,14.7-25.6,14.5,19.8,33.6,23.6,71-5.5,101.4-3.6,3.7-7.1,7.1-11.7,9.4,5.1,7.9,9.8,16,14.1,24.3,55.7-.6,112.6,0,168.4,0V189.4c0,21.4.5,43.3-2,64.6-3.6,30.5-11.7,60.4-24.1,88.5-38,85.5-110.2,145.2-192.3,186.8-24.4,12.4-49.6,22.2-75.1,32-2.3.9-4.7,1.7-7,2.5-17.8-5.9-36.7-13.9-53.9-21.3-60.4-26.2-109.4-57.9-155.8-104.4-40.7-40.2-69.4-90.9-83-146.4-10.4-41.5-8.8-72.5-8.8-114.7V-175.3c16.9.4,35,0,52,0h115.8c4.5-8.3,9.3-16.5,14.4-24.5-38-24.1-40.3-75.2-16.7-110.5-7.2,0-15.3,1.1-20.9-4-2.9-2.7-4.6-6.4-4.6-10.4-.1-4.3,1.6-8.5,4.7-11.5,6.5-6.2,24.3-4.3,33.9-4.2,3.7-16,11.3-30.8,21.9-43.2,24.4-29,56.7-40.5,93.2-43.6h0ZM2383.1,414.3c14.6-20.9,40-41.9,65.7-46.3,17.2-3,34.8,1,49,11.2,6,4.3,11.4,9.3,16.1,14.9,12.7-16.8,26.3-28.4,47-33.5,1.9-26.9,5.4-62.7,5.2-89.1-24.2,21.6-53.9,34.5-86.6,31.6,7.5-7.2,14.2-15.1,21.1-22.9-29.5,15.7-66.8,20-93.9-2.8,7.5-2.3,13.8-3.3,21.4-6,24.6-8.5,47.5-22.6,67.4-39.3,6.1-5.1,11.7-11,17.7-16.2-2.8,1-5.7,2-8.6,3-20.6,6.9-54.5,6.9-71.1-9.4,34.4-7.7,71.4-32.2,94.9-58-19.1,8-48.4,7.6-64.9-6.1,22.4-5.8,48.4-22.4,65.6-37.8,5.1-4.5,9.8-10,14.7-14.5-15.5,5.7-36.5,6.8-51.7-.2-1.7-.8-3.4-1.7-5-2.8,22.2-10.4,38.5-20.8,56.1-38.2,4.8-4.7,9.5-10,14.2-14.5-12.3,4.6-27.2,3.2-38.8-2.9,31.2-19.5,42.3-29.5,65.4-58.8,13.5,18.3,26.4,33,44.9,46.7,6.2,4.6,12,7.9,18.2,12-10,7.2-25.9,6.6-37.2,3,20.6,23.3,36.2,36.4,64.2,50.5,1.5.8,3.3,1.6,4.7,2.4-16.8,8-37.5,10.9-54.6,2.1,24.1,25.7,45.9,41.6,79.8,53-15.6,14-46.7,13.7-65,5.7,24.3,27.8,59.2,48.2,94.4,58.5-5.7,5.5-17.4,10-25.1,11.6-17.7,3.6-37.4,2.1-53.8-5.5,18.2,20.5,50.3,41.3,75.7,51.8,9.8,4,20.1,6.9,30.3,9.5-26.6,24.4-64.3,17.3-93.8,2.7,7.5,8.5,13.3,14.8,21.2,22.9-22.9,4.5-53.8-7.3-72.3-20.1-4.8-3.3-10.3-7.9-14.9-11.6.9,18,2.1,35.9,3.5,53.8.8,10.3,2.5,25.6,2.7,35.6,14.6,2.7,27.5,12.3,37.7,22.7,3.3,3.3,6.5,7.3,9.7,10.5,11.7-14.2,28.6-24.8,47.2-26.5,35.2-3.2,63.6,20.9,83.7,46.9,45.9-48.5,73.3-111.7,77.3-178.4.8-11.9.4-27.5.4-39.8V-36.3h-493c-21.4,0-44.3.5-65.5,0v226.4c0,13.3-.1,29.1.7,42.1,3.1,47.6,17.2,96.9,43.3,137.1,9,13.8,23.1,33.3,34.7,44.9h0ZM2332.2-91.3c7.3,10.6,7,13.5-.4,24.1,8.1,5.5,11.3,7,21.2,7,7.4-.6,11.9-2.5,17.6-7.3-12.5-21.9.8-17.6-1.4-24.8-2.8-1.5-6.1-.3-7.1-3.7-.8-2.7.3-6.4,1.8-8.6,1.8-2.7,4.8-4.5,8-4.9,9.7-1.3,10.1,6.5,13,8.1,1.7-1.4,3.3-5.8,3.4-7.9.4-17.9-17.8-18.8-28.2-9.5-1.4,1.2-2.7,2.6-3.9,4.1,3.6-7.6,8.9-14.6,5.5-23.4-1.7-4.4-5.7-6.9-10.2-7.5-9.8,1.5-12.1,9.5-10.2,18.4,1.1,5.4,4.8,9.5,7.6,14-2.7-2-4.9-5.3-7-6.7-14.3-9-23.5-3.9-27.1,10.8l2.7,8c2.8-3.8,5.1-7.2,10.3-8,2.9-.4,5.9.4,8.1,2.2,3.2,2.6,6.1,8.4,3.1,12.3-1,1.4-5,2.7-6.7,3.4h-.1ZM2495.1-175.2h177.9c-3.2-4.5-8.2-11.2-10.5-16h-157.3c-3.4,5.1-7.2,10.7-10.1,16h0ZM2783.3-101.2c2.2-3.1,4.4-7,8.9-8.1,7.3-1.8,17.7,6.3,12.8,14.1-.9,1.5-5.6,2.1-6.3,3.8.5,3.1,1.2,4,3.1,6.5,3.1,4.1-2,13.6-4.3,17.9,8.9,6.2,12,7.1,22.9,6.8,7-1.3,10-3,15.9-6.9-13-21.2.9-18.1-1.4-24.9-.9-.6-1.9-1-3-1.2-5.1-.8-4.7-6.3-2.7-10.1,1.4-2.7,3.8-4.8,6.7-5.7,10.2-3.3,11.4,6,15.1,6.9,1.5-1,1.7-1.5,2-3.3,3.4-19.5-15-24.4-28.1-13.4-1.4,1.2-2.6,2.5-3.8,3.8,2.9-5.1,8-12.7,7.2-18.6-1-8.2-6.1-12.7-14.3-11.7-14.5,7.5-6.9,21.3-1.6,31.7-5-5.1-10.7-11.6-18.3-11.2-13.9.8-15.2,13.3-10.8,23.5h0ZM2489.9-340.2h187.8c-8.8-24.3-23.9-38.5-47-50-13.5-6.7-39.7-12-54.6-9.8-39.2,3.9-71.8,21.7-86.1,59.9h0Z"/>
  <path d="M2784.5-20.2c14-1.1,14.6,10.9,14.6,21.6,4.4-.5,8.3-.9,12.8-.3,12.9,1.9,21.1,14.1,18.6,26.8-1.7,8.5-7.1,12.4-13.8,16.8l.4,4c1.5,15-14.7,15.7-25.6,16.8-3.7.6-13.9-.4-17.6-1.2-7.3-1.7-11.6-2.7-15.9-9.1-.3-3.1,0-7.3,0-10.6-14.2-8.2-19.6-24.7-7.2-37.9,6.3-6.7,16.1-6,24.6-5.9.2-9.1.6-16,9.1-21h0ZM2760.2,34.9c1.9-4.4,7.3-16.3-.7-17.4-5,5.5-5.4,12.3.7,17.4ZM2815.7,33.5c3.5-5,6.5-13.9-1.7-16.1-4,3.5-1.9,12.8.4,16.8.9-.2.5,0,1.3-.8h0Z"/>
  <path d="M2784,92.8c13.9-1.7,15,10.3,14.8,20.9,10.8-.9,20.4-1.7,27.6,8.4,3.7,5.3,5.2,11.8,4,18.2-1.6,8.7-7.2,12.4-13.8,17.1l.2,1.5c.5,4.7,1,7.9-2.3,12-4,5-16.1,6.4-22.3,6.8-3.5.1-6.9,0-10.4,0-6.7-.4-17.5-2.1-22.1-7.5-3.1-3.6-2.1-8.3-1.8-12.8-14.4-8-19.5-25.4-7.3-38.3,6.4-6.8,16.1-6,24.7-5.8-.1-8.8.5-15.6,8.6-20.5h.1ZM2760.3,147.5c1.7-4.7,4.5-10.9,3.1-15.6-1.4-1.7-1.8-1.8-3.9-2-5,5.5-5.1,12.7.9,17.6h-.1ZM2815.8,145.9c3.5-4.9,6.5-14.6-2-16-3.7,3.5-1.8,13.1.6,16.9,1.1-.2.5,0,1.4-.9Z"/>
  <path d="M2377.4-20.2c14.3-.6,14.4,11.3,14.7,22.1,10.7-2.4,21.6-1,28.2,8.8,3.3,4.9,4.5,11,3.2,16.8-1.7,8.1-7.2,12.8-13.7,17,.2,5,.8,9.6-2.6,13.7-4.8,5.8-17,6.4-24.2,7.2-4.6.7-15-.5-19.5-1.9-6.3-2-9.4-3.8-12.5-9.5-.1-3.5-.1-5.9.3-9.4-13.7-8.5-20.3-22.9-8.1-37.4,6.2-7.3,16.8-6.7,25.7-6.5,0-9.5-.8-15.9,8.5-21.1v.2h0ZM2353.4,34.9c1.7-5.3,7-16.1-1.3-17.4-4.4,5-4.8,14,1.3,17.4ZM2409.1,33.1c2.9-4.9,5.7-15.5-3-15.5-2.3,3-2,2.8-1.5,7,.2,2.4,1.5,8,3.3,9.4l1.3-.8h-.1Z"/>
  <path d="M2377.3,92.8h2.2c11.9,0,12.4,12.4,12.5,21.1,10.9-1.1,21.5-.9,28.4,9.3,3.2,4.8,4.4,10.8,3.2,16.5-1.7,8.4-7.3,13.1-13.9,17.6.3,4.1.4,6.1.2,10.2-5.3,8.8-16.6,9.6-26,10.3-11.2.3-26,.6-32.8-10-.3-4.1-.2-6.7.2-10.8-8.9-4.3-14.7-12-14.4-22.2.1-5.9,2.6-11.5,7-15.5,7.6-7,15.8-6.3,25.1-6-.6-8.6-.1-16.1,8.3-20.5h0ZM2353.5,147.9c1.1-3.8,4.5-13.1,2.3-16.4-.5-.7-1.8-1.5-2.6-2-6.8,5.6-5.4,12.4.3,18.3h0ZM2408.8,146c3.4-5,6.2-15.2-2.5-16.1-1.5,1.5-2,2-2,4.3s1.4,9.6,3.3,12.2c1.1-.2.7,0,1.3-.5h-.1Z"/>
  <path class="st2" d="M2421.5-146.7c34.7.5,70.7,0,105.5,0h218.4c-.2,11.6,0,23.7,0,35.3-8.1-.4-17.1-.3-25.3-.3.1,2.8.1,5.9,0,8.7-.2,15.8.3,31.7-.1,47.4-7.3-3.7-16.9-8.1-24.4-11.3-7.3,2.9-16.9,7.9-24.4,11.2.2-16,0-32.5,0-48.6v-7.5c-20.3-.6-42.2,0-62.8,0,0,18,.5,38.5-.2,56.3-6.6-3.5-17.7-8.5-24.5-11.4l-24.6,11.4v-56.2c-7.1-.3-15.9,0-23,0h-40v56.1c-4.9-2.7-19.2-9.1-24.5-11.1l-24.6,11.6c-.6-17.6-.2-38.6,0-56.4-8.1-.3-17.1,0-25.2,0-.3-11.5-.1-23.7-.2-35.3h0Z"/>
  <g>
    <path class="st1" d="M25.6,198.9V2.2h181.7v197.6l-.2.8c-1.7,10.9-11.1,19.4-22.2,19.4h-50.1c-7.3,0-13.9,3.8-18,9.7h-.7c-3.8-5.8-10.4-9.6-17.7-9.6h-50.5c-11.6-.1-21.1-9.9-22.4-21.2ZM49.6,28.9l3.3-3.3-7.7-7.7,7.7-7.7-3.3-3.2-7.7,7.7-7.7-7.7-3.3,3.3,7.7,7.7-7.7,7.7,3.3,3.2,7.7-7.7,7.7,7.7ZM124.4,28.9l3.2-3.3-7.7-7.7,7.7-7.7-3.3-3.2-7.7,7.7-7.7-7.7-3.2,3.3,7.7,7.7-7.7,7.7,3.3,3.3,7.7-7.7,7.7,7.7ZM199.1,28.9l3.2-3.3-7.7-7.7,7.7-7.7-3.3-3.3-7.7,7.7-7.7-7.7-3.3,3.2,7.7,7.7-7.7,7.7,3.3,3.3,7.7-7.7,7.7,7.7ZM129.5,189.3h32.3c8,0,14.6-6.3,14.9-14.2V33.1s-120,0-120,0v141.7c.2,8,6.8,14.5,14.8,14.5h33.5c4.7,0,8.9,2.6,11.7,6.3,3.1-4.1,7.7-6.3,12.8-6.3ZM49.7,89.7l3.2-3.3-7.7-7.7,7.7-7.7-3.3-3.2-7.7,7.7-7.7-7.7-3.2,3.3,7.7,7.7-7.7,7.7,3.3,3.2,7.7-7.7,7.7,7.7ZM199.1,89.7l3.3-3.3-7.7-7.7,7.7-7.7-3.3-3.3-7.7,7.7-7.7-7.7-3.2,3.3,7.7,7.7-7.7,7.7,3.3,3.3,7.7-7.7,7.7,7.7ZM49.6,150.5l3.3-3.3-7.7-7.7,7.7-7.7-3.3-3.3-7.7,7.7-7.7-7.7-3.3,3.3,7.7,7.7-7.7,7.7,3.3,3.2,7.7-7.7,7.7,7.7ZM199.1,150.5l3.3-3.2-7.7-7.7,7.7-7.7-3.3-3.3-7.7,7.7-7.7-7.7-3.3,3.3,7.7,7.7-7.7,7.7,3.3,3.3,7.7-7.7,7.7,7.7ZM51.8,211.3l3.2-3.3-7.7-7.7,7.7-7.7-3.3-3.3-7.7,7.7-7.7-7.7-3.3,3.3,7.7,7.7-7.7,7.7,3.3,3.3,7.7-7.7,7.7,7.7ZM196.9,211.3l3.3-3.3-7.7-7.7,7.7-7.7-3.3-3.2-7.7,7.7-7.7-7.7-3.3,3.3,7.7,7.7-7.7,7.7,3.3,3.2,7.7-7.7,7.7,7.7ZM124.4,218.9l3.2-3.3-7.7-7.7,7.7-7.7-3.3-3.3-7.7,7.7-7.7-7.7-3.3,3.3,7.7,7.7-7.7,7.7,3.3,3.3,7.7-7.7,7.7,7.7Z"/>
    <path class="st0" d="M129.5,189.3c-5.2,0-9.8,2.1-12.8,6.3-2.8-3.7-7-6.2-11.7-6.2h-33.5c-8,0-14.6-6.5-14.8-14.5V33.1s120,0,120,0v141.9c-.3,8-6.9,14.3-14.9,14.3h-32.3ZM149.6,70.7c.3,0,.9,0,1.2-.2s.4-.7.3-1l-1.6-.8,1.7-.2c.4,0,.7-1.2.3-1.6-.3-.1-1.1,0-1.5,0,.2-.4.4-1.2.2-1.6-1.4-.9-1.9,1.2-3.3,1.3v-1.6c0-.3-.7-.6-1-.4-.9.5-.5,2-1.8,2.5v-1.9c.2,0,.7-.3.9-.4l.8-1.5-1.2-1.3c.8-.8,2,.2,2.8-.9s.3-1,0-1.3h-1.8c.6-.4,1.1-.7,1.3-1.1s0-1.3-.6-1.5l-1.1.8c0-.4-.3-1.2-.6-1.4-1.7.1-.9,1.9-2.1,2.9l-.4-.9c-.1-.3-.5-.7-.7-.8l.5-.8c.1-.2-.3-.7-.5-.7h-1.5c0,0,0,0,.2-.2.5-.2,1.1-.5,1.2-1s-.3-1-.5-1.1c-.7-.2-1.4.9-1.4.6v-.5c-.1-.2-.3-.7-.5-.8s-.7,0-.9,0l-.3-.8c0-.2-1.1,0-1.6-.3.7-.4,1-.5,1.3-.8s.1-1.2-.3-1.4-1,.2-1.4.5c0-.5-.1-1.3-.5-1.5-1.7-.3-1.4,2.2-2.6,2.1l-.7-1.7c0-.2-.3-.7-.5-.6h-.8c0,.1-.5.2-.5.2,0,0-.1-.2,0-.2l.4-.2c.3-.2.7-.6.8-.9s-.2-1-.5-1.2c-.5-.2-1.1.4-1.2.8l-.6-1.5c-1.8.1-1.1,2.1-2.2,3l-.7-1.3c-.1-.2-.8-.2-1,0-.8,1,.5,2.3-.5,3.3l-.6-1.4h-1.5c-.2-1.1,1.3-1,1.8-2.1s0-1.1-.3-1.4-.8.4-1.6.9,0-.2,0-.2l.2-.3c.2-.3.3-1,.2-1.4s-.7-.7-1.1-.6-.6,1-.6,1.3c-.4-.3-.9-.8-1.2-1-1.5.9.2,2.5-.5,3.7-.7-.5-1.1-.8-1.7-.8s-.9.3-1.7.8c-.4-1.3,1-3.3-.3-3.6s-1,.5-1.3.8c-.1-.4-.3-1.1-.6-1.2-.4-.2-1.2.3-1.2.7s.1.9.3,1.4c.2.3.1.5-.2.2-.3-.3-.9-.8-1.2-.7-.5.2-.7,1-.5,1.4.5,1.2,1.8,1,1.9,2.1h-1.5c0,0-.6,1.5-.6,1.5-1.1-.9.2-2.4-.5-3.2s-.7-.3-1-.2l-.7,1.5c-1.1-1.1-.5-3-2.2-3-.3.2-.5,1-.6,1.4-.3-.3-.9-.9-1.4-.7s-.6,1-.4,1.3.6.6,1,.9l.3.3-1.6-.2-1.2,2.5c-1.1-.4-1.1-2.8-2.5-2.3s-.5,1-.5,1.5c-.4-.2-1-.6-1.3-.5s-.6.9-.5,1.3.6.6,1,.7l.4.2c0,0,0,.1,0,.2h-.5c-.3,0-.8,0-1,.2s-.3.5-.3.8c0,0-.9-.2-.9,0l-.4,1.3c-.2-.2-.8-.6-1.2-.7s-.8.7-.7,1,.4.7.7.8l.9.5h-1.8c-.4.3-.1,1.2.1,1.4l-1,1.7c-1.2-.7-.3-2.8-2.2-2.9l-.6,1.5c-.2-.3-.8-.9-1.2-.8-.5.2-.7,1-.6,1.4s.6.7.9.9l.3.2c.6.4-1.1,0-1.7.1s-.3,1.1,0,1.3c.8.9,1.8.2,2.9.7l-1.3,1.3.5,1.2c.2.4.7.8,1.2.8v1.9c-1.3-.4-1-1.9-1.9-2.4s-1,0-1,.4v1.6c-1.5-.1-1.7-2.2-3.3-1.3l.2,1.6c-.3,0-1-.2-1.3,0-.4.2-.3,1.2,0,1.4s.9.3,1.4.4h.4c.3,0-1.3.6-1.4,1s.2.8.4.9.8.3,1,.2l1.4-.8c1.3-.8-.2,1.7.5,1.8s.8.1.8.3c.1.3,0,.9-.4.7-1.1-.7-1.1-2.4-2.1-1.9s-.1,1.3-.4,2.2c-1.2.1-2.4-1.7-3.2-.5s0,.9.3,1.4l-.3.2c-.4,0-1,0-1.2.3s0,.9.1,1.1c.3.4,1.1.3,1.6.1h.3c0,.1-1.2,1-1.2,1-.2.9-.2,1.4,0,2.5.3,0,0,0-.2,0-.4,0-1,0-1.2.4s0,1.1.3,1.2c.5.2,1.1.1,1.8,0l-1.1.8c-.2.1-.5.5-.4.7s.4.6.6.6c1.4.3,1.7-1.1,2.9-1.3,0,1.6-1.3,1.6-1.2,2.2s.7.6,1.1,1.3-.5.3-.7.3l-1.5-.5c-.4-.2-1,0-1.2.5-.3,1,1.1,1.2,1,1.7s-.4.4-.6.4l-1.7.2c-.3,0-.8.6-.7.9,0,.7,1.5.9,1.2,1.1l-.3.2c-.4.2-.7.7-.6,1.1s.8.7,1.1.5c.5-.3.8-.5,1.3-1,0-.2,0,0,0,.2l-.4,1.1c0,.2,0,.5.2.6s.5.2.7.1c.5,0,1-.6,1.1-1.1,0-.3.1-.6,0-.3.3.4.6.8.8.8s.8-.1,1.2-.2c.3-.4.5,0,.3.2-.4.4-.8.9-.7,1.3s.9.5,1.2.4.6-.4.8-.7l.8-1.3c.3.1.5.2.3.2l-.4.8c-.2.3.7.7,1.4,1.2-1.1,1-2.4-.4-3.2.5s-.3.9,0,1l1.2.7c-.5,1.4-2.8.5-2.7,2.4.3.2,1,.5,1.3.6-.2.2-.7.7-.8,1.1s.4.8.7.8.8-.2,1-.4l.7-1-.2,1.9c.5.1,1.1.1,1.3-.1.8-.8.3-2,.8-3.1l.8,1.1c0,.1.4.3.5.2l.5-.3-.3.8c0,.2-.6.2-.9.2s-.9.4-.9.8c0,1,1.6.9,1.4,1.4-.3,1.2-2.5.8-2.1,2.8l1.4.4-.6,1.1c-.2.4.5.9.9.9s.7-.4.9-.7l.4-.9c0,.6.1,1.4.3,1.9s.9.1,1.1-.1.4-.7.4-.9l-.2-2c0-.1.3-.5.3-.4l.2.5c.5,1.4,1.4,1,1.3,1.6s-1.2.7-2.1,1.4-.3.8-.2,1c.2.5,1.5.6,1.3.8l-.3.4c-.2.2-.4.8-.3,1.1s.7.6.9.6.6-.4.7-.6l.5-1v2c.3.2.9.3,1.1,0s.5-.7.5-1v-1.9c0-.1.2-.6.2-.5l.3.4c.2.3.6.8.9.9s1-.1,1.6-.3c.5,1.1-1.6,2.8-.4,3.6s1.1-.2,1.4-.5l.2,1.4c0,.2.7.3,1,.2s.6-.6.6-.8v-1.6c-.1,0,1,1.5,1,1.5.4-.2.8-.5.9-.8.2-1.1-.7-1.6-.6-1.8l.3-.8c.7-.7,0,1.3.8,1.4s.8-.2,1-.4c0,.1.2.9.4.9.4,0,1.2-.3,1.6-.4,0,.4-.1,1,0,1.4s1,.3,1.3.1.5-.8.5-1.1v-1.2s.7,1.1.7,1.1c.2.2.6.4.9.5.1.2.5.7.7.6l1-.4v11.9s-1.9-1.1-1.9-1.1h1.5s-2.6-1.1-2.6-1.1c0,0-.5-.3-.4-.4l.7-.2c-.3-.8-1.2-1.2-2-1.5h1.5c-1-.5-1.7-.8-2.2-1.8.2-.6,0-1.3-.3-1.9-.4-.6-.8-1.1-1.3-1.4.5,1.2.8,2.2,0,3.2,0-1.3-.3-1.8-1-2.4s-1.2-1-1.9-.7l.7,2.5-3,.4c-.3.9-.9,1.3-1.7,1.4l-3.8.5c0,.8.4,1.1.9,1.5l1.2,1c.2.2.3.2.1-.2,0,0,.5-.4.6-.2l.4.5v-.7c0-.1.4-.2.5-.1l.4.3.2.2c.1.1,0-.7-.1-.7h.4c.2-.1,1-.2,1.1,0l.4,1c-1.2-.1-2.2,0-3.3.3h-1.4c-1.3,0-2.2-.8-2.6-2.2-.3.9,0,2,1,2.4s1.7.4,2.6.3c.4,1,1.2.7,2,.7h3.4c-.5,1.2-.6,2.2-.4,3.5,0,0,.2-.2.3-.2l.3-.7c.1.4.4,1.3.3,1.6l-.5,1.5,1-.8c-.6,1.6,0,2.4.1,2.3l.4-.4.2,1.9.5-.4.5,1c-1.5,0-2.8-.9-2.8-.6v.4s-1.4-.2-1.4-.2c-.4.6-.6.7-1.4.6-.3,0-.2.2,0,.4-.4.3-1.2.9-1.2,1.6v2.7c0,1.2.2,2.3,0,3.4s0,1.9,1.1,2.1c-.3-.8-.4-1.2-.4-1.9,1,.2.7,1.3,1.5,1.5s.8-.1,1-.2c-.6-.4-.9-.6-1.1-1.1,1.2.1,2,.2,2.5-.9l-1.7.2c-.1,0-.3-.4-.2-.5l.3-.2,1.8-.9c-1-.3-1.7.2-2.7.5.3-2.2-.6-4.7.6-4.5h1.3c0,.1-1.2,1.3-1.2,1.3l1.4-.5c.8.3,1.4,0,1.9-.9v.9c.4-.7,1-1.1,1.8-1l-.5,4-1.3,6.4c0,.3-.5.8-.7.9-.5.1-1.6,0-1.9-.3,0-.5,0-.9-.2-1.1s-.9-.3-1.2,0c.3.5.8,1.3.7,1.7-.6.2-1.1.4-1.3.6s-.4,1-.2,1.3c.2-.4.5-.8,1-.9l1-.2-.3,1.3-1,.3.8.6-1.1.7c-.8.5-1.5,1.2-1.7,2.1l.5.2c0,0-.1.2-.2.3-.5.4-.5.8-.4,1.4,0,.9-.2,1.9-.4,2.8-1.5-.8-2.9-1-4.4-.8l-4.6.7c-1.3.2-3,.4-4.2,0l-1.9-.7.5-.6-2.3-.6,1-.5c-1,0-1.7,0-2-.7h.5c.3.1,0-.9-1.6-1.5l1.2-.2-2.5-1c-.1,0-.4-.4-.4-.4s.2,0,.3,0h.3c-.1-.9-1.1-1.2-1.9-1.7h1.4s-.3-.3-.3-.3c-1.2-.3-1.8-.9-1.8-2.1s-.8-2.1-1.7-2.6c.4,1.1.8,2.3-.1,3.2,0-1.8-1.5-3.4-2.9-3.2.3,1,.5,1.7.6,2.5-1.2,0-2.1.1-2.9.4-.4.7-.8,1.2-1.6,1.3l-4,.5c0,.9,1.2,1.9,2.1,2.4.2-.2.8-.4.8-.2l.2,1c.2.2.3.3-.2.3,0-.2-.2-.5-.3-.5h-.7c-1.3-.1-2.4-.4-2.8-1.6v-.4c-.3-.5-.7,1.8.8,2.2s1.7.3,2.5.3c.5.9,1.1.7,2.1.7h3.5c-.6,1.1-.7,2.3-.5,3.6l.6-1.2.2,1.8-.5,1.5.9-.7c-.2.8-.3,1.6,0,2.1l.6-.4v1.6c.1,0,.3.4.4.3l.4-.3.6,1.1c-1.6,0-3-1-3-.7v.3s-1.5,0-1.5,0c-.2.5-.5.5-1.1.5h-.4c0,0,0,.1,0,.2l.3.3c-.9.4-1.3,1.2-1.3,2.2l.2,3.3c.1,1.9-1,3.7.9,4.2-.4-.7-.7-1.3-.1-2l.9,1.3c.2.1.5.3.7.3s.5-.3.5-.4c-.6-.3-.9-.5-1-1.1,1.2.3,2.2,0,2.5-.9l-1.7.3c0,0-.4-.3-.3-.4s.2-.3.3-.3l1.4-.6h.4c0-.1-.2-.5-.3-.4l-2.2.6-.2-3.5c0-.2.1-.8.3-.9s.6-.1.9,0h.7c0,.1-1,1.3-1,1.3l1.4-.5c.5.4,1.2,0,1.6-.6h.2s.2.4.2.4l.8-.7c.1-.1.9,0,.8.1l-.5,3.7-1.4,6.6c-.2.9-1.4.9-2.6.4,0-.6,0-1.1-.4-1.3s-.8,0-.9,0l.8,1.7-1.3.4-.6,1.2h.3c.4-.5,1.6-1,2.1-.8-.7.8-.7,1.4,0,2.2l.9-2,.8.8v.2s0,.3,0,.2.3-.2.3-.2l.4-.7c.1-.2,1.3,0,1.8-.5s.2-.7.3-1.1l.7-2.6,1.2-3.5.8.9.2-1.8h.8c0,0-.4-2-.4-2l.9.6-.7-1.5h.7c0,.1.3.2.3.1v-.3c0,0,0-.6,0-.6l2,.6-.8-1,2.2.8c0,0,.3-.2.3-.3v-.4s1.4.3,1.4.3c0,0,.4,0,.4,0s-.2-.2-.4-.3v-.2c.1,0,5.5-.7,5.5-.7-.3,1.3-.4,2.6,0,3.9l.7,2.3c.2.7.1,1.2-.3,1.7l-1.8,2.2c-.9,1.2-2.2,2-3.5,1.5v-.9c0-.1-1.2-.6-1.4-.5l-.5.5c.5.2.8.4.9.8v.6c.2.1-.3,0-.4,0h-.9c-.2.2-.2.5-.3.8-.2.4-.3.7-.3,1.1l.7-.5,1.5-.3c-.2.8,0,1.6.5,2.1l1.1-2.1c.4.4.4.8.4,1.4l1.2-1.3c.3-.2.6-.6.8-.9,1.2-.9,2.3-1.9,3.3-3l1.6-1.6.5.4c0,0,.2-.3.3-.4l.5-1.2c0,0,0-.5-.1-.6s.2,0,.2,0,.4.1.4,0c.3-.5.2-1.5,0-2.2l1,1-.8-2.5c1.9,2.2,4.5,2.1,3.5,3.9l-1.2,2.2-1.6,4.1c-.7.3-1.8.4-2.3.2-.2-.5-.4-.8-.5-1s-.9-.3-1-.1c.5.4.8.8.9,1.4h-1.5c-.2.5-.5,1.2-.5,1.6.8-.4,1.3-.7,2-.8-.3.6-.7.9-.6,1.2l.4,1,1.1-2,.3,2c.7-.4.4-1.6,1-1.7l2.4-.5,2.4-4.7.4-1.2,1.8-1.6,1.1,1.2c1.3,1.5,3.2-.3,5.4-.2l-.9,2.9c-.2.8.3,1.6,1,1.9l2.4,1.4-1.3-1.9c-.9-1.3-.8-2.7.3-3.8l4.6-4.9c-.1,1-1.1,2-.5,2.9s1.7,1,2,1.9c.7,1.9-2.9,2.7-3.3,5.5s.8,2.4,1.6,3.4l2,2.4c-.3-2.4-2-4.4-1.8-6.5,1.2-.2,2.1-.4,3.1-.9,1-.9,1.4-2.2,1.1-3.5-1.1-1.3-1.5-3-.8-4.5.2.5.3,1.2.5,1.5,2.3,2.9,4.2,5.1,2.8,8.6s-1.1,3.2-.9,5c1.2-1.9,2.2-3.9,2.9-6,1.4-4.6-1.9-6.2-1.9-9.9,3,1.7,5.4,4.2,4.5,7.4l-1.3,2.8c.9-.1,1.8-.3,2.5-.7s1.1-1.5,1-2.4l-.2-2.2,2.1-.3c.5,0,.6,1.1.9,1.1s.5,0,.4,0l-.4-1c0-.2.5-.5.6-.4.2.4.5.9.8,1.1s.9,0,.9-.2c-.5-.4-.8-.7-.9-1.1,1.1.2,2,0,2.3-.8h-1.4c0,0-.3,0-.3,0s-.1-.5,0-.5l1.9-1c-.9-.6-1.6.3-2.6.3v-1.9c1.7.7,3.4,1.1,5.3.5l-1.2,6.3c0,.5-.4,1.2-.6,1.6-.7.2-1.6,0-2-.2,0-.6,0-1-.4-1.2s-.7,0-1,.1l.5.4c0,0,0,.3.1.5l.2.6c.1.4-1.1.2-1.4,1s-.2.8,0,1l.5-.7c0,0,.3-.1.5-.2l1-.3c-.4,1-.7,1.5,0,2.2l.7-1.6c0,0,.3-.3.4-.2l.2.3c.2.1.3.2.3.3l.2.6.4-.9c.4,0,1.3-.3,1.7-.5s.3-1.1.4-1.4l.7-2.5,1.1-3.2.7.9v-2c.1,0,.8.4.8.4,0-.9,0-1.3-.2-2.2l1,.6-.7-1.5.9.2v-.9c-.1,0,1.8.6,1.8.6l-.8-1c1,.5,1.7.8,2.4.8l-.2-.6,2,.4-.5-.7,5.4-.8c-.3,1.3-.4,2.5,0,3.7l.7,2.5c.2.7,0,1.2-.4,1.8l-1.5,2c-1,1.3-2.1,2.2-3.4,1.7v-.9c0,0-1.1-.7-1.3-.5l-.4.4.7.3c0,0,.4,1.2.2,1.2h-.6c-.2,0-.7,0-.7.2l-.2.4-.4,1.1.5-.2,1.7-.5c0,.9,0,1.5.5,2.2l1.1-2c.3.3.3.6.5,1.3l.9-1.1c.4-.2.7-.7.9-.9l3.1-3,1.5-1.7c0,0,.4.5.5.4l.4-.7c.3-.6.4-.8.2-1.6l.5.4c.4-.6.3-1.4.1-2.3l.9.7-.7-2.2c1.8,2,4.1,2,3.2,3.6l-1.2,2.2-1.5,4.1c-.7.3-1.6.3-2.2.2,0-1-.7-1.5-1.5-1.3.5.4.8.9.9,1.4h-1.4c0,.1-.5,1.6-.5,1.6.8-.4,1.3-.6,1.9-.8-.6,1-.6,1.4-.1,2.2l1-2,.4,2c.2-.4.5-1.1.7-1.7l2.5-.5,2.3-4.7c.4-.8.5-1.2,1.1-1.8l1.5-1.4c0-.2-.2-.5,0-.5h.5c0-.1-.1-.4,0-.4h.8s-1.1-1.3-1.1-1.3l.5-.2c0,0,0-.5-.1-.5l-1.4-1,1-.2c-.8-.4-1.8-.6-2-1.5-.5-1.6.9-4.4-1.2-6.6l1.1-2c.8-.4,1.1-.9,1.4-2l.2,1.3,1.1-2.2.2.9c.8-.8.6-1.9,1.6-2,0,.3-.2.8,0,.8s.6,0,.6-.1l1.3-1.6c0,0,.4-.2.5-.2s0,.3,0,.4v.5c0,0,1.6-.9,1.6-.9v.9c.7-.3,1-.7,1.6-1.1s1.5-.5,1.4-1.1l-.5-1.2c0-.2-.4-.5-.5-.5s-.4.2-.6.4l-1.4-.7.3,1.1c-.6-.4-1.4-.7-1.7-.5s0,.4.2.8c-.5-.2-.9-.4-1.4-.8l-1.7.4c-.7-.3-1.2-.3-1.9,0l.5.7-2,.3.9.7-1.3.8c-.6.4-1.3,1.2-1.5,1.9.1.2.5.5.4.6l-.5.5c0,1.3,0,2.6-.5,3.7-1.4-.7-2.7-1-4.1-.8l-4.2.7c-1.3.2-2.8.4-4.1,0l-2-.7.6-.6-2.2-.6,1-.5c-.9,0-1.4,0-2.1-.6l.9-.2c-.5-.8-1.1-1.2-1.9-1.5l1.3-.2-2.4-1-.4-.4s.2,0,.3,0h.3c-.2-.8-1-1.2-1.9-1.7h1.4c-1-.6-2.2-.9-2.1-2.4s-.8-2.1-1.5-2.6c.3,1.2.8,2.3-.2,3.1,0-1.8-1.1-3.2-2.7-3.2l.6,2.6-2.9.3c-.2,1-1.1,1.5-1.9,1.3l2.3-4.5c.4-.7.5-1.2,1.1-1.7l1.4-1.2c0-.3,0-.6.3-.7l1.1-.4-1.1-1.3.6-.4-1.8-1.4,1-.2c-.6-.3-1.7-.5-2-1.4-.5-1.7.9-4.2-1.2-6.7l1-1.9c.9-.5,1.2-1.1,1.6-2.2l.2,1.3,1.1-2.1.2.9c.8-.7.6-1.6,1.6-2.2l-.2,1c1.7,0,1.6-2,2.9-2l-.3,1,1.9-1-.2.8c.7,0,1.3-.4,1.7-1.1.7,0,1.3-.5,1.6-1-.8-.6-.3-1.4-1.1-1.8s-.6.2-.8.3l-1.5-.6.4,1.1-1.5-.7c-.1,0-.6.2-.6.3l.3.6-1.6-.9c-1.6.6-3.8,0-3.5.5l.4.6-2,.3.7.7c.3.3-2.4.9-2.7,2.7.1.1.5.4.4.5l-.5.5c0,1.3-.1,2.6-.5,3.8-1.5-.8-2.9-1-4.5-.8l-3.3.5v-8.1c0,0,0-7.4,0-7.4l1.2.8c.1,0,.7,0,.7,0l.3-.7,1.3-1.9v1.2c0,.4.2,1,.5,1.1s1.1.1,1.2-.1c.2-.4,0-1,0-1.5l1.1.4c.2,0,.8,0,.8-.2l.2-.8c.3.2,1,.4,1.3.3l.3-1.6.5,1.2c-.4.5-.6.9-.7,1.3s.3,1.2.7,1.2c.7,0,.8-.8,1.4-1.4l-.2,1.1c0,.3,0,.9.3,1.2s.9.4,1.1.1c.3-.3.3-1.1.2-1.5l1.4.6c1.2-1.4-.7-2.3-.4-3.8l1.5.5,1.6-1.6v2.3c0,.7.5,1.2,1.1,1.4l.6.9,1.3-1.3c.6.9-.4,1.8.3,3.3s1.2.4,1.2,0l.2-1.9.5,1.3c0,.2.7.4.9.4s.7-.5.7-.7-.4-1-.6-1.3c.4,0,1.1-.3,1.4-.4.3-1.7-1.3-1.5-2.1-2.4s0-.6.3-.7c.3-.1.9-.3,1-.5s0-.9-.1-1.1-.7-.2-1.2-.2v-1.9c.1,0,.7,1.4.7,1.4,0,.2.7.4.9.4s.7-.5.7-.7c0-.4-.4-1-.6-1.3.4,0,1.1-.2,1.4-.5.3-1.8-1.8-1.5-2.1-2.6s.5-.5.7-.6c.5,0,.8-.5.7-1-.2-1.1-1.8-.2-1.7-1.3.6-.2.7-.5,1.1-.9l.3-.4c0,0,.3.3.3.4l.2,1.8c0,.3.4.7.6.9s.8,0,1.1,0l-.2-1.9.7,1c.2.2.7.5,1,.4s.9-.6.7-.8-.6-.9-.8-1.1c.4-.2,1-.4,1.3-.7,0-1.8-2.1-1-2.8-2.3l1.2-.8c.1-.3,0-.9-.2-1.1-.9-.6-2.2.7-3-.4l1.2-.8c.2-.2-.1-.9-.3-1.2,1,.2.9,1.9,2.2,2s1-.3,1.1-.7l-1-1.5.8.4c.2.1.9.2,1.1,0s.4-.6.6-.8c.2.7.7,1.4,1.4,1.5s.7-.2.7-.3,0-.4,0-.6l-.3-1.2.9.8c.2.2.9.2,1.2,0s.6-.7.4-.9l-1-1c.4-.1,1.2-.6,1.2-1-.2-1.4-2.4-.5-3.1-1.6l1-.9c.2-.2,0-1-.3-1.1-.9-.4-1.8.9-2.9.3,0-.6,1.3-.9,1.1-1.5s-1.2-.6-1.2-2.1c1,0,1.3,1.3,2.7,1.4s.6-.2.7-.4,0-.7,0-.8l-1.4-.9c.6,0,1.2,0,1.7-.1s.5-1.2.2-1.4-.9-.2-1.5-.2c.3-.8.4-2.1-.2-2.7l-.9-.8c.8,0,1.3.2,1.7,0s.5-1.1,0-1.4-1-.2-1.3-.2c.2-.5.5-1.2.3-1.6-1.3-1.1-1.9.7-3.3.6v-1.1c.1-.2.2-.7,0-.8l-.5-.3h-.1c-1.3,0-1,1.9-2.3,1.9,0-.2,0-.9.1-.9h.8c0-.4,0-1-.2-1.4l-.2-.5c0,0,.5-.1.5,0l1.3.8c0,0,.1,0,.1,0Z"/>
    <polygon class="st0" points="199.1 28.9 191.3 21.2 183.7 28.9 180.4 25.6 188.1 17.9 180.4 10.2 183.7 7 191.3 14.7 199.1 7 202.3 10.2 194.6 17.9 202.3 25.6 199.1 28.9"/>
    <polygon class="st0" points="49.6 150.5 41.9 142.8 34.2 150.5 31 147.3 38.7 139.6 31 131.9 34.2 128.6 41.9 136.3 49.6 128.6 52.9 131.9 45.2 139.6 52.9 147.3 49.6 150.5"/>
    <polygon class="st0" points="51.8 211.3 44.1 203.7 36.4 211.4 33.1 208.1 40.8 200.4 33.1 192.7 36.4 189.4 44.1 197.1 51.8 189.4 55.1 192.7 47.4 200.4 55.1 208.1 51.8 211.3"/>
    <polygon class="st0" points="124.4 218.9 116.6 211.2 108.9 218.8 105.7 215.6 113.4 207.9 105.7 200.2 109 197 116.6 204.6 124.3 196.9 127.6 200.2 119.9 207.9 127.6 215.6 124.4 218.9"/>
    <polygon class="st0" points="199.1 89.7 191.4 82 183.7 89.7 180.4 86.4 188.1 78.8 180.4 71.1 183.6 67.8 191.4 75.5 199 67.8 202.3 71.1 194.6 78.8 202.3 86.5 199.1 89.7"/>
    <polygon class="st0" points="49.7 89.7 41.9 82 34.2 89.7 30.9 86.5 38.7 78.8 31 71.1 34.2 67.8 41.9 75.5 49.6 67.8 52.9 71 45.2 78.8 52.9 86.5 49.7 89.7"/>
    <polygon class="st0" points="124.4 28.9 116.6 21.2 108.9 28.9 105.7 25.6 113.4 17.9 105.7 10.3 108.9 7 116.6 14.7 124.3 7 127.6 10.2 119.9 17.9 127.6 25.6 124.4 28.9"/>
    <polygon class="st0" points="199.1 150.5 191.4 142.8 183.7 150.5 180.4 147.3 188.1 139.6 180.4 131.9 183.7 128.6 191.4 136.3 199.1 128.6 202.3 131.9 194.6 139.6 202.3 147.3 199.1 150.5"/>
    <polygon class="st0" points="49.6 28.9 41.9 21.2 34.2 28.9 31 25.6 38.7 17.9 31 10.2 34.2 7 41.9 14.7 49.6 7 52.9 10.2 45.2 17.9 52.9 25.6 49.6 28.9"/>
    <polygon class="st0" points="196.9 211.3 189.2 203.7 181.5 211.3 178.2 208.1 185.9 200.4 178.2 192.7 181.5 189.4 189.2 197.2 196.9 189.5 200.1 192.7 192.4 200.4 200.1 208.1 196.9 211.3"/>
    <path d="M149.4,70.8l.5.3c.1.1,0,.6,0,.8v1.1c1.3.1,1.9-1.6,3.2-.6.1.4-.1,1.1-.3,1.6.3,0,1,0,1.3.2s.2,1.2,0,1.4-.9.2-1.7,0l.9.8c.6.6.5,2,.2,2.7.5,0,1.2,0,1.5.2s.1,1.3-.2,1.4-1.1,0-1.7.1l1.4.9c0,.2.1.7,0,.8s-.5.4-.7.4c-1.3,0-1.7-1.3-2.7-1.4,0,1.5.9,1.5,1.2,2.1s-1.1.9-1.1,1.5c1.1.6,1.9-.7,2.9-.3s.6.9.3,1.1l-1,.9c.7,1.1,2.9.2,3.1,1.6s-.7.9-1.2,1l1,1c.2.2-.2.8-.4.9s-.9.1-1.2,0l-.9-.8.3,1.2c0,.2,0,.5,0,.6s-.5.4-.7.3c-.7,0-1.2-.8-1.4-1.5-.1.3-.4.7-.6.8s-.8,0-1.1,0l-.8-.4,1,1.5c0,.4-.6.8-1.1.7-1.3-.2-1.2-1.8-2.2-2,.1.3.5,1.1.3,1.2l-1.2.8c.7,1.1,2.1-.2,3,.4s.3.8.2,1.1l-1.2.8c.7,1.3,2.7.5,2.8,2.3-.2.2-.9.5-1.3.7.2.2.6.8.8,1.1s-.5.8-.7.8-.8-.2-1-.4l-.7-1,.2,1.9c-.3.2-.9.2-1.1,0s-.6-.6-.6-.9l-.2-1.8c0,0-.2-.5-.3-.4l-.3.4c-.3.5-.5.7-1.1.9,0,1,1.5.2,1.7,1.3s-.2.9-.7,1-.7.4-.7.6c.3,1.1,2.5.8,2.1,2.6-.3.2-1,.4-1.4.5.2.3.5.9.6,1.3s-.4.7-.7.7-.9-.1-.9-.4l-.6-1.4v1.9c.4,0,.9,0,1.1.2s.3.8.1,1.1-.7.4-1,.5-.4.5-.3.7c.7.9,2.3.8,2.1,2.4-.3.2-1,.4-1.4.4.2.3.5.9.6,1.3s-.4.7-.7.7-.9-.1-.9-.4l-.5-1.3-.2,1.9c0,.3-1.1.3-1.2,0-.7-1.5.3-2.4-.3-3.3l-1.3,1.3-.6-.9c-.6-.2-1-.7-1.1-1.4v-2.3c0,0-1.6,1.6-1.6,1.6l-1.5-.5c-.4,1.5,1.6,2.4.4,3.8l-1.4-.6c0,.4,0,1.1-.2,1.5s-.9,0-1.1-.1-.4-.8-.3-1.2l.2-1.1c-.6.6-.7,1.4-1.4,1.4s-.7-.8-.7-1.2.3-.8.7-1.3l-.5-1.2-.3,1.6c-.3.1-1.1-.1-1.3-.3l-.2.8c0,.2-.6.2-.8.2l-1.1-.4c0,.4.1,1,0,1.5s-.9.3-1.2.1-.6-.7-.6-1.1v-1.2s-1.3,1.9-1.3,1.9l-.3.7c0,.1-.6.1-.7,0l-1.2-.8v7.4s0,8.1,0,8.1l3.3-.5c1.6-.3,3,0,4.5.8.4-1.2.5-2.5.5-3.8l.5-.5c0,0-.3-.4-.4-.5.3-1.8,3-2.4,2.7-2.7l-.7-.7,2-.3-.4-.6c-.3-.5,2,.2,3.5-.5l1.6.9-.3-.6c0-.1.4-.4.6-.3l1.5.7-.4-1.1,1.5.6c.2-.2.6-.4.8-.3.8.4.3,1.2,1.1,1.8-.3.5-1,.9-1.6,1-.4.7-1,1.2-1.7,1.1l.2-.8-1.9,1,.3-1c-1.3,0-1.2,2-2.9,2l.2-1c-1,.5-.8,1.4-1.6,2.2l-.2-.9-1.1,2.1-.2-1.3c-.4,1.1-.7,1.7-1.6,2.2l-1,1.9c2.1,2.5.7,5,1.2,6.7s1.3,1,2,1.4l-1,.2,1.8,1.4-.6.4,1.1,1.3-1.1.4c-.2,0-.2.5-.3.7l-1.4,1.2c-.6.6-.8,1-1.1,1.7l-2.3,4.5c.9.2,1.8-.2,1.9-1.3l2.9-.3-.6-2.6c1.6,0,2.7,1.5,2.7,3.2.9-.8.5-1.9.2-3.1.7.4,1.6,1.6,1.5,2.6-.2,1.5,1.1,1.8,2.1,2.4h-1.4c1,.4,1.8.8,1.9,1.7h-.3c0,0-.3,0-.3,0l.4.4,2.4,1-1.3.2c.8.3,1.4.7,1.9,1.5l-.9.2c.7.6,1.2.6,2.1.6l-1,.5,2.2.6-.6.6,2,.7c1.2.4,2.8.2,4.1,0l4.2-.7c1.4-.2,2.7,0,4.1.8.4-1.2.5-2.4.5-3.7l.5-.5c.1-.1-.2-.4-.4-.6.1-.7.8-1.5,1.5-1.9l1.3-.8-.9-.7,2-.3-.5-.7c.7-.3,1.2-.3,1.9,0l1.7-.4c.6.4,1,.6,1.4.8-.1-.4-.3-.7-.2-.8.4-.2,1.2.2,1.7.5l-.3-1.1,1.4.7c.2-.1.5-.4.6-.4s.5.4.5.5l.5,1.2c0,.6-1,.8-1.4,1.1-.5.4-.9.8-1.6,1.1v-.9c0,0-1.6.9-1.6.9v-.5c0-.1.2-.4,0-.4s-.5.1-.5.2l-1.3,1.6c0,0-.5.1-.6.1s0-.4,0-.8c-.9,0-.8,1.2-1.6,2l-.2-.9-1.1,2.2-.2-1.3c-.4,1.1-.6,1.6-1.4,2l-1.1,2c2,2.2.7,5,1.2,6.6s1.3,1.1,2,1.5l-1,.2,1.4,1c0,0,.2.5.1.5l-.5.2,1.1,1.2h-.8c-.1,0,0,.3,0,.5h-.5c0,0,0,.2,0,.4l-1.5,1.4c-.6.6-.7,1.1-1.1,1.8l-2.3,4.7-2.5.5c-.2.6-.4,1.3-.7,1.7l-.4-2-1,2c-.5-.7-.4-1.2.1-2.2-.6.1-1.1.4-1.9.8l.5-1.5h1.4c0-.6-.4-1.1-.9-1.5.8-.2,1.4.3,1.5,1.3.7,0,1.6,0,2.2-.2l1.5-4.1,1.2-2.2c.9-1.6-1.4-1.7-3.2-3.6l.7,2.2-.9-.7c.2.9.3,1.6-.1,2.3l-.5-.4c.1.7,0,1-.2,1.6l-.4.7c0,.1-.5-.4-.5-.4l-1.5,1.7-3.1,3c-.2.2-.5.7-.9.9l-.9,1.1c-.1-.6-.2-1-.5-1.3l-1.1,2c-.4-.7-.5-1.3-.5-2.2l-1.7.5-.5.2.4-1.1.2-.4c0-.1.6-.2.7-.2h.6c.3,0-.1-1.2-.2-1.2l-.7-.3.4-.4c.2-.2,1.3.4,1.3.5v.9c1.4.5,2.5-.4,3.5-1.7l1.5-2c.4-.6.6-1.1.4-1.8l-.7-2.5c-.4-1.2-.3-2.5,0-3.7l-5.4.8.5.7-2-.4.2.6c-.8,0-1.4-.3-2.4-.8l.8,1-1.9-.6v.9c.1,0-.8-.2-.8-.2l.7,1.5-1-.6c.2.9.3,1.3.2,2.2l-.6-.4v2c-.1,0-.9-.9-.9-.9l-1.1,3.2-.7,2.5c0,.3-.1,1.3-.4,1.4-.4.2-1.4.4-1.7.5l-.4.9-.2-.6c0-.1-.1-.1-.3-.3l-.2-.3c0,0-.3,0-.4.2l-.7,1.6c-.7-.8-.5-1.3,0-2.2l-1,.3c-.2,0-.4,0-.5.2l-.5.7c-.1-.3-.1-.7,0-1,.4-.8,1.5-.7,1.4-1l-.2-.6c0-.1,0-.4-.1-.5l-.5-.4c.2-.2.7-.3,1-.1.4.3.5.6.4,1.2.4.3,1.4.4,2,.2.3-.4.6-1.1.6-1.6l1.2-6.3c-1.9.6-3.6.2-5.2-.5v1.9c.8,0,1.6-.9,2.4-.3l-1.9,1c0,0,0,.5,0,.5s.3,0,.3,0h1.4c-.2.9-1.1,1.1-2.3.9.1.5.4.7.9,1.1,0,.2-.7.4-.9.2s-.6-.7-.8-1.1c0-.1-.7.2-.6.4l.4,1s-.3,0-.4,0c-.3,0-.4-1.2-.9-1.1l-2.1.3.2,2.2c0,.9-.2,1.9-1,2.4s-1.6.6-2.5.7l1.3-2.8c1-3.2-1.5-5.7-4.5-7.4,0,3.7,3.3,5.3,1.9,9.9s-1.6,4.1-2.9,6c-.2-1.8.2-3.4.9-5,1.4-3.5-.5-5.6-2.8-8.6s-.3-1-.5-1.5c-.7,1.5-.3,3.2.8,4.5.3,1.3,0,2.6-1.1,3.5-1,.5-1.9.7-3.1.9-.2,2,1.5,4.1,1.8,6.5l-2-2.4c-.8-1-1.8-2.1-1.6-3.4.4-2.8,4-3.6,3.3-5.5s-1.6-1.2-2-1.9c-.6-.9.4-1.9.5-2.9l-4.6,4.9c-1,1.1-1.2,2.5-.3,3.8l1.3,1.9-2.4-1.4c-.6-.4-1.2-1.1-1-1.9l.9-2.9c-2.2-.2-4.1,1.6-5.4.2l-1.1-1.2-1.8,1.6-.4,1.2-2.4,4.7-2.4.5c-.6.1-.3,1.3-1,1.7l-.3-2-1.1,2-.4-1c0-.3.2-.6.6-1.2-.6.1-1.1.4-2,.8,0-.4.3-1.1.5-1.5h1.5c0-.6-.3-1-.9-1.4.1-.1.8,0,1,.1s.3.6.5,1c.5.2,1.7,0,2.3-.2l1.6-4.1,1.2-2.2c1-1.8-1.6-1.6-3.5-3.9l.8,2.5-1-1c.2.7.3,1.8,0,2.2s-.3,0-.4,0-.3,0-.2,0c0,.1.2.5.1.6l-.5,1.2c0,.1-.2.4-.3.4l-.5-.4-1.6,1.6c-1,1-2.1,2.1-3.3,3-.2.3-.4.7-.8.9l-1.2,1.3c0-.6,0-1-.4-1.4l-1.1,2.1c-.6-.5-.7-1.3-.5-2.1l-1.5.3-.7.5c0-.4,0-.7.3-1.1.1-.2.1-.6.3-.6h.9c.1-.2.6,0,.6-.2v-.6c-.2-.4-.6-.7-1-.8l.5-.5c.1-.1,1.3.4,1.3.5v.9c1.3.5,2.6-.3,3.5-1.5l1.8-2.2c.4-.5.5-1.1.3-1.7l-.7-2.3c-.4-1.3-.4-2.6,0-3.9l-5.4.7v.2c0,.1.3.3.2.3s-.4.1-.4,0l-1.4-.3v.4c0,0-.2.3-.3.3l-2.2-.8.8,1-2-.6v.6s0,.3,0,.3c0,0-.2,0-.3,0h-.7c0-.1.7,1.4.7,1.4l-.9-.6.4,2.1h-.8c0,0-.2,1.7-.2,1.7l-.8-.9-1.2,3.5-.7,2.6c0,.3-.1.9-.3,1.1-.5.5-1.7.3-1.8.5l-.4.7s-.2.2-.3.2,0-.2,0-.2v-.2s-.8-.8-.8-.8l-.9,2c-.7-.8-.7-1.4,0-2.2-.5-.2-1.7.4-2.1,1h-.3c0-.1.6-1.3.6-1.3l1.3-.4-.8-1.7c0,0,.7-.2.9,0,.4.2.5.6.4,1.3,1.2.5,2.4.5,2.6-.4l1.4-6.6.5-3.7c0,0-.7-.3-.8-.1l-.8.7-.2-.5h-.2c-.4.7-1.1,1-1.6.6l-1.4.5,1-1.2h-.7c-.2-.2-.7-.1-.9,0s-.3.7-.3.9l.2,3.5,2.2-.6c0,0,.4.3.3.3h-.4c0,.1-1.4.8-1.4.8,0,0-.3.3-.3.3s.2.4.3.4l1.7-.3c-.2.9-1.3,1.2-2.5.9.1.6.4.8,1,1.1,0,0-.4.3-.5.4s-.6-.2-.7-.3l-.9-1.3c-.5.6-.2,1.2.1,2-1.9-.5-.8-2.2-.9-4.2l-.2-3.3c0-1,.4-1.8,1.3-2.2l-.3-.3s0-.1,0-.1h.4c.5,0,.8-.1,1.1-.6h1.5s0-.3,0-.3c0-.3,1.4.6,3,.7l-.6-1.1-.4.3c0,0-.2-.2-.2-.3v-1.6c-.1,0-.7.4-.7.4-.3-.6-.2-1.3,0-2.1l-.9.7.5-1.5-.2-1.8-.6,1.2c-.2-1.3-.1-2.5.5-3.7h-3.5c-.9,0-1.6.2-2.1-.7-.8,0-1.7,0-2.5-.3-1.5-.5-1.1-2.8-.9-2.2v.4c.6,1.2,1.7,1.5,3,1.6h.7c.2,0,.3.4.3.5.5,0,.4-.1.2-.3l-.2-1c0-.2-.6,0-.8.2-.9-.5-2.1-1.5-2.1-2.4l4-.5c.8-.1,1.2-.6,1.6-1.3.8-.3,1.7-.3,2.9-.4,0-.8-.3-1.6-.6-2.5,1.4-.2,2.9,1.4,2.9,3.2,1-.9.5-2.1.1-3.2.9.5,1.7,1.6,1.7,2.6s.6,1.9,1.8,2.1l.3.3h-1.4c.9.5,1.8.7,1.9,1.7h-.3c0,0-.3,0-.3,0,0,0,.3.4.4.4l2.5,1-1.2.2c1.7.7,1.9,1.7,1.6,1.6h-.5c.3.7,1.1.6,2,.6l-1,.5,2.3.6-.5.6,1.9.7c1.2.5,2.9.3,4.2,0l4.6-.7c1.6-.2,2.9,0,4.4.8.2-.9.5-1.9.4-2.8s0-1,.4-1.4.2-.3.2-.3l-.5-.2c.2-.9.9-1.6,1.7-2.1l1.1-.7-.8-.6,1-.3.3-1.3-1,.2c-.4.1-.7.5-1,.9-.2-.3-.1-.9.2-1.3s.7-.4,1.3-.6c0-.4-.4-1.2-.7-1.7.3-.2.9-.2,1.2,0s.2.6.2,1.1c.4.2,1.5.4,1.9.3s.6-.6.7-.9l1.3-6.4.5-4c-.7-.1-1.3.2-1.6,1v-.9c-.7.9-1.3,1.2-2.1.9l-1.4.5,1.2-1.2h-1.3c-1.3-.3-.3,2.2-.6,4.4,1-.3,1.6-.8,2.7-.5l-1.8.9-.3.2c0,0,.1.5.2.5l1.7-.2c-.5,1.1-1.3,1-2.5.9.3.5.6.7,1.1,1.1-.2,0-.7.3-1,.2-.8-.2-.6-1.3-1.5-1.5,0,.7,0,1.1.4,1.9-1-.2-1.3-1.2-1.1-2.1s0-2.3,0-3.4v-2.7c0-.6.8-1.3,1.2-1.6-.3-.2-.4-.4,0-.4.9,0,1.1,0,1.4-.6l1.4.2v-.4c0-.4,1.3.7,2.8.6l-.5-1-.5.4-.2-1.9-.4.4c-.2.2-.7-.6-.1-2.3l-1,.8.5-1.5c.1-.4-.2-1.3-.3-1.6l-.3.7s-.3.2-.3.2c-.2-1.4,0-2.3.4-3.6h-3.4c-.9,0-1.6.4-2-.7-.8,0-1.8,0-2.6-.3s-1.3-1.5-1-2.4c.4,1.3,1.3,2.1,2.6,2.1h1.4c1.1-.3,2.1-.4,3.3-.3l-.4-1c0-.2-.8-.1-1.1,0h-.4c0,0,.3.9.1.7l-.2-.2-.4-.3c0,0-.4,0-.5.1v.7c0,0-.5-.5-.5-.5-.1-.1-.5.2-.6.2.2.4,0,.4-.1.2l-1.2-1c-.5-.4-.8-.7-.9-1.5l3.8-.5c.9-.1,1.4-.5,1.7-1.4l3-.4-.7-2.5c.7-.3,1.4.2,1.9.7s1,1.2,1,2.4c.9-1,.6-2,0-3.2.6.3.9.8,1.3,1.4.3.6.4,1.3.3,1.9.5,1,1.3,1.3,2.2,1.7h-1.5c.9.4,1.7.8,2,1.6l-.7.2c0,0,.3.3.4.4l2.6,1.1h-1.5s1.9,1.1,1.9,1.1v-11.9s-1,.4-1,.4c-.2,0-.6-.5-.7-.6-.3,0-.7-.3-.9-.5l-.7-1.1v1.2c0,.3-.2.9-.5,1.1s-1.2.2-1.3-.1,0-1,0-1.4c-.4.1-1.2.4-1.6.4s-.5-.8-.4-.9c-.3.1-.8.4-1,.4-.8,0-.2-2.1-.8-1.4l-.3.8c0,.2.8.7.6,1.8s-.5.7-.9.8l-1.1-1.5v1.6c.2.2-.2.7-.4.8s-.9,0-1-.2l-.2-1.4c-.3.3-1.1.7-1.4.5-1.2-.8.9-2.5.4-3.6-.6.1-1.2.4-1.6.3s-.7-.6-.9-.9l-.3-.4c0,0-.3.4-.3.5v1.9c0,.3-.3.8-.5,1s-.8.1-1.1,0v-2s-.5,1-.5,1c-.1.2-.5.6-.7.6s-.8-.3-.9-.6.1-.8.3-1.1l.3-.4c.2-.2-1.1-.2-1.3-.8s0-.9.2-1c.8-.7,2-.7,2.1-1.4s-.8-.1-1.3-1.6l-.2-.5c0-.1-.3.2-.3.4l.2,2c0,.3-.2.7-.4.9s-1,.4-1.1.1c-.2-.5-.2-1.2-.3-1.9l-.4.9c-.1.3-.5.7-.9.7s-1.1-.5-.9-.9l.6-1.1-1.4-.4c-.4-1.9,1.8-1.6,2.1-2.8s-1.5-.4-1.4-1.4.5-.8.9-.8.8,0,.9-.2l.3-.8-.5.3c-.1,0-.4-.1-.5-.2l-.8-1.1c-.5,1.1,0,2.3-.8,3.1s-.9.3-1.3.1l.2-1.9-.7,1c-.2.2-.7.5-1,.4s-.8-.6-.7-.8c.2-.4.6-.9.8-1.1-.4-.1-1.1-.4-1.3-.6,0-1.9,2.2-1.1,2.7-2.4l-1.2-.7c-.2-.1-.1-.8,0-1,.7-.8,2.1.5,3.2-.5-.7-.5-1.6-.9-1.4-1.2l.4-.8c.2,0,0,0-.3-.2l-.8,1.3c-.2.3-.5.6-.8.7s-1.1,0-1.2-.4c-.1-.5.3-1,.7-1.3.2-.3,0-.6-.3-.2-.4.1-.9.3-1.2.2s-.5-.4-.8-.8c0-.3,0,0,0,.3-.2.4-.7,1-1.1,1.1s-.6,0-.7-.1-.2-.5-.2-.6l.4-1.1c0-.2,0-.4,0-.2-.5.5-.8.8-1.3,1s-1-.3-1.1-.5.2-.9.6-1.1l.3-.2c.3-.2-1.1-.4-1.2-1.1s.5-.9.7-.9l1.7-.2c.2,0,.5-.3.6-.4.2-.5-1.2-.7-1-1.7s.7-.6,1.2-.5l1.5.5c.1,0,.7-.2.7-.3-.4-.7-1-.7-1.1-1.3s1.1-.6,1.2-2.2c-1.2.2-1.5,1.6-2.9,1.3s-.6-.4-.6-.6.3-.6.4-.7l1.1-.8c-.7,0-1.3.2-1.8,0s-.4-1-.3-1.2.8-.4,1.2-.4c.2,0,.5-.1.2,0-.2-1.1,0-1.6,0-2.5l1.2-.9h-.3c-.5,0-1.2.1-1.6-.3s-.2-.9-.1-1.1.7-.4,1.2-.3l.3-.2c-.3-.5-.5-1.1-.3-1.4.8-1.2,2,.6,3.2.5.3-.8-.7-1.7.4-2.2s1.1,1.2,2.1,1.9.5-.4.4-.7-.4-.2-.8-.3.9-2.5-.5-1.8l-1.4.8c-.2.1-.8,0-1-.2s-.5-.7-.4-.9c.2-.4,1.8-.9,1.4-1h-.4c-.4,0-1.1-.2-1.4-.4s-.4-1.1,0-1.4,1,0,1.3,0l-.2-1.6c1.6-.9,1.9,1.1,3.3,1.3v-1.6c0-.3.7-.5,1-.4,1,.5.6,2.1,1.8,2.4v-1.9c-.3,0-.9-.3-1.1-.8l-.5-1.2,1.3-1.3c-1.1-.5-2.1.2-2.9-.7s-.3-1.2,0-1.3,2.3.2,1.7-.1l-.3-.2c-.3-.2-.8-.6-.9-.9s0-1.2.6-1.4.9.5,1.2.8l.6-1.5c1.8,0,1,2.2,2.2,2.9l1-1.7c-.2-.2-.5-1.1-.1-1.4h1.8c0,0-.9-.6-.9-.6-.2-.1-.6-.6-.7-.8s.4-1,.7-1,1,.5,1.2.7l.4-1.3c0-.2.8,0,.9,0,0-.2.2-.7.3-.8s.7-.1,1-.1h.5c0,0,.1-.2,0-.2l-.4-.2c-.4-.2-.9-.5-1-.7s0-1.1.5-1.3,1,.3,1.3.5c0-.4.1-1.3.5-1.5,1.4-.5,1.4,1.8,2.5,2.3l1.2-2.5,1.6.2-.3-.3c-.4-.3-.8-.6-1-.9s0-1.2.4-1.3,1.1.4,1.4.7c0-.5.3-1.2.6-1.4,1.6,0,1,1.9,2.2,3l.7-1.5c.3,0,.8,0,1,.2.7.8-.6,2.4.5,3.2l.6-1.4h1.5c0-1.1-1.4-.9-1.9-2.1s0-1.2.5-1.4.9.4,1.2.7c.3.2.5,0,.2-.2-.2-.5-.3-1-.3-1.4s.8-1,1.2-.7.4.9.6,1.2c.3-.3.9-.9,1.3-.8,1.3.4,0,2.3.3,3.6.8-.5,1.2-.8,1.7-.8s1,.3,1.7.8c.7-1.2-1.1-2.8.5-3.7.3.2.9.6,1.2,1,0-.3.2-1.2.6-1.3s1,.3,1.1.6,0,1-.2,1.4l-.2.3c0,0,0,.3,0,.2.8-.5,1.2-1.2,1.6-.9s.5,1,.3,1.4c-.5,1.1-2,1-1.8,2h1.5c0,0,.6,1.5.6,1.5,1-1-.3-2.4.5-3.3s.9-.2,1,0l.7,1.3c1.2-.9.5-2.9,2.2-3l.6,1.5c.2-.4.7-1,1.2-.8s.6.9.5,1.2-.5.8-.8.9l-.4.2c0,0,0,.3,0,.2h.5c0,0,.8-.2.8-.2.2,0,.4.4.5.6l.7,1.7c1.3,0,.9-2.5,2.6-2.1.3.2.4,1.1.5,1.5.5-.3,1.1-.7,1.4-.5s.6,1.1.3,1.4-.6.4-1.3.8c.5.3,1.5,0,1.6.3l.3.8c.2,0,.7-.2.9,0s.4.6.4.8v.5c.1.3.8-.8,1.5-.6s.6.7.5,1.1c-.1.5-.7.8-1.2,1-.1.2-.2.3-.2.3h1.5c.2,0,.6.5.5.7l-.5.8c.2.1.6.5.7.8l.4.9c1.1-1,.4-2.8,2.1-2.9.3.2.6,1,.6,1.4l1.1-.8c.6.3.9,1,.6,1.5s-.7.7-1.3,1.1h1.8c.3.3.3,1,0,1.3-.8,1-2.1,0-2.8.9l1.2,1.3-.8,1.5c-.1.2-.7.4-.8.4v1.9c1.3-.5.9-1.9,1.8-2.5s1.1.1,1.1.4v1.6c1.3,0,1.8-2.2,3.2-1.3.2.3,0,1.2-.2,1.6.4,0,1.2-.2,1.5,0,.4.4.1,1.5-.3,1.6l-1.7.2,1.6.8c0,.3,0,.9-.3,1s-.9.2-1.2.2h-.2ZM118.4,50.6l-1-1.3-1,1.3h2ZM130.7,51h-1.6c.4.5.6.9.9,1.4l.2.5c0,0,.4-.2.4-.3v-1.6ZM104.8,52.4c.2-.5.4-.8.9-1.3h-1.7s0,1.5,0,1.5c0,.1.5.5.5.3l.2-.5ZM113,52l-.4-.4c0,0-.1,0-.1,0,0,.1,0,.5,0,.4s.5,0,.4,0ZM122.4,51.5h-.4s-.1.4-.1.4c0,0,.3.2.3,0l.3-.5ZM100.3,54.3c-.5-.7-1.5.2-2.9-.1.2.7.3,1.2,1,1.7l.6-1.2c.1-.3.7-.3,1.2-.4ZM137.4,54.3l-1.8-.2c-.4,0-.7,0-1.1.2l1.2.2.8,1.4c.6-.5.9-1.1,1-1.6ZM102.1,55.6c-.5,0-1.2.3-1.6.5s0,1.4.4,1.4c.4-.7.7-1.1,1.3-1.9ZM134,57.5c.4-.3.6-1.1.4-1.3-.5-.4-1.2-.6-1.8-.6.4.4.7.7.9,1l.5.9ZM103.5,58.9c.2-.3.4-.6.4-.8v-1.3s-1,.5-1,.5l.6,1.7ZM131.3,58.9l.6-1.8-1-.5v1.4c0,.2.2.5.3.8ZM95.2,60.2c-.2-1.2.6-1.1,1.1-1.8s-.4-.3-.5-.3h-1.7c0,.1.1,1.3.1,1.3,0,.3,0,.7.3.9s.6,0,.8,0ZM114.8,58.9c.2-.3.4-.6.3-.7h-.6c0-.2,0,.3,0,.4s.3.3.4.2ZM119.7,58.2l.2.5c0,.1.4,0,.4,0v-.6c0-.1-.6,0-.6,0ZM140.6,60.1v-1.8c-.5-.1-1.4-.2-2.2,0l1.1,1.1.3,1.2.9-.4ZM116.6,60.5l.4-1c0-.1-.3-.4-.5-.5v1.5ZM118.2,60.6v-1.6c.1,0-.5.5-.5.5l.5,1.1ZM97.9,60.1l-.3-.4c0,0-.4.3-.5.3h.7ZM137.4,59.8h-.7c.1.5.7.5.7,0ZM110.5,61.2l-.9-.3c-.1,0-.2.3-.3.6l1.1-.3ZM125.4,61.4c-.1-.4-.3-.5-.4-.5l-.8.3,1.2.2ZM112.3,63.8l.9-1.4-1.3.4.5.9ZM122.8,62.8l-1.2-.4.8,1.3c.2,0,.6-.8.4-.9ZM109.3,64c-.4-.8-1.2-.8-1.5-.3l1.5.3ZM127.1,63.7c-.6-.7-1.4-.3-1.6.3l1.6-.3ZM120.8,64.5c0-.3-.2-.7-.4-.7h-.7c0-.1,1.1.7,1.1.7ZM114.1,64.3l.6-.5c0,0-.1,0-.4-.2-.5.5-.8,1.3-.3,2.1.4-.4-.3-1.2,0-1.4ZM120.9,65.6v-.9c0,0-.4.6-.4.6,0,0,.3.2.4.3ZM116.6,65.2c0-.1-.7,0-.7,0v2c.9-.3,1.1-1.5.7-2ZM118.8,67.2l.2-2.1c-.2,0-.8-.2-.9,0l-.2.8.9,1.3ZM110.1,65.9c-.6-.2-.9-.2-1.3-.2l.4,1.1.9-.9ZM126,65.5l-1.3.3c.4.4.6.6,1,.9l.3-1.1ZM133,67.9c.4-.3.9-1.6.2-1.9v1c.1.2-.3.4-.5.5s.2.5.3.4ZM101.9,67.4l-.6-.4.5,1.2.4-.3c0,0-.1-.3-.2-.4ZM123.6,67.8c.4.2.5.3.5.2l.2-.4c-.2-.1-.8,0-.7.2ZM111.2,67.7h-.8c.2.2.4.5.5.4l.3-.4ZM97.8,69.6c-.3-.4-.6-.5-1-.5.3.3.7.5,1,.5ZM137.3,69.5c.4-.2.7-.3.6-.4-.2,0-.2,0-.3,0h-.4c0,.3.2.6.1.5ZM123.9,70.7l.2-.7c0,0-.2,0-.3,0l-.3.5c0,.1.4.3.4.2ZM149.4,70.7l-1.3-.8c0,0-.6,0-.5,0l.2.5c.1.4.2,1,.2,1.3h-.8c-.2,0-.2.8-.1,1,1.3,0,1-1.9,2.3-2h.2ZM111,70.8c.2-.3.2-.7,0-.7h-.5s.4.7.4.7ZM96.7,72.2v-1.6c-.4.2-.8.5-.8.8s.4.7.8.8ZM138.1,72.1c.3,0,.9-.6.8-.8s-.5-.5-1-.7l.2,1.5ZM121.6,72.6c.2-.2.3-.6.3-1.1l-.7.4c-.2.1,0,.6.3.7ZM113.2,72.8c.2-.2.5-.6.4-.7l-.6-.5c-.1.3,0,.8.3,1.1ZM116.4,72.3c0-.2,0-.5,0-.5h-.6s.7.5.7.5ZM94.5,75.7l.3-.4c-.6,0-1.2.3-1.2.8s.3,1,.8,1.2l-.2-1c0-.1.2-.4.3-.6ZM140.4,77.2c.8,0,.9-.9.8-1.4s-.8-.6-1.1-.5l.6.9c.1.2-.2.6-.3,1ZM109.6,76.6l.5-.9-1.4.2.9.7ZM126,75.9l-1.4-.3.6.9.8-.6ZM98.8,76.9l.5-.7h-.2c0-.1-.8.8-.8.8,0,0,.3.5.3.4v-.5ZM136.3,77.3c.2-.8-.3-1-.8-1l.8,1ZM151.8,77.6l-.9-.8c-.2-.2-.7-.5-.8-.5.2.7.2,1.2.2,2.1.5.3,1.5-.3,1.6-.7ZM84.5,78.3v-2.1c.1,0-1.6,1.5-1.6,1.5.4.6,1.2.9,1.6.6ZM102.2,76.6h-.7c.1.5.7.5.7,0ZM122.4,76.7l.3.4c0,0,.1,0,.1,0,0-.2,0-.5,0-.5s-.5,0-.4,0ZM132.6,76.7c-.1,0,.1.4.3.3h.3c0-.1,0-.4-.1-.4h-.5ZM148.2,78c.2,0,.5-.6.3-.8l-.5-.5c-.2.5-.1,1,.2,1.3ZM86.9,77.3v-.5c0,0-.4,0-.5.1-.3.2-.2,1,.1,1.1s.4-.5.4-.7ZM99.4,77.8l-.7-.2c0,.4.7.9,1.1.8s.3-.5.1-.5l-.5-.2ZM134.9,78.4c.4,0,1.1-.4,1.1-.8l-1.2.2v.6ZM112,78.5l.3.5c0,0,.3,0,.3-.2v-.4c-.1,0-.6,0-.6.1ZM122.2,78.4c-.1,0,0,.6,0,.5l.4-.2c.1,0,.1-.5,0-.4h-.5ZM124.6,84.4c1-.7,1-.9,1.4-1.5l-1.8-.9.5.5c.4.4-.4,1.2-.2,1.9ZM110.2,84.3l-.3-2-1.1.7c.4.7.9,1.3,1.4,1.4ZM85.8,83.2v-.5c0,0-.3-.2-.3-.1l-.3.4.6.2ZM149.1,82.5c-.1,0-.2.4,0,.4h.5c0,0,0-.2,0-.3s-.3-.2-.4-.2ZM96.2,86.1c-.2-.3-.5-.3-1.2-.2-.2-.2-.3-1-.4-1.5l-.6,2.2c.4.4,1.2.6,1.5.4l.7-.9ZM115.8,85.2v-.9c-.1,0-.6.5-.6.5,0,0,.3.2.6.4ZM139.3,86.9c.3.2,1.2,0,1.5-.4l-.7-2.1c0,.6-.2,1.4-.4,1.5-.6-.1-1,0-1.2.3l.8.8ZM138.5,88.1l-1.7-.9.8,1.4.9-.5ZM97.7,87.8v-.4s-1.3.7-1.3.7c.3.2.7.6.8.4l.5-.7ZM114.2,88.4v-.9s-.4.6-.4.6c0,0,.3.3.4.3ZM121.1,88.3l-.5-.9c-.3.4-.1.9.5.9ZM106.9,87.8c0,.2.1.5.3.5s.4-.1.4-.2l-.2-.5c0,0-.5.1-.5.2ZM119.4,90.5l.6-1.3c-.8-.2-1.1-.7-1.4-1.6-.6,1.2.6,1.5.9,2.9ZM127.3,87.8c0,.2.2.5.3.5s.3,0,.3-.2v-.5c-.1,0-.6.1-.6.2ZM116,88.5c.2-.1.3-.6.2-.7-.2.1-.3.6-.2.7ZM110,89.9l-.8-1.4c-.5.7,0,1.4.8,1.4ZM124.7,89.9c1,0,1.3-.9.8-1.5l-.8,1.5ZM113,89.1c-.2.2-.3.4-.2.4l.5.2c0,0,0-.3,0-.4l-.2-.2ZM95.6,90.8l.3-1.1c-.3.4-.4.8-.3,1.1ZM139.1,90.6h.3c0,0-.3-1-.3-1l-.2.2.3.9ZM83.4,90.5c.1,0,.1-.3,0-.4s-.3-.3-.4-.2l-.2.3-.2.4c0,0,.2,0,.3,0h.4ZM152.1,90.8c0-.3-.3-.8-.6-1-.2.3-.3.5-.2.6l.8.4ZM133.2,93.1c.9-.1.7-.8.4-1.3l-.4,1.3ZM101.6,93l-.4-1.2-.2,1c0,.2.5.3.6.3ZM119.7,94.8l-1.3-1.7c.1.7.3,1.3.5,1.9l.7-.2ZM93.2,95.2c.6.2,1.1,0,1.2-.2s.3-.6.3-.9l-1.6,1.1ZM141.3,94.8l-1.3-.7c0,.4.5,1.2.9,1.2h.6c0,0,0-.4-.1-.4ZM105,96.6v-1.3s-.5.6-.5.6c-.2.2,0,.7.5.7ZM129.8,96.6c.9-.4.4-1,0-1.2v1.2ZM90.9,97.7l-.5-.8-.2.8c0,.1.5,0,.7,0ZM144.5,97.7c0-.2-.3-.9-.3-.8l-.3.8c0,.1.6,0,.6,0ZM98.8,100c.2-.5.6-.9,1-1.3-.7.2-1.5.5-2.1.2s0-.9.2-1.1h-.5c-.3-.2-.6,1.3-.9,1.1l-1-.7.7,1.7c.9-.6,1.9-.3,2.7.1ZM138.7,99.9l.7-1.9-1.1,1c-.6-.5-.6-1.4-.9-1.3s-.4.2-.4.2l.3.7c0,.2-.4.6-.6.5l-1.6-.3,1,1.2c.8-.5,1.9-.5,2.7,0ZM121.9,100.3l-.2-1.2c-.3.4-.5,1.2.2,1.2ZM97,101.4c-.5-.8-1-.6-1.6-.3l-.8-.6.5,1.5,1.9-.6ZM137.8,101.4l1.8.6.6-1.5-1,.6c-.5-.3-1-.4-1.5.4ZM95.6,104.1l-.7-.4c-.4-.3-.7-.5-1.3-1,0,.5.1,1.5.5,1.9s1.3.1,1.5-.4ZM102.7,103.5c0-.4-.2-.7-.3-.7h-.7s1,.7,1,.7ZM133.2,102.8h-1.2s0,.7,0,.7l1.1-.7ZM104.2,105.1h-2.1c.4.5.7.7,1.2.6s.6-.2.9-.6ZM132.7,105.2l-1.1-.2-.9.2c.3.3.7.5,1.1.5s.7-.3,1-.6ZM98.2,107.7c0-.1-.5-.3-.5-.1v.5c0,.1.2.4.3.6s.6-.2.5-.3l-.3-.6ZM137,108.4v-1.1c-.1,0-.8.9-.8.9l.5.4c0,0,.3-.1.3-.2ZM106.6,109.7l-1.4-.8.3,1.9,1.1-1.1ZM129.3,110.9l.2-2.1-1.3.8,1,1.2ZM100.2,120.5c.8,0,1.5-.4,2-1.2h-1.5c0,0-.1,1.2-.1,1.2l-.8-.9c0-.1,0,.3-.1.4s.4.5.5.5ZM108,152.1l.3-.7-1.8.9.2-.7c0,0-.2,0-.3,0-.6.2-.7.9-2,1.9s-.6,0-.6-.2l.2-.7c-.5.3-.7.7-1,1.1l-.6.9-.2-.9-1.2,2.2-.2-1.4c-.5,1.1-.5,1.6-1.5,2l-1.2,2c1.3,1.6,1.3,3.3,1.1,5.4s.1,2,1.1,2.1,1.5-.9,1.5-1.7l5,1.2c1.8.2,3-.7,3.8-2.2s1-1.5,1.2-2.4c.4-2,.7-3.9.7-5.9l.3-18.1-1.2-.6.6,1-2-.6v.9s-.9-.2-.9-.2l.6,1.4-1-.6c.7,1.6.2,2.5,0,2.2l-.3-.4v2c-.1,0-.9-1-.9-1l-1.2,3.4-.6,2.2-.5,1.9,1.2.6-.3-.9c.9,0,1.4.3,2.1.8l-.4-1.2,1.5.7c.1-.2.4-.5.6-.4s.5.4.5.5l.5,1.3c0,.6-1.1.8-1.5,1.1-.6.5-1.1,1.2-1.8,1ZM122.8,148.7l1.5-.2c-.2-.8-.4-1-1-1.3.3-.2.9-.1,1.1.1s.3.6.5,1.1c.5.2,1.6,0,2.3-.1l1.3-3.3,1.2-2.5c.2-.4,1-1.3.4-1.7l-2.3-1.5-1.2-1.1.8,2.5-1-.8c.1.9.2,1.5,0,2.2l-.6-.4c0,.7,0,1-.2,1.5l-.3.8c0,.2-.6-.2-.7-.4-.6,1.3-2.4,1.8-2.4,2.8v3.4s.6-1,.6-1ZM69.8,148.6l-1.5-.2v1.1c-.3,0-.6,0-.7-.2l-.3-.6v.8c0,.3,1.4.5,2.5-.9ZM131.4,149.8c.8-.2,1.2-.6,1.7-1.2l-1.4-.2v1.1c-.2,0-.5-.1-.6-.2l-.2-.6-.2.6c0,.2.6.5.8.4ZM134.4,160.7l-.4.4c-.2.2-.6-.7,0-2.3l-.9.8.5-1.6-.2-1.7-.6,1.2c-.2-1.4,0-2.5.4-3.7h-3.3c-1,.1-1.5.2-2-.7-1.8,0-3.3-.3-3.4-2l-.3.4c-.6-.9-.3-1.2.2-2.2l-2.1.8v6.6c.2,1.8.4,3.8,1.3,5.3l2.9,3.9,2.9.5c-.2-1.2.1-2,1.2-2.5l-.4-.4c.7-.1,1.1-.3,1.6-.6h1.3c0,0,0-.5,0-.5h.4c.8.5,1.4.6,2.4.7l-.5-1-.5.5-.2-1.9ZM129.5,151.7l-.5-.3c0,0-.3.2-.2.3v.5s-.6-.5-.6-.5c-.1,0-.4.2-.4.2s0,.2.1.5l-1.3-1.1c-.1-.1-.4-.4-.5-.3l-.5.6-.4-1.8-.6.7c.3,1.3,1.1,2.1,2.4,2.1h1.4c1-.3,2-.4,3-.3-.1-.4-.3-1.1-.6-1.1s-.9.2-1.1.3c.2.6-.2.5-.3.2ZM65.4,152.4l2.7-.2c-.1-.6-.5-1.1-.9-1-.7,0-.8.2-.9.8l-.5-.5c0,0-.5,0-.5.1,0,.3.2.8.2.8ZM133.6,166.6c-.3-.2-.4-.4-.5-.3l-.4.3c1.1.9,2.5.9,3.8.2l.2-1.5c-.9,0-1.1.3-1.7,1v-.9s-1.3,1.2-1.3,1.2ZM132.8,165.8l-1-.3c-.2,0-.7.1-.8.3s-.1.5-.1.7c.9-.2,1.3-.3,1.9-.7ZM129,168.1h.2c0-.1,0-1.2,0-1.2h-.2c0,.1,0,1.2,0,1.2ZM105.9,169.6h1.7c1.5.2,2.9-.6,3.5-1.8-1.6.3-3.1.4-4.6.1l-4.1-.7-.6.6c0,.2.2.5,0,.5h-.4c0,0,1.2,1.5,1.2,1.5h-1c1.3.6,2.7.3,4.2-.3ZM129.1,168.4l-3.1.3-1.8-1.3c.9,2.2,2.9,3.3,5,3.4.1-1,.1-1.8-.1-2.4Z"/>
    <path class="st0" d="M108,152.1c.7.2,1.2-.5,1.8-1s1.4-.4,1.5-1.1l-.5-1.3c0-.2-.4-.5-.5-.5s-.5.3-.6.4l-1.5-.7.4,1.2c-.7-.5-1.3-.8-2.1-.8l.3.9-1.2-.6.5-1.9.6-2.2,1.2-3.4.8,1v-2c.1,0,.4.4.4.4.2.3.7-.6,0-2.2l1,.6-.6-1.4.9.2v-.9s2,.6,2,.6l-.6-1,1.2.6-.3,18.1c0,2-.3,3.9-.7,5.9s-.8,1.6-1.2,2.4c-.8,1.4-2,2.4-3.8,2.2l-5-1.2c0,.7-.7,1.8-1.5,1.7s-1.2-1.3-1.1-2.1c.3-2.1.3-3.9-1.1-5.4l1.2-2c.9-.4,1-1,1.5-2l.2,1.4,1.2-2.2.2.9.6-.9c.3-.5.5-.9,1-1.1l-.2.7c0,.1.5.3.6.2,1.2-1,1.3-1.7,2-1.9s.3,0,.3,0l-.2.7,1.8-.9-.3.7Z"/>
    <path class="st0" d="M134.4,160.7l.2,1.9.5-.5.5,1c-.9,0-1.6-.2-2.4-.5h-.4c0-.2,0,.2,0,.3h-1.3c-.5.4-1,.5-1.6.6l.4.4c-1,.5-1.4,1.3-1.2,2.5l-2.9-.5-2.9-3.9c-.9-1.6-1.1-3.6-1.1-5.3v-6.6c-.1,0,2-.8,2-.8-.6.9-.8,1.3-.2,2.2l.3-.4c.1,1.7,1.6,2.1,3.4,2,.5.9,1.1.8,2,.7h3.3c-.5,1.1-.6,2.2-.4,3.6l.6-1.2.2,1.7-.5,1.6.9-.8c-.5,1.6,0,2.4,0,2.3l.4-.4Z"/>
    <path class="st0" d="M122.8,148.7l-.6,1v-3.4c0-1,1.8-1.6,2.4-2.8.1.1.6.5.7.4l.3-.8c.2-.5.3-.8.2-1.5l.6.4c.2-.7.2-1.3,0-2.2l1,.8-.8-2.5,1.2,1.1,2.3,1.5c.6.4-.2,1.3-.4,1.7l-1.2,2.5-1.3,3.3c-.8.2-1.8.3-2.3.1-.2-.5-.3-.9-.5-1.1s-.8-.3-1.1-.1c.6.3.8.5,1,1.3l-1.5.2Z"/>
    <path class="st0" d="M105.9,169.6c-1.5.6-2.8.9-4.2.3h1s-1.2-1.4-1.2-1.4h.4c.1-.1,0-.4,0-.6l.6-.6,4.1.7c1.5.3,3,.1,4.6-.1-.6,1.3-2,2-3.5,1.9h-1.7Z"/>
    <path class="st0" d="M129.1,168.4c.2.6.2,1.5.1,2.4-2.1-.2-4.1-1.3-5-3.4l1.8,1.3,3.1-.3Z"/>
    <path class="st0" d="M129.5,151.7c.1.3.4.4.3-.2.1-.1.7-.3,1.1-.3s.5.7.6,1.1c-1,0-2,0-3,.3h-1.4c-1.3,0-2.1-.8-2.4-2.1l.6-.7.4,1.8.5-.6c0-.1.4.2.5.3l1.3,1.1c0-.3-.1-.5-.1-.5s.3-.1.4-.2l.6.5v-.5c0,0,.1-.3.2-.3l.5.3Z"/>
    <path class="st0" d="M133.6,166.6l1.4-1.2v.9c.5-.8.7-1,1.6-1l-.2,1.5c-1.3.7-2.6.7-3.8-.2l.4-.3c0,0,.2,0,.5.3Z"/>
    <path class="st0" d="M98.8,100c-.8-.5-1.8-.7-2.7-.1l-.7-1.7,1,.7c.3.2.6-1.3.9-1.2h.5c-.3.3-.5,1.2-.2,1.3.7.3,1.4,0,2.1-.2-.5.4-.8.7-1,1.3Z"/>
    <path class="st0" d="M138.7,99.9c-.7-.4-1.9-.4-2.7,0l-1-1.2,1.6.3c.2,0,.6-.4.6-.5l-.3-.7s.3-.1.4-.2c.3-.1.3.8.9,1.3l1.1-1-.7,1.9Z"/>
    <path class="st0" d="M95.2,60.2c-.2.2-.6.2-.8,0-.2-.2-.2-.6-.3-.9v-1.2c-.1,0,1.6-.1,1.6-.1,0,0,.5.2.5.3-.5.7-1.2.6-1.1,1.8Z"/>
    <path class="st0" d="M140.6,60.1l-.9.4-.3-1.2-1.1-1.1c.8-.2,1.7-.1,2.3,0v1.8Z"/>
    <path class="st0" d="M139.3,86.9l-.8-.8c.2-.3.6-.4,1.2-.3.3-.2.3-.9.4-1.5l.7,2.1c-.3.4-1.1.6-1.5.4Z"/>
    <path class="st0" d="M96.2,86.1l-.7.9c-.3.2-1.2,0-1.5-.4l.6-2.2c0,.6.2,1.3.4,1.5.7-.1,1.1,0,1.2.2Z"/>
    <path class="st0" d="M65.4,152.4s-.1-.5-.2-.8c0,0,.5-.2.5-.1l.5.5c.1-.6.3-.8.9-.8s.7.5.9,1l-2.7.2Z"/>
    <path class="st0" d="M100.3,54.3c-.5,0-1.1.1-1.2.4l-.6,1.2c-.7-.5-.8-1-1-1.7,1.4.3,2.4-.5,2.9.1Z"/>
    <path class="st0" d="M151.8,77.6c0,.5-1.1,1-1.6.7,0-.9,0-1.4-.2-2.1.2,0,.6.4.8.5l.9.8Z"/>
    <path class="st0" d="M84.5,78.3c-.4.3-1.1,0-1.6-.6l1.7-1.5v2.1Z"/>
    <path class="st0" d="M137.4,54.3c0,.5-.4,1.2-1,1.6l-.8-1.4-1.2-.2c.4-.2.7-.2,1.1-.2l1.8.2Z"/>
    <path class="st0" d="M95.6,104.1c-.2.6-1.1.8-1.5.4s-.5-1.4-.5-1.9c.5.5.8.7,1.3,1l.7.4Z"/>
    <path class="st0" d="M104.8,52.4l-.2.5c0,.1-.5-.2-.5-.3v-1.6c0,0,1.6,0,1.6,0-.4.5-.7.8-.9,1.3Z"/>
    <path class="st0" d="M130.7,51v1.6c-.1,0-.5.4-.6.3l-.2-.5c-.2-.5-.4-.9-.9-1.4h1.6Z"/>
    <path class="st0" d="M97,101.4l-1.9.6-.5-1.5.8.6c.5-.3,1-.4,1.6.3Z"/>
    <path class="st0" d="M137.8,101.4c.5-.8,1-.7,1.5-.4l1-.6-.6,1.5-1.8-.6Z"/>
    <path class="st0" d="M100.2,120.5c-.2,0-.6-.3-.5-.5s.2-.5.1-.4l.8.9v-1.3c.1,0,1.6,0,1.6,0-.5.8-1.2,1.3-2,1.2Z"/>
    <path class="st0" d="M131.4,149.8c-.2,0-.8-.3-.8-.4l.2-.6.2.6c0,.1.3.2.5.2v-1.1c.1,0,1.6.2,1.6.2-.5.6-.9,1-1.7,1.2Z"/>
    <path class="st0" d="M134,57.5l-.5-.9c-.2-.3-.5-.6-.9-1,.6,0,1.3.2,1.8.6s0,1-.4,1.3Z"/>
    <path class="st0" d="M102.1,55.6c-.6.8-.9,1.2-1.3,1.9-.4,0-.9-1-.4-1.4s1.2-.5,1.6-.5Z"/>
    <path class="st0" d="M69.8,148.6c-1.1,1.4-2.4,1.3-2.5.9v-.8s.3.6.3.6c0,.1.4.2.6.2v-1.1c.1,0,1.7.2,1.7.2Z"/>
    <path class="st0" d="M124.6,84.4c-.2-.7.6-1.5.2-1.9l-.5-.5,1.8.9c-.4.7-.5.9-1.4,1.5Z"/>
    <path class="st0" d="M118.8,67.2l-.9-1.3.2-.8c0-.2.6-.1.9,0l-.2,2.1Z"/>
    <path class="st0" d="M110.2,84.3c-.5,0-1-.6-1.4-1.4l1.1-.7.3,2Z"/>
    <path class="st0" d="M119.4,90.5c-.2-1.4-1.4-1.7-.9-2.9.3.9.6,1.4,1.4,1.6l-.6,1.3Z"/>
    <path class="st0" d="M116.6,65.2c.4.5.2,1.7-.6,2v-2c0,0,.5-.2.6,0Z"/>
    <polygon class="st0" points="118.4 50.6 116.4 50.6 117.4 49.3 118.4 50.6"/>
    <path class="st0" d="M131.3,58.9c-.2-.3-.3-.6-.3-.8v-1.4s.9.5.9.5l-.6,1.8Z"/>
    <polygon class="st0" points="129.3 110.9 128.2 109.6 129.5 108.8 129.3 110.9"/>
    <path class="st0" d="M103.5,58.9l-.6-1.7,1-.5v1.3c0,.2-.2.5-.4.8Z"/>
    <path class="st0" d="M94.5,75.7c-.1.2-.3.5-.3.6l.2,1c-.5-.2-.8-.6-.8-1.2s.5-.8,1.2-.8l-.3.4Z"/>
    <polygon class="st0" points="106.6 109.7 105.5 110.8 105.2 108.9 106.6 109.7"/>
    <path class="st0" d="M132.8,165.8c-.6.4-1,.5-1.9.7,0-.2,0-.5.1-.7s.6-.4.8-.3l1,.3Z"/>
    <path class="st0" d="M140.4,77.2c0-.3.4-.8.3-1l-.6-.9c.3,0,1,.2,1.1.5.2.5,0,1.4-.8,1.4Z"/>
    <path class="st0" d="M96.7,72.2c-.4,0-.8-.5-.8-.8s.4-.6.9-.8v1.6Z"/>
    <path class="st0" d="M132.7,105.2c-.3.3-.7.6-1,.6s-.8-.2-1.1-.5l.9-.2,1.1.2Z"/>
    <path class="st0" d="M104.2,105.1c-.4.4-.7.6-.9.6-.5,0-.8-.1-1.2-.7h2.1Z"/>
    <path class="st0" d="M138.1,72.1l-.2-1.5c.4.2.9.4,1,.7s-.4.9-.8.8Z"/>
    <path class="st0" d="M119.7,94.8l-.7.2c-.2-.6-.4-1.2-.5-1.9l1.3,1.7Z"/>
    <path class="st0" d="M141.3,94.8c0,0,.2.4.1.4h-.6c-.3,0-.8-.8-.9-1.2l1.3.7Z"/>
    <path class="st0" d="M110.1,65.9l-.9.9-.4-1.1c.4,0,.7,0,1.3.2Z"/>
    <path class="st0" d="M122.8,62.8c.2,0-.2.9-.4.9l-.8-1.3,1.2.4Z"/>
    <polygon class="st0" points="138.5 88.1 137.6 88.6 136.8 87.2 138.5 88.1"/>
    <path class="st0" d="M126,65.5l-.3,1.1c-.4-.2-.6-.4-1-.9l1.3-.3Z"/>
    <path class="st0" d="M97.7,87.8l-.5.7c-.1.2-.6-.2-.8-.4l1.3-.7v.4Z"/>
    <path class="st0" d="M93.2,95.2l1.6-1.1c0,.2-.2.6-.3.9s-.7.4-1.2.2Z"/>
    <polygon class="st0" points="112.3 63.8 111.8 62.9 113.2 62.4 112.3 63.8"/>
    <path class="st0" d="M124.7,89.9l.8-1.5c.4.6.2,1.4-.8,1.5Z"/>
    <path class="st0" d="M99.4,77.8l.5.2c.1,0,0,.5-.1.5-.4,0-1.1-.4-1.1-.8l.7.2Z"/>
    <path class="st0" d="M134.9,78.4v-.6s1.1-.2,1.1-.2c0,.4-.7.9-1.1.8Z"/>
    <path class="st0" d="M110,89.9c-.8,0-1.3-.8-.8-1.4l.8,1.4Z"/>
    <path class="st0" d="M133,67.9c-.1,0-.4-.4-.3-.4.2-.1.6-.3.6-.5v-1c.6.4.1,1.6-.3,1.9Z"/>
    <path class="st0" d="M86.9,77.3c0,.2-.2.7-.4.7-.3,0-.4-.9-.1-1.1s.4-.2.4-.1v.5Z"/>
    <path class="st0" d="M127.1,63.7l-1.6.3c.2-.6,1-1,1.6-.3Z"/>
    <path class="st0" d="M137,108.4c0,0-.3.3-.3.2l-.5-.4.7-.9v1.1Z"/>
    <polygon class="st0" points="126 75.9 125.2 76.5 124.6 75.6 126 75.9"/>
    <path class="st0" d="M148.2,78c-.3-.3-.4-.9-.2-1.3l.5.5c.2.2-.2.7-.3.8Z"/>
    <path class="st0" d="M105,96.6c-.4,0-.7-.5-.5-.7l.5-.6v1.3Z"/>
    <path class="st0" d="M98.2,107.7l.3.6c0,.1-.4.4-.5.3s-.2-.4-.2-.6v-.5c0-.1.4,0,.4.1Z"/>
    <path class="st0" d="M109.3,64l-1.5-.3c.4-.6,1.2-.5,1.5.3Z"/>
    <path class="st0" d="M121.6,72.6c-.3,0-.5-.6-.3-.7l.7-.4c0,.5-.2.9-.3,1.1Z"/>
    <polygon class="st0" points="109.6 76.6 108.7 75.9 110.1 75.7 109.6 76.6"/>
    <path class="st0" d="M113.2,72.8c-.2-.3-.4-.8-.3-1.1l.6.5c.1,0-.1.5-.4.7Z"/>
    <path class="st0" d="M116.6,60.5v-1.5c0,.1.5.3.4.5l-.4,1Z"/>
    <path class="st0" d="M101.9,67.4c0,0,.3.3.2.4l-.4.3-.5-1.2.6.4Z"/>
    <path class="st0" d="M114.8,58.9c0,0-.4-.1-.4-.2s0-.6,0-.6h.6c.1.2-.1.5-.3.8Z"/>
    <polygon class="st0" points="118.2 60.6 117.6 59.5 118.3 59 118.2 60.6"/>
    <polygon class="st0" points="133.2 102.8 132 103.5 132 102.8 133.2 102.8"/>
    <path class="st0" d="M133.2,93.1l.4-1.3c.3.5.5,1.2-.4,1.3Z"/>
    <path class="st0" d="M152.1,90.8l-.8-.4c-.1,0,0-.3.2-.6.3.2.5.7.6,1Z"/>
    <path class="st0" d="M129.8,96.6v-1.2c.4.2.9.8,0,1.2Z"/>
    <path class="st0" d="M101.6,93c-.2,0-.7,0-.6-.3l.2-1,.4,1.2Z"/>
    <path class="st0" d="M144.5,97.7c0,.1-.6.1-.6,0l.3-.8c0,0,.2.5.3.8Z"/>
    <path class="st0" d="M120.8,64.5l-1.1-.9h.7c.2.2.4.6.4.9Z"/>
    <path class="st0" d="M98.8,76.9v.5c-.2,0-.5-.4-.5-.4l.8-.9h.2c0,.1-.5.8-.5.8Z"/>
    <path class="st0" d="M119.7,58.2c0-.1.6-.2.6,0v.6c0,.1-.4.2-.4,0l-.2-.5Z"/>
    <path class="st0" d="M83.4,90.5h-.4c0,.1-.3.1-.3,0l.2-.4.2-.3c0,0,.3,0,.4.2s0,.4,0,.4Z"/>
    <path class="st0" d="M110.5,61.2l-1.1.3c0-.3.1-.6.3-.6l.9.3Z"/>
    <path class="st0" d="M102.7,103.5l-1-.7h.7c.1,0,.3.3.3.7Z"/>
    <path class="st0" d="M123.9,70.7c0,.1-.5-.1-.4-.2l.3-.5c.1,0,.3,0,.3,0l-.2.7Z"/>
    <path class="st0" d="M125.4,61.4l-1.2-.2.8-.3c.1,0,.3.1.4.5Z"/>
    <path class="st0" d="M121.9,100.3c-.7,0-.5-.8-.2-1.2l.2,1.2Z"/>
    <path class="st0" d="M114.1,64.3c-.3.2.4,1,0,1.4-.5-.8-.2-1.5.3-2.1.2.1.5.2.4.2l-.6.5Z"/>
    <path class="st0" d="M136.3,77.3l-.8-1c.5,0,1,.3.8,1Z"/>
    <path class="st0" d="M127.3,87.8c0,0,.5-.3.5-.2v.5c.1,0-.1.2-.2.2-.1,0-.3-.3-.3-.5Z"/>
    <path class="st0" d="M121.1,88.3c-.6,0-.7-.6-.5-.9l.5.9Z"/>
    <path class="st0" d="M120.9,65.6c-.1,0-.5-.2-.4-.3l.5-.6v.9Z"/>
    <path class="st0" d="M106.9,87.8c0,0,.5-.3.5-.2l.2.5c0,0-.3.2-.4.2-.1,0-.3-.3-.3-.5Z"/>
    <path class="st0" d="M97.8,69.6c-.3,0-.8-.1-1-.5.4,0,.7,0,1,.5Z"/>
    <path class="st0" d="M90.9,97.7c-.2,0-.7.2-.7,0l.2-.8.5.8Z"/>
    <path class="st0" d="M114.2,88.4c0,0-.4-.2-.4-.3l.4-.6v.9Z"/>
    <path class="st0" d="M115.8,85.2c-.4-.2-.7-.3-.6-.4l.5-.5v.9Z"/>
    <path class="st0" d="M85.8,83.2l-.6-.2.3-.4c0,0,.3,0,.3.1v.5Z"/>
    <path class="st0" d="M112,78.5c0,0,.5-.2.5-.1v.4c.1,0-.2.2-.2.2l-.3-.5Z"/>
    <path class="st0" d="M116.4,72.3l-.7-.5h.6c.1,0,.1.3,0,.5Z"/>
    <polygon class="st0" points="139.1 90.6 138.8 89.8 139 89.6 139.4 90.6 139.1 90.6"/>
    <path class="st0" d="M111,70.8l-.4-.7h.5c.1,0,.1.4,0,.7Z"/>
    <path class="st0" d="M123.6,67.8c-.1-.1.5-.3.7-.2l-.2.4c0,0-.2,0-.5-.2Z"/>
    <path class="st0" d="M122.2,78.4h.5c.1-.1.1.3,0,.3l-.4.2c-.1,0-.2-.5,0-.5Z"/>
    <path class="st0" d="M102.2,76.6c0,.5-.6.5-.7,0h.7Z"/>
    <path class="st0" d="M149.1,82.5c0,0,.3.1.4.2s.2.3,0,.3h-.5c-.1,0,0-.5,0-.5Z"/>
    <path class="st0" d="M95.6,90.8c-.1-.4,0-.8.3-1.1l-.3,1.1Z"/>
    <path class="st0" d="M137.4,59.8c0,.5-.6.5-.7.1h.7Z"/>
    <path class="st0" d="M137.3,69.5c0,.1,0-.1-.1-.3h.4c0-.2.1-.1.3,0s-.2.2-.6.4Z"/>
    <path class="st0" d="M132.6,76.7h.5c0-.1.2.2.1.2h-.3c-.1.2-.4-.2-.3-.2Z"/>
    <path class="st0" d="M122.4,76.7s.3,0,.4,0c0,0,0,.3,0,.5s0,0-.1,0l-.3-.4Z"/>
    <path class="st0" d="M97.9,60.1h-.7c0-.1.4-.5.5-.4l.3.4Z"/>
    <path class="st0" d="M122.4,51.5l-.3.5c0,0-.3,0-.3,0v-.4c.1,0,.6,0,.6,0Z"/>
    <path class="st0" d="M113,52s-.4,0-.4,0c0,0,0-.3,0-.4s0-.1.1,0l.4.4Z"/>
    <polygon class="st0" points="129 168.1 129 167 129.1 166.9 129.2 168 129 168.1"/>
    <path class="st0" d="M111.2,67.7l-.3.4c0,0-.3-.2-.5-.3h.8Z"/>
    <path class="st0" d="M113,89.1l.2.2c0,0,0,.4,0,.4l-.5-.2c0,0,0-.2.2-.4Z"/>
    <path class="st0" d="M116,88.5c-.1,0,0-.5.2-.7.1,0,0,.5-.2.7Z"/>
  </g>
</svg>