<?xml version="1.0" encoding="UTF-8"?>
<svg id="Capa_2" xmlns="http://www.w3.org/2000/svg" version="1.1" viewBox="0 0 232.2 232.1">
  <!-- Generator: Adobe Illustrator 30.2.1, SVG Export Plug-In . SVG Version: 2.1.1 Build 1)  -->
  <defs>
    <style>
      .st0 {
        fill: #b3b5b6;
      }

      .st1 {
        fill: #202c35;
      }

      .st2 {
        fill: #313f2d;
      }

      .st3 {
        fill: #dbb341;
      }

      .st4 {
        fill: #43413c;
      }

      .st5 {
        fill: #1c365b;
      }

      .st6 {
        fill: #13130f;
      }

      .st7 {
        fill: #867b6c;
      }

      .st8 {
        fill: #77756f;
      }

      .st9 {
        fill: #979899;
      }

      .st10 {
        fill: #8e744f;
      }

      .st11 {
        fill: #433327;
      }

      .st12 {
        fill: #54504a;
      }
    </style>
  </defs>
  <path class="st0" d="M210.4,4.58c-.07.52-.41.91-.72,1.3-.66-.29-1.5-.33-1.86.39l-1.39.03c.31-.23-.04-.79-.46-.82l-22.88-1.78c-1.05-.08-1.7-.12-2.7-.23-11.25-1.17-22.34-1.27-33.59-1.72-.24.13-.09.68-.1.75-.26-.03-.53-.01-.79.04,0-.25.36-.55.03-.9-17.05-.49-33.64.02-50.67.68-13.59.53-26.67,1.58-40.15,2.8-.4.04-.64-.04-.91.07-.25.11-.36.41-.29.74-.42-.14-.97.12-1.4,0-.18-.05-.42-.46-.8-.43-5.95.43-11.69,1.26-17.65,2.04-2.42.32-11.49.91-12.05,2.28-.17.42.21.74.45.99-.06.89-.12,1.98,0,2.89-.1.15-.65.38-.66.84l-.47,34.1c0,.54.02,1.17.45,1.15.1.59-.39,1.31-.4,1.87-.14,8.73.27,17.46.79,26.34.03.54.44.86.66,1.09-.15.94-.5,2.79.36,3.58-.7.16-.65.87-.58,1.64.83,8.85,1.64,17.46,3.2,26.16.13.75.36,1.24.79,1.6.19.8-.13,2.38.65,3.01-.18.18-.45.54-.35,1.01,2,9.73,4.81,19.08,8.57,28.27.19.47.59.61.86.73.18.78.45,1.55.72,2.3,3.82,10.45,9.76,20.21,16.19,29.46.45.64.87,1.08,1.46,1.17.18.14.25.42.44.55-.08.53.04,1.02.48,1.61,8.27,10.94,17.51,20.93,28.26,29.53,9.5,7.59,19.3,14.19,30.26,19.33.9.42,1.96,1.15,2.8.91-.09.46-.09.93,0,1.39-.6.32-1.03.02-1.6-.24-8.83-4.15-17.13-8.87-24.96-14.7-4.42-3.29-8.52-6.3-12.65-10-30.55-27.42-49.15-62.7-54.75-103.48-2.13-16.02-3.31-31.7-3.12-47.9l.56-47.28C53.8,2.97,86.64,0,119.96,0h13.27c25.92,0,51.59,1.69,77.17,4.58Z"/>
  <path class="st8" d="M116.97,231.37c-.09-.46-.09-.93,0-1.39,23.62-10.74,44.9-28.3,60.35-49.33.55-.75.93-1.38.84-2.16-.02-.17.32-.41.49-.44.87-.17,1.88-1.69,2.49-2.62,5.64-8.64,10.85-17.31,14.81-26.84.43-1.02.97-1.82.92-2.77,0-.11.02-.22.02-.33.44-.08.53-.35.06-.38.02-.13.01-.26.01-.39.33.02.71-.11.9-.58,8.72-22.05,11.18-40.31,12.66-63.91.01-.33-.1-.62-.34-.44.2-.44.13-1.01.17-1.48,1.27-13.34.98-26.82.62-40.5l-.71-26.15c-.02-.8-.06-1.56-.54-2.04l-.02-.72c.18-.14.14-.27-.04-.38.04-.18-.13-.59-.04-.75.48-.55-.43-1.26.06-1.88.31-.39.65-.78.72-1.3.54.06,1.16-.02,1.17.59l1.09,41.25c.44,16.69-.08,32.91-1.73,49.55-2.18,21.96-7.89,43.15-18.04,62.73-8.52,16.43-19.69,31.37-33.18,44.1-12.56,11.86-27,22.05-42.74,28.56Z"/>
  <path class="st9" d="M145.92,2.54c-1.4.27-2.35,1.58-2.19,3s1.4,2.46,2.83,2.4,2.56-1.22,2.6-2.65-1.03-2.64-2.45-2.78c0-.08-.14-.63.1-.75,11.25.45,22.34.55,33.59,1.72,1,.1,1.65.14,2.7.23l22.88,1.78c.42.03.77.59.46.82-1.22.59-2.21,1.59-2.19,2.84.02,1.49,1.12,2.55,2.36,2.72,1.57.21,2.85-.8,3.11-2.25.48.48.52,1.24.54,2.04l.71,26.15c.37,13.68.65,27.16-.62,40.5-.3-1.41-1.44-2.43-3.03-2.29-1.23.11-2.24,1.05-2.33,2.49-.08,1.24.75,2.44,1.95,2.74,1.33.34,2.69-.25,3.24-1.47.24-.17.36.12.34.44-1.48,23.59-3.94,41.86-12.66,63.91-.19.48-.57.61-.9.58.01-1.38-.81-2.57-2.17-2.78s-2.69.54-3.01,1.89.37,2.71,1.71,3.27c1.26.52,2.42-.29,3.37-1.29.06.96-.49,1.75-.92,2.77-3.97,9.54-9.17,18.2-14.81,26.84-.61.93-1.62,2.45-2.49,2.62,1.05-1.42.85-3.75-.96-4.55-1.24-.55-2.7-.06-3.3.94s-.54,2.45.34,3.5c.71.85,2.22.93,3.43.54.09.77-.29,1.41-.84,2.16-15.45,21.03-36.73,38.59-60.35,49.33-.84.24-1.9-.49-2.8-.91-10.96-5.14-20.76-11.74-30.26-19.33-10.75-8.59-19.99-18.59-28.26-29.53-.44-.58-.57-1.08-.48-1.61,1.07.74,2.55,1.11,3.75.19,1.01-.77,1.33-2.44.36-3.81-.73-1.03-2.21-1.45-3.59-.58-1.18.74-1.21,2.24-.97,3.65-.59-.09-1.02-.53-1.46-1.17-6.43-9.25-12.37-19.01-16.19-29.46,1.1.74,2.46,1.16,3.51.51,1.2-.74,1.54-2.03,1.18-3.27s-1.51-1.85-2.94-1.77c-1.18.07-1.79,1.17-2.48,2.23-.27-.12-.67-.26-.86-.73-3.76-9.19-6.56-18.54-8.57-28.27-.1-.47.17-.83.35-1.01,1.28,1.03,3.26.96,4.2-.45.85-1.27.56-3.1-.95-3.96-1.4-.8-2.94.11-3.9,1.4-.43-.36-.66-.85-.79-1.6-1.57-8.7-2.38-17.31-3.2-26.16-.07-.77-.12-1.48.58-1.64.95.86,2.89.76,3.68.16,1.13-.84,1.33-2.52.71-3.59-.73-1.24-2.34-1.63-3.62-.88-.45.26-.72.64-1.13.73-.22-.23-.63-.55-.66-1.09-.52-8.88-.93-17.61-.79-26.34.61-.1.85.47,1.26.95,1.06,1.27,3,1.05,3.97-.25.92-1.22.63-3.13-.95-3.98-1.4-.75-2.9.09-3.88,1.4-.43.02-.46-.61-.45-1.15l.47-34.1c0-.46.56-.69.66-.84.86.62,1.69,1.46,2.94,1.32,1.47-.17,2.22-1.4,2.27-2.6.06-1.42-.83-2.42-2.06-2.7s-2.21.35-3.16,1.08c-.24-.26-.62-.57-.45-.99.56-1.37,9.63-1.96,12.05-2.28,5.96-.78,11.7-1.61,17.65-2.04.38-.03.62.38.8.43-.16.38-.6.55-.96.9-1.33,1.33-.95,3.38.44,4.18,1.56.9,3.52.31,4.07-1.28.58-1.7-.54-3.28-2.15-3.8-.07-.34.04-.64.29-.74.27-.11.5-.03.91-.07,13.48-1.23,26.57-2.28,40.15-2.8,17.03-.66,33.62-1.17,50.67-.68.33.34-.02.64-.03.9ZM118.54,5.29c0-1.53-1.24-2.77-2.77-2.77s-2.77,1.24-2.77,2.77,1.24,2.77,2.77,2.77,2.77-1.24,2.77-2.77ZM86.53,6.46c0-1.49-1.21-2.71-2.71-2.71s-2.71,1.21-2.71,2.71,1.21,2.71,2.71,2.71,2.71-1.21,2.71-2.71ZM180.38,6.69c0-1.51-1.22-2.73-2.73-2.73s-2.73,1.22-2.73,2.73,1.22,2.73,2.73,2.73,2.73-1.22,2.73-2.73ZM116.61,221.5c8.39-3.42,21.59-12.16,28.78-18,6.49-5.27,12.36-10.72,17.89-16.98,6.23-7.06,11.88-14.18,16.75-22.24,18.64-30.8,23.65-61.15,24.04-96.82l.21-18.8c0-.32.19-.61.24-.82.05-.25.46-.31.73-.28-.06,1.34.56,2.68,1.83,3.07,1.49.45,2.93-.21,3.43-1.64.46-1.32-.08-2.65-1.29-3.28-1.42-.74-2.7-.04-3.93,1.12-.19.01-.5.09-.66-.02-.27-.19-.43-.65-.44-1.13l-.41-20.65c-.08-3.9.26-7.76-.78-11.24-.21-.69-.29-.85-1.18-.94l-15.04-1.44c-35.16-3.37-79.3-2.57-114.8-.16-14.53.99-28.55,2.53-43.08,4.56-.44,5.37-.3,10.29-.42,15.66-.59,26.93-.52,60.5,5.69,86.59,4.72,19.84,12.84,38.23,24.82,54.77,8.27,11.42,17.93,21.74,28.85,30.67,8.28,6.77,17.06,12.26,26.4,17.2.85.45,1.6.71,2.36.81ZM206.54,111.86c0-1.48-1.2-2.69-2.69-2.69s-2.69,1.2-2.69,2.69,1.2,2.69,2.69,2.69,2.69-1.2,2.69-2.69ZM152.45,204.73c0-1.49-1.2-2.69-2.69-2.69s-2.69,1.2-2.69,2.69,1.2,2.69,2.69,2.69,2.69-1.2,2.69-2.69ZM86.42,204.96c0-1.48-1.2-2.68-2.68-2.68s-2.68,1.2-2.68,2.68,1.2,2.68,2.68,2.68,2.68-1.2,2.68-2.68ZM116.28,222.7c-1.73.31-2.48,1.98-2.29,3.12.27,1.63,1.59,2.47,2.83,2.33,1.75-.2,2.64-1.43,2.47-2.97-.14-1.26-1.4-2.76-3-2.48Z"/>
  <path class="st1" d="M53.93,5.94c1.61.52,2.73,2.1,2.15,3.8-.54,1.59-2.5,2.18-4.07,1.28-1.39-.8-1.78-2.85-.44-4.18.35-.35.8-.52.96-.9.43.11.98-.14,1.4,0ZM52.05,7.6c-.52.64-.56,1.54-.11,2.23s1.31.99,2.1.75,1.33-.96,1.34-1.79-.53-1.56-1.32-1.8c-.73-.23-1.53.01-2.01.61Z"/>
  <path class="st6" d="M21.4,51.68c0-.56.5-1.29.4-1.87.98-1.31,2.48-2.15,3.88-1.4,1.58.85,1.87,2.76.95,3.98-.98,1.3-2.91,1.52-3.97.25-.41-.49-.65-1.06-1.26-.95ZM22.79,51.31c.27.93,1.22,1.48,2.16,1.25s1.54-1.14,1.37-2.09-1.05-1.6-2.01-1.49c-.53.06-1.01.36-1.3.81s-.38,1-.22,1.52Z"/>
  <path class="st6" d="M37.09,147.42c-.28-.75-.54-1.52-.72-2.3.69-1.06,1.3-2.16,2.48-2.23,1.43-.08,2.57.53,2.94,1.77s.03,2.53-1.18,3.27c-1.05.65-2.42.23-3.51-.51ZM38.3,146.62c.35.83,1.28.91,1.84.58.81-.47,1.13-1.44.71-2.46-.23-.57-1.03-.83-1.48-.95-.56-.15-1.41.27-1.62.7-.35.71-.36,1.64.54,2.13Z"/>
  <path class="st6" d="M27.28,115.11c-.78-.63-.47-2.21-.65-3.01.96-1.28,2.49-2.2,3.9-1.4,1.52.86,1.81,2.69.95,3.96-.95,1.41-2.92,1.48-4.2.45ZM28.8,114.7c.59.21,1.27.23,1.79-.26.62-.58.7-1.19.11-2.09-.45-.68-.78-1.25-1.67-1.05-.96.21-1.42.83-1.42,1.72,0,.77.3,1.58,1.19,1.68Z"/>
  <path class="st6" d="M23.21,82.69c-.86-.78-.51-2.63-.36-3.58.41-.09.68-.47,1.13-.73,1.28-.74,2.89-.36,3.62.88.62,1.06.42,2.74-.71,3.59-.79.59-2.73.7-3.68-.16ZM27.1,80.7c0-1-.81-1.81-1.81-1.81s-1.81.81-1.81,1.81.81,1.81,1.81,1.81,1.81-.81,1.81-1.81Z"/>
  <path class="st6" d="M207.83,6.28l1.8,1.49c-.09.16.08.57.04.75l.04.38.02.72c-.27,1.45-1.55,2.46-3.11,2.25-1.24-.17-2.34-1.23-2.36-2.72-.02-1.26.97-2.25,2.19-2.84l1.39-.03ZM205.13,9.24c0,.91.65,1.68,1.54,1.84s1.77-.35,2.08-1.2-.04-1.8-.83-2.26c-.58-.33-1.29-.33-1.86,0s-.93.95-.93,1.61Z"/>
  <path class="st6" d="M149.16,5.21c0-1.5-1.22-2.72-2.72-2.72s-2.72,1.22-2.72,2.72,1.22,2.72,2.72,2.72,2.72-1.22,2.72-2.72ZM146.44,7.07c-1.04,0-1.89-.84-1.89-1.89s.84-1.89,1.89-1.89,1.89.84,1.89,1.89-.84,1.89-1.89,1.89Z"/>
  <path class="st6" d="M55.18,178.6c-.18-.13-.26-.41-.44-.55-.24-1.41-.21-2.92.97-3.65,1.38-.87,2.86-.45,3.59.58.97,1.37.64,3.04-.36,3.81-1.21.92-2.68.55-3.75-.19ZM55.5,177.03c.21.92,1.08,1.53,2.02,1.41s1.62-.95,1.57-1.9-.81-1.69-1.76-1.72c-.56-.02-1.1.22-1.46.66s-.5,1.01-.37,1.56Z"/>
  <path class="st6" d="M22.48,13.72c-.13-.91-.07-2,0-2.89.95-.74,1.9-1.37,3.16-1.08s2.12,1.28,2.06,2.7c-.05,1.2-.8,2.43-2.27,2.6-1.25.15-2.08-.7-2.94-1.32ZM23.23,12.63c.13.93.94,1.62,1.88,1.61s1.72-.74,1.82-1.68-.53-1.8-1.45-2.01c-.6-.13-1.22.03-1.67.45s-.67,1.02-.58,1.63Z"/>
  <path class="st9" d="M209.69,5.88c-.49.63.42,1.33-.06,1.88l-1.8-1.49c.35-.72,1.19-.68,1.86-.39Z"/>
  <path class="st6" d="M178.66,178.05c-.17.03-.51.27-.49.44-1.21.38-2.72.31-3.43-.54-.88-1.05-.96-2.5-.34-3.5s2.06-1.5,3.3-.94c1.8.8,2.01,3.13.96,4.55ZM175.63,177.26c.48.82,1.62.86,2.35.11.62-.63.83-1.64-.18-2.31-.49-.33-.42-1.21-1.35-.95-.76.21-1.39.54-1.52,1.3s0,1.55.7,1.85Z"/>
  <path class="st6" d="M196.97,144.72c0,.13,0,.26-.01.39l-.06.38c0,.11-.03.22-.02.33-.95,1-2.12,1.81-3.37,1.29-1.34-.56-2.03-1.92-1.71-3.27s1.62-2.11,3.01-1.89,2.18,1.4,2.17,2.78ZM192.88,145.51c.3.67,1.06.82,1.61.81,1.08-.03,1.23-.56,1.4-1.62.13-.78,0-1.29-.64-1.61-.88-.43-1.7-.45-2.24.18-.46.53-.43,1.36-.14,2.25Z"/>
  <path class="st6" d="M210.35,78.31c-.04.46.03,1.04-.17,1.48-.55,1.22-1.91,1.8-3.24,1.47-1.2-.3-2.03-1.51-1.95-2.74.09-1.44,1.1-2.38,2.33-2.49,1.59-.14,2.73.87,3.03,2.29ZM207.01,80.11c.5.59,1.28.43,1.74.1.85-.62.82-1.44.27-2.34-.38-.62-.66-1.08-1.42-1-.88.09-1.48.55-1.64,1.3-.17.82.05,1.63,1.05,1.94Z"/>
  <path class="st9" d="M209.7,8.89l-.04-.38c.17.11.21.24.04.38Z"/>
  <path class="st9" d="M196.89,145.49l.06-.38c.47.03.37.3-.06.38Z"/>
  <path class="st8" d="M203.01,13.78c-.28.18-.57.33-.86.48-19.67-2.41-39.49-3.66-59.48-3.64l-28.32.04c-28.26.04-56.05,2.47-84.33,6.3-.58,28.66-1.24,56.56,2.62,85,4.07,28.1,13.94,53.05,31.59,75.41,14.03,17.78,31.96,32.98,52.34,42.52l.04,1.6c-.76-.1-1.51-.36-2.36-.81-9.34-4.94-18.12-10.44-26.4-17.2-10.92-8.92-20.57-19.25-28.85-30.67-11.98-16.54-20.1-34.93-24.82-54.77-6.21-26.09-6.28-59.66-5.69-86.59.12-5.37-.02-10.28.42-15.66,14.53-2.03,28.55-3.57,43.08-4.56,35.5-2.41,79.64-3.21,114.8.16l15.04,1.44c.89.09.97.24,1.18.94Z"/>
  <path class="st0" d="M205.3,46.82l-.04.73c-.28-.03-.68.03-.73.28-.05.21-.24.5-.24.82l-.21,18.8c-.39,35.67-5.4,66.02-24.04,96.82-4.88,8.06-10.52,15.18-16.75,22.24-5.53,6.26-11.4,11.71-17.89,16.98-7.19,5.84-20.4,14.58-28.78,18l-.04-1.6c.53.13,1.21-.25,1.89-.6,24.06-12.27,44.28-30.78,58.95-53.56,11.3-17.54,18.61-37.26,22.08-57.84,1.74-10.34,2.63-20.24,3.06-30.72.56-13.64.64-26.86.25-40.47l-.65-22.45c.3-.14.58-.3.86-.48,1.04,3.48.7,7.34.78,11.24l.41,20.65c0,.48.18.94.44,1.13.16.12.47.04.66.02Z"/>
  <path class="st6" d="M86.42,204.96c0,1.48-1.2,2.68-2.68,2.68s-2.68-1.2-2.68-2.68,1.2-2.68,2.68-2.68,2.68,1.2,2.68,2.68ZM82.43,205.53c-.08.73.34,1.19,1.02,1.23.76.04,1.38-.26,1.81-.92.53-.82.24-1.17-.46-1.91-.58-.61-.87-1.29-1.87-.7-.84.49-1.19,1.63-.5,2.31Z"/>
  <path class="st1" d="M206.54,111.86c0,1.48-1.2,2.69-2.69,2.69s-2.69-1.2-2.69-2.69,1.2-2.69,2.69-2.69,2.69,1.2,2.69,2.69ZM202.16,112.5c.28.78,1.07,1.27,1.89,1.17s1.48-.75,1.57-1.58-.39-1.61-1.17-1.89c-.65-.24-1.39-.07-1.88.42s-.65,1.22-.42,1.88Z"/>
  <path class="st6" d="M152.45,204.73c0,1.49-1.2,2.69-2.69,2.69s-2.69-1.2-2.69-2.69,1.2-2.69,2.69-2.69,2.69,1.2,2.69,2.69ZM148.46,205.48c.07,1.01,1.11,1.2,2.06.81s1.19-1.23.58-2.35c-.43-.79-.9-1.39-1.97-.97-.95.36-1.41,1.56-.67,2.51Z"/>
  <path class="st1" d="M205.26,47.55l.04-.73c1.23-1.16,2.51-1.86,3.93-1.12,1.21.63,1.76,1.96,1.29,3.28-.51,1.44-1.95,2.09-3.43,1.64-1.27-.38-1.89-1.73-1.83-3.07ZM206.24,47.91c-.07.75.34,1.47,1.03,1.79s1.5.16,2.03-.38.65-1.36.31-2.04-1.07-1.07-1.82-.97c-.83.1-1.48.77-1.55,1.6Z"/>
  <path class="st1" d="M86.53,6.46c0,1.49-1.21,2.71-2.71,2.71s-2.71-1.21-2.71-2.71,1.21-2.71,2.71-2.71,2.71,1.21,2.71,2.71ZM83.52,4.63c-.79.16-1.38.82-1.46,1.62s.36,1.54,1.08,1.86,1.57.14,2.1-.45.62-1.45.23-2.14-1.18-1.05-1.96-.89Z"/>
  <path class="st6" d="M116.28,222.7c1.6-.29,2.87,1.21,3,2.48.17,1.53-.72,2.77-2.47,2.97-1.23.14-2.56-.7-2.83-2.33-.19-1.14.56-2.81,2.29-3.12ZM115.5,226.57c.33.97,1.63.91,2.33.24.76-.74.77-1.61-.07-2.48-.65-.67-1.36-1.13-2.32-.28-.68.59-.81,1.97.07,2.53Z"/>
  <path class="st1" d="M118.54,5.29c0,1.53-1.24,2.77-2.77,2.77s-2.77-1.24-2.77-2.77,1.24-2.77,2.77-2.77,2.77,1.24,2.77,2.77ZM117.75,5.29c0-1.08-.88-1.96-1.96-1.96s-1.96.88-1.96,1.96.88,1.96,1.96,1.96,1.96-.88,1.96-1.96Z"/>
  <path class="st6" d="M180.38,6.69c0,1.51-1.22,2.73-2.73,2.73s-2.73-1.22-2.73-2.73,1.22-2.73,2.73-2.73,2.73,1.22,2.73,2.73ZM175.85,7.03c.2.98,1.15,1.63,2.14,1.45s1.66-1.11,1.51-2.1-1.06-1.69-2.06-1.57c-.51.06-.98.34-1.28.76s-.42.95-.31,1.46Z"/>
  <path class="st7" d="M52.05,7.6c.39.07.52.21.52.36,0,.26-.26.66-.1,1.02.3.69,1,.11,1.22-.21.36-.54.39-1.14.38-1.78.79.25,1.32.98,1.32,1.8s-.55,1.55-1.34,1.79-1.64-.07-2.1-.75-.42-1.59.11-2.23Z"/>
  <path class="st0" d="M54.06,7c.02.63-.02,1.24-.38,1.78-.21.32-.92.9-1.22.21-.16-.37.11-.76.1-1.02,0-.15-.13-.29-.52-.36.48-.59,1.28-.83,2.01-.61Z"/>
  <path class="st7" d="M22.79,51.31c.85-.06,1.7.03,2.32-.68-.36-.66-.71-1.07-.79-1.65.96-.11,1.84.54,2.01,1.49s-.43,1.87-1.37,2.09-1.89-.33-2.16-1.25Z"/>
  <path class="st0" d="M24.32,48.99c.08.57.43.98.79,1.65-.62.7-1.47.62-2.32.68-.15-.51-.07-1.07.22-1.52s.77-.74,1.3-.81Z"/>
  <path class="st0" d="M40.85,144.74c-1.5-.52-.93,1.04-2.55,1.88-.9-.49-.89-1.42-.54-2.13.21-.42,1.06-.84,1.62-.7.45.12,1.24.38,1.48.95Z"/>
  <path class="st9" d="M40.85,144.74c.41,1.01.1,1.99-.71,2.46-.56.33-1.49.24-1.84-.58,1.63-.83,1.05-2.4,2.55-1.88Z"/>
  <path class="st0" d="M30.69,112.35c-.64-.05-1.03.46-1.66.83-.52.31-.51.86-.24,1.52-.89-.1-1.19-.91-1.19-1.68,0-.89.46-1.5,1.42-1.72.89-.2,1.22.36,1.67,1.05Z"/>
  <path class="st9" d="M30.69,112.35c.6.91.51,1.51-.11,2.09-.52.48-1.21.46-1.79.26-.26-.65-.28-1.2.24-1.52.62-.37,1.02-.88,1.66-.83Z"/>
  <circle class="st9" cx="25.29" cy="80.7" r="1.81"/>
  <path class="st9" d="M205.13,9.24c2.7.11,1.14-1.07,2.79-1.62.79.45,1.14,1.4.83,2.26s-1.19,1.36-2.08,1.2-1.54-.93-1.54-1.84Z"/>
  <path class="st0" d="M207.93,7.62c-1.65.55-.1,1.72-2.79,1.62,0-.67.36-1.28.93-1.61s1.29-.33,1.86,0Z"/>
  <circle class="st9" cx="146.44" cy="5.19" r="1.89"/>
  <path class="st9" d="M55.5,177.03c.68-.03,1.41.08,1.88-.54.27-.36.02-1.08-.04-1.67.95.03,1.71.78,1.76,1.72s-.63,1.77-1.57,1.9-1.82-.48-2.02-1.41Z"/>
  <path class="st0" d="M57.33,174.81c.07.59.31,1.32.04,1.67-.47.62-1.2.51-1.88.54-.12-.55.02-1.12.37-1.56s.9-.68,1.46-.66Z"/>
  <path class="st8" d="M23.23,12.63c.56-.17,1.29.48,1.83.27.89-.36.46-1.57.43-2.35.92.21,1.54,1.07,1.45,2.01s-.88,1.66-1.82,1.68-1.75-.67-1.88-1.61Z"/>
  <path class="st0" d="M25.48,10.55c.03.78.46,1.99-.43,2.35-.54.22-1.27-.44-1.83-.27-.09-.61.13-1.21.58-1.63s1.07-.58,1.67-.45Z"/>
  <path class="st0" d="M177.8,175.07l-2.17,2.2c-.7-.3-.83-1.13-.7-1.85s.76-1.09,1.52-1.3c.92-.26.86.63,1.35.95Z"/>
  <path class="st9" d="M175.63,177.26l2.17-2.2c1.01.67.8,1.68.18,2.31-.73.75-1.87.71-2.35-.11Z"/>
  <path class="st0" d="M195.89,144.69c-.84,0-1.67-.1-2.6-.32-.28.47-.33.81-.41,1.13-.29-.88-.32-1.72.14-2.25.54-.62,1.36-.61,2.24-.18.64.32.77.83.64,1.61Z"/>
  <path class="st9" d="M195.89,144.69c-.17,1.06-.32,1.59-1.4,1.62-.55.02-1.32-.14-1.61-.81.09-.33.13-.66.41-1.13.94.22,1.76.33,2.6.32Z"/>
  <path class="st0" d="M209.02,77.86c-1.1.19-2.17,1.07-2.01,2.25-1.01-.31-1.23-1.13-1.05-1.94.16-.75.75-1.2,1.64-1.3.76-.08,1.05.38,1.42,1Z"/>
  <path class="st9" d="M209.02,77.86c.55.9.58,1.72-.27,2.34-.45.33-1.24.49-1.74-.1-.17-1.17.91-2.06,2.01-2.25Z"/>
  <path class="st6" d="M202.15,14.26l.65,22.45c.39,13.61.31,26.84-.25,40.47-.43,10.48-1.32,20.38-3.06,30.72-3.46,20.57-10.78,40.3-22.08,57.84-14.67,22.78-34.89,41.29-58.95,53.56-.68.35-1.35.73-1.89.6-20.38-9.54-38.31-24.74-52.34-42.52-17.65-22.36-27.52-47.31-31.59-75.41-3.86-28.45-3.2-56.34-2.62-85,28.28-3.83,56.08-6.27,84.33-6.3l28.32-.04c19.99-.03,39.81,1.22,59.48,3.64ZM116.96,15.64c.05,1.22-.63,2.51-.3,3.76.05.21.13.52.09.73-.08.47,0,.93,0,1.39l-.1,11.39c0,1.01-.01,2.02.05,3.02.02.37-.05.74-.05,1.11l.04,15.77c0,.37-.51.61-.72.43l-.03-37.68c0-1.27.33-2.57-.08-4.03l-39.38,1.68c-15.31.66-30.15,2.53-45.51,4.62-.43,5.61-.12,10.92-.27,16.57-.48,18.21-.22,36.38,1.43,54.75,2.7,30.08,10.38,55.64,27.62,80.54,11.64,16.35,26.04,30.96,43.39,41.48,2.86,2.19,6.24,3.61,9.33,5.67,1.02.68,2.02,1.18,3.46,1.65v-49.31s.04-7.23.04-7.23v-28.16c.25-.18.62.03.62.48l.31,30.72.03.76c-.31.1-.29.48-.29.75l.31,51.03c0,.29,0,1.2.38,1.12,2.06-1.06,4.05-1.95,5.7-3.27,8.94-4.62,17.76-10.63,24.87-17.66.54-.28.89-.7,1.4-1.13l3.6-3.13c-.99.86,5.45-5.92,6.49-6.51.86-.49,1.36-1.95,1.69-2.77.36.11.76.09,1.05-.1.36-.24.27-.79.38-1.07.35.48,3.36-3.27,4.08-4.07.51-.58,1.12-1.28,1.51-1.94s.72-1.31,1.34-2.01c1.67-1.89,2.98-3.97,4.32-5.94.26-.39.81-.77.74-1.37,1.94-2.2,3.86-4.92,4.8-7.68.77-.2.78-1.24,1.16-1.7,1.68-2.04,2.52-4.54,3.65-6.91l3.52-7.31c.52-1.09,1.22-2.18,1.11-3.45,1.57-1.6,1.74-4.09,2.6-6.12.37-.88.61-1.53.78-2.46.38-2.03,2.08-3.94,1.92-6.06,1.14-1.46,1-3.55,1.53-5.22,1.01-3.18,1.72-6.5,2.12-9.83.07-.55.24-1.63.45-2.14.29-.72.28-2.1.55-3.01.77-2.6.62-4.93.71-7.59.04-1.2,1.05-2.25.77-3.77-1.05-5.73,1.22-4.78.59-7.45.3-.44.33-.98.35-1.5l.76-20.23c.21.15.29-.16.36-.43v-17.21c-.06-.27-.12-.58-.33-.43v-.34c.03-4.64.21-9.34-.29-13.88.07-4.64-.03-9.33-.44-13.94-.11-1.28.1-2.58-.51-4.07l-13.8-1.2c-3-.26-5.82-.65-8.63-.37-.42-.5-1.46-.48-1.91-.06-.23-.06-.52.14-.76.12-.65-.53-1.46-.36-2.21-.44-8.15-.9-16.36-.91-24.76-1.25-4.42-.18-8.59-.34-12.76-.1l.7.69c.04.21-.1.36-.32.33-.3-.23-.83-1.1-1.23-1.13-5.75-.43-12.03-.12-17.78.05-.95,1.56-.27,2.86-.22,4.1Z"/>
  <path class="st0" d="M84.8,203.93c-.78.68-1.21,1.77-2.37,1.61-.69-.68-.34-1.81.5-2.31.99-.59,1.29.09,1.87.7Z"/>
  <path class="st9" d="M82.43,205.53c1.15.17,1.59-.93,2.37-1.61.7.74.98,1.09.46,1.91-.42.66-1.04.96-1.81.92-.68-.04-1.09-.5-1.02-1.23Z"/>
  <path class="st9" d="M202.16,112.5c.63-.12,1.22-.17,1.64-.53.48-.4.54-1.11.65-1.77.78.28,1.27,1.07,1.17,1.89s-.75,1.48-1.57,1.58-1.61-.39-1.89-1.17Z"/>
  <path class="st0" d="M204.46,110.2c-.11.66-.18,1.37-.65,1.77-.42.36-1.01.41-1.64.53-.24-.65-.07-1.39.42-1.88s1.22-.66,1.88-.42Z"/>
  <path class="st0" d="M151.1,203.94c-.91.53-1.57,1.35-2.64,1.54-.73-.96-.28-2.15.67-2.51,1.08-.41,1.54.19,1.97.97Z"/>
  <path class="st7" d="M151.1,203.94c.61,1.12.36,1.96-.58,2.35s-2,.2-2.06-.81c1.07-.19,1.73-1.01,2.64-1.54Z"/>
  <path class="st9" d="M206.24,47.91c.58.08,1.38.56,1.81-.13.25-.4-.23-1.02-.25-1.48.75-.09,1.48.29,1.82.97s.21,1.49-.31,2.04-1.34.7-2.03.38-1.1-1.03-1.03-1.79Z"/>
  <path class="st0" d="M207.79,46.3c.02.46.5,1.08.25,1.48-.42.68-1.23.21-1.81.13.08-.83.72-1.5,1.55-1.6Z"/>
  <path class="st9" d="M82.06,6.25c.51.13,1.39.52,1.66-.08.21-.47-.2-1.02-.2-1.53.78-.16,1.57.2,1.96.89s.3,1.55-.23,2.14-1.38.77-2.1.45-1.16-1.07-1.08-1.86Z"/>
  <path class="st0" d="M83.52,4.63c0,.51.41,1.07.2,1.53-.27.6-1.15.22-1.66.08.08-.8.67-1.46,1.46-1.62Z"/>
  <path class="st9" d="M115.5,226.57c-.11-1.08,1.37-1.14,2.26-2.25.84.88.83,1.74.07,2.48-.69.68-1.99.73-2.33-.24Z"/>
  <path class="st0" d="M117.75,224.32c-.89,1.11-2.37,1.17-2.26,2.25-.88-.55-.74-1.93-.07-2.53.97-.85,1.68-.39,2.32.28Z"/>
  <circle class="st9" cx="115.8" cy="5.29" r="1.96"/>
  <path class="st9" d="M175.85,7.03c.58-.13.97-.37,1.45-.73.4-.3.18-.9.14-1.49,1-.12,1.91.57,2.06,1.57s-.52,1.93-1.51,2.1-1.94-.47-2.14-1.45Z"/>
  <path class="st0" d="M177.44,4.82c.04.58.26,1.19-.14,1.49-.48.36-.87.6-1.45.73-.1-.51,0-1.03.31-1.46s.77-.7,1.28-.76Z"/>
  <path class="st0" d="M115.95,15.56l.03,37.68v41.27s.09,9.8.09,9.8v20.08s-.09,9.4-.09,9.4v28.16s-.05,7.23-.05,7.23v49.31c-1.43-.46-2.43-.97-3.45-1.65-3.09-2.06-6.47-3.48-9.33-5.67.06-.42-.31-.93-.82-1-1.04-.12-1.3-.92-2.04-1.47-9.33-6.86-17.97-14.38-25.69-23.09-14.86-16.76-26.03-36.19-32.42-57.63-.36-1.21-.69-2.1-.61-3.12.44.36,1.34.5,1.96.47-.33-.97-.8-2.61.3-2.85,1.69-.36,2.88,1.99,2.4,3.27-.16.42-1.37.08-1.36.56.01.56-.14,1.17.03,1.55.44.97,2.8-.25,2.35,1.17-.37.27-.48.75-.69,1.13-.09.16-.37.22-.53.45-.11.16-.31.44.05.6l.11.34c-.05.18-.12.76.09.78.46.04.91-.2,1.59-.41.23,1.9.58,3.69,2.01,5.28,1.49-1.58,2.16-3.41,1.84-5.47,1.35.44,2.47.83,3.85.13-.97-1.26-2.6-1.85-2.82-3.48.71-.15,1.34.03,1.91-.31.34-.21.05-.85.25-1.42.3-.86-.94-.44-1.39-1.08-.8-1.13,1.04-3.9,2.59-3.3,1.05.4.46,1.8.29,2.94,2.79-.36,4.88-2.96,4.65-5.93-.04-.55-.55-.83-.7-1.17-.8-1.82-2.74-2.44-4.65-1.6-1.52.67-2.16,2.02-3.19,3.12,1.26-5.49,1.39-10.89-2.91-15.21-1.96,2.58-4.06,5.8-3.54,9.18l.9,5.9c-1.27-2.35-4.97-4.31-6.15-2.6-.16-.03-.26.06-.42.36-.32-.05-.56.12-.72.38-5.54-22.97-6.17-53.89-5.59-77.91l.35-14.35c.03-1.13-.11-2.28.25-3.71,17.04-2.38,33.89-4.14,51.17-4.85l30.09-1.24ZM69.33,32.92l-2.05.76,2.12,2.91c-.1.48.01.74,0,.92-.39.44-.99.6-1.67,1.04.57.92,1.37,1.2,2.04,1.86s.22,1.39-.48,1.97c1.57,1.7,2.41,1.5,2.3,3.38-.79.18-2.01.25-2.37-.78-.4-1.16-.04-2.27-.7-3.62-1.05.84-2.52,1.57-3.23.52l-1.44-2.12c-.43,1.03-1.05,1.71-1.98,1.7-.11.02-.23,0-.34.03-.64-.7-1.83-.91-3.1-1.07.54,1.65,2.55,2.44,2.42,4.3-.04.57-.5,1.11-1.07,1.71.56.43,1.16.44,1.72.53.13.07.24.2.37.25.11.04.26-.03.38,0,.12.12.26.23.41.3.89.5.74,1.59.49,2.73,1.03.14,2.69-.45,3.26.68.38.76-.63,1.94-1.1,2.3-.83-.18-1.14-.81-2.1-.84-.28.7,2.27,3.24.87,4.32-.41.32-1.22.58-1.54,0-.55-1.03-.33-2.15-.67-3.27-.92.58-2.18,1.04-2.61.1l-1.08-2.37c-.64,1.2-1.31,1.95-2.44,1.49-.84-.34-1.44-.92-2.53-1.02l1.35,3.48-1.84,1.43c.72.53,1.33.62,1.93.8.12.17.36.24.52.36s.27.32.45.42c.06.69-.28,1.33-.59,2.29,1.33.33,2.66.28,3.74,1.27.05.57-.36,1.01-.47,1.61.48.18,1.49-.06,1.82.35-.23,3.04-3.52,2.57-3.94,3.01-.4.42,1.09.53,1.98,2.02-.91,0-1.85-.05-2.63-.55-.15-1.26-1.03-2.35-1.54-3.65-.43,1.21-.18,2.31-.47,3.55-.16.66-1.05.5-1.6.46.56,1.56,1.53,3.14,1.29,4.89-.1.72-1.2,1.14-1.68,1.06-1.99-.36-.37-3.39-.31-4.64l-1.34.29h-.4c-1.73.19-.84-3.6-1.34-4.51-.77.65-1.43,1.06-2.13.52-1.06-.8-1.46-1.93-2.36-3.04-.66,1.84.8,5.22-1.65,5.84-.19.05-.47-.08-.78.21.9,1.02,1.83,2.1,2.05,3.6.13.88-.71,1.36-1.04,2.2,1.33.61,2.88,1.01,3.39,2.29.1.25-.72.69-.64.94.27.93,2.35.83,1.77,1.93-1.38.2-2.17-1.29-3.38-2.06-.28.4-.04,1.69-.67,1.86-1.29.34-2.28-.78-3.44-1.34.09.89.12,1.87.09,2.81-1.17.14-2.21.72-3.53,1.03l2.82,1.96c.68.47.16,1.52.44,2.15.47.56.98-.4,1.32-.56.38-.18,1.19-.05,1.6.05,1.14.27.23,3.31,1.68,1.55.48-.58,1.04-1,1.64-1.2s1.17.28,2.06.7c1.08-2.54,3.7-3.59,6.23-2.71,1.35.47,2.72.69,3.63,1.66-4.75,1.12-4.78-1.84-6.74,1.39-.65,1.07-2.52.33-3.64.53-.03,1.03.53,2.17-.32,3.04-.51.52-1.47.89-2.67,1.14,2.01,2.67.27,3.24-.22,6.1.83-.29,1.39-.92,2.2-1.39,1.06-.62,2.04-.07,2.62,1.02.96-.55.95-3.45,2.7-3.33.71.05,1.02.6,1.24,1.34,1,3.29.45,1.76-2.14,5.39,1.48.05,2.6-.56,3.91-.2.49.59.32,1.34.9,1.91,1.1-1.38,2.71-3.34,4.14-2.67.37.17.64.75,1.15,1.22.74-1.4.95-2.99,2.24-4.02l1.7,1c.23-1.73.27-3.21,1.32-4.35.88-.96,2.58-.61,3.35.45,1.87,2.58,2.38,5.79,1.96,8.85-.58-.18-.82-.39-1.09-.45-.48-.11-.75.4-.98.68-2.27,2.73,3.12,2.56,2.66,11.87l-.64,13.15c-.12,2.38-.84,4.48-1.94,6.36-.13.04-.34.28-.36.42-4.93,4.51-9.84-2.72-14.37,3.59-1.39,1.94-3.54,2.27-6.01,1.59,1.25,2.09,3.61,2.34,5.56,1.28s4-4.56,6.59-2.44c-.64.58-1.19,1.09-1.54,1.61-.27.12-.54.5-.76.69-.44.4-1.12.53-1.59,1.19.39.29.69.09,1.09.18,0,.5-.2.88-.28,1.3-.09.05-.27.02-.35.08-1.34,1.15-3.87.26-4.84,2.5,2.43-.77,6.16,1.37,7.56-3.63.35-1.24,1.94-1.47,2.92-1.96,1.76-.88,3.24-2.28,5.44-1.8-1.8,1.83-4.02,3.12-5.13,5.43-1.31,2.73-1.35,6.28-5.47,6.56-1.81.12-3.62,1.46-3.23,3.4,1.65-1.47,3.38-1.94,5.45-1.6-.1,2.58.94,4.61,2.03,6.71.53-1.17.23-2.12-.02-3.21-1.36-5.74,1.13-4.88,2.6-9.69.78,1.43,1.2,1.73,1.67,2.42.99,1.43.73,3.19.66,5.11,2.36-1.4,2.09-4.48.6-6.42-1.1-1.44-1.37-3.17.17-4.46.82-.69,1.77-1.35,2.88-1.57-.05,2.75.63,4.94,1.73,7.05,3.02,5.79-4.88,6.31-3.36,9.86,1.18-1,1.92-1.98,3.23-2.57,2.08-.93,2.05-3.76,3.19-2.18.8,2.38,1.12,4.74.33,7.15-.45.17-.32.79-.37,1.18-.03.25.07.54.03.78-.15.8-.37,1.83.75,2.39.47-3.01,4.25-7.72,1.89-10.27.06-.78-.04-1.49-.42-2.34l-2.97-6.8c-.85-1.95-.67-4.35.44-6.39l1.37,1.52c.1.11.32.35.4.49.57,1.11,3.82,2.36,2.54,6.12-.45,1.31-.12,2.37.47,3.29.63.97,1.3,1.96,2.76,2.55.81-1.32-1.97-3.68-1-5.32.58-.98.91-1.89,1.03-2.99,3.81,1.78,4.75,5.97,2.66,9.24-1.25,1.97-1.29,4.81.77,6.19.06-6.16.55-2.86,2.48-7.81,2.32,1.8,5.67,2.68,7.96.47-2.54-.18-5.39-.07-6.36-2.21l-2.01-4.45c-.13-.29-.24-.56-.3-.8-.05-.21.2-.35.37-.48,3.37,1.15,2.28,4.73,4.78,4.2-1.85-5.31-1.57-5.54-7.34-6.66-.97-.19-6.37-3.02-6.18-4.65,7.86,3.8,8.61-1.07,12.4,4.5,1,1.47,3.52,1.62,5.02,1.82-.7-2.97-1.9.18-4.78-5.48,1.42-.16,3.16.08,4.26.98,1.42,1.17,1.97,3.14,4,3.75,1.69.51,3.89.89,4.79-1.24-9.5,1.46-2.43-7.9-18.85-6.26-4.48.45-7.18-2.92-7.37-7.13-.05-1.14-.53-2.11-.45-3.34.09-1.51-.78-10.6,1.25-12.63l1.72-1.72c-.14-1.18-.74-2.19-1.66-3.02l-1.93,1.54c-.6-2.26-1.06-10.45.16-12.64l1.09-1.96c.14-.02.33-.25.4-.37.9-.54,2.49-1.36,3.6-.55,1.88,1.38.83,7.16,2.39,3.52.38-.2.84.3,1.13.38.96.78,1.43,2,2.08,3.29.69-.4.81-1.04,1.23-1.17.65-.2,1.5-.09,1.92.2.49.25,1.02.38,1.52.61.02.53.75,1.79,1.34,1.44.59-.37.22-1.88,1.09-2.03,1.91-.34,3.73.04,5.64-.41-1.75-.86-3.26-1.8-4.52-3.11l-.04-.45c.16-.64.71-1.21.6-2.15-1.38.52-3.57.97-4.05-.84-.2-.75.57-1.34.48-2.27-.89.3-4.12,1.76-5.05.29-.23-.37-.17-.93-.36-1.62-1.78,1.04-3.26,1.91-5.42,1.97-.25-.38.13-.6.21-.87.13-.07.36-.3.39-.44,1.76-1.23,6.57-5.27,8.56-2.87,1.2.48.59,2.25,1.52,2.75.44.24,1.04.17,1.54.16.77.85,1.02,2.08,1.65,3.23.69.2,1.03-.9,1.67-.83,1.63.18,2.13,1.86,2.9,3.17.51-.5.63-1.06.91-1.28,1.37-1.08,3.07,1.12,4.48,1.06l-1.37-3.29c-.39-.93.18-1.74,1.16-2.48-.97-.51-1.71-.73-2.47-1.06-.59-.25-1.19-.78-1.49-1.3-.38-.66.27-1.37.43-2.18-1.56-.08-3.16.53-4.67-.16-.43-.2-.18-1.09-.34-1.52l-2.9.73c-.08-.01-.21.04-.3.05-1.04.08-2.06.5-3.07.14.09-.22.3-.43.34-.66.74-.25,1.45-.7,2.21-1.21,2.59-1.72,5.87-1,7.36,1.82.94-1.12,1.84-1.3,2.85-.66.58.37,1.09,1.1,1.92,1.16.51.03.35-1.09.38-1.49,0-.07.02-.19-.01-.26,1.29-.48,2.61-.34,4.06.38-.43-3.61.78-2.91,3.53-5.13-1.08-.48-2.1-.2-3.08-.3-.13-.01-.26-.03-.38-.02-.14-.12-.29-.23-.44-.33-.08-.22-.36-.85-.69-.76-.01-.58.25-1.23-.06-1.95-1.18.87-2.21,2.13-3.68,1.86-.64-.12-.49-1.42-.71-1.9-2.76,2.06-1.6,2.92-5.1,1.86,1.31-.74,2.52-.73,3.39-1.68-.24-.38-1.17-1.01-.85-1.5.8-1.21,2.23-1.68,3.66-2.42-.36-.82-1.19-1.06-1.34-1.57-.27-.94.19-1.64.46-2.36.7-.46,1.3-1.18,1.56-2.08-.87-.07-2.28.01-2.32-.94l-.2-4.97c-.86.79-1.14,1.78-1.66,2.63-.76,1.25-2.05,1.53-3.53.63-.56.92.37,4.13-1.28,4.64-.72.22-1.45.15-2.26-.3l1.09,2.5c-.02.41.02.83,0,1.24l-.04.75-1.69.55c-1.14.37,2.4,3.97-.11,6.98-1.88,2.27-4.26,4.03-6.94,5.31.76-2.17,2.75-2.83,4.79-4.02-.75-.88-1.07-1.86-.62-2.83.17-.06.28-.29.44-.39s.27-.28.37-.44l.37-.3c.4-.04,1.26-.38.92-.92-.28-.45-1.26-.54-1.26-1.29,0-1.77,1.16-2.95,1.92-4.48-.64.1-1.02.62-1.68.4-.35-.12-.6-.55-.85-.96.46-5.36-.53-3.62,3.74-6.39l-3.47-.94c-.08-.31-.33-.55-.46-.84-.12-.26-.02-.61-.1-.84-.46-1.37-1.7,2.4-4.26,1.53-.42-.14-.19-.99-.74-1.12-.57,1.3-2.36,3.49-2.95,2.48-.56-.95,1.65-1.94,1.79-2.74.22-.05.5.09.71,0,.99-.37,2.13-.24,3.29-.53.75-.19.24-1.26.15-1.69.28-.13.62-.43.61-.78l2.67-.84c.05-.51-.48-1.17-.15-1.65.43-.63,1.35-.51,2.02-1.02-1.67-2.28.02-2.92,1.5-5.27-1.73.18-3.35,1.06-5.15.48-.59-.19-.49-1.21-.81-1.65-.81.65-1.04,1.6-1.44,2.39-.15.04-.36.29-.43.43-.79.69-1.81.43-3.02-.09-.11,1.66.29,3.37-1.05,4.33-.46.33-1.49-.14-1.58,1.01,0,.13-.41.31-.53.34-.17.04-.39-.11-.54-.27l-.04-.82c.21-.35.29-.74.38-1.13.04-.17.33-.37.27-.58-.08-.26-.49-.15-.6-.25-.5-.78-.7-2-.69-3.04-.48,0-.88.05-1.22-.16.61-1.32,1.98-1.71,3.56-1.72l-.66-1.92c-.2-.57.25-.99.83-1.26.1,0,.29.03.38-.02.63-.41,1.37-.5,2.17-.9.19-.09.09-.67.07-.83-.03-.22-.46-.26-.72-.27-.1-.07-.17-.31-.3-.34-.05-.62-.09-1.23-.1-1.85,0-.12-.05-.25-.04-.38,1.05-.51,1.54-1.78,2.09-2.9-1.9.19-3.63,2.31-5.13,1.37-.34-.21-.36-.73-.75-1.38-.49.72-.69,1.48-1.02,2.2-.38-.03-.86.83-1.06,1.06-.2.51-3.61-1.76-3.36-1.47-.83-.93.14-1.6.35-2.99-.02.11.85-1.04.38-1.29-.24-.13-.93.2-1.13.02-1.33-1.16-.61-3.01-.8-4.8-.86.27-1.79,1.33-2.41.61l-2.84-3.29c-.12,1.86.28,3.32-.46,4.62ZM98,118.81l-.53.04c-.19-.34-.37-.62-.74-.79-.11-.05-.27-.24-.34-.34-1.43-1.98-4.43-1.74-5.98-.13-1.8,1.86-1.37,4.69.49,6.37.96.87,1.93,1.81,3.24,1.43-.27-1.18-.58-2.12-.2-3.07,2.06-.36,3.57,1.79,3.5,3.63-.67.37-1.86-.05-1.68.93.15.82.19,1.75,1.42,1.62.23-.02.61.09.77.13.21.06.32.41.27.68-1.07.85-2.03,1.84-3.05,2.93,1.41.68,2.55.25,3.87-.18.15,1.94.53,3.8,1.97,5.4,1.67-1.33,2.14-3.39,2.28-5.53,1.3.56,2.72.96,3.95.08-1.09-1.17-2.39-1.93-2.9-3.35l1.85-.28c.54-.08.38-.92.42-1.45.05-.7-.75-.83-1.6-1.04-.25-1.23.62-1.92.84-2.87.07-.04.24-.12.33-.34.44-.02,1.27-.81,1.82-.42.9.63.3,1.91.39,3.11,2.4-.47,4.48-2.18,4.7-4.6s-1.12-4.5-3.77-4.63c-2.33-.12-4.34,1.76-5.04,3.86l-.48-.04c.47-2.38,1.54-4.77,1.12-7.35-.68-4.24-1.58-4.96-4.18-8.3-3.95,5.25-4.63,8.49-2.73,14.53ZM45.22,131.79c0-.13-.11-.24-.24-.24s-.24.11-.24.24.11.24.24.24.24-.11.24-.24Z"/>
  <path class="st0" d="M58.16,68.65c.38.63.67,1.39.09,2.21-.24-.91-.31-1.57-.09-2.21Z"/>
  <path class="st5" d="M138.01,14.97c-.08.23.2.3.37.33.9.71.96,2.15,2.02,2.84.93.61,1.41,1.76,2.14,2.3,1.3.97,2.17,1.76,3.01,3.22s2.73,2.5,3.74,4.01,2.01,3.27,4.02,3.93c.25,1.63,1.25,2.82,2.48,3.81,1.09.88,1.54,2.24,2.44,3.11.61.59,1.21.72,1.61,1.61.62,1.41,2.68,2.28,3.2,3.72s1.58,1.41,2.36,2.26c1.08,1.18,1.74,2.56,3.03,3.7,2.5,2.2,4.12,5.03,4.9,5.59.72.52,4.17,4.51,4.59,5.26.84,1.51,2.97,2.35,3.65,4,.07.16,4.72,5.2,5.31,5.99,2.82,3.73,2.77,2.44,5.12,6.11.86,1.33,1.87,1.91,2.86,2.91,1.85,1.87,2.99,4.42,5.15,6.19.31.26.07,1.3.72,1.07.63,2.67-1.64,1.72-.59,7.45.28,1.52-.73,2.57-.77,3.77-.09,2.67.06,4.99-.71,7.59-.27.92-.27,2.3-.55,3.01-1.21-.19-2.33-.86-3.03-2.03-.83-1.38-2.56-2.27-3.2-3.71-.5-1.13-.88-1.44-1.99-2.05-.8-.44-1.1-2.1-2.09-2.78-.85-.59-2.19-1.06-2.34-2.36-.12-1.07-1.34-1.11-1.64-1.64-.72-1.28-1.85-1.69-2.73-2.72l-3.09-3.61c-.93-1.09-1.48-2.68-2.88-3.5-1.16-.68-1.62-2.32-2.54-2.97-1.9-1.34-3.87-4.5-6.26-6.91l-2.09-2.11c-1.14-1.15-6.57-7.3-7.28-8.44-.85-1.34-2.42-1.97-3.31-3.02l-2.79-3.29c-.69-.82-1.11-1.98-1.99-2.6-.21-.15.28-.99-.15-1.07s-.87.11-1.21.32c-.25-.12-.56-.2-.77-.4.36-1.45-.68-1.99-1.62-2.85-1.18-1.08-1.75-2.73-3.05-3.74s-2.47-2.28-3.3-3.55c-1.26-1.93-3.27-3.53-5.05-5.33-.71-.72-.98-1.53-1.64-2.25l-4.43-4.83c-.8-.88-1.44-1.44-2.22-2.31l-1.58-1.75c-1.91-2.12-4.94-5.87-7.09-7.16.04-.21-.04-.52-.09-.73.16,0,.41.07.54-.02.18-.11.23-.38.23-.71l-.02-3.08,19.15-.23c.35,0,.65-.11.73-.27.09-.18.04-.43.03-.6l.7.47Z"/>
  <path class="st5" d="M127.98,74.82c1.35.48,1.79,2.01,2.68,3.02l3.68,4.17c.79.9,1.75,1.29,2.44,2.58.44.82,1.7,1.17,2.15,2.29.47,1.18,2.1,1.74,2.71,2.88.96,1.77,2.12,3.33,4.05,4.17.28.44.26,1.3.57,1.59,1.79.56,2.19,2.52,3.34,3.43,1.28,1.01,1.75,2.16,2.75,3.35.6.72,1.92,1.29,2.64,2.17l3.03,3.69c.83,1.01,2.16,1.17,2.68,2.74.4,1.22,2.53,1.99,2.8,3.24.23,1.04.94.81,1.4,1.39,1.24,1.58,2.45,2.99,3.88,4.48.66.68.72,1.94,2.29,1.42.76.84.84,2.52,1.75,3.1,1.6,1.02,2.21,3.03,3.43,3.99,1.15.91,1.6,1.38,2.44,2.61,1.17,1.72,7.65,7.7,8.46,9.89.12.31,1.09.01.93.94-.12.68-.43.38-.82.81-.3.34.05,1.35.34,1.28l-3.52,7.31c-1.14,2.36-1.97,4.87-3.65,6.91-1.49.04-2.51-1.03-3.53-2.18l-2.96-3.36c-.9-1.02-1.43-1.93-2.42-2.88-1.37-1.34-2.78-2.72-4.05-4.2-.77-.89-1.01-1.86-2.36-2.29-.61-.2-.7-1.56-1.27-1.81-1.17-.51-1.37-1.41-2.12-2.23l-2.67-2.92c-1.03-1.13-2.56-1.88-3.26-3.3-.22-.45-.36-1.6-1.11-1.55-1.49.11-.96-1.75-1.54-2.05-1.53-.8-2.66-2.61-3.87-3.87s-2.25-2.09-3.46-3.41l-1.96-2.14c-.77-.84-7.62-8.86-6.91-8.15l-5.17-5.22c-.74-.75-1.17-1.28-1.8-1.98l-4.73-5.25c-.62-.68-1.16-1.23-1.91-1.91-.38-.35-4.28-5.62-5.97-6.08l.04-27.6c2.48,1.48,3.58,3.54,5.28,5.31l4.25,4.45c.51.54.42.95,1.01,1.16Z"/>
  <path class="st3" d="M175.9,16.75l25.98,30.05v.34s-.03,18.07-.03,18.07l-.76,20.23-11.05-12.68-50.5-57.49c0-.39.2-.43.37-.19.06.08.35.47.5.48l31.34,1.29c1.52.06,2.86.35,4.14-.1Z"/>
  <path class="st5" d="M194.03,125.97c.16,2.12-1.54,4.04-1.92,6.06-1.39.33-2.36-.64-3.26-1.75-1.13-1.38-2.92-2.21-3.35-4.19-2.19-1.72-3.89-4.01-6.02-5.88-1.36-1.2-2.13-2.56-3.31-3.87l-3.56-3.96c-1.36-1.52-2.7-2.94-4.15-4.51l-6.15-6.65c-.95-1.03-4.01-5.18-5.14-5.72s-1.22-2.58-2.24-3.28c-2.29-1.56-4.39-4.12-6.15-6.31-.56-.69-1.22-1.06-1.93-1.89l-3.7-4.28c-.73-.84-.47-1.52-1.48-2.14-1.93-1.19-3.4-3.16-4.75-5.01-2-2.74-6.31-5.64-6.1-7.44-1.2,1.89-.89-1.78-4.83-4.06-.44-.25-.26-1.34-.64-1.62-1.58-.71-2.67-1.83-3.13-3.52-2.72-1.03-1.3-1.83-4.31-4.07-.88-.65-.59-1.63-.59-2.57l.11-11.18c0-.61-.36-1.04-.78-1.12,0-.37.07-.74.05-1.11,1.62-.32,5.19,4.24,7.68,6.47.54.48.64,1.44,1.12,1.94l2.88,3.03c3.85,4.05,7.25,7.81,11.02,12.06l5.53,6.22c1.19,1.34,5.02,5.19,5.72,6.33,1.31,2.13,2.84,3.54,4.65,5.27,1.43,1.37,2.18,3.42,4.02,4.59.51.33.54,1.54,1.1,1.78,1.63.69,2.42,1.83,3.25,3.27s3.48,2.46,3.33,4.57c.25-.12.25-.31.34-.44.11-.16.47-.06.62.24.91,1.81,2.22,3.12,3.71,4.45-.53-.47,4.46,4.87,4.53,4.95l1.74,1.94,4.1,4.61c2.17,2.44,5,5.43,6.78,7.73.48.63,1.3.87,1.77,1.73,1.03,1.86,3.05,2.9,4.46,4.83-1.23,1.56-1.16,2.96-1.04,4.47Z"/>
  <path class="st5" d="M161.08,184.18c-.33.81-.83,2.28-1.69,2.77-1.04.59-7.48,7.37-6.49,6.51l-3.6,3.13c-1.64,1.06-5.21-4.36-5.34-4.5l-8.78-8.92-2.5-2.75-2.2-2.21-1.51-1.95c-.83-1.07-6.76-6.77-7.47-7.98-.98-1.67-2.78-2.86-4.11-4.47v-23.57c0-1.4-.56-2.7.31-3.94,1.68,1.58,2.98,3.08,4,4.89.02.03,5.36,4.94,5.11,4.65l2.08,2.45c1.08,1.26,2.69,2.45,3.6,3.8s1.74,2.09,3.03,3.08c.94.72,1.36,1.97,2.62,2.67-.89-.49,6.21,6.95,6.07,6.9.92.36,4.24,5.26,5.28,5.83,1.43.79,1.86,2.13,2.82,2.95,1.32,1.13,2.3,2.08,3.36,3.5.58.78,1.64,1.28,2.24,2.35-.25-.44,3.72,3.44,3.17,4.79Z"/>
  <path class="st3" d="M146.73,53.9c.21.2.52.28.77.4l1.08,1.95,31.78,35.6,5.14,5.82c2.55,2.88,5.24,5.5,7.47,8.6l4.7,4.67c-.4,3.33-1.11,6.64-2.12,9.83l-31.1-34.68-22.62-25.38-6.11-6.73-18.65-21.04.02-11.33c.02-.24.26-.15.43.03l15.75,17.58c4.54,5.06,8.7,10.15,13.48,14.71Z"/>
  <path class="st5" d="M173.76,169.04c-1.34,1.97-2.65,4.05-4.32,5.94-.62.7-.93,1.32-1.34,2.01-.91.48-1.3-.68-1.94-.96-1.07-.47-1.28-1.18-1.93-1.92l-3.74-4.2-1.57-1.83c-1.22-1.42-2.6-2.91-4.06-4.07-.83-.66-1.43-.89-1.96-1.92-.84-1.63-3-2.66-3.73-4.34-.46-1.06-.2-1.61-1.43-2.12-1.6-.66-2.95-2.29-3.85-3.59l-1.37-1.99-3.04-2.97-2.32-2.87c-.65-.8-1.47-.85-2.09-1.89-.03-.04-4-4.77-3.79-4.64-1.16-.72-1.85-1.94-2.8-2.81-1.41-1.29-2.79-2.06-3.85-3.87-.33-.57-1.28-1.18-1.78-1.9-1.75-2.54-5.39-4.81-5.87-6.9l.04-15.03c.11-.99,4.14,3.65,3.53,3.25,1.9,1.26,3.03,2.57,4.34,4.45-.84-1.21,6.56,6.96,6.36,6.68.65.96,1.21,1.96,2.16,2.71,1.61,1.29,2.69,3.08,4.17,4.4.97.87,1.46,1.67,2.23,2.67.9,1.17,2,2.04,2.82,3.25.74,1.09,2.75,1.56,3.08,3.26.2,1.04,1.44,1.14,1.9,1.79.43.61,5.22,6.01,5.53,6.24,3.67,2.72,2.4,4.06,6.12,5.8.58.92.63,1.96,1.23,2.48,1.73.1,4.11,4.85,5.47,6.19,1.11,1.09,2.65,1.91,3.51,3.18,2.87,4.19,2.84,2.64,4.28,5.53Z"/>
  <path class="st3" d="M120.1,168.47c2.38,2.15,4.36,4.59,6.71,7.06l21.09,22.19c-7.11,7.04-15.94,13.04-24.87,17.66-1.55-.66-2.97,1.41-4.77,1.76-.25-1.17-.85-2.16-.85-3.41l.05-45.39c0-1.49,3.07,1.37,2.65.13Z"/>
  <path class="st3" d="M179.29,159.99c-.94,2.77-2.86,5.49-4.8,7.68l-37.57-41.25c-.55-.89-.87-1.61-1.82-2.05l-18.11-19.86c-.13-4.17-.24-8.08.12-12.5l17.71,19.53,11.12,12.22,33.35,36.23Z"/>
  <path class="st3" d="M119.69,55.37l71.63,79.12c-.85,2.04-1.03,4.52-2.6,6.12l-60.86-67.21-10.4-11.97c0-.13-.08-.25-.07-.38.08-2.08-.18-4.12.17-6.48.75.55,1.36,1,2.12.8Z"/>
  <path class="st8" d="M34.44,25.36l-.35,14.35c-.58,24.02.05,54.94,5.59,77.91-1.64,2.63-.43,5.35,1.89,7.24-.08,1.02.25,1.92.61,3.12,6.39,21.44,17.57,40.87,32.42,57.63,7.72,8.71,16.35,16.23,25.69,23.09.74.54,1,1.34,2.04,1.47.52.06.89.58.82,1-17.35-10.52-31.75-25.12-43.39-41.48-17.24-24.9-24.92-50.46-27.62-80.54-1.65-18.37-1.91-36.54-1.43-54.75,1.23.43.89-3.48.94-3.67.24-.93.86-1.53.59-2.75-.15-.72-.02-1.68.28-2.45,1.05.98.2,1.92.91,3,.63.11-.45-3.65.99-3.17Z"/>
  <path class="st3" d="M166.58,178.94c-.71.8-3.72,4.55-4.08,4.07-.36-.9-1.09-1.55-1.86-2.37l-22.32-23.78-18.67-20-2.69-3.02c0-3.17-.26-6.1.17-9.6l45.69,49.67c.25.28,5.05,5.45,3.76,5.03Z"/>
  <path class="st7" d="M115.95,15.56l-30.09,1.24c-17.28.71-34.12,2.47-51.17,4.85-.36,1.43-.22,2.58-.25,3.71-1.44-.48-.36,3.28-.99,3.17-.71-1.08.14-2.02-.91-3-.31.77-.44,1.73-.28,2.45.26,1.22-.35,1.82-.59,2.75-.05.19.29,4.09-.94,3.67.15-5.64-.16-10.96.27-16.57,15.36-2.08,30.2-3.96,45.51-4.62l39.38-1.68c.41,1.46.08,2.76.08,4.03Z"/>
  <path class="st5" d="M201.14,18.97c.41,4.61.51,9.3.44,13.94l-.17,11.37c-1.53-1.35-3.04-2.54-4.12-4.13-.88-1.3-7.27-8.94-8.38-10.13l-5.01-5.38c-.81-.87-1.12-2-2.15-2.78-1.45-1.11-2.43-2.65-2.84-4.29,1.21-.49,2.45-.24,3.84-.12l4.48.38c4.5.39,9.57.6,13.91,1.14Z"/>
  <path class="st2" d="M168.1,176.99c-.4.66-1,1.36-1.51,1.94,1.29.43-3.5-4.75-3.76-5.03l-45.69-49.67c-.43,3.49-.17,6.42-.17,9.6l2.69,3.02,18.67,20,22.32,23.78c.77.82,1.5,1.47,1.86,2.37-.1.29-.02.83-.38,1.07-.29.19-.69.21-1.05.1.56-1.36-3.41-5.23-3.17-4.79-.6-1.07-1.66-1.57-2.24-2.35-1.06-1.42-2.04-2.37-3.36-3.5-.96-.82-1.39-2.17-2.82-2.95-1.04-.57-4.35-5.47-5.28-5.83.13.05-6.97-7.39-6.07-6.9-1.26-.7-1.68-1.95-2.62-2.67-1.29-1-2.08-1.68-3.03-3.08s-2.52-2.53-3.6-3.8l-2.08-2.45c.24.29-5.1-4.62-5.11-4.65-1.02-1.81-2.32-3.31-4-4.89-.86,1.23-.31,2.54-.31,3.94v23.57c1.33,1.61,3.13,2.8,4.12,4.47.71,1.22,6.64,6.92,7.47,7.98l1.51,1.95,2.2,2.21,2.5,2.75,8.78,8.92c.13.13,3.7,5.55,5.34,4.5-.5.44-.86.85-1.4,1.13l-21.09-22.19c-2.35-2.47-4.33-4.92-6.71-7.06-1.14-1.03-1.87-2.59-3.19-3.48l-.31-30.72c0-.46-.37-.66-.62-.48l.09-9.4c.69-.34.9-1.43.9-2.2.49,2.08,4.12,4.35,5.87,6.9.5.72,1.44,1.34,1.78,1.9,1.06,1.81,2.44,2.58,3.85,3.87.95.87,1.64,2.09,2.8,2.81-.21-.13,3.76,4.6,3.79,4.64.62,1.05,1.44,1.09,2.09,1.89l2.32,2.87,3.04,2.97,1.37,1.99c.9,1.31,2.25,2.93,3.85,3.59,1.23.51.97,1.06,1.43,2.12.73,1.68,2.89,2.7,3.73,4.34.53,1.03,1.13,1.25,1.96,1.92,1.46,1.16,2.84,2.65,4.06,4.07l1.57,1.83,3.74,4.2c.66.74.86,1.45,1.93,1.92.64.28,1.03,1.44,1.94.96Z"/>
  <path class="st2" d="M117.4,91.49c1.69.46,5.59,5.73,5.97,6.08.75.69,1.29,1.23,1.91,1.91l4.73,5.25c.63.7,1.06,1.23,1.8,1.98l5.17,5.22c-.71-.71,6.13,7.3,6.91,8.15l1.96,2.14c1.21,1.32,2.27,2.17,3.46,3.41s2.34,3.07,3.87,3.87c.58.3.05,2.16,1.54,2.05.75-.06.89,1.1,1.11,1.55.69,1.42,2.22,2.17,3.26,3.3l2.67,2.92c.75.82.94,1.72,2.12,2.23.57.25.66,1.61,1.27,1.81,1.34.43,1.59,1.4,2.36,2.29,1.27,1.48,2.68,2.86,4.05,4.2.98.96,1.52,1.86,2.42,2.88l2.96,3.36c1.02,1.16,2.04,2.22,3.53,2.18-.38.46-.39,1.5-1.16,1.7l-33.35-36.23-11.12-12.22-17.71-19.53c-.36,4.43-.25,8.33-.12,12.5l18.11,19.86c.95.44,1.27,1.16,1.82,2.05l37.57,41.25c.08.6-.48.99-.74,1.37-1.44-2.89-1.41-1.34-4.28-5.53-.87-1.27-2.41-2.09-3.51-3.18-1.36-1.34-3.74-6.09-5.47-6.19-.6-.52-.65-1.57-1.23-2.48-3.72-1.74-2.44-3.08-6.12-5.8-.32-.23-5.1-5.64-5.53-6.24-.46-.65-1.7-.76-1.9-1.79-.32-1.7-2.34-2.16-3.08-3.26-.82-1.21-1.93-2.08-2.82-3.25-.77-1.01-1.26-1.81-2.23-2.67-1.48-1.32-2.56-3.11-4.17-4.4-.95-.76-1.51-1.76-2.16-2.71.19.29-7.21-7.89-6.36-6.68-1.31-1.88-2.45-3.19-4.34-4.45.61.4-3.42-4.24-3.53-3.25,0-.95-.2-2.38-.95-2.85l-.09-9.8c1.04.49.67-2.64.67-3.06.24.05.51-.02.75.04Z"/>
  <path class="st10" d="M173.32,12.95c.89,1.16,1.63,2.69,2.58,3.79-1.27.46-2.62.17-4.14.1l-31.34-1.29c-.16,0-.45-.4-.5-.48-.17-.24-.38-.2-.37.19l-3.05-2.98-.7-.69c4.17-.24,8.34-.08,12.76.1,8.4.34,16.61.35,24.76,1.25Z"/>
  <path class="st2" d="M192.11,132.03c-.17.93-.41,1.57-.78,2.46L119.69,55.37c-.66-1.06-1.5-2.06-2.73-3l.05,8.29c0,.24.26.43.39.39,0,.13.07.25.07.38h-.82c0-.7.32-1.99-.67-1.95v-6.25c.2.18.72-.06.72-.43l-.04-15.77c.42.08.78.5.78,1.12l-.11,11.18c0,.93-.29,1.91.59,2.57,3.01,2.24,1.6,3.04,4.31,4.07.46,1.68,1.55,2.81,3.13,3.52.38.28.21,1.36.64,1.62,3.93,2.28,3.63,5.95,4.83,4.06-.2,1.8,4.1,4.71,6.1,7.44,1.35,1.84,2.82,3.82,4.75,5.01,1.01.62.75,1.3,1.48,2.14l3.7,4.28c.71.82,1.37,1.19,1.93,1.89,1.77,2.19,3.86,4.75,6.15,6.31,1.03.7,1.08,2.71,2.24,3.28s4.19,4.69,5.14,5.72l6.15,6.65c1.45,1.57,2.79,2.99,4.15,4.51l3.56,3.96c1.18,1.31,1.94,2.68,3.31,3.87,2.14,1.87,3.83,4.16,6.02,5.88.43,1.98,2.21,2.81,3.35,4.19.91,1.11,1.87,2.08,3.26,1.75Z"/>
  <path class="st2" d="M195.55,120.75c-.53,1.67-.38,3.77-1.53,5.22-.12-1.51-.19-2.91,1.04-4.47-1.42-1.93-3.43-2.97-4.46-4.83-.47-.86-1.29-1.1-1.77-1.73-1.78-2.3-4.61-5.29-6.78-7.73l-4.1-4.61-1.74-1.94c-.07-.08-5.06-5.42-4.53-4.95-1.49-1.32-2.8-2.63-3.71-4.45-.15-.3-.51-.4-.62-.24-.09.13-.09.33-.34.44.15-2.11-2.49-3.1-3.33-4.57s-1.62-2.58-3.25-3.27c-.57-.24-.59-1.45-1.1-1.78-1.84-1.17-2.59-3.22-4.02-4.59-1.81-1.73-3.35-3.14-4.65-5.27-.7-1.14-4.52-4.99-5.72-6.33l-5.53-6.22c-3.77-4.25-7.17-8.01-11.02-12.06l-2.88-3.03c-.47-.5-.58-1.46-1.12-1.94-2.49-2.22-6.05-6.79-7.68-6.47-.06-1.01-.06-2.01-.05-3.02h.4l18.65,21.04,6.11,6.73,22.62,25.38,31.1,34.68Z"/>
  <path class="st1" d="M176.29,13.27c.64.15,1.26.12,1.91.06,2.81-.28,5.63.11,8.63.37l13.8,1.2c.61,1.48.4,2.79.51,4.07-4.34-.54-9.4-.75-13.91-1.14l-4.48-.38c-1.39-.12-2.63-.37-3.84.12-.07.03-.24,0-.32-.02.18-.3-.28-.32-.47-.39-1.5-.71-2.45-2.1-2.59-3.76.24.02.53-.18.76-.12Z"/>
  <path class="st2" d="M139.55,15.27l50.5,57.49,11.05,12.68c-.02.52-.06,1.06-.35,1.5-.65.23-.41-.82-.72-1.07-2.17-1.77-3.31-4.32-5.15-6.19-.99-1-2-1.57-2.86-2.91-2.35-3.67-2.3-2.39-5.12-6.11-.59-.79-5.25-5.83-5.31-5.99-.69-1.65-2.81-2.48-3.65-4-.42-.75-3.87-4.74-4.59-5.26-.78-.57-2.4-3.39-4.9-5.59-1.3-1.14-1.95-2.52-3.03-3.7-.78-.85-1.86-.89-2.36-2.26-.53-1.44-2.58-2.31-3.2-3.72-.39-.89-1-1.02-1.61-1.61-.9-.87-1.35-2.23-2.44-3.11-1.23-.99-2.23-2.18-2.48-3.81-2.01-.66-2.96-2.35-4.02-3.93s-2.87-2.5-3.74-4.01-1.71-2.25-3.01-3.22c-.73-.54-1.2-1.69-2.14-2.3-1.06-.69-1.13-2.14-2.02-2.84-.13-.1-.23-.24-.37-.33l-.7-.47c-.47-.44-.65-1.5-1.13-1.88.21.03.35-.11.32-.33l3.05,2.98Z"/>
  <path class="st1" d="M136.18,12.62c.49.37.67,1.44,1.13,1.88,0,.17.06.42-.03.6-.08.16-.38.27-.73.27l-19.15.23-.45.03c-.05-1.24-.73-2.54.22-4.1,5.75-.18,12.02-.48,17.78-.05.39.03.93.9,1.23,1.13Z"/>
  <path class="st2" d="M198.12,108.78c-.2.51-.38,1.59-.45,2.14l-4.7-4.67c-2.23-3.1-4.92-5.72-7.47-8.6l-5.14-5.82-31.78-35.6-1.08-1.95c.34-.21.79-.39,1.21-.32s-.06.92.15,1.07c.88.62,1.3,1.78,1.99,2.6l2.79,3.29c.89,1.05,2.47,1.68,3.31,3.02.72,1.14,6.14,7.28,7.28,8.44l2.09,2.11c2.39,2.41,4.36,5.57,6.26,6.91.92.65,1.38,2.29,2.54,2.97,1.4.82,1.95,2.41,2.88,3.5l3.09,3.61c.88,1.03,2.01,1.43,2.73,2.72.3.54,1.52.58,1.64,1.64.15,1.31,1.49,1.78,2.34,2.36.99.69,1.29,2.34,2.09,2.78,1.11.61,1.49.91,1.99,2.05.64,1.44,2.37,2.32,3.2,3.71.7,1.17,1.82,1.85,3.03,2.03Z"/>
  <path class="st2" d="M175.53,13.39c.14,1.66,1.1,3.05,2.59,3.76.17.08.28.33.47.39.08.03.25.05.32.02.41,1.64,1.39,3.18,2.84,4.29,1.02.78,1.33,1.91,2.15,2.78l5.01,5.38c1.11,1.19,7.5,8.83,8.38,10.13,1.08,1.6,2.6,2.79,4.12,4.13l.17-11.37c.51,4.55.32,9.24.3,13.88l-25.98-30.05c-.95-1.1-1.69-2.63-2.58-3.79.75.08,1.56-.09,2.21.44Z"/>
  <path class="st2" d="M146.73,53.9c-4.78-4.56-8.95-9.65-13.48-14.71l-15.75-17.58c-.17-.19-.41-.27-.43-.03-.08-.21-.18-.23-.32-.05,0-.46-.09-.93,0-1.39,2.14,1.29,5.18,5.04,7.09,7.16l1.58,1.75c.78.87,1.42,1.43,2.22,2.31l4.43,4.83c.66.72.93,1.53,1.64,2.25,1.78,1.8,3.79,3.4,5.05,5.33.83,1.27,1.99,2.53,3.3,3.55s1.87,2.66,3.05,3.74c.94.86,1.98,1.41,1.62,2.85Z"/>
  <path class="st2" d="M188.73,140.61c.11,1.27-.59,2.36-1.11,3.45-.29.08-.64-.94-.34-1.28.38-.44.69-.13.82-.81.17-.93-.81-.63-.93-.94-.81-2.19-7.29-8.17-8.46-9.89-.84-1.23-1.29-1.71-2.44-2.61-1.22-.96-1.82-2.96-3.43-3.99-.91-.58-1-2.26-1.75-3.1-1.57.52-1.64-.74-2.29-1.42-1.43-1.49-2.65-2.9-3.88-4.48-.46-.58-1.17-.36-1.4-1.39-.27-1.24-2.4-2.02-2.8-3.24-.52-1.57-1.85-1.73-2.68-2.74l-3.03-3.69c-.72-.88-2.04-1.45-2.64-2.17-1-1.2-1.47-2.35-2.75-3.35-1.15-.91-1.55-2.86-3.34-3.43-.31-.29-.29-1.16-.57-1.59-1.93-.84-3.09-2.4-4.05-4.17-.62-1.14-2.25-1.69-2.71-2.88-.44-1.12-1.71-1.47-2.15-2.29-.69-1.29-1.65-1.68-2.44-2.58l-3.68-4.17c-.89-1.01-1.33-2.54-2.68-3.02,0-.47-.05-.94-.11-1.41l60.86,67.21Z"/>
  <path class="st0" d="M120.1,168.47c.43,1.24-2.65-1.62-2.65-.13l-.05,45.39c0,1.25.61,2.24.85,3.41,1.8-.34,3.22-2.42,4.77-1.76-1.65,1.32-3.63,2.21-5.7,3.27-.37.08-.37-.83-.38-1.12l.07-51.03c0-.25-.08-.5-.09-.75l-.03-.76c1.32.89,2.05,2.45,3.19,3.48Z"/>
  <polygon class="st11" points="116.96 217.53 116.66 166.5 117.03 166.5 116.96 217.53"/>
  <path class="st11" d="M201.85,65.21l.03-18.07c.21-.15.27.17.33.43v17.21c-.06.27-.14.58-.36.43Z"/>
  <path class="st11" d="M117.06,32.91h-.4l.1-11.39c.14-.18.24-.16.32.05l-.02,11.33Z"/>
  <path class="st2" d="M116.66,19.4c-.33-1.26.35-2.54.3-3.76l.45-.03.02,3.08c0,.32-.05.59-.23.71-.14.09-.39.02-.54.02Z"/>
  <path class="st2" d="M178.2,13.33c-.64.06-1.27.09-1.91-.06.45-.43,1.49-.44,1.91.06Z"/>
  <path class="st2" d="M117.03,166.5h-.38c0-.27-.02-.65.29-.75,0,.25.09.5.09.75Z"/>
  <path class="st6" d="M116.66,61.43v30.02c0,.42.37,3.56-.67,3.06v-35.03c.99-.04.67,1.24.67,1.94Z"/>
  <path class="st6" d="M117.02,107.16l-.04,15.03c0,.77-.21,1.86-.9,2.2v-20.08c.74.47.95,1.9.95,2.85Z"/>
  <path class="st1" d="M138.38,15.3c-.18-.03-.46-.1-.37-.33.14.1.24.23.37.33Z"/>
  <path class="st1" d="M117.48,61.43l10.4,11.97c.06.47.1.94.11,1.41-.59-.21-.5-.62-1.01-1.16l-4.25-4.45c-1.7-1.78-2.81-3.84-5.28-5.31l-.04,27.6c-.23-.06-.51,0-.75-.04v-30.02h.82Z"/>
  <path class="st0" d="M119.69,55.37c-.75.2-1.37-.25-2.12-.8-.36,2.36-.09,4.4-.17,6.48-.12.05-.38-.14-.39-.39l-.05-8.29c1.22.93,2.07,1.93,2.73,3Z"/>
  <path class="st5" d="M178.59,17.54c-.19-.06-.3-.31-.47-.39.19.07.65.09.47.39Z"/>
  <g>
    <path class="st2" d="M96.53,97.33l.04.45c-.48.68.97.93.48,2.45-.12.36-1.1.1-1.46.46-.8.78-1.49,1.68-2.56,1.19-.5-.23-1.03-.36-1.52-.61.03-.32,0-.69-.23-.72-1.29-.16-2.37.55-2.94.45-.37-.07-.62-.59-.73-1.07-.2-.86-.71-1.07-1.34-.98-.29-.08-.75-.57-1.13-.38-1.87-.38.73-.23-2.71-4.64.95-.03,1.62.68,2.72.87-.62-.9-1.56-.7-2.32-1.37,1.61-.15,2.67-.92,3.96-1.54,1.63-.78.89,2.86,5.75,1.25.46.54.04,1.53.47,2.1.74.98,2.12.76,3.26.86.07.52-.17,1.07.26,1.23ZM85.89,95.01c0-.1-.08-.19-.19-.19s-.19.08-.19.19.08.19.19.19.19-.08.19-.19ZM86.64,95.39c0-.1-.08-.19-.19-.19s-.19.08-.19.19.08.19.19.19.19-.08.19-.19ZM89.57,96.98c-.88-.37-1.4-1.28-2.59-1.41.55.82,1.33,1.24,2.59,1.41ZM90.24,97.21c-.11.33.24.55.34.62s.44.1.54-.19c.06-.18-.93-.29-.88-.43ZM91.78,97.68l-.23.45,2.03,1.01.23-.45-2.03-1.01Z"/>
    <path class="st2" d="M61.53,41.49c.11-.03.23,0,.34-.03.59.92,2.06,0,2.9.53,4.54,2.84,3.02.12,4.51,3.79.36.44,1.48.36,1.55,1.03.24,2.08.06,4.5,1.35,6.09.38.47,1.31.98,1.65.75.41-.28.9-.96.94-1.44l.29-.03c.1.19.25.36.33.56-.46,1.32-1.25,2.57-1.17,4.18.13,2.5-.06,4.91.17,7.35l.79,8.21c2.87-1.81,2.39-5.73,6.89-7.95.16.68-.49,1.08.01,1.05-.59.81-1.13,1.7-1.52,2.62-.33-.03-.62.24-.93.27-.6.07-.03.95-.28,1.22-2.62,2.82-4.02,6.53-3.99,10.51l.09,12.6c0,.24.5.58.58.72.38.64,3.44-2.76,2.29-1.66.63-.6,1.32-1.1,1.64-2.35.29.39.31.72.77,1.04,1.09-1.07,4.6-2.69,4.74-3.64.06-.42.5-.43.69-.67,1.82,1.12,4.01-1.89,5.62-1.94-.01.24.14.51.1.75s-.25.45-.34.66c-.31.04-.64-.18-1.18.26,1.2.5,1.89,1.55,3.42,1.67-.2-.61-1.09-.42-1.08-1.19.83-.26,1.88-.17,1.92-.89.09,0,.22-.06.3-.05.64.45,1.31-.36,2.18-.11,1.4,2.83,4.17,1.02,4.56,2.6.32,1.3,1.16,1.92,2.23,2.3.38.13.71.4,1.18.66-.81,1.12-.15,2.59-.56,3.65-.88.31-2.4.2-3.2,1.24-1.04-.91-1.36-1.93-2.45-2.49-3.47.23-1.95-1.23-3.46-2.11-.14-.08-.29.13-.46.14-.5.02-1.1.08-1.54-.16-.93-.49-.32-2.27-1.52-2.75-.19-.23.01-.92-.36-1.05-2.31-.82-4.72.8-6.64,2.31-.61.48-1.56.9-1.56,1.62-.03.14-.26.38-.39.44-.44.21-1.3.41-1.51,1.16.17.36.78.66,1,.94-1.37.04-3.04.2-3.28,1.66-.06.11-.26.35-.4.37-.27.04-.63.2-.84.52-2.05,3.13-2.13,6.72-1.42,10.34.04.22-.27,5.78,1.02,4.15l2.07-1.21c.57.82.67,2.24-.03,3-2.71,2.94-2.37,9.06-2.01,12.84l.42,4.46c.25,2.63,1.33,4.84,3.22,6.14,2.34,1.61,4.74,1.72,7.4,1.01.64-.17,7.57.12,7.24,2.32-1.84-.3-3.16-.77-4.72-.08l.82,1.02c.17.21.04,1.19-.4,1.06-1.42-.44-2.49-1.94-4.12-1.84-1.87.11-3.76.54-5.48-.31l-3.93-1.94c-.36,2.97,5,5.57,7.3,6.74,1.08.55,2.55.09,3.5.96.12.21-.46.36-.63.32-.55.07-1.09-.11-1.81.22,2.01,2.13,1.36,4.85,4.1,7.69-.77.56-1.17-.37-1.76-.45-1.44-.19-1.74,3.22-2.36,1.69-.54-1.35,2.98-5.7-4.8-10.17,1.38,2.4-1.94,3.33-.82,6.8.04.43-1.06.16-1.23-.17-.24-3.96,2.29-5.86-2.98-8.94-.07-.14-.3-.38-.4-.49-.16-1.02-.48-2.05-1.17-2.86-4.02,5.79-.25,8.56,1.42,13.98.37,1.2.54,2.04,1.32,2.89-.12,1.63.22,3.34-.45,4.86-1.4-.42.05-3.81-1.82-6.08-.25-.3-.22-1.25-.78-1.37-.86-.18-1.04.83-1.71,1.37,1.14-4.72-1.18-4.26-2.35-13.06-.13-.94-1.29-.69-1.14-1.88.53-.51.91-1.43,1.08-2.41-2.48,1.64-9.21,3.67-11.28,5.49-.34.3-.94-.04-1.07-.28-.08-.14-.03-.38-.05-.59.22-.2.49-.57.76-.69,1.83-.21.53-1.22,3.43-1.71-5.16-1.6-2.88-1.55-7.55.65,2.18-6,7.62-1.31,12.05-2.76.83-.27,1.77-1.17,1.83-1.81.01-.14.22-.38.36-.42,2.46-.68,2.81-5.22,2.56-6.36-.42-1.9.74-3.54.72-5.22l-.1-11.67-.76-2.97c-.79-3.09-2.35-1.78-2-3.57.16-.82.94-1.02,1.99-1.09.75-3.46-.1-7.7-2.63-10.44-.93-1-2.25-.62-3.21-.26s-.9,2.18-1.64,2.77c-1.43,1.14-3.26,1.5-3.51,4.14-1.87-1.43-3.31-.34-4.66.94l-3.03-1.1c1-1.29.6-2.63,1.25-3.83.28-.53,1.73-.32,1.54-1.16.19-.14.32-.4.54-.5.7-.35.97-1.14,1.71-1.74,1.42.5,2.24-.82,2.97-1.44,2.11-.22,4.1.88,6.34.4-1.22-2.17-3.59-3.21-5.52-4.57-1.2-.84-2.31-.96-4-.34.35-.87.75-1,.57-1.28-.36-.56-.86-.5-1.12-.65.18-.96,3.01.09,4.47.08,2.54,2.18,5.57,3.82,8.63,5.19.13.06.34.23.4.37.07.16.06.51.2.77.09.18.34.34.57,0,.14.1.45.22.48.42.04.23-.01.41.18.52.21.12.59.02.64-.32.12-.88,1.47-8.83-.17-7.74v-3c1.62,1.01.47-8.51.09-9.87s-1.95-.35-1.9-4c1.06-.09,1.29.71,2.41,1.15,0-2.01.25-3.95.06-5.96-.12-1.19-.74-2.32.15-3.37-.46-.18-.61-.08-.8-.09v-.38c.7-.64.61-1.99-.08-2.63l-.05-.38c.53-1.31-.41-2.74-1.75-3-.15-.03-.27-.18-.38-.28.27-1.85-2.23.06-3.07-1.12-2.16-3.03-2.42-.6-3.4-3.47-.1-.3-.3-.55-.52-.62-.15-.05-.33.06-.49.21-.15-.08-.29-.18-.41-.3-.07-.45-.38-.46-.38,0-.14-.06-.24-.18-.37-.25-1.82-1.55,1.18-2.01-.93-4.02-.36-.34-.22-1.06.09-1.29.21-.15.61-.09.88-.16ZM95.03,88.32c.13-.37-.24-.55-.34-.63s-.45-.09-.54.19c-.05.18.93.28.87.44ZM95.59,88.62l6,3.51c-.54-.83-5.78-4-6-3.51ZM59.65,95.62c1.56-.78,3.1-1.22,4.24-2.53-2.16,1.01-2.81,1.02-4.24,2.53ZM77.26,156.18c0-.1-.08-.19-.19-.19s-.19.08-.19.19.08.19.19.19.19-.08.19-.19Z"/>
    <path class="st2" d="M91.79,84.3c.07-.27.06-.71.3-.74.27-.03.49.01.55.21.09.25.02.47-.21.53-.17.05-.39,0-.64,0Z"/>
    <path class="st2" d="M105.4,68.18c-1.33,1.05-1.58,2.81-.53,4.45l-2.23,1.41c-.95.6.67,2.9-4.26,3.85l1.34-3.71c-1.96,1.28-.82,2.57-3.06,4.27-.15-1.45-.61-3.01-1.06-4.72.24-.39.97-.27,1.52-.37.17-.41-.03-.62-.38-.68l.04-.75c.6-.2.33-1.03.27-1.52,2.14-3.53,2.02.03,2.54-5.75,2.48,1.5,2.6-1.77,4.04-1.01.48.26.2.99.39,1.45.48,1.15,1.57,1.9,1.38,3.08ZM102.82,66.31c0-.13-.11-.24-.24-.24s-.24.11-.24.24.11.24.24.24.24-.11.24-.24ZM102.45,67.81c0-.13-.11-.24-.24-.24s-.24.11-.24.24.11.24.24.24.24-.11.24-.24ZM99.86,73.83c1.03-1.81,2.1-3.45,2.02-5.36-.99,1.81-1.65,3.48-2.02,5.36Z"/>
    <path class="st2" d="M85.47,41.17c-.02.12.03.25.04.38-.46.06-.38.62-.41.95-.04.42.07.8.51.9.13.03.19.27.3.34.07,1.41-1.65.61-1.52,1.99-.09.05-.27.03-.38.02-.55-.05-.99.34-1.25.75-.2.31.34,1.46-.01,1.68-1.18.75-2.68.99-2.88,2.46-1.17,1.3-1.89.03-3.69,1.42.2-.65.57-1.15.09-1.68-.5.57-.73,1.08-1.26,1.3.94-1.6-.13-3.64.65-5.4.35-.44,1.43-.68,1.19-1.41-.04-.11.06-.25.06-.36,1.15-.24.64-1.64.73-2.93.35.06,1.07.54,1.54.54.27,0,.76-.08.43-.6.21-.22.69-1.09,1.06-1.06.53.05.47-.56,1.12-1.07,1.94,1.8,3.94-.15,3.69,1.78ZM82.51,42.48c-.58-1.1-1.37,1.59-1.46,1.14.04.19.44.24.54.16-.4.32,1.08-1.01.92-1.3ZM78.81,46.7l2.15-2.51c-.78.68-1.85,1.14-2.15,2.51Z"/>
    <path class="st6" d="M103.79,119.92c-.13.65-1.25,1.28-.4,2.35.05-.9.63-1.54.88-2.31.7-2.1,2.71-3.97,5.04-3.86,2.66.13,4,2.1,3.77,4.63s-2.29,4.14-4.7,4.6c-.1-1.2.5-2.48-.39-3.11-.55-.38-1.38.4-1.82.42,0-1.25,1.66-1.23,2.69-.98.24.84.16,1.55.55,2.15,1.73.02,2.4-1.14,2.87-2.19.54-1.21.41-2.54-.43-3.78-.79-1.16-2.71-1.36-4.23-.95-3.35.89-4.51,8.47-4.36,8.87.06.15.26.26.45.26,1.17,0,.48-2.85,2.13-3.05-.23.95-1.09,1.65-.84,2.87.85.2,1.65.33,1.6,1.04-.03.52.12,1.36-.42,1.45l-1.85.28c.51,1.42,1.81,2.18,2.9,3.35-1.24.89-2.65.49-3.95-.08-.14,2.14-.61,4.2-2.28,5.53-1.44-1.6-1.82-3.47-1.97-5.4-1.31.43-2.46.86-3.87.18,1.02-1.09,1.98-2.07,3.05-2.93-.12.61-.54,1.58-.19,2.23,3.27-1.52.37,2.79,3.3,4.52,1.44-1.44,1.3-3.38,1.2-5.33l2.13.79c.29.11.32-.35.37-.48.1-.27-.47-.5-.55-.75-.81-2.8-5.13-1.89-6.26-.98.05-.27-.06-.62-.27-.68-.15-.05-.53-.16-.77-.13-1.23.13-1.27-.8-1.42-1.62-.18-.99,1-.56,1.68-.93.07-1.84-1.44-3.99-3.5-3.63-.38.95-.07,1.9.2,3.07-1.31.38-2.28-.56-3.24-1.43-1.86-1.68-2.29-4.5-.49-6.37,1.55-1.6,4.55-1.85,5.98.13-1.57-.24-2.01-1.49-4.39-.61-2.69.99-1.86,3.3-1.35,5.59.17.78.87,1.07,1.44,1.06,1.55-.03,1.01-2.78,3.07-2.07,1.94.67,2.8,2.39,3.25,4.34,1.29-.68.25-1.43.11-2.12-.31-1.45-.24-3.15-1.26-4.39-.25-.3-.91-.33-.85-.82.02-.2.16-.45.32-.63.37.17.55.45.74.79.48.87.99,1.7,1.35,2.64.37-.34.18-.59.2-.77,1.37-.34,1.08,4.7,2.3,5.6.94-1.73.8-3.32,1.3-4.97,1.12-3.68,2.54-6.97,1.48-10.59-.43-1.47-1.42-2.85-2.17-4.16-.31-.54-2.21-.19-2.31.44-.35,2.26-3.95,3.17-.58,13.29-.59-.25-.85-.94-1.04-1.54-1.9-6.04-1.22-9.28,2.73-14.53,2.61,3.34,3.51,4.06,4.18,8.3.41,2.58-.65,4.96-1.12,7.35ZM99.43,122.1c-.21-.39-.41-.23-.46.2.06.87.51.76.46-.2ZM103.18,122.85c-.21-.39-.41-.23-.46.2.06.87.51.76.46-.2ZM102.54,125.95c.56-.71.41-1.39-.02-1.9-.37.74-.2,1.22.02,1.9ZM105.34,127.74l.74-.46c2.04-1.26-9.41-.51-9.53-.4-1.58,1.96,8.43,1.08,8.79.86Z"/>
    <path class="st6" d="M52.53,119.62l-.08.35c-.29.12-.61.32-.58.55.06.43.22.73.3,1.01-.04,0-.14.03-.28.03-.26-.17-.52-.11-.57.3.01.88.4.84.55.01.98-.45-.97,3.62.06,4.03.93.37.96-4.92,4.54-4.2.98.2.93,1.55.87,2.46.79.36,1.21-.52,1.74-.96,1.72-1.42,1.61-3.27.91-5.1h.38c.15.34.65.62.7,1.17.24,2.97-1.86,5.57-4.65,5.93.17-1.13.76-2.53-.29-2.94-1.55-.6-3.39,2.17-2.59,3.3.45.64,1.69.23,1.39,1.08-.2.57.09,1.21-.25,1.42-.57.34-1.19.17-1.91.31.22,1.62,1.85,2.22,2.82,3.48-1.38.7-2.5.32-3.85-.13.32,2.07-.35,3.89-1.84,5.47-1.43-1.59-1.78-3.38-2.01-5.28-.68.22-1.13.45-1.59.41-.22-.02-.15-.59-.09-.78.8.12,1.54-.41,2.48-.67.12,2.01-.3,3.84,1.19,5.58,1.48-1.64,1.39-3.64,1.23-5.7,1.29.11,1.91,1.35,3.36.65-1.19-.56-1.41-2.08-2.42-2.8-1.27-.91-3.6-.44-4.79.42.46-1.42-1.9-.2-2.35-1.17-.17-.37-.02-.98-.03-1.55-.01-.48,1.2-.15,1.36-.56.48-1.28-.7-3.63-2.4-3.27-1.1.23-.63,1.88-.3,2.85-.61.03-1.52-.11-1.96-.47-2.32-1.89-3.53-4.61-1.89-7.24.16-.26.4-.42.72-.38-2.17,3.99.45,6.64,1.39,6.55,1.05-.11.55-1.35,1.43-2.05,1.1-.88,3.82,1.57,4.12,4.32.54-.64.17-1.47.42-2.19.78-2.27-3.44-7.44-4.85-7.23l-2.09.25c1.18-1.71,4.88.26,6.15,2.6l-.9-5.9c-.52-3.38,1.58-6.6,3.54-9.18,4.3,4.32,4.17,9.72,2.91,15.21ZM52.19,117.03c1.09-1.6.55-6.64-.53-7.9-.6-.7-.41-1.77-1.14-2.71-.64.49-1.42.75-2.15,1.16-.66.37-.07,1.31-.26,1.73-1.08.63-1.15,1.93-1.01,3.18.15,1.32-.7,2.77-.1,4.17,1.33,3.11,1.78,6.2,2.65,9.6,1.59-3.32,1.26-7.37,2.53-9.24ZM51.09,124.76c.59-.71.39-1.36.04-1.82-.26.73-.21,1.22-.04,1.82ZM51.04,125.6c0-.13-.11-.24-.24-.24s-.24.11-.24.24.11.24.24.24.24-.11.24-.24ZM54.1,126.71c-.16-.06-.54-.23-.85-.2-3.28.31-8.23-.52-7.9.72.06.23.32.61.79.59-.4.01,11.74.31,7.97-1.11Z"/>
    <path class="st2" d="M90.69,58.43c.02.35-.32.65-.61.78-.27-.6-.5-.26-.45.34.03.45.07,1.03-.2,1.12-.47.14-1.73-.11-2.55.06-.23.05-.34.36-.24.71-.21.08-.49-.06-.71,0-.45-1.59,1.07-2.37,1.87-4.02-1.55.65-1.65,2.52-3.25,3.51-1.4-6.75,1.93-4.02,1.69-6.97-.16-1.92,1.86-1.11,2.65-2.64.07-.14.28-.39.43-.43.39-.1.89-.67,1.42-.69l3.1,1.06c.89,3.75-2.16,4.04-1.25,5.94-.65.57-1.94.35-1.9,1.25Z"/>
    <path class="st2" d="M44.91,66.75c-.04.9.14,1.79.72,2.62.34-1.11-.34-1.8-.21-2.65,3.25-.86,2.12,5.04,4.07,3.34h.4c.11,1.22-.13,2.55.26,3.89.16.54,1.11.93.91,1.66-.81,2.94.17,3.84-1.56,3.83-7.09-1.78.38-.98-6.43-4.98,1.1-1.27.6-2.73-.06-3.98.2-2.99,1.02-1.05,1.22-3.92,0-.12.14-.3.35-.11.09.08.21.2.34.29ZM46.35,71.58c.07-1.05-.25-1.43-.45-1.91-.47.8.13,1.36.45,1.91ZM46.91,72.31c0-.13-.11-.24-.24-.24s-.24.11-.24.24.11.24.24.24.24-.11.24-.24ZM47.66,74.19c0-.13-.11-.24-.24-.24s-.24.11-.24.24.11.24.24.24.24-.11.24-.24ZM47.91,74.87l-.66.4,1.16,1.93.66-.4-1.16-1.93ZM49.11,77.75c0-.1-.08-.19-.19-.19s-.19.08-.19.19.08.19.19.19.19-.08.19-.19Z"/>
    <path class="st2" d="M75.47,38.48c-.44,2.49,1.41.97-1.66,6.65-.99-3.69-.16-8.81-2.17-11.92.44,3.95,1.81,7.4,1.06,11.36-3.76-2.36-1.71-3.27-2.36-4.01-.85-.97-1.07-1.83-.95-3.04.02-.18-.1-.45,0-.92.24-.91-.09-1.82-1.19-2.36.17-.69.82-.84,1.12-1.31,1.03-.04.8-1.02,1.15-1.34.92-.86,1.55,1.05,4.03.97-.25,2.76,1.22,4.48.96,5.93Z"/>
    <path class="st2" d="M64.51,61.83c-.49,1.34-.98-.34-2.65-.7.46.65,1.13.97,1.09,1.71-.32-.09-.72.1-1.05.05-.69-.68-1.58-.27-2.62.07-.15-3.16-2.96-2.35-3.34-3.2-.13-.3.46-1.13.06-1.56-.08-.08-.26-.04-.38-.11-.17-.1-.29-.3-.45-.42-.17-.11-.32-.3-.52-.36-.62-.84.27-4.08.32-4.11.33-.22.9.07,1.17,0,2.44-.63,4,1.62,6.01,3.8.9.98,2.18,1.62,1.63,3.38-.18.57.13,1.45.72,1.45ZM61.38,60.6c-.98-1.19-1.53-2.33-2.79-3.27.62,1.32,1.57,2.39,2.79,3.27Z"/>
    <path class="st6" d="M105.36,68.59c-.27.72-.73,1.42-.46,2.36.15.51.98.75,1.34,1.57-1.43.75-2.86,1.21-3.66,2.42-.32.49.61,1.12.85,1.5-.87.95-2.08.94-3.39,1.68,3.5,1.07,2.33.21,5.1-1.86.22.49.07,1.79.71,1.9,1.47.27,2.5-.99,3.68-1.86.31.72.05,1.37.06,1.95-1.26.34-2.62.27-4.12.26-.47,0-1.14-1.06-1.72-.35-1.93,2.35-2.63.4-3.9,1.93-.27.33-.71,1.73-.08,1.65l11.63-1.56c-.04.25-.26.52-.37.75l-11.67,1.49c.75,1.78,2.33,1.46,3.81,1.58,1.21.1,2.26,1.1,3.43.65-.03.4.13,1.52-.38,1.49-.82-.05-1.34-.79-1.92-1.16-1.01-.64-1.91-.46-2.85.66-1.48-2.82-4.76-3.54-7.36-1.82-.77.51-1.48.96-2.21,1.21.04-.24-.11-.51-.1-.75.25,0,.47.04.64,0,.23-.07.3-.29.21-.53-.07-.19-.28-.24-.55-.21-.24.03-.23.47-.3.74-1.6.05-3.8,3.07-5.62,1.94,1.49-1.94.33-4.24-.31-6.26-.28-.87,1.54-2.5-.74-3.59.96-.75,1.73-.16,2.31-.78.99-1.05.57-2.65.35-4.25.74-.28,1.51.04,2.19-.14,0,.12.06.24.07.36-.05.59-.9.88-1.45,1.31.34,1.68-.89,2.91-2.05,3.92.49,1-.27,2.51,0,3.35l1.15,3.65c1.47-3.87,2.46-7.89,3-11.96l.44-.06c-.21,2.17-.67,4.31-1.22,6.59l-1.06,4.33c1.07.09,2.32-.62,2.83-1.49.1-.17-.89-2.03.48-2.53-.45.97-.13,1.95.62,2.83-2.04,1.19-4.04,1.84-4.79,4.02,2.68-1.27,5.06-3.04,6.94-5.31,2.51-3.02-1.03-6.61.11-6.98l1.69-.55c.35.06.54.27.38.68-.56.1-1.28-.02-1.52.37.45,1.71.92,3.27,1.06,4.72,2.24-1.7,1.1-3,3.06-4.27l-1.34,3.71c4.93-.96,3.31-3.26,4.26-3.85l2.23-1.41c-1.04-1.64-.79-3.4.53-4.45-.02.13,0,.29-.04.41ZM99.84,78.27c-1.65.48-3.17,1.31-3.5,3.14,1.83-.05,3.31-1.3,3.5-3.14ZM87.76,84.51c0-.1-.08-.19-.19-.19s-.19.08-.19.19.08.19.19.19.19-.08.19-.19Z"/>
    <path class="st1" d="M96,140.62h0c-1.09-.9-2.84-1.14-4.26-.98,2.88,5.66,4.08,2.5,4.78,5.48-1.5-.2-4.02-.34-5.02-1.82-3.79-5.57-4.54-.7-12.4-4.5-.19,1.63,5.22,4.46,6.18,4.65,5.77,1.12,5.49,1.35,7.34,6.66-2.5.52-1.41-3.05-4.78-4.2.13-.11.18-.32.29-.45.18.04.76-.11.63-.32-.95-.87-2.42-.41-3.5-.96-2.3-1.16-7.66-3.76-7.3-6.74l3.93,1.94c1.72.85,3.61.42,5.48.31,1.64-.1,2.7,1.4,4.12,1.84.44.14.57-.85.4-1.06l-.82-1.02c1.56-.69,2.88-.22,4.72.08.33-2.19-6.6-2.49-7.24-2.32-2.66.71-5.05.59-7.4-1.01-1.89-1.29-2.97-3.51-3.22-6.14l-.42-4.46c-.36-3.77-.71-9.9,2.01-12.84.71-.77.61-2.18.03-3l-2.07,1.21-.02-.42,1.93-1.54c.92.83,1.52,1.84,1.66,3.02l-1.72,1.72c-2.03,2.03-1.15,11.12-1.25,12.63-.08,1.23.4,2.19.45,3.34.19,4.21,2.89,7.58,7.37,7.13,16.43-1.64,9.36,7.72,18.85,6.26-.9,2.14-3.1,1.75-4.79,1.24-2.03-.61-2.58-2.58-4-3.75Z"/>
    <path class="st1" d="M55.53,68.1c-.35-.22-.67-.49-1.28-.75-.54.69-1.02,1.37-1.39,2.2,1.69,4.17.84,2.78.74,6.46-.3-.41-.78-.7-1.42-.94-.74,1.17-1.18,2.56-.8,4.06.75,2.97,5.13,4.13,7.94,5.21-.94-2.68-3.28-3.48-5.34-4.83.56-1.12.47-2.18-.04-3.03,2.74.79-1.47,2.07,4.44,5.11-.32-.48-.17-.76-.21-.98l.4-.07c.27.46-.02,1.23,1.09,1.2-.59-1.24.95-2.36.68-3.38l-1.02-3.91c-.17-.66-1.76-.89-1.06-1.78.02.85,1.2,1.42,2.27,1.17.65.71-.52,1.8-.39,2.34.64,1.28,1.1,1.96.31,3.52-.73,1.43-.11,4.36,1.37,5.31-.13.01-.25.12-.38.12-1.46.01-4.29-1.04-4.47-.08-2.41-1.32-4.94-2.01-7.61-1.16-.23-.06-.18-.37-.23-.56.33.03.54-.35.73-.55l.4-.4c.88,0,1.92.88,1.83.06-.04-.37.18-.91-.23-1.09-.31-.13-.67.05-.93-.02-.61-.18-1.09-.66-1.38-1.22-.1-.19-.02-.47-.09-.68,1.73,0,.75-.89,1.56-3.83.2-.73-.75-1.12-.91-1.66-.39-1.34-.16-2.66-.26-3.89l1.34-.29c-.06,1.25-1.68,4.28.31,4.64.48.09,1.58-.33,1.68-1.06.23-1.74-.73-3.32-1.29-4.89.56.04,1.44.2,1.6-.46.3-1.24.04-2.35.47-3.55.51,1.3,1.39,2.39,1.54,3.65Z"/>
    <path class="st2" d="M106.17,122.66c-.09.22-.26.29-.33.34-1.65.19-.96,3.04-2.13,3.05-.19,0-.4-.1-.45-.26-.15-.41,1.02-7.98,4.36-8.87,1.52-.41,3.44-.21,4.23.95.84,1.24.96,2.57.43,3.78-.47,1.05-1.15,2.21-2.87,2.19-.39-.6-.31-1.31-.55-2.15-1.03-.26-2.69-.28-2.69.98Z"/>
    <path class="st2" d="M92.19,62.12c.13.29.38.53.46.84.44,2.25-2.83,1.32-7.66,3.96-.67.37-1.59.25-2.08,1.14,1.55-.4,2.97-1.36,4.62-1.93s3.19-.81,5.01-1.63c.03,1.17-.54,2.15-1.12,2.8-.46.51-1.85-.03-2.19.5-.59.93-1.78.67-2.72,1.13-1.58.78-1.55,1.01-4.67-.76l.25-.75c1.62.24,1.25-2.55,1.94-2.5,1.64.13,2.08-1.21,3.14-1.83.68-.4,2.31.84,3.12-.34.42-.61,1.28-.93,1.89-.65Z"/>
    <path class="st6" d="M69.42,139.49c-3.98,3.84-4.58.96-7.86,10.83,1.67-.84,1.53-2.54,2.54-3.67.74.51.73,1.63,2.22,1.65-.82-1.82-.89-3,.17-4.27s2.52-2.25,4.07-2.66c1.17,8.8,3.49,8.34,2.35,13.06.67-.53.86-1.54,1.71-1.37.56.12.53,1.07.78,1.37h-.36c-1.13-1.59-1.11,1.24-3.19,2.17-1.3.58-2.05,1.56-3.23,2.57-1.52-3.55,6.38-4.06,3.36-9.86-1.1-2.12-1.78-4.31-1.73-7.05-1.11.22-2.06.88-2.88,1.57-1.54,1.29-1.27,3.02-.17,4.46,1.48,1.94,1.75,5.03-.6,6.42.07-1.92.33-3.68-.66-5.11.78.17,1.09.81,1.41,1.55.34-1.12-.17-2.14-.84-2.82-.49.12-.9.41-.57,1.27-.48-.69-.9-.99-1.67-2.42-1.47,4.81-3.95,3.95-2.6,9.69.26,1.09.55,2.04.02,3.21-1.09-2.1-2.13-4.13-2.03-6.71-2.07-.35-3.8.13-5.45,1.6-.39-1.94,1.42-3.28,3.23-3.4,4.12-.28,4.16-3.83,5.47-6.56,1.11-2.31,3.32-3.6,5.13-5.43-2.2-.48-3.68.92-5.44,1.8-.98.49-2.57.72-2.92,1.96-1.4,5-5.12,2.85-7.56,3.63.97-2.24,3.5-1.35,4.84-2.5l.03.82c.02.51.79.41,1.21-.17.21-.29.28-.45.3-.62.04-.3-.31-.65-.55-.5l-.64.38c.07-.42.27-.81.28-1.3-.4-.09-.7.11-1.09-.18.47-.66,1.14-.78,1.59-1.19.02.21-.02.45.05.59.13.25.73.58,1.07.28,2.07-1.82,8.81-3.86,11.28-5.49-.17.98-.55,1.9-1.08,2.41ZM55.81,145.66c-.58.61.01.59.26.6.56,0,.69-.33.53-.59-.14-.25-.47-.34-.79,0ZM60.65,154.45l.51-3.16c-.94.21-1.71.3-2.63.97.66.65,1.41.22,1.69.68s-.16,1.02.43,1.52ZM58.11,152.46c-1.24-.47-1.95-.34-2.27.51.98.06,1.55-.32,2.27-.51Z"/>
    <path class="st2" d="M96.38,117.71c.07.1.23.29.34.34-.17.19-.3.44-.32.63-.06.49.61.52.85.82,1.01,1.24.95,2.94,1.26,4.39.15.69,1.18,1.44-.11,2.12-.45-1.95-1.31-3.67-3.25-4.34-2.06-.71-1.52,2.04-3.07,2.07-.57.01-1.27-.28-1.44-1.06-.51-2.29-1.34-4.6,1.35-5.59,2.38-.88,2.82.37,4.39.61Z"/>
    <path class="st2" d="M40.4,117.24c.16-.29.26-.39.42-.36l2.09-.25c1.42-.2,5.63,4.96,4.85,7.23-.25.72.12,1.55-.42,2.19-.3-2.75-3.02-5.2-4.12-4.32-.88.7-.39,1.95-1.43,2.05-.94.09-3.56-2.56-1.39-6.55Z"/>
    <path class="st6" d="M61.9,62.9c-.54.18-1.21,0-1.74.7,1.04.85,1.82,1.5,2.91,1.63.6.07.73-.81,1.01-1.23.69.71,1.07,1.34,1.53,1.93l-1.39-.44c-.71-.22-1.53.4-2.35-.27-.47-.38-1.28-.55-1.72-.22-.38.29-.96,1.43-.47,1.52,3.06.54,5.72,1.16,8.54,2.19.23.08.42.14.57.08.11-.05.21-.2.33-.56.16.17.7.53,1.03.24.72.15-2.89-3.57-2.26-1.76-.77.02-1.64-.02-2.29-.79.17.21.8.17,1.03.04,1.59-.85-2.79-2.86-3.68-3.12.03-.74-.64-1.06-1.09-1.71,1.67.35,2.16,2.04,2.65.7,2.29.74,5.84,3.84,8.03,6.2.22-2.1.09-4.01-.41-5.96-.34-.5-1.29-.89-1.72-1.12l-.02-.29c.68.09,1.1.83,2.01.79,0-.82-.4-1.41-.02-1.9v-.38c.18.01.34-.09.8.09-.89,1.05-.26,2.19-.15,3.37.2,2.02-.05,3.95-.06,5.96-1.11-.44-1.34-1.25-2.41-1.15-.05,3.65,1.52,2.63,1.9,4s1.53,10.88-.09,9.87l-.04-8.25c0-.93-.56-2.26-1.43-2.61-1.83-.73-3.67.17-5.06,1.5-.3-.67-.69-1.31-1.39-1.19.62-1.3.82.65,4.54-1.24-2.79-1.25-5.33-1.64-8.11-2.25-.73-.16-1.91-.97-2.51-.25-.4.61.47,2.46,1.2,2.62.62.14,1.65-.21,1.9.5-1.54-.4-2.39.58-3.21,1.82-.94-.2-.48-1.55-.95-2.21-.58-.81-1.65-.66-1.77-1.65.78.5,1.72.56,2.63.55-.22.64-.15,1.3.09,2.21.58-.82.28-1.58-.09-2.21-.89-1.49-2.38-1.6-1.98-2.02.42-.44,3.71.03,3.94-3.01-.33-.41-1.34-.17-1.82-.35.11-.6.52-1.04.47-1.61-1.09-.98-2.42-.94-3.74-1.27.31-.95.65-1.6.59-2.29.13.07.31.02.38.11.4.43-.19,1.26-.06,1.56.37.85,3.19.05,3.34,3.2,1.03-.35,1.93-.75,2.62-.07Z"/>
    <path class="st6" d="M88.14,145.46c-.11.13-.16.34-.29.45-.17.14-.42.27-.37.48.06.24.16.51.3.8l2.01,4.45c.97,2.14,3.82,2.03,6.36,2.21-2.29,2.2-5.65,1.33-7.96-.47-1.93,4.95-2.42,1.65-2.48,7.81-2.06-1.37-2.02-4.22-.77-6.19,2.09-3.28,1.15-7.46-2.66-9.24-.12,1.1-.45,2.01-1.03,2.99-.97,1.64,1.81,4,1,5.32-1.45-.59-2.13-1.58-2.76-2.55l-.03-.46c.17.33,1.28.61,1.23.17-1.13-3.48,2.2-4.4.82-6.8,7.78,4.47,4.26,8.82,4.8,10.17.62,1.53.92-1.88,2.36-1.69.59.08.99,1.01,1.76.45-2.73-2.84-2.09-5.57-4.1-7.69.72-.33,1.26-.14,1.81-.22ZM85.21,155.58l-.53,1.58.68.23.53-1.58-.68-.23Z"/>
    <path class="st6" d="M58.85,141.02c.35-.52.9-1.03,1.54-1.61-2.59-2.11-4.72,1.43-6.59,2.44s-4.31.81-5.56-1.28c2.47.68,4.62.36,6.01-1.59,4.53-6.32,9.44.92,14.37-3.59-.06.63-1,1.53-1.83,1.81-4.43,1.45-9.87-3.24-12.05,2.76,4.67-2.2,2.39-2.25,7.55-.65-2.91.49-1.6,1.5-3.43,1.71Z"/>
    <path class="st6" d="M56.99,85.05c.26.14.77.08,1.12.65.18.28-.22.41-.57,1.28,1.68-.62,2.79-.51,4,.34,1.93,1.36,4.3,2.4,5.52,4.57-2.24.47-4.23-.62-6.34-.4-.73.62-1.56,1.94-2.97,1.44-.75.61-1.01,1.39-1.71,1.74.11-.67-.16-1.32-.48-2.21,1.12-.85,3.3.79,4.23-.58.21-.31-.02-.98.1-1.56,2.18.58,3.96,1.39,6.23,1.01-2.46-2.22-5.68-5.08-8.73-3.48-2.42,1.26-.64,4.92-3.31,3.96.84-.69,1.44-2.47,1.95-3.83-.71.04-1.03.81-1.7.33.72-.75,1.75-.67,2.3-1.71-1.83.3-3.54-.16-5.03.32-1.08,2.48-4,1.17-3.95,2.27.07,1.71-.8,1.99-1.92,2.78s.1,2.81-.25,4.27c.92-.39,2.46.24,3.36-.49.99-.94,1.75-1.85,3.24-1.98.45-.04.62-.81,1.13-1.07l-.59,2.61c1.13.32,1.98-.02,2.88-.13.19.84-1.25.63-1.54,1.16-.64,1.2-.25,2.54-1.25,3.83l3.03,1.1c1.35-1.29,2.79-2.37,4.66-.94.25-2.64,2.08-3,3.51-4.14.74-.59.64-2.4,1.64-2.77s2.28-.74,3.21.26c2.53,2.74,3.38,6.98,2.63,10.44-1.05.07-1.83.27-1.99,1.09-.35,1.78,1.21.47,2,3.57l.76,2.97.1,11.67c.01,1.68-1.14,3.32-.72,5.22.25,1.14-.1,5.68-2.56,6.36,1.1-1.88,1.83-3.98,1.94-6.36l.64-13.15c.45-9.31-4.93-9.15-2.66-11.87.23-.28.5-.79.98-.68.27.06.51.27,1.09.45.42-3.05-.09-6.27-1.96-8.85-.77-1.06-2.48-1.41-3.35-.45-1.05,1.15-1.08,2.63-1.32,4.35l-1.7-1c-1.29,1.03-1.5,2.62-2.24,4.02-.51-.48-.79-1.05-1.15-1.22-1.43-.67-3.04,1.28-4.14,2.67-.58-.57-.41-1.32-.9-1.91-1.31-.35-2.43.25-3.91.2,2.59-3.63,3.14-2.1,2.14-5.39-.22-.74-.54-1.29-1.24-1.34-1.75-.12-1.75,2.78-2.7,3.33-.58-1.09-1.56-1.64-2.62-1.02-.81.47-1.37,1.1-2.2,1.39.49-2.86,2.24-3.43.22-6.1,1.2-.25,2.17-.62,2.67-1.14.85-.87.29-2.01.32-3.04,1.12-.2,2.99.54,3.64-.53,1.96-3.23,1.99-.27,6.74-1.39-.91-.97-2.29-1.19-3.63-1.66-2.54-.88-5.15.17-6.23,2.71-.89-.42-1.44-.89-2.06-.7s-1.16.61-1.64,1.2c-1.45,1.76-.55-1.28-1.68-1.55-.41-.1-1.23-.22-1.6-.05-.08-.07-.1-.41.02-.43,2.23-.42,1.77-.06,3.16,1.4,1.1-.97,2.39-1.55,3.89-1.51.92.03,1.26-1.27,1.9-1.48,2.67-.85,5.2-.16,7.61,1.16Z"/>
    <path class="st2" d="M46.21,131.55l-.11-.34c.24-.28.81-.68.48-1.05.2-.37.32-.86.69-1.13,1.18-.86,3.51-1.32,4.79-.42,1,.72,1.23,2.24,2.42,2.8-1.45.7-2.07-.54-3.36-.65.17,2.06.25,4.06-1.23,5.7-1.49-1.75-1.07-3.57-1.19-5.58-.94.27-1.68.8-2.48.67Z"/>
    <path class="st6" d="M75.47,38.48l1.12-1.44c-.21,1.39-1.17,2.06-.35,2.99-.26-.29,3.16,1.98,3.36,1.47.32.52-.16.6-.43.6-.47,0-1.19-.47-1.54-.54-.08,1.29.42,2.69-.73,2.93.03-.94.39-1.84.19-3.07-1.33.95-1.96,2.3-2.52,3.79,1.04.15,1.65-.08,2.27-.35.24.73-.84.97-1.19,1.41-.78,1.76.29,3.8-.65,5.4.03.13,0,.37.07.49l-.29.03c-.07-.16-.07-.37-.15-.52-.33-1.59.81-5.34-.38-5.63-.64.03-1.21.33-1.77.62.01-.29-.13-.47-.34-.51s-.38-.07-.57-.08l.02-.32c.1-1.87-.73-1.68-2.3-3.38.7-.58,1.13-1.34.48-1.97s-1.47-.94-2.04-1.86c.68-.44,1.28-.59,1.67-1.04-.12,1.21.09,2.07.95,3.04.65.74-1.4,1.65,2.36,4.01.75-3.96-.63-7.41-1.06-11.36,2.01,3.12,1.18,8.23,2.17,11.92,3.06-5.68,1.22-4.16,1.66-6.65Z"/>
    <path class="st2" d="M109.59,78.26c.33-.09.6.54.69.76-.01.28.22.33.44.33.13,0,.26.01.38.02.06.25.34.55.3.82l-11.63,1.56c-.64.09-.2-1.32.08-1.65,1.27-1.53,1.98.42,3.9-1.93.58-.71,1.25.35,1.72.35,1.49.01,2.85.08,4.12-.26Z"/>
    <path class="st1" d="M71.59,45.75l-.02.32c.22,1.91-.36,3.86.7,5.64l.21-5.05c.56-.29,1.13-.6,1.77-.62.25,1.87-.52,3.91.38,5.63.08.16.07.36.15.52-.04.49-.54,1.17-.94,1.44-.34.23-1.27-.28-1.65-.75-1.29-1.58-1.11-4.01-1.35-6.09-.08-.67-1.19-.58-1.55-1.03-1.49-3.66.03-.95-4.51-3.79-.84-.53-2.31.39-2.9-.53.93,0,1.56-.67,1.98-1.7l1.44,2.12c.71,1.05,2.17.32,3.23-.52.65,1.34.29,2.46.7,3.62.36,1.03,1.58.96,2.37.78ZM73.5,46.79h-.38v5.82h.38v-5.82Z"/>
    <path class="st2" d="M111.04,80.94c-1.95,4.57-5.22,1.96-4.44,3.47.04.07.02.18.01.26-1.17.45-2.22-.55-3.43-.65-1.48-.13-3.06.2-3.81-1.58l11.67-1.49Z"/>
    <path class="st2" d="M93.33,77.55l-.37.3c-.15.12-.24.29-.37.44-.16.1-.27.33-.44.39-1.37.51-.38,2.37-.48,2.53-.51.87-1.76,1.59-2.83,1.49l1.06-4.33c.56-2.27,1.01-4.42,1.22-6.59.38-.83,1.08-.56,1.6-.21,1.76,1.16-1.36,1.98.59,5.97Z"/>
    <path class="st1" d="M70.13,52.51c-1.03-.09-2-.12-3.36-.07-.19.71.33,1.04.58,1.38.41.58,1.08.09,1.72.21s.68,1.27.79,1.77c-.3-1-1.21-1.13-2.19-1.39-.59-.16-2.07-1.21-2.26-.06-.18,1.04,1.48,1.46,2.09,2.43l-2.28-1.17c.21.97,1.17,1.54.44,2.05-.42-.11-.83-.47-1.57-.32l.43,4.5c-.58,0-.89-.88-.72-1.45.55-1.76-.73-2.4-1.63-3.38-2-2.18-3.57-4.42-6.01-3.8-.28.07-.84-.22-1.17,0-.05.03-.94,3.27-.32,4.11-.6-.17-1.21-.27-1.93-.8l1.84-1.43-1.35-3.48c1.09.1,1.7.68,2.53,1.02,1.13.46,1.8-.29,2.44-1.49l1.08,2.37c.43.94,1.69.48,2.61-.1.34,1.12.12,2.24.67,3.27.32.59,1.12.33,1.54,0,1.4-1.07-1.15-3.61-.87-4.32.95.03,1.27.65,2.1.84.47-.36,1.49-1.54,1.1-2.3-.58-1.13-2.23-.54-3.26-.68.25-1.15.4-2.23-.49-2.73.15-.15.33-.26.49-.21.22.07.41.32.52.62.98,2.87,1.24.44,3.4,3.47.84,1.18,3.34-.73,3.07,1.12Z"/>
    <path class="st2" d="M82.18,53.84c.11.1.52-.01.6.25.06.21-.23.41-.27.58-.39.24-.88.78-.38,1.13l.04.82c.03.6-.07,1.21-.02,1.81-.14.14-.04.64-.3.75-.44.18-.49.51-.5.94-.02.64.34.57.85.49.29-.04.72.12,1.11.63-1.23.59-2.24,1.4-3.04,2.44-1.91.66.65-8.71.34-10.1.52-.44,1.01.25,1.56.26Z"/>
    <path class="st6" d="M88.89,51.3c-.79,1.53-2.8.71-2.65,2.64.24,2.95-3.09.23-1.69,6.97,1.59-.99,1.69-2.86,3.25-3.51-.8,1.65-2.32,2.43-1.87,4.02-.13.8-2.34,1.79-1.79,2.74.59,1.01,2.38-1.18,2.95-2.48.55.13.32.98.74,1.12,2.56.88,3.8-2.9,4.26-1.53.08.23-.02.58.1.84-.61-.28-1.47.03-1.89.65-.81,1.17-2.44-.06-3.12.34-1.06.62-1.5,1.96-3.14,1.83-.69-.06-.32,2.74-1.94,2.5.33-.97,1.05-1.76,1.15-3.05-.53.4-.86.8-1.15,1.2-.51.03.15-.38-.01-1.05-4.5,2.22-4.02,6.14-6.89,7.95l-.79-8.21c-.23-2.44-.04-4.86-.17-7.35-.09-1.61.71-2.87,1.17-4.18.04-.12.41-.01.45.1-1.63,4.1-.98,4.95-.93,7.5l.15,7.44c.02,1.21.42,2.38.8,3.4,1.57-2.87,3.55-4.98,2.18-7.8.26-.03.69.11.93-.04-.09.05.86-8.58.97-8.46-.17-.2-.6-.37-.93-.18-1.24.71-.46,2.28-1.46,2.58.39-1.02-.19-2-.4-3.3,1.16-.11,2.16.04,2.77-.64.18.12.48.25.7.25.31,1.39-2.25,10.76-.34,10.1.02.48-.49.81-.2,1.67,3.03-3.12,4.22-3.21,3.42-8.12l-1.34,1.2c-.05-.6.04-1.21.02-1.81.16.17.37.32.54.27.12-.03.52-.21.53-.34.09-1.15,1.12-.69,1.58-1.01,1.34-.96.94-2.67,1.05-4.33,1.21.53,2.23.78,3.02.09Z"/>
    <path class="st6" d="M92.38,70.3c-.21-.35-.37-.71-.79-1.04-.1.95-.47,1.42-1.16,1.47.23-.74.57-1.41,1.13-2.34-.65-.59-1.55-.38-2.29-.16l-.05-.42c.34-.53,1.73.01,2.19-.5.58-.65,1.16-1.63,1.12-2.8-1.82.82-3.38,1.08-5.01,1.63s-3.07,1.53-4.62,1.93c.49-.9,1.41-.78,2.08-1.14,4.83-2.64,8.1-1.71,7.66-3.96l3.47.94c-4.26,2.78-3.28,1.03-3.74,6.39Z"/>
    <path class="st1" d="M76.09,141.64l-1.37-1.52c-1.11,2.04-1.29,4.44-.44,6.39l2.97,6.8c.37.85.47,1.56.42,2.34-.78-.85-.95-1.69-1.32-2.89-1.67-5.42-5.44-8.19-1.42-13.98.69.81,1.01,1.84,1.17,2.86Z"/>
    <path class="st1" d="M76.59,37.04l-1.12,1.44c.25-1.45-1.21-3.18-.96-5.93-2.48.08-3.11-1.83-4.03-.97-.35.32-.11,1.3-1.15,1.34.74-1.31.33-2.76.46-4.62l2.84,3.29c.62.71,1.54-.35,2.41-.61.19,1.79-.53,3.64.8,4.8.2.18.89-.15,1.13-.02.47.26-.39,1.41-.38,1.29Z"/>
    <path class="st6" d="M90.69,58.43c-.04-.9,1.25-.68,1.9-1.25-.91-1.91,2.14-2.19,1.25-5.94l-3.1-1.06c-.53.02-1.03.59-1.42.69.4-.79.63-1.74,1.44-2.39.32.44.23,1.46.81,1.65,1.8.58,3.42-.3,5.15-.48-1.48,2.35-3.17,2.99-1.5,5.27-.67.51-1.59.39-2.02,1.02-.33.48.2,1.14.15,1.65l-2.67.84Z"/>
    <path class="st6" d="M78.75,95.97l-1.09,1.96c-1.23,2.19-.76,10.38-.16,12.64l.02.42c-1.29,1.62-.98-3.93-1.02-4.15-.71-3.63-.63-7.21,1.42-10.34.21-.33.57-.48.84-.52Z"/>
    <path class="st1" d="M79.87,50.63c.12.04.3-.05.41,0,.34.21.73.15,1.22.16-.01,1.04.19,2.26.69,3.04-.55-.01-1.05-.7-1.56-.26-.22,0-.51-.13-.7-.25.03-.54.43-.91.33-1.67-1.66.3-3.25.31-4.4,1.18-.04-.11-.41-.22-.45-.1-.08-.2-.23-.37-.33-.56-.06-.12-.03-.36-.07-.49.53-.23.76-.73,1.26-1.3.48.53.11,1.03-.09,1.68,1.79-1.38,2.52-.12,3.69-1.42Z"/>
    <path class="st1" d="M92.38,70.3c.25.41.5.84.85.96.66.22,1.04-.3,1.68-.4-.75,1.53-1.91,2.71-1.92,4.48,0,.75.97.83,1.26,1.29.34.54-.52.88-.92.92-1.95-3.98,1.16-4.8-.59-5.97-.53-.35-1.23-.62-1.6.21l-.44.06c-.19-.15-.41-.27-.65-.27,0-.12-.07-.24-.07-.36,0-.22.24-.49.46-.5.69-.05,1.06-.51,1.16-1.47.41.33.57.7.79,1.04Z"/>
    <path class="st1" d="M106.59,84.42c-.77-1.51,2.49,1.1,4.44-3.47.1-.24.33-.5.37-.75.04-.27-.23-.57-.3-.82.98.09,2-.18,3.08.3-2.75,2.22-3.96,1.52-3.53,5.13-1.45-.72-2.77-.86-4.06-.38Z"/>
    <path class="st6" d="M82.42,93.94c3.45,4.41.85,4.26,2.71,4.64-1.57,3.64-.51-2.14-2.39-3.52-1.11-.82-2.7,0-3.6.55.24-1.46,1.91-1.63,3.28-1.66Z"/>
    <path class="st6" d="M96.53,97.33c-.43-.16-.19-.71-.26-1.23-1.14-.09-2.52.12-3.26-.86-.43-.57-.01-1.56-.47-2.1-4.85,1.61-4.12-2.03-5.75-1.25-1.29.62-2.35,1.39-3.96,1.54.75.67,1.7.47,2.32,1.37-1.1-.19-1.77-.9-2.72-.87-.22-.28-.83-.58-1-.94.22-.75,1.08-.95,1.51-1.16-.07.28-.46.5-.21.87,2.16-.06,3.64-.93,5.42-1.97.19.69.12,1.25.36,1.62.93,1.47,4.15,0,5.05-.29.09.93-.67,1.52-.48,2.27.47,1.81,2.66,1.36,4.05.84.11.95-.44,1.52-.6,2.15Z"/>
    <path class="st1" d="M93.02,101.89c1.07.49,1.76-.41,2.56-1.19.37-.36,1.35-.1,1.46-.46.5-1.52-.95-1.77-.48-2.45,1.26,1.3,2.77,2.24,4.52,3.11-1.92.45-3.73.07-5.64.41-.87.15-.5,1.66-1.09,2.03-.59.35-1.33-.91-1.34-1.44Z"/>
    <path class="st1" d="M49.48,70.06c-1.95,1.71-.82-4.2-4.07-3.34-.16.04-.34,0-.5.03-.13-.09-.25-.21-.34-.29-.21-.19-.34-.01-.35.11-.2,2.87-1.02.92-1.22,3.92-.26-.49-1.34-.72-.99-1.61,2.45-.61.98-4,1.65-5.84.9,1.11,1.3,2.23,2.36,3.04.7.53,1.36.12,2.13-.52.5.91-.39,4.69,1.34,4.51Z"/>
    <path class="st6" d="M75.02,163.53c.14.09.39.37.74.33l1.46-3.35c.66-1.52.32-3.23.45-4.86,2.36,2.55-1.42,7.25-1.89,10.27-1.12-.56-.91-1.59-.75-2.39Z"/>
    <path class="st1" d="M39.36,81.32c-.15.15-.67.34-.7.57-.05.31.53.47.7.52v.78c0,.86.07,2.1,1.07,2.27-.12.02-.1.36-.02.43-.33.16-.84,1.12-1.32.56-.28-.62.23-1.67-.44-2.15l-2.82-1.96c1.33-.31,2.37-.89,3.53-1.03Z"/>
    <path class="st1" d="M77.22,160.51l-1.46,3.35c-.35.04-.6-.24-.74-.33.05-.24-.06-.53-.03-.78.4.09.88.02.76-.54-.04-.2-.17-.46-.39-.64.79-2.41.46-4.77-.33-7.15h.36c1.87,2.28.42,5.67,1.82,6.09Z"/>
    <path class="st6" d="M94.95,91.43c.18,0,.33-.22.46-.14,1.51.88,0,2.34,3.46,2.11,1.08.55,1.41,1.58,2.45,2.49.79-1.05,2.31-.94,3.2-1.24.41-1.06-.25-2.53.56-3.65-.47-.26-.81-.53-1.18-.66v-.38c.76.33,1.5.55,2.47,1.06-.98.74-1.54,1.55-1.16,2.48l1.37,3.29c-1.42.06-3.12-2.14-4.48-1.06-.28.23-.4.79-.91,1.28-.77-1.31-1.28-2.99-2.9-3.17-.64-.07-.98,1.03-1.67.83-.64-1.15-.88-2.38-1.65-3.23Z"/>
    <path class="st6" d="M42.01,68.87c-.36.89.73,1.12.99,1.61.66,1.26,1.16,2.71.06,3.98,6.82,4-.66,3.2,6.43,4.98.07.2-.01.49.09.68-.49-.11-.88-.53-1.6-.37-.01.62.28.85.34,1.19-1.29-.25-2.97-1.09-4.22-1.22-.86-.09-2.09,1.85-3.36.18-.68.53-1.01,1.04-1.39,1.42.03-.94,0-1.92-.09-2.81,1.15.56,2.14,1.68,3.44,1.34.63-.16.39-1.46.67-1.86,1.21.77,2.01,2.25,3.38,2.06.59-1.1-1.5-1-1.77-1.93-.07-.25.74-.69.64-.94-.51-1.28-2.05-1.68-3.39-2.29.32-.85,1.16-1.32,1.04-2.2-.22-1.5-1.15-2.58-2.05-3.6.31-.29.59-.16.78-.21Z"/>
    <path class="st1" d="M103.9,89.95v.38c-1.07-.38-1.91-1.01-2.23-2.3-.39-1.58-3.16.22-4.56-2.6-.87-.26-1.55.55-2.18.11l2.9-.73c.15.43-.09,1.32.34,1.52,1.51.69,3.11.08,4.67.16-.16.81-.81,1.52-.43,2.18.3.51.9,1.04,1.49,1.3Z"/>
    <path class="st1" d="M60.37,118.09h-.38c-.38-.99-1.4-1.36-2.67-1.34-1.98.03-3.78,1.48-4.21,3.55-.16.02-.33.47-.46.39-.23-.15-.21-.6-.21-.72l.08-.35c1.03-1.1,1.66-2.45,3.19-3.12,1.91-.85,3.85-.22,4.65,1.6Z"/>
    <path class="st1" d="M79.46,151.07l.03.46c-.59-.91-.91-1.98-.47-3.29,1.28-3.76-1.96-5.01-2.54-6.12,5.27,3.08,2.74,4.98,2.98,8.94Z"/>
    <path class="st1" d="M105.36,68.59c.04-.12.02-.28.04-.41.19-1.18-.9-1.92-1.38-3.08-.19-.46.09-1.19-.39-1.45-1.44-.77-1.57,2.51-4.04,1.01-.52,5.78-.4,2.22-2.54,5.75-.26-.14-.26.1-.27.28l-1.09-2.5c.81.45,1.55.52,2.26.3,1.66-.51.72-3.71,1.28-4.64,1.48.9,2.77.62,3.53-.63.51-.84.8-1.83,1.66-2.63l.2,4.97c.04.95,1.44.87,2.32.94-.25.9-.86,1.62-1.56,2.08Z"/>
    <path class="st1" d="M85.47,41.17c.25-1.93-1.75.02-3.69-1.78-.65.51-.59,1.11-1.12,1.07.33-.72.53-1.48,1.02-2.2.4.65.42,1.17.75,1.38,1.5.94,3.23-1.17,5.13-1.37-.55,1.12-1.04,2.39-2.09,2.9Z"/>
    <path class="st6" d="M69.33,32.92c-.3.47-.95.61-1.12,1.31,1.11.54,1.43,1.44,1.19,2.36l-2.12-2.91,2.05-.76Z"/>
    <path class="st6" d="M84.01,45.74c-.58.27-1.03.69-.83,1.26l.66,1.92c-1.59.01-2.95.4-3.56,1.72-.1-.06-.29.03-.41,0,.21-1.46,1.71-1.71,2.88-2.46.35-.22-.19-1.37.01-1.68.26-.41.69-.8,1.25-.75Z"/>
    <path class="st1" d="M61.53,41.49c-.27.07-.67,0-.88.16-.31.22-.45.94-.09,1.29,2.12,2.01-.88,2.47.93,4.02-.56-.09-1.16-.1-1.72-.53.57-.6,1.03-1.14,1.07-1.71.13-1.86-1.88-2.65-2.42-4.3,1.28.17,2.47.37,3.1,1.07Z"/>
    <path class="st6" d="M91.55,85.71c1.01.36,2.04-.07,3.07-.14-.04.72-1.09.63-1.92.89,0,.76.88.58,1.08,1.19-1.53-.12-2.22-1.17-3.42-1.67.54-.44.87-.23,1.18-.26Z"/>
    <path class="st6" d="M91.49,101.28c-.42-.29-1.27-.4-1.92-.2-.42.13-.55.76-1.23,1.17-.65-1.29-1.11-2.51-2.08-3.29.62-.09,1.13.13,1.34.98.11.48.37,1,.73,1.07.57.1,1.65-.61,2.94-.45.22.03.25.4.23.72Z"/>
    <path class="st6" d="M90.08,59.21c.08.44.6,1.51-.15,1.69-1.16.29-2.3.16-3.29.53-.09-.35.02-.67.24-.71.82-.17,2.09.08,2.55-.06.28-.08.23-.67.2-1.12-.05-.6.17-.93.45-.34Z"/>
    <path class="st6" d="M91.89,88.52c-1.99-2.4-6.79,1.64-8.56,2.87,0-.72.95-1.14,1.56-1.62,1.92-1.51,4.33-3.13,6.64-2.31.37.13.17.82.36,1.05Z"/>
    <path class="st6" d="M84.38,45.72c-.13-1.38,1.59-.58,1.52-1.99.26.01.69.05.72.27.02.16.11.74-.07.83-.8.39-1.55.49-2.17.9Z"/>
    <path class="st2" d="M56.97,144.46c.08-.07.26-.03.35-.08l.64-.38c.25-.15.59.2.55.5-.02.17-.09.33-.3.62-.42.58-1.19.68-1.21.17l-.03-.82Z"/>
    <path class="st6" d="M46.1,131.21c-.36-.16-.16-.44-.05-.6.16-.23.44-.29.53-.45.33.38-.24.77-.48,1.05Z"/>
    <path class="st6" d="M75,162.75c.05-.39-.07-1.01.37-1.18.22.18.35.44.39.64.12.56-.36.63-.76.54Z"/>
    <path class="st6" d="M85.61,43.39c-.44-.09-.56-.48-.51-.9.04-.33-.05-.9.41-.95,0,.62.05,1.23.1,1.85Z"/>
    <path class="st8" d="M99.04,120.34l-.02.38c-.02.18.17.43-.2.77-.36-.94-.88-1.77-1.35-2.64l.53-.04c.19.6.44,1.28,1.04,1.54Z"/>
    <path class="st6" d="M96.77,71.94c.02-.41-.02-.83,0-1.24,0-.18.01-.42.27-.28.06.5.33,1.32-.27,1.52Z"/>
    <circle class="st6" cx="44.98" cy="131.79" r=".24"/>
    <path class="st6" d="M82.13,55.8c-.5-.34-.02-.89.38-1.13-.08.39-.17.78-.38,1.13Z"/>
    <path class="st1" d="M110.72,79.35c-.22,0-.46-.04-.44-.33.16.09.31.2.44.33Z"/>
    <path class="st6" d="M55.17,57.68c-.16-.12-.39-.2-.52-.36.2.06.35.25.52.36Z"/>
    <path class="st6" d="M92.6,78.29c.12-.14.22-.32.37-.44-.1.16-.21.33-.37.44Z"/>
    <path class="st1" d="M62.25,47.2c-.11-.03-.27.05-.38,0,0-.47.3-.45.38,0Z"/>
    <path class="st0" d="M90.44,70.72c-.23.01-.47.28-.46.5-.68.18-1.45-.14-2.19.14.21,1.6.64,3.2-.35,4.25-.58.62-1.35.02-2.31.78,2.27,1.09.46,2.72.74,3.59.65,2.02,1.8,4.32.31,6.26-.19.25-.63.25-.69.67l-4.43,2.68c.21-1.32,1-2.03,1.49-3,.07-.14.27-.22.33-.37,2.38-1.25.41-1.07,1.81-3.43-1.07-1.06-.98-2.71.12-4.16-.73-.23-1.48-.25-1.56-1.01-.22-1.88.72-3.16,1.13-5-1.19,1.01-2.55,2.04-2.56,3.49l-.35.03c-.87.08-1.73.21-2.63-.41l-.13,4.57c-.72.23-1.39.03-1.88.49,1.42,1.48,1.78,3.31.31,4.53.47.66.83.97,1.22,1.3,1.69,1.42.95,3.43,0,5.24-.85.14-1.07,1.21-2.36,1.24l.13-15.13c.02-2.36,1.04-4.19,2.19-6.14,1.53-2.6,4.94-3.07,7.49-1.32.29-.72.51-1.33.99-1.44.63-.14,1.11.28,1.68.77.38-.56.28-1.26.82-1.62.74-.23,1.63-.43,2.29.16-.55.92-.9,1.6-1.13,2.34Z"/>
    <path class="st0" d="M56.03,94.66c-.21.11-.35.36-.54.5-.9.11-1.75.45-2.88.13l.59-2.61c.38-.19.67-.52.86-.89,2.67.95.9-2.7,3.31-3.96,3.05-1.6,6.27,1.26,8.73,3.48-2.27.38-4.05-.43-6.23-1.01-.12.58.12,1.25-.1,1.56-.93,1.37-3.11-.27-4.23.58.32.9.6,1.55.48,2.21Z"/>
    <path class="st6" d="M69.75,83.94c-.04-.27.1-.63-.04-.91-.1-.19-.61-.26-.86-.42-1.33-.82-.17-2.32.17-3.25-1.16-.95-2.31-1.86-1.91-3.77.14-.69-1.97-.87-1.87-.36.87,4.52,1.94,8.8,3.08,13.31.79-1.56-.1-3.23,1.42-4.61-.94,3.82-1.08,2.4.33,6.37-3.06-1.36-6.08-3.01-8.63-5.19.13,0,.25-.11.38-.12l5.54,3.55-.26-1.73c-.6-3.96-3.1-11.26-2.26-12.62,1.04.34,2.02.24,3.1-.51.17,1.08-.15,1.82-.15,2.74,0,1.39.71,2.27,2.07,2.46-.5,1.18-1.35,2.34-.61,3.27.32.4,1.32.08,1.29.82-.02.49-.47.72-.81.96Z"/>
    <path class="st4" d="M70.56,141.37c-1.55.41-3,1.36-4.07,2.66s-.99,2.46-.17,4.27c-1.49-.01-1.48-1.14-2.22-1.65-1.01,1.13-.87,2.83-2.54,3.67,3.28-9.87,3.88-6.99,7.86-10.83-.15,1.19,1.01.94,1.14,1.88Z"/>
    <path class="st1" d="M89.28,68.23c-.53.36-.44,1.06-.82,1.62-.57-.49-1.05-.92-1.68-.77-.48.11-.7.71-.99,1.44-2.55-1.75-5.96-1.28-7.49,1.32-1.15,1.94-2.17,3.77-2.19,6.14l-.13,15.13c1.29-.03,1.51-1.1,2.36-1.24,1.15-1.1-1.91,2.3-2.29,1.66-.08-.14-.58-.48-.58-.72l-.09-12.6c-.03-3.98,1.37-7.69,3.99-10.51.25-.27-.32-1.15.28-1.22.31-.04.6-.3.93-.27.42.04.85.05,1.27-.02,3.12,1.77,3.09,1.54,4.67.76.94-.46,2.13-.21,2.72-1.13l.05.42Z"/>
    <path class="st0" d="M70.13,52.51c.1.1.22.25.38.28.89.82,1.12,2,1.75,3l.05.38c.11.87.08,1.75.08,2.63v.75h-.38c-.14-1.13-.35-2.26-.69-3.54-.45-.14-.74.24-1.11.26-.11-.13-.31-.31-.36-.47-.11-.5-.12-1.64-.79-1.77s-1.31.37-1.72-.21c-.24-.35-.76-.68-.58-1.38,1.36-.05,2.34-.02,3.36.07Z"/>
    <path class="st6" d="M82.55,86.6c-.49.97-1.28,1.68-1.49,3l4.43-2.68c-.14.95-3.65,2.57-4.74,3.64-.46-.32-.48-.65-.77-1.04-.32,1.25-1.01,1.75-1.64,2.35.96-1.81,1.7-3.82,0-5.24.05-.21.16-.41.36-.49l1.13,1.26c1.05-.97.67-2.45.83-3.82l.53-4.54c.87,3.22-.78,6.82.11,8.19.45-.34.84-.51,1.24-.63Z"/>
    <path class="st6" d="M71.74,91.86c.85.1.64-6.54.64-7.55,1.65-1.09.29,6.87.17,7.74-.05.34-.43.44-.64.32-.19-.11-.13-.28-.18-.52Z"/>
    <path class="st0" d="M82.1,67.43l-.25.75c-.42.07-.85.06-1.27.02.39-.92.93-1.8,1.52-2.62.29-.4.62-.79,1.15-1.2-.09,1.28-.82,2.08-1.15,3.05Z"/>
    <path class="st1" d="M72.25,55.8c-.63-1-.86-2.18-1.75-3,1.34.26,2.28,1.7,1.75,3Z"/>
    <path class="st1" d="M72.38,58.8c0-.88.03-1.76-.08-2.63.69.63.78,1.99.08,2.63Z"/>
    <path class="st6" d="M59.65,95.62c1.42-1.51,2.07-1.52,4.24-2.53-1.14,1.31-2.68,1.75-4.24,2.53Z"/>
    <path class="st6" d="M95.59,88.62c.21-.49,5.46,2.68,6,3.51l-6-3.51Z"/>
    <path class="st6" d="M95.03,88.32c.05-.16-.93-.25-.87-.44.08-.28.44-.27.54-.19s.46.26.34.63Z"/>
    <path class="st6" d="M71.25,91.45c-.23.35-.48.19-.57,0-.13-.26-.13-.6-.2-.77.27.24.52.49.77.76Z"/>
    <circle class="st1" cx="77.07" cy="156.18" r=".19"/>
    <path class="st6" d="M89.57,96.98c-1.26-.17-2.04-.58-2.59-1.41,1.19.12,1.72,1.04,2.59,1.41Z"/>
    <path class="st6" d="M90.24,97.21c-.05.14.93.25.88.43-.09.29-.43.26-.54.19s-.46-.29-.34-.62Z"/>
    <rect class="st6" x="92.43" y="97.28" width=".5" height="2.27" transform="translate(-36.79 137.29) rotate(-63.43)"/>
    <circle class="st6" cx="86.45" cy="95.39" r=".19"/>
    <circle class="st6" cx="85.7" cy="95.01" r=".19"/>
    <path class="st6" d="M99.86,73.83c.37-1.88,1.03-3.55,2.02-5.36.08,1.91-.99,3.55-2.02,5.36Z"/>
    <circle class="st6" cx="102.21" cy="67.81" r=".24"/>
    <circle class="st6" cx="102.58" cy="66.31" r=".24"/>
    <path class="st0" d="M76.9,44.5c0,.11-.1.25-.06.36-.61.27-1.23.5-2.27.35.56-1.48,1.2-2.84,2.52-3.79.2,1.23-.16,2.13-.19,3.07Z"/>
    <path class="st6" d="M82.51,42.48c.15.29-1.32,1.62-.92,1.3-.1.08-.5.03-.54-.16.1.45.89-2.24,1.46-1.14Z"/>
    <path class="st6" d="M78.81,46.7c.3-1.37,1.37-1.83,2.15-2.51l-2.15,2.51Z"/>
    <path class="st2" d="M99.02,120.72l.02-.38c-3.37-10.12.23-11.03.58-13.29.1-.62,2-.98,2.31-.44.75,1.31,1.74,2.69,2.17,4.16,1.06,3.61-.36,6.91-1.48,10.59-.5,1.64-.36,3.24-1.3,4.97-1.22-.9-.93-5.95-2.3-5.6Z"/>
    <path class="st2" d="M98.22,129.3c1.14-.91,5.45-1.81,6.26.98.08.26.65.48.55.75-.05.12-.08.59-.37.48l-2.13-.79c.09,1.95.24,3.89-1.2,5.33-2.93-1.73-.04-6.05-3.3-4.52-.35-.65.07-1.62.19-2.23Z"/>
    <path class="st2" d="M105.34,127.74c-.36.22-10.37,1.09-8.79-.86.12-.11,11.56-.86,9.53.4l-.74.46Z"/>
    <path class="st8" d="M104.27,119.97c-.25.76-.83,1.41-.88,2.31-.85-1.07.28-1.7.4-2.35l.48.04Z"/>
    <path class="st8" d="M102.54,125.95c-.22-.68-.39-1.16-.02-1.9.43.51.57,1.19.02,1.9Z"/>
    <path class="st8" d="M103.18,122.85c.05.97-.4,1.08-.46.2.05-.43.25-.6.46-.2Z"/>
    <path class="st8" d="M99.43,122.1c.05.97-.4,1.08-.46.2.05-.43.25-.6.46-.2Z"/>
    <path class="st2" d="M52.19,117.03c-1.27,1.87-.94,5.92-2.53,9.24-.88-3.4-1.33-6.49-2.65-9.6-.6-1.4.25-2.84.1-4.17-.14-1.25-.07-2.55,1.01-3.18.19-.43-.4-1.36.26-1.73.73-.41,1.51-.67,2.15-1.16.72.94.54,2.01,1.14,2.71,1.08,1.26,1.62,6.3.53,7.9Z"/>
    <path class="st2" d="M59.99,118.09c.7,1.84.81,3.69-.91,5.1-.53.44-.95,1.32-1.74.96.06-.91.11-2.26-.87-2.46-3.58-.72-3.61,4.57-4.54,4.2-1.04-.41.92-4.47-.06-4.03.21-.08.19-.19.02-.31.14,0,.23-.03.28-.03.56-.01.93-.04,1.05-.29.16-.32-.15-.68-.1-.94.42-2.07,2.23-3.52,4.21-3.55,1.27-.02,2.29.34,2.67,1.34Z"/>
    <path class="st2" d="M54.1,126.71c3.77,1.42-8.36,1.13-7.97,1.11-.47.02-.73-.36-.79-.59-.33-1.24,4.62-.41,7.9-.72.31-.03.69.14.85.2Z"/>
    <path class="st4" d="M53.12,120.3c-.05.26.26.62.1.94-.13.26-.49.28-1.05.29-.08-.29-.24-.59-.3-1.01-.03-.23.29-.43.58-.55,0,.12-.03.57.21.72.13.08.29-.36.46-.39Z"/>
    <path class="st4" d="M51.09,124.76c-.17-.6-.22-1.1.04-1.82.35.46.55,1.11-.04,1.82Z"/>
    <path class="st4" d="M51.87,121.88c-.15.82-.54.87-.55-.01.05-.41.31-.47.57-.3.17.12.19.23-.02.31Z"/>
    <circle class="st4" cx="50.8" cy="125.6" r=".24"/>
    <rect class="st6" x="47.77" y="74.91" width=".77" height="2.25" transform="translate(-32.26 35.61) rotate(-30.96)"/>
    <path class="st6" d="M44.91,66.75c.16-.03.34.01.5-.03-.13.84.56,1.53.21,2.65-.58-.83-.76-1.72-.72-2.62Z"/>
    <path class="st6" d="M46.35,71.58c-.32-.55-.92-1.11-.45-1.91.2.49.52.87.45,1.91Z"/>
    <circle class="st6" cx="46.67" cy="72.31" r=".24"/>
    <circle class="st6" cx="47.42" cy="74.19" r=".24"/>
    <circle class="st6" cx="48.92" cy="77.75" r=".19"/>
    <path class="st0" d="M61.9,62.9c.33.05.73-.15,1.05-.05.9.26,5.27,2.27,3.68,3.12-.23.12-.87.17-1.03-.04-.46-.59-.84-1.22-1.53-1.93-.28.42-.41,1.3-1.01,1.23-1.08-.13-1.87-.78-2.91-1.63.54-.69,1.2-.52,1.74-.7Z"/>
    <path class="st6" d="M61.38,60.6c-1.21-.88-2.16-1.95-2.79-3.27,1.26.94,1.81,2.08,2.79,3.27Z"/>
    <path class="st0" d="M99.84,78.27c-.19,1.84-1.67,3.09-3.5,3.14.33-1.83,1.85-2.65,3.5-3.14Z"/>
    <path class="st2" d="M96,140.62h0Z"/>
    <path class="st2" d="M48.32,80.94c.73.14,1.54.92,1.96,1.45l-.4.4h-8.63c-.72.01-1.32-.4-1.89-.37-.17-.06-.75-.21-.7-.52.04-.24.55-.42.7-.57.38-.39.71-.9,1.39-1.42,1.27,1.67,2.5-.28,3.36-.18,1.24.14,2.93.98,4.22,1.22Z"/>
    <path class="st2" d="M49.14,83.33c.05.19,0,.5.23.56-.64.2-.99,1.5-1.9,1.48-1.5-.04-2.79.54-3.89,1.51-1.39-1.46-.93-1.82-3.16-1.4-1-.17-1.07-1.41-1.07-2.27,3.26.08,6.54-.16,9.79.14Z"/>
    <path class="st0" d="M49.58,80.12c.29.55.77,1.04,1.38,1.22.24.5.66.87,1.16,1.11.08.82-.96-.07-1.83-.06-.42-.53-1.23-1.31-1.96-1.45-.06-.34-.35-.57-.34-1.19.71-.16,1.11.26,1.6.37Z"/>
    <path class="st6" d="M49.88,82.78c-.19.19-.4.58-.73.55-3.25-.3-6.53-.06-9.79-.14v-.78c.57-.03,1.17.38,1.89.38h8.63Z"/>
    <path class="st6" d="M52.11,82.44c-.5-.24-.92-.61-1.16-1.11.26.08.62-.11.93.02.41.18.19.71.23,1.09Z"/>
    <path class="st6" d="M58.58,80.54l-.4.07c-.03-.17-.14-.37-.06-.59.1-.25.22-.24.39-.01.14.19,0,.4.07.53Z"/>
    <path class="st2" d="M55.53,68.1c.12.99,1.19.84,1.77,1.65.47.66.01,2.01.95,2.21l.02.71c-.7.89.88,1.12,1.06,1.78l1.02,3.91c.27,1.02-1.28,2.14-.68,3.38-1.11.03-.82-.74-1.09-1.2-.08-.14.07-.34-.07-.53-.17-.23-.29-.24-.39.01-.08.22.03.42.06.59.03.22-.11.49.21.98-5.91-3.04-1.7-4.32-4.44-5.11l-.34-.46c.1-3.67.95-2.29-.74-6.46.37-.83.85-1.51,1.39-2.2.61.26.93.52,1.28.75ZM55.7,72.68c.33-1.33-.17-1.92-.42-2.66-.46,1.11,0,1.92.42,2.66ZM57.99,79.37c-.48-2.47-1.04-4.47-2.04-6.23.17,2.55,1.14,4.47,2.04,6.23Z"/>
    <path class="st0" d="M53.6,76.01l.34.46c.51.85.6,1.91.04,3.03,2.07,1.35,4.41,2.15,5.34,4.83-2.81-1.08-7.19-2.25-7.94-5.21-.38-1.5.06-2.89.8-4.06.64.25,1.12.54,1.42.94Z"/>
    <path class="st4" d="M65.94,149.6c-.32-.86.08-1.16.57-1.27.67.68,1.18,1.7.84,2.82-.32-.74-.63-1.38-1.41-1.55Z"/>
    <path class="st0" d="M65.65,57.65c0,.19.18.26.28.38.05.51-.48,1.16-.21,1.83.41.13,1.09-.16,1.6-.13.56.03.63.83,1.11,1.23.55.45,1.46-.28,1.98,0,.43.23,1.39.62,1.72,1.12.5,1.95.63,3.86.41,5.96-2.19-2.36-5.74-5.46-8.03-6.2l-.43-4.5c.74-.15,1.15.21,1.57.32Z"/>
    <path class="st2" d="M64.46,70.76c-.53.01-.79-.04-1.05-.06-.62-.06-1.14-.05-1.61-.25-.18-.13-.31-.24-.33-.32-.25-.72-1.27-.36-1.9-.5-.73-.16-1.6-2.01-1.2-2.62.6-.71,1.77.09,2.51.25,2.78.61,5.32,1.01,8.11,2.25-3.71,1.9-3.92-.06-4.54,1.24Z"/>
    <path class="st2" d="M65.6,65.93c.65.76,1.52.8,2.29.79.19.68,1.11.78,1.23,1.52-.12.36-.22.52-.33.56-.15.06-.34,0-.57-.08-2.82-1.03-5.49-1.65-8.54-2.19-.49-.09.09-1.23.47-1.52.43-.33,1.25-.17,1.72.22.81.67,1.63.04,2.35.27l1.39.44Z"/>
    <path class="st9" d="M69.12,68.24c-.12-.75-1.04-.84-1.23-1.52-.63-1.81,2.98,1.91,2.26,1.76-.32.3-.86-.06-1.03-.24Z"/>
    <rect class="st2" x="84.45" y="156.12" width="1.66" height=".71" transform="translate(-90.13 187.9) rotate(-71.57)"/>
    <path class="st4" d="M60.65,154.45c-.6-.5-.14-1.05-.43-1.52s-1.03-.02-1.69-.68c.92-.66,1.69-.76,2.63-.97l-.51,3.16Z"/>
    <path class="st4" d="M58.11,152.46c-.72.19-1.29.57-2.27.51.32-.85,1.03-.98,2.27-.51Z"/>
    <path class="st0" d="M72.49,46.67l-.21,5.05c-1.06-1.77-.48-3.73-.7-5.64.19,0,.36.04.57.08s.35.22.34.51Z"/>
    <path class="st0" d="M74.63,51.67c-.89-1.72-.12-3.76-.38-5.63,1.19.29.05,4.04.38,5.63Z"/>
    <rect class="st12" x="73.13" y="46.79" width=".38" height="5.82"/>
    <path class="st2" d="M90.7,71.86c-.55,4.07-1.54,8.09-3,11.96l-1.15-3.65c-.27-.84.49-2.35,0-3.35,1.16-1.01,2.39-2.23,2.05-3.92.55-.43,1.4-.72,1.45-1.31.24,0,.47.11.65.27Z"/>
    <circle class="st2" cx="87.57" cy="84.51" r=".19"/>
    <path class="st2" d="M69.84,55.8c.05.16.25.34.36.47.84.97,1.48,2.16.83,3.3-.06.11.72.53.73.35,0-.13.18-.17.24-.36h.38c-.38.49.03,1.08.02,1.9-.91.04-1.34-.7-2.01-.79-1.81-.25-3.32-1.21-4.46-2.63-.09-.12-.27-.19-.28-.38.72-.51-.24-1.08-.44-2.05l2.28,1.17c-.61-.96-2.27-1.39-2.09-2.43.2-1.15,1.67-.1,2.26.06.98.27,1.89.39,2.19,1.39ZM68.25,57.11c0-.1-.08-.19-.19-.19s-.19.08-.19.19.08.19.19.19.19-.08.19-.19Z"/>
    <path class="st2" d="M54.06,91.79c-.19.37-.48.7-.86.89-.51.25-.68,1.03-1.13,1.07-1.5.13-2.25,1.03-3.24,1.98-.9.72-2.44.09-3.36.49.35-1.46-.84-3.5.25-4.27s1.99-1.07,1.92-2.78c-.04-1.1,2.87.21,3.95-2.27,1.49-.48,3.2-.02,5.03-.32-.54,1.04-1.58.96-2.3,1.71.66.48.99-.28,1.7-.33-.51,1.37-1.11,3.15-1.95,3.83ZM46.56,94.7l4.46-3.92c-2,.75-3.1,2.52-4.46,3.92Z"/>
    <path class="st0" d="M80.27,63.68c.8-1.03,1.81-1.84,3.04-2.44-.39-.51-.81-.67-1.11-.63-.17-.46-.3-.94-.35-1.44.26-.11.16-.61.3-.75l1.34-1.2c.8,4.91-.39,5-3.42,8.12-.29-.86.22-1.19.2-1.67Z"/>
    <path class="st6" d="M82.2,60.61c-.51.07-.87.14-.85-.49.01-.43.06-.76.5-.94.05.49.18.97.35,1.44Z"/>
    <path class="st2" d="M55.81,145.66c.32-.34.65-.24.79,0,.16.27.03.6-.53.59-.25,0-.84,0-.26-.6Z"/>
    <path class="st0" d="M79.92,53.33c-.61.69-1.61.53-2.77.64.21,1.3.79,2.28.4,3.3-.34.1-.52.43-.69.68-.11.16-.66-.02-.7.31-.04.31.12.6.35.89,1.55,1.97-1.04,2.62.73,3.35.04.43.67.58.81.87,1.37,2.82-.61,4.93-2.18,7.8-.38-1.03-.77-2.2-.8-3.4l-.15-7.44c-.05-2.55-.7-3.4.93-7.5,1.15-.86,2.74-.88,4.4-1.18.1.77-.3,1.14-.33,1.67Z"/>
    <path class="st2" d="M82.88,86.23c-.06.15-.26.23-.33.37-.4.13-.79.29-1.24.63-.89-1.36.76-4.97-.11-8.19l-.53,4.54c-.16,1.36.22,2.84-.83,3.82l-1.13-1.26-.23-4.86c-.05-.97,1.47-1.61.94-3.02-.64-1.7,2.82-1.62,2.04-2.11l.35-.03c1.16.68.09,1.15,1.87,3.67-1.22,5.42.72,2.65-.81,6.44Z"/>
    <path class="st6" d="M82.88,86.23c1.52-3.8-.41-1.03.81-6.44-1.78-2.52-.72-2.99-1.87-3.67,0-1.45,1.37-2.49,2.56-3.49-.41,1.84-1.34,3.12-1.13,5,.09.77.83.78,1.56,1.01-1.1,1.45-1.19,3.1-.12,4.16-1.4,2.36.57,2.18-1.81,3.43Z"/>
    <path class="st1" d="M81.46,76.15c.78.49-2.68.41-2.04,2.11.53,1.41-.98,2.05-.94,3.02l.23,4.86c-.21.08-.32.28-.36.49-.39-.33-.74-.64-1.22-1.3,1.47-1.22,1.11-3.04-.31-4.53.49-.45,1.16-.25,1.88-.49l.13-4.57c.9.62,1.76.49,2.63.41Z"/>
    <path class="st2" d="M64.86,74.21c-.84,1.36,1.66,8.66,2.26,12.62l-.33-.02-2.68-1.85c.43-.7.81-1.32.37-1.97-.32-.47-.68-.97-1.18-1.27.03-1.42.33-2.89-.08-4.4-.12-.27-.78-.07-1.01-.1-.17-.02-.42-.18-.37-.36.18-.26.49-.51.89-.62.72-.19.48-.64.51-1.02.07-.91,0-1.84.4-2.93.41.17,1.54,1.38,1.2,1.93Z"/>
    <path class="st1" d="M63.31,81.71c-.23-.14-.47-.26-.74-.3-2.08-.34,1.92-.87.4-2.98-.33-.46-.59-.84-.75-1.22.23.03.89-.17,1.01.1.4,1.51.1,2.98.08,4.4Z"/>
    <path class="st6" d="M63.31,81.71c.5.3.86.8,1.18,1.27.44.65.06,1.27-.37,1.97l2.68,1.85c-1.16-.08-2.51-.98-3.47-1.68.16-.56.82-1.03.84-1.38.06-1.26-1.38-1.1-1.59-2.34.27.04.51.16.74.3Z"/>
    <path class="st6" d="M63.41,70.7c-.15.23-.32.48-.4.69-.15.37-.61.27-.89.09-.24-.16-.2-.74-.32-1.02.47.2.99.18,1.61.25Z"/>
    <path class="st1" d="M63.26,75.2c-.03.38.21.83-.51,1.02-.41.11-.72.35-.89.62-.37-.81.94-1.22,1.41-1.64Z"/>
    <path class="st2" d="M69.75,83.94c-1.52,1.38-.64,3.05-1.42,4.61-1.14-4.51-2.21-8.79-3.08-13.31-.1-.51,2.02-.33,1.87.36-.4,1.91.75,2.81,1.91,3.77-.35.93-1.51,2.43-.17,3.25.25.15.76.22.86.42.14.28,0,.64.04.91Z"/>
    <path class="st0" d="M61.47,70.14c.03.08.15.19.33.32.11.28.08.86.32,1.02.28.19.74.28.89-.09.08-.2.26-.45.4-.69.26.03.52.08,1.05.06.7-.11,1.09.52,1.39,1.19,1.39-1.33,3.23-2.23,5.06-1.5.87.35,1.43,1.68,1.43,2.61l.04,8.25v3c0,1,.21,7.65-.64,7.55-.04-.19-.34-.31-.48-.42-.24-.27-.49-.53-.77-.76-.06-.14-.27-.31-.4-.37-1.41-3.97-1.27-2.55-.33-6.37.34-.24.79-.47.81-.96.03-.74-.97-.42-1.29-.82-.75-.93.1-2.09.61-3.27-1.35-.18-2.07-1.06-2.07-2.46,0-.92.32-1.66.15-2.74-1.08.75-2.06.85-3.1.51.34-.55-.79-1.76-1.2-1.93-.4,1.09-.33,2.01-.4,2.93-.47.42-1.78.83-1.41,1.64-.05.18.21.34.37.36.16.38.42.76.75,1.22,1.52,2.11-2.48,2.64-.4,2.98.21,1.24,1.64,1.09,1.59,2.34-.02.35-.68.82-.84,1.38.96.7,2.31,1.59,3.47,1.68l.33.02.26,1.73-5.54-3.55c-1.48-.94-2.09-3.87-1.37-5.31.79-1.56.33-2.24-.31-3.52-.13-.54,1.03-1.63.39-2.34-1.08.25-2.25-.32-2.27-1.17l-.02-.71c.83-1.23,1.67-2.22,3.21-1.82Z"/>
    <path class="st2" d="M78.05,63.38c-.14-.29-.77-.44-.81-.87.65-1.54.11-3.02-.38-4.55.18-.25.35-.58.69-.68,1-.3.22-1.87,1.46-2.58.33-.19.76-.02.93.18-.1-.12-1.05,8.51-.97,8.46-.24.15-.66.01-.93.04Z"/>
    <path class="st1" d="M72,59.55c-.06.19-.24.24-.24.36-.01.18-.79-.23-.73-.35.65-1.14.01-2.33-.83-3.3.36-.02.66-.4,1.11-.26.34,1.28.56,2.42.69,3.54Z"/>
    <path class="st6" d="M57.99,79.37c-.9-1.76-1.88-3.68-2.04-6.23,1,1.76,1.57,3.76,2.04,6.23Z"/>
    <path class="st6" d="M55.7,72.68c-.43-.74-.88-1.55-.42-2.66.25.74.76,1.33.42,2.66Z"/>
    <path class="st1" d="M70.38,60.66l.02.29c-.52-.28-1.44.45-1.98,0-.48-.4-.56-1.2-1.11-1.23-.51-.03-1.19.26-1.6.13-.27-.67.26-1.31.21-1.83,1.15,1.43,2.65,2.38,4.46,2.63Z"/>
    <circle class="st1" cx="68.06" cy="57.11" r=".19"/>
    <path class="st6" d="M46.56,94.7c1.36-1.4,2.46-3.17,4.46-3.92l-4.46,3.92Z"/>
    <path class="st6" d="M76.85,57.95c.5,1.53,1.04,3.01.38,4.55-1.77-.73.82-1.37-.73-3.35-.23-.29-.38-.58-.35-.89.04-.34.58-.15.7-.31Z"/>
  </g>
</svg>