<?xml version="1.0" encoding="UTF-8"?>
<svg id="Capa_2" data-name="Capa 2" xmlns="http://www.w3.org/2000/svg" viewBox="0 0 232.2 232.1">
  <defs>
    <style>
      .cls-1, .cls-2 {
        fill: #0071bc;
      }

      .cls-2, .cls-3 {
        fill-rule: evenodd;
      }

      .cls-4 {
        fill: #ffb380;
      }

      .cls-5 {
        fill: none;
      }

      .cls-3, .cls-6 {
        fill: #eac102;
      }

      .cls-7 {
        fill: #ed1c24;
      }
    </style>
  </defs>
  <g id="Capa_2-2" data-name="Capa 2">
    <g id="layer1">
      <rect class="cls-5" width="232.2" height="231.73"/>
      <path id="path4541" class="cls-7" d="M23.95.55v198.13c0,12.72,10.31,23.04,23.04,23.04h50.24c7.52,0,14.56,3.67,18.87,9.82,4.31-6.16,11.35-9.82,18.87-9.82h50.24c12.72,0,23.04-10.31,23.04-23.04V.55H23.95Z"/>
      <g>
        <path id="path4587" class="cls-1" d="M116.1.55v230.99c4.31-6.16,11.35-9.82,18.87-9.82h50.24c12.72,0,23.04-10.31,23.04-23.04V.55h-92.15Z"/>
        <path d="M116.1,231.73s-.04,0-.06,0c-.08-.02-.13-.1-.13-.18V.55c0-.1.08-.18.18-.18h92.15c.1,0,.18.08.18.18v198.13c0,12.8-10.42,23.22-23.22,23.22h-50.24c-7.45,0-14.45,3.64-18.72,9.74-.04.05-.09.08-.15.08ZM116.28.74v230.24c4.37-5.92,11.31-9.44,18.69-9.44h50.24c12.6,0,22.85-10.25,22.85-22.85V.74h-91.78Z"/>
      </g>
      <path id="path4160" class="cls-5" d="M23.95.55v198.13c0,12.72,10.31,23.04,23.04,23.04h50.24c7.52,0,14.56,3.67,18.87,9.82,4.31-6.16,11.35-9.82,18.87-9.82h50.24c12.72,0,23.04-10.31,23.04-23.04V.55H23.95Z"/>
      <path d="M116.1,232.1c-.18,0-.35-.09-.45-.24-4.2-6-11.09-9.59-18.42-9.59h-50.24c-13.01,0-23.59-10.58-23.59-23.59V.55c0-.31.25-.55.55-.55h184.29c.31,0,.55.25.55.55v198.13c0,13.01-10.58,23.59-23.59,23.59h-50.24c-7.33,0-14.21,3.58-18.42,9.59-.1.15-.27.24-.45.24ZM24.51,1.11v197.58c0,12.4,10.09,22.48,22.48,22.48h50.24c7.43,0,14.43,3.51,18.87,9.43,4.44-5.92,11.44-9.43,18.87-9.43h50.24c12.4,0,22.48-10.09,22.48-22.48V1.11H24.51Z"/>
      <g id="g10979">
        <g id="g10784">
          <g id="g11310-9">
            <g id="g11300-9">
              <g id="g11264-9">
                <g id="g11260-8">
                  <g>
                    <rect id="rect21063-5-2-7-7" class="cls-6" x="89.97" y="68" width="14.94" height="26.96"/>
                    <path d="M104.91,95.18h-14.94l-.22-.22v-26.96l.22-.22h14.94l.22.22v26.96l-.22.22ZM90.19,94.74h14.5v-26.52h-14.5v26.52Z"/>
                  </g>
                  <g>
                    <path id="path2924-6-4-7-7" class="cls-6" d="M97.41,81.77v-4.09M97.41,73.32v-4.63M97.41,90.62v-4.34M101.11,94.92v-4.38M93.7,94.92v-4.38M101.11,77.73v-4.35M93.7,77.73v-4.35M101.12,86.28v-4.28M93.7,86.28v-4.28M104.9,90.63h-14.99M104.9,73.32h-14.99M104.9,77.65h-14.99M104.9,81.97h-14.99M104.9,86.3h-14.99"/>
                    <path d="M101.33,94.92h-.44v-4.08h-6.98v4.08h-.44v-4.08h-3.57v-.44h7.27v-3.89h-7.27v-.44h3.56v-3.89h-3.56v-.44h7.27v-3.89h-7.27v-.44h3.57v-3.89h-3.57v-.44h7.27v-4.41h.44v4.41h7.27v.44h-3.57v3.89h3.57v.44h-7.27v3.89h7.27v.44h-3.56v3.89h3.56v.44h-7.27v3.89h7.27v.44h-3.57v4.08ZM93.92,86.08h6.98v-3.89h-6.98v3.89ZM93.92,77.43h6.98v-3.89h-6.98v3.89Z"/>
                  </g>
                </g>
                <g id="g11110-3-7">
                  <g>
                    <path id="path21177-2-5-1-0-1-8-8-0" class="cls-3" d="M89.95,69.02c.1-.62-.36-2.02-1.45-2.36v-1.95h17.86v1.95c-1.09.34-1.54,1.74-1.45,2.36h-14.96Z"/>
                    <path d="M104.91,69.29h-14.96l-.27-.31c.08-.55-.34-1.78-1.26-2.06l-.19-.26v-1.95l.27-.27h17.86l.27.27v1.95l-.19.26c-.92.28-1.34,1.51-1.26,2.06l-.27.31ZM90.22,68.75h14.41c.04-.73.49-1.86,1.45-2.28v-1.5h-17.32v1.5c.97.41,1.42,1.55,1.45,2.28Z"/>
                  </g>
                  <g>
                    <path id="path21179-7-0-6-6-0-8" class="cls-3" d="M88.55,66.66l17.78-.08"/>
                    <rect x="88.55" y="66.35" width="17.78" height=".54" transform="translate(-.27 .39) rotate(-.23)"/>
                  </g>
                </g>
              </g>
              <g>
                <path id="path21059-8-1-9-5" class="cls-6" d="M91.9,59.37h-3.76v5.62h18.58v-5.62h-3.73v2.32h-3.73v-2.32h-3.63v2.32h-3.74s0-2.32,0-2.32Z"/>
                <path d="M106.72,65.21h-18.58l-.22-.22v-5.62l.22-.22h3.76l.22.22v2.1h3.3v-2.1l.22-.22h3.63l.22.22v2.1h3.29v-2.1l.22-.22h3.73l.22.22v5.62l-.22.22ZM88.36,64.77h18.14v-5.18h-3.28v2.1l-.22.22h-3.73l-.22-.22v-2.1h-3.19v2.1l-.22.22h-3.74l-.22-.22v-2.1h-3.32v5.18Z"/>
              </g>
            </g>
            <g id="g8148-2-9-2">
              <g>
                <path id="path20795-0-5-4-9" class="cls-2" d="M96.33,79.77s-.04-2.6-.02-3.85c.02-1.25.56-1.64,1.13-1.62.56.02,1.09.32,1.12,1.65.02,1.33,0,3.82,0,3.82h-2.21s0,0,0,0Z"/>
                <path d="M98.54,80.06h-2.21s-.29-.28-.29-.28c0-.03-.04-2.61-.02-3.86,0-.72.18-1.25.52-1.57.24-.23.55-.34.9-.33.9.03,1.37.68,1.39,1.93.02,1.32,0,3.81,0,3.83l-.29.28ZM96.61,79.49h1.65c0-.69.02-2.48,0-3.53-.02-1.34-.57-1.36-.84-1.37-.2,0-.36.05-.49.17-.22.21-.34.61-.35,1.16-.01.99,0,2.86.02,3.56Z"/>
              </g>
            </g>
          </g>
          <g id="g11128-2">
            <g id="g11120-3">
              <g id="g11114-7">
                <g>
                  <path id="path5009-7-8-9" class="cls-6" d="M69.77,65.97v-4.02M75.4,66.29v-4.1M64.28,66.13v-4.23M80.79,66.15h-22.05M69.77,73.92v-3.69M69.77,81.96v-3.88M75.4,74.18v-4.05M75.4,82.06v-3.96M78.15,86.1v-3.95M72.66,86.1v-3.95M78.15,78.05v-3.95M72.66,78.05v-3.95M64.29,74.18v-4.05M64.29,82.05v-4.05M67.03,86.15v-3.95M61.54,86.15v-3.95M67.03,78.05v-3.95M61.54,78.05v-3.95M69.77,89.95v-3.92M69.77,97.86v-3.69M75.4,97.83v-3.77M75.4,90.03v-4.02M78.15,94.19v-4.14M72.66,94.19v-4.14M78.15,70.11v-3.95M72.66,70.11v-3.95M80.79,74.09h-22.05M80.79,78.08h-22.05M80.79,82.07h-22.05M80.79,86.06h-22.05M64.29,97.83v-3.77M64.29,90.03v-4.02M67.03,94.19v-4.24M61.54,94.19v-4.24M67.03,70.11v-3.95M61.54,70.11v-3.95M80.79,90.05h-22.05M80.76,94.04h-22.02M80.68,70.18h-21.94M58.74,60.39h22.11v37.47h-22.11v-37.47Z"/>
                  <path d="M81.07,98.08h-22.55v-37.91h22.55v37.91ZM75.62,97.64h5v-3.38h-5v3.38ZM69.99,97.64h5.19v-3.38h-5.19v3.38ZM64.51,97.64h5.04v-3.38h-5.04v3.38ZM58.96,97.64h5.11v-3.38h-5.11v3.38ZM78.37,93.82h2.26v-3.55h-2.26v3.55ZM72.88,93.82h5.05v-3.55h-5.05v3.55ZM67.25,93.82h5.19v-3.55h-5.19v3.55ZM61.76,93.82h5.05v-3.55h-5.05v3.55ZM58.96,93.82h2.37v-3.55h-2.37v3.55ZM75.62,89.83h5v-3.55h-5v3.55ZM69.99,89.83h5.19v-3.55h-5.19v3.55ZM64.51,89.83h5.04v-3.55h-5.04v3.55ZM58.96,89.83h5.11v-3.55h-5.11v3.55ZM78.37,85.84h2.26v-3.55h-2.26v3.55ZM72.88,85.84h5.05v-3.55h-5.05v3.55ZM67.25,85.84h5.18v-3.55h-5.18v3.55ZM61.76,85.84h5.05v-3.55h-5.05v3.55ZM58.96,85.84h2.36v-3.55h-2.36v3.55ZM75.62,81.85h5v-3.55h-5v3.55ZM69.99,81.85h5.19v-3.55h-5.19v3.55ZM64.51,81.85h5.04v-3.55h-5.04v3.55ZM58.96,81.85h5.11v-3.55h-5.11v3.55ZM78.37,77.86h2.26v-3.55h-2.26v3.55ZM72.88,77.86h5.05v-3.55h-5.05v3.55ZM67.25,77.86h5.18v-3.55h-5.18v3.55ZM61.76,77.86h5.05v-3.55h-5.05v3.55ZM58.96,77.86h2.36v-3.55h-2.36v3.55ZM75.62,73.87h5v-3.46h-5v3.46ZM69.99,73.87h5.19v-3.46h-5.19v3.46ZM64.51,73.87h5.04v-3.46h-5.04v3.46ZM58.96,73.87h5.11v-3.46h-5.11v3.46ZM78.37,69.96h2.26v-3.59h-2.26v3.59ZM72.88,69.96h5.05v-3.59h-5.05v3.59ZM67.25,69.96h5.18v-3.59h-5.18v3.59ZM61.76,69.96h5.05v-3.59h-5.05v3.59ZM58.96,69.96h2.36v-3.59h-2.36v3.59ZM75.62,65.93h5.01v-5.32h-21.67v5.32h5.1v-4.03h.44v4.03h5.04v-3.98h.44v3.98h5.19v-3.74h.44v3.74Z"/>
                </g>
                <g id="g11110-32">
                  <g>
                    <path id="path21177-2-5-1-0-1-8-4" class="cls-3" d="M58.7,62.33c.14-.62-.52-2.02-2.14-2.36v-1.95h26.4v1.95c-1.61.34-2.28,1.74-2.14,2.36h-22.12Z"/>
                    <path d="M80.82,62.55h-22.12l-.22-.27c.04-.2-.02-.58-.28-.97-.21-.33-.72-.92-1.69-1.12l-.18-.22v-1.95l.22-.22h26.4l.22.22v1.95l-.18.22c-.97.2-1.47.79-1.69,1.12-.26.4-.32.77-.28.97l-.22.27ZM58.94,62.11h21.65c.01-.32.14-.69.36-1.04.24-.37.78-1.01,1.79-1.28v-1.56h-25.96v1.56c1.01.27,1.56.91,1.79,1.27.22.35.35.72.36,1.04Z"/>
                  </g>
                  <g>
                    <path id="path21179-7-0-6-6-5" class="cls-3" d="M56.64,59.97l26.28-.08"/>
                    <rect x="56.64" y="59.71" width="26.28" height=".44" transform="translate(-.2 .23) rotate(-.19)"/>
                  </g>
                </g>
              </g>
              <g>
                <path id="path21059-8-1-2-4-4" class="cls-6" d="M61.58,50.33h-5.57v7.81h27.5v-7.81h-5.51v3.22h-5.52v-3.22h-5.37v3.22h-5.53v-3.22h0Z"/>
                <path d="M83.51,58.36h-27.5l-.22-.22v-7.81l.22-.22h5.57l.22.22v3h5.09v-3l.22-.22h5.37l.22.22v3h5.08v-3l.22-.22h5.51l.22.22v7.81l-.22.22ZM56.23,57.92h27.06v-7.37h-5.07v3l-.22.22h-5.52l-.22-.22v-3h-4.93v3l-.22.22h-5.53l-.22-.22v-3h-5.13v7.37Z"/>
              </g>
            </g>
            <g id="g8148">
              <g>
                <path id="path20795-0-0" class="cls-2" d="M68.22,75.44s-.05-4.29-.03-6.36c.02-2.07.79-2.71,1.58-2.68.79.03,1.53.53,1.56,2.73.03,2.19,0,6.31,0,6.31h-3.11s0,0,0,0Z"/>
                <path d="M71.32,75.63h-3.11s-.19-.19-.19-.19c0-.04-.05-4.32-.03-6.37.01-1.18.26-2.02.75-2.48.28-.27.64-.4,1.03-.39,1.14.04,1.71,1,1.74,2.91.03,2.17,0,6.28,0,6.32l-.19.19ZM68.4,75.25h2.73c0-.83.04-4.22,0-6.12-.04-2.23-.81-2.52-1.38-2.54-.3-.01-.55.08-.76.28-.4.38-.62,1.15-.63,2.21-.02,1.8.02,5.33.03,6.17Z"/>
              </g>
            </g>
          </g>
          <g id="g11310-8-4">
            <g id="g11300-3-3">
              <g id="g11264-5-1">
                <g id="g11260-1-9">
                  <g>
                    <rect id="rect21063-5-2-7-2-5" class="cls-6" x="34.9" y="68" width="14.94" height="26.96"/>
                    <path d="M49.84,95.18h-14.94l-.22-.22v-26.96l.22-.22h14.94l.22.22v26.96l-.22.22ZM35.12,94.74h14.5v-26.52h-14.5v26.52Z"/>
                  </g>
                  <g>
                    <path id="path2924-6-4-7-0-8" class="cls-6" d="M42.34,81.77v-4.09M42.34,73.32v-4.63M42.34,90.62v-4.34M46.05,94.92v-4.38M38.63,94.92v-4.38M46.05,77.73v-4.35M38.63,77.73v-4.35M46.05,86.28v-4.28M38.63,86.28v-4.28M49.83,90.63h-14.99M49.83,73.32h-14.99M49.83,77.65h-14.99M49.83,81.97h-14.99M49.83,86.3h-14.99"/>
                    <path d="M46.27,94.92h-.44v-4.08h-6.98v4.08h-.44v-4.08h-3.57v-.44h7.27v-3.89h-7.27v-.44h3.56v-3.89h-3.56v-.44h7.27v-3.89h-7.27v-.44h3.57v-3.89h-3.57v-.44h7.27v-4.41h.44v4.41h7.27v.44h-3.57v3.89h3.57v.44h-7.27v3.89h7.27v.44h-3.56v3.89h3.56v.44h-7.27v3.89h7.27v.44h-3.57v4.08ZM38.85,86.08h6.98v-3.89h-6.98v3.89ZM38.85,77.43h6.98v-3.89h-6.98v3.89Z"/>
                  </g>
                </g>
                <g id="g11110-3-1-9">
                  <g>
                    <path id="path21177-2-5-1-0-1-8-8-6-7" class="cls-3" d="M34.88,69.02c.1-.62-.36-2.02-1.45-2.36v-1.95h17.86v1.95c-1.09.34-1.54,1.74-1.45,2.36h-14.96Z"/>
                    <path d="M49.84,69.29h-14.96l-.27-.31c.08-.55-.34-1.78-1.26-2.06l-.19-.26v-1.95l.27-.27h17.86l.27.27v1.95l-.19.26c-.92.28-1.34,1.51-1.26,2.06l-.27.31ZM35.15,68.75h14.41c.04-.73.49-1.86,1.46-2.28v-1.5h-17.32v1.5c.97.41,1.42,1.55,1.45,2.28Z"/>
                  </g>
                  <g>
                    <path id="path21179-7-0-6-6-0-4-4" class="cls-3" d="M33.49,66.66l17.78-.08"/>
                    <rect x="33.49" y="66.35" width="17.78" height=".54" transform="translate(-.27 .17) rotate(-.23)"/>
                  </g>
                </g>
              </g>
              <g>
                <path id="path21059-8-1-9-0-9" class="cls-6" d="M36.83,59.37h-3.76v5.62h18.58v-5.62h-3.73v2.32h-3.73v-2.32h-3.63v2.32h-3.74s0-2.32,0-2.32Z"/>
                <path d="M51.65,65.21h-18.58l-.22-.22v-5.62l.22-.22h3.76l.22.22v2.1h3.3v-2.1l.22-.22h3.63l.22.22v2.1h3.29v-2.1l.22-.22h3.73l.22.22v5.62l-.22.22ZM33.29,64.77h18.14v-5.18h-3.28v2.1l-.22.22h-3.73l-.22-.22v-2.1h-3.19v2.1l-.22.22h-3.74l-.22-.22v-2.1h-3.32v5.18Z"/>
              </g>
            </g>
            <g id="g8148-2-9-6-2">
              <g>
                <path id="path20795-0-5-4-1-7" class="cls-2" d="M41.26,79.77s-.04-2.6-.02-3.85c.02-1.25.56-1.64,1.13-1.62.56.02,1.09.32,1.12,1.65.02,1.33,0,3.82,0,3.82h-2.21s0,0,0,0Z"/>
                <path d="M43.47,80.06h-2.21s-.29-.28-.29-.28c0-.03-.04-2.61-.02-3.86,0-.72.18-1.25.52-1.57.24-.23.55-.35.9-.33.9.03,1.37.68,1.39,1.93.02,1.32,0,3.81,0,3.83l-.29.28ZM41.54,79.49h1.65c0-.69.02-2.48,0-3.53-.02-1.34-.57-1.36-.84-1.37-.2,0-.36.05-.49.17-.22.21-.34.61-.35,1.16-.01.99,0,2.86.02,3.56Z"/>
              </g>
            </g>
          </g>
        </g>
        <g id="g10820">
          <g id="g3658-6">
            <g>
              <path id="path5043-0" class="cls-6" d="M43,92.55h-4.14v3.52h-4.14v-3.52h-4.14v8.02h78.6v-8.02h-4.14v3.52h-4.14v-3.52h-4.14v3.52h-4.14v-3.52h-4.14v3.52h-4.14v-3.52h-4.14v3.52h-4.14v-3.52h-4.14v3.52h-4.14v-3.52h-4.14v3.52h-4.14v-3.52h-4.14v3.52h-4.14v-3.52h-4.14v3.52h-4.14v-3.52h0Z"/>
              <path d="M109.19,100.72H30.59l-.14-.14v-8.02l.14-.14h4.14l.14.14v3.38h3.85v-3.38l.14-.14h4.14l.14.14v3.38h3.85v-3.38l.14-.14h4.14l.14.14v3.38h3.85v-3.38l.14-.14h4.14l.14.14v3.38h3.84v-3.38s.15-.14.15-.14h4.14l.14.14v3.38h3.85v-3.38l.14-.14h4.14l.14.14v3.38h3.85v-3.38l.14-.14h4.14l.14.14v3.38h3.85v-3.38l.14-.14h4.14l.14.14v3.38h3.85v-3.38l.14-.14h4.14l.14.14v3.38h3.85v-3.38l.14-.14h4.14l.14.14v8.02l-.14.14ZM30.74,100.43h78.31v-7.74h-3.85v3.38l-.14.14h-4.14l-.14-.14v-3.38h-3.85v3.38l-.14.14h-4.14l-.14-.14v-3.38h-3.85v3.38l-.14.14h-4.14l-.14-.14v-3.38h-3.85v3.38l-.14.14h-4.14l-.14-.14v-3.38h-3.85v3.38l-.14.14h-4.14l-.14-.14v-3.38h-3.85v3.38s-.15.14-.15.14h-4.13l-.14-.14v-3.38h-3.85v3.38l-.14.14h-4.14l-.14-.14v-3.38h-3.85v3.38l-.14.14h-4.14l-.14-.14v-3.38h-3.85v3.38l-.14.14h-4.14l-.14-.14v-3.38h-3.85v7.74Z"/>
            </g>
            <g id="g4495-7">
              <g>
                <path id="rect3328-1" class="cls-3" d="M30.63,100.8h78.52v1.58c-.92.34-1.59.57-1.68,1.79H32.63c-.22-.48-.19-1.21-2-1.73,0,0,0-1.64,0-1.64Z"/>
                <path d="M107.47,104.39H32.63l-.19-.13c-.03-.08-.06-.16-.09-.24-.16-.45-.33-.95-1.77-1.37l-.15-.2v-1.64l.21-.21h78.52l.21.21v1.58l-.14.2-.05.02c-.88.33-1.41.53-1.49,1.59l-.21.2ZM32.78,103.97h74.51c.16-1.13.85-1.42,1.66-1.73v-1.22H30.85v1.28c1.51.47,1.74,1.11,1.9,1.59.01.03.02.06.03.09Z"/>
              </g>
              <g>
                <path id="path3331-6-7" class="cls-3" d="M30.82,102.45l78.14-.06"/>
                <rect x="30.82" y="102.21" width="78.14" height=".42"/>
              </g>
            </g>
          </g>
          <g id="g5576-7">
            <g id="g5294-7">
              <g>
                <path id="rect4994-7" class="cls-6" d="M32.59,104.27h74.6v67.05l-74.6-.38v-66.67Z"/>
                <path d="M107.2,171.53l-74.6-.38-.2-.2v-66.67l.2-.2h74.6l.2.2v67.05l-.2.2ZM32.79,170.75l74.21.38v-66.66H32.79v66.28Z"/>
              </g>
              <rect x="32.63" y="151.79" width="74.53" height=".4"/>
              <rect x="32.63" y="132.53" width="74.53" height=".4"/>
              <rect x="32.63" y="156.61" width="74.53" height=".4"/>
              <rect x="32.63" y="146.98" width="74.53" height=".4"/>
              <rect x="32.63" y="142.16" width="74.53" height=".4"/>
              <rect x="32.63" y="137.35" width="74.53" height=".4"/>
              <rect x="32.63" y="161.42" width="74.53" height=".4"/>
              <rect x="32.63" y="166.24" width="74.27" height=".4"/>
            </g>
            <g id="g5428-2">
              <rect x="38.76" y="161.65" width=".4" height="4.73"/>
              <rect x="45.7" y="161.76" width=".4" height="4.7"/>
              <rect x="52.63" y="161.68" width=".4" height="4.7"/>
              <g>
                <path id="path5314-3" class="cls-3" d="M59.76,161.91l-.08,4.28"/>
                <rect x="57.58" y="163.85" width="4.28" height=".4" transform="translate(-105.49 220.48) rotate(-88.85)"/>
              </g>
              <g>
                <path id="path5316-8" class="cls-3" d="M66.7,161.91l-.08,4.28"/>
                <rect x="64.52" y="163.85" width="4.28" height=".4" transform="translate(-98.7 227.41) rotate(-88.85)"/>
              </g>
              <g>
                <path id="path5318-0" class="cls-3" d="M73.63,161.91l-.08,4.28"/>
                <rect x="71.45" y="163.85" width="4.28" height=".4" transform="translate(-91.77 234.64) rotate(-88.96)"/>
              </g>
              <g>
                <path id="path5320-1" class="cls-3" d="M80.56,161.91l-.08,4.28"/>
                <rect x="78.39" y="163.85" width="4.28" height=".4" transform="translate(-84.97 241.57) rotate(-88.96)"/>
              </g>
              <rect x="87.3" y="161.81" width=".4" height="4.56"/>
              <rect x="94.23" y="161.81" width=".4" height="4.88"/>
              <rect x="101.17" y="161.7" width=".4" height="4.99"/>
            </g>
            <rect x="38.77" y="152.1" width=".4" height="4.68"/>
            <rect x="45.7" y="152.1" width=".4" height="4.68"/>
            <rect x="52.63" y="152.1" width=".4" height="4.68"/>
            <g>
              <path id="path5334-8" class="cls-3" d="M59.77,152.1l-.08,4.68"/>
              <rect x="57.38" y="154.25" width="4.68" height=".4" transform="translate(-95.78 211.35) rotate(-88.96)"/>
            </g>
            <g>
              <path id="path5336-3" class="cls-3" d="M66.7,152.1l-.08,4.68"/>
              <rect x="64.32" y="154.25" width="4.68" height=".4" transform="translate(-88.98 218.28) rotate(-88.96)"/>
            </g>
            <g>
              <path id="path5338-5" class="cls-3" d="M73.63,152.1l-.08,4.68"/>
              <rect x="71.25" y="154.25" width="4.68" height=".4" transform="translate(-82.17 225.21) rotate(-88.96)"/>
            </g>
            <g>
              <path id="path5340-1" class="cls-3" d="M80.56,152.1l-.08,4.68"/>
              <rect x="78.18" y="154.25" width="4.68" height=".4" transform="translate(-75.36 232.14) rotate(-88.96)"/>
            </g>
            <rect x="87.3" y="152.1" width=".4" height="4.95"/>
            <rect x="94.06" y="152.1" width=".4" height="4.66"/>
            <rect x="101.16" y="152.1" width=".4" height="4.66"/>
            <rect x="38.77" y="142.47" width=".4" height="4.71"/>
            <rect x="45.7" y="142.64" width=".4" height="4.85"/>
            <rect x="52.63" y="142.38" width=".4" height="5.1"/>
            <g>
              <path id="path5354-6" class="cls-3" d="M59.76,142.55l-.08,4.93"/>
              <rect x="57.26" y="144.82" width="4.93" height=".4" transform="translate(-86.25 202.36) rotate(-89.06)"/>
            </g>
            <g>
              <path id="path5356-1" class="cls-3" d="M66.7,142.47l-.08,5.02"/>
              <rect x="64.15" y="144.78" width="5.02" height=".4" transform="translate(-79.39 209.25) rotate(-89.06)"/>
            </g>
            <g>
              <path id="path5358-8" class="cls-3" d="M73.63,142.8l-.08,4.68"/>
              <rect x="71.25" y="144.95" width="4.68" height=".4" transform="translate(-72.87 216.08) rotate(-88.96)"/>
            </g>
            <rect x="80.37" y="142.48" width=".4" height="5"/>
            <rect x="87.3" y="142.27" width=".4" height="5.22"/>
            <g>
              <path id="path5364-4" class="cls-3" d="M94.43,142.8l-.08,4.68"/>
              <rect x="92.05" y="144.95" width="4.68" height=".4" transform="translate(-52.45 236.87) rotate(-88.96)"/>
            </g>
            <rect x="101.16" y="142.61" width=".4" height="4.87"/>
            <rect x="38.77" y="132.99" width=".4" height="4.68"/>
            <rect x="45.7" y="132.99" width=".4" height="4.68"/>
            <rect x="52.63" y="132.99" width=".4" height="4.68"/>
            <rect x="59.57" y="132.99" width=".4" height="4.68"/>
            <rect x="66.5" y="132.99" width=".4" height="4.68"/>
            <rect x="73.43" y="132.99" width=".4" height="4.68"/>
            <rect x="80.37" y="132.99" width=".4" height="4.68"/>
            <rect x="87.3" y="132.99" width=".4" height="4.68"/>
            <rect x="94.23" y="132.99" width=".4" height="4.68"/>
            <g>
              <path id="path5386-8" class="cls-3" d="M101.36,132.99l-.08,4.83"/>
              <rect x="98.9" y="135.21" width="4.83" height=".4" transform="translate(-35.73 234.49) rotate(-89.06)"/>
            </g>
            <g id="g10467-3">
              <rect x="35.38" y="156.9" width=".37" height="4.74"/>
              <rect x="42.32" y="156.9" width=".37" height="4.93"/>
              <rect x="49.25" y="156.9" width=".37" height="4.93"/>
              <rect x="56.18" y="156.9" width=".37" height="4.93"/>
              <g>
                <path id="path5450-0" class="cls-3" d="M63.3,156.9l-.08,4.93"/>
                <rect x="60.79" y="159.19" width="4.94" height=".37" transform="translate(-97.08 220.12) rotate(-89.1)"/>
              </g>
              <g>
                <path id="path5452-7" class="cls-3" d="M70.23,156.9l-.08,4.93"/>
                <rect x="67.72" y="159.19" width="4.94" height=".37" transform="translate(-90.26 227.06) rotate(-89.1)"/>
              </g>
              <g>
                <path id="path5454-3" class="cls-3" d="M77.16,156.9l-.08,4.93"/>
                <rect x="74.65" y="159.19" width="4.94" height=".37" transform="translate(-83.44 233.99) rotate(-89.1)"/>
              </g>
              <g>
                <path id="path5456-4" class="cls-3" d="M84.1,156.9l-.08,4.93"/>
                <rect x="81.59" y="159.19" width="4.94" height=".37" transform="translate(-76.61 240.92) rotate(-89.1)"/>
              </g>
              <g>
                <path id="path5458-9" class="cls-3" d="M91.03,156.9l-.08,4.93"/>
                <rect x="88.52" y="159.19" width="4.94" height=".37" transform="translate(-69.79 247.85) rotate(-89.1)"/>
              </g>
              <g>
                <path id="path5460-6" class="cls-3" d="M97.96,156.9l-.08,4.93"/>
                <rect x="95.45" y="159.19" width="4.94" height=".37" transform="translate(-62.96 254.78) rotate(-89.1)"/>
              </g>
              <rect x="35.38" y="166.47" width=".37" height="4.74"/>
              <rect x="42.32" y="166.47" width=".37" height="4.93"/>
              <rect x="49.25" y="166.47" width=".37" height="4.93"/>
              <g>
                <path id="path5363-9" class="cls-3" d="M91.03,166.58l-.08,4.93"/>
                <rect x="88.52" y="168.86" width="4.94" height=".37" transform="translate(-79.46 257.37) rotate(-89.1)"/>
              </g>
              <g>
                <path id="path5365-9" class="cls-3" d="M97.96,166.58l-.08,4.93"/>
                <rect x="95.45" y="168.86" width="4.94" height=".37" transform="translate(-72.64 264.31) rotate(-89.1)"/>
              </g>
            </g>
            <g id="g5462-6">
              <rect x="35.37" y="147.27" width=".38" height="4.76"/>
              <rect x="42.31" y="147.23" width=".38" height="4.8"/>
              <rect x="49.24" y="147.42" width=".38" height="4.61"/>
              <rect x="56.17" y="147.42" width=".38" height="4.61"/>
              <g>
                <path id="path5472-4" class="cls-3" d="M63.3,147.42l-.08,4.61"/>
                <rect x="60.95" y="149.53" width="4.61" height=".38" transform="translate(-87.52 210.43) rotate(-89.03)"/>
              </g>
              <g>
                <path id="path5474-9" class="cls-3" d="M70.23,147.42l-.08,4.61"/>
                <rect x="67.89" y="149.53" width="4.61" height=".38" transform="translate(-80.71 217.36) rotate(-89.03)"/>
              </g>
              <g>
                <path id="path5476-9" class="cls-3" d="M77.16,147.42l-.08,4.61"/>
                <rect x="74.82" y="149.53" width="4.61" height=".38" transform="translate(-73.89 224.29) rotate(-89.03)"/>
              </g>
              <g>
                <path id="path5478-2" class="cls-3" d="M84.1,147.42l-.08,4.61"/>
                <rect x="81.75" y="149.53" width="4.61" height=".38" transform="translate(-67.08 231.22) rotate(-89.03)"/>
              </g>
              <g>
                <path id="path5480-5" class="cls-3" d="M91.03,147.42l-.08,4.61"/>
                <rect x="88.69" y="149.53" width="4.61" height=".38" transform="translate(-60.26 238.15) rotate(-89.03)"/>
              </g>
              <rect x="97.77" y="147.42" width=".38" height="4.61"/>
            </g>
            <g id="g5484-3">
              <rect x="35.38" y="137.61" width=".37" height="4.85"/>
              <rect x="42.31" y="137.61" width=".37" height="4.85"/>
              <rect x="49.25" y="137.61" width=".37" height="4.85"/>
              <rect x="56.18" y="137.61" width=".37" height="4.85"/>
              <rect x="63.11" y="137.61" width=".37" height="4.85"/>
              <rect x="70.04" y="137.61" width=".37" height="4.85"/>
              <rect x="76.98" y="137.61" width=".37" height="4.85"/>
              <rect x="83.91" y="137.61" width=".37" height="4.85"/>
              <rect x="90.84" y="137.61" width=".37" height="4.85"/>
              <g>
                <path id="path5504-0" class="cls-3" d="M97.93,137.8l-.05,4.78"/>
                <rect x="95.51" y="140" width="4.78" height=".37" transform="translate(-43.23 236.73) rotate(-89.44)"/>
              </g>
            </g>
            <rect x="35.54" y="128.2" width=".4" height="4.77"/>
            <rect x="42.48" y="128.2" width=".4" height="4.77"/>
            <rect x="49.41" y="128.2" width=".4" height="4.77"/>
            <rect x="56.34" y="128.2" width=".4" height="4.77"/>
            <g>
              <path id="path5514-8" class="cls-3" d="M63.47,128.2l-.08,4.77"/>
              <rect x="61.05" y="130.39" width="4.77" height=".4" transform="translate(-68.17 191.87) rotate(-89.06)"/>
            </g>
            <rect x="70.21" y="128.2" width=".4" height="4.77"/>
            <g>
              <path id="path5518-7" class="cls-3" d="M77.34,128.2l-.08,4.77"/>
              <rect x="74.91" y="130.39" width="4.77" height=".4" transform="translate(-54.54 205.73) rotate(-89.06)"/>
            </g>
            <rect x="84.07" y="128.2" width=".4" height="4.77"/>
            <rect x="91" y="128.2" width=".4" height="4.77"/>
            <rect x="97.94" y="128.2" width=".4" height="4.77"/>
            <rect x="104.58" y="156.82" width=".4" height="4.79"/>
            <rect x="104.58" y="147.44" width=".4" height="4.68"/>
            <rect x="104.58" y="137.64" width=".4" height="4.97"/>
            <rect x="104.58" y="128.32" width=".4" height="4.36"/>
            <rect x="104.58" y="166.5" width=".4" height="4.79"/>
          </g>
          <g>
            <path id="path10195-2" class="cls-3" d="M104.78,109.02v4.36M98.14,108.89v4.77M91.2,108.89v4.77M84.27,108.89v4.77M77.34,108.89l-.08,4.77M70.4,108.89v4.77M63.47,108.89l-.08,4.77M56.54,108.89v4.77M49.61,108.89v4.77M42.67,108.89v4.77M35.74,108.89v4.77M32.63,113.42h74.53"/>
            <polygon points="77.44 113.66 77.07 113.66 77.07 113.6 70.59 113.6 70.59 113.66 70.22 113.66 70.22 113.6 63.58 113.6 63.57 113.66 63.21 113.66 63.21 113.6 56.72 113.6 56.72 113.66 56.36 113.66 56.36 113.6 49.79 113.6 49.79 113.66 49.42 113.66 49.42 113.6 42.86 113.6 42.86 113.66 42.49 113.66 42.49 113.6 35.93 113.6 35.93 113.66 35.56 113.66 35.56 113.6 32.63 113.6 32.63 113.24 35.56 113.24 35.56 108.89 35.93 108.89 35.93 113.24 42.49 113.24 42.49 108.89 42.86 108.89 42.86 113.24 49.42 113.24 49.42 108.89 49.79 108.89 49.79 113.24 56.36 113.24 56.36 108.89 56.72 108.89 56.72 113.24 63.21 113.24 63.29 108.89 63.66 108.89 63.58 113.24 70.22 113.24 70.22 108.89 70.59 108.89 70.59 113.24 77.08 113.24 77.15 108.89 77.52 108.89 77.45 113.24 84.09 113.24 84.09 108.89 84.45 108.89 84.45 113.24 91.02 113.24 91.02 108.89 91.39 108.89 91.39 113.24 97.95 113.24 97.95 108.89 98.32 108.89 98.32 113.24 104.59 113.24 104.59 109.02 104.96 109.02 104.96 113.24 107.16 113.24 107.16 113.6 98.32 113.6 98.32 113.66 97.95 113.66 97.95 113.6 91.39 113.6 91.39 113.66 91.02 113.66 91.02 113.6 84.45 113.6 84.45 113.66 84.09 113.66 84.09 113.6 77.44 113.6 77.44 113.66"/>
          </g>
          <g id="g3841-2-8">
            <g>
              <path id="rect3797-6" class="cls-6" d="M32.2,170.92h75.39l1.46,2.31H30.74l1.46-2.31Z"/>
              <path d="M109.31,173.37H30.48l1.64-2.6h75.55l1.64,2.6ZM31,173.08h77.79l-1.28-2.02H32.28l-1.28,2.02Z"/>
            </g>
            <g>
              <path id="path3241-2" class="cls-6" d="M30.47,173.3h78.86v2.31H30.47v-2.31h0Z"/>
              <path d="M109.47,175.76H30.32v-2.6h79.15v2.6ZM30.61,175.47h78.57v-2.02H30.61v2.02Z"/>
            </g>
            <g id="g3269-6">
              <rect x="35.3" y="173.44" width=".29" height="2.15"/>
              <rect x="41.56" y="173.39" width=".29" height="2.26"/>
              <rect x="47.83" y="173.44" width=".29" height="2.15"/>
              <rect x="54.09" y="173.44" width=".29" height="2.15"/>
              <rect x="60.35" y="173.33" width=".29" height="2.37"/>
              <rect x="66.62" y="173.28" width=".29" height="2.48"/>
              <rect x="72.88" y="173.44" width=".29" height="2.15"/>
              <rect x="79.15" y="173.39" width=".29" height="2.26"/>
              <rect x="85.41" y="173.49" width=".29" height="2.05"/>
              <rect x="91.67" y="173.28" width=".29" height="2.15"/>
              <rect x="97.94" y="173.49" width=".29" height="2.05"/>
              <rect x="104.2" y="173.39" width=".29" height="2.26"/>
            </g>
            <g id="g3283-7">
              <rect x="38.43" y="170.91" width=".29" height="2.26"/>
              <rect x="44.7" y="170.96" width=".29" height="2.15"/>
              <rect x="50.96" y="170.96" width=".29" height="2.15"/>
              <rect x="57.22" y="170.86" width=".29" height="2.37"/>
              <rect x="63.49" y="170.8" width=".29" height="2.48"/>
              <rect x="69.75" y="170.96" width=".29" height="2.15"/>
              <rect x="76.01" y="170.91" width=".29" height="2.26"/>
              <rect x="82.28" y="171.02" width=".29" height="2.05"/>
              <rect x="88.54" y="170.8" width=".29" height="2.48"/>
              <rect x="94.8" y="171.02" width=".29" height="2.05"/>
              <rect x="101.07" y="170.91" width=".29" height="2.26"/>
            </g>
          </g>
          <g id="g5804-8">
            <g>
              <path id="path2565-1" class="cls-3" d="M60.31,170.56s-.09-10.15,0-17.63c-.38-8,4.69-10.76,9.39-10.65,4.7.11,9.87,2.22,9.82,10.84-.05,8.05,0,17.54,0,17.54l-19.21-.09Z"/>
              <path d="M79.52,170.81l-19.21-.09-.15-.15c0-.1-.09-10.23,0-17.64-.17-3.53.69-6.29,2.55-8.2,1.7-1.74,4.19-2.67,7-2.6,4.58.11,10.02,2.1,9.97,10.99-.05,7.95,0,17.44,0,17.54l-.15.15ZM60.46,170.41l18.9.09c0-1.27-.04-9.99,0-17.39.05-8.64-5.23-10.58-9.67-10.68-2.72-.06-5.13.83-6.77,2.51-1.8,1.85-2.63,4.53-2.47,7.98-.08,6.91-.01,16.19,0,17.49Z"/>
            </g>
            <g id="g3777-5">
              <g>
                <path id="rect2318-8" class="cls-3" d="M66.96,140.8c1.75-1.25,3.56-1.54,5.51,0l-1.18,5.46-3.1.03-1.23-5.49h0Z"/>
                <path d="M68.2,146.44l-.14-.11-1.23-5.49.06-.15c2.01-1.43,3.87-1.43,5.68,0l.05.14-1.18,5.46-.14.11-3.1.03ZM67.12,140.86l1.19,5.29,2.86-.03,1.14-5.26c-1.68-1.29-3.33-1.29-5.19,0Z"/>
              </g>
              <g>
                <path id="path3295-6" class="cls-3" d="M58.6,159.61h22.54c0,1.16.12,3.23,0,3.85h-22.54s.05-3.82,0-3.85Z"/>
                <path d="M81.14,163.6h-22.54v-.03l-.06.02.03-.14-.11-.03c.04-.24.04-3.55,0-3.77l.09-.02.05-.17h22.54l.14.14c0,.37.01.84.03,1.32.03,1.04.06,2.12-.03,2.55l-.14.12ZM58.74,163.31h22.27c.06-.47.03-1.48,0-2.37-.01-.43-.02-.84-.02-1.19h-22.25c.08.76.02,2.88,0,3.56Z"/>
              </g>
              <g>
                <path id="path3297-1" class="cls-3" d="M57.9,166.4h23.98v4.51h-23.98s0-3.61,0-4.51h0Z"/>
                <path d="M81.89,171.06h-23.98v-.02h-.06s.03-.13.03-.13l-.11-.03c.03-.15.01-1.99,0-3.21,0-.54,0-1.02,0-1.27l.14-.14h23.98l.14.14v4.51l-.14.14ZM58.06,170.77h23.68v-4.23h-23.69c0,.27,0,.67,0,1.12.02,1.97.02,2.77,0,3.1Z"/>
              </g>
              <g>
                <path id="path3305-2" class="cls-3" d="M77.04,143.28l-3.57,4.31c.73-.37,2.52,1.55,2.28,2.86l3.66-4.03c-.44-1.1-1.1-2.46-2.36-3.15h0Z"/>
                <path d="M75.86,150.55l-.25-.12c.14-.79-.55-1.91-1.28-2.45-.33-.24-.62-.34-.79-.25l-.18-.22,3.57-4.31.18-.04c1.27.69,1.94,2.01,2.43,3.22l-.03.15-3.66,4.03ZM73.81,147.41c.21.03.44.15.69.33.68.51,1.34,1.47,1.41,2.32l3.33-3.67c-.45-1.1-1.06-2.29-2.16-2.93l-3.27,3.95Z"/>
              </g>
              <g>
                <path id="rect3290-4" class="cls-3" d="M62.51,143.24l3.57,4.31c-.73-.37-2.52,1.55-2.28,2.86l-3.66-3.92c.44-1.1,1.1-2.57,2.36-3.25h0Z"/>
                <path d="M63.69,150.52l-3.66-3.92-.03-.15c.54-1.34,1.2-2.67,2.43-3.32l.18.04,3.57,4.31-.18.22c-.17-.08-.46.01-.79.25-.73.55-1.42,1.66-1.28,2.45l-.25.12ZM60.31,146.46l3.33,3.57c.07-.85.72-1.81,1.41-2.33.25-.19.48-.3.69-.33l-3.27-3.95c-1.05.62-1.66,1.82-2.16,3.03Z"/>
              </g>
              <g>
                <path id="path5355-2" class="cls-3" d="M58.6,152.58h22.54c0,1.16.12,3.23,0,3.85h-22.54s.05-3.82,0-3.85Z"/>
                <path d="M81.14,156.58h-22.54v-.03l-.06.02.03-.14-.11-.03c.04-.24.04-3.55,0-3.77l.09-.02.05-.17h22.54l.14.14c0,.37.01.84.03,1.32.03,1.04.06,2.12-.03,2.55l-.14.12ZM58.74,156.29h22.27c.06-.47.03-1.48,0-2.37-.01-.43-.02-.84-.02-1.19h-22.25c.08.76.02,2.88,0,3.56Z"/>
              </g>
            </g>
            <g>
              <path id="path7181-5" class="cls-2" d="M63.01,170.91s.03-14.88,0-15.89c-.28-7.56,3.79-9.27,6.75-9.27s7.04,1.49,7.04,9.45v15.73h-13.78Z"/>
              <path d="M76.79,171.08h-13.78s-.15-.17-.15-.17c0-.15.03-14.88,0-15.89-.12-3.39.6-5.92,2.16-7.54,1.59-1.65,3.65-1.89,4.74-1.89,2.69,0,7.19,1.25,7.19,9.6v15.73l-.15.15ZM63.16,170.76h13.48s0-15.57,0-15.57c0-7.68-3.74-9.29-6.88-9.29-1.04,0-3.01.23-4.52,1.8-1.5,1.55-2.2,4.01-2.08,7.31.03.97,0,14.08,0,15.75Z"/>
            </g>
          </g>
          <g>
            <path id="path10438" class="cls-3" d="M101.36,104.05l-.08,4.83M94.43,104.05v4.68M87.5,104.05v4.68M80.56,104.05v4.68M73.63,104.05v4.68M66.7,104.05v4.68M59.76,104.05v4.68M52.83,104.05v4.68M45.9,104.05v4.68M38.97,104.05v4.68M32.63,108.6h74.53"/>
            <polygon points="101.46 108.89 101.1 108.88 101.1 108.79 32.63 108.79 32.63 108.42 38.78 108.42 38.78 104.05 39.15 104.05 39.15 108.42 45.72 108.42 45.72 104.05 46.08 104.05 46.08 108.42 52.65 108.42 52.65 104.05 53.02 104.05 53.02 108.42 59.58 108.42 59.58 104.05 59.95 104.05 59.95 108.42 66.51 108.42 66.51 104.05 66.88 104.05 66.88 108.42 73.45 108.42 73.45 104.05 73.81 104.05 73.81 108.42 80.38 108.42 80.38 104.05 80.75 104.05 80.75 108.42 87.31 108.42 87.31 104.05 87.68 104.05 87.68 108.42 94.24 108.42 94.24 104.05 94.61 104.05 94.61 108.42 101.1 108.42 101.18 104.05 101.55 104.05 101.47 108.42 107.16 108.42 107.16 108.79 101.47 108.79 101.46 108.89"/>
          </g>
          <g>
            <path id="path10378-3" class="cls-3" d="M101.36,113.67l-.08,4.83M94.43,113.67v4.68M87.5,113.67v4.68M80.56,113.67v4.68M73.63,113.67v4.68M66.7,113.67v4.68M59.76,113.67v4.68M52.83,113.67v4.68M45.9,113.67v4.68M38.97,113.67v4.68M32.63,118.22h74.53"/>
            <polygon points="101.46 118.51 101.1 118.5 101.1 118.41 32.63 118.41 32.63 118.04 38.78 118.04 38.78 113.67 39.15 113.67 39.15 118.04 45.72 118.04 45.72 113.67 46.08 113.67 46.08 118.04 52.65 118.04 52.65 113.67 53.02 113.67 53.02 118.04 59.58 118.04 59.58 113.67 59.95 113.67 59.95 118.04 66.51 118.04 66.51 113.67 66.88 113.67 66.88 118.04 73.45 118.04 73.45 113.67 73.81 113.67 73.81 118.04 80.38 118.04 80.38 113.67 80.75 113.67 80.75 118.04 87.31 118.04 87.31 113.67 87.68 113.67 87.68 118.04 94.24 118.04 94.24 113.67 94.61 113.67 94.61 118.04 101.1 118.04 101.18 113.67 101.55 113.67 101.47 118.04 107.16 118.04 107.16 118.41 101.47 118.41 101.46 118.51"/>
          </g>
          <g id="g10430">
            <g>
              <path id="path10432" class="cls-3" d="M104.78,118.63v4.36M98.14,118.51v4.77M91.2,118.51v4.77M84.27,118.51v4.77M77.34,118.51l-.08,4.77M70.4,118.51v4.77M63.47,118.51l-.08,4.77M56.54,118.51v4.77M49.61,118.51v4.77M42.67,118.51v4.77M35.74,118.51v4.77M32.63,123.04h74.53"/>
              <polygon points="77.44 123.28 77.07 123.28 77.07 123.22 70.59 123.22 70.59 123.28 70.22 123.28 70.22 123.22 63.58 123.22 63.57 123.28 63.21 123.28 63.21 123.22 56.72 123.22 56.72 123.28 56.36 123.28 56.36 123.22 49.79 123.22 49.79 123.28 49.42 123.28 49.42 123.22 42.86 123.22 42.86 123.28 42.49 123.28 42.49 123.22 35.93 123.22 35.93 123.28 35.56 123.28 35.56 123.22 32.63 123.22 32.63 122.86 35.56 122.86 35.56 118.51 35.93 118.51 35.93 122.86 42.49 122.86 42.49 118.51 42.86 118.51 42.86 122.86 49.42 122.86 49.42 118.51 49.79 118.51 49.79 122.86 56.36 122.86 56.36 118.51 56.72 118.51 56.72 122.86 63.21 122.86 63.29 118.51 63.66 118.51 63.58 122.86 70.22 122.86 70.22 118.51 70.59 118.51 70.59 122.86 77.08 122.86 77.15 118.51 77.52 118.51 77.45 122.86 84.09 122.86 84.09 118.51 84.45 118.51 84.45 122.86 91.02 122.86 91.02 118.51 91.39 118.51 91.39 122.86 97.95 122.86 97.95 118.51 98.32 118.51 98.32 122.86 104.59 122.86 104.59 118.63 104.96 118.63 104.96 122.86 107.16 122.86 107.16 123.22 98.32 123.22 98.32 123.28 97.95 123.28 97.95 123.22 91.39 123.22 91.39 123.28 91.02 123.28 91.02 123.22 84.45 123.22 84.45 123.28 84.09 123.28 84.09 123.22 77.44 123.22 77.44 123.28"/>
            </g>
            <g>
              <path id="path10434" class="cls-3" d="M101.36,123.29l-.08,4.83M94.43,123.29v4.68M87.5,123.29v4.68M80.56,123.29v4.68M73.63,123.29v4.68M66.7,123.29v4.68M59.77,123.29v4.68M52.83,123.29v4.68M45.9,123.29v4.68M38.97,123.29v4.68M32.63,127.84h74.53"/>
              <polygon points="101.46 128.12 101.1 128.12 101.1 128.03 32.63 128.03 32.63 127.66 38.78 127.66 38.78 123.29 39.15 123.29 39.15 127.66 45.72 127.66 45.72 123.29 46.08 123.29 46.08 127.66 52.65 127.66 52.65 123.29 53.02 123.29 53.02 127.66 59.58 127.66 59.58 123.29 59.95 123.29 59.95 127.66 66.51 127.66 66.51 123.29 66.88 123.29 66.88 127.66 73.45 127.66 73.45 123.29 73.81 123.29 73.81 127.66 80.38 127.66 80.38 123.29 80.75 123.29 80.75 127.66 87.31 127.66 87.31 123.29 87.68 123.29 87.68 127.66 94.24 127.66 94.24 123.29 94.61 123.29 94.61 127.66 101.1 127.66 101.18 123.28 101.55 123.29 101.47 127.66 107.16 127.66 107.16 128.03 101.47 128.03 101.46 128.12"/>
            </g>
          </g>
          <g id="g11982">
            <g>
              <path id="path20797-1-6-7-7-3" class="cls-2" d="M96.16,124.01s-.06-3.7-.04-5.49c.02-1.79.88-2.34,1.76-2.31.88.03,1.7.46,1.74,2.35.04,1.89-.01,5.45-.01,5.45h-3.45s0,0,0,0Z"/>
              <path d="M99.61,124.25h-3.45s-.24-.24-.24-.24c0-.04-.06-3.73-.04-5.5.01-.94.25-1.64.7-2.08.34-.32.79-.49,1.31-.47,1.29.04,1.94.89,1.97,2.59.04,1.88-.01,5.42-.01,5.46l-.24.24ZM96.4,123.76h2.97c.01-.83.04-3.62,0-5.2-.04-1.84-.82-2.1-1.5-2.12-.39-.01-.71.1-.96.34-.36.34-.54.92-.55,1.73-.02,1.5.02,4.4.03,5.25Z"/>
            </g>
            <g>
              <path id="path20797-1-6-7-7-3-9" class="cls-2" d="M40.19,124.01s-.06-3.7-.04-5.49c.02-1.79.88-2.34,1.76-2.31s1.7.46,1.74,2.35c.04,1.89-.01,5.45-.01,5.45h-3.45s0,0,0,0Z"/>
              <path d="M43.64,124.25h-3.45s-.24-.24-.24-.24c0-.04-.06-3.73-.04-5.5.01-.94.25-1.64.7-2.08.34-.32.79-.49,1.31-.47,1.29.04,1.94.89,1.97,2.59.04,1.88-.01,5.42-.01,5.46l-.24.24ZM40.43,123.76h2.97c.01-.83.04-3.62,0-5.2-.04-1.84-.82-2.1-1.5-2.12-.38-.01-.71.1-.96.34-.36.34-.54.92-.55,1.73-.02,1.5.02,4.4.03,5.25Z"/>
            </g>
          </g>
        </g>
      </g>
      <g id="g4610">
        <g id="g5181">
          <g id="g5183">
            <g id="g5185">
              <g id="g5187">
                <g id="g5189">
                  <g id="g5191">
                    <g>
                      <path id="path5193" class="cls-3" d="M141.66,63.36s-.04-.03-.08.02c-1.46,1.29-2.77,2.48-3.79,3.81-2.86,3.73-3.81,7.78-2.21,11.05,3.17,6.93,4.38,8.69,4.38,14.2l-.76,3.43c-.11,1.76-1.32,3.17-3.59,3.96.29.74.4.84,2.8,3.35,1.62,1.38,1.47,1.3,3.16,2.76.04.03.04.03.08,0,1.69-1.46,1.75-1.48,3.58-3.3,2.19-2.4,2.71-1.52,2.38-2.81-2.27-.79-2.65-2.95-2.75-4.72l-1.59-2.66c0-5.52,1.21-7.28,4.38-14.2,1.6-3.27.64-7.32-2.21-11.05-1.02-1.34-2.32-2.54-3.79-3.83h0Z"/>
                      <path d="M141.62,106.29c-.08,0-.17-.03-.25-.1-.82-.71-1.21-1.05-1.57-1.37-.39-.35-.76-.67-1.6-1.39l-.16-.17c-2.28-2.38-2.42-2.53-2.73-3.32l-.13-.32.33-.11c2.1-.73,3.26-1.99,3.36-3.66v-.05s.76-3.39.76-3.39c0-4.69-.88-6.56-3.2-11.54-.35-.75-.74-1.58-1.15-2.49-1.6-3.28-.78-7.43,2.25-11.39,1.06-1.38,2.41-2.61,3.82-3.85.18-.19.39-.14.52-.04h.01c1.63,1.44,2.84,2.59,3.83,3.89,3.03,3.96,3.85,8.11,2.25,11.4-.41.9-.8,1.73-1.15,2.48-2.31,4.96-3.19,6.83-3.2,11.48l1.59,2.65v.08c.11,1.79.5,3.72,2.53,4.42l.17.06.04.17c.22.85.09,1.04-.51,1.43-.37.24-.99.64-1.95,1.68-1.71,1.7-1.88,1.85-3.24,3.02l-.36.31c-.08.07-.16.11-.25.11ZM141.43,105.69s0,0,0,0h0ZM136.06,100.01c.21.44.59.83,2.46,2.79l.14.14c.83.7,1.19,1.03,1.59,1.38.33.3.69.61,1.37,1.2l.18-.16c1.34-1.16,1.52-1.3,3.2-2.98,1-1.09,1.67-1.53,2.07-1.78.3-.2.34-.22.27-.54-2.24-.87-2.68-3.04-2.8-4.87l-1.6-2.67v-.09c0-4.86.96-6.91,3.26-11.86.35-.75.73-1.57,1.15-2.48,1.49-3.06.7-6.96-2.17-10.71-.92-1.2-2.05-2.28-3.55-3.61-1.32,1.17-2.59,2.33-3.57,3.61-2.87,3.75-3.67,7.65-2.18,10.7.42.92.8,1.74,1.15,2.49,2.31,4.95,3.26,6.99,3.26,11.86v.07s-.76,3.4-.76,3.4c-.12,1.82-1.35,3.27-3.47,4.1Z"/>
                    </g>
                    <g>
                      <path id="path5195" class="cls-3" d="M143.98,96.21c1.67,3.14,1.84,3.04,4.12,4.01,3.77-1.33,3.81-1.4,4.04-4.97-2.67,2.72-5.93-.36-6.42-2.92-.49-2.56,1.08-5.37,2.21-5.96.7-.49,2.2-.71,3.53-.14,1.74.85,1.81,3.27.94,4.38,8.2-1.3,7.39-8.08,4.59-10.54-2.26-1.99-4.72-2.3-6.62-1.67-4.31,1.32-7.77,5.73-7.91,12.32,0-.07.75,2.99,1.52,5.49h0Z"/>
                      <path d="M148.09,100.58l-.54-.23c-1.95-.82-2.25-.95-3.86-3.98l-.02-.06c-.56-1.8-1.1-3.9-1.36-4.9-.08-.32-.14-.53-.15-.58l.32-.1h0s-.34-.01-.34-.01v-.3c.23-6.06,3.41-10.89,8.15-12.34,2.29-.76,4.82-.12,6.94,1.74,1.46,1.29,2.56,3.9,1.84,6.39-.42,1.44-1.83,3.97-6.6,4.73l-.84.13.53-.67c.42-.54.58-1.44.4-2.25-.17-.74-.6-1.32-1.22-1.62-1.17-.5-2.54-.33-3.19.12l-.04.02c-.99.51-2.5,3.17-2.04,5.6.26,1.39,1.48,3.11,3.05,3.59,1.01.31,1.96.02,2.8-.84l.63-.64-.06.89c-.23,3.69-.39,3.89-4.26,5.26l-.12.04ZM144.29,96.08c1.49,2.8,1.68,2.88,3.51,3.65l.31.13c3.18-1.13,3.46-1.26,3.64-3.84-1.08.76-2.12.7-2.85.48-1.81-.55-3.21-2.52-3.51-4.11-.5-2.63,1.09-5.62,2.37-6.31.79-.54,2.4-.78,3.83-.16.82.4,1.38,1.14,1.6,2.08.17.73.11,1.51-.15,2.15,3.66-.77,4.95-2.64,5.38-4.13.65-2.23-.34-4.56-1.64-5.7-1.93-1.7-4.23-2.29-6.29-1.6-4.53,1.39-7.54,6.09-7.68,11.97.04.13.09.31.15.55.26,1,.79,3.06,1.34,4.85Z"/>
                    </g>
                    <g>
                      <path id="path5197" class="cls-3" d="M139.36,96.2c-1.67,3.14-1.84,3.04-4.12,4.01-3.77-1.33-3.81-1.4-4.04-4.97,2.67,2.72,5.93-.36,6.42-2.92.49-2.56-1.08-5.37-2.21-5.96-.7-.49-2.2-.71-3.53-.14-1.74.85-1.81,3.27-.94,4.38-8.2-1.3-7.39-8.08-4.59-10.54,2.26-1.99,4.72-2.3,6.62-1.67,4.31,1.32,7.77,5.73,7.91,12.32,0-.07-.75,2.99-1.52,5.49Z"/>
                      <path d="M135.26,100.57l-.12-.04c-3.87-1.37-4.03-1.57-4.26-5.26l-.06-.89.63.64c.85.86,1.79,1.15,2.8.84,1.57-.48,2.79-2.2,3.05-3.59.46-2.43-1.05-5.08-2.04-5.6l-.04-.02c-.65-.45-2.02-.61-3.21-.11-.6.3-1.04.87-1.21,1.61-.18.81-.03,1.71.4,2.25l.53.67-.84-.13c-3.54-.56-5.88-2.24-6.6-4.73-.72-2.5.38-5.1,1.84-6.39,2.12-1.86,4.65-2.5,6.94-1.74,4.73,1.45,7.91,6.28,8.13,12.34h0s0,.3,0,.3h-.32s.3.11.3.11c-.02.05-.07.26-.15.58-.26,1.01-.8,3.1-1.36,4.9l-.02.06c-1.61,3.03-1.91,3.16-3.86,3.98l-.54.23ZM131.59,96.01c.18,2.58.46,2.71,3.64,3.84l.31-.13c1.83-.77,2.03-.85,3.51-3.65.55-1.78,1.08-3.85,1.34-4.84.06-.24.11-.42.15-.55-.14-5.88-3.15-10.58-7.67-11.97-2.07-.68-4.37-.1-6.3,1.6-1.3,1.15-2.28,3.48-1.64,5.7.43,1.48,1.72,3.36,5.38,4.13-.25-.64-.31-1.42-.15-2.15.21-.94.78-1.68,1.58-2.07,1.45-.62,3.06-.38,3.85.16,1.28.68,2.87,3.68,2.37,6.31-.3,1.59-1.7,3.56-3.51,4.11-.73.22-1.77.28-2.85-.48Z"/>
                    </g>
                    <g>
                      <path id="rect5199" class="cls-6" d="M136.52,90.13h9.94c.95,0,1.73.81,1.73,1.8h0c0,.99-.77,1.8-1.73,1.8h-9.94c-.95,0-1.73-.81-1.73-1.8h0c0-.99.77-1.8,1.73-1.8Z"/>
                      <path d="M146.46,94.07h-9.94c-1.14,0-2.06-.96-2.06-2.14s.92-2.14,2.06-2.14h9.94c1.14,0,2.06.96,2.06,2.14s-.92,2.14-2.06,2.14ZM136.52,90.46c-.77,0-1.39.66-1.39,1.47s.62,1.47,1.39,1.47h9.94c.77,0,1.39-.66,1.39-1.47s-.62-1.47-1.39-1.47h-9.94Z"/>
                    </g>
                  </g>
                  <g>
                    <rect id="rect5201" class="cls-4" x="141.58" y="64.13" width=".11" height="26.08"/>
                    <rect x="141.24" y="63.79" width=".78" height="26.74"/>
                  </g>
                  <g>
                    <rect id="rect5203" class="cls-4" x="141.58" y="94.38" width=".18" height="11.69"/>
                    <rect x="141.24" y="94.05" width=".84" height="12.36"/>
                  </g>
                  <g>
                    <rect id="rect5205" class="cls-4" x="135.19" y="91.26" width="12.51" height=".17"/>
                    <rect x="134.85" y="90.93" width="13.18" height=".84"/>
                  </g>
                </g>
                <path d="M153.31,90.49l-.53-.4c1.71-2.28,2.26-4.18,1.56-5.37-.58-.98-2.05-1.43-3.85-1.18-2.82.4-6.32,2.55-7.3,6.35l-.65-.17c1.07-4.12,4.72-6.4,7.86-6.84,2.1-.3,3.79.26,4.52,1.5.6,1.01.81,2.89-1.6,6.11Z"/>
                <path d="M129.85,90.53c-2.41-3.21-2.2-5.1-1.6-6.11.73-1.23,2.42-1.79,4.52-1.5,3.14.44,6.79,2.73,7.86,6.84l-.65.17c-.99-3.8-4.48-5.95-7.3-6.35-1.8-.25-3.27.2-3.85,1.18-.7,1.18-.15,3.09,1.56,5.37l-.53.4Z"/>
              </g>
            </g>
          </g>
          <path d="M134.69,98.5s-.05,0-.08,0c-1.24-.03-2.41-.9-3.49-2.58l.56-.36c.95,1.48,1.95,2.25,2.95,2.27,1.8.04,3.47-2.24,4.56-3.76l.15-.21.54.39-.15.21c-1.16,1.61-2.92,4.03-5.05,4.03Z"/>
          <path d="M148.63,98.64c-2.13,0-3.88-2.42-5.05-4.04l-.15-.21.54-.39.15.21c1.1,1.52,2.75,3.8,4.56,3.76,1-.03,2-.79,2.95-2.27l.56.36c-1.08,1.68-2.26,2.54-3.49,2.58-.03,0-.05,0-.08,0Z"/>
        </g>
        <g id="g4542">
          <g id="g4544">
            <g id="g4546">
              <g id="g4548">
                <g id="g4550">
                  <g id="g4552">
                    <g>
                      <path id="path4554" class="cls-3" d="M182.66,63.36s-.04-.03-.08.02c-1.46,1.29-2.77,2.48-3.79,3.81-2.86,3.73-3.81,7.78-2.21,11.05,3.17,6.93,4.38,8.69,4.38,14.2l-.76,3.43c-.11,1.76-1.32,3.17-3.59,3.96.29.74.4.84,2.8,3.35,1.62,1.38,1.47,1.3,3.16,2.76.04.03.04.03.08,0,1.69-1.46,1.75-1.48,3.58-3.3,2.19-2.4,2.71-1.52,2.38-2.81-2.27-.79-2.65-2.95-2.75-4.72l-1.59-2.66c0-5.52,1.21-7.28,4.38-14.2,1.6-3.27.64-7.32-2.21-11.05-1.02-1.34-2.32-2.54-3.79-3.83h0Z"/>
                      <path d="M182.63,106.29c-.08,0-.17-.03-.25-.1-.82-.71-1.21-1.05-1.57-1.37-.39-.35-.76-.67-1.6-1.39l-.16-.17c-2.28-2.38-2.42-2.53-2.73-3.32l-.13-.32.33-.11c2.1-.73,3.26-1.99,3.36-3.66v-.05s.76-3.39.76-3.39c0-4.69-.88-6.56-3.2-11.54-.35-.75-.74-1.58-1.15-2.49-1.6-3.28-.78-7.43,2.25-11.39,1.06-1.38,2.41-2.61,3.82-3.85.18-.19.39-.14.52-.04h.01c1.63,1.44,2.84,2.59,3.83,3.89,3.03,3.96,3.85,8.11,2.25,11.4-.41.9-.8,1.73-1.15,2.48-2.31,4.96-3.19,6.83-3.2,11.48l1.59,2.65v.08c.11,1.79.5,3.72,2.53,4.42l.17.06.04.17c.22.85.09,1.04-.51,1.43-.37.24-1,.64-1.95,1.68-1.71,1.7-1.88,1.85-3.24,3.02l-.36.31c-.08.07-.16.11-.25.11ZM182.43,105.69h0s0,0,0,0ZM177.07,100.01c.21.44.59.83,2.46,2.79l.14.14c.83.7,1.19,1.03,1.59,1.38.33.3.69.61,1.37,1.2l.18-.16c1.34-1.16,1.52-1.3,3.2-2.98,1-1.09,1.67-1.53,2.07-1.78.3-.2.34-.22.27-.54-2.24-.87-2.68-3.04-2.8-4.87l-1.6-2.67v-.09c0-4.86.96-6.91,3.26-11.86.35-.75.73-1.57,1.15-2.48,1.49-3.06.7-6.96-2.17-10.71-.92-1.2-2.05-2.28-3.55-3.61-1.32,1.17-2.59,2.33-3.57,3.61-2.87,3.75-3.67,7.65-2.18,10.7.42.92.8,1.74,1.16,2.49,2.31,4.95,3.26,6.99,3.26,11.86v.07s-.76,3.4-.76,3.4c-.12,1.82-1.35,3.27-3.47,4.1Z"/>
                    </g>
                    <g>
                      <path id="path4556" class="cls-3" d="M184.98,96.21c1.67,3.14,1.84,3.04,4.12,4.01,3.77-1.33,3.81-1.4,4.04-4.97-2.67,2.72-5.93-.36-6.42-2.92-.49-2.56,1.08-5.37,2.21-5.96.7-.49,2.2-.71,3.53-.14,1.74.85,1.81,3.27.94,4.38,8.2-1.3,7.39-8.08,4.59-10.54-2.26-1.99-4.72-2.3-6.62-1.67-4.31,1.32-7.77,5.73-7.91,12.32,0-.07.75,2.99,1.52,5.49h0Z"/>
                      <path d="M189.09,100.58l-.54-.23c-1.95-.82-2.25-.95-3.86-3.98l-.02-.06c-.56-1.8-1.1-3.9-1.36-4.9-.08-.32-.14-.53-.15-.58l.32-.1h0s-.34-.01-.34-.01v-.3c.23-6.06,3.41-10.89,8.15-12.34,2.29-.76,4.82-.12,6.94,1.74,1.46,1.29,2.56,3.9,1.84,6.39-.72,2.49-3.06,4.16-6.6,4.73l-.84.13.53-.67c.42-.54.58-1.44.4-2.25-.17-.74-.6-1.32-1.22-1.62-1.17-.5-2.54-.33-3.19.12l-.04.02c-.99.51-2.5,3.17-2.04,5.6.26,1.39,1.48,3.11,3.05,3.59,1.01.31,1.96.02,2.8-.84l.63-.64-.06.89c-.23,3.69-.39,3.89-4.26,5.26l-.12.04ZM185.29,96.08c1.49,2.8,1.68,2.88,3.51,3.65l.31.13c3.18-1.13,3.46-1.26,3.64-3.84-1.08.76-2.12.7-2.85.48-1.81-.55-3.21-2.52-3.51-4.11-.5-2.63,1.09-5.62,2.37-6.31.79-.54,2.4-.78,3.83-.16.82.4,1.38,1.14,1.6,2.08.17.73.11,1.51-.15,2.15,3.66-.77,4.95-2.64,5.38-4.13.65-2.23-.33-4.56-1.64-5.7-1.93-1.7-4.23-2.29-6.29-1.6-4.53,1.39-7.54,6.09-7.68,11.97.04.13.09.31.15.55.26,1,.79,3.06,1.34,4.85Z"/>
                    </g>
                    <g>
                      <path id="path4558" class="cls-3" d="M180.37,96.2c-1.67,3.14-1.84,3.04-4.12,4.01-3.77-1.33-3.81-1.4-4.04-4.97,2.67,2.72,5.93-.36,6.42-2.92.49-2.56-1.08-5.37-2.21-5.96-.7-.49-2.2-.71-3.53-.14-1.74.85-1.81,3.27-.94,4.38-8.2-1.3-7.39-8.08-4.59-10.54,2.26-1.99,4.72-2.3,6.62-1.67,4.31,1.32,7.77,5.73,7.91,12.32,0-.07-.75,2.99-1.52,5.49Z"/>
                      <path d="M176.26,100.57l-.12-.04c-3.87-1.37-4.03-1.57-4.26-5.26l-.06-.89.63.64c.85.86,1.79,1.15,2.8.84,1.57-.48,2.79-2.2,3.05-3.59.46-2.43-1.05-5.08-2.04-5.6l-.04-.02c-.65-.45-2.02-.62-3.21-.11-.6.3-1.04.87-1.21,1.61-.18.81-.02,1.71.4,2.25l.53.67-.84-.13c-3.54-.56-5.88-2.24-6.6-4.73-.72-2.5.38-5.11,1.84-6.39,2.12-1.86,4.65-2.5,6.94-1.74,4.73,1.45,7.91,6.28,8.13,12.34h0s0,.3,0,.3h-.32s.3.11.3.11c-.02.05-.07.26-.15.58-.26,1.01-.8,3.1-1.36,4.9l-.02.06c-1.61,3.03-1.91,3.16-3.86,3.98l-.54.23ZM172.6,96.01c.18,2.58.46,2.71,3.64,3.84l.31-.13c1.83-.77,2.03-.85,3.51-3.65.55-1.78,1.08-3.85,1.34-4.84.06-.24.11-.42.15-.55-.14-5.88-3.15-10.58-7.67-11.97-2.07-.68-4.37-.1-6.3,1.6-1.3,1.15-2.28,3.48-1.64,5.7.43,1.48,1.72,3.36,5.38,4.13-.25-.64-.31-1.42-.15-2.15.21-.94.78-1.68,1.58-2.07,1.45-.62,3.06-.38,3.85.16,1.28.68,2.87,3.68,2.37,6.31-.3,1.59-1.7,3.56-3.51,4.11-.73.22-1.77.28-2.85-.48Z"/>
                    </g>
                    <g>
                      <path id="rect4560" class="cls-6" d="M177.52,90.13h9.94c.95,0,1.73.81,1.73,1.8h0c0,.99-.77,1.8-1.73,1.8h-9.94c-.95,0-1.73-.81-1.73-1.8h0c0-.99.77-1.8,1.73-1.8Z"/>
                      <path d="M187.46,94.07h-9.94c-1.14,0-2.06-.96-2.06-2.14s.92-2.14,2.06-2.14h9.94c1.14,0,2.06.96,2.06,2.14s-.92,2.14-2.06,2.14ZM177.52,90.46c-.77,0-1.39.66-1.39,1.47s.62,1.47,1.39,1.47h9.94c.77,0,1.39-.66,1.39-1.47s-.62-1.47-1.39-1.47h-9.94Z"/>
                    </g>
                  </g>
                  <g>
                    <rect id="rect4562" class="cls-4" x="182.58" y="64.13" width=".11" height="26.08"/>
                    <rect x="182.25" y="63.79" width=".78" height="26.74"/>
                  </g>
                  <g>
                    <rect id="rect4564" class="cls-4" x="182.58" y="94.38" width=".18" height="11.69"/>
                    <rect x="182.25" y="94.05" width=".84" height="12.36"/>
                  </g>
                  <g>
                    <rect id="rect4566" class="cls-4" x="176.19" y="91.26" width="12.51" height=".17"/>
                    <rect x="175.86" y="90.93" width="13.18" height=".84"/>
                  </g>
                </g>
                <path d="M194.31,90.49l-.53-.4c1.71-2.28,2.26-4.18,1.56-5.37-.58-.98-2.05-1.43-3.85-1.18-2.82.4-6.32,2.55-7.3,6.35l-.65-.17c1.07-4.12,4.72-6.4,7.86-6.84,2.1-.3,3.79.26,4.52,1.5.6,1.01.81,2.89-1.6,6.11Z"/>
                <path d="M170.86,90.53c-2.41-3.21-2.2-5.1-1.6-6.11.73-1.23,2.42-1.79,4.52-1.5,3.14.44,6.79,2.73,7.86,6.84l-.65.17c-.99-3.8-4.48-5.95-7.3-6.35-1.8-.25-3.27.2-3.85,1.18-.7,1.18-.15,3.09,1.56,5.37l-.53.4Z"/>
              </g>
            </g>
          </g>
          <path d="M175.69,98.5s-.05,0-.08,0c-1.24-.03-2.41-.9-3.49-2.58l.56-.36c.95,1.48,1.95,2.25,2.95,2.27.02,0,.04,0,.06,0,1.79,0,3.42-2.26,4.51-3.76l.15-.21.54.39-.15.21c-1.16,1.61-2.92,4.03-5.05,4.03Z"/>
          <path d="M189.64,98.64c-2.13,0-3.88-2.42-5.05-4.04l-.15-.21.54-.39.15.21c1.1,1.52,2.74,3.8,4.56,3.76,1-.03,2-.79,2.95-2.27l.56.36c-1.08,1.68-2.26,2.54-3.49,2.58-.03,0-.05,0-.08,0Z"/>
        </g>
      </g>
      <g id="g4576">
        <g id="g4578">
          <g id="g4580">
            <g id="g4582">
              <g id="g4584">
                <g id="g4586">
                  <g>
                    <path id="path4588" class="cls-3" d="M162.16,118.65s-.04-.03-.08.02c-1.46,1.29-2.77,2.48-3.79,3.81-2.86,3.73-3.81,7.78-2.21,11.05,3.17,6.93,4.38,8.69,4.38,14.2l-.76,3.43c-.11,1.76-1.32,3.17-3.59,3.96.29.74.4.84,2.8,3.35,1.62,1.38,1.47,1.3,3.16,2.76.04.03.04.03.08,0,1.69-1.46,1.75-1.48,3.58-3.3,2.19-2.4,2.71-1.52,2.38-2.81-2.27-.79-2.65-2.95-2.75-4.72l-1.59-2.66c0-5.52,1.21-7.28,4.38-14.2,1.6-3.27.64-7.32-2.21-11.05-1.02-1.34-2.32-2.54-3.79-3.83h0Z"/>
                    <path d="M162.13,161.58c-.08,0-.17-.03-.25-.1-.82-.71-1.21-1.05-1.57-1.37-.39-.35-.75-.67-1.6-1.39l-.16-.16c-2.29-2.39-2.42-2.53-2.74-3.32l-.13-.32.33-.11c2.1-.73,3.26-1.99,3.36-3.66v-.05s.76-3.39.76-3.39c0-4.69-.88-6.56-3.2-11.54-.35-.75-.74-1.58-1.15-2.49-1.6-3.28-.78-7.43,2.25-11.39,1.06-1.38,2.41-2.61,3.82-3.85.18-.19.39-.14.52-.04h.01c1.63,1.44,2.84,2.59,3.83,3.89,3.03,3.96,3.85,8.11,2.25,11.4-.41.9-.8,1.73-1.15,2.48-2.31,4.96-3.19,6.83-3.2,11.48l1.59,2.65v.08c.11,1.79.5,3.72,2.53,4.42l.17.06.04.17c.22.85.09,1.04-.51,1.43-.37.24-1,.64-1.95,1.68-1.71,1.7-1.88,1.85-3.24,3.02l-.36.31c-.08.07-.16.11-.25.11ZM161.93,160.98h0s0,0,0,0ZM156.57,155.3c.22.44.59.83,2.46,2.79l.13.14c.83.7,1.19,1.03,1.59,1.38.33.3.69.61,1.37,1.2l.19-.16c1.34-1.15,1.51-1.3,3.19-2.97,1-1.09,1.67-1.53,2.07-1.78.3-.2.34-.22.27-.54-2.24-.87-2.68-3.04-2.8-4.87l-1.6-2.67v-.09c0-4.86.96-6.91,3.26-11.86.35-.75.73-1.57,1.15-2.48,1.49-3.06.7-6.96-2.17-10.71-.92-1.2-2.05-2.28-3.55-3.61-1.32,1.17-2.59,2.33-3.57,3.61-2.87,3.75-3.67,7.65-2.18,10.7.42.92.8,1.74,1.16,2.49,2.31,4.95,3.26,6.99,3.26,11.86v.07s-.76,3.4-.76,3.4c-.12,1.82-1.35,3.27-3.47,4.1Z"/>
                  </g>
                  <g>
                    <path id="path4590" class="cls-3" d="M164.48,151.5c1.67,3.14,1.84,3.04,4.12,4.01,3.77-1.33,3.81-1.4,4.04-4.97-2.67,2.72-5.93-.36-6.42-2.92-.49-2.56,1.08-5.37,2.21-5.96.7-.49,2.2-.71,3.53-.14,1.74.85,1.81,3.27.94,4.38,8.2-1.3,7.39-8.08,4.59-10.54-2.26-1.99-4.72-2.3-6.62-1.67-4.31,1.32-7.77,5.73-7.91,12.32,0-.07.75,2.99,1.52,5.49h0Z"/>
                    <path d="M168.59,155.87l-.54-.23c-1.95-.82-2.25-.95-3.86-3.98l-.02-.06c-.56-1.8-1.1-3.9-1.36-4.9-.08-.32-.14-.53-.15-.58l.32-.1h0s-.34-.01-.34-.01v-.3c.23-6.06,3.41-10.89,8.15-12.34,2.29-.76,4.82-.12,6.94,1.74,1.46,1.29,2.56,3.9,1.84,6.39-.72,2.49-3.06,4.16-6.6,4.73l-.84.13.53-.67c.42-.54.58-1.44.4-2.25-.17-.74-.6-1.32-1.22-1.62-1.17-.5-2.54-.33-3.19.12l-.04.02c-.99.51-2.5,3.17-2.04,5.6.26,1.39,1.48,3.11,3.05,3.59,1.01.31,1.96.02,2.8-.84l.63-.64-.06.89c-.23,3.69-.39,3.89-4.26,5.26l-.12.04ZM164.79,151.37c1.49,2.8,1.68,2.88,3.51,3.65l.31.13c3.18-1.13,3.46-1.25,3.64-3.84-1.08.76-2.12.7-2.85.48-1.81-.55-3.21-2.52-3.51-4.11-.5-2.63,1.09-5.62,2.37-6.31.79-.54,2.39-.78,3.83-.16.82.4,1.38,1.14,1.6,2.08.17.73.11,1.51-.15,2.15,3.66-.77,4.94-2.64,5.38-4.13.65-2.23-.34-4.56-1.64-5.7-1.93-1.7-4.23-2.29-6.29-1.6-4.53,1.39-7.54,6.09-7.68,11.97.04.13.09.31.15.55.26,1,.79,3.06,1.34,4.84Z"/>
                  </g>
                  <g>
                    <path id="path4592" class="cls-3" d="M159.87,151.49c-1.67,3.14-1.84,3.04-4.12,4.01-3.77-1.33-3.81-1.4-4.04-4.97,2.67,2.72,5.93-.36,6.42-2.92.49-2.56-1.08-5.37-2.21-5.96-.7-.49-2.2-.71-3.53-.14-1.74.85-1.81,3.27-.94,4.38-8.2-1.3-7.39-8.08-4.59-10.54,2.26-1.99,4.72-2.3,6.62-1.67,4.31,1.32,7.77,5.73,7.91,12.32,0-.07-.75,2.99-1.52,5.49Z"/>
                    <path d="M155.76,155.85l-.12-.04c-3.87-1.37-4.03-1.57-4.26-5.26l-.06-.89.63.64c.85.86,1.79,1.15,2.8.84,1.57-.48,2.79-2.2,3.05-3.59.46-2.43-1.05-5.09-2.04-5.6l-.04-.02c-.65-.45-2.02-.62-3.21-.11-.6.3-1.04.87-1.21,1.61-.18.81-.02,1.71.4,2.25l.53.67-.84-.13c-3.54-.56-5.88-2.24-6.6-4.73-.72-2.5.38-5.1,1.84-6.39,2.12-1.86,4.65-2.5,6.94-1.74,4.73,1.45,7.91,6.28,8.13,12.34h0s0,.3,0,.3h-.32s.3.11.3.11c-.02.05-.07.26-.15.58-.26,1.01-.8,3.1-1.36,4.9l-.02.06c-1.61,3.03-1.91,3.16-3.86,3.98l-.54.23ZM152.09,151.3c.18,2.58.46,2.71,3.64,3.84l.31-.13c1.83-.77,2.03-.85,3.51-3.65.55-1.78,1.08-3.85,1.34-4.84.06-.24.11-.42.15-.55-.14-5.88-3.15-10.58-7.67-11.97-2.07-.68-4.37-.1-6.3,1.6-1.3,1.15-2.28,3.48-1.64,5.7.43,1.48,1.72,3.36,5.38,4.13-.25-.64-.31-1.42-.15-2.15.21-.94.78-1.68,1.58-2.07,1.45-.62,3.06-.38,3.85.16,1.28.68,2.87,3.68,2.37,6.31-.3,1.59-1.7,3.56-3.51,4.11-.73.22-1.77.28-2.85-.48Z"/>
                  </g>
                  <g>
                    <path id="rect4594" class="cls-6" d="M157.02,145.42h9.94c.95,0,1.73.81,1.73,1.8h0c0,.99-.77,1.8-1.73,1.8h-9.94c-.95,0-1.73-.81-1.73-1.8h0c0-.99.77-1.8,1.73-1.8Z"/>
                    <path d="M166.96,149.35h-9.94c-1.14,0-2.06-.96-2.06-2.14s.92-2.14,2.06-2.14h9.94c1.14,0,2.06.96,2.06,2.14s-.92,2.14-2.06,2.14ZM157.02,145.75c-.77,0-1.39.66-1.39,1.47s.62,1.47,1.39,1.47h9.94c.77,0,1.39-.66,1.39-1.47s-.62-1.47-1.39-1.47h-9.94Z"/>
                  </g>
                </g>
                <g>
                  <rect id="rect4596" class="cls-4" x="162.08" y="119.41" width=".11" height="26.08"/>
                  <rect x="161.74" y="119.08" width=".78" height="26.74"/>
                </g>
                <g>
                  <rect id="rect4598" class="cls-4" x="162.08" y="149.67" width=".18" height="11.69"/>
                  <rect x="161.74" y="149.34" width=".84" height="12.36"/>
                </g>
                <g>
                  <rect id="rect4600" class="cls-4" x="155.69" y="146.55" width="12.51" height=".17"/>
                  <rect x="155.36" y="146.21" width="13.18" height=".84"/>
                </g>
              </g>
              <path d="M173.81,145.78l-.53-.4c1.71-2.28,2.26-4.18,1.56-5.37-.58-.98-2.06-1.43-3.85-1.18-2.82.4-6.32,2.55-7.3,6.35l-.65-.17c1.07-4.12,4.72-6.4,7.86-6.84,2.1-.3,3.79.26,4.52,1.5.6,1.01.81,2.89-1.6,6.11Z"/>
              <path d="M150.36,145.81c-2.41-3.21-2.2-5.1-1.6-6.11.73-1.23,2.42-1.79,4.52-1.5,3.14.44,6.79,2.73,7.86,6.84l-.65.17c-.99-3.8-4.48-5.95-7.3-6.35-1.8-.25-3.27.2-3.85,1.18-.7,1.18-.15,3.09,1.56,5.37l-.53.4Z"/>
            </g>
          </g>
        </g>
        <path d="M155.19,153.79s-.05,0-.08,0c-1.24-.03-2.41-.9-3.49-2.58l.56-.36c.95,1.48,1.95,2.24,2.95,2.27.02,0,.04,0,.06,0,1.79,0,3.42-2.26,4.51-3.76l.15-.21.54.39-.15.21c-1.16,1.61-2.92,4.03-5.05,4.03Z"/>
        <path d="M169.14,153.92c-2.13,0-3.88-2.42-5.05-4.03l-.15-.21.54-.39.15.21c1.08,1.5,2.72,3.76,4.51,3.76.02,0,.04,0,.06,0,1-.03,2-.79,2.95-2.27l.56.36c-1.08,1.68-2.26,2.55-3.49,2.58-.03,0-.05,0-.08,0Z"/>
      </g>
    </g>
  </g>
</svg>