<?xml version="1.0" encoding="UTF-8"?>
<svg id="Capa_2" xmlns="http://www.w3.org/2000/svg" version="1.1" xmlns:xlink="http://www.w3.org/1999/xlink" viewBox="0 0 232.2 232.1">
  <!-- Generator: Adobe Illustrator 30.3.0, SVG Export Plug-In . SVG Version: 2.1.3 Build 157)  -->
  <defs>
    <style>
      .st0 {
        fill: #f7be21;
      }

      .st1 {
        fill: #c91c20;
      }

      .st2 {
        fill: #12324d;
      }

      .st3 {
        fill: #fff;
      }

      .st4 {
        fill: none;
      }

      .st5 {
        clip-path: url(#clippath-1);
      }

      .st6 {
        fill: #cfcece;
      }

      .st7 {
        clip-path: url(#clippath);
      }
    </style>
    <clipPath id="clippath">
      <path class="st4" d="M187,74.5v-37.5c-1.9-.4-4-.6-6-1-7.6-1.2-14.8-3.1-22.1-5.3-.8-.3-1.6-.5-2.5-.8-4.2-1.3-8.2-2.9-12.2-4.5-6.9-3-12.3-5.5-18.8-9.4-2.8-1.7-6-3.9-8.6-5.4,0,8.6,0,17.4,0,26v182.9c9.8-5.2,18.9-11.4,27.4-18.6,5.9-5.1,9.6-9.1,14.7-14.8,2.4-2.5,5.7-7.1,7.7-10,13.9-20.3,20.2-41.8,20.4-66.3-.2-4.4,0-10,0-14.5.2-6.5,0-14.3,0-20.8h0Z"/>
    </clipPath>
    <clipPath id="clippath-1">
      <path class="st4" d="M181,36c-7.6-1.2-14.8-3.1-22.1-5.3-.8-.3-1.6-.5-2.5-.8-4.2-1.3-8.2-2.9-12.2-4.5-6.9-3-12.3-5.5-18.8-9.4-2.8-1.7-6.8-5.2-9.4-6.7-1.5,1-3,2-4.8,3.3-3.4,2.1-6.5,4.2-10.2,6.2-17.6,9.5-36.8,15.6-56.7,18.2v21.3h142.6v-21.3c-1.9-.4-4-.6-6-1h.1Z"/>
    </clipPath>
  </defs>
  <path class="st2" d="M116,0c4.1,2.5,7.8,5.4,12,7.8,20.3,12,44.4,20.6,68.1,22v51.8c0,26.9,1.7,49.1-8.2,75-10.3,26.8-29.5,48.8-53.1,64.8-5.7,3.9-12,7.8-18.3,10.7-1.5-.5-6-2.9-7.5-3.7-13.1-7.3-25.1-16.5-35.5-27.3-20.6-20.7-33.5-47.7-36.6-76.7-1.2-11.9-.7-26-.7-38.2V29.9c19.9-.3,45.5-9.1,62.8-18.7,6-3.4,11.5-7.1,17.1-11.1h-.1Z"/>
  <path class="st1" d="M187,74.5v-37.5c-1.9-.4-4-.6-6-1-7.6-1.2-14.8-3.1-22.1-5.3-.8-.3-1.6-.5-2.5-.8-4.2-1.3-8.2-2.9-12.2-4.5-6.9-3-12.3-5.5-18.8-9.4-2.8-1.7-6-3.9-8.6-5.4,0,8.6,0,17.4,0,26v182.9c9.8-5.2,18.9-11.4,27.4-18.6,5.9-5.1,9.6-9.1,14.7-14.8,2.4-2.5,5.7-7.1,7.7-10,13.9-20.3,20.2-41.8,20.4-66.3-.2-4.4,0-10,0-14.5.2-6.5,0-14.3,0-20.8h0Z"/>
  <path class="st0" d="M44.4,37c19.8-2.5,39.1-8.7,56.7-18.2,4.3-2.4,7.8-4.8,11.9-7.3v57.8c0,1.5,0,5,0,6.4.3,4.2,0,11.7,0,16.2v76.6c0,1.7.2,14.3,0,15.2.3.8,0,8,0,9.2v25.5c-12.2-6.2-24.5-16-34.1-25.6-19.2-18.9-31.2-43.8-34-70.5-.9-9.9-.6-23.2-.6-33.5v-51.8h0Z"/>
  <g>
    <path d="M66.9,68.3c.7,1,1.6,2.5,2.3,3.6,2.1,3.2,4,5.4,6.9,7.9.3-1.3.5-1.6,1.2-2.7.6,1.2,1.3,3.1,2.3,4,2.1,2.1,5.1,3.7,5,7.2,0,1.4-1.3,2.6-2.3,3.4-1.8,1.4-1.8,3.4-.4,5.2.9.9,2.6.4,3.8.4,3.1,0,3.1,5.4,6,5.3,2.2,0,4.2-2.6,5.6-4.1h-.7c-1,0-4.1-1.2-3.8-2.4,1.4-1.5,4.1,1.6,6.4-4.8-1.7.4-1.9.4-3.7,0,2-1.5,4-3.4,3.3-6.2-1.1-4.3-6.2-1.3-7.9-2.2-.4-1.5,4.2-2.4,5.3-2.7-.8-.2-1.6-.3-2.4-.2-4.2.4-9.3,4.2-11.2-2.1,4,2.6,6.2,1.3,10.6.8h2.9c-.6-.3-1.2-.7-1.8-1-1.6-.8-4.3-2-6-.9-.5.3-.8.9-1.3,1.1l-.3-.2c-.6-1.2-.7-3.4.2-4.5,1.3-1.6,2.9-1.8,4.8-1.8,3.8-5.9,11,.5,16.1-1.4q.4-.2.9-.3c1,1.2-1.6,3.1-2.4,3.7,1.4,2.5,2.5,4,5.2,5-1.1.6-1.5.7-2.7.9.5,1.4.9,2.6,1.6,3.9.6,1.1,1.9,1.6,2.3,2.3v.3c-.8.4-1.5.3-2.3.6-.2,1.9,1.8,5.4,2.8,7.1.3,3.9,0,10.9,0,15.1v71.4c0,1.6.2,13.3,0,14.1-1.8-2.3-2.8-4.5-5.1-6.2,2.6-3.6,2.6-8.5,2.5-12.7-1,1.6-2,3.1-3.2,4.6-2.5,3.2-4.2,4.7-3.2,9.1-4.2-1.2-4.9-3.7-3.6-7.6-3.2,1.7-7.2,2.6-10.6.6-1.8-1.1-3-2.8-3.4-4.8-.8-3.8,1.4-6.9,5.2-7.6-.4.4-.7.8-1,1.3-.7,1.1-.8,2.4-.5,3.6,1.4,5,8.4,4.5,11.7,1.8,1.8-1.4,2.5-2.7,3.5-4.7-2.8,2.4-7.3,4.5-9.4-.7-.2-.6,0-2.3.4-2.9,1-.4,1.4.7,2.5.8,4.8.6,7.8-3.5,8.5-7.7-1.4,1.2-3.2,2.2-5.1,1.7-1.5-.4-3.3-1.8-2.7-3.6.8,0,2.9-.3,3.5-.6,4.9-2.7,5.2-10.3,2.8-14.8-4.1,3-5.7,6.7-5.6,11.7-1.8-1.1-2.2-1.8-3.3-3.5-1.4,1.4-7.3,6.5-7.4,7.7.5.7,2.8,0,4,.3,2.4.6,3.5,4.7,1.2,5.9-.3-.3-.3-1-.5-1.7,0-1.1-2.4.2-2.7-.1-2.9-2.6-7.8.3-8.4,3.6-.4,2.4.9,1.5-2,3.1-.5,1,.5,1.9.4,2.8-1.8.5-2.6-1.5-3.1-2.8-1.3-3.3,1.4-3.9,3.1-6.8-3,.2-2.3.3-4.6,2-.6.4-1.4.1-2.1,0-1,.4-.8,1.8-1.5,2.4h-.3c-1.4-2.2-.5-3.7.6-5.6,1.2-2,2.6-1,4.5-1.6.4-.1,1.1-.1,1.3-.5-.6-.7-3-.8-4.1-1.2-.4-.5-.5-.6-1-1-.9-.2-1.5.4-2.3.9.6-2.1,2.2-4.3,4.5-3.9,3.1.5,4.3,2.6,7.9,3.2,2.2-1.3,6.5-7.2,8.3-9.5-2.3,0-3.3,0-5-1.7.3,0,.5-.1.8-.2,4-1,5.1-4.5,7.1-7.6.9-1.4,4.3-5.5,4.3-7,0-2.9-1.8-6.5-2.5-9.4-.7,7.1-2.1,15.6-10,17.7,2.3-5.5,3.2-13.1,2.8-19-2.1,7.1-4,14.2-8,20.5-2.6,4.2-6.7,8.4-12,8.5-1.5,0-2.5-.2-3.7-1,6.2-7.9,10.2-14.5,13.7-24,.9-2.4,1.9-4.7,2.3-7.2h0c-1.9,2.5-3.3,5.5-5.1,8-3.7,5-8.6,12.1-15.8,10.6-.6-.1-1.5-.7-1.8-1.3.4-.6,2.9-2.8,3.6-3.4,5.5-5.6,10-12.7,13.2-19.8-1.9,1.8-3.4,3.7-5.5,5.4-3.8,3.2-10,5.7-13.8.8,6-2.8,11.2-6.9,15.4-12.1-4.9,2-13.7,3.8-15.3-3.4,5,.6,9.1-1,13.6-2.7-6.1-1.3-13.3-1.9-13.5-10.1,4.4,2.5,9,2.9,13.9,3.4-6.1-3-13.3-7.2-10.8-15.3,3.2,3.6,8.3,7.1,12.8,8.6-4.8-4.6-11.6-11.9-6.4-18.8l-.3-.3Z"/>
    <path class="st0" d="M95,72.5c.8.2,1.3.6,2,.4.6,0,1-.4,1.6,0,.2.4.2.2,0,.7-1.5.9-3,1.1-3.6-1Z"/>
  </g>
  <g class="st7">
    <g>
      <path class="st6" d="M193.4,87v9.6s0,19,0,19c-3.8-2.2-7.9-3.8-12.1-4.7-1.7-.3-3.3-.5-5-.8.4-3,.7-5.9,1.6-8.7,2.5-7.7,7.6-12.8,15.5-14.5h0Z"/>
      <path class="st3" d="M191.9,91.1c-7.9,2.9-10.8,10.1-11.7,17.9-.7-.2-1.2-.3-1.9-.3-.4-.8,1.1-6.2,1.4-7.3,1.7-5.6,6.4-10.9,12.2-12.4v2.1Z"/>
      <path class="st6" d="M166.3,131.9c2.1,1.9,4.7,4.9,6.1,7.4.8,1.3.2,6.8,0,8.4-3.9.3-8.3.4-12.1.8l-3.5.2c-.3-3.6-1.4-8.4-2.9-11.6,3.4-1.6,7-3,10.5-4.5.6-.3,1.3-.6,1.9-.8h0Z"/>
      <path class="st3" d="M166.5,133.2c.6.5,1,.9,1.5,1.6-3.9,1.5-7.7,3.2-11.6,4.7h-.4c-.3-.3-.6-1.3-.8-1.7,3.8-1.6,7.5-3.2,11.3-4.7h0Z"/>
      <path class="st6" d="M143.1,137.8c2,.2,4,.6,6,.8,1.4,2.8,2.6,7.4,2.8,10.5-1.6,1-3.8,2.1-5.6,2.9-2.4,1-3.3.7-3.5-2.1-1.6-1.1-1.7-1.8-1.7-3.6-1.5-1.6-1.6-1.9-1.3-4.1-.6-.6-1.9-2.1-1.2-3.1.2-.3,1.3-.4,1.7-.6,1.1-.5,1.5-.9,2.7-.8h.1Z"/>
      <path class="st3" d="M144,139.1c1.5.2,3.1.5,4.6.7.2.6.4,1.2.6,1.7-1.3-.2-3.1-.5-4.4-.6-1.9-.2-2.4,0-4.3.5-.4-.5-.5-.7-.7-1.3,1.2-.6,2.8-1.2,4.2-1h0Z"/>
      <path class="st6" d="M174.1,127.7c6.1,1.9,12,4.8,17.6,7.8-1.6,3-1.3,3.5-1.8,6.8-.7-.9-4.6-5.3-5.4-5.3-.3.2-.2,0-.3.4.2.5,1.6,2,2,2.5.9,1,1.6,1.9,2.3,3.2-1.4.5-2.4.8-3.7,1.5-.6.4-1.2.8-1.8,1.2-1.6-4.9-4-9.4-7.1-13.4-.8-1-2.5-2.6-3-3.4h.1c2.1.7,4.5,2.7,6.3,4,.7.5,1.9,1.9,2.9,1.9v-.2c-.7-1.9-6.2-5.4-7.9-6.7q0,0,0-.4h0Z"/>
      <path class="st6" d="M118.6,85.8c0,.5,3.7,10.5,4.1,11.2,0,.9,1.7,5.7,2.1,6.9l2.8,8.3,7,20.4c-.7.7-1.1,1-2,1.6l-9.9-28.2-2.5-7.1c-1.1-3.1-2.3-6-2.2-9.4.1-.6.1-3.2.5-3.6h0Z"/>
      <path class="st3" d="M118.5,86c1.6,1,3.9,3.8,4.8,5.5.9,1.8,1.6,3.9,2.3,5.7l3,7.8,10.2,27.1h-2.5c-1.1-2.8-2.2-5.8-3.3-8.7l-6.3-16.3-2.4-6.2c-.4-1-1.1-3-1.7-3.8-.4-.7-4.1-10.7-4.1-11.2h0Z"/>
      <path class="st6" d="M177.3,119.7c6.1,1,10.4,3.1,15.7,6.3-.6,2.3-1.3,4.5-2,6.7-.5,0-1.9-.9-2.5-1.2-4.2-2-8.5-4-12.9-5.4.2-.7,1.3-6.2,1.5-6.4h.2Z"/>
      <path class="st3" d="M179.9,121.3c0,.7-.9,4.7-1.2,5-.6-.2-1.2-.4-1.8-.6.2-.7.9-4.6,1.2-4.9h0l1.8.5Z"/>
      <path class="st6" d="M178.2,112c5.2.8,10.7,2.8,15.2,5.5,0,2.2,0,4.6,0,6.7l-1.2-.7c-5-2.8-10-5-15.8-5.7.2-.7,1.1-5.4,1.4-5.7h.4s0-.1,0-.1Z"/>
      <path class="st3" d="M179.1,113.3l1.7.3c0,.6-.7,3.5-1,3.7h-.2c-.6-.1-1-.3-1.6-.3.2-.7.6-3.2.9-3.7h.3s-.1,0-.1,0Z"/>
      <path class="st6" d="M172.1,130.9c4.2,4.4,6.5,8.2,8.7,14l-3.4.5c-.9,0-2,.2-2.9.4.1-1.6.3-5.4-.2-6.8-.9-2.3-3.7-5.1-5.2-7,.8-.4,2-.9,2.9-1.2h.1Z"/>
      <path class="st3" d="M173.6,133.4c-.5.2-1.6.6-2.1.6-.5-.5-.9-.9-1.3-1.4.4-.1,1.7-.6,2.1-.6.4.4.9.9,1.3,1.4Z"/>
      <path class="st0" d="M145.1,128.6c.6.3,1.1.6,1.3,1.3.8,2.4-2.7,4.2-4.4,5.1-3,1.5-6.1,2.6-9.3,3.6-1.6.4-4.8,1.3-6.5.4-.7-.4-.9-.9-1.1-1.6.1-.6.3-1.4.8-1.7,2.2-1.2,3,.8,3.1,2.3,3.3-1.1,4.4-1.8,6.9-4.1,3.2.1,5-.2,7.9-1.7-1.6-1.7-1.2-3.9,1.3-3.7h0Z"/>
      <path class="st0" d="M147.9,158.7c-.2,1.5-1.6,2.6-3.1,2.4-1.5-.2-2.6-1.6-2.4-3.1.2-1.5,1.6-2.6,3.1-2.4,1.5.2,2.6,1.6,2.4,3.1Z"/>
      <path class="st6" d="M152.4,137.8c1.5,3.7,2.4,6.9,2.7,11h-1.6c-.2-3.2-1.4-7.5-2.7-10.5.4-.2,1.2-.5,1.6-.6h0Z"/>
      <path class="st3" d="M152.6,139c.1.4.3,1.2.3,1.7h-.5c-.2-.4-.6-.9-.6-1.3,0-.4.3-.4.7-.4h.1Z"/>
      <path class="st6" d="M137,139.8c0,1.1,0,1.5.7,2.5-.9.4-3.7,1.7-4.4,1.7-1.5-1-.8-2.2.5-2.8,1-.5,2.2-1.1,3.2-1.5h0Z"/>
      <path class="st6" d="M138,143.6c.1,1.2.1,1.6.8,2.6-1,.4-3.6,1.6-4.4,1.4-2.8-1.9,2.3-3.6,3.6-4.1h0Z"/>
      <path class="st6" d="M139.5,147.4c.1,1.1.2,1.6.8,2.5-.9.4-2.9,1.2-3.9,1.2-3-2.1,1.8-3.1,3.1-3.7h0Z"/>
      <path class="st6" d="M142.3,153.3c-1,.2-2.3.6-3.3.7-.5-.2-1.5-.9-1-1.5.6-.7,2.3-1.1,3.2-1.4.2,1,.5,1.4,1.1,2.2Z"/>
    </g>
  </g>
  <path class="st6" d="M181,36c-7.6-1.2-14.8-3.1-22.1-5.3-.8-.3-1.6-.5-2.5-.8-4.2-1.3-8.2-2.9-12.2-4.5-6.9-3-12.3-5.5-18.8-9.4-2.8-1.7-6.8-5.2-9.4-6.7-1.5,1-3,2-4.8,3.3-3.4,2.1-6.5,4.2-10.2,6.2-17.6,9.5-36.8,15.6-56.7,18.2v21.3h142.6v-21.3c-1.9-.4-4-.6-6-1h.1Z"/>
  <g class="st5">
    <g>
      <rect class="st1" x="23" y="36.6" width="183.5" height="10.4"/>
      <rect class="st1" x="111" y="-44.1" width="9.4" height="135.3"/>
    </g>
  </g>
  <rect class="st2" x="42.4" y="57.2" width="147.4" height="3.6"/>
</svg>