<?xml version="1.0" encoding="UTF-8"?>
<svg id="Capa_2" xmlns="http://www.w3.org/2000/svg" version="1.1" viewBox="0 0 232.2 232.1">
  <!-- Generator: Adobe Illustrator 30.1.0, SVG Export Plug-In . SVG Version: 2.1.1 Build 89)  -->
  <defs>
    <style>
      .st0, .st1 {
        fill: #ff9700;
      }

      .st0, .st2, .st3, .st4 {
        fill-rule: evenodd;
      }

      .st5 {
        fill: #fff;
      }

      .st6, .st3 {
        fill: #000002;
      }

      .st7, .st2 {
        fill: #e32010;
      }

      .st8 {
        fill: #89000a;
      }

      .st4 {
        fill: #e31f10;
      }
    </style>
  </defs>
  <path class="st4" d="M113,.9c-.7,0-2.4.1-3.9.2-1.4,0-3.6.2-4.7.4-1.2.1-3.3.4-4.7.6-1.4.2-4.1.7-5.9,1-1.8.4-4.7,1-6.4,1.4-1.7.4-4.4,1.2-5.9,1.7-1.6.5-3.9,1.3-5.1,1.7-1.2.5-3.2,1.2-4.4,1.7-1.2.5-3.2,1.4-4.5,2s-3.2,1.5-4.2,2.1c-1,.5-2.8,1.5-4,2.2s-3,1.8-4.1,2.4c-1,.7-2.7,1.7-3.6,2.3-.9.6-2.9,2.1-4.5,3.2-1.5,1.1-3.5,2.7-4.4,3.4-.9.7-2.1,1.8-2.7,2.3-.6.5-2,1.8-3.1,2.9-1.1,1.1-2.9,2.8-4,3.9-1.1,1.1-2.2,2.4-2.6,2.8-.4.4-.7.8-.7.8,0,0-.8.9-1.6,1.9-.8,1-2.2,2.7-3,3.7s-1.9,2.5-2.5,3.3-1.8,2.6-2.8,4.1-2.4,3.9-3.3,5.3c-.8,1.4-2.2,4-3.1,5.7-.9,1.7-2,4.1-2.6,5.3-.5,1.2-1.4,3.2-1.9,4.5s-1.3,3.5-1.8,5c-.5,1.4-1.2,3.7-1.6,5.1s-.9,3.4-1.2,4.5c-.3,1.1-.8,3.4-1.1,5s-.8,4.3-1,6-.5,4.1-.7,5.3c-.1,1.2-.3,3.4-.4,4.8,0,1.4-.1,4.3-.1,6.5s0,5.1.1,6.5c0,1.4.2,3.5.4,4.7.1,1.2.4,3.6.7,5.3.2,1.7.7,4.4,1,6s.8,3.8,1.1,5c.3,1.1.8,3.2,1.2,4.5.4,1.4,1.1,3.7,1.6,5.1.5,1.4,1.3,3.7,1.8,5s1.4,3.3,1.9,4.5,1.7,3.6,2.6,5.3,2.3,4.3,3.1,5.7c.8,1.4,2.3,3.8,3.3,5.3s2.2,3.3,2.8,4.1c.5.8,1.7,2.2,2.5,3.3s2.2,2.7,3,3.7,1.8,2.1,2.1,2.5c.3.4,1.1,1.1,1.6,1.8.6.6,1.4,1.5,1.9,2s1.9,1.9,3.1,3c1.2,1.1,2.7,2.5,3.3,3s1.8,1.6,2.7,2.3,2.9,2.3,4.4,3.4c1.5,1.2,3.5,2.6,4.5,3.2.9.6,2.5,1.7,3.6,2.3,1.1.7,2.9,1.8,4.1,2.4,1.2.7,3.1,1.7,4.2,2.3s3.3,1.6,4.8,2.3c1.6.7,3.9,1.7,5.3,2.3,1.3.5,3.2,1.2,4.1,1.6.9.3,2.8,1,4.2,1.4,1.4.4,3.9,1.2,5.6,1.6,1.7.4,4.4,1.1,6,1.4,1.6.3,4,.7,5.3.9s3.3.5,4.4.6,2.8.3,3.7.4c.9,0,3.4.2,5.5.3,2.6.1,5,.1,7.7,0,2.2,0,5-.3,6.4-.4,1.3-.1,3.2-.3,4.2-.4,1-.1,3.1-.5,4.7-.7,1.6-.3,4.3-.8,5.9-1.2,1.7-.4,4.3-1,5.8-1.5,1.6-.4,4.1-1.2,5.6-1.7s3.9-1.4,5.4-2,3.6-1.5,4.7-1.9c1.1-.5,3.3-1.5,4.8-2.3,1.6-.8,3.5-1.8,4.2-2.2s2.2-1.3,3.3-1.9c1.1-.6,3.2-2,4.7-3s3.7-2.5,4.8-3.4c1.2-.9,2.9-2.2,3.9-3.1,1-.8,2.6-2.2,3.6-3s2.4-2.2,3.2-2.9c.8-.8,1.8-1.8,2.3-2.2s1.4-1.4,2.1-2.2c.7-.8,1.9-2,2.6-2.8.7-.8,1.9-2.1,2.6-3.1.8-.9,1.9-2.3,2.4-3,.6-.7,1.6-2,2.2-2.9.6-.9,1.8-2.6,2.6-3.8s2.2-3.3,3-4.7,2.1-3.6,2.7-4.8c.7-1.2,1.7-3.2,2.2-4.4.6-1.2,1.4-3.1,1.9-4.2.5-1.2,1.3-3.1,1.7-4.2.5-1.2,1.1-3,1.5-4.1s1-2.9,1.3-4.1c.4-1.2.9-3.3,1.3-4.7.4-1.4.9-3.8,1.2-5.4.3-1.6.8-4.2,1-5.8s.6-4.3.7-5.9c.2-1.7.4-4.3.4-5.8s.1-4.1.1-5.6,0-4-.1-5.6c0-1.6-.3-4.2-.5-5.8-.2-1.6-.5-4.1-.7-5.5s-.6-3.7-.9-5.1c-.3-1.4-.8-3.8-1.2-5.3-.4-1.4-.9-3.4-1.2-4.5-.3-1-.8-2.7-1.2-3.9-.4-1.1-1.1-3.2-1.6-4.6s-1.4-3.7-2-5c-.6-1.4-1.5-3.4-2.1-4.6s-1.6-3.1-2.2-4.4c-.7-1.2-1.9-3.4-2.7-4.8-.8-1.4-2.2-3.5-3-4.7s-2-2.9-2.6-3.8c-.6-.9-1.6-2.2-2.2-2.9-.6-.7-1.7-2.1-2.4-3-.8-.9-1.9-2.3-2.6-3.1-.7-.8-1.8-2-2.6-2.8-.7-.8-1.7-1.8-2.2-2.2-.5-.5-1.5-1.5-2.3-2.2s-2.2-2-3.1-2.9c-1-.8-2.6-2.2-3.6-3s-2.8-2.2-3.9-3.1c-1.2-.9-3.3-2.4-4.8-3.4s-3.6-2.3-4.7-3c-1.1-.6-2.6-1.5-3.3-1.9s-2.5-1.3-4-2.1c-1.5-.7-3.6-1.8-4.8-2.3-1.1-.5-3.3-1.4-4.8-2-1.5-.6-4-1.5-5.5-2s-4-1.3-5.6-1.7c-1.6-.4-4.2-1.1-5.8-1.4-1.6-.4-4.1-.8-5.5-1.1-1.4-.2-3.6-.6-4.8-.7-1.2-.2-3.3-.4-4.7-.5-1.3-.1-4.1-.3-6.1-.4h-7.1l.3.7h0Z"/>
  <path class="st3" d="M111.1,5.2c-1.4,0-3.7.2-5.1.4-1.4,0-3.9.4-5.6.7-1.7.2-4.4.7-6,1s-4.2.9-5.6,1.3-3.9,1.1-5.4,1.5c-1.5.5-3.9,1.3-5.3,1.8s-3.8,1.5-5.3,2.1-4,1.8-5.5,2.5c-1.5.8-3.5,1.8-4.4,2.3s-2.5,1.4-3.6,2.1c-1.1.6-3.3,2-4.8,3.1-1.6,1.1-3.9,2.7-5.1,3.6-1.2.9-3.2,2.5-4.2,3.4-1.1.9-2.9,2.5-4,3.5s-3,2.8-4.2,4-2.7,2.8-3.4,3.6-2,2.3-2.9,3.4c-.9,1.1-2.4,3-3.3,4.2s-2.4,3.3-3.3,4.7-2.3,3.6-3.1,4.9c-.8,1.3-1.9,3.3-2.5,4.3-.6,1-1.4,2.6-1.8,3.4-.4.8-1.2,2.5-1.8,3.8s-1.5,3.5-2,4.8c-.5,1.4-1.4,3.6-1.8,4.9-.5,1.3-1.1,3.4-1.5,4.6s-.9,3.2-1.2,4.5-.7,3.1-1,4.1c-.2,1-.5,2.8-.7,4s-.5,3.2-.7,4.4c-.2,1.2-.4,3.3-.5,4.7-.2,2.1-.3,4-.3,9.6s0,7.5.3,9.6c0,1.4.4,3.6.5,4.7,0,1.2.4,3.1.7,4.4.2,1.2.6,3.1.7,4,.2,1,.6,2.8,1,4.1.3,1.3.9,3.3,1.2,4.5.4,1.2,1,3.3,1.5,4.6s1.3,3.5,1.8,4.8,1.4,3.5,2,4.8,1.4,3.1,1.8,3.9c.4.8,1.2,2.3,1.8,3.4.6,1,1.7,3,2.5,4.3s2.2,3.5,3.1,4.9,2.4,3.5,3.3,4.7,2.4,3.1,3.3,4.2c.9,1.1,2.2,2.6,2.9,3.4.7.8,2.2,2.4,3.4,3.6,1.2,1.2,3,3,4.2,4,1.1,1,2.9,2.6,4,3.5s3,2.4,4.2,3.3c1.2.9,3.6,2.6,5.1,3.6,1.6,1.1,3.7,2.4,4.8,3.1,1.1.7,2.7,1.6,3.6,2.1.9.5,2.8,1.5,4.4,2.3,1.5.8,4,1.9,5.5,2.5s3.9,1.6,5.3,2.1,3.8,1.3,5.3,1.8,4.1,1.2,5.7,1.6c1.6.4,4.1,1,5.6,1.3,1.4.3,4,.7,5.7,1,1.7.2,4.2.5,5.5.7,1.3.1,4,.3,6,.4,2,0,4.9.1,6.6,0,1.6,0,4-.2,5.2-.2s3.1-.2,4.2-.4c1.1-.1,3-.4,4.2-.5,1.2-.2,3.2-.5,4.5-.7s3.3-.7,4.5-.9c1.2-.3,3.2-.8,4.4-1.1s3.5-1,5.1-1.6c1.6-.5,4-1.4,5.4-1.9s3.7-1.5,5.2-2.1c1.5-.7,3.5-1.6,4.4-2,.9-.5,2.5-1.3,3.4-1.8,1-.5,2.8-1.6,4-2.3s3.4-2.1,4.8-3.1c1.4-.9,3.7-2.6,5-3.6,1.4-1,3.3-2.6,4.4-3.5,1-.9,2.7-2.3,3.6-3.1.9-.8,2.8-2.6,4.2-4s3.2-3.4,4.2-4.4c.9-1,2.3-2.6,3-3.5s2.1-2.7,3.2-4.1c1-1.4,2.4-3.3,3-4.2.6-1,1.8-2.7,2.5-3.9s1.8-3,2.4-4.1c.6-1.1,1.6-3.1,2.3-4.4.7-1.3,1.6-3.3,2.1-4.5.5-1.1,1.4-3.2,1.9-4.5.5-1.4,1.5-3.9,2.1-5.7s1.4-4.5,1.8-6c.4-1.5,1-3.9,1.3-5.2s.7-3.7,1-5.3.6-4.1.8-5.5.4-3.5.5-4.7c.1-1.3.2-4.5.2-8.1s0-6.8-.2-8.1c-.1-1.2-.3-3.3-.5-4.7-.2-1.4-.5-3.7-.7-5.1s-.6-3.5-.9-4.7c-.2-1.2-.8-3.4-1.2-5-.4-1.5-1.1-4-1.5-5.4-.5-1.4-1.2-3.7-1.7-5s-1.4-3.7-2.1-5.2c-.7-1.5-1.8-4.1-2.6-5.6-.8-1.6-1.9-3.8-2.6-4.9-.6-1.1-1.7-3-2.5-4.2-.7-1.2-1.8-2.9-2.5-3.9-.6-1-2-2.9-3-4.2-1-1.4-2.4-3.2-3.2-4.1-.7-.9-2.1-2.5-3-3.5s-2.8-3-4.2-4.4-3.2-3.2-4.2-4c-.9-.8-2.5-2.2-3.6-3.1-1-.9-2.9-2.4-4.2-3.3-1.2-.9-3.1-2.3-4.1-3s-2.6-1.7-3.4-2.3c-.9-.6-2.6-1.6-3.8-2.3-1.2-.7-3.3-1.9-4.7-2.6s-3.6-1.8-5-2.4-3.6-1.6-5-2.1c-1.3-.5-3.6-1.4-5-1.9s-3.7-1.2-4.9-1.5c-1.2-.4-3.2-.9-4.2-1.2-1.1-.3-3.3-.8-4.9-1.1-1.6-.3-3.8-.7-4.9-.9-1.1-.2-2.9-.4-3.9-.5-1.1,0-3.2-.3-4.7-.4s-4.5-.2-6.7-.3h-6.6v-.6h0Z"/>
  <path class="st0" d="M47.6,41.9c-.3,1.4-.6,2.7-.6,2.8s-1.2.4-2.5.7-2.5.6-2.7.6-.3,0-.3.2c0,0,1.2.4,2.6.7,1.4.3,2.7.6,2.8.7,0,0,.4,1.3.7,2.7s.6,2.6.7,2.5c0,0,.4-1.2.7-2.7.3-1.4.6-2.6.7-2.7,0,0,1.3-.3,2.8-.7,1.5-.3,2.7-.6,2.7-.7l-.3-.2s-1.4-.3-2.8-.6l-2.5-.6c-.8-3.8-1.1-5.1-1.1-5.2s0-.3-.2-.3-.4,1.2-.7,2.6h0s0,.2,0,.2ZM183.2,42c-.3,1.5-.6,2.7-.7,2.8,0,0-1.2.3-2.5.6s-2.5.6-2.7.6-.2,0-.3.2c0,0,1.2.4,2.6.7,1.4.3,2.7.6,2.7.7,0,0,.4,1.3.7,2.8s.6,2.6.7,2.6c0,0,.4-1.2.7-2.7.3-1.4.6-2.6.7-2.7,0,0,1.3-.3,2.8-.7,1.5-.3,2.6-.6,2.6-.7s-.1,0-.3-.2c-.2,0-1.4-.3-2.7-.6s-2.4-.6-2.4-.6c0,0-.3-1.1-.6-2.2-.2-1.2-.5-2.4-.6-2.7,0-.3-.2-.5-.2-.5,0,0-.4,1.2-.7,2.7h.2Z"/>
  <g>
    <path class="st5" d="M19.3,148.5c-.1,0-.2,0-.3-.1l-.3-1.1c0-.1,0-.2.1-.3l4-1.1-2-7.1-4,1.1c-.1,0-.2,0-.3-.1l-.3-1.1c0-.1,0-.2.1-.3l9.9-2.8c.1,0,.2,0,.3.1l.3,1.1c0,.1,0,.2-.1.3l-4.6,1.3,2,7.1,4.6-1.3c.1,0,.2,0,.3.1l.3,1.1c0,.1,0,.2-.1.3l-9.9,2.8Z"/>
    <path class="st5" d="M26,152.8l-3.2,1.4,2.7,6.2s0,.3-.1.3l-.8.3s-.3,0-.3-.1l-3.3-7.5s0-.2.1-.3l9.5-4.1s.2,0,.3.1l3.2,7.3v.3l-.8.3s-.3,0-.3-.1l-2.7-6.1-2.9,1.3,2.4,5.6s0,.3-.1.3l-.8.3s-.3,0-.3-.1l-2.4-5.6v.2h-.2Z"/>
    <path class="st5" d="M35.3,159.4h.3l2.4,3.9c1.3,2.2,1.2,4.4-.8,5.6-1.5.9-3,.5-4.2-.7h0s0,.5-.3,1l-1.4,3.2c0,.2-.1.2-.1.2h-.2l-.8-1.3v-.3l1.8-4.2-1.6-2.7-3.1,1.8h-.3l-.6-1v-.3l8.8-5.3h0ZM35.1,161.3l-3.7,2.2,1.6,2.7c.8,1.4,2.1,2,3.3,1.3s1.3-2.1.4-3.5l-1.6-2.7Z"/>
    <path class="st5" d="M38.3,174.4l-2.8,2.2,4.2,5.3v.4l-.7.5h-.4l-5.1-6.4v-.3l8.1-6.4h.3l5,6.3v.4l-.7.5h-.4l-4.1-5.2-2.5,2,3.8,4.8v.4l-.7.5h-.4l-3.8-4.8s.2-.2.2-.2Z"/>
    <path class="st5" d="M41.8,186.2v-.3l7.2-7.4h.3l3.2,3.1c2.4,2.3,2.8,5.5.5,7.9-2.3,2.3-5.3,2.4-7.9-.1l-3.2-3.1h0ZM49.3,180.3l-5.6,5.8,2.2,2.2c2,2,4.1,1.8,5.8,0,1.8-1.8,1.5-4.1-.3-5.8l-2.2-2.1h0Z"/>
    <path class="st5" d="M56.7,193l-2.1,2.8,5.5,4v.4l-.5.7s-.3.1-.4,0l-6.6-4.8v-.3l6.1-8.3s.2-.1.3,0l6.4,4.7v.4l-.5.7s-.3.1-.4,0l-5.3-3.9-1.9,2.5,4.9,3.6v.4l-.5.7s-.3.1-.4,0l-4.9-3.6h.3Z"/>
    <path class="st5" d="M68,194s.2-.1.3,0l4,2.2c2.2,1.2,3.2,3.2,2.1,5.2-.8,1.5-2.3,1.9-4,1.5h0s.2.5.2,1l.4,3.5v.3h-.2l-1.3-.7s0-.1-.2-.2l-.6-4.5-2.8-1.5-1.7,3.1s-.2.1-.3,0l-1-.6v-.3l5-9h0ZM68.9,195.8l-2.1,3.8,2.8,1.5c1.4.8,2.8.7,3.5-.5s0-2.5-1.4-3.3l-2.8-1.5Z"/>
    <path class="st5" d="M87.1,208.4c-1.2,3.3-4.4,4.3-7.4,3.1-3-1.1-4.7-4-3.5-7.3s4.4-4.3,7.4-3.1c3,1.1,4.7,4,3.5,7.3ZM77.7,204.8c-.9,2.4.3,4.6,2.5,5.4,2.2.8,4.5,0,5.4-2.4.9-2.5-.3-4.6-2.5-5.4-2.2-.8-4.5,0-5.4,2.4Z"/>
    <path class="st5" d="M90.9,211.2c.2,0,.2.1.2.3-.3,1.3.4,2.3,2.8,2.9,2.2.5,3.1-.3,3.4-1.4,0-.6,0-1.4-1.5-1.8l-2.9-.9c-2.1-.6-2.8-1.8-2.5-3.3.4-1.6,2.1-3,5.2-2.3,3.3.7,4.1,2.5,3.7,4.3,0,0,0,.2-.3.1l-1-.2c-.2,0-.2-.1-.2-.4,0-.9-.4-2-2.5-2.5-1.8-.4-3.1.2-3.3,1.3,0,.6.2,1.3,1.4,1.6l2.8.9c2.4.7,2.9,2.1,2.6,3.5s-1.9,3.1-5.2,2.3c-3.2-.7-4.5-2.6-4.1-4.4v-.2c0-.1,0-.2.3-.1l1.1.2h0Z"/>
    <path class="st5" d="M107.8,217.7s-.2-.1-.2-.2l.3-10.3c0-.1,0-.2.2-.2h4.4c3.3.2,5.7,2.4,5.6,5.7s-2.3,5.3-5.9,5.2h-4.5v-.2h0ZM109.5,208.4l-.3,8h3.1c2.8.2,4.2-1.3,4.3-3.8,0-2.5-1.7-4.1-4.1-4.1h-3.1,0Z"/>
    <path class="st5" d="M123.3,212.8l.4,3.5,6.8-.7c.1,0,.3.1.3.2v.9c0,.1,0,.3-.1.3l-8.1.8s-.2,0-.2-.2l-1-10.3c0-.1,0-.2.2-.2l8-.8c.1,0,.3.1.3.2v.9c0,.1,0,.3-.1.3l-6.6.7.3,3.1,6.1-.6c.1,0,.3.1.3.2v.9c0,.1,0,.3-.1.3l-6.1.6h-.4Z"/>
    <path class="st5" d="M141.1,213.4l5.7-1.6c.1,0,.3,0,.3.2l.2.8c0,.1,0,.3-.2.3l-7,1.9c-.1,0-.2,0-.3-.1l-2.8-9.9c0-.1,0-.2.1-.3l1.1-.3c.1,0,.2,0,.3.1l2.5,8.8h0Z"/>
    <path class="st5" d="M156.8,206.9l-5.5,2.3v2.2c-.1.2-.3.3-.4.4l-1.1.4h-.2v-.2l.9-11.6.6-.2,8.9,7.6.2.2s0,.1-.1.2l-1.1.4h-.4l-1.7-1.5v-.2h0ZM151.3,207.7l4.3-1.8-2.4-2.1c-.5-.4-1.5-1.5-1.5-1.5h0v2.2l-.2,3.2h-.2Z"/>
    <path class="st5" d="M172.7,197.9l-5,3.3.3,2.2c0,.2,0,.3-.2.4l-1,.6h-.2v-.2l-1.3-11.6.5-.4,10.1,5.8s.2,0,.2.1v.2l-1,.6c-.1,0-.3,0-.4,0l-1.9-1.1h-.1ZM167.6,199.6l3.9-2.5-2.8-1.6c-.5-.3-1.8-1.2-1.8-1.2h0s.3,1.6.4,2.2l.4,3.2h0Z"/>
    <path class="st5" d="M178.4,182.6v-.3l.9-.8h.3l3.6,4.2c2.3,2.6,1.8,5.3-.6,7.4-2.4,2.1-5.1,2.2-7.4-.4l-3.6-4.2v-.3l.9-.8h.3l3.6,4.2c1.7,2,3.6,2,5.3.5,1.8-1.5,2-3.4.3-5.3l-3.6-4.2h0Z"/>
    <path class="st5" d="M190.1,185.9h-.3l-7.8-6.7v-.3l2.9-3.4c2.1-2.5,5.3-3.1,7.9-.9,2.5,2.1,2.7,5.1.3,7.9l-2.9,3.4h0ZM183.8,178.7l6.1,5.2,2-2.4c1.8-2.2,1.5-4.2-.3-5.8-1.9-1.7-4.2-1.2-5.8.6l-2,2.3h0Z"/>
    <path class="st5" d="M201,167.7l-3.2,5,1.1,1.9c.1.2.1.3,0,.4l-.6,1h-.2s0-.1-.1-.2l-5.9-10.1.4-.5,11.6,1.2h.2v.2l-.6,1c0,.1-.2.2-.4.2l-2.2-.2h-.1ZM197,171.4l2.5-3.9-3.2-.4c-.6,0-2.1-.4-2.1-.4h0s.9,1.3,1.2,1.8l1.6,2.8h0Z"/>
    <path class="st5" d="M203.6,153.2c0,.2-.2.2-.4.1-1.3-.5-2.9,0-3.9,2-1,2.1-.3,4.3,2.1,5.5,2.4,1.1,4.5.2,5.5-1.9.9-2,.5-3.5-.7-4.2-.2-.1-.3-.2-.2-.4l.4-.9s0-.3.3-.2c1.9.9,2.8,3.4,1.4,6.3-1.4,2.9-4.3,4.2-7.4,2.7-3.1-1.5-4-4.6-2.6-7.5,1.5-3.1,4.2-3.7,5.9-2.8,0,0,.1.1,0,.3l-.4.9h0Z"/>
    <path class="st5" d="M211.8,149.4c.1,0,.2.2.1.3l-.4,1.1c0,.1-.2.2-.3.1l-9.7-3.5c-.1,0-.2-.2-.1-.3l.4-1.1c0-.1.2-.2.3-.1l9.7,3.5Z"/>
    <path class="st5" d="M213.1,137.4l-1.4,5.8,1.7,1.4c.1.1.2.3.1.4l-.3,1.1c0,.1-.1.1-.2.1,0,0-.1,0-.2-.1l-8.8-7.6.2-.6,11.4-2.6h.2s.1,0,0,.2l-.3,1.1c0,.1,0,.2-.3.3l-2.2.5h.1ZM210.5,142.2l1.1-4.5-3.1.7c-.6.1-2.1.3-2.1.3h0c0,.1,1.3,1,1.7,1.4l2.4,2.1h0Z"/>
  </g>
  <g>
    <path class="st7" d="M116.3,181.5h-.5c-8.3-.1-22.4-3.6-34.4-13.1-9.1-7.2-20-20.3-20-41.6V50.7h109.4v76c0,21.3-10.9,34.4-20,41.6-12,9.5-26,13-34.4,13.1h0ZM116.1,179.9h.2c8.2-.1,21.8-3.5,33.5-12.8,8.9-7,19.5-19.7,19.5-40.4V52.2H63v74.5c0,20.7,10.6,33.4,19.5,40.4,11.7,9.3,25.4,12.7,33.5,12.8h0Z"/>
    <path class="st1" d="M116.3,174.5h-.4c-7.4-.1-19.8-3.2-30.4-11.6-8.1-6.4-17.7-18-17.7-36.8V57.7h96.8v68.4c0,18.8-9.6,30.4-17.7,36.8-10.6,8.4-23,11.5-30.4,11.6h-.2ZM116.1,173h0c16.3-.2,46.7-14.2,46.7-46.9V59.2h-93.7v66.9c0,32.7,30.4,46.7,46.6,46.9h.4Z"/>
    <path class="st1" d="M116.3,169.5h-.4c-6.9-.1-17.6-2.9-27.1-10.5-7.2-5.8-15.8-16.3-15.8-33.4v-63.2h86.3v63.2c0,17.1-8.6,27.6-15.8,33.4-9.4,7.6-20.2,10.4-27.1,10.5h0ZM116.1,168h0c14.5-.2,41.5-12.8,41.5-42.4v-61.7h-83.2v61.7c0,29.6,27,42.2,41.4,42.4h.3Z"/>
  </g>
  <path class="st1" d="M123.1,193.6c-.5,1.2-.9,2.3-1.2,3.4h-11.5c-.3-1.1-.7-2.2-1.2-3.4.2-.3.6-1.4.3-2.2-.4-.9-1.5-1.1-1.8-1.1-.9-1.8-1.8-3.5-2.6-4.5,2.8,2.4,6.6,3,6.6,3,0,0-.8,2.4,0,4.4.7,1.6,2.9,1.2,2.6-1s-1.8-3.9-1.8-3.9l3.5-5.7,3.5,5.7s-1.4,1.7-1.8,3.9c-.3,2.2,1.9,2.6,2.6,1,.8-2,0-4.4,0-4.4,0,0,3.9-.6,6.6-3-.8,1.1-1.7,2.7-2.6,4.5-.2,0-1.4.2-1.8,1.1-.3.8,0,1.9.3,2.2h.3ZM117,192c0-1.1-.9-1.9-.9-1.9,0,0-.9.9-.9,1.9s.9,1.9.9,1.9c0,0,.9-.9.9-1.9Z"/>
  <g>
    <path class="st1" d="M26,82.6c1.7,0,3.3.2,4.9.9,2.4,1.1,4.3,3.1,5.5,5.5,1,2.1,1.4,4.4,1.1,6.7,0,.8-.3,1.7-.6,2.5.5.8,1,1.4,1.7,2.1,1.4,1.3,3,2.3,4.7,3.3,2.7,1.5,5.4,3.3,7.1,6,.4.6.8,1.3,1.1,2,0,.3.2.8.3,1,.3.6.3,1,.5,1.6.5,2,.3,3.8,0,5.8.6-.3,1.2-.7,1.8-1.1.2-.2.9-.8,1-1,.8-1,1.5-2.4,1.7-3.7.2-1.4,0-2.8-.5-4-1.4-3.9-5.6-5.8-9-7.6-1.2-.7-2.6-1.2-3.4-2.4-1.6-2.3-1.1-5.5,1.3-7.1,1.9-1.3,3.6-1,5.7-1h1.8c.2,0,.4.2.5.4v.9c-.2,1-.8,2-1.6,2.7-.6.5-1.1.7-1.8.8-.5,0-1.1.2-1.5-.2v-.6c.5-.6.9-.3,1.6-.5,1.2-.4,1.4-1.1,1.9-2.1h-1.5c-2.1,0-4.2,0-5.5,2-.5.7-.8,1.7-.6,2.6.2.7.5,1.4,1,1.9,1,.9,2.6,1.7,3.9,2.3,1.2.6,2.3,1.3,3.4,2,.9.6,1.7,1.2,2.5,2,.9.9,1.6,1.8,2.2,2.9,0,.3.5,1.3.6,1.6.5,1.9.4,4.2-.3,6-1.1,2.8-3.2,4.2-5.8,5.3-.3.7-1.3,3.2-1.8,3.6h-15c-.7,0-1,0-1.5-.6,0-1,0-2.1.6-2.9.7-.8,1.3-1.2,2.3-1.3h1.9c-.5-.3-.9-.6-1.4-.9-1.8-1.2-3.5-2.5-5.2-3.9-.2.5-.4,1.3-.6,1.8-.6,2.1-1.2,4.2-1.9,6.3-.2.6-.8,1.3-1.4,1.6-.5.2-1.5.2-2.1.2h-3.9c-.8,0-1.1,0-1.9-.2,0-.1-.1-.3-.2-.4v-2c0-.8.7-1.4,1.3-1.8.8-.6,2.5-.6,3.4-.5v-6.1c-.5-.3-.9-.5-1.4-.8-1.7-1.3-3.1-3.1-3.8-5.2,0-.3-.1-.6-.2-1-.4-1.8-.4-4,.4-5.7-1-.2-2.1.2-2.9-.6-.5-.5-.8-.9-.8-1.7v-.6c0-.2.2-.4.2-.6,0,0-.3-.4-.4-.5-.2-.3-.4-.6-.5-.9-.4-.9-.5-1.8-.6-2.8v-.9c.2-.4,1.7-1.7,2.1-2.1.6-.5,1.1-1.1,1.7-1.7s1.4-1.3,2-1.9h0c0-.9,0-1.3.6-2.1,1.4-1.8,3-2.3,5.2-2.6v-.6h0ZM25.5,121.6c-1,.2-2.2,0-3.2,0s-1,.6-1.2,1.1c0,.2-.3,1-.2,1.1h5.9c.2,0,.5,0,.6-.2.6-.6,1.2-3.5,1.5-4.4,0-.3.2-.6.3-.9,0-.2.1-.4.2-.6.1-.3.2-.7.3-1,.1-.4.2-.9.4-1.3.2-.7.6-1.4,1-2,.4-.7.9-1.2,1.4-1.9.4-.6,1.1-1.8,1.1-2.5s-.2-.8,0-1.1c.2-.2.4-.3.6-.3s.3,0,.4.2c.3.3.2.7.2,1,0,2-.6,2.7-1.8,4.2-.3.4-.5.8-.8,1.1.8.6,1.4,1.2,2.4,1.9,1.9,1.5,4.1,3.1,6.2,4.2h2.4c-.5-.4-1.1-.7-1.6-1-1.7-1.1-3.1-2.5-3.4-4.6v-.4c0-.7,0-1.6.3-2.3,0-.3.3-.6.5-.9.9-1.2,2.2-2,3.7-2.2h1.5c.7,0,.8.3.9,1,0,.3-.3.5-.7.4-2.6-.8-5.6,1.6-4.9,4.3,0,.2,0,.3.2.5.7,2,2.7,3.1,4.4,4.1.6.4,2.8,1.3,1.6,2.3h-8.9c-.6,0-1.3.4-1.7.9-.3.4-.5.9-.5,1.4h14.4c.7-1.2,1.3-2.7,1.8-4,.4-1,.5-2.2.5-3.3v-1.6c-.2-1.2-.6-2.3-1.1-3.4-1.4-3-3.9-5-6.7-6.6-1.8-1.1-3.8-2.1-5.3-3.5-.4-.4-.8-.8-1.2-1.2s-.4-.5-.6-.7c-.8,1.3-1.9,2.6-3.2,3.6-2.6,2-6,3.3-7.1,6.7-.4,1.2-.4,1.8-.4,3v6c.1.6.1,1.1.1,1.7s.1.7-.2,1h0v.2ZM21.5,87.1h4.6c.2-.2.4-.4.7-.5.6-.4,1.2-.5,1.9-.4.7,0,1.3.7,1.7,1.3.4.6.5,1.6.3,2.2-.4,1.4-1.8,2.4-3,3v.9c-.5,2.2-2.5,3.6-4.1,4.8-1.4,1.1-2.5,2.5-3,4.3l-.3,1.2c-.1,1.2,0,2.5.4,3.6,0,.2,0,.4.2.5.4.9.8,1.8,1.5,2.6.4.6,1.6,1.6,2.2,2v-1c0-.5,0-1.1.2-1.6.3-1.2.7-2.2,1.5-3.1.9-1,1.7-1.8,2.8-2.6,1.7-1.1,3.4-2,4.8-3.6,1.3-1.4,2.2-3.2,2.5-5.1,0-.9.2-2.2,0-3.2-.3-1.6-1-3.2-1.9-4.6-1.8-2.6-5-4.4-8.2-4.2-1.3,0-2.9.7-3.7,1.6-.4.5-.7,1-.8,1.6l-.3.3h0ZM15.7,94.8c.1.6.2,1,.5,1.5.3.5.5.7,1,1h1.3c.3,0,.6,0,.9.2.2.2.2.5.2.7-.1.2-.2.3-.4.4h-1.9c-.3.2-.4.3-.4.6.3,1.2,2.1.8,3.1.9,1.5-2.8,4.6-3.4,5.8-6.2,0,0,.2-.4.2-.5.1-.4,0-1,0-1.4.2-.3.4-.4.7-.6.8-.5,1.8-.9,2.3-1.9.1-.3.3-.6.2-.9-.2-.6-.5-1.3-1.2-1.3s-1.2.9-1.8,1h-5.6c-.4.5-1.1,1.1-1.6,1.6l-2.3,2.3c-.2.2-1,.9-1.1,1.1h1c.7,0,1.1,0,1.1.9-.1.2-.2.3-.4.4h-1.7v.2h0Z"/>
    <path class="st1" d="M204,88.4c.7-1.9,2.8-2.7,4.6-2,.7.2.9.5,1.5.9.5-.2,1.2-.2,1.6,0,1.2.2,2.2,1,2.6,2.1.3.8.2,1.5,0,2.3.3.4.7.8,1,1.3,1.3,1.8,2.8,3.9,2.6,6.2-.2,2.1-2.3,3.2-4.3,3h-1.4c-.2,0,0,.8,0,1,0,.6,0,1.2-.1,1.9-.3,2.6-1.3,5.7-3.4,7.4v5.2c.1,2,.5,3.9,1.1,5.8,0,.2.1.5.2.7.1.4.2.9-.1,1.2-.3.2-.7,0-1.1,0h-2c-.6,0-.8-.9-1-1.4,0,.5.3,1.5-.6,1.5h-2.9c-.4,0-.6-.5-.6-.8s0-.5-.1-.7c-.1-.9-.2-1.8-.4-2.7,0-.5-.1-.9-.2-1.4l-.5-3c0-.5-.3-1.7-.3-2.1h-5.2c-.8,0-1.8-.2-2.6-.4-.7,1-1.6,1.8-2.3,2.7-.5.6-.5.8-.3,1.5.4,1.8,1,3.5,1.6,5.2.3.8.6,1.8-.6,1.7h-2.8c-.8-.2-1.3-2-1.7-2.7-.1-.2-.7-1.8-.7-1.8v.7c0,.4.1.9.2,1.3.1.6.3,1.3.3,1.9s-.4.6-.7.6h-3.6c-.4-.3-.4-.8-.5-1.3,0-.4-.1-.8-.2-1.2-.1-.9-.3-1.8-.4-2.6-.1-.7-.2-1.4-.3-2.1-.1-.8-.3-1.4-.2-2.2,0-1.4,1.3-2.7,1.4-4,0-.7-.7-1.9-.9-2.6-.1-.4-.3-.9-.4-1.3-.2,0-.4.2-.6.2-2.6.7-2.8-2.1-1.8-3.8.7-1.2,1.8-1.7,3.1-2.1.2-.3.3-.6.6-1,1.2-1.6,2.6-2.2,4.5-2.5,3-.5,6.3.5,9.2.9.8,0,2.2.2,3,0,1.4-.2,2.7-.5,3.7-1.6.2-.2.4-.5.6-.7-.7.4-1.8.7-2.6.7s-1.8,0-2.3-.6c-1.1-1.2.7-3.2,1.6-4,.6-.6,1.1-.9,1.7-1.3-.2-.9-.3-1.7.2-2.5.4-.7,1.1-1.1,1.8-1.3h1v-.3h0ZM184.9,124.4c-.3-1.2-.4-2.7-.6-3.9v-.7h0c0-.2-.1-.6,0-.9,0-.7,0-1.9.5-2.4s1.6-1.2,2.4-1.9c1.3-1.2,1.9-2.7,2.1-4.4v-.6c0-.6.6-.8,1-.4.1,0,0,.5,0,.7h0v.3c0,.8-.2,1.7-.4,2.5.6.2,1.5.4,2.2.6,2.2.5,4.5.7,6.7.6h1.1c.2-.3-.9-3.4.7-2.6.3,0,.4,2.2.5,2.6.4,2.1.7,4.1,1,6.2.2,1,.3,2.1.5,3.1,0,.5.2,1.1.2,1.6h2.1c0-.3,0-.6-.1-1v-2c0-.4-.1-1.8,0-2.1v-1c.2-1.8.2-3.7.7-5.4.2-.3,1.1-.5,1.3-.6,3.5-1.5,4.6-6.2,4.5-9.7v-.7c-.3,0-.7,0-1-.2-.6-.2-2-.3-1.3-1.3h.5c2.1.6,5.3,1.7,7.1,0-.4-.4-1.2-.7-1.4-1.3-.2-.4.2-.6.6-.7.4,0,.9.7,1.3,1,.2-2-1.5-4.3-2.6-5.8-.2-.2-.9-1-1-1.2-.2-.6.5-1.5,0-2.6-.3-.6-.9-1-1.6-1.2h-.7c-.3,0-.9.3-1.2.2-.2,0-.3-.3-.5-.4-.3-.3-.8-.5-1.2-.7h-1.3c-.8.2-1.3.7-1.7,1.4,0,.2-.2.6-.4.7s-.5,0-.7,0c-.3,0-.8.2-1.1.3-.5.3-.9,1-.9,1.6s.4.9.2,1.3c0,0,0,.2-.2.3-.2.2-.5.4-.7.5-1.1.8-2.3,1.7-2.8,3v.4c.8.4,1.7.3,2.5,0,2-.6,3-1.8,3.9-3.6.2-.3.3-.7.5-1,0-.2.2-.3.4-.4h.5c.1,0,.2.2.2.3,0,.6-1.2,2.7-1.6,3.2-.2.3-.5.6-.7.9-.1.2-.2.5-.3.7-.1.4-.3.7-.6,1-1.1,1.5-2.9,2.5-4.7,2.6-1.2,0-2.9,0-4.2-.2-.4,0-.8,0-1.2-.2-.3,0-.5,0-.8-.2h-.9c-.3,0-.6,0-.8-.2-.4,0-.9,0-1.4-.2h-3.7c-1.4.3-2.6,1-3.5,2.2-.7,1-1,2.1-1.2,3.3,0,.3-.1.6,0,.9v.2c0,1,.2,1.8.6,2.7.3.8.8,1.6.8,2.5,0,1.5-1.2,2.9-1.4,4.4,0,.5.3,2.3.4,2.9l.5,2.9c0,.3.4,2.4.4,2.6h2.5v-.5ZM180.4,103.6c-.9.5-1.6.9-1.9,2-.2.5-.2,1,0,1.5.5.3,1.1,0,1.5-.4-.1-.7,0-1.5,0-2.1s.2-1,.2-1h.2ZM206.3,113.5c0,.6-.2,1.2-.3,1.8-.2,1.3-.4,2.5-.4,3.8s0,1.4.1,1.9c.1.4.4,1.2.6,1.6.2.4.5,1.3.7,1.6h1.8c-.7-2-1.1-4.2-1.3-6.3-.1-1.6-.2-3.3,0-5-.5.2-.9.4-1.4.5h.2,0ZM188.3,124.4h2.1c-.3-.5-.5-1.2-.7-1.8-.5-1.5-1.1-3-1.3-4.6-.1-1.2,1-2.2,1.8-3.1.3-.3.6-.6.9-.9-.4,0-.8-.2-1.2-.4,0,0-.4,0-.5-.2-.6,1.1-1.5,1.9-2.6,2.7-.4.3-1,.7-1.3,1v.6c.5,1.7,1.8,5.1,2.7,6.6h.1Z"/>
  </g>
  <g>
    <path class="st8" d="M83.3,88.9c-.7.4-2,.9-2.4,1.6v8.8c0,.6.7,1.3,1.1,1.8,1.6,2.1,3.1,4.1,2.8,7-.2,1.9-.6,3.8-1,5.8l-2.1,11.1c-.3,1.4-.6,3.1-.9,4.5,1.1-.3,2.6-.8,3.6-1.3,4.7-2.2,7.3-5.5,9.1-10.3,1.1-3.1,1.8-6.4,1.9-9.6v-6.2c0-2.5,1.8-4.1,3.2-5.9v-7c-1-.7-1.9-1.1-3-1.6,0,.8.2,3.4-.3,4-.3.5-3.3,0-3.8-.5-.9-1,.6-5.2-1.3-5-.7,0-2,.2-2.5.8-.5.6-.3,1.9-.3,2.6s0,1.1-.3,1.5-1,.6-1.5.9c-.5.2-1.1.7-1.6.8h-.5c-.3-.2-.3-.8-.3-1.1v-2.7h.2,0ZM149,91.6c0,.3,0,.9-.3,1.1-.1,0-.3.2-.5,0-.5,0-1.1-.5-1.6-.8s-1.1-.5-1.5-.9-.2-1-.3-1.5c0-.7.2-2-.3-2.6s-1.8-.8-2.5-.8c-1.9-.2-.4,4-1.3,5-.5.5-3.4.9-3.8.5-.5-.6-.3-3.2-.3-4-1.2.5-2,.8-3.1,1.6v7c1.4,1.8,3.1,3.5,3.2,5.9v6.2c.1,3.3.8,6.5,1.9,9.6,1.8,4.8,4.4,8.1,9.1,10.3,1,.5,2.5.9,3.6,1.3-.2-1.4-.6-3.1-.9-4.5l-2.1-11.1c-.3-1.9-.7-3.9-1-5.8-.3-2.9,1.1-4.9,2.8-7,.4-.5,1.1-1.2,1.1-1.8v-7.9c0-.2,0-.8-.1-.9-.4-.8-1.7-1.3-2.4-1.6v2.7h.3Z"/>
    <path class="st8" d="M147.4,133.7c-1-.6-1.9-1.1-2.9-1.6-3.8-1.9-7.7-3.5-11.7-4.8v-22.3c0-.7.1-3.2-.2-3.7-1-1.5-3.3-2.5-4.6-3.9-.4-.5-.3-2.1-.3-2.8v-6.5c0-2.1-.2-2.8,1.5-4.2v-9.6c-.6-.4-1.3-.8-2-1.1-1.1-.6-2.2-1.1-3.3-1.6v4.2c0,.2-.3.4-.5.4-.5.2-3-.5-3.5-.7l-.3-.3c-.3-.6-.2-2.6-.2-3.3v-.9s0-.2-.3-.3c-.8-.4-4.8-.4-5.7,0,0,0-.2,0-.3.2-.5.5.2,3.6-.3,4.4-.2.4-.7.5-1.1.6-.7.2-2,.6-2.7.4-.2,0-.3,0-.5-.2h0c0-.2-.2-.4-.2-.5v-4c-1.8.9-3.5,1.6-5.2,2.7v9.5c1,.9,1.6,1.4,1.6,2.8v9.2c0,.4,0,.8-.2,1.1-.5,1-3.3,2.5-4.3,3.5s-.6.8-.7,1.3v25.5c-.3.2-1.1.5-1.4.6-.9.3-1.7.7-2.6,1-2.3.9-4.6,1.9-6.8,3-1.2.6-2.5,1.3-3.7,2-.9.5-2.1,1.6-3.1,1l1,.6c18-8.5,33-8.2,33-8.2,14.5,0,29.4,5.9,33.2,7.4-.6-.3-1.2-.7-1.7-1h0ZM117.8,85.3c.2-.3.4-.4.7-.5.4,0,.9,0,1.2.3.9.6.9,1.6.9,2.5v4.5c0,.5-.2.7-.8.8-.5,0-1.1-.2-1.5-.4-.2,0-.5-.3-.6-.5-.2-.6-.2-6.1,0-6.7,0,0,0,0,.1,0ZM111.7,86.7c0-1.2.8-1.7,1.8-1.9h.5c.2,0,.4.2.5.4,0,.2,0,.6.2.8,0,.8.2,5.4,0,5.9s-1.2.6-1.6.8c-1.3.3-1.3,0-1.3-1.2v-4.8h0Z"/>
  </g>
  <g>
    <path class="st2" d="M111,34.2c-1,0-2.8.2-3.9.3s-3.1.4-4.3.6c-1.2.2-3.3.6-4.5.9-1.2.3-3.2.8-4.3,1.1-1.1.3-3,.9-4.2,1.3-1.2.4-3.2,1.1-4.5,1.7-1.3.5-3.7,1.6-5.3,2.4s-3.9,2-5,2.6-2.8,1.7-3.9,2.4l-1.9,1.3h3.7c3.3-1.9,5.5-3.1,7-3.9,1.5-.8,3.7-1.8,4.9-2.3,1.2-.5,2.9-1.2,3.8-1.5s2.5-.9,3.5-1.2,2.8-.8,4-1.2c1.2-.3,3.2-.8,4.4-1,1.2-.2,3.1-.6,4.3-.7,1.2-.2,2.9-.4,3.9-.5,1.2,0,3.8-.2,7.4-.2s6.2,0,7.3.2c1,0,2.7.3,3.9.5,1.2.2,3.1.5,4.3.7s3.2.7,4.5,1c1.2.3,3.3.9,4.6,1.3,1.3.4,3.4,1.2,4.8,1.7,1.3.5,3.4,1.4,4.5,1.9,1.2.5,2.9,1.4,3.9,2,1,.5,2.6,1.5,3.6,2.1l1.8,1.1h3.7c-3.2-2.1-4.9-3.2-5.9-3.8s-3.2-1.7-4.9-2.6c-1.7-.8-4.1-1.9-5.3-2.4s-3.2-1.2-4.4-1.6c-1.2-.4-3.2-1-4.5-1.4s-3.3-.8-4.4-1.1c-1.1-.2-2.8-.6-3.7-.7-.9-.2-2.8-.4-4.2-.6-1.4-.2-3.6-.4-5-.4h-9.8,0Z"/>
    <g>
      <path class="st7" d="M45.6,78.1c.6-1.1,1.3-2.4,1.8-3.1.5-.9,1.4-2.3,2-3.1.6-.8,1.6-2.4,2.4-3.4.7-1,2-2.6,2.8-3.5s1.8-2.1,2.4-2.7l1-1v-3l-1.6,1.6c-.8.9-2.2,2.4-3,3.3-.8,1-2.2,2.7-3.1,3.9-.9,1.2-2.2,3-2.9,4s-1.8,2.8-2.5,3.9c-.4.7-1,1.9-1.7,3.1,0,0,2.4,0,2.4,0Z"/>
      <path class="st7" d="M177.9,65.2c.7.8,1.8,2.2,2.5,3.2s1.8,2.5,2.5,3.5c.6.9,1.5,2.3,2,3.1.4.7,1.2,2,1.8,3.1h2.4c-.7-1.3-1.5-2.8-1.9-3.5-.6-1-1.6-2.6-2.3-3.6s-1.8-2.6-2.5-3.6-2-2.5-2.8-3.5-2.3-2.6-3.2-3.7c-1-1.1-1.8-1.9-1.9-1.9s0,.7,0,1.5v1.5c1.8,1.9,2.8,3.1,3.5,3.9,0,0-.1,0-.1,0Z"/>
      <path class="st7" d="M195.1,131.2c-.2,1.1-.5,2.3-.6,3.1-.2,1-.6,2.6-.9,3.5-.2.9-.8,2.7-1.2,4s-1.1,3.2-1.5,4.2-1.2,2.8-1.7,3.9c-.5,1.2-1.5,3.2-2.2,4.5s-1.7,3-2.2,3.9c-.5.8-1.4,2.2-1.9,3s-1.6,2.3-2.3,3.2c-.7,1-2,2.6-2.8,3.6s-3,3.3-4.8,5.1-4.1,3.9-5,4.7-2.5,2-3.5,2.8-2.8,2-4,2.8-3.2,2-4.5,2.7-3.3,1.8-4.5,2.4c-1.2.6-3.2,1.5-4.5,2s-3.7,1.4-5.3,2-4.2,1.3-5.6,1.7c-1.4.4-3,.7-3.4.8-.6.1-1.3.5-2.6,1.3-1,.6-2,1.3-2.1,1.4-.2.1-.3.2-.2.3,0,0,1.1-.1,2.4-.3,1.3-.2,3.1-.6,4.1-.8s2.8-.7,4.1-1c1.3-.4,3.3-1,4.5-1.4s3.2-1.1,4.4-1.6,3.6-1.6,5.3-2.4c1.7-.8,3.9-2,4.9-2.6s2.9-1.7,4.2-2.6c1.3-.8,3.1-2.1,4.1-2.9,1-.7,2.5-1.9,3.4-2.7s2.6-2.2,3.7-3.2c1.1-1,2.8-2.7,3.8-3.8s2.5-2.8,3.3-3.7c.8-1,2-2.5,2.8-3.5.7-1,1.8-2.6,2.5-3.6s1.7-2.6,2.3-3.6,1.7-3.1,2.6-4.7c.8-1.7,2-4,2.5-5.3s1.3-3.2,1.7-4.4c.4-1.1,1-3,1.4-4.2s.8-3.1,1.1-4.1c.2-1,.6-2.7.8-3.8,0-.2,0-.4.1-.6h-2.7Z"/>
      <path class="st7" d="M102.9,196.6l-2-1.3c-3.4-.8-5.2-1.2-6.2-1.5s-2.7-.8-3.9-1.2c-1.1-.4-2.8-1-3.7-1.3-.9-.3-2.5-1-3.7-1.5-1.1-.5-3-1.4-4.2-2s-3-1.6-3.9-2.1-2.6-1.6-3.7-2.3-2.7-1.9-3.7-2.6c-.9-.7-2.3-1.8-3.1-2.4-.8-.6-2.3-1.9-3.3-2.9-1.1-1-2.8-2.7-3.9-3.8-1.1-1.1-2.5-2.8-3.3-3.7s-2-2.5-2.8-3.5c-.7-1-1.8-2.5-2.4-3.4-.6-.8-1.5-2.3-2-3.1-.5-.9-1.5-2.5-2.1-3.7-.6-1.1-1.6-3.2-2.3-4.6-.6-1.4-1.6-3.7-2.1-5.1-.5-1.4-1.2-3.3-1.5-4.3s-.8-2.7-1.1-3.9-.8-3.2-1-4.5v-.6h-2.2c.2,1,.4,2.2.6,3,.3,1.3.9,3.6,1.3,5.1.4,1.5,1.1,3.6,1.5,4.6s1,2.7,1.4,3.7,1.4,3.3,2.3,5c.9,1.8,2.1,4.1,2.8,5.3.7,1.1,1.8,2.9,2.5,3.9s2,2.9,2.9,4c.9,1.2,2.3,2.9,3.2,3.9.8,1,2.6,2.9,3.8,4.1,1.3,1.3,3,3,3.9,3.8s2.1,1.9,2.8,2.4c.6.5,2,1.6,2.9,2.3,1,.7,2.8,2,4,2.8s3.2,2,4.4,2.7c1.2.7,3.5,1.9,5.2,2.7s4.2,1.9,5.5,2.4,3.2,1.2,4.2,1.5,2.7.9,3.9,1.2c1.1.3,3.1.8,4.3,1.1,1.2.3,3.1.6,4.1.8s2,.3,2.2.4h.4s-.9-.7-2-1.4h0Z"/>
    </g>
  </g>
  <path class="st5" d="M119.8,134v-.5l.2-.5.4-.7.3-.3.6-.4h.4c0-.1.7-.1.7-.1l.8.2,1,.7h.3c0,.1.4,0,.4,0h.2v-1.1h.3c0-.1.3-.1.3-.1h.9v1h0v.8l-.2.3h0v.4l-.3.5h0l-.2.3-.7.4h-.4c0,.1-.6.1-.6.1,0-.1-.3-.2-.3-.2l-.8-.5-.5-.3h-.4l-.4.2v.9l-.5.2h-1l-.2-.3v-1h-.3ZM120.2,133.7h0ZM121,134.2h0c0-.1,0,0,0,0ZM122.3,132.9h.2v.2h0c0,.1,0,0,0,0h0l-.2-.2h0c0,.1,0,0,0,0h0ZM122.4,132.6h0ZM122.7,132.2h0ZM122.9,133.5h0c0-.1,0,0,0,0ZM123.1,134h0c0-.1,0,0,0,0h0ZM123.2,133.2h0ZM123.2,132.8h.2-.2c0,.1,0,0,0,0ZM123.3,133.3h0ZM123.5,133.3h0c0-.1,0,0,0,0ZM123.8,132.8h0c0-.1,0,0,0,0h0ZM124.4,133.8h0ZM124.5,133.9h.4v-.3h-.4v.2h0ZM125.7,133.6h0v-.2.2h0ZM126,133h0ZM125.9,134h0v-.2.2h0ZM126.4,131.9h0c0-.1,0,0,0,0h0ZM126.5,133.1h0Z"/>
  <path class="st6" d="M112.4,115.2c.3,0,.6.3.9.5.9.5,1.6,1.3,2.2,2.1,0,.2.3.4.4.6v.3s0,.2-.2.2c-.3,0-.4,0-.5-.3-.8-1.2-1.8-2.2-3.1-2.8-.2,0-.5-.2-.7-.3-.4,0-.8.2-1.1.4-1.1.4-1.8.8-2.7,1.4-.6.5-1.2,1-1.7,1.7v.2c-.6.8-.9,1.4-1,2.4v.4c0,.6.2.9.4,1.4.9,1.4,2.2,1.3,3.6,1.3h15c.8,0,1.5,0,2.3-.3.7-.3,1.1-.9,1.4-1.6v-.8c0-2.3-1.8-4.1-3.6-5.2-.3-.2-.6-.3-.8-.5,0,0-.3,0-.4-.2h0c.5.6.9,1.2,1.2,1.8,0,.2.3.6.2.8,0,0-.2.2-.3.2-.3,0-.4-.5-.6-.8s-.4-.7-.6-1c-.4-.5-.9-1.1-1.4-1.5,0,0-.5-.2-.6-.2-.7-.2-1.4-.3-2.1-.4h-1.2c.5.4,1,.8,1.5,1.4,0,0,.2.2.2.3,0,0,.2.2.2.3.4.5.7,1.1,1,1.6v.3c0,.3-.5.3-.7,0,0,0,0-.2-.2-.3,0-.2-.2-.4-.3-.6-.8-1.2-1.9-2.4-3.2-3h-.6c-.9,0-1.7,0-2.6.2h-.4,0Z"/>
  <path class="st6" d="M112,109.2h.5c.5,0,1,.4,1.5.7,0,0,.2.2.3.2v.4h-.3c-.6-.5-1.3-.8-2.1-.9h-.4c-.2,0-.4.3-.5.4-.5.4-.8.7-1.1,1.2-.2.4-.4.7-.6,1.2h0c0,.6-.2,1,0,1.5v.2c0,.3.2.5.5.7.7.5,1.3.3,2.1,0l.9-.3,3-1,2.8-1,.9-.3c.4,0,.8-.2,1.1-.5.3-.3.4-.6.4-1v-.4c-.3-1.2-1.7-1.8-2.7-2h-.8c.3.2.7.4.9.7,0,0,.3.2.2.4h0c-.2,0-.3-.2-.4-.3-.2,0-.3-.3-.5-.4-.3-.2-.6-.4-1-.5h-1.9c.4,0,.7.2,1,.4h.4c.3.2.5.4.8.6v.2c0,.2-.2.2-.3.2h-.2s-.2-.2-.3-.2c-.6-.5-1.4-.9-2.2-1h-.3c-.4,0-.9.3-1.3.5h-.3v.3Z"/>
  <path class="st6" d="M117,102.8s.2.2.2.3c.2.3.3.7.4,1.1v.3h0v-.2c0-.6-.2-1.1-.6-1.5l-.2-.2h-1.7c-.3,0-.6,0-.9.3h0c-.3.2-.5.4-.7.7h0v.7c0,.6.5.8,1,1.1l.6.3,2,1,1.9.9.6.3c.3,0,.5.3.8.3s.5,0,.7-.3l.2-.2c.4-.8,0-1.7-.4-2.4,0,0,0-.2-.2-.3h0v1h0v-.9c0-.2,0-.5-.2-.7l-.2-.2c-.2-.2-.4-.3-.6-.5,0,0-.2,0-.3-.2h0c0,.2.2.5.3.7h0v.9h-.2v-.5c0-.6-.2-1.1-.6-1.6h-.2c-.3,0-.6-.3-.9-.4h-.5l-.3.2Z"/>
  <g>
    <path class="st5" d="M94.6,25.1s.2,0,.2.1c.2.8.9,1.2,2.4.9,1.4-.3,1.7-1,1.6-1.7,0-.4-.4-.8-1.3-.6l-1.9.3c-1.4.2-2.1-.3-2.3-1.2-.2-1,.4-2.3,2.4-2.7,2-.4,3,.4,3.2,1.5h0c0,.1-.7.1-.7.1,0,.2-.2.1-.2,0-.2-.6-.8-1-2-.8-1.1.2-1.7.9-1.6,1.6,0,.4.4.7,1.2.6l1.8-.2c1.5-.2,2.2.4,2.4,1.3.2.9-.3,2.3-2.4,2.7-2,.4-3.2-.3-3.5-1.5h0v-.3h.7Z"/>
    <path class="st5" d="M103.1,25.7v.2h-.7c0,.1,0,0-.2,0l-1-6.4v-.2h.7c0-.1,0,0,.2,0l1,6.4Z"/>
    <path class="st5" d="M111.7,22c.2,1.7-.8,3.1-3.1,3.3-2,.2-3.6-1-3.8-3.2-.2-2.2,1.2-3.6,3.2-3.8,2.2-.2,3.3,1.1,3.4,2.2h0c0,.1-.8.1-.8.1-.2-.7-.8-1.6-2.4-1.4-1.4.1-2.4,1.2-2.3,2.9.2,1.6,1.3,2.5,2.8,2.4,1.6-.1,2.3-1.1,2.2-1.9l-2.9.3s-.2,0-.2-.1v-.7l3.9-.4v.4h0Z"/>
    <path class="st5" d="M114.9,24.1h3.7s.2,0,.2.2v.5s0,.2-.2.2h-4.6v-6.6h0c0-.1.7-.1.7-.1h0v5.9h.2Z"/>
    <path class="st5" d="M127.2,22.1c-.2,2.2-1.9,3.4-3.9,3.2-2-.2-3.5-1.6-3.4-3.8.2-2.2,1.9-3.4,3.9-3.2,2,.2,3.5,1.6,3.4,3.8ZM120.9,21.6c0,1.6,1,2.7,2.4,2.8,1.5.1,2.7-.8,2.9-2.4,0-1.7-1-2.7-2.4-2.8-1.4-.1-2.7.8-2.9,2.4Z"/>
    <path class="st5" d="M135.7,23.5l2,3.7h0l-.9-.2c-.1,0-.2,0-.2-.2l-1.7-3.1h0c-.2.2-.4.4-.5.5l-2.1,1.7c-.1.1-.2.1-.3,0l-.9-.2h0l3.3-2.7-1.9-3.6h0l.9.2c.1,0,.2,0,.2.2l1.6,2.9h0c.2-.2.5-.5.7-.7l1.8-1.4c.1-.1.2-.1.3,0l.9.2h0l-3.2,2.6h0Z"/>
  </g>
  <g>
    <path class="st5" d="M93.2,136.9c.5.9.8,2,.7,3.4,0,1.4-.3,2.4-.7,2.9s-1,.7-1.9.5v.2c.6.3,1.1.6,1.4,1s.6.9.7,1.5.2,1.4,0,2.5c0,1.5-.4,2.5-1,3.1-.6.5-1.3.4-2.2-.3-1.4-1.1-2.1-1.7-3.4-3v-13.1h3.9c1,0,1.8.4,2.3,1.3h0ZM90.2,142.1c.3.1.5,0,.6-.3s.2-.8.2-1.4,0-1.1,0-1.4c0-.3-.3-.5-.6-.5h-.7v3.5c.3,0,.4.1.7.2h0ZM90,148.5c.3.2.5.2.6,0s.2-.7.2-1.3v-1.8c0-.4-.3-.6-.6-.8-.3-.1-.4-.2-.6-.3v3.8c.2.2.4.3.6.4h-.2Z"/>
    <path class="st5" d="M96.5,155.2c-.5-.8-.9-1.7-1.2-2.6-.3-1-.4-2-.3-3.1.2-3.5.2-5.2.4-8.7,0-1.1.3-2,.6-2.8.4-.8.8-1.5,1.4-1.9.6-.5,1.2-.7,1.9-.7s1.3.2,1.8.8c.5.5.9,1.3,1.2,2.3.3,1,.4,2.1.3,3.4-.2,4.1-.2,6.1-.4,10.2,0,1.3-.3,2.3-.6,3.2-.4.9-.8,1.4-1.4,1.7s-1.2.3-1.9,0c-.7-.3-1.3-.9-1.8-1.7h0ZM97.8,152.5c0,.3.3.5.6.6.3.1.5,0,.6-.2.2-.2.2-.6.3-1,.2-4.5.3-6.7.5-11.2,0-.5,0-.9-.2-1.1,0-.3-.3-.4-.6-.4s-.5,0-.6.3c-.2.2-.3.6-.3,1.1-.2,4.3-.3,6.4-.5,10.7,0,.5,0,.9.2,1.2h0Z"/>
    <path class="st5" d="M104.2,135.7h2.8c-.2,7.5-.3,11.2-.5,18.7,1,.2,1.5.3,2.6.4,0,2.1,0,3.1,0,5.1-2.2-.4-3.3-.7-5.5-1.4.3-9.2.5-13.7.8-22.9h-.1Z"/>
    <path class="st5" d="M112.7,135.7h4c.7,9.9,1.1,14.9,2,24.8h-3.1c0-2-.2-3.1-.3-5.1h-1.3c0,2-.2,3.1-.3,5.1-1.2,0-1.9-.1-3.1-.3,1-9.7,1.4-14.6,2.2-24.4h0ZM115.1,151.3c-.2-3.8-.3-5.6-.4-9.4h-.2c-.2,3.8-.3,5.6-.5,9.4h1.1Z"/>
    <path class="st5" d="M119.8,135.7h3.7c.7,6.1,1,9.1,1.8,15h0c-.2-6-.3-9-.4-15h2.8c.3,9.2.5,13.8.8,22.9-1.5.5-2.3.7-3.9,1-.7-5.5-1.1-8.3-1.7-14h-.2c0,5.7.2,8.6.3,14.3-1.2.2-1.8.3-3,.4,0-9.9-.2-14.8-.3-24.6h0Z"/>
    <path class="st5" d="M131.9,157c-.6-.3-1.1-.9-1.4-1.7-.4-.9-.6-1.9-.6-3.2-.2-4.1-.2-6.2-.4-10.3,0-1.3,0-2.4.4-3.4.3-1,.7-1.7,1.2-2.3.5-.5,1.2-.8,1.8-.8s1.3.2,1.8.7c.6.5,1,1.1,1.4,1.9.3.8.5,1.8.6,2.8.2,3.5.2,5.3.4,8.8,0,1.1,0,2.1-.3,3.1s-.6,1.9-1.1,2.6c-.5.8-1.1,1.3-1.8,1.6s-1.3.4-1.9,0v.2ZM133,153c.2.2.4.3.6.2.3-.1.5-.3.6-.6s.2-.7.2-1.2c-.2-4.3-.3-6.5-.5-10.8,0-.5-.1-.8-.3-1.1-.2-.2-.4-.3-.6-.3-.3,0-.5.2-.6.4s-.2.7-.2,1.2c.2,4.5.3,6.7.5,11.2,0,.5.1.9.3,1.1h0Z"/>
    <path class="st5" d="M140.4,152.4c-.5,0-.9-.4-1.2-1.1-.3-.6-.5-1.4-.5-2.4v-1.3c1.1-.5,1.6-.7,2.6-1.2v1.7c0,.3,0,.6.3.7.2.1.3,0,.5,0,.5-.3.7-.8.7-1.5v-1.2c0-.8-.4-1.1-1-.9-1,.4-1.8.3-2.5-.3s-1-1.7-1.1-3.2v-1.1c0-1,0-2,.3-2.8s.7-1.4,1.2-1.8c.5-.4,1.1-.6,1.8-.6s1.3.2,1.8.5,1,.8,1.3,1.4c.3.6.5,1.2.5,1.9v1c-1,.3-1.6.5-2.6.8v-1.7c0-.3,0-.6-.3-.7-.2-.2-.4-.2-.6-.2s-.4.2-.6.4c-.1.2-.2.5-.2.9v1.2c0,.6.1.9.4,1.1.2.2.6.2,1,.1.9-.2,1.7-.2,2.2.2.5.3.8,1,.8,2v1c0,.7-.1,1.5-.4,2.3-.3.8-.6,1.6-1.1,2.4-.5.8-1,1.4-1.7,2-.6.5-1.2.7-1.7.6v-.2Z"/>
  </g>
</svg>