<?xml version="1.0" encoding="UTF-8"?>
<svg id="Capa_2" xmlns="http://www.w3.org/2000/svg" version="1.1" viewBox="0 0 186.6 232">
  <!-- Generator: Adobe Illustrator 30.6.0, SVG Export Plug-In . SVG Version: 2.1.4 Build 11)  -->
  <defs>
    <style>
      .st0 {
        fill: #af7d17;
      }

      .st1 {
        fill: #bd8918;
      }

      .st2 {
        fill: #f8cc43;
      }

      .st3 {
        fill: #efba2d;
      }

      .st4 {
        fill: #594520;
      }

      .st5 {
        fill: #7d5b1a;
      }

      .st6 {
        fill: #e2ab22;
      }

      .st7 {
        fill: #cc941a;
      }

      .st8 {
        fill: #f7c32e;
      }

      .st9 {
        fill: #053470;
      }

      .st10 {
        fill: #f8c531;
      }

      .st11 {
        fill: #dfa721;
      }

      .st12 {
        fill: #e2aa22;
      }

      .st13 {
        fill: #f9c730;
      }

      .st14 {
        fill: #996e18;
      }

      .st15 {
        fill: #f9c731;
      }

      .st16 {
        fill: #b38218;
      }

      .st17 {
        fill: #f5c332;
      }

      .st18 {
        fill: #f8d453;
      }
    </style>
  </defs>
  <path class="st3" d="M95.3,232h-3.7c-8.2-3.2-16.2-7.3-23.7-12-16.2-10.3-30-23.9-40.8-39.7-9.9-14.4-17-30.4-20.8-47.4s-3.3-17.5-4.2-26.4-1.6-17.5-1.7-26.3l-.4-31.8L.5,11.4c17.6,2.5,35.5,1.7,53-.7,13.7-2.1,27.2-5.4,40-10.7,13,5.3,26.7,8.6,40.5,10.6,11.7,1.6,23.4,2.5,35.2,2.2s11.2-.6,17-1.4l.5,26v11.4c0,13.4-.2,26.7-.9,40.2s-1.9,23.6-3.9,35.3c-3.4,20-10.9,38.8-22.2,55.6-11.6,17.4-26.8,32-44.8,42.6s-12.4,6.7-19.1,9.2c-.3,0-.4.2-.5.3ZM93.5,227.9c4.3-1.5,8.1-3.2,12-5.2,13.1-6.7,25.1-15.5,35.2-26.1,11.1-11.6,20-25,26.6-39.6,3.9-8.8,6.9-17.8,8.9-27.2,1.7-7.9,2.9-15.8,3.7-23.8s1.6-19.5,1.9-29.3c.6-20.1.5-40.1,0-60.3l-12.1.8c-10,.2-19.8-.2-29.7-1.4-12-1.3-23.8-3.7-35.3-7.2s-7.5-2.4-11.2-3.9c-5.6,2.3-11.3,4.1-17.3,5.8-19.5,5.2-39.6,7.4-59.8,6.8s-7.7-.4-11.6-.9c-.4,16.7-.5,33.1-.2,49.7l.5,19.9c.5,10,1.2,19.8,2.6,29.7,2.2,15,5.6,28.9,12,42.7,5.9,12.6,13.6,24.2,22.9,34.5s24.1,22.3,38.8,29.8,7.9,3.8,12.1,5.3Z"/>
  <path class="st9" d="M93.5,227.9c-4.2-1.5-8.2-3.2-12.1-5.3-14.7-7.5-27.8-17.6-38.8-29.8s-17.1-21.9-22.9-34.5c-6.4-13.8-9.8-27.7-12-42.7s-2.2-19.7-2.6-29.7l-.5-19.9c-.2-16.6-.1-33,.2-49.7,4,.5,7.7.8,11.6.9,20.2.7,40.3-1.5,59.8-6.8,5.9-1.6,11.6-3.5,17.3-5.8,3.7,1.5,7.4,2.8,11.2,3.9,11.6,3.5,23.3,5.9,35.3,7.2,9.9,1.2,19.8,1.6,29.7,1.4l12.1-.8c.4,20.1.5,40.1,0,60.3-.3,9.9-.9,19.6-1.9,29.3s-2,15.9-3.7,23.8c-2,9.4-4.9,18.5-8.9,27.2-6.6,14.6-15.5,28-26.6,39.6-10.2,10.7-22.1,19.4-35.2,26.1-3.9,2-7.7,3.6-12,5.2ZM92.3,20.7l-2.3,13.8c-.4,0-.6-.2-.9-.5l-12.4-8.7c0,0-.1.1-.2.1l1.2,1.6,7.6,10.9c.2.3.4.6.4.9l-18.3,3c-.6,0-1.1,0-1.7.3.5.2.8,0,1.1,0l18.9,3.4-9.5,13.8c.4,0,.6-.3.8-.5l12.3-8.7c.1,0,.3-.3.4-.3s.2.2.2.3l3.3,19.8c.2-.6.3-1.1.3-1.6l3.3-18.7,12.9,9.1c0,.2.4.5.6.5h.2c0,0-9.6-13.8-9.6-13.8l17.5-3c.1,0,.3,0,.4-.1h.2s1.9-.3,1.9-.3c-.5-.4-.9-.3-1.3-.3l-18.6-3.1,8.4-12.4c.4-.4.8-.9,1.1-1.5l-4.9,3.5-8.7,6.1-3-17.2-.6-3.3-1,6.5ZM76.6,25.2c-.1-.2-.4,0-.2.2l.2-.2ZM22.2,61.4c-.8.8-1.4,1.7-1.9,2.7-1.2,2.3-1.8,5-1.4,7.7.8,5.6,5.8,8.6,11,9.6s.5.2.8.2c.5,0,1,.2,1.5.1.1,0,.3.2.5.2s.1,0,.2,0c.2,0,.4.1.6.1,0,.1,0,.2,0,.3-.4.2-.7.6-.5,1.1h-.3s-.8,0-.8,0l-2.2-1.1c-2-1-4.2-.8-6.2.1s-3.8,1-3.9,1.7.1.6.3.8l2.3,2c.4,2.1,2.7,2,2.6,2.2v.4c.4.6,1.5.9,2.3.8s1.1,1.3,4.2-.6.4-.1.5-.3c.8,0,1.3.4,1.9.5l.5.8c-.3.9,0,1.7,0,2.6-.2,3.5.5,6.8,2.3,9.9s.6,1.2.3,2,.2.8.2,1.1l-.4,2.7c0,.7.3,1.3.7,1.6s1,.5,1.6.4v.2c.2,2.2.8,4.3,1.6,6.5s.1.5.4.6c0,0,0,.3,0,.4,0,.2.2.4.4.6l.5,1.4.2,1.5.2,5c0,1.9.2,3.8.9,5.6s1.8,3.4,3,4.8l.5,2,.7,1.9c0,0,0,.2,0,.3,0,0,0,.1,0,.2.5,3.1,1.6,5.9,2.9,8.8s1.2,3,1.4,4.6v3.3c-.1,1.7.7,3.2,1.3,4.7s.2,3.2,0,4.8-.4,2.4-1.1,3.3-.6,2-.7,3.1-1.5,1.8-2.2,2.4h-.2c-.5.2-.4.8-.6,1.1l-3,4.5c0,.1-.2.2-.2.4,0,.4,1.2,0,2.2.3,0,0,0,.4.2.4h4.5c1.4,0,2.8-.3,4-.8s.4-.9.5-1.3c0,0,.2,0,.2,0s.1-.2.2-.3l.4-.9c.6-1.4-1.3-2.1.3-4.1.6.6,1.1.9,2,1.3.3-1.1.4-2.1.3-3.2l-.6-1.7c-.4-3.3-.4-6.7.7-9.8s1.4-2.7,1.4-4.4-.2-2.2,0-3.1l.4-1.1c0-.3.4-.8.7-.9l1-.4,1.9-.9c.8-.4,1.5-.7,2.3-.8h1.2c0,0,.8,3.4.8,3.4.4,1.7-1.7,3.5,1.1,8.7s.8,6.8-.2,8.6-.7,2.2-.7,3.5-1.2,1.6-1.8,2.2l-.6.6c-.2.2,0,.5-.1.6l-2.8,4.6c0,.2-.2.3-.2.5s.2.2.3.2h1.9c.2,0,.4.2.5.2,1.1.7,2.5.4,3.8.4s2.5-.2,3.8-.5c1.8-.5,1.3-2,1.8-2.5s.4-.4.4-.8c-.1-1.7-1.7-2.7-.1-4.1l2,1.2c.1-1.1.4-2.4,0-3.5l-.9-2.4c-.4-3-.6-6.1.2-9.1s1.4-2.7,1.3-4.2.1-3.4.6-5.1l.6-1.8.8-3.1,2.3-1c2.2-.7,4.5-1.2,6.9-1.4,3.7-.3,11.1.9,13.7,3.3s-1.3,2.3.1,3.8c0-.8,0-1.4.7-1.8,0,1,0,1.8.7,2.5s.2,1.1-.2,1.7c2.1-.8.7-2.7,1.7-3.8l.7,1.1v.3c0,0,.2.2.3,0s.1-.2.1-.4c0-.6,0-1.1.2-1.7s.3-.8.5-1.1l.4-.6,1.1-1.1,2.3-1.6,4.8-2.6.5.2c0,.3.1.6.3.8.4,1.1.2,2.2.5,3,.3,1.7.8,3.6,1.7,5.2s.7,2.6.6,4.1c-.2,2.4-.4,4.7-1.4,7s-1.8,4.1-3.4,5.7-1.5,2.2-1.9,3.6-2.7,1.9-3.3,3.1c0,0,0,.3,0,.3l-3.5,4.7c-.1,0-.2.2,0,.3.4.3.9.1,1.3.1l1,.2c0,0,0,.2,0,.2s0,.3,0,.4h3.5c1.6,0,3.4,0,4.8-.7s.8-1.4,1-1.9.3-.5.3-.8c0-.5,0-.9-.2-1.5s.3-1.9,1-1.9c.6.3,1,1.1,1.8,1.2.6-1.3.6-2.7.5-4.1s.6-1.7.9-2.5c.5-1.6,3.4-6,4.7-7.7l3.2-4.1c.5-.7,1.5-1.5,1.2-2.5s-.7-2-1.2-2.8c-.2-1.3-.4-2.6-.3-4s.2-.6,0-1c.6-.2,1.1-.7,1.3-1.2s.1-.1.2-.2c.2-.2.4-.6.4-.9v-2.6c.4-.1.7,0,1,0,1.8,2,2.3,5.6,6.9,8.9s1.1,1.5,1.6,2.4l2.1,4.4c1.1,3,1.4,6.1,1.2,9.3s-.4,1.4-.7,1.9c-.6,1.1-.3,2.1-.4,3.2s-1.2,1.5-1.7,2.1-.8.5-.8,1v.5s-2.7,4.6-2.7,4.6c0,.1-.2.2-.2.4,0,.4,1.5,0,2.8.4,0,0,0,.1,0,.2,0,.2.3.4.6.3h3.5c1.6-.2,4.2-.8,4.3-1.6h0c0-.1.2-.4.2-.4l.5-1.4c.1-.2.4-.3.3-.6s0-.2,0-.3c.2-.2,0-.3,0-.5l-.7-1.7c-.3-.7.3-1.5.8-2.1.6.6,1,1.1,1.9,1.1v-1.9c.5-1.1,0-1.7-.3-2.6-1.3-4.6-1.2-9.4-.7-14.1l1-5c.2-.9.1-2.1-.6-2.7-3.5-3.2-4.4-8.2-3.3-12.8l2.1-9.4c.8-3.6,1-7.1.6-10.7s-1.9-6.6-4.3-9.1c.2-.3.5-.6.9-.6,1.3.4,2.7,1.1,3.7,2.2,1.8,2,2.7,4.4,3.2,7s0,.6.3.8v.2s0,.2,0,.2v1.3c0,.2,0,.3.2.4v.4s0,5.3,0,5.3l-.2,3v6.6c0,0,.1,1.3.1,1.3.2,1.6.2,3,0,4.5l-.6,1.9c-.6,1.9-.2,3.8.9,5.5s1.1,1.7,1.3,2.7c0,0,0,.3,0,.4-.3.3-.3.7-.4,1.1-.5.6-.6,1.5-.8,2.4s.2,1.7.6,2.4l.4.9c.2.4.7.3,1.1.3l1.1,1.2v.2s0,0,0,.1c.3.7.3,1.4,0,2.4.6,0,.7-.7.8-1.2.4-.4.6-.9.8-1.4s.4-1.3.1-2,0-.2-.2-.2v-.3c-.1,0,1-.2,1-.2-1.2-.4-1.2-2.2-1-2.7l1.3-2.6c.1-.3.2-.6.1-.8v-.2c1-.7.7-2.7.8-4v-.4c.1-2-.7-3.9-1.9-5.5l-2.1-3.3c0,0,0-.2,0-.3,0-.2,0-.3-.2-.4v-.2c0-.2,0-.3-.2-.4v-.2c0-.2,0-.5-.2-.6v-.2c0-.2,0-.5-.2-.6v-.5c0-.4.1-1-.2-1.3-.5-5.8,1.6-11.8-.3-19.2-1.8-7.1-7-11.7-14.4-11.6s-4.9-.3-7.4-1-6.4-1.1-9.6-.2c-6.6,1.9-13.2,2.4-20,1.7s-11.3-1.7-16.7-4l-4.9-2.6c-1.6-.9-3.3-1.3-5.1-1.8l-3.7-1.1c-.4-.1-.7-.3-1-.6-1.4-1.3-3-2.3-4.7-3.3s-.2-.3-.2-.4l1.4-1.5c.7-.7,1.2-1.3,2-1.9s.5-.6.4-.9-.4-.6-.7-.6c-3.8-1-5.8-3.1-10.8-.8l-.9.4c-.3-.3-.7-.6-.9-1.2.2-.2.5-.2.7-.2s.3-.2.4-.3c.7,0,1.2-.2,1.8-.4,1.8-.6,3.5-1.1,5.2-2.2,6.3-4,6.1-12.7,1.3-17.8s-1.2-1.3-2.1-1.6c1.5,2.4,2.5,5.1,2.4,7.9-.2,4.5-3.3,6.8-7.5,7.3h-1c0,.1-1.6.2-1.6.2h-1.2s-.9,0-.9,0c-.5,0-.9-.4-1.3-.8-1.1-1-1.7-.1-2.7-.9s-2,.6-3.3-.4-3.7.7-5.3,0-3.2-.5-4.6.5c-1-.3-2-.4-2.8.3-1.2,0-2.2.7-3.1,1.3h-.5s-.3,0-.3,0h-.7c0,.1-.6,0-.6,0h-.5s-1.1,0-1.1,0h-1.4c-4.4-.6-7.8-3.7-7.6-8.3s.9-4.9,2.4-7.3c-1.1.3-1.9,1.2-2.6,1.9ZM110.8,59.6h-.3c0,.2.3.2.3,0Z"/>
  <path class="st15" d="M101.7,102.7c0,.3,0,.6.4.8s.5.3.7.1.2-.5.2-.7c.4-.3,1-.2,1.5-.1-.1.5-.4.9-.4,1.6.2.2.6.3.7.8-.3,0-.7,0-.9.2s-.4.5-.3.8c.7.1.8-.6,1.1-.7l1.3-.4c.3,0,.6.2.7.2l1.8-.5c.7,0,.9,1,1.2,1.4.6,0,1-.1,1.5.2l1.8-.3c.8.2,1.4.4,2.2,0,.4.9,1.2.4,2.3.9s1.1,0,1.5-.4c.9-.9,2-1.4,3.1-2l1.5.8c.4-.4.9-.6,1.3-1.1-.6-.2-.9-.3-.9-.8,2.2-.6,4.4-1.4,6.9-1.4s4.9.6,7.3,1.4c-.1.4,0,.9-.4,1.3-.4-.8-.9-1.3-1.7-1.4s-.4.2-.4.3c.3.4.4.8.5,1.3l2.2.4c.3,0,.7-.2,1.1,0s.4,0,.5,0,.2-.3.2-.5l.7.4c-.3.7-.1,1.6.7,2l.7-.9c3.3,2.5,5.3,6.3,5.8,10.5s0,6.3-.8,9.4l-2.9,8.3c-1,2.8-2.3,5.2.1,8,1.4-1.3,2.2-2.9,3.2-4.7-.2,2.4-.6,4.6-.2,7s0,1.3-.1,1.8l-.3-.2c-.2-1.3-.9-2.7-2.4-3.1,1.1,2.2,1.7,4.4,1.9,6.8s1,2.9,2.3,3.9.6,1.2.6,1.8l-.3,4.1c-.3,4.2.3,8.3,1.3,12.3s-1.3,2.6-2.5,2.9c.1.5.6.7,1.1.8-.5,1.8,1.1,2.6.3,3.2-1.6-.8-3.4-1.2-5.2-.8,0-.4-.1-.6-.2-.5s-.2.2-.2.3c-.5-.2-1.1-.3-1.6-.1,0-.4.5-.6.8-1,.5.1.8-.1,1.2-.5l1.2-1.3c.1-.1.7-.1.9-.3-.4-1-.8-2-.4-2.9s1-2.4.9-3.8c-.2-5.4-.8-8.7-3.8-13.4,1.2.2,1.9,1,2.7,2,0-.9-.1-1.9-.9-2.4-2.1-1.5-4.1-3.1-5.7-5.1s-1.6-2.4-1.9-3.9l-.6-2.4c-.5.1-.8.2-1.2,0l-4-2.7-1.7-.9c-4.1-2.2-6.2-1.9-10.8-.9l4-2.8,2.5-2c.6-.5.7-2,1.4-2.8.4,2,1.5,3.9,2.9,5.5.8,2,4.5,4,7.6,2.8-4.3-1.9-7.4-5.3-9-9.6l-1.2-4.6c0-.2-.2-.4-.4-.4,0-.7,0-1.5-.1-2.1s-.2-1.6-.3-2.4c.4.1.9.3,1.3,0,.6-.4,1.6-2.3,1.3-3.1-.4.2-.7.3-1,.2s-.5-.4-.7-.7l-1.3-.6c-.3-.1-.3-.6-.5-.7-.3-.1-.7-.1-.9.2-.4.8.7.4,1.2,1.1-.1.9-.5,1.8-.9,2.6l-2.4.4-1.2-.2.2-1.4c0,0,.2.1.3.1.2,0,.7-.6.5-.9s-.4-.2-.6-.2l.7-2.4c.4.2.9.3,1.2,0s.5-.7.4-1.1-.8-.4-1.1-.4l1.4-3.7,1.2.2c.3,0,.6-.2.6-.4,0-.3-.1-.6-.4-.7s-.8-.2-1.1,0c.1-.5.2-1,0-1.5-1,.8-1.8,1.6-2.9,1.9,0-.2-.3-.3-.5-.2s-.1.4-.1.5c-1.8.8-3.7.9-5.8,1l2.4,5.4c.9,2.7,1.2,5.4.9,8.2s-1.4,5.1-3.2,7.2c-4.1,4.6-11.2,8.4-17.4,7.5s-7.4-3.5-8.1-7.7-2.1-8-3.6-12c-.2-3.9,2.2-7.5,4.8-10s1.7-2,1.4-3.2c-.5-2.2-2.1-3.8-3.5-5.6l4.7,1.6c2.7.7,5.4,1.1,8.1,1.2ZM133.8,103.5c0-.3-.4-.5-.6-.7s-1-.2-1,0c0,.7.8.9,1.6.6ZM126.6,106.2c.3.2.8,0,.8-.3s0-.6-.2-.8-.5-.2-.8,0,0,.9.2,1.1Z"/>
  <path class="st6" d="M76,92.9l3.7,1.1c1.8.5,3.5.9,5.1,1.8l4.9,2.6c5.4,2.3,10.9,3.4,16.7,4s13.4.1,20-1.7,6.5-.8,9.6.2,4.8,1.1,7.4,1c7.4,0,12.6,4.5,14.4,11.6,1.9,7.4-.2,13.4.3,19.2s-.1,1,.2,1.3v.5c0,.2,0,.5.2.6v.2c0,.2,0,.5.2.6v.2c0,.2,0,.3.2.4v.2c0,.2,0,.3.2.4,0,0,0,.2,0,.3l-.3.7-.9-1.7c-.6-2.1-.7-4.2-.5-6.4l.5-6.6c.3-3.7-.2-7.4-1.3-11s-1.1-2.2-1.7-3.3-1.6-2.1-2.6-3c-2.2-1.9-4.6-3-7.5-3.2s-3.2,0-4.8.7-1.4,0-1.8,0c-2.3-.8-4.7-1.4-7.3-1.4s-4.7.8-6.9,1.4-3.8.5-5.7.5h-4.5c-3.2-.2-6.2-.5-9.3-1-.5,0-1-.2-1.5.1-.3-.4-.9-.3-1.3-.2-2.7-.1-5.4-.5-8.1-1.2l-4.7-1.6c1.5,1.8,3.1,3.3,3.5,5.6s-.5,2.3-1.4,3.2c-2.6,2.5-5.1,6.1-4.8,10,1.5,3.9,2.9,7.8,3.6,12s4.1,7.1,8.1,7.7c6.2.9,13.3-2.9,17.4-7.5s3-4.4,3.2-7.2,0-5.5-.9-8.2l-2.4-5.4c2.1,0,4-.2,5.8-1s.4-.2.6-.3c1.1-.3,1.9-1.1,2.9-1.9.3.4.2,1,0,1.5l-.3,1-1.4,3.7-.5,1.5-.7,2.4-.2.9-.2,1.4-.9,5.6c1.9-1.7,3.4-3.6,4.5-5.8s.8-1.7.9-2.6c0,0,.2-.2.4-.1l.3,3.7c0,.8,0,1.6.3,2.4-.3.2-.2.6-.2.9,0,2.6-.1,5.1.4,7.5-.8.8-.9,2.3-1.4,2.8l-2.5,2-4,2.8c4.6-1,6.7-1.4,10.8.9l1.7.9,4,2.7c.4.2.8.2,1.2,0l.6,2.4c.3,1.4,1,2.7,1.9,3.9,1.6,2,3.6,3.5,5.7,5.1s.9,1.6.9,2.4c-.8-.9-1.5-1.7-2.7-2,3.1,4.7,3.7,8,3.8,13.4,0,1.4-.4,2.6-.9,3.8s0,2,.4,2.9c-.2.1-.7.1-.9.3l-1.2,1.3c-.3.4-.7.6-1.2.5.5-.6,1.7-1.1,1.7-2.1s-.2-2.1.4-3.2.7-1.2.7-1.9c.2-3.2-.1-6.3-1.2-9.3l-2.1-4.4c-.4-.9-.7-1.8-1.6-2.4-4.6-3.3-5-7-6.9-8.9l-2.2-2.3c-2.7-3.7-7.4-5.1-11.7-3.4s-.4.2-.5.3.1.2.2.3h-.2c0-.2-.3-.2-.5-.2-.9.3-1.7.8-2.5,1.3l-2.9,1.7c-4.4,2.6-9.5,3.4-14.6,2.6l-10.4-1.5c-.7,0-1.8-.4-1.9-1l-.5-3.3c-.4-1.7-.3-3.2-.1-4.9l.5-4.2c0-.3-.1-.4-.2-.6,0-2.2,0-4.7-1-6.9.8,4.9.9,8-1.2,12.7s.8,5.1-1,8-1.7,3.9-2.3,6l-.8,3.1-.6,1.8c-.5,1.7-.7,3.4-.6,5.1s-.9,2.8-1.3,4.2c-.8,3-.6,6.1-.2,9.1l.9,2.4c.4,1.1.1,2.3,0,3.5l-2-1.2c-1.6,1.4,0,2.4.1,4.1-.6.1-1.1-.5-1.6-.7,0-.8-.7-1.2-.9-1.8s.2-1.4.4-2.1c-.5,0-1.3.3-1.7-.2s.4-.4.7-.5c1.3-.4,2.3-1.6,2-3-.6-3.1-.7-7.7.9-10.1,2.6-3.8.8-5.3,1.6-8.1,1.2-4.1,1.8-8.2,2.2-12.5s.5-2.2,1.2-3l-.5,2.3v4.7c.6-1.7.9-3.2,1.8-4.8s.3-.9.2-1.3c-.3-1.8-.3-3.4-.4-5.4-.8,1.7-1.7,3-2.8,4.5s-1.2,2.3-1.2,3.4c-.2,2.8-.6,5.4-1.4,8.1s.2,5.6-.4,7.6-.7,1.6-1.3,2.2c-.1-1.2.2-2.4-.2-3.4-.8-1.9-.9-3.6-.4-5.6l1.3-5.5c.6-2.6.2-5.2-.8-7.8,4.9-2.8,7.5-10.4,8-15.8s-1.1-8.7.8-12.2,1.7-2.3,2.8-3.3c2.9-2.6,1.2-6.5-1.7-9.1s-4-2.2-6.3-2.8-.8-.1-1.1.2l-1.7-1.4c-.1-.3-.1-.7-.4-.9.2-.1.3,0,.4,0ZM88.7,99.8h0c0,0,0,.2,0,.2h0c0,0,0-.2,0-.2ZM118.7,138.3h0c0,0,0,.2,0,.2h0c0,0,0-.2,0-.2ZM77.7,176.9c.4-1.4,0-1.9-.7-2.8l-.5,1.3c.5.5.7,1.1,1.2,1.5Z"/>
  <path class="st13" d="M75,180.5c-1.8-.8-3.8-1.7-5.8-1.2-.1,0-.2-.4-.3-.4-.6,0-1.2,0-1.8-.3l.6-.6c.9,0,1.7-1,2.4-2,.4,0,.8.2,1.3,0-.9-.7-1.2-1.5-.9-2.6l1-2.3c.5-2,.4-4,.3-6,1.7.8,3.4-1.5,3.3-3.5-1.1,1.3-2.9,1.7-4,.4s-1.4-3.1-.9-4.7.2-2.5-.2-3.9l-1.7-6.1c-.9-3.1-.7-6.1.7-9,.5-.5,1.1-.9,1.9-1.1-.3-.2-.6,0-.7,0-.1,0-.3,0-.2-.2.3,0,.6-.1.5-.4-2.2.3-4.8,0-6.3-1.8s-2.6-6.2-1.9-9.5,1.5-4.4,2.5-6.5,2.9-4.7,4.6-6.8,3.8-4.7,5.5-7.3,2.5-7,1.1-10.6l1.7,1.4c.3-.3.7-.4,1.1-.2,2.3.6,4.5,1.3,6.3,2.8,2.9,2.6,4.6,6.5,1.7,9.1s-2.1,2-2.8,3.3c-1.9,3.5-.3,7.6-.8,12.2s-3.1,13-8,15.8c1,2.6,1.4,5.2.8,7.8l-1.3,5.5c-.5,2-.4,3.8.4,5.6s0,2.2.2,3.4c.6-.6,1.1-1.4,1.3-2.2.6-2-.1-5.8.4-7.6.8-2.7,1.3-5.3,1.4-8.1s.6-2.5,1.2-3.4c1.1-1.5,2-2.8,2.8-4.5.1,2,.1,3.6.4,5.4s0,1-.2,1.3c-.9,1.5-1.2,3.1-1.8,4.8v-4.7s.4-2.3.4-2.3c-.7.8-1.1,1.9-1.2,3-.4,4.2-1.1,8.4-2.2,12.5s1,4.3-1.6,8.1-1.6,7-.9,10.1-.7,2.7-2,3-.8.3-.7.5c.4.5,1.2.3,1.7.2-.2.7-.7,1.5-.4,2.1s1,1.1.9,1.8Z"/>
  <path class="st12" d="M142.2,104.4c2.1,1,4.1,2.1,5.8,3.8,2.5,2.4,3.9,5.5,4.3,9.1s.2,7.2-.6,10.7l-2.1,9.4c-1,4.6-.2,9.6,3.3,12.8s.8,1.8.6,2.7l-1,5c-.5,4.7-.6,9.5.7,14.1s.8,1.5.4,2.6v1.9c-1,0-1.5-.5-2.1-1.1-.5.6-1.1,1.4-.8,2.1l.7,1.7v.5c0,0,0,.2,0,.3-.4,0-.6-.2-.9-.4l-1-.6c.8-.6-.9-1.4-.3-3.2-.5,0-1-.3-1.1-.8,1.2-.3,2.9-1.4,2.5-2.9-1-4.1-1.6-8.1-1.3-12.3l.3-4.1c0-.6,0-1.5-.6-1.8-1.2-1-2.1-2.3-2.3-3.9-.2-2.3-.9-4.5-1.9-6.8,1.5.4,2.2,1.8,2.4,3.1l.6,3.9c.2,1.3,1,2.3,1.9,3.2s.8,2,.8,3.1l.2,4.3c.4-.6.4-1.2.4-1.9v-4.1c0-.9-.8-1.5-.9-2.2-.3-1.5-.6-2.8-1.7-4.1s-.2-.7-.6-.7l-.4-1.3c0-.5.2-1.2.1-1.8-.4-2.4,0-4.6.2-7-1,1.8-1.8,3.4-3.2,4.7-2.4-2.8-1.1-5.3-.1-8l2.9-8.3c.8-3.1,1.2-6.2.8-9.4s-2.5-8-5.8-10.5l-1.5-1.1-.7-.4c-.2-.1-.5-.4-.6-.7.6-.3,1.3-.6,1.9-.3l.7.7ZM148.6,144.4c0-.1,0-.2-.2-.2s-.2,0-.2.2,0,.2.2.2.2,0,.2-.2ZM151.6,156.6l.7-4c.4-1.2-.3-2.1-1.1-2.9-1.4-1.3-1.8-3.1-2.7-4.9,0,1.6.7,3,1.2,4.5l1,2.8c.6,1.5.8,3,.8,4.5ZM152.8,174.6c.2-.9,0-1.6-.6-1.9-.4,0-.6.9-.4,1.3s.6.8,1,.6Z"/>
  <path class="st11" d="M128.3,150.9l-.4,1.5c-.3,1.2-.4,2.7.2,3.9,1.1,2.4-.3,3.2-1,5.2.5.2.5-.4.6-.5,1-1.1,1.3-2.3,1.6-3.6s0-1.4,0-2.3v-3.8c1.3.1,1,1.3,2.1,3s1,1.8,1.2,2.8-.7,1.8-1.2,2.5l-3.2,4.1c-1.3,1.7-4.3,6.2-4.7,7.7s-1,1.6-.9,2.5c.2,1.4.1,2.8-.5,4.1-.8,0-1.2-.9-1.8-1.2-.7,0-1.3,1.3-1,1.9s.2,1,.2,1.5c-.7,0-1.1-.7-1.7-1,.1-.6,0-1.1-.3-1.7.2-.4.5-.7.6-1.3-.3-.3-.7-.5-.9-1,2.2-.3,3.6-1.9,3.5-4,1.1-3,2.6-5.6,4.3-8.2s1.6-2.7,2.3-4.2-.8-2.5-.9-5-.8-2.5-2-3.3-1.7-1.3-2.7-1-.9,1.5-.8,2.2c.3,1.6,1.2,2.9,2.1,4.3-.5.7-.7,1.3-.8,2.1-.2,2.1-.6,4.2-1.3,6.2l-2.2,4.5c-.6,1.2-1.5,2.1-2.3,3-1.4,1.6-.2,3.5-1.6,2.9-.5,1.3-2,1.4-2.6,2.7.4.1.6,0,.7-.1,0,.3,0,.5.1.6v.2s-.5,0-.5,0c-.1-.6-.7-.8-1.3-.6.6-1.2,3-1.8,3.3-3.1s.8-2.5,1.9-3.6c1.6-1.6,2.5-3.7,3.4-5.7s1.3-4.5,1.4-7,.2-2.7-.6-4.1-1.4-3.5-1.7-5.2.2-1.2.7-1.8c1-1.1,2.3-1.5,3.7-.9,2.8,1.2,2.7,3.2,5,4.7ZM130.1,159.2l.8-1.2c.7-1.2.2-2-.6-3.5l-.8,4.8-1.8,3.1s0,.1.2.2l2.3-3.3ZM127,161.7h0c0,0,0,.2,0,.2h0c0,0,0-.2,0-.2ZM127.6,162.6h0c0,0,0,.2,0,.2h0c0,0,0-.2,0-.2ZM121.6,176.5c.5-.9.4-1.7-.1-2.7-.6.8-.8,1.9.1,2.7Z"/>
  <path class="st12" d="M61.1,155.8c-.3.9-.1,2.1,0,3.1,0,1.7-.8,2.9-1.4,4.4-1.1,3.1-1.1,6.6-.7,9.8l.6,1.7c0,1.1,0,2.2-.3,3.2-.8-.4-1.3-.7-2-1.3-1.6,2,.3,2.7-.3,4.1l-1.8-1.2c.1-1.3-1.1-1.6.1-2.9l-1.9-1.2c1.1-.2,1.9-.5,2.4-1.1,1.6-1.7,0-4.3.6-7.3l.9-4.3c.2-.9.9-1.8.4-2.7l-1.2,3.2c-.6.9-1.4,1.4-2.6,1.2l-.3,4.1c-.2,2.6-2.6,4.1-1.4,6.5l-.8.3c-1.2,1.7-2.5,1.7-2.6,2.4h-.3c0-.1,0-.5.2-.6.8-.6,2.1-1.3,2.2-2.4s0-2.1.7-3.1,1-2.1,1.1-3.3.4-3.2,0-4.8-1.4-3-1.4-4.7v-3.3c0-1.6-.6-3.1-1.3-4.6-1.3-2.9-2.4-5.7-2.9-8.8v-.2c0,0,0-.2,0-.3,1.2,1.5,2.4,3,3.9,4.4s2.1,2.3,2.7,3.8,1.4,1.9,2.1,2.9,1.2,1.6,2.4,2,1.7,1,2.7,1ZM55.6,162.4c1.6-1.3,1.7-3.9.5-5.3s-1.2-1.7-1.6-2.8l-.9-3.2c-.7-1.6-2.1-2.7-3.4-3.9l2,6.4c.5,1.5.4,2.7.2,4.2s.4,2.6.9,3.7,1.4,1.4,2.2.9ZM58.6,176c.4-.8.1-1.6-.5-2.1-.2.4-.5.9-.3,1.3s.4.6.9.8Z"/>
  <path class="st1" d="M63,92.8c.9,4,.5,8.3-1.1,12.2l-2.2,4.4c0,.2,0,.4,0,.5,0,.2,0,.5-.2.7l-3.2,5.5c-.3-.2-.5-.3-.9-.3,0-.1.1-.3,0-.6-.3.1-.3.4-.4.5,0-.2,0-.3-.1-.6-.5,1.3-1.3,2.4-2.3,3.4l-1.5,1.5c-1.2,1.1-2.5,1.8-4.2,1.6-.2-.2-.5-.2-.5-.7v-2.6c.2-.4-.7-.9-1-.7-.7.5-.7,1.4-.5,2.1-.5-.2-1.2-.4-1.6,0-1.1-1.4-2-2.9-2.9-4.6-.9.8,1.4,1.8.8,3.7-.3,0-.3-.3-.4-.6-.8-2.1-1.4-4.3-1.6-6.5.2.2.4.4.7.5.4.2.8.7,1.1,1-.2.4.2.6.4,1,.8,1.2,1.8,2.3,3.2,2.8,0-.6-.4-.8-.2-1.4,1.4,1.5,3.3,1.9,5.1.9s2.7-2,3.7-3.3,2.1-3.8,3.2-5.8l1.8-3.4.4-.5c.2-.3.4-.5.8-.4l-.3,1.7c0,.4,0,.8.2,1.1l-1.3,2.5c-1.1,2.2-1.7,4.7-2.1,7.2l4.2-7.9c1-1.8,1.7-3.6,2.2-5.6s.2-.8.4-1.3c.7-1.5.7-4.3,0-6s0-.7-.2-.9l-.6-.4v-2.2c1,0,.9,1.4,1.6,1.6ZM39.8,114.4h-.1c0,0,.1.2.1.2h0c0,0,0-.2,0-.2Z"/>
  <path class="st12" d="M52.3,105.2c0,1.1-.5,2.2-.1,3.4s.1.6.1.9c-.3.7-.5,1.7-1.4,1.9s-2-.2-3-.3l-3.7-.6c-.2,0-.3-.4-.4-.3l-.4.3-2,.4-2.5.5c-.6.1-1.2,0-1.6-.4s-.8-1-.7-1.6l.4-2.7c.1,0,.3-.2.2-.4.2,0,.2.3.3.5l.8,2.2c-.4.1-.6-.3-.9-.6-.5.1-.4.9-.2,1.3.3.6,1.6.4,1.9,0s.2-.5.2-.9l.3.6c.2.4,2.4-.1,3.7-.7.2-.1,0-.6.3-.9.2.2.1.5.2.9l3.3.8c.4.1.7,0,1-.4,0,.7.4.7,1,.8.8.2,2,.1,2.2-.9s0-1.6,0-2.5c-.9,1.5-1.9,2.8-2,1.9,1.5-1.9,1.9-4.9-.2-5.9-.4-2.3,1-3.6.7-5.6-.3,0-.6.2-.8.3-.3,1-.4,1.9-1,2.8-.2-2.8.2-5.4.9-7.9,1.1.5,0,1.3.2,2.8.6-1.3.8-2.6,2-2.5l-.4.9c-.3.8-.1,1.8-.2,2.8s0,.8.5.9.2.8.6,1.2c.3-1,.6-1.8,1.2-2.6-.3-.4-.5-.6-.6-1.2.9.6,1.5.2,2.2-.2,1-.6,2-1.3,2-2.6h.3c0,1.6-1.1,3.2-2.6,4.4.9.2,1.5-.3,2.2-.8-.5,1.5-1,2.9-1.8,4.2l-1.4,2.1c-.2,0-.5-.1-.5,0v.5c-.1.9-.2,2-.2,2.9Z"/>
  <path class="st17" d="M29.9,74.9c0,.3-.5.3-.5.7.6-.1,1.1-.2,1.4.2-.5,1.1-.8,2.3-.9,3.6-2.1-.5-4.5-1.2-6.1-2.5-3-2.3-4.2-6.2-3.5-10s.9-3,1.7-4.5.4-.6.3-1c.7-.7,1.5-1.6,2.6-1.9-1.5,2.3-2.3,4.6-2.4,7.3-.2,4.6,3.1,7.7,7.6,8.1Z"/>
  <path class="st17" d="M70.1,61.2c0,1.1,1.2,2,1.4,3l.9,3.3c.8,6.2-3.5,10.2-9.5,11.5s-.8.2-1.1,0l-.3-2.4v-1.2c.5-.3.9-.5,1.3-.7,4.2-.6,7.3-2.9,7.5-7.3s-.9-5.5-2.4-7.9c1,.3,1.6,1,2.1,1.6Z"/>
  <path class="st17" d="M61.9,75c0,.2-.2.4-.2.6-.6.3-.5,2.6,0,3.8l-1.7.3c-.5-1.6-.8-3.9.3-4.6h1.6Z"/>
  <path class="st2" d="M93.5,20.8v20.6s1.2-1.8,1.2-1.8c.3.1.6.3.9.5l-1.7,1.8c.2.1.1.3.2.4-.3,0-.6.3-.5.6l.3.6c-.2,0-.3.3-.3.5v4.9c-1.2.6-2.3,1.3-3.4.8l3-6.8c0-.2,0-.3-.1-.3,0,0,0,0-.1,0,0,0,0-.1,0-.2v-.2c.1,0,.2-.2.2-.2l-1.2-2.8-1.9-4.5,2.3-13.8,1.2.2Z"/>
  <path class="st17" d="M70.2,88.6l-.4.2c-.3.4-.8.7-1.3,1-2.1,1.4-4.6,1.3-6.6,0-.5-.9-1.9-1.1-1.7-2,.4,0,.8,0,1.1,0,.1.5.7.4,1,.6s.7.9,1.2.6c.6-1.1,1.3,0,2.6-.2-.3-.4-.6-.7-.8-1.3,1,0,1.9-.2,2.8-.6-.2-.3-.4-.3-.9-.6l1.6-.7,2.3-.7h.4c.1-.1.1-.4,0-.5h1.2s0-.3,0-.3l-2.3-.2c-2.4-1-4.3-1.3-6.1.7s-1.3,1.4-2.2,1.7c-.4-.4-1.3,0-1.5-.7-.3-.9.6-1.7,1.4-2.5s.4-.3.4-.6c5-2.3,7-.1,10.8.8s.7.4.7.6-.2.7-.4.9c-.8.6-1.3,1.2-2,1.9l-1.4,1.5Z"/>
  <path class="st17" d="M31.9,83.6c.7,1.1,1.3,2.2.3,2.9s-.6.2-.7.5c-2.5-.3-3.2-4.9-8-3l-1.8.4c-.4,0-.8-.1-1.1.1l3.3,1.5c.4.2.8.5,1.3.5s1,.5,1.4.8c.9.8,2.2,1,3.2,1.4s.2.5.4.5c.2,0,.3-.3.4-.4.3-.2.8-.4,1.2-.4,0,.5-.3,1-.4,1.5-3.1,1.9-3.5.5-4.2.6s-1.8-.2-2.3-.8v-.4c0-.2-2.2,0-2.6-2.2l-2.3-2c-.2-.2-.4-.5-.3-.8.1-.7,1.9-.8,3.9-1.7s4.3-1.2,6.2-.1l2.2,1.1ZM29.7,89.3c0-.1,0-.2-.2-.2s-.2,0-.2.2,0,.2.2.2.2,0,.2-.2Z"/>
  <path class="st18" d="M101.1,38.8l18.6,3.1h-1.4c-.1,0-.2,0-.3.1s0,.2,0,.2h-1.2c0-.1-.1-.2-.3-.2s-.3,0-.3.2h-13.6s-8.7,0-8.7,0c0,0,0-.2-.2-.4l7.2-3Z"/>
  <path class="st18" d="M90,34.5l1.9,4.5,1.2,2.8h-.2s-2.1-2-2.1-2l-12.3-12.3c-.3-.3-.5-.3-.8-.3l-1.2-1.6s0,0-.1,0c-.2-.1,0-.4.2-.2h.1c0,0,12.4,8.8,12.4,8.8.3.2.6.5.9.5Z"/>
  <path class="st18" d="M85.7,38.9l6,2.6c.4.2.7.3,1.2.3,0,0,0,.2,0,.3v.2s-24.5,0-24.5,0c-.2-.4-.6-.4-1-.4l18.3-3Z"/>
  <path class="st11" d="M67.8,178c.6-.6,1.8-1.2,1.8-2.2s0-2.3.7-3.5c1-1.8,1.1-7,.2-8.6-2.9-5.2-.8-7-1.1-8.7l-.8-3.3-1.3-5c-.5-2-.5-5.4.6-6.8s.8-1,1.3-1.4c-1.5,2.8-1.6,5.9-.7,9l1.7,6.1c.4,1.3.6,2.5.2,3.9s-.1,3.4.9,4.7,2.9.8,4-.4c.1,2-1.6,4.3-3.3,3.5.2,2.1.2,4-.3,6l-1,2.3c-.3,1.1,0,1.9.9,2.6-.5.3-.8,0-1.3,0-.7,1-1.5,2.1-2.4,2Z"/>
  <path class="st3" d="M96.9,34.6l-1.8,3.8-.4,1.2-1.1,1.8v-20.6c0-1.1,0-2.3.4-3.4l3,17.2Z"/>
  <path class="st6" d="M68.4,42.3h24.5s0,.1,0,.1l-7.2,3.3-18.9-3.4h1.5Z"/>
  <path class="st3" d="M96.9,49.9l-3.3,18.7-.2-19.8v-4.9c0-.2.2-.4.4-.5l3.1,6.5Z"/>
  <path class="st16" d="M63,141.2c-.4-.5-.9-1.1-.8-1.7l1.3,1.5c1.3,1.1,2.3,2.5,2.7,4.2l.9,3.5c-2.7-.2-4.9-1.1-7-2.3v.2c2,1.7,4.5,2.5,7.2,2.9l.7,1.8c-.2.1-.5.3-.6.3-.8.1-1.5.5-2.3.8l-1.9.9c-.2,0-.5,0-.7,0,.1-.3,0-.6-.3-.9v-.3c.7,0,3.1-.8,3.3-1.4s-1.1-1.9-3-1-2.1.6-3,0c1-.1,1.9-.1,2.8-.9l-3.4-2.4c-1.6-1.1-2.8-2.5-3.7-4.2l-.5-3c.4,0,.4.5.5.9.8,2.5,2.7,4.4,5.1,5.5s3.2,1.6,3.4.8,0-.5-.2-.8h.7c.4-.8.5-2,0-2.9l-1.2-1.7ZM59.3,145.9h0c0,0,0,.2,0,.2h0c0,0,0-.2,0-.2ZM59.5,146.2c.1.3.4,0,.2-.1h-.2ZM59.9,146.2l-.2.2h.1c0,.1.2,0,.2,0h-.1Z"/>
  <path class="st18" d="M93.5,48.8l.2,19.8c0,.5,0,1-.3,1.6l-3.3-19.8c0-.2,0-.6.1-.8,1.1.5,2.1-.2,3.4-.8Z"/>
  <path class="st11" d="M43.6,125.8c0,.4.1.6.3,1l2.3,4.9c.8,1.6,1.1,3.1.9,4.9v1.7c.2.4.2.6.4.8,0,.1,0,.3-.2.3l-1.4-1.6c-1.2-1.4-2.2-3-3-4.8s-.9-3.7-.9-5.6l-.2-5c.4.1.4.6.6.9.4.8,1.1,1.5,1.1,2.4Z"/>
  <path class="st11" d="M63.6,81.2c-.9.3-1.6-1.2-1.8-2.1.3.2.7,0,1.1,0,5.9-1.3,10.2-5.3,9.5-11.5l-.9-3.3c-.3-1-1.4-1.9-1.4-3,4.8,5,5,13.8-1.3,17.8s-3.4,1.6-5.2,2.2Z"/>
  <path class="st18" d="M99,44.8l2,.9,9.6,13.7s0,0,.2.2c0,.2-.2.2-.3,0s0-.1-.1-.2c-.2,0-.6-.3-.6-.5,0-.6-.7-.7-1-1-1.7-1.9-3.4-3.6-5.2-5.5l-9.9-10,5.3,2.2Z"/>
  <path class="st6" d="M90.2,49.5c0,.2-.1.6-.1.8,0-.1-.1-.3-.2-.3s-.3.2-.4.3l-12.3,8.7c0-.4.2-.8.6-.9.5-.2.7-.6,1.1-1l5.1-5.3,9.2-9.4c.2,0,.2.1.1.3l-3,6.8Z"/>
  <path class="st18" d="M93,42.4c0,0,0,0,.1,0l-9.2,9.4-5.1,5.3c-.4.4-.5.8-1.1,1s-.6.6-.6.9c-.2.2-.4.4-.8.5l9.5-13.8,7.2-3.3Z"/>
  <path class="st11" d="M94.1,42.2h8.7c-.1.8-1,1.4-1.8,1.6-.2-.2-.4-.5-.7-.5-.9,0-1.4.8-1.3,1.6l-5.3-2.2,9.9,10c1.8,1.8,3.5,3.5,5.2,5.5s1,.4,1,1l-12.9-9.1-3.1-6.5-.3-.6c-.1-.3.2-.6.5-.6Z"/>
  <path class="st12" d="M116.3,42.3h.6s1.2,0,1.2,0h.4c.2,0,.2.3,0,.4l-17.5,3-2-.9c-.1-.8.4-1.7,1.3-1.6s.5.4.7.5c.8-.1,1.6-.8,1.8-1.5h13.6Z"/>
  <path class="st18" d="M109.5,26.4c-.1,0-.6,0-.6.2,0,.7-.5.7-.9,1l-12.5,12.4c-.3-.2-.5-.3-.9-.5l.4-1.2,1.8-3.8,8.7-6.1,4.9-3.5c-.3.6-.7,1.1-1.1,1.5Z"/>
  <path class="st3" d="M109.5,26.4l-8.4,12.4-7.2,3,1.7-1.8,12.5-12.4c.4-.4.8-.4.9-1s.5-.2.6-.2Z"/>
  <path class="st11" d="M92.9,42c0,0,0-.2,0-.3h.2c0,0,0,.2-.2.3Z"/>
  <path class="st11" d="M92.9,41.7c-.4,0-.8-.1-1.2-.3l-6-2.6c0-.3-.2-.5-.4-.9l-7.6-10.9c.3,0,.5,0,.8.3l12.3,12.3,2.1,2Z"/>
  <path class="st12" d="M34.5,90.1c-.5.2.2,1,.4,2.1,0,0,0,0,0,0h.2c0,0,0,.1,0,.1h.1c0,.1,0,.2,0,.2l1.6.3c-.5.5-1.4.3-1.7-.1h-.1c0,0,0-.1-.1-.2h0c0-.1,0-.1-.1-.2h0c0-.1-.2-.3-.2-.3h0c0,1.6,2.1,3,2.5,2.9s.4-.3.6-.6c0-.2.2-.4.4-.2,0,.6-.7,1.1-.9,1.7.2.5.7,1,.9,1.7.4-.6.3-1,.4-1.5,0,0,.2,0,.3,0,0,0,.2-.3.2-.5-.2-.9,1-1.4-.2-2.7v-.5c1.1-.2,1.1,2,1.4,3.8.5-1.3-.3-2.4,0-3.7.6,1,.6,2.3.6,3.5s.1,2.8-.3,4.2c-.2-1.2,0-2.4-.6-3.4-1.3,0,.5,2.5-.8,4.9-.2,0-.3,0-.4.1s0,.3,0,.4v.2c-.3,0-.4,0-.4.2,0,0-.1.1-.2.1h-.4c-.2,0-.4-.1-.4-.4,0-1.1-.5-1.9-.8-2.9s-.6-2.4-1.2-3.4c.2-.2.4-.3.6-.3-1.1-1.2-1-2.5-1.5-2.4,0-.9-.3-1.7,0-2.6v-.9c.2-.1.3,0,.4.1ZM34.5,92c0,0-.2,0,0,.2v-.2Z"/>
  <path class="st1" d="M125.5,144.5c0,3.1,2.3,6.1,5.2,5.6s.4.1.5.2c-.2,1.3,0,2.6.3,4-1.1-1.7-.8-2.9-2.1-3v3.8c0,.9,0,1.6,0,2.3-.5-1-1.1-1.9-1.3-3.1s.8-2.6.8-4c-.3.1-.4.4-.4.6-2.3-1.5-2.2-3.5-5-4.7s-2.7-.2-3.7.9-.8,1-.7,1.8c-.3-.7-.2-1.8-.5-3,0-.4.3-.6.6-.7,1.6-.8,3.7-2.1,5.5-1.1s.6.5,1,.4Z"/>
  <path class="st4" d="M134.1,144.5c-.3-.1-.6-.2-1,0v2.6c0,.4-.2.7-.4.9v-.4s0-1.2,0-1.2l.3-2c-1.7-1.3-3.1-4.4-5.1-4.5s-2.9.9-4.2,1.5c1,.3,1.6.6,2,1.5.2-.6.3-.8.6-.8-1.2,3,.1,6.8,2.9,7.5s1.3.1,1.9,0c0,.4,0,.7,0,1,0-.1-.2-.3-.5-.2-2.9.5-5.3-2.5-5.2-5.6s0-1.4-.6-2-1.4-.7-2.1-.3l-3.9,2.6c-.3.2-.6.4-.8.3l-.5-.2,5.8-3.9,3.3-1.8c-1.5-.6-3-.7-4.4-.4l-2.3.5s-.2-.2-.2-.3c0-.1.3-.2.5-.3,4.3-1.7,9-.3,11.7,3.4l2.2,2.3Z"/>
  <path class="st11" d="M109.3,150.2l-.4.6c0-.2-.2-.4-.3-.4-.2,0-.3.2-.4.4-.1.4-.2.9.2,1-.2.5-.3,1.1-.2,1.7h-.4s-.7-1.1-.7-1.1c-1,1.1.3,2.9-1.7,3.8.4-.6.6-1.2.2-1.7-.6-.7-.8-1.5-.7-2.5-.7.4-.6,1-.7,1.8-1.4-1.5.6-3.2-.1-3.8.2,0,.3.2.5.2.1-.7-.2-1.1-.7-1.3l-2.3-1.1c1.4,0,2.7.2,4,.5,0,.5-.1.8-.2,1.2-.2.2-.6.7-.5.9s.6.3,1,.1c-.7,1.3-.8,2.8.3,3.9.2-.7-.2-1.7.2-2.3.7-1.2,1.4-2.2,1.8-3.4-.9,0-1.3,1.2-2.3.5,1.1-1.4,3-1.5,3.7-1.7l2.5-1,3.2-1.2c-2,1.2-3.8,2.3-5.5,3.8s-.2.4-.4.4-.2,0-.4,0c-.2.1,0,.4,0,.5s.1.2.4.1Z"/>
  <path class="st12" d="M156.9,139l-.7-3.9v-7.5s.1-7.7.1-7.7c0-.4.1-1-.2-1.3v-.7c0,0,0-.2-.2-.2v-.2c0-1.4-.4-2.7-1-4.1l-1.5-3.2c-.9-2-2.7-3.3-4.8-3.9-.8-.3-1.6-.7-2.4-.5l-3.6-1.5c0-.1.2-.3.4-.3,3.3.2,6.5,1.2,9,3.3,1.5,1.7,2.5,3.5,3.3,5.6,2,5.4,1.5,8.8,1.3,14.1l-.2,3.9c-.1,2.6.2,5.1.8,7.6s0,.3-.1.3-.2,0-.3,0Z"/>
  <path class="st11" d="M19.6,71.5c.5,2.4,1.8,4.4,3.5,6.1l.3.3c.2.2.5-.2.1-.3,0-.1,0-.3,0-.4s.1-.2.2-.4c1.7,1.3,4,2,6.1,2.5,0,.7,0,1.4.4,2-.2,0-.3,0-.4,0-5.2-1.1-10.2-4.1-11-9.6s.2-5.3,1.4-7.7c.2.5,0,.9-.1,1.3l-.6,1.8v2.6c-.1.7,0,1.2,0,1.7Z"/>
  <path class="st0" d="M34.9,75c0,.4-.2.7-.1,1.2.3.1.5,0,.7-.1.1,0,.5.4.3.5-.6.2-1.2.5-1.4,1.2s.2.5.4.5.3-.1.5-.3l.5.6c.2-.4.4-.7.7-.8s0,0,.1-.1c-.4-.7-.6-1.6.2-2.1-.2.8-.4,1.5.4,2,.3-.2.3-.5.5-.6,0,.4.2.5.3.5s.1-.3.4,0c-.3.2-.4.6-.5.8-.5.8-.2,1.5.5,2s.9.4,1.2.1c.2,0,.5,0,.6-.2h.2c.3.3.6.5.5,1.2.6-.4.7-.9.6-1.6l1.4-.2v.2c-.6.2-.9.8-.9,1.4s.3,1.2,1.1,1.4c0-1,.5-1.8,1.5-1.8-.6.5-1,1.1-1,1.8s.5,1.2.9,1.6,0,0,0,0c0,0,.2,0,.2,0,.1-.4-.8-1.6.7-2.7.6,1-1,1.2-.5,2.7l1.2-1.6c.1-.1.4-.2.4-.4,1,.7,1.6.6,1.7.7s0,.4-.1.4c-1.3-.4-2.7.3-3.2,1.6-.3,0-.5-.3-.6-.4s0,0,0,0c-.5-.2-.7-.9-1.2-1.2-.7-.4-1.3-.6-1.5-1.5l-2.2.6c-.2,0-.4-.2-.4-.4s.2-.2.3-.3h.2c.3.2.7.2.9,0s0-.8-.2-.8l-1.5.3c-.6.1-1.3.5-1.8.3s-.3-.4-.5-.5-2.2,1.6-1.8,3.4v.6c-.1,0-.2,0-.3.1-.2,0-.3,0-.5,0s-.1-.2-.2-.3l-.5-1.2c0-.3.6-.4.8-.2,0-.5-.3-.7-.6-.8,0-.1,0-.2,0-.3l.5-.9c.5,0,.9.3,1.5,0-.5-.3-.7-.6-.7-1.1s.2-.8.8-.8c-.3.2-.6.8-.3,1.1s.9-.3.8-.5l-.4-1.1c-.7-.1-1.2.3-1.5.8h-.5c0-1.1.3-2.1.7-3.1l.2-1.3v-.2s.5,0,.5,0ZM37.6,77.6h0c0,0,0,.2,0,.2h0c0,0,0-.2,0-.2ZM36.7,77.8h-.1c-.5.8-.7,1.7,0,2.4s.4.6.7.6c.4,0,.6,0,.9-.2-1.1-.6-1.2-1.7-.7-2.7,0-.2-.6-.4-.7-.1Z"/>
  <path class="st4" d="M47.6,139.1h.4c.2,1.9,1.8,4.2,3.4,5.4s2.6,2.7,3.3,4.5c1.1,2.7,4.6,5.1,7.7,4.3s.5,0,.7,0l-1,.4c-.3.1-.6.7-.7.9,0,0,0-.3,0-.3-.2-.3-3.2.5-5.8-2.5s-1.7-2.9-2.4-4.4-1.3-1.4-2-2.1l-1.8-1.8-2.9-4.1c-.2.2,0,.4,0,.5l-.5-2,1.4,1.6c.1,0,.2-.2.2-.3ZM47.6,139.6c-.1.2,0,.3.1.4s.2,0,.2,0v-.4c0,0-.2-.2-.3,0Z"/>
  <path class="st4" d="M86.6,129.3c-.3,2.2-.9,4.3-1.9,6.4s1.2,4.7-.9,8.2-1.5,2.9-1.8,4.7c.5-.4,1-.3,1.5-.4l-2.3,1c.5-2.1,1.1-4.1,2.3-6,1.8-2.8-.5-4.5,1-8s2-7.8,1.2-12.7c1.1,2.3,1,4.7,1,6.9Z"/>
  <path class="st1" d="M75.1,92.3l.6,1.6c-1.4-.7-1.7-3-3.5-2.6.4.6.7,1.2,0,1.5-.3-.9-.9-2-1.9-2.3s-1,.7-1,1.1c0,1.5-.3,3.4-1.3,3.5-.2-1.4-.6-2.8-1.3-4.1,1.4-.4,3.1-1.3,3.2-2.3l.4-.2c0,.1,0,.3.2.4,1.6,1,3.3,2,4.7,3.3Z"/>
  <path class="st7" d="M156.8,141c-.2,0-.2.3-.3.6l-.3,1.9c-.4,0-.4.1-.4.5s0,.5.5.4c0,1.2.5,2.3,1.2,3.4s.8,2.6.8,4.1c.3-.3.4-.7.5-1h.4c0,0-.7,1.7-.7,1.7-.8,1.9-.6,4.4.9,5.8.1.3.2.6.2.9l-1.1-1.2c-.7-1.1-1.1-2.3-1.1-3.5-.6.9,0,2.2-.5,2.4-.3-.7-.7-1.5-.6-2.4s.3-1.8.8-2.4.5-.8.4-1.1,0-.3,0-.4c.3-.6-.2-1.5-.2-2,0-.9-.7-.7-1-1.1-1.1-1.5-1.2-3.6-.7-5.2l.5-1.8v-.3c.1-.1.2-.2.2-.4.2-.5.4,0,.4,1.1Z"/>
  <path class="st0" d="M61.5,154.7l-.4,1.1c-1,0-1.8-.8-2.7-1s-1.7-1.1-2.4-2-1.6-1.8-2.1-2.9-1.6-2.7-2.7-3.8-2.7-2.8-3.9-4.4l-.7-1.9c0,0-.1-.3,0-.5l2.9,4.1,1.8,1.8c.7.7,1.6,1.2,2,2.1.7,1.6,1.3,3.1,2.4,4.4,2.6,3,5.6,2.2,5.8,2.5s0,.2,0,.3Z"/>
  <path class="st4" d="M62.6,138.8c0,.1,0,.3.1.4l2,1.9,1.6,2.6c0-2.6,1.2-4,1.2-4.2l.2.2c-1.1,1.4-1.1,4.8-.6,6.8l1.3,5h-1.2c.2,0,.4-.3.6-.4l-.7-1.8c-2.7-.5-5.3-1.3-7.4-2.9h0c0,0-.1-.2-.1-.2l-.2-.2c.1.3.4,0,.2-.1l.2.2h.1c0,.1,0,.2,0,.2,2.1,1.2,4.4,2.1,7,2.3l-.9-3.5c-.5-1.7-1.4-3.1-2.7-4.2l-1.3-1.5c0-.1,0-.3,0-.4.1,0,.2-.1.3-.2h.2Z"/>
  <path class="st0" d="M76,92.9c0,0-.2,0-.4,0,.3.3.3.6.4.9,1.4,3.6,1,7.3-1.1,10.6s-3.6,4.9-5.5,7.3l-.4-.8c-.1-.3,0-.7.2-.9s.5,0,.7,0c2.3-2.2,3.8-4.8,5-7.6s1.7-5.7.6-8.5l-.6-1.6c.3.3.6.5,1,.6Z"/>
  <path class="st11" d="M76.2,182c-.5.4,0,1.9-1.8,2.5s-2.5.5-3.8.5-2.7.3-3.8-.4h.3c1.4.1,2.8,0,4.2-.4,1.3-.8,1.9-2.4,2-3.9,1,.4,2.2.7,2.9,1.6Z"/>
  <path class="st11" d="M45.1,126.9v.4c-.1,0-.3,0-.4-.1s0-.3,0-.4l.4.2Z"/>
  <path class="st11" d="M43,119.5l.5.8c.7.8,1.1,1.9,1,2.9l.3,1.9v1.1s0,.4,0,.4l-.3-.2-2.2-4.9c-.1-.3-.2-.5-.5-.7l-.5-1.4c0-.3,0-.5-.4-.6,0,0,0-.3,0-.4.6-1.9-1.7-2.9-.8-3.7.9,1.7,1.8,3.2,2.9,4.6Z"/>
  <path class="st7" d="M56.8,74.3c0,.4-.8-.2-1.3.4-.4,0-.5-.3-.7-.6-2-.9-3.4-.1-4.3-.4l-1.2-.6c-2-.2-3.3,1.3-3.9.8-1.9-1.9-3.8.2-5.2,0s-1.5-.2-2,.5-2.6.2-2.8,2c-.2,0-.4.2-.7.1,0-.5,0-.9.1-1.2.9-.7,1.9-1.4,3.1-1.3.8-.7,1.8-.6,2.8-.3,1.4-1,3.1-1.2,4.6-.5s3.5-1.2,5.3,0,2.3-.4,3.3.4,1.6,0,2.7.9Z"/>
  <path class="st1" d="M37.5,102.9c-.2.4-.3.8-.3,1.2,0,.6-.2,1.3,0,2s-.1.3-.2.4c0-.3-.3-.7-.2-1.1.2-.8,0-1.3-.3-2-1.8-3.1-2.5-6.5-2.3-9.9.5,0,.4,1.2,1.5,2.4-.2,0-.4.1-.6.3.6,1,.8,2.3,1.2,3.4s.8,1.8.8,2.9.2.4.4.4Z"/>
  <path class="st11" d="M56.3,182c0,.3,0,1.1-.5,1.3-1.3.5-2.6.8-4,.8h-4.5c-.2,0-.3-.4-.2-.4h.2s3.6,0,3.6,0c2,0,2.9-2,3.2-4,1,.4,2.3,1.2,2.4,1.5s-.1.6-.2.8Z"/>
  <path class="st11" d="M151.1,180.6l-.5,1.4c-.1,0-.2.1-.2.2h0c-1.7,1.1-3.7,1.4-5.6,1.4,0-.7,1.7,0,2.6-2.1s.7-1.6.8-2.5c1.1.1,2,.8,2.9,1.5Z"/>
  <path class="st4" d="M156.9,139l.6,3.4c.4,2.4,1.8,3.6,2,5.8h-.3c-.3-1.7-2.1-3.5-2.3-7.3s-.3-1.6-.4-1.1c-.2,0-.2.3-.2.4v.3s-.3,0-.3,0c.3-1.5.3-2.9,0-4.5l-.2-1.3v-6.6c0,0,.3-3,.3-3v-5.3c0,0,.3,0,.3,0v7.7c0,0-.1,7.5-.1,7.5l.7,3.9Z"/>
  <path class="st11" d="M118.9,181c-.2.4-.3,1.3-.8,1.5-1.3.6-2.7.6-4.1.8s-2.7.3-4.1,0c0,0,0-.2,0-.2h.1c1.5.2,3.2.3,4.7-.4s1.6-2.1,2.3-3.2c.9.2,2,.9,2,1.5Z"/>
  <path class="st0" d="M162.2,148.1v3s.3-.5.3-.5c0,.3,0,.5-.1.8l-1.3,2.6c-.2.5-.2,2.3,1,2.7l-1.1.2c-.6-.3-.5-.9-.9-1.2,0-2.6,1.8-4.2,1.4-6.9.4-2-.6-3.2-.9-4.9,1,1.2,1.3,2.7,1.7,4.1Z"/>
  <path class="st7" d="M22.2,61.4c.1.4-.1.7-.3,1-.8,1.4-1.4,2.9-1.7,4.5-.7,3.8.5,7.7,3.5,10,0,.2-.1.3-.2.4-.8-.8-1.9-1.5-2.4-2.6l-1.2-2.7c0,0,0-.2-.1-.3s-.2,0-.3,0c-.1-.5-.2-1.1-.2-1.7v-2.6c.1,0,.7-1.8.7-1.8.1-.5.3-.9.1-1.3.5-1,1.1-1.9,1.9-2.7Z"/>
  <path class="st1" d="M163.2,146.1c-.2-.2-.2-.4-.3-.8,0,.2-.4.6-.6.3s0-.7,0-.9c-.2-.9-.7-1.7-1.3-2.5s-.5-.4-.8-.5-.6-.7-.9-1.2c-.2-.3.2-.5.3-.1l.2.2c.6.2.7,1,1.5,1.1-1-1.4-2-2.4-2.5-3.8l.3-.7,2.1,3.3c1.2,1.6,2,3.5,2,5.5Z"/>
  <path class="st0" d="M156,117.6c-.2-.2-.2-.5-.3-.8-.5-2.6-1.5-5-3.2-7s-2.3-1.8-3.7-2.2-1.6-.6-2.4-1.6c.8-.2,1.6.2,2.4.5,2.1.6,3.9,1.9,4.8,3.9l1.5,3.2c.6,1.3,1,2.7,1,4.1Z"/>
  <path class="st14" d="M125.5,144.5c-.4.1-.7-.2-1-.4-1.8-1-3.8.3-5.5,1.1s-.7.3-.6.7c-.2-.2-.3-.5-.3-.8.3.1.5,0,.8-.3l3.9-2.6c.7-.5,1.5-.4,2.1.3s.6,1.3.6,2Z"/>
  <path class="st8" d="M32.8,75c.1,0,.3.2.4.3,0-.2-1.5,2.3-1.3,4.4l-1.6-.3c.1-1.8.5-3.8,2.1-4.3h.5Z"/>
  <path class="st17" d="M68.4,179.7c-.3.1-.4.5-.6.8l-2,3.4c-.6.2-1.1.3-1.7.4,0-.1,0-.3.2-.5l2.8-4.6c.5,0,1.2,0,1.3.5Z"/>
  <path class="st7" d="M132.7,146.3v1.2c-.2.1-.2.4-.2.6-.2.6-.7,1-1.3,1.2s-1.3.2-1.9,0c0-.2,0-.5,0-.8.9,0,1.5-.5,1.8-1.4s0-1.7-.3-2.5c.9,0,1.1,1,1.8,1.5Z"/>
  <path class="st0" d="M32.6,83.6c.3.5,1,1.1.9,1.8l-.3,2.6c0,.5-.1.9,0,1.4l.2.7c-.7-.1-1.2-.6-1.9-.5.3-.5.6-1,.6-1.7,0-.1.2-.3.2-.6-.4.2-.7-.2-1-.2.1-.3.4-.4.7-.5,1-.7.4-1.8-.3-2.9h.8Z"/>
  <path class="st4" d="M36.7,89.8c.1.2.5.1.6,0l.5,1.2c.2.5.4,1.2.8,1.5v.5s-.1,0-.2,0c-1-1.3-1.7-.5-2.6-.9.6-.2,1.1-.2,1.9-.2-.2-.4-.4-.6-.6-1-.4.5-.9.7-1.4.3s-.5-.8-.2-1.4c-.7,0-.4.6-.6.8l-.4-.6c0-.1-.2-.3-.4-.1v.9s-.5-.8-.5-.8l-.2-.7c0,0,.1,0,.2,0,.9.4,2.4-.7,3.1.4Z"/>
  <path class="st17" d="M143.3,178.4l-2.5,4.2c-.2.4-1.1.3-1.4,0l2.7-4.6c.4-.2.9,0,1.2.2Z"/>
  <path class="st17" d="M59,75.1c.1,0,.3,0,.3.1.2.1,0,.4,0,.6-.3,1.4,0,2.7.2,4h-1.4c-.2-.6-.3-1.1-.3-1.8,0-1-.1-2,.3-2.9h.9Z"/>
  <path class="st14" d="M48.6,177.9h.3c.2.2.5.2.9,0,0,0,.2.5.3.5,1.1-.2,2.2-.1,3.2.3l1.9.8,1.8,1.2-.4.9c0,0,0,.3-.2.3s-.2,0-.2,0c0-.3.3-.5.2-.8s-1.5-1.1-2.4-1.5c-1.5-.6-2.6-1.1-4.1-.6s-.4,0-.5.2c0-.2-.2-.3-.2-.4-.2-.4-.7-.5-1.1-.4.2-.3,0-1,.6-1.1l-.2.3c0,.1,0,.3.2.3Z"/>
  <path class="st17" d="M34.1,75h.3c0,.1-.2,1.4-.2,1.4-.4,1-.6,2-.7,3v.5s-1.3-.2-1.3-.2c0-1,0-1.9.5-2.8l.7-1.8h.7Z"/>
  <path class="st14" d="M149.4,178.9l1,.6c.3.2.6.5.9.4.1.3-.2.5-.3.6-.9-.6-1.8-1.3-2.9-1.5-1.2-.6-2.6-.9-3.8-.4-.1,0-.4,0-.6,0s-.3-.2-.4-.3c-.3-.3-.8-.4-1.2-.2v-.5c.5-.2,1.2,0,1.7.1,0-.1.2-.3.2-.3,0,0,.3.2.2.5,1.8-.4,3.6,0,5.2.8Z"/>
  <path class="st17" d="M49.2,178.8l-2.6,3.7c-.2.3-.3.5-.6.6s-.7,0-.8-.2l3-4.5c.4-.1.9,0,1.1.4Z"/>
  <path class="st14" d="M75,180.5c.5.2.9.8,1.6.7,0,.4-.1.5-.4.8-.8-.9-1.9-1.2-2.9-1.6s-2.7-.9-4-.5h-.7s-.1-.2-.1-.2c-.2-.5-.8-.5-1.3-.5,0-.2,0-.4.1-.6.5.2,1.2.4,1.8.3,0,0,.1.4.3.4,1.9-.5,3.9.4,5.8,1.2Z"/>
  <path class="st17" d="M112,178.2l-3.1,4.1c-.3.4-.8.6-1.3.2l3.5-4.7c.4,0,.7,0,.8.4Z"/>
  <path class="st18" d="M93.9,17.4c-.4,1.1-.4,2.3-.4,3.4l-1.2-.2,1-6.5.6,3.3Z"/>
  <path class="st7" d="M68.5,179.9c.1.2,0,.4,0,.7l-1.4,2.7c-.2.4-.4.8-.8,1.1h-1.9c-.2,0-.3,0-.3-.1.6,0,1.1-.1,1.7-.4l2-3.4c.2-.3.3-.6.6-.8v.2Z"/>
  <path class="st1" d="M112.4,178.3c-.4,1.3-1.4,2.3-2.1,3.5s-.7,1-1.4,1-.9.2-1.3-.1,0-.2,0-.3c.5.4.9.2,1.3-.2l3.1-4.1h.4Z"/>
  <path class="st14" d="M117.9,179.2c.5.3,1,1,1.7,1,0,.3-.2.6-.3.8h-.3c0-.6-1.1-1.4-2-1.5-1.1-.8-2.5-1.2-3.9-1.2,0-.1,0-.2,0-.3v-.2c1.7-.2,3.3.5,4.8,1.3Z"/>
  <path class="st7" d="M163.2,146.1v.4c-.6,1.1-.1,2.2-.7,4v.2c0,0-.4.5-.4.5v-3c0-1,0-2.6-.2-3.1,0-.1.2-.2.3-.3,0,.2,0,.7,0,.9s.6-.1.6-.3c0,.4,0,.6.3.8Z"/>
  <path class="st1" d="M143.8,178.6l-2.2,4.4h-2.4c0-.2.1-.2.2-.3.3.2,1.1.3,1.4,0l2.5-4.2c0,0,.3.2.4.3Z"/>
  <path class="st11" d="M62.6,82.8c0,.3-.2.4-.4.6-.9.8-1.8,1.6-1.4,2.5s1.1.4,1.5.7c-.5.5-1.2.6-1.9.5-.4-.8-.7-2.1.2-2.8s.7-.4.7-.8l.4-.3.9-.4Z"/>
  <path class="st4" d="M142.7,104.4l3.6,1.5c.8,1,1.4,1.3,2.4,1.6-.4,0-.6.3-.9.6-1.7-1.6-3.7-2.8-5.8-3.8h.5Z"/>
  <path class="st1" d="M49.4,179.2l-2.4,4h-2.2c0,0,0-.2.2-.3.2.3.5.3.8.2s.4-.3.6-.6l2.6-3.7c0,0,.2.2.2.4Z"/>
  <path class="st14" d="M58.1,75.1c-.5,1-.3,1.9-.3,2.9-.2.1-.3.2-.5.4.2-1.1-.6-1.2-.9-2v-.3c0,0,.8.2.8.2.6-.6-.8-1.6-1.7-1.7.5-.6,1.3,0,1.3-.4.4.4.8.8,1.3.8Z"/>
  <path class="st7" d="M31.9,79.7l.2,2c-.5.1-1-.1-1.5-.1-.3-.7-.5-1.4-.3-2.2l1.6.3Z"/>
  <path class="st5" d="M34.4,84.9c-.5,1-.8,2.1-.8,3.2v.6s0,.6,0,.6v.2c0,0-.1,0-.2,0-.2-.5-.1-.9,0-1.4l.3-2.6c0-.7-.7-1.3-.9-1.8h.3c-.2-.6,0-1,.5-1.2.3.1.7.3.6.8-.2-.3-.9-.1-.8.2l.5,1.2c0,.1.1.3.2.3.1,0,.3,0,.5,0Z"/>
  <path class="st14" d="M60.2,75c-1.1.7-.8,3-.3,4.6s.3,1.2.8,1.7.9.1,1.1.2c-.1,0-.3.2-.4.3-.4-.1-.7,0-1.1,0l-.8-2.1c-.3-1.3-.5-2.6-.2-4s.2-.4,0-.6-.2-.1-.3-.1h1.2Z"/>
  <path class="st4" d="M142,183.6h.4s2.4,0,2.4,0c1.9,0,3.9-.4,5.6-1.3,0,.8-2.7,1.5-4.3,1.5h-3.5c-.3.1-.5,0-.6-.2Z"/>
  <path class="st4" d="M144.3,178.7l-2.1,4.4c0,.1-.2.2-.2.4-1.3-.4-2.7,0-2.8-.4h2.4s2.2-4.5,2.2-4.5c.1,0,.4,0,.6,0Z"/>
  <path class="st4" d="M109.8,183.3c1.3.3,2.6.2,4.1,0s2.9-.2,4.1-.8.7-1.1.8-1.5h.3c-.2.5-.4,1.6-1,1.9-1.5.7-3.2.8-4.8.8h-3.5c0,0,0-.3,0-.4Z"/>
  <path class="st4" d="M113,178c.1,0,.1.2,0,.3l-3.1,4.7h-.1s-1-.2-1-.2c.7,0,1.1-.4,1.4-1,.7-1.2,1.6-2.2,2.1-3.5v-.2c.1,0,.7,0,.7,0Z"/>
  <path class="st14" d="M157.5,150.8c-.2-1-.7-1.8-1.3-2.7-1.1-1.6-1.5-3.6-.9-5.5l.6-1.9h.3s-.5,1.8-.5,1.8c-.5,1.6-.4,3.7.7,5.2s.9.2,1,1.1.5,1.5.2,2Z"/>
  <path class="st4" d="M61.4,81.8c-.2,0-.5,0-.7.2.2.6.6.8.9,1.2l-.4.3h-1.4c.1-.1,0-.7-.3-.7-.5.5-1.1.8-1.8.5.4,0,.8,0,1.1-.3s.5-.4.2-.7c0,0,0-.2,0-.3h1.3c.4-.1.7-.3,1.1-.1Z"/>
  <path class="st4" d="M62,89.8c2,1.3,4.5,1.3,6.6,0s1-.6,1.3-1c0,.9-1.8,1.9-3.2,2.3.7,1.4,1.1,2.7,1.3,4.1s-.1,3.5-.1,5c-.1-.1-.3-.3-.2-.6.2-2.9-.3-5.8-1.4-8.5-1.1.1-1.9,0-3-.2l.6,3.5c.4,2.1,0,4.3-.3,6.5l-1,3.9c-.2,0-.2.1-.2.2h-.3c1.6-3.9,2-8.2,1.1-12.2s-.2-1.4-.5-2.1-1.7-.9-2.4-.5-.5.9-.4,1.4c.6,3.3,0,8.8-1.8,11.3s-.7.6-.7.9l-4.4,4.5-.4,1.1c0-.3,0-.6-.1-.9-.4-1.2,0-2.3.1-3.4.5.3-.2,1.3.2,2.4l3.2-3.2c1.4-1.4,2.5-3.1,3-5,.7-2.8.9-5.8.3-8.7s-.8-2.2-.8-3.4-.1-1.5-.5-2.1c.2-.2.3-.1.4,0l.3.7c.1-.6.4-1.2.8-1.5-.7,2.1-1.4,3.4.2,5.7.8-.6,1.8-.7,2.6-.3Z"/>
  <path class="st4" d="M59.6,83.9c0,.3-.2.3-.3.4,0-.1,0-.4.3-.4Z"/>
  <path class="st4" d="M59.6,83.9c0,0,0-.2,0-.3s.1,0,.2,0c0,.1,0,.4-.2.4Z"/>
  <path class="st4" d="M50,179l-2.7,4.6h-.2c-1.1-.4-2.1,0-2.2-.3h2.2c0,0,2.4-4.1,2.4-4.1.2-.1.4-.1.5-.2Z"/>
  <path class="st4" d="M69.3,179.9l-2.2,4.7h-.3c-.1,0-.3-.2-.5-.2.4-.2.6-.6.8-1.1l1.4-2.7c.1-.2.1-.5,0-.7h.7Z"/>
  <path class="st4" d="M44.4,126.5l-.7-.8c0-.9-.7-1.6-1.1-2.4s-.2-.8-.6-.9l-.2-1.5c.3.1.4.4.5.7l2.2,4.9Z"/>
  <path class="st14" d="M33.4,75.2l-.7,1.8c-.4,1-.5,1.9-.5,2.8s0,1.4.3,2.1c-.2,0-.3-.1-.5-.2l-.2-2c-.2-2,1.2-4.5,1.3-4.4,0-.1-.3-.2-.4-.3h.6Z"/>
  <path class="st0" d="M62.8,74.8c-.4.2-.8.4-1.1.7,0-.2,0-.4.2-.6h1Z"/>
  <path class="st0" d="M61.9,79.1c.1.9.9,2.4,1.8,2.1-.6.2-1.1.4-1.8.4l.6-.4c-.6-.6-.7-1.2-.9-1.8-.4-1.2-.6-3.5,0-3.8v1.2c-.1,0,.2,2.4.2,2.4Z"/>
  <path class="st11" d="M160,158.3c.5.7.4,1.7.3,2.5s-.2,1.1-.8,1.2c.4-.9.4-1.7,0-2.4.2,0,0-.2,0-.1v-.2c0-.3,0-.6-.2-.9h.6Z"/>
  <path class="st4" d="M158.4,158.1c-.4,0-1,0-1.1-.3l-.4-.9c.5-.2-.2-1.5.5-2.4,0,1.3.4,2.5,1.1,3.5Z"/>
  <path class="st14" d="M32.4,75.1c-1.6.5-2,2.5-2.1,4.3-.1.8,0,1.5.3,2.2-.3,0-.5-.1-.8-.2.1,0,.2,0,.4,0-.4-.6-.4-1.3-.4-2,.1-1.2.4-2.4.9-3.6.3-.2.5-.4.5-.8h1.1Z"/>
  <path class="st7" d="M33.6,80c0,.7-.1,1.6-.8,1.9,0,0-.1,0-.2,0-.4-.6-.2-1.4-.3-2.1l1.3.2Z"/>
  <path class="st7" d="M160.9,156.9v.3c.1,0,.3.2.3.2.3.7,0,1.3-.1,2-.3-.2-.4-.7-.4-1.1s0-1-.4-1.4-.2-.9-.2-1.2c.4.3.4.9.9,1.2Z"/>
  <path class="st0" d="M160.6,158.4c0,.4.1.8.4,1.1-.2.5-.3,1-.8,1.4.1-.9.3-1.8-.3-2.5s-.1-.3-.1-.5c.2.2.6.3.8.6Z"/>
  <path class="st2" d="M119.7,41.9c.4,0,.8,0,1.3.3l-1.9.3c0-.3-.2-.3-.2,0-.1.1-.3.1-.4.1,0,0,0-.3,0-.3h-.4c0-.1,0-.2,0-.3s.1-.1.3-.1h1.4Z"/>
  <path class="st11" d="M31.3,75c0,.3-.2.6-.5.8-.2-.3-.8-.3-1.4-.2,0-.4.4-.5.5-.7h1.4Z"/>
  <path class="st1" d="M162.5,150.4c.6-1.8.1-2.9.7-4,0,1.3.2,3.3-.7,4Z"/>
  <path class="st6" d="M32.3,87.9c0,.6-.3,1.2-.6,1.7s-.3.2-.5.3c0-.5.4-.9.4-1.5l.2-.5c.2,0,.4,0,.5,0Z"/>
  <path class="st5" d="M34.1,79.6c-.4.8.1,1.1-.2,1.6l-.5.9c-.2,0-.4,0-.6-.1.7-.3.8-1.2.8-1.9v-.5s.5,0,.5,0Z"/>
  <path class="st2" d="M67.4,41.9c.4,0,.8,0,1,.4h-1.5c-.3,0-.7,0-1.1,0,.6-.3,1.1-.3,1.7-.3Z"/>
  <path class="st1" d="M108.9,150.7c-.2.3-.4.7-.5,1.1-.4-.2-.3-.6-.2-1s.2-.5.4-.4.3.2.3.4Z"/>
  <path class="st14" d="M112.5,178.1v.2c-.1,0-.5-.1-.5-.1-.1-.3-.5-.4-.8-.4,0,0,0-.2,0-.3.6-.2,1.2,0,1.3.6Z"/>
  <path class="st4" d="M156.2,118.7v.9c-.1,0-.2-.2-.2-.4v-1.3s.2,0,.2,0v.7Z"/>
  <path class="st14" d="M157.1,152.3c0-.4,0-.8.4-1.1.1.3-.2.8-.4,1.1Z"/>
  <path class="st5" d="M41.4,110.7v.2c-.6,0-1.3.5-2.1.3,0,.4.2.5.2.8-.3-.2-.5-.3-.7-.5v-.2c0,0,2.5-.5,2.5-.5Z"/>
  <path class="st1" d="M158.4,134c-.3-.4-.1-.9-.2-1.3.3.4.1.9.2,1.3Z"/>
  <path class="st0" d="M156.3,120h-.2s0-.4,0-.4v-.9c.3.3.2.9.2,1.3Z"/>
  <path class="st1" d="M108.2,153.5c0,.1,0,.3-.1.4s-.3,0-.3,0v-.3s.4,0,.4,0Z"/>
  <path class="st11" d="M142.4,183.6h-.4c0,0,0-.1,0-.2,0-.2.1-.3.2-.4,0,.2,0,.4.2.6Z"/>
  <path class="st16" d="M132.7,147.9c0,0-.2.1-.2.2,0-.2,0-.5.2-.6v.4Z"/>
  <path class="st1" d="M158.8,135.9c-.2-.1-.2-.4-.2-.6.2,0,.2.4.2.6Z"/>
  <path class="st1" d="M158.6,135.1c-.2-.1-.2-.4-.2-.6.2.1.2.4.2.6Z"/>
  <path class="st1" d="M159.1,137c-.2,0-.2-.2-.2-.4.2,0,.2.2.2.4Z"/>
  <path class="st1" d="M158.9,136.4c-.1,0-.2-.2-.2-.4.2,0,.2.2.2.4Z"/>
  <path class="st14" d="M151.4,179.6v-.5c0,.1.2.3,0,.5Z"/>
  <path class="st1" d="M41.2,119.5c-.2-.2-.3-.4-.4-.6.3,0,.3.3.4.6Z"/>
  <polygon class="st14" points="34.4 75.2 34.1 75 34.4 75 34.4 75.2"/>
  <path class="st0" d="M161.1,157.4l-.2-.2c0,0,.1.2.2.2Z"/>
  <path class="st7" d="M159.5,159.6s0,0,0-.1c.1,0,.2,0,0,.1Z"/>
  <path class="st12" d="M119.2,42.5h-.2c0-.3.2-.3.2,0Z"/>
  <path class="st13" d="M48.6,177.9c-.1,0-.2-.2-.2-.3l.2-.3h.2c-.2.1-.2.4-.2.6Z"/>
  <path class="st0" d="M156.2,118h-.2s0-.2,0-.2c0,0,.2.1.2.2Z"/>
  <path class="st0" d="M47.4,142.2c0,0,0-.1,0-.2v.2Z"/>
  <path class="st4" d="M150.4,182.2c0-.1,0-.2.2-.2l-.2.2Z"/>
  <path class="st10" d="M158.9,137.9c.5,1.4,1.6,2.5,2.5,3.8-.8,0-1-.9-1.5-1.1s-.2-.1-.2-.2c-.1-.3-.5-.1-.3.1.2.5.5,1,.9,1.2.7,1,1.1,2.2,1.7,3.3s.3,2.1.3,3.1c-.3-1.5-.6-2.9-1.7-4.1.3,1.6,1.3,2.8.9,4.9-1,0-.2-1.3-2.2-3.4s-1.1-2.6-1.8-3l-.6-3.4c.1,0,.2,0,.3,0s.2-.2.1-.3c-.6-2.5-.9-5-.8-7.6l.2-3.9c.2-5.3.7-8.7-1.3-14.1s-1.8-3.8-3.3-5.6c-2.5-2.1-5.7-3.1-9-3.3s-.4.2-.4.3h-.5s-.7-.7-.7-.7c-.6-.3-1.3,0-1.9.3.2.3.4.6.6.7,0,.2-.1.4-.2.5s-.4.2-.5,0c-.4-.3-.8,0-1.1,0l-2.2-.4c0-.5-.2-.9-.5-1.3,0,0,.3-.3.4-.3.8,0,1.3.6,1.7,1.4.3-.4.2-.9.4-1.3.5.2,1.3.3,1.8,0,1.6-.6,3.1-.8,4.8-.7,2.9.1,5.4,1.3,7.5,3.2s1.9,1.8,2.6,3,1.3,2.1,1.7,3.3c1.1,3.6,1.6,7.3,1.3,11l-.5,6.6c-.2,2.2,0,4.3.5,6.4l.9,1.7ZM159,140.2c.2,0,.3-.2.3-.2l-1.2-2.5c-.1,1,.5,1.9.9,2.8Z"/>
  <path class="st10" d="M124,103.4c0,.5.4.7.9.8-.4.6-.9.8-1.3,1.1l-1.5-.8c-1.1.6-2.2,1.2-3.1,2s-.9.7-1.5.4c-1.2-.5-1.9,0-2.3-.9-.8.4-1.4.2-2.2,0l-1.8.3c-.5-.3-.9-.2-1.5-.2-.3-.4-.5-1.4-1.2-1.4l-1.8.5c-.2,0-.5-.3-.7-.2l-1.3.4c-.3,0-.4.8-1.1.7,0-.3.1-.6.3-.8.2-.2.6-.2.9-.2-.1-.5-.5-.5-.7-.8,0-.7.3-1.1.4-1.6,3,.6,6.1.8,9.3.9h4.5c2,.2,3.9.1,5.7-.3Z"/>
  <path class="st12" d="M129.7,136.3l-.4-1.1c-2.2-3.6-2.5-6.8-2.5-10.7.2,0,.3.2.4.4l1.2,4.6c1.6,4.3,4.6,7.7,9,9.6-3.1,1.3-6.8-.7-7.6-2.8Z"/>
  <path class="st10" d="M124.7,118.9c-1.1,2.2-2.5,4.1-4.5,5.8l.9-5.6,1.2.2,2.4-.4Z"/>
  <path class="st10" d="M126.3,119.8l-.3-3.7c-.2,0-.3,0-.4.1-.5-.7-1.6-.3-1.2-1.1s.5-.3.9-.2.2.5.5.7l1.3.6c.3.3.4.7.7.7s.6,0,1-.2c.3.8-.7,2.7-1.3,3.1s-.9,0-1.3,0Z"/>
  <path class="st14" d="M126.8,124.4c0,4,.3,7.2,2.5,10.7l.4,1.1c-1.4-1.6-2.5-3.5-2.9-5.5s-.4-4.9-.4-7.5-.1-.8.2-.9c.2.7.1,1.4.1,2.1Z"/>
  <path class="st0" d="M147.5,146.4l.4,1.3c-.2,1.9.5,3.8,2.3,4.8.1.7.9,1.3.9,2.2v4.1c0,.7,0,1.3-.4,1.9l-.2-4.3c0-1.1,0-2.3-.8-3.1s-1.7-1.8-1.9-3.2l-.6-3.9.3.2Z"/>
  <path class="st10" d="M122.3,114.4l.5-1.5c.4,0,1,0,1.1.4s-.2,1-.4,1.1c-.4.2-.8.2-1.2,0Z"/>
  <path class="st10" d="M142.4,106.2l-.7.9c-.9-.4-1-1.3-.7-2l1.5,1.1Z"/>
  <path class="st10" d="M124.2,109.2l.3-1c.4-.1.7,0,1.1,0s.5.4.4.7-.3.5-.6.4l-1.2-.2Z"/>
  <path class="st10" d="M133.8,103.5c-.7.3-1.6,0-1.6-.6s.8-.3,1,0,.6.4.6.7Z"/>
  <path class="st10" d="M126.6,106.2c-.3-.2-.5-1-.2-1.1s.7,0,.8,0c.2.1.2.5.2.8s-.4.4-.8.3Z"/>
  <path class="st10" d="M103,102.9c0,.2,0,.5-.2.7s-.5,0-.7-.1-.5-.4-.4-.8c.5,0,1-.2,1.3.2Z"/>
  <path class="st10" d="M121.4,117.8l.2-.9c.2,0,.5,0,.6.2.2.2-.4.8-.5.9s-.2,0-.3-.1Z"/>
  <path class="st10" d="M121.6,108.7c-.2.2-.4.2-.6.3,0-.1,0-.5.1-.5.2-.1.5,0,.5.2Z"/>
  <path class="st17" d="M77.7,176.9c-.5-.4-.8-1-1.2-1.5l.5-1.3c.8.9,1.1,1.5.7,2.8Z"/>
  <path class="st5" d="M119.2,139.2v.3c-.7.5-1.6.7-2.5,1,.8-.5,1.6-1,2.5-1.3Z"/>
  <path class="st4" d="M119.7,139.4c-.2,0-.4,0-.5.1v-.3c.2,0,.4,0,.5.2Z"/>
  <rect class="st15" x="118.6" y="138.3" width=".1" height=".1" transform="translate(-63.1 124.4) rotate(-45)"/>
  <rect class="st15" x="88.7" y="99.8" width=".1" height=".1" transform="translate(-44.6 92) rotate(-45)"/>
  <path class="st6" d="M64.9,118.7c-1,2.1-2,4.2-2.5,6.5s-.2,6.9,1.9,9.5,4.1,2.2,6.3,1.8c0,.3-.2.5-.5.4,0,.2.1.2.2.2-1,.4-1.8,1-2.6,1.7s-1.2,1.1-1.8.9l-3.2-1.1h-.2c0,0-1-1.9-1-1.9-.1-.3-.2-.5-.5-.5s0,0-.1,0l-.8-2.5c.2-.2.1-.5,0-.8-.8-4.7,1.9-10.6,4.8-14.3Z"/>
  <path class="st16" d="M70.4,108.7l-.4,1.3c-.2.1-.6,0-.7,0s-.4.6-.2.9l.4.8c-1.7,2.1-3.4,4.4-4.6,6.8-2.9,3.7-5.6,9.7-4.8,14.3s.1.6,0,.8c-.7-2.7-.6-5.6.3-8.2s2.6-6.4,4.6-9.3,3.2-5.1,4.7-7.7h.8Z"/>
  <path class="st14" d="M69.1,138.4c-.5.4-.9.9-1.3,1.4l-.2-.2v-.6c.8-.7,1.6-1.3,2.6-1.7s.4-.2.7,0c-.8.2-1.4.6-1.9,1.1Z"/>
  <path class="st15" d="M151.6,156.6c0-1.6-.2-3-.8-4.5l-1-2.8c-.6-1.5-1.3-2.9-1.2-4.5.9,1.8,1.4,3.6,2.7,4.9s1.5,1.7,1.1,2.9l-.7,4Z"/>
  <path class="st7" d="M150.1,152.5c-1.8-.9-2.5-2.9-2.3-4.8.4,0,.4.5.6.7,1.1,1.3,1.4,2.6,1.7,4.1Z"/>
  <path class="st17" d="M152.8,174.6c-.4.2-.8-.3-1-.6s0-1.3.4-1.3c.6.3.8,1.1.6,1.9Z"/>
  <circle class="st15" cx="148.3" cy="144.4" r=".2"/>
  <path class="st17" d="M105.4,149.5l.4-.3c1,.7,1.3-.6,2.3-.5-.3,1.3-1.1,2.3-1.8,3.4s0,1.6-.2,2.3c-1.1-1-.9-2.6-.3-3.9-.3.1-.8.2-1-.1s.3-.8.5-.9Z"/>
  <path class="st15" d="M117.9,179.2c-1.5-.9-3.1-1.5-4.8-1.3,0-.1-.1-.2-.1-.6-.2,0-.4.2-.7.1.7-1.3,2.2-1.4,2.6-2.7,1.4.5.2-1.4,1.6-2.9s1.8-1.9,2.3-3l2.2-4.5c.7-2,1-4.1,1.3-6.2s.3-1.5.8-2.1c-.9-1.4-1.8-2.7-2.1-4.3s0-2,.8-2.2,1.9.5,2.7,1c1.2.8,1.9,1.8,2,3.3.1,2.5,1.6,3.4.9,5s-1.4,2.9-2.3,4.2c-1.7,2.6-3.2,5.3-4.3,8.2,0,2.1-1.3,3.7-3.5,4,.2.5.6.7.9,1,0,.5-.4.9-.6,1.3.3.6.4,1.1.3,1.7Z"/>
  <path class="st10" d="M130.1,159.2l-2.3,3.3c-.1,0-.2-.2-.2-.2l1.8-3.1.8-4.8c.8,1.5,1.4,2.4.6,3.5l-.8,1.2Z"/>
  <path class="st5" d="M129.3,157.4c-.3,1.3-.6,2.5-1.6,3.6s0,.7-.6.5c.7-2,2.1-2.8,1-5.2s-.5-2.7-.2-3.9l.4-1.5c0-.1.1-.5.4-.6,0,1.4-1,2.8-.8,4s.8,2.1,1.3,3.1Z"/>
  <path class="st8" d="M121.6,176.5c-.9-.8-.7-1.9-.1-2.7.5,1,.6,1.8.1,2.7Z"/>
  <rect class="st5" x="127" y="161.7" width=".1" height=".1" transform="translate(-77.2 137.2) rotate(-45)"/>
  <rect class="st10" x="127.5" y="162.6" width=".1" height=".1" transform="translate(-77.7 137.9) rotate(-45)"/>
  <path class="st13" d="M55.3,179.6l-1.9-.8c-1-.4-2.1-.6-3.2-.3-.1,0-.3-.4-.3-.5-.4.2-.6.1-.9,0,.2-.8,1.4-.7,2.6-2.4l.8-.3c-1.2-2.4,1.2-3.9,1.4-6.5l.3-4.1c1.1.2,2-.3,2.6-1.2l1.2-3.2c.5,1-.2,1.8-.4,2.7l-.9,4.3c-.6,3.1,1,5.7-.6,7.3s-1.3.9-2.4,1.1l1.9,1.2c-1.2,1.3,0,1.6-.1,2.9Z"/>
  <path class="st13" d="M55.6,162.4c-.7.6-1.9-.2-2.2-.9-.5-1.1-1.1-2.5-.9-3.7s.2-2.8-.2-4.2l-2-6.4c1.3,1.2,2.7,2.4,3.4,3.9l.9,3.2c.3,1.1.8,1.9,1.6,2.8,1.2,1.5,1.1,4.1-.5,5.3Z"/>
  <path class="st15" d="M58.6,176c-.4-.2-.7-.5-.9-.8s0-.8.3-1.3c.7.5.9,1.3.5,2.1Z"/>
  <path class="st8" d="M54.7,139.4l.5,3c0,1.8.4,3.6,1.1,5.3v-2.2c.5.9.6,1.9,1,2.9.9,2.1,2.7,3.7,4.9,3.8v.3c-1.5.9-4.6-.4-5.7-1.7l-1.3-1.5-.2-.3s-.2,0-.3,0c-.7-1.8-1.6-3.3-3.3-4.5s-3.2-3.5-3.4-5.5l-.3-2.2v-3.3c-.1-.3-.4-.4-.5-.6,0-.6,0-1.2-.4-1.8-1.2-2.2-1.4-4.5-1.6-6.9l-.2-2.6-.5-2c-.1-.6-.1-1.6.5-2.1s1.2.3,1.1.7v2.6c-.2.4.2.5.3.7,1,1.1,0,3.4,1.2,5.5l1.1-.5c.7,1.6,1.4,3.3,1.8,5,0,0-.2.2-.2.3s.3.1.4,0v.4c-.1,0-.2.2-.2.3,0,.2.2.4.4.3,0,.1,0,.2,0,.3-.2,0-.3.1-.3.4v2.7c.3,0,.6.3.6.6s-.2.6.2,1l.3-1.7c.6.6.2,1.4,1,1.9-.9-3.1-.7-6.1-.1-9.3s3.4-9.5,5.3-13.6,1.7-4,2.8-6,1.5-2.8,1.7-4.4l1-3.9c.4,0,.3-.3.4-.6.4-1.3.6-2.5.9-3.8,1.7,4.3-1.5,11.1-3.5,15.3l-2.5,5.3c-2.4,4.9-5.2,10.8-4.4,16.3l.2,3.2v2.8ZM53,138.4h0c0,0,0,.2,0,.2h0c0,0,0-.2,0-.2Z"/>
  <path class="st5" d="M57.8,103.8l-1.8,3.4c-1,2-1.7,4.1-3.2,5.8s-2.3,2.4-3.7,3.3-3.7.6-5.1-.9c-.2.5.1.8.2,1.4-1.4-.5-2.4-1.5-3.2-2.8s-.5-.5-.4-1c1.1.6,2.4.8,3.7.3,2,.7,4.2.1,5.2-1.9l-1.7-.3v-.3c.9.1,1.9.5,3,.3s1.2-1.1,1.4-1.9l.4-1.1,4.4-4.5c.2,0,.4,0,.6,0Z"/>
  <path class="st6" d="M54.8,115.6l-.8,3.5c-.4,1.7-1.1,3.2-1.6,4.9l-1,3.8-.2,2.3-2-4.7c-.3.3-.2.7,0,1l-1.1.5c-1.2-2.1-.2-4.5-1.2-5.5,1.6.2,3-.5,4.2-1.6l1.5-1.5c1-1,1.8-2.1,2.3-3.4.2.3,0,.5.1.6Z"/>
  <path class="st6" d="M51.2,133.2l.6,3v-3.8c-.1-2.6.3-5.1,1.1-7.6l1.6-5.1,1.7-3.8,3.2-5.5c.1-.3.3-.5.2-.7.1,0,.3-.2.4-.3l2.3-4.5c0,0,0-.2.2-.2-.1,1.5-.9,2.9-1.7,4.4s-1.8,4-2.8,6c-1.9,4.1-4.6,9.5-5.3,13.6s-.7,6.1.1,9.3c-.8-.5-.3-1.3-1-1.9l-.3,1.7c-.4-.4-.2-.7-.2-1s-.3-.5-.7-.6v-2.7c0-.2.2-.4.4-.4Z"/>
  <path class="st12" d="M62.3,94.6c.7,1.7.6,4.5,0,6s-.3.8-.4,1.3c-.4,2-1.2,3.8-2.2,5.6l-4.2,7.9c.4-2.6,1-5,2.1-7.2l1.3-2.5c1.8-3.5,3.1-7.2,3.1-11.3.2,0,.3.1.4.2Z"/>
  <path class="st16" d="M56.2,115.9l-1.7,3.8-1.6,5.1c-.8,2.5-1.2,5-1.2,7.6v3.8c0,0-.5-3-.5-3,0,0,0-.2,0-.3,0-.2,0-.5-.2-.6v-.4c0-.1,0-.4-.2-.4-.4-1.7-1.1-3.4-1.8-5s-.2-.7,0-1l2,4.7.2-2.3,1-3.8c.5-1.7,1.2-3.2,1.6-4.9l.8-3.5c.1-.1.1-.4.4-.5.1.3,0,.4,0,.6.4,0,.7,0,.9.3Z"/>
  <path class="st11" d="M47.3,111.2c0,.2-.1.3-.3.3h-.5c-1.9-.4-3.8-.4-5.7,0,.9.9,2,.3,3,.3s2.4.5,3.5-.1.4-.1.4-.2,0-.2,0-.3c0,0,.2,0,.3,0l1.7.3c-1,2-3.2,2.6-5.2,1.9-1.3.5-2.6.3-3.7-.3-.3-.4-.7-.8-1.1-1,0-.3-.2-.4-.2-.8.8.2,1.4-.2,2.1-.3,1.2-.1,2.5,0,3.8,0l2.1.2Z"/>
  <path class="st7" d="M61.4,93.4l.6.4c.2.1,0,.7.2.9-.1,0-.2-.2-.4-.2,0,4.1-1.2,7.8-3.1,11.3-.3-.3-.3-.7-.2-1.1l.3-1.7c1-2.8,1.6-6.7,1.7-9.9l.8.3Z"/>
  <path class="st14" d="M63,92.8c-.7-.1-.5-1.5-1.5-1.6v2.2c0,0-.9-.3-.9-.3,0,3.2-.7,7.1-1.7,9.9-.3,0-.5,0-.8.4l-.4.5c-.2,0-.4,0-.6,0,0-.4.5-.6.7-.9,1.8-2.5,2.4-8,1.8-11.3s0-1.1.4-1.4c.7-.4,2-.2,2.4.5s.4,1.4.5,2.1Z"/>
  <path class="st16" d="M44.7,119.5l.5,2,.2,2.6c0,0-.2,0-.3,0s-.3,1-.3,1.1l-.3-1.9c.1-1.1-.3-2.1-1-2.9l-.5-.8c.5-.4,1.1-.1,1.6,0Z"/>
  <path class="st14" d="M62.3,105l-2.3,4.5c0,.2-.3.3-.4.3,0-.1,0-.3,0-.5l2.2-4.4h.3Z"/>
  <polygon class="st11" points="39.8 114.4 39.9 114.5 39.8 114.6 39.7 114.5 39.8 114.4"/>
  <path class="st10" d="M55.5,74.7c1,0,2.4,1,1.7,1.7l-.8-.2c-.2,0-.3-.6-.7-.5.2.6,0,1.5-.7,1.4s-.5-.4-.7-.6h-.1c.4.5.3,1.2.5,1.8.4.2,1,.4,1.1,1v1.1c.4.2.2.5,0,.3-.2-.3-.3-.8-.7-.7,0-.3,0-.6-.2-.8s-.8-.2-1.2-.2c-.2-.5,0-1.2-.6-1.5h-.1c.9,1.4-1.3,2.7-.2,2.9s.7.3.9-.2l-.8-.2c0-.7,1.3-1,1.6-.4s-.5,1.3-1,1.4c-1.4.3-1.8-.9-2-.9s-.4.2-.2.4l.8,1c-.2.4-1,0-1.2-.3-.6-1,1.1-1.6,0-2.8s-.7-.8-1.3-.6c.6.3,1.4.8,1.2,1.6s-.6,1-.4,1.7c-.7-.4-.7-1-1.4-1.5.2,1.1.2,2-.8,2.7,0-.3,0-.4.1-.6,0-.2,0-.4-.3-.3s-.3.5-.3.7.3.5.6.4c.6-.2.9-.8,1.2-1.5.8.5,1.6.9,2.5,1.1l.5-.6c.7.3,1.3,0,1.8-.2.1.7.2,1.3,0,2.1-.3.1-.7,0-1,.4.8.1,1.5.4,2,.9s.7,1.4.3,2.2h-.7c-.1,0-.2-.3-.5-.2-.6.3-1.3.6-1.7,1.1l-1.7,2.7c-.3.4-.7.6-1.2.6-1.2,0-1-1.3-1.6-1.4,0-.4.1-.8,0-1.3-.5,1.3-.1,2.7.7,3.8-.8,2.5-1.1,5.1-.9,7.9.6-.9.7-1.8,1-2.8.3-.1.5-.3.8-.3.3,2-1.1,3.3-.7,5.6,2.1,1,1.8,3.9.2,5.9,0,1,1.1-.4,2-1.9.1.8.3,1.7,0,2.5s-1.4,1.1-2.2.9-.9-.1-1-.8c-.3.4-.5.5-1,.4l-3.3-.8c0-.3,0-.6-.2-.9-.2.3-.1.8-.3.9-1.3.6-3.5,1.2-3.7.7l-.3-.6c0,.4,0,.7-.2.9-.3.3-1.6.5-1.9,0s-.3-1.2.2-1.3c.2.2.4.7.9.6l-.8-2.2c0-.2-.2-.4-.3-.5-.2-.7,0-1.3,0-2l.7-1.3c0,0,.1,0,.2-.1l.2-.2v-.2c.3-.2.5-.3.6-.6,1.3-2.3-.5-4.8.8-4.9.6,1,.3,2.3.6,3.4.5-1.4.2-2.8.3-4.2s0-2.5-.6-3.5c.1-.8,1.6-1.8,1.1-3.9,0,.8-.3,1.3-.6,1.9-3,1.6-2.3-3.2-6-4.4-.2-1.1.9-2.2,2-2.6-.3-.2-.7,0-.9-.3,0-1.1.3-2,1.3-2.3.5.2,1.2-.2,1.8-.3l1.5-.3c.2,0,.4.5.2.8s-.6.3-.9,0l.2-.5c-.3,0-.3.3-.4.4s-.3.1-.3.3c0,.2.2.4.4.4l2.2-.6c.2.9.9,1.1,1.5,1.5s.7,1,1.2,1.2l.2-.2c-.5-.4-.9-.9-.9-1.6s.4-1.3,1-1.8c-1,0-1.5.9-1.5,1.8-.8-.2-1.1-.7-1.1-1.4s.3-1.2.9-1.4,1.4-.1,1.7-1c-.6.4-1.1.7-1.7.8l-1.4.2c0,.7,0,1.2-.6,1.6.1-.7-.3-.9-.5-1.2-.6-.7-.3-1.7.6-2.4-1,0-1.4.9-1.4,1.8s-.2.5,0,.8c-.3.3-.8.2-1.2-.1-.7-.5-1-1.2-.5-2s.2-.6.5-.8c-.3-.2-.4,0-.4,0,0,0-.3-.1-.3-.5-.2,0-.3.4-.5.6-.7-.4-.6-1.2-.4-2-.8.6-.6,1.5-.2,2.1s0,0,.1.1c.1-.2.8,0,.7.1-.5,1-.4,2.1.7,2.7-.3.2-.5.3-.9.2s-.4-.3-.7-.6c-.6-.7-.4-1.6,0-2.3h-.1c-.3,0-.5.2-.7.7l-.5-.6c-.2.2-.4.3-.5.3s-.4-.3-.4-.5c.2-.7.8-.9,1.4-1.2.1-.1-.2-.4-.3-.5.2-1.8,2.1-1.2,2.8-2s1.3-.6,2-.5c1.3.3,3.3-1.8,5.2,0s1.9-1,3.9-.8l1.2.6c.9.3,2.3-.5,4.3.4.2.3.3.6.7.6ZM54.2,76.4c-.1-.2-.3,0-.1.2v-.2ZM38.5,77.1h0c0,0,0,.2,0,.2h0c0,0,0-.2,0-.2ZM43.5,78.8c-.5-.8-.5-1.1-.5-1.8-.4.2-.5.8-.4,1.2s.5.8.9.6ZM52.6,77.2c.1.1.2,0,.1-.1h-.1ZM52.8,77.2h0c0,0,0,.2,0,.2h0c0-.1,0-.2,0-.2ZM48.5,78.1c0,.2.1.4.3.4s.6-.6.6-.8-.1-.3-.4-.3c0,.3-.1.5-.4.6s0,0-.1,0ZM48.2,77.6v.2c0,0,0-.2,0-.2ZM48.4,77.8h-.1c0,.1.1.2.1.2h.1c0-.1-.1-.2-.1-.2ZM44.6,78.4h0c0,0,0,.2,0,.2h0c0,0,0-.2,0-.2ZM47.8,79.4c0,.6.6.5.8.3s.4-.4.4-.8c-.2.5-.9.4-1.2.5ZM46.1,82.4l-1.2,1.6c-.5-1.5,1.1-1.7.5-2.7-1.5,1-.6,2.3-.7,2.7s-.1,0-.2,0l-.2.2c0,.2.3.5.6.4.6-1.2,1.9-2,3.2-1.6s.2-.3.1-.4-.7,0-1.7-.7c0-.8.3-1.9-.7-2.5.3,1,.5,1.9.2,2.9ZM47.7,103.3c-.9-.9-1.9-.4-2.8-.3-1.6.8-3.4-1-4.9.2,1.3-.2,2.5.7,3.6.7s2.5-.7,4-.6ZM38.3,104.3c-.6,1.1.2,3.6,1.7,3.6s.9-.3.9-.8c.2-2-2.2-1.6-1.7-3.4,0-.1-.4-.2-.6,0s-.3.3-.5.6ZM47,108c1.2.5,2.6-1,2.6-2.6s0-1-.3-1.4-.8-.4-.9-.1c.4,1.9-1.5,1.4-1.8,2.8s0,1.1.5,1.4Z"/>
  <path class="st1" d="M57.7,85.2c.3.6.5,1.3.5,2.1,0,1.2.6,2.2.8,3.4.6,2.9.4,5.9-.3,8.7s-1.6,3.6-3,5l-3.2,3.2c-.4-1.1.3-2.2-.2-2.4,0-.9.1-2,.4-2.9v-.5c-.2,0,.2,0,.4,0l1.4-2.1c.9-1.3,1.4-2.7,1.8-4.2-.7.5-1.3,1.1-2.2.8,1.5-1.2,2.6-2.8,2.6-4.4v-1.1c0-.3-.4-.3-.6-.4,0,0-.2-.3-.4-.4,0-.3,1.1,0,1.3-.8.4-1.5.2-3.3-.7-4.5.7-.2,1.1.8,1.5.4Z"/>
  <path class="st10" d="M56.4,91.9c0,1.3-1,2-2,2.6s-1.3.8-2.2.2c.1.6.3.8.6,1.2-.7.7-1,1.6-1.2,2.6-.4-.5-.2-1.1-.6-1.2v-2.8c0-.4.3-.6.7-.8-.2-.2-.4-.1-.6-.1.3-.7,1-1,1.6-1.2l.6.5c0,.5.5.7,1.1.6,1-.1,1.6-1,1.6-1.9v-.3c.2.1.3.5.3.7Z"/>
  <path class="st4" d="M56.1,89.4c.3,0,.6.1.9-.1-.2.9-1.3.5-1.3.8,0,1.2-.8,2.4-2.2,2.2s-.5-.1-.8,0c-.7.2-1.4.5-1.6,1.2h-.4s.4-1,.4-1c.5,0,.5-.7.8-.8.4-.3.7-.8.9-1.3s1.3-1.2,2.2-1.1l1.2.2ZM55.2,91.3c.2-.4.4-1.2-.1-1.5,0,.7,0,1.5-.7,1.6s-1-.2-1.4-.7c-.3.3-.3.8,0,1,.4.5,2,.4,2.3-.4Z"/>
  <path class="st0" d="M48.3,89.7c0,.6.2,1.3.7,1.7.8.7,1.9.3,2.4-.5s.3-.3.5-.3c-.2.4-.4.6-.3.8s.1.2.3.2c-.2.2-.3.8-.8.8-1.2-.1-1.4,1.2-2,2.5-.2-1.5.9-2.4-.2-2.8-.8-1.1-1.2-2.5-.7-3.8.2.5,0,.9,0,1.3Z"/>
  <path class="st4" d="M47.9,110.9v.3c0,0-.2,0-.3,0h-.3c0,0-2.1-.3-2.1-.3-1.3-.1-2.6-.2-3.8,0v-.2s2-.4,2-.4l.4-.3c0,0,.3.3.4.3l3.7.6Z"/>
  <path class="st14" d="M51.1,93.4c.2,0,.4-.1.6.1-.4.2-.8.4-.8.8v2.8c-.4-.2-.4-.4-.4-.9,0-1-.1-2,.2-2.8h.4Z"/>
  <path class="st6" d="M56.7,91.9h-.3c0-.2-.1-.6-.3-.7v-.7c.2,0,.6,0,.6.4v1.1Z"/>
  <path class="st16" d="M59.1,82.3c.3.3,0,.6-.2.7-.3.2-.7.2-1.1.3.6.3,1.2,0,1.8-.5.3,0,.4.6.3.8,0,0-.2,0-.2,0s0,.2,0,.3c-.3,0-.3.2-.3.4-.5.4-.7,1-.8,1.5l-.3-.7c0-.1-.2-.2-.4,0-.4.4-.8-.6-1.5-.4,0-.1-.4-.2-.4-.4,0,.1,1-1.8-.3-3h1.2c.4,0,.7-.3.7-.6.5-.7.5.6,1.6,1.5Z"/>
  <path class="st16" d="M61.2,83.4c0,.4-.4.6-.7.8-.8.7-.5,2-.2,2.8v.7c-.2.9,1.2,1.1,1.7,2-.7-.5-1.8-.3-2.6.3-1.5-2.3-.8-3.6-.2-5.7.1,0,.4-.1.3-.4.2,0,.2-.2.2-.4h1.4Z"/>
  <path class="st12" d="M71.7,84.7c0,.1,0,.3,0,.4h-.4c0,.1-2.3.8-2.3.8l-1.6.7c.4.3.7.3.9.6-1,.4-1.8.5-2.8.6.2.5.5.8.8,1.3-1.2.1-2-.9-2.6.2-.5.2-.9-.4-1.2-.6.2-.4.6-.5,1-.6,1.3-.3,2.4-1.1,3.3-2.1l1.3-.3,3.7-.8Z"/>
  <path class="st4" d="M70.6,84.2c-.3,0-.6.2-1,0-.9-.4-1.7-.3-2.6-.1s-1.1.2-1.3.8c0,.1.3.3.4.4-.5.3-1.2.4-1.5.7-.9,1-2,1.4-3.2,1.9s-.7,0-1.1,0v-.7c.7,0,1.5,0,1.9-.5.9-.3,1.5-1,2.2-1.7,1.8-2,3.8-1.7,6.1-.7Z"/>
  <path class="st0" d="M67,84.1c0,.7.5,1,.9,1.4l-1.3.3c-.9.9-2,1.7-3.3,2.1s-.8.2-1,.6c-.3-.2-.8-.1-1-.6,1.2-.4,2.3-.9,3.2-1.9s1-.5,1.5-.7c0,0-.3-.2-.4-.4.2-.5.8-.6,1.3-.8Z"/>
  <path class="st1" d="M70.6,84.2l2.3.2v.3s-1.2,0-1.2,0l-3.7.8c-.4-.4-1-.7-.9-1.4.8-.2,1.7-.2,2.6.1s.7,0,1,0Z"/>
  <path class="st11" d="M21.7,84.3c0,0,0,.2,0,.3s.2.1.3.1l2.9.4c.1,0,.4.2.4.3s-.2.4-.4.6l1.2-.4c.6.2.8.8,1.2,1.2,1.2,1.2,3.3,1,3,2.1-.1,0-.1.3-.4.4s-.2-.4-.4-.5c-1.1-.5-2.3-.6-3.2-1.4s-.7-.8-1.4-.8-.9-.3-1.3-.5l-3.3-1.5c.4-.2.8,0,1.1-.1Z"/>
  <path class="st4" d="M31.5,87c.2,0,.5.5,1,.2,0,.4-.1.5-.2.6-.2,0-.4,0-.5,0l-2.5-.8-.7-.8c-.1-.1-.4-.2-.4-.3s-.1-.4.2-.7c-.6-.3-1.3-.1-2.1,0l.5-1.2c-1.5-.7-2.6.4-3.2-.1,4.8-1.9,5.4,2.7,8,3Z"/>
  <circle class="st11" cx="29.5" cy="89.3" r=".2"/>
  <path class="st2" d="M116.9,42.3h-.6c0-.2.2-.2.3-.2s.3,0,.3.2Z"/>
  <path class="st12" d="M75.6,93.9c1.1,2.8.5,5.8-.6,8.5l-.4-.2c1-2.3,1.2-6.4-.7-7.8l.2,3.3-1.1.2c0-.4,0-.8,0-1.2h-.3s0,1.9,0,1.9c-.3,3.2-1.3,6-2.6,8.9l-.5,1.2c-1.5,2.6-3.1,5.1-4.7,7.7s-3.5,6-4.6,9.3c-.2,0-.3-.2-.2-.3.7-2.8,1.9-5.2,3.3-7.7l3.9-6.6,2.9-5.8c1.3-2.5,2.5-8,1.4-10.9l-1.4,4.5c0-1.4.1-3.1-.7-3.9s-.2-.1-.3,0c-.5.2.9,2.5-.1,6.4l-1.6,4.2-1.6,3.9-2.5,5.1-1.1,1.9-3.4,6.7c-2.2,5.3-2.8,11.1-.9,16.6s2,2.8,3.2,3.9c.3-2-1.2-2.7-1.4-4.2.3.1.7.3.9.7.6.7,2.3,1.6,2.3,1l1.2,1.7c.6.8.5,2.1,0,3h-.7c.1.2.3.5.2.7-.3.8-2.1,0-3.4-.8-2.3-1.1-4.3-3-5.1-5.5s0-.8-.5-.9v-2.8c0,0-.3-3.2-.3-3.2-.8-5.4,2-11.3,4.4-16.3l2.5-5.3c2-4.2,5.2-11,3.5-15.3-.3,1.3-.5,2.5-.9,3.8s0,.7-.4.6c.3-2.2.7-4.3.3-6.5.6-.2,1.2-.2,1.8.1,1.5.8,1.3,5.2.8,7.6s-.6,1.4-1,2.1l-5.4,11.7c-1.5,3.3-3.1,6.3-4.1,9.8s-1.2,7.6.2,11.1c-.2-1.8-.5-3.3-.3-5.1.6-4.7,2.1-9,4.5-13l2.8-5.4.8-1.5,2-4.3c.8-2.4,1.5-4.8,1.9-7.2v-.2c0-1.6.4-3.1.1-5,.9-.1,1.2-2,1.3-3.5s.4-1.3,1-1.1c1,.2,1.6,1.3,1.9,2.3.7-.3.4-.9,0-1.5,1.8-.4,2.1,1.9,3.5,2.6Z"/>
  <path class="st11" d="M62.3,152.1c-2.3-.1-4.1-1.7-4.9-3.8s-.4-2.1-1.1-2.9v2.2c-.6-1.7-1-3.5-.9-5.3.9,1.7,2.1,3.1,3.7,4.2l3.4,2.4c-.9.7-1.8.7-2.8.9.9.5,2.1.4,3,0,1.8-1,3,.8,3,1-.2.6-2.7,1.4-3.3,1.4Z"/>
  <path class="st3" d="M60.9,136.4c.3.9.5,2,1.2,2.6s0,.3,0,.4c-.1.6.5,1.2.8,1.7,0,.6-1.7-.3-2.3-1s-.6-.5-.9-.7c-.5-.8-1-1.8-1-2.8.6.8,1,1.6,1.8,1.9-.2-1-.4-1.8.2-2.2,0,0,0,0,.1,0Z"/>
  <path class="st11" d="M62.2,152.4c.2.3.4.5.3.9-3.2.8-6.7-1.6-7.7-4.3,0,0,.3-.1.3,0l.2.3,1.3,1.5c1.1,1.2,4.2,2.5,5.6,1.7Z"/>
  <rect class="st4" x="59.3" y="145.9" width=".1" height=".1" transform="translate(-85.8 84.7) rotate(-45)"/>
  <path class="st16" d="M44.4,126.5l.3.2c0,.1,0,.3,0,.4s.3.2.4.1c0,.9.5,1.8.9,2.7l1.3,2.9c0,.2.3.3.4.6v3.3c.1,0,.4,2.2.4,2.2h-.4c-.2-.1-.2-.4-.3-.8v-1.7c0-1.8-.3-3.3-1.1-4.9l-2.3-4.9c-.2-.4-.3-.7-.3-1l.7.8Z"/>
  <path class="st16" d="M45.1,126.9l-.4-.2v-.4c.2,0,.3,0,.4.2,0,.2,0,.3,0,.4Z"/>
  <path class="st10" d="M34.9,90.6c-.1.7.3,1.2.9,1.5s1.5-.5,2.6.9v.5c0,0-.2,0-.2,0,0,.1-.1.3-.1.5,0,0,0,.2,0,.2-.2-.2-.4,0-.4.2-.2.3-.4.5-.6.6-.4,0-2.4-1.2-2.5-2.8h-.1c-.1-.3.1-.2,0-.2l.2.2.2.2h.1c-.1-1.3-.9-2.1-.4-2.3l.4.6ZM35,92.3h-.2c0,.2,0,.2.1.3l.2-.2h-.2ZM35.2,92.4l-.2.2s0,0,.1.1l.2-.2h-.1ZM35.4,92.6v.2c.2.4,1.1.7,1.6.1l-1.6-.3Z"/>
  <path class="st0" d="M40,92.7c-.2,1.2.6,2.4,0,3.7-.4-1.8-.4-4.1-1.5-3.8-.4-.3-.6-1-.8-1.5l.8.5c.5.3.9.3,1.3,0s.4-.6.6-.9c.2-.6.5-1.1.6-1.9.5,2.2-.9,3.1-1.1,3.9Z"/>
  <path class="st8" d="M38.4,96.2c-.1.5,0,.9-.4,1.5-.2-.6-.6-1.2-.9-1.7.1-.6.8-1.1.9-1.7s0-.2,0-.2c0-.1.1-.3.1-.5,0,0,0,0,.2,0,.4.7.2,1.8,0,2.7Z"/>
  <path class="st14" d="M38.4,96.2c.2-.8.4-1.9,0-2.7v-.5c0,0,.2,0,.3,0,1.2,1.3,0,1.8.2,2.7s0,.4-.2.5-.2,0-.3,0Z"/>
  <path class="st14" d="M37.9,102.9l-.7,1.3c0-.4,0-.8.3-1.2h.4Z"/>
  <path class="st14" d="M38.4,102.4c0-.1,0-.3,0-.4s.2-.2.4-.1c-.1.2-.3.4-.5.6Z"/>
  <path class="st14" d="M38.1,102.8c0-.1.1-.2.2-.2l-.2.2Z"/>
  <path class="st12" d="M130.9,144.8c.3.8.6,1.6.3,2.5s-.9,1.4-1.8,1.4c0,.3,0,.5,0,.8-2.8-.7-4.1-4.5-2.9-7.5,2.1-.2,3.6.9,4.4,2.8Z"/>
  <path class="st16" d="M132.7,146.3c-.8-.6-.9-1.6-1.8-1.5-.8-1.8-2.4-3-4.4-2.8s-.5.2-.6.8c-.4-.9-1-1.2-2-1.5,1.3-.7,2.6-1.7,4.2-1.5s3.4,3.3,5.1,4.5l-.3,2Z"/>
  <path class="st1" d="M116.7,140.5c.9-.2,1.8-.5,2.5-1s.3-.1.5-.1h.2s2.3-.5,2.3-.5c1.5-.3,2.9-.2,4.4.4l-3.3,1.8-5.8,3.9-4.8,2.6-2.3,1.6-1.1,1.1c-.2,0-.3,0-.4-.1s-.3-.4,0-.5.3,0,.4,0c.2,0,.3-.3.4-.4,1.7-1.6,3.5-2.6,5.5-3.8l-3.2,1.2-2.5,1c-.6.2-2.6.3-3.7,1.7l-.4.3c0-.4.3-.7.2-1.2-1.3-.3-2.6-.6-4-.5l2.3,1.1c.5.2.8.7.7,1.3-.2,0-.4-.1-.5-.2-2.6-2.3-10-3.6-13.7-3.3s-4.7.7-6.9,1.4-1,0-1.5.4c.3-1.7,1-3.2,1.8-4.7,2.1-3.5-.3-5.6.9-8.2s1.6-4.2,1.9-6.4c0,.1.2.3.2.6l-.5,4.2c-.2,1.7-.3,3.3.1,4.9l.5,3.3c0,.7,1.3.9,1.9,1l10.4,1.5c5.1.8,10.2,0,14.6-2.6l2.9-1.7Z"/>
  <path class="st16" d="M23.6,77.2c0,0,0,.3,0,.4h-.4c-1.7-1.6-3.1-3.7-3.5-6.1.1,0,.2,0,.3,0s0,.2.1.3l1.2,2.7c.5,1.1,1.5,1.9,2.4,2.6Z"/>
  <path class="st7" d="M23.6,77.6c.4,0,0,.5-.1.3l-.3-.3h.4Z"/>
  <path class="st11" d="M36.9,81.2c-.9.3-1.2,1.2-1.3,2.3.2.2.6,0,.9.3-1.1.4-2.2,1.4-2,2.6,3.6,1.2,3,6,6,4.4-.1.4-.2.7-.6.9s-.9.3-1.3,0l-.8-.5-.5-1.2c-.6-2.4-2.7-3.2-2.7-2.8v.5c0,.3-.6.7-1,.5,0-1.1.2-2.2.8-3.2,0,0,.1-.1.2-.1.1-.3.4-.6.7-.7-.3-.2-.5,0-.6.1-.3-1.8,1.6-3.5,1.8-3.4s.3.4.5.5Z"/>
  <path class="st6" d="M33.9,81.1c.3-.5-.3-.8.2-1.6s.8-.9,1.5-.8l.4,1.1c.1.3-.5.8-.8.5s0-.9.3-1.1c-.6,0-.8.4-.8.8s.2.7.7,1.1c-.6.2-1,0-1.5,0Z"/>
  <path class="st14" d="M40.3,80h-.2c-.3-.1-.5-.3-.7-.6,0-.9.5-1.8,1.4-1.8-.9.6-1.2,1.7-.6,2.4Z"/>
  <path class="st7" d="M42.9,79.7v-.2c.6-.1,1.1-.4,1.7-.8-.3.9-1.1.9-1.7,1Z"/>
  <path class="st7" d="M40.2,80.1c-.1.2-.5.2-.6.2-.3-.3,0-.6,0-.8.2.2.4.5.7.6Z"/>
  <path class="st5" d="M34.6,84.7v-.6c.3,0,.4-.3.7-.1-.4.1-.6.4-.7.7Z"/>
  <rect class="st10" x="37.5" y="77.6" width=".1" height=".1" transform="translate(-43.9 49.3) rotate(-45)"/>
  <path class="st7" d="M39.5,81.4h-.2c.1-.1,0-.4.4-.5l-.2.5Z"/>
  <path class="st16" d="M47.6,139.6c0-.1.3,0,.3,0v.4c0,0,0,.1-.2,0s-.3-.2-.1-.4Z"/>
  <path class="st17" d="M159.1,148.3c.1.9,0,1.8-.3,2.6s-.3.6-.5,1c0-1.5,0-2.9-.8-4.1s-1.2-2.2-1.2-3.4v-.9s.3-1.9.3-1.9c0-.3,0-.5.3-.6.2,3.7,2,5.6,2.3,7.3Z"/>
  <path class="st8" d="M159.8,157.8c0,.2,0,.4.1.5h-.6c-1.5-1.3-1.8-3.7-.9-5.7l.7-1.6c.4-.8.4-1.7.5-2.6,0,0,0-.3.2-.5.8,1.1.8,2.6.2,3.9l-1,2.2c-.6,1.3-.3,3,.9,3.9Z"/>
  <path class="st14" d="M159.4,148.3c0,0,.2,0,.2,0,0,.9-.1,1.8-.5,2.6h-.4c.3-.9.5-1.8.3-2.6h.3Z"/>
  <path class="st14" d="M156.2,143.5v.9c-.4.1-.4,0-.4-.4s0-.5.4-.5Z"/>
  <path class="st14" d="M156.2,140.3c0-.2,0-.4.2-.4,0,.2,0,.3-.2.4Z"/>
  <path class="st7" d="M67.6,139v.6c0,.2-1.2,1.6-1.2,4.2l-1.6-2.6-2-1.9c-.1-.1-.1-.3-.1-.4l3.2,1.1c.6.2,1.4-.5,1.8-.9Z"/>
  <path class="st5" d="M62.4,138.9c0,0-.2,0-.3.2-.7-.6-1-1.7-1.2-2.6.2,0,.4.2.5.5l1,2Z"/>
  <path class="st6" d="M74.1,97.6c.2,2.4-.1,4.7-.9,7,.8-.7,1-1.6,1.4-2.5l.4.2c-1.2,2.8-2.7,5.5-5,7.6l.4-1.3.8-1.8c1.1-2.6,2-6.5,1.9-9.1l1.1-.2Z"/>
  <path class="st10" d="M73.2,180.4c0,1.5-.7,3.1-2,3.9-1.4.4-2.8.5-4.2.3l2.2-4.7c1.3-.4,2.7,0,4,.5Z"/>
  <path class="st14" d="M45.3,124.1c.2,2.4.4,4.7,1.6,6.9s.4,1.3.4,1.8l-1.3-2.9c-.4-.9-.8-1.7-.9-2.7v-.4c0-.1,0-.3,0-.4s-.2-.2-.3-.2v-1.1s.3-1,.3-1.1c0,0,.2,0,.3,0Z"/>
  <path class="st10" d="M54.1,179.7c-.3,2-1.3,4-3.2,4h-3.6s2.7-4.6,2.7-4.6c1.5-.5,2.7,0,4.1.6Z"/>
  <path class="st10" d="M148.2,179.1c0,.9-.4,1.6-.8,2.5-.9,2.1-2.6,1.4-2.6,2.1h-2.4c-.1-.2-.2-.4-.2-.6l2.1-4.4c1.2-.5,2.7-.2,3.8.4Z"/>
  <path class="st6" d="M161.4,148.9c.4,2.7-1.4,4.3-1.4,6.9s-.2.7.2,1.2.5,1,.4,1.4c-.2-.3-.5-.4-.8-.6-1.2-.9-1.5-2.5-.9-3.9l1-2.2c.6-1.3.6-2.8-.2-3.9-.2.2-.1.4-.2.5,0,0,0-.1-.2,0-.2-2.2-1.6-3.4-2-5.8.7.3.7,1.9,1.8,3,2,2.1,1.2,3.5,2.2,3.4Z"/>
  <path class="st10" d="M113.1,178.3c1.4,0,2.8.4,3.9,1.2-.6,1.1-1,2.6-2.3,3.2s-3.2.5-4.7.4l3.1-4.7Z"/>
  <path class="st11" d="M162.2,144.7c-.1,0-.2.1-.3.3-.6-1.1-1-2.2-1.7-3.3.3.1.5,0,.8.5.5.8,1.1,1.6,1.3,2.5Z"/>
  <path class="st11" d="M159.9,140.7l-.2-.2c0,0,.1.2.2.2Z"/>
  <path class="st6" d="M61.6,79.4c.2.6.3,1.2.9,1.8l-.6.4c-.3,0-.8.1-1.1-.2-.5-.5-.7-1.1-.8-1.7l1.7-.3Z"/>
  <path class="st17" d="M36.7,89.8c-.7-1.2-2.2,0-3.1-.4v-.2c.2,0,.4,0,.5-.2s.1-.3,0-.4-.4,0-.5,0v-.6c.4.1.9-.2.9-.5.9-.5,2.1,1.1,2.2,2.3Z"/>
  <path class="st0" d="M35.8,92.1c-.6-.3-1-.8-.9-1.5.2-.2,0-.7.6-.8-.3.6,0,1.1.2,1.4.4.4,1,.2,1.4-.3.3.4.5.6.6,1-.8,0-1.3,0-1.9.2Z"/>
  <path class="st5" d="M37.3,89.8c-.1.1-.5.2-.6,0,0-1.2-1.2-2.8-2.2-2.3v-.5c.1-.5,2.2.3,2.8,2.8Z"/>
  <path class="st1" d="M59.5,79.8l.8,2.1h-1.3c-.5-.5-.7-1.3-1-2h1.4Z"/>
  <path class="st5" d="M58.1,79.8c.2.7.4,1.5,1,2.1,0,0,0,.3,0,.3-1-.9-1-2.2-1.6-1.5,0,0-.1,0-.1,0,.3-.5.3-.9.2-1.5s-.1-.5-.4-.6c0-.2,0-.3.1-.4.1-.2.3-.3.5-.4,0,.7,0,1.2.3,1.8Z"/>
  <path class="st0" d="M56.5,76.2v.3c-.4.2-.7.5-.8,1,.5,0,.8,0,.8.3-.4,0-1.1-.2-1.4.4.7.1,1,.3,1.4.8.3-.4.1-.6,0-1.3.2,0,.4.2.3.6s0,.3.1.3.2,0,.3,0c.2,0,.3.3.4.6-.4,0-.8,0-1.2.2s-.3.6-.5.9v-1.1c-.2-.7-.9-.8-1.3-1-.2-.5-.1-1.2-.5-1.6s0,0,0,0c-.2-.1,0-.3.1-.2h0c.1.3.4.7.7.7.7,0,1-.9.7-1.4.5,0,.5.5.7.5Z"/>
  <path class="st3" d="M56.5,77.8c.1.6.3.8,0,1.3-.4-.5-.8-.7-1.4-.8.3-.7,1-.5,1.4-.4Z"/>
  <path class="st3" d="M56.4,76.4c.4.7,1.2.9.9,2,0,.1-.1.2-.1.4,0,0-.2,0-.3,0s-.1-.2-.1-.3c0-.3,0-.6-.3-.6,0-.3-.3-.4-.8-.3.2-.5.4-.8.8-1Z"/>
  <path class="st11" d="M33.6,89.2v-.6c0,0,.3,0,.5,0s0,.3,0,.4c-.1.2-.3.2-.5.2Z"/>
  <path class="st11" d="M159.3,140l-.3.2c-.4-.8-1-1.7-.9-2.8l1.2,2.5Z"/>
  <path class="st1" d="M159,140.2l.3-.2c0,0-.1.2-.3.2Z"/>
  <path class="st10" d="M60.3,125.6c-.9,2.6-1,5.5-.3,8.2l.8,2.5c-.6.5-.4,1.3-.2,2.2-.8-.4-1.2-1.1-1.8-1.9,0,1.1.4,2.1,1,2.8.2,1.5,1.7,2.2,1.4,4.2-1.2-1.1-2.6-2.3-3.2-3.9-1.9-5.5-1.3-11.3.9-16.6l3.4-6.7,1.1-1.9,2.5-5.1,1.6-3.9,1.6-4.2c1.1-3.9-.3-6.2.1-6.4s.2,0,.3,0c.8.8.6,2.5.7,3.9l1.4-4.5c1.1,2.9-.1,8.4-1.4,10.9l-2.9,5.8-3.9,6.6c-1.4,2.4-2.6,4.9-3.3,7.7-.1.1,0,.3.2.3Z"/>
  <path class="st0" d="M73,97.8c.1,2.6-.8,6.5-1.9,9.1l-.8,1.8h-.8s.5-1.3.5-1.3c1.2-2.9,2.2-5.8,2.6-8.9v-1.9s.3,0,.3,0c.1.4,0,.8,0,1.2Z"/>
  <path class="st6" d="M51.1,132.9c-.2,0-.4,0-.4-.3s0-.2.2-.3c.2.1.2.4.2.6Z"/>
  <path class="st6" d="M50.9,131.9c0,0-.3,0-.4,0s.1-.3.2-.3c.2,0,.2.3.2.4Z"/>
  <rect class="st6" x="53" y="138.5" width=".1" height=".1" transform="translate(-82.4 78.1) rotate(-45)"/>
  <path class="st16" d="M67.8,100.2v.2c0,0-.2,0-.3,0s-.2.2-.2.3c-.1,1.5-.6,2.8-1,4.2v.4c0,.1-.2.2-.4,0v-.9c-.4.4-.3.9-.5,1.4l-2.2,5.9c.1.2.5.2.7.2l-.8,1.5-2.8,5.4c-2.4,4-3.9,8.3-4.5,13s.1,3.3.3,5.1c-1.4-3.5-1.2-7.4-.2-11.1s2.6-6.5,4.1-9.8l5.4-11.7c.3-.7.8-1.2,1-2.1.4-2.4.7-6.7-.8-7.6s-1.2-.3-1.8-.1l-.6-3.5c1.1.3,1.9.3,3,.2,1.1,2.7,1.6,5.5,1.4,8.5s.1.5.2.6Z"/>
  <path class="st10" d="M47.3,111.2h.3c0,.1.1.3,0,.3,0,.1-.3.2-.4.2-1.2.6-2.3.2-3.5.1s-2,.6-3-.3c2-.4,3.8-.4,5.7,0h.5c.2,0,.3-.1.3-.4Z"/>
  <path class="st12" d="M55.6,81.4c1.3,1.2.3,3.1.3,3,0,.2.3.2.4.4.9,1.2,1.1,3,.7,4.5-.3.3-.6.2-.9.1.4-.1-.2-.3-.1-.7s.2-.3.4-.5c.3-.3,0-.7,0-.9s-.3-.5-.6-.6c.3-.7.2-1.5-.3-2.2s-1.1-.8-2-.9c.3-.5.7-.3,1-.4.2-.8.1-1.4,0-2.1,0,0,.1-.2.2-.3.2-.1.4,0,.6.1l.4.4ZM55.4,83.9c.1.1.2,0,.1-.1h-.1ZM55.6,84.1h.1c-.1-.2-.2-.1-.1,0Z"/>
  <path class="st0" d="M55,80c0,.4.1.8.6.9.7.2,1.3.1,1.9-.2,0,0,0,0,.1,0,0,.3-.3.6-.7.6h-1.2s-.4-.4-.4-.4c-.2-.2-.4-.3-.6-.1s-.2.2-.2.3c-.5.2-1.2.5-1.8.2l-.5.6c-1-.1-1.7-.5-2.5-1.1-.3.7-.6,1.3-1.2,1.5s-.7-.2-.6-.4,0-.6.3-.7.4.2.3.3-.2.3-.1.6c1-.6,1-1.5.8-2.7.7.5.7,1.1,1.4,1.5-.1-.6.2-1.1.4-1.7s-.6-1.3-1.2-1.6c.6-.3,1,.2,1.3.6,1.1,1.2-.6,1.9,0,2.8s1,.7,1.2.3l-.8-1c-.2-.2.1-.4.2-.4.2,0,.6,1.2,2,.9s1.3-.7,1-1.4-1.6-.2-1.6.4l.8.2c-.2.4-.7.2-.9.2-1.1-.2,1-1.5.2-2.8h0c0-.1,0-.2,0-.2l-.2-.2c.1.1.2,0,.1-.1l.2.2s0,0,0,0,0,0,0,.1c.5.3.4,1,.6,1.5.4,0,1,0,1.2.2s.2.5.2.8Z"/>
  <path class="st4" d="M49.6,105.4l-.5-.2c-.6,1.7-2.3,1.8-2,2.8-.6-.2-.7-.8-.5-1.4.4-1.4,2.2-.9,1.8-2.8.1-.3.7-.1.9.1.3.4.3.9.3,1.4Z"/>
  <path class="st12" d="M55,86.8l-.8.4c-1.2.8-1.8,2.2-2.3,3.4-.2,0-.3,0-.5.3-.5.8-1.6,1.2-2.4.5s-.7-1.2-.7-1.7c.6,0,.4,1.4,1.6,1.4s.9-.2,1.2-.6l1.7-2.7c.4-.6,1.1-.8,1.7-1.1s.4.1.5.1Z"/>
  <path class="st4" d="M40.1,108c.6-1.4-1.6-1-1.7-3.6.2-.3.3-.5.5-.6s.5,0,.6,0c-.6,1.8,1.8,1.3,1.7,3.4s-.4.8-.9.8Z"/>
  <path class="st16" d="M47.7,103.3c-1.5-.2-2.8.6-4,.6s-2.4-.9-3.6-.7c1.5-1.2,3.3.6,4.9-.2.9-.2,1.9-.7,2.8.3Z"/>
  <path class="st5" d="M55.7,86.8c.3,0,.5.3.6.6-1.8-.7-3.7,2-3.7,2.8s0,.2.2.1c-.2.5-.5,1-.9,1.3-.2,0-.3,0-.3-.2,0-.3.2-.4.3-.8.5-1.3,1.1-2.6,2.3-3.4l.8-.4h.7Z"/>
  <path class="st1" d="M49.6,105.4c0,1.6-1.3,3.1-2.6,2.6-.3-1,1.4-1.1,2-2.8l.5.2Z"/>
  <path class="st7" d="M38.3,104.3c.1,2.6,2.3,2.2,1.7,3.6-1.6,0-2.4-2.5-1.7-3.6Z"/>
  <path class="st6" d="M57.6,79.3c.1.5,0,1-.2,1.5-.6.3-1.2.4-1.9.2s-.6-.5-.6-.9c.4,0,.6.4.7.7.3.2.5,0,.2-.3.2-.3.2-.8.5-.9.4-.2.8-.2,1.2-.2Z"/>
  <path class="st14" d="M46.6,82.1c0,.2-.3.2-.4.4.2-.9,0-1.9-.2-2.9,1,.6.7,1.7.7,2.5Z"/>
  <path class="st11" d="M43.5,78.8c-.4.1-.8-.2-.9-.6s0-1,.4-1.2c0,.7,0,1,.5,1.8Z"/>
  <path class="st7" d="M48.6,78c.3,0,.4-.3.4-.6.3,0,.4.2.4.3s-.3.8-.6.8-.3-.2-.3-.4h-.1c0,0-.1-.2-.1-.2h-.1c0-.1,0-.3,0-.3l.2.2h.1c0,0,0,.2,0,.2Z"/>
  <path class="st1" d="M47.8,79.4c.4,0,1,0,1.2-.5,0,.4-.2.6-.4.8s-.9.3-.8-.3Z"/>
  <rect class="st0" x="38.4" y="77.1" width=".1" height=".1" transform="translate(-43.3 49.8) rotate(-45)"/>
  <rect class="st7" x="44.6" y="78.4" width=".1" height=".1" transform="translate(-42.4 54.6) rotate(-45)"/>
  <path class="st18" d="M56.1,90.4v.7s0,.3,0,.3c0,0-.2-.1-.3,0l-.6.9c-.3,0-.6.1-.8.4-.3-.1-.7,0-1.1,0l-.6-.5c.3,0,.5,0,.8,0,1.3.2,2.2-1,2.2-2.2.2,0,.3.3.4.4Z"/>
  <path class="st6" d="M56.1,91.5c0,.9-.7,1.8-1.6,1.9s-1.1-.2-1.1-.6c.3,0,.8-.1,1.1,0s.3.1.5,0,.2-.3.2-.4l.6-.9c0,0,.2,0,.3,0Z"/>
  <path class="st17" d="M56.3,87.3c0,.2.3.6,0,.9s-.3.3-.4.5c0,.4.5.6.1.7l-1.2-.2c-.9-.2-1.9.3-2.2,1.1-.1,0-.2,0-.2-.1,0-.8,1.9-3.5,3.7-2.8Z"/>
  <path class="st0" d="M55.2,91.3c-.3.8-1.9.9-2.3.4s-.2-.7,0-1c.4.6,1,.8,1.4.7.7-.1.8-.8.7-1.6.5.3.3,1,.1,1.5Z"/>
  <path class="st0" d="M23.5,84c.6.5,1.6-.5,3.2.1l-.5,1.2c.8-.1,1.4-.3,2.1,0-.3.3-.3.5-.2.7s.3.1.4.3l.7.8,2.5.8-.2.5c-.4,0-.9.3-1.2.4.3-1-1.7-.9-3-2.1s-.5-1.1-1.2-1.2l-1.2.4c.2-.2.4-.4.4-.6s-.3-.2-.4-.3l-2.9-.4c-.2,0-.3,0-.3-.1s0-.2,0-.3l1.8-.4Z"/>
  <path class="st8" d="M74.6,102.1c-.4.8-.5,1.7-1.4,2.5.8-2.3,1.1-4.6.9-7l-.2-3.3c1.9,1.4,1.7,5.5.7,7.8Z"/>
  <path class="st7" d="M65.9,105.3c0,1.4-.4,2.2,0,2.3l-2,4.3c-.2,0-.5,0-.7-.2l2.2-5.9c.2-.5,0-1,.4-1.4v.9Z"/>
  <path class="st5" d="M67.8,100.3c-.4,2.5-1,4.9-1.9,7.2-.4,0,0-.9,0-2.3.2.1.3,0,.4,0v-.4c.5-1.4.9-2.7,1.1-4.2s.1-.3.2-.3.2,0,.3,0Z"/>
  <path class="st12" d="M38.1,94c0-.2,0-.3.1-.5,0,.2,0,.3-.1.5Z"/>
  <path class="st16" d="M55.4,83.9c.1.1.2,0,.1-.1l.2.2c-.1-.1-.2,0-.1.1l-.2-.2Z"/>
  <path class="st10" d="M55.2,92.3c0,.1,0,.3-.2.4s-.3,0-.5,0c.2-.3.5-.4.8-.4Z"/>
</svg>