<?xml version="1.0" encoding="UTF-8"?>
<svg id="Capa_2" xmlns="http://www.w3.org/2000/svg" version="1.1" xmlns:xlink="http://www.w3.org/1999/xlink" viewBox="0 0 450.2 450">
  <!-- Generator: Adobe Illustrator 30.3.0, SVG Export Plug-In . SVG Version: 2.1.3 Build 157)  -->
  <defs>
    <style>
      .st0 {
        fill: #000003;
      }

      .st0, .st1, .st2 {
        fill-rule: evenodd;
      }

      .st3, .st4 {
        fill: #fff;
      }

      .st5 {
        stroke: #ec5f42;
      }

      .st5, .st6, .st7, .st8 {
        fill: none;
      }

      .st5, .st7, .st8 {
        stroke-miterlimit: 10;
        stroke-width: 3px;
      }

      .st4 {
        font-family: Bicyclette-Regular, Bicyclette;
        font-size: 37.9px;
      }

      .st4, .st9 {
        isolation: isolate;
      }

      .st7 {
        stroke: #ea5d40;
      }

      .st1, .st10 {
        fill: #ec5f42;
      }

      .st8 {
        stroke: #ce870f;
      }

      .st11 {
        fill: #cd860e;
      }

      .st2 {
        fill: #f5b4cd;
      }

      .st12 {
        clip-path: url(#clippath);
      }
    </style>
    <clipPath id="clippath">
      <rect class="st6" x="144.3" y="151.2" width="163.4" height="92.5"/>
    </clipPath>
  </defs>
  <g id="Layer_1">
    <g>
      <g>
        <path class="st1" d="M219,.2c-1.3,0-4.7.2-7.6.4-2.8.2-7,.5-9.3.7-2.3.2-6.4.7-9.3,1.2-2.8.4-8,1.3-11.6,2-3.6.7-9.1,2-12.4,2.8-3.3.8-8.5,2.3-11.6,3.3-3.1,1-7.6,2.5-10,3.4-2.4.9-6.3,2.4-8.6,3.4-2.3.9-6.3,2.7-8.9,3.9s-6.3,3-8.3,4c-2,1-5.5,3-7.8,4.3-2.3,1.3-5.9,3.5-8,4.8-2,1.3-5.2,3.3-7,4.6-1.8,1.2-5.7,4-8.7,6.3-3,2.2-6.8,5.2-8.6,6.7s-4.1,3.5-5.3,4.5-3.9,3.6-6.1,5.7c-2.2,2-5.7,5.5-7.7,7.7-2,2.2-4.3,4.6-5,5.4-.7.8-1.3,1.5-1.4,1.6,0,0-1.5,1.8-3.2,3.7s-4.3,5.2-5.9,7.3c-1.6,2-3.8,4.9-4.8,6.4-1.1,1.5-3.5,5.1-5.4,8s-4.8,7.5-6.4,10.3c-1.6,2.8-4.3,7.8-6,11.1-1.7,3.4-4,8.1-5,10.4-1,2.4-2.7,6.3-3.7,8.8-1,2.5-2.6,6.9-3.6,9.7-1,2.8-2.4,7.3-3.2,10-.8,2.7-1.8,6.7-2.4,8.9-.5,2.2-1.5,6.6-2.1,9.7-.6,3.1-1.5,8.4-2,11.7s-1.1,8-1.3,10.4c-.2,2.4-.6,6.6-.7,9.3-.2,2.7-.3,8.4-.3,12.7s.1,10,.3,12.7.5,6.8.7,9.3c.2,2.4.8,7.1,1.3,10.4s1.4,8.5,2,11.7c.6,3.1,1.6,7.5,2.1,9.7.6,2.2,1.6,6.2,2.4,8.9.8,2.7,2.2,7.1,3.2,10,1,2.8,2.6,7.2,3.6,9.7,1,2.5,2.7,6.5,3.7,8.8,1,2.3,3.3,7,5,10.4,1.7,3.4,4.4,8.4,6,11.1,1.6,2.7,4.5,7.4,6.4,10.3,1.9,2.9,4.4,6.5,5.4,8,1.1,1.5,3.2,4.4,4.8,6.4,1.6,2,4.2,5.3,5.9,7.3,1.7,2,3.5,4.1,4.2,4.8.6.7,2,2.2,3.1,3.4,1.1,1.2,2.8,3,3.7,4,.9,1,3.6,3.6,6,5.9,2.4,2.2,5.3,4.9,6.4,5.9s3.6,3.1,5.3,4.5c1.7,1.4,5.6,4.5,8.6,6.7,3,2.2,6.9,5.1,8.7,6.3,1.8,1.2,4.9,3.3,7,4.5,2.1,1.3,5.7,3.4,8,4.8,2.4,1.4,6,3.4,8.1,4.5,2.1,1.1,6.4,3.1,9.4,4.6,3.1,1.4,7.7,3.4,10.3,4.4,2.6,1,6.2,2.4,8,3,1.8.6,5.5,1.9,8.3,2.8,2.7.9,7.7,2.3,11,3.1,3.3.9,8.6,2,11.7,2.7,3.1.6,7.8,1.5,10.3,1.8,2.5.4,6.4.9,8.6,1.1,2.2.2,5.5.6,7.3.7,1.8.2,6.6.4,10.7.6,5.1.2,9.8.2,15.1,0,4.2-.2,9.8-.5,12.4-.7,2.6-.2,6.3-.6,8.3-.9,1.9-.2,6.1-.9,9.3-1.4,3.1-.5,8.3-1.5,11.6-2.2s8.4-2,11.4-2.8c3.1-.9,7.9-2.4,10.8-3.3,2.9-1,7.7-2.7,10.6-3.9,2.9-1.1,7-2.9,9.1-3.8,2.1-.9,6.4-3,9.4-4.5,3.1-1.5,6.7-3.4,8.1-4.2,1.4-.8,4.3-2.5,6.4-3.7,2.1-1.3,6.2-3.9,9.1-5.8,2.9-1.9,7.1-4.9,9.4-6.6,2.3-1.7,5.7-4.4,7.7-6,2-1.6,5.1-4.2,7-5.9,1.9-1.7,4.7-4.2,6.2-5.7,1.6-1.5,3.6-3.4,4.4-4.3.9-.9,2.8-2.8,4.2-4.3,1.4-1.5,3.7-3.9,5-5.4,1.3-1.5,3.7-4.2,5.1-6,1.5-1.8,3.6-4.4,4.7-5.9,1.1-1.4,3-4,4.3-5.7,1.3-1.7,3.6-5.1,5.1-7.4,1.6-2.3,4.2-6.5,5.9-9.3,1.6-2.8,4.1-7,5.4-9.4,1.3-2.4,3.3-6.3,4.4-8.6,1.1-2.3,2.8-6,3.8-8.3,1-2.3,2.5-6,3.4-8.3.9-2.3,2.2-5.9,2.9-8s1.9-5.7,2.6-8c.7-2.3,1.8-6.4,2.5-9.1.7-2.7,1.8-7.5,2.4-10.5s1.5-8.1,2-11.3c.5-3.1,1.1-8.3,1.5-11.5.3-3.2.7-8.4.9-11.4.2-3.1.3-7.9.3-10.8s-.1-7.8-.3-10.8c-.2-3.1-.6-8.2-.9-11.4-.3-3.2-.9-8-1.3-10.7-.4-2.7-1.2-7.2-1.7-10-.5-2.8-1.6-7.5-2.2-10.3-.7-2.8-1.7-6.7-2.3-8.7-.6-2-1.6-5.4-2.3-7.6-.7-2.2-2.1-6.2-3.1-9-1-2.7-2.8-7.2-3.9-9.8-1.1-2.7-3-6.7-4-9-1.1-2.3-3-6.1-4.4-8.6-1.3-2.4-3.7-6.7-5.4-9.4-1.7-2.7-4.3-6.9-5.9-9.3-1.6-2.4-3.9-5.7-5.1-7.4-1.2-1.7-3.2-4.3-4.3-5.7-1.1-1.4-3.2-4.1-4.7-5.8-1.5-1.8-3.8-4.5-5.1-6-1.4-1.5-3.6-3.9-5-5.4-1.4-1.5-3.3-3.5-4.3-4.4-.9-.9-2.9-2.8-4.4-4.3-1.5-1.4-4.2-3.9-6.1-5.6-1.9-1.7-5-4.3-7-5.9-2-1.6-5.4-4.3-7.7-6-2.3-1.7-6.5-4.7-9.4-6.6-2.9-1.9-7-4.5-9.1-5.8-2.1-1.2-5-2.9-6.4-3.7-1.4-.8-5-2.6-7.9-4.1s-7.1-3.4-9.3-4.4c-2.2-1-6.4-2.8-9.4-3.9-3-1.2-7.8-2.9-10.7-3.9-2.9-.9-7.8-2.4-10.8-3.3-3.1-.8-8.1-2.1-11.3-2.8-3.1-.7-8-1.7-10.7-2.1-2.7-.5-7-1.1-9.4-1.4-2.4-.3-6.5-.8-9.1-1-2.6-.2-8-.6-12-.7C229,.1,224.8,0,223.6,0c-1.2,0-3.2,0-4.6.1h0Z"/>
        <path class="st0" d="M215.2,8.5c-2.8.1-7.2.4-10,.7-2.7.2-7.6.8-10.9,1.3-3.3.5-8.5,1.4-11.7,2-3.2.6-8.1,1.7-10.9,2.4-2.8.7-7.6,2.1-10.6,3-3,.9-7.7,2.5-10.4,3.5-2.7,1-7.4,2.9-10.3,4.1-2.9,1.2-7.7,3.4-10.7,4.9-3,1.5-6.8,3.5-8.6,4.4-1.7,1-4.9,2.8-7,4-2.1,1.3-6.4,4-9.4,6-3.1,2-7.6,5.2-10,7.1s-6.2,4.8-8.3,6.6c-2.1,1.8-5.6,4.8-7.8,6.8-2.2,2-5.8,5.6-8.1,7.9-2.3,2.3-5.2,5.5-6.6,6.9-1.3,1.5-3.9,4.4-5.7,6.6-1.8,2.1-4.7,5.8-6.4,8.1-1.8,2.3-4.7,6.5-6.5,9.1-1.8,2.7-4.6,7-6.1,9.5-1.6,2.6-3.8,6.4-4.9,8.4-1.1,2-2.6,5-3.4,6.6-.8,1.6-2.4,4.9-3.5,7.4-1.1,2.5-3,6.8-4,9.4-1.1,2.7-2.7,7-3.5,9.6-.9,2.6-2.2,6.6-2.9,9-.7,2.3-1.8,6.3-2.4,8.8-.6,2.5-1.5,6.1-1.9,8-.4,1.9-1,5.4-1.5,7.9-.4,2.4-1,6.3-1.3,8.6-.3,2.3-.8,6.4-1,9.3-.4,4.1-.5,7.9-.5,18.7s0,14.6.5,18.7c.3,2.8.7,7,1,9.3.3,2.3.9,6.1,1.3,8.6.4,2.4,1.1,6,1.5,7.9.4,1.9,1.2,5.5,1.9,8,.6,2.5,1.7,6.5,2.4,8.8.7,2.4,2,6.4,2.9,9,.9,2.6,2.5,6.8,3.5,9.4,1,2.6,2.8,6.8,4,9.4,1.2,2.6,2.8,6,3.6,7.6.8,1.6,2.3,4.5,3.4,6.5,1.1,2,3.3,5.8,4.9,8.4,1.5,2.6,4.3,6.9,6.1,9.5,1.8,2.7,4.7,6.8,6.5,9.1,1.8,2.4,4.7,6,6.4,8.1,1.8,2.1,4.3,5.1,5.7,6.5s4.3,4.6,6.6,7c2.3,2.3,5.9,5.9,8.1,7.9,2.2,2,5.7,5.1,7.8,6.9,2.1,1.8,5.8,4.7,8.3,6.5s6.9,5,10,7c3.1,2,7.3,4.8,9.4,6,2.1,1.3,5.3,3.1,7,4,1.7.9,5.6,2.9,8.6,4.4,3,1.5,7.8,3.7,10.7,4.9,2.9,1.2,7.5,3.1,10.3,4.1,2.8,1,7.4,2.6,10.4,3.5,3,.9,8,2.3,11.1,3.1,3.1.8,8,1.9,10.9,2.5s7.8,1.4,11.1,1.9c3.3.5,8.1,1,10.7,1.3,2.6.2,7.9.6,11.7.8,3.9.2,9.6.2,12.9.1,3.2,0,7.8-.3,10.1-.5,2.4-.2,6.1-.5,8.3-.7,2.2-.2,5.9-.7,8.1-1,2.3-.3,6.2-1,8.7-1.4,2.5-.5,6.5-1.3,8.8-1.8s6.2-1.5,8.6-2.1c2.3-.6,6.8-2,10-3,3.1-1,7.9-2.7,10.6-3.7,2.7-1,7.2-2.9,10.1-4.2,2.9-1.3,6.8-3.1,8.5-4,1.8-.9,4.8-2.5,6.7-3.5,1.9-1,5.4-3.1,7.9-4.5s6.7-4.1,9.4-6c2.8-1.8,7.2-5,9.9-7,2.7-2,6.5-5.1,8.5-6.8,2-1.7,5.2-4.4,7-6.1,1.8-1.6,5.5-5.2,8.1-7.9,2.7-2.7,6.3-6.6,8.1-8.6s4.4-5.1,5.8-6.8c1.4-1.7,4.2-5.3,6.2-8,2-2.7,4.6-6.4,5.9-8.3,1.3-1.9,3.5-5.3,4.9-7.5,1.4-2.3,3.5-5.9,4.7-8,1.2-2.1,3.2-6,4.5-8.5,1.3-2.6,3.2-6.5,4.1-8.7,1-2.2,2.6-6.2,3.7-8.9,1.1-2.7,2.9-7.7,4-11.1,1.1-3.5,2.7-8.7,3.5-11.7.8-3,1.9-7.5,2.5-10.1.6-2.6,1.5-7.3,2-10.4.5-3.1,1.2-7.9,1.5-10.7.3-2.7.7-6.9.9-9.3.2-2.6.4-8.8.4-15.8s-.1-13.2-.4-15.8c-.2-2.4-.6-6.5-.9-9.3-.3-2.8-1-7.2-1.4-10-.5-2.7-1.2-6.9-1.7-9.3-.5-2.3-1.5-6.7-2.3-9.8-.8-3-2.1-7.8-3-10.6-.9-2.8-2.4-7.2-3.3-9.8-1-2.6-2.8-7.1-4-10.1-1.3-3-3.5-7.9-5.1-11s-3.8-7.4-5-9.6c-1.2-2.2-3.4-5.9-4.8-8.1-1.4-2.3-3.6-5.7-4.9-7.6-1.3-1.9-3.9-5.6-5.9-8.3-2-2.7-4.8-6.3-6.2-8-1.4-1.7-4-4.8-5.8-6.8-1.8-2-5.4-5.9-8.1-8.6-2.7-2.7-6.3-6.2-8.1-7.8-1.8-1.6-5-4.4-7-6.1-2-1.7-5.7-4.6-8.1-6.4s-6-4.4-8-5.8-5-3.3-6.7-4.5c-1.7-1.1-5.1-3.1-7.4-4.5-2.4-1.4-6.5-3.6-9.1-5-2.7-1.4-7.1-3.5-9.9-4.8-2.8-1.3-7.1-3.1-9.7-4.1-2.6-1-7-2.7-9.9-3.6-2.8-1-7.1-2.3-9.6-3s-6.2-1.7-8.3-2.2c-2.1-.5-6.4-1.5-9.6-2.1s-7.4-1.4-9.6-1.7c-2.1-.3-5.6-.8-7.7-1-2.1-.2-6.2-.6-9.1-.9-2.9-.2-8.8-.5-13.1-.5-4.3,0-10.1,0-12.8.1h0Z"/>
        <path class="st1" d="M215.1,64.4c-2,.1-5.5.4-7.7.7-2.2.2-6,.8-8.4,1.2-2.4.4-6.4,1.2-8.8,1.7s-6.2,1.5-8.4,2.1-5.9,1.8-8.1,2.5c-2.3.8-6.2,2.2-8.7,3.2-2.5,1-7.2,3.1-10.4,4.7-3.2,1.6-7.6,3.9-9.7,5.1-2.1,1.2-5.5,3.3-7.6,4.7l-3.7,2.5,7.1.2c6.4-3.9,10.7-6.2,13.7-7.7,3-1.5,7.3-3.6,9.6-4.5,2.3-1,5.6-2.3,7.4-2.9,1.8-.7,4.9-1.7,6.8-2.3,2-.6,5.5-1.6,7.9-2.2s6.2-1.5,8.6-2,6.1-1.1,8.4-1.4c2.3-.3,5.7-.7,7.7-.9,2.3-.2,7.5-.4,14.4-.4s12.1.1,14.3.4c1.9.2,5.3.6,7.6.9,2.3.3,6.1.9,8.4,1.4,2.4.5,6.3,1.3,8.7,2,2.4.6,6.5,1.8,9,2.6,2.5.8,6.7,2.3,9.3,3.3,2.6,1,6.6,2.7,8.8,3.8,2.3,1,5.7,2.8,7.7,3.8,2,1.1,5.1,2.9,7.1,4l3.5,2.1,7.3-.2c-6.2-4-9.6-6.1-11.5-7.3-2-1.1-6.3-3.4-9.6-5-3.3-1.6-7.9-3.7-10.3-4.7-2.4-.9-6.2-2.4-8.6-3.2-2.3-.8-6.3-2-8.8-2.7-2.5-.7-6.4-1.6-8.6-2.1-2.2-.5-5.5-1.1-7.3-1.4-1.8-.3-5.5-.8-8.1-1.1-2.7-.3-7-.7-9.7-.9-2.7-.2-7.2-.3-10.1-.2-2.9,0-7,.1-9,.3h0Z"/>
        <path class="st1" d="M108.2,114.5c-1.6,1.7-4.3,4.7-5.9,6.5-1.6,1.9-4.3,5.3-6,7.6-1.7,2.3-4.2,5.8-5.6,7.9-1.3,2-3.5,5.5-4.8,7.7-1.3,2.2-3.7,6.8-5.4,10.3-1.7,3.5-3.7,7.9-4.5,9.8-.8,2-2,5.2-2.7,7.2-.7,2-2,6-2.9,9-.8,2.9-1.9,7.1-2.4,9.3-.5,2.2-1.2,5.9-1.6,8.1-.4,2.3-1,6.4-1.3,9.1-.3,2.7-.7,7.9-.9,11.4-.2,4.5-.2,8.4,0,13.1.2,3.7.6,8.8.8,11.4.3,2.6.8,6.4,1.2,8.4.3,2.1,1.1,5.8,1.6,8.3.5,2.5,1.7,7,2.5,9.9.8,3,2.1,7,2.9,9,.7,2,1.9,5.3,2.7,7.2.8,1.9,2.8,6.4,4.5,9.8,1.7,3.5,4.1,8.1,5.4,10.3,1.3,2.2,3.5,5.7,4.8,7.7,1.3,2,3.8,5.6,5.6,7.9,1.7,2.3,4.5,5.8,6.2,7.7,1.7,2,5,5.6,7.4,8.1,2.4,2.5,5.8,5.8,7.6,7.3,1.7,1.5,4.2,3.6,5.4,4.7,1.2,1,3.8,3.1,5.7,4.5,1.9,1.4,5.4,3.9,7.9,5.5,2.4,1.6,6.3,4,8.6,5.3,2.3,1.3,6.8,3.7,10.1,5.3s8.1,3.8,10.7,4.8c2.6,1,6.3,2.4,8.3,3,2,.7,5.4,1.7,7.6,2.3,2.2.6,6,1.6,8.4,2.1,2.4.5,6,1.2,8,1.6,2,.3,3.9.6,4.4.7.4,0,.8,0,.7-.1,0-.1-1.8-1.4-3.9-2.7l-3.9-2.5c-6.6-1.5-10.2-2.4-12.1-2.9-2-.5-5.4-1.6-7.6-2.3-2.2-.7-5.4-1.9-7.1-2.5-1.7-.7-4.9-2-7.1-3-2.2-1-5.9-2.8-8.3-4-2.4-1.2-5.8-3.1-7.6-4.2s-5-3.1-7.1-4.5c-2.1-1.4-5.3-3.7-7.1-5-1.8-1.4-4.5-3.5-6-4.7-1.5-1.2-4.4-3.8-6.5-5.7s-5.5-5.3-7.6-7.5c-2.1-2.2-5-5.5-6.5-7.3-1.5-1.8-3.9-4.9-5.4-6.8-1.5-2-3.6-4.9-4.7-6.6-1.1-1.6-2.9-4.4-3.9-6.1-1.1-1.7-2.9-4.9-4.1-7.1-1.2-2.2-3.2-6.2-4.4-9-1.3-2.7-3.1-7.2-4.1-10-1-2.8-2.3-6.5-2.9-8.4-.6-1.9-1.5-5.4-2.1-7.7-.6-2.4-1.5-6.3-2-8.7-.5-2.4-1-5.8-1.3-7.6-.2-1.7-.6-4.4-.7-5.9-.2-1.5-.4-4.6-.6-7-.2-2.4-.3-6.6-.3-9.4s.1-7.2.3-9.7c.2-2.5.5-6.2.7-8.3.2-2,.7-5.3,1-7.1.3-1.9,1-5.3,1.4-7.6.5-2.3,1.4-6.1,2-8.4.7-2.4,1.9-6.4,2.8-9,.9-2.6,2.2-6.4,3.1-8.4.8-2,2.3-5.4,3.3-7.6,1-2.1,2.7-5.6,3.9-7.8,1.2-2.2,3-5.4,4.1-7.1,1-1.7,2.8-4.5,3.9-6.1,1.1-1.7,3.2-4.6,4.7-6.6,1.5-2,3.9-5,5.4-6.8,1.5-1.8,3.6-4.2,4.7-5.3l1.9-2v-5.9c-.1,0-3.1,3.1-3.1,3.1h0ZM338.9,114.4v2.9c3.5,3.8,5.5,6.1,6.8,7.6,1.3,1.5,3.5,4.4,5,6.3,1.4,1.9,3.6,5,4.8,6.8,1.2,1.8,3,4.6,3.9,6.1,1,1.6,2.8,4.8,4,7.1,1.3,2.3,3.2,6.1,4.2,8.4,1,2.3,2.5,5.7,3.3,7.7.8,2,2.1,5.6,3,8.1.8,2.5,1.9,6.1,2.4,7.9s1.2,4.9,1.7,6.8c.5,2,1.1,5.4,1.5,7.7.4,2.3,1,6.4,1.3,9.1.3,2.7.7,7.9.9,11.4.2,4.8.2,8.1,0,13-.2,3.6-.6,8.8-.9,11.6-.3,2.8-.9,6.9-1.3,9.1-.4,2.3-1.1,5.8-1.5,7.7-.5,2-1.2,5-1.7,6.8-.5,1.8-1.6,5.3-2.4,7.9-.9,2.5-2.2,6.2-3,8.1-.8,2-2.3,5.4-3.3,7.7s-3,6.2-4.4,8.7c-1.4,2.5-3.3,5.9-4.3,7.6-1,1.7-2.7,4.3-3.8,5.9-1.1,1.6-3.1,4.4-4.5,6.3-1.4,1.9-3.9,5-5.5,7-1.6,1.9-5.9,6.5-9.4,10-3.5,3.5-7.9,7.6-9.7,9.1-1.8,1.5-4.9,3.9-6.8,5.4s-5.4,3.9-7.7,5.4c-2.3,1.5-6.2,3.9-8.7,5.4-2.5,1.4-6.5,3.6-8.8,4.7-2.4,1.1-6.3,3-8.9,4-2.5,1.1-7.2,2.8-10.4,3.9-3.2,1.1-8.2,2.5-11,3.2-2.8.7-5.8,1.4-6.7,1.6-1.1.2-2.5.9-5.1,2.6-2,1.2-3.8,2.5-4.1,2.7-.3.2-.5.5-.4.6s2.2-.2,4.7-.7c2.5-.4,6.1-1.1,8-1.5,1.9-.4,5.5-1.3,8-2,2.5-.7,6.5-1.9,8.8-2.7,2.4-.8,6.2-2.2,8.6-3.2,2.4-1,7-3,10.3-4.7,3.3-1.6,7.6-3.9,9.6-5,2-1.1,5.6-3.4,8.1-5.1,2.5-1.7,6.1-4.2,8-5.6,1.9-1.4,4.9-3.8,6.7-5.3,1.8-1.5,5-4.3,7.1-6.3,2.1-2,5.5-5.3,7.4-7.4,2-2.1,4.8-5.4,6.4-7.3,1.6-1.9,4-5,5.4-6.9,1.4-1.9,3.6-5,4.9-7,1.3-2,3.3-5.1,4.4-7,1.1-1.9,3.4-6,5-9.3,1.6-3.2,3.8-7.9,4.9-10.4,1-2.5,2.5-6.3,3.3-8.5.8-2.1,2-5.9,2.7-8.3.7-2.4,1.6-6,2.1-7.9.5-2,1.2-5.3,1.6-7.4.4-2.1,1-5.7,1.3-8,.3-2.3.7-5.8.9-7.9.2-2.3.4-7.7.4-14.1s-.1-11.8-.4-14.1c-.2-2-.6-5.6-.9-7.9-.3-2.3-.9-5.9-1.3-8-.4-2.1-1.3-6.1-2-8.9-.7-2.7-1.8-6.7-2.5-8.8-.6-2.1-1.8-5.6-2.6-7.7-.8-2.1-2.2-5.6-3.1-7.8-.9-2.2-3-6.5-4.5-9.6s-3.8-7.1-4.9-9c-1.1-1.9-3.1-5-4.4-7-1.3-2-3.5-5.1-4.9-7-1.4-1.9-3.8-5-5.4-6.9-1.6-1.9-4.4-5.1-6.3-7.2-1.9-2.1-3.5-3.8-3.6-3.8s-.1,1.3-.1,2.9h0Z"/>
        <path class="st2" d="M108.9,62.5c-.6,2.8-1.2,5.2-1.3,5.4-.1.2-2.3.8-4.9,1.4-2.6.6-4.9,1.1-5.2,1.2-.3,0-.5.2-.5.4,0,.1,2.3.7,5.1,1.3s5.2,1.3,5.4,1.4c.2.2.8,2.6,1.4,5.4.6,2.8,1.2,5,1.4,5,.2,0,.8-2.4,1.4-5.2.6-2.8,1.2-5.2,1.3-5.3.1,0,2.6-.7,5.4-1.3,2.8-.6,5.2-1.2,5.2-1.3,0-.1-.2-.3-.5-.3-.3,0-2.7-.6-5.4-1.2l-4.9-1.1c-1.6-7.5-2.2-9.9-2.2-10.2s-.2-.5-.4-.5-.7,2.3-1.3,5.1h0ZM338.5,62.6c-.6,2.9-1.2,5.3-1.3,5.4,0,.1-2.3.7-4.9,1.2-2.6.6-4.9,1.1-5.2,1.2-.3,0-.5.2-.5.4,0,.1,2.3.7,5.1,1.3,2.8.6,5.2,1.2,5.4,1.3.2.1.8,2.5,1.4,5.4.6,2.8,1.3,5.1,1.4,5.1s.8-2.4,1.4-5.2c.6-2.8,1.2-5.2,1.3-5.3.1,0,2.6-.7,5.4-1.3,2.9-.6,5.2-1.2,5.2-1.3s-.3-.3-.6-.4c-.3,0-2.7-.6-5.2-1.2-2.5-.6-4.6-1.1-4.8-1.2-.1-.1-.6-2.1-1.1-4.3-.5-2.3-1-4.6-1.2-5.2-.1-.6-.4-1.1-.5-1.1s-.7,2.3-1.3,5.2h0Z"/>
      </g>
      <path class="st2" d="M223.7,25.8c-.6,2.9-1.2,5.3-1.3,5.4,0,.1-2.3.7-4.9,1.2-2.6.6-4.9,1.1-5.2,1.2-.3,0-.5.2-.5.4,0,.1,2.3.7,5.1,1.3,2.8.6,5.2,1.2,5.4,1.3.2.1.8,2.5,1.4,5.4.6,2.8,1.3,5.1,1.4,5.1s.8-2.4,1.4-5.2c.6-2.8,1.2-5.2,1.3-5.3.1,0,2.6-.7,5.4-1.3,2.9-.6,5.2-1.2,5.2-1.3s-.3-.3-.6-.4c-.3,0-2.7-.6-5.2-1.2-2.5-.6-4.6-1.1-4.8-1.2-.1-.1-.6-2-1.1-4.3-.5-2.3-1-4.6-1.2-5.2-.1-.6-.4-1.1-.5-1.1s-.7,2.3-1.3,5.2h0Z"/>
      <g class="st12">
        <g>
          <polygon class="st11" points="177.5 152.3 161 165 200.2 165 196.3 212.9 226.1 176.3 256.9 212.9 252.2 165 291 165 275.5 151.2 177.5 152.3"/>
          <path class="st11" d="M226.5,172.8c-19.4,0-35.2-15.8-35.2-35.2s15.8-35.2,35.2-35.2,35.2,15.8,35.2,35.2-15.8,35.2-35.2,35.2h0ZM226.5,105.9c-17.5,0-31.7,14.2-31.7,31.7s14.2,31.7,31.7,31.7,31.7-14.2,31.7-31.7-14.2-31.7-31.7-31.7Z"/>
          <path class="st11" d="M226.5,191.3c-29.6,0-53.7-24.1-53.7-53.7s24.1-53.7,53.7-53.7,53.7,24.1,53.7,53.7-24.1,53.7-53.7,53.7ZM226.5,86.3c-28.3,0-51.4,23-51.4,51.4s23,51.4,51.4,51.4,51.4-23,51.4-51.4-23-51.4-51.4-51.4Z"/>
          <path class="st11" d="M226.5,196.4c-32.4,0-58.8-26.4-58.8-58.8s26.4-58.8,58.8-58.8,58.8,26.4,58.8,58.8-26.4,58.8-58.8,58.8ZM226.5,81.1c-31.1,0-56.5,25.3-56.5,56.5s25.3,56.5,56.5,56.5,56.5-25.3,56.5-56.5-25.3-56.5-56.5-56.5Z"/>
          <path class="st11" d="M226,237l-13.3-38.2c-6.4-1.4-12.6-3.9-18.3-7.3l-35.9,16.1,16.6-34c-7.4-10.6-11.3-22.9-11.3-35.9,0-34.5,28.1-62.6,62.6-62.6s62.6,28.1,62.6,62.6-3.9,25.4-11.4,35.9l17.7,35.2-36.3-17.6c-6.1,3.7-12.7,6.4-19.8,7.9l-13.4,38.1h0ZM215.6,199.8l10.4,30.1,11-31.2-4-.9,5.3-1.1c7.8-1.5,15-4.6,21.6-8.9l3.4-2.2-1.8,4,28.9,14-14.4-28.7-3,1.4,2.6-3.6c7.4-10.3,11.3-22.5,11.3-35.2,0-33.2-27-60.3-60.3-60.3s-60.3,27.1-60.3,60.3,3.9,24.8,11.3,35.1l3.2,4.5-3.7-2.2-13.6,27.8,29.6-13.2-1.3-2.5,3.4,2.1c6.7,4.1,14,6.8,21.7,8l4.9.8-6.2,1.9h0Z"/>
          <path class="st11" d="M169.4,200.9c14.3,12.9,32.9,21.1,53.5,21.9l-.4-1.2c-19.9-1-37.9-8.9-51.9-21.3l-1.2.5h0Z"/>
          <path class="st11" d="M173.5,199c13,11.2,29.6,18.4,47.7,19.6l-.4-1.2c-17.5-1.2-33.5-8.1-46.1-18.9l-1.2.5h0Z"/>
          <path class="st11" d="M177.9,197.1c11.6,9.5,26,15.6,41.7,17l-.4-1.2c-15.1-1.4-28.9-7.3-40.1-16.4l-1.2.5h0Z"/>
          <path class="st11" d="M182.2,195.2c10.2,7.9,22.5,13.1,36,14.6l-.4-1.2c-12.8-1.6-24.6-6.5-34.3-14l-1.2.5h0Z"/>
          <path class="st11" d="M185.9,193.6c8.9,6.5,19.4,10.9,30.9,12.5l-.4-1.2c-10.8-1.6-20.7-5.8-29.2-11.8l-1.2.5h0Z"/>
          <path class="st11" d="M189.7,191.9c7.6,5.2,16.3,8.8,25.7,10.4l-.4-1.2c-8.7-1.6-16.9-4.9-24-9.7l-1.3.6h0Z"/>
          <g>
            <path class="st11" d="M310.6,137.6c0,22.5-8.9,42.9-23.3,58l.5,1.1c14.8-15.3,23.9-36.2,23.9-59.1,0-47-38.3-85.3-85.3-85.3s-85.3,38.3-85.3,85.3,9.2,44.1,24.2,59.4l.5-1.1c-14.6-15.1-23.6-35.7-23.6-58.3,0-46.4,37.7-84.1,84.1-84.1s84.1,37.7,84.1,84.1h0Z"/>
            <path class="st11" d="M282.1,200.7c-14.1,12.4-32.3,20.2-52.4,21l-.4,1.2c20.7-.7,39.5-8.8,53.9-21.6l-1.1-.5h0Z"/>
          </g>
          <g>
            <path class="st11" d="M306.5,137.6c0,20.8-8,39.8-21.1,54l.5,1.1c13.4-14.5,21.7-33.8,21.7-55.1,0-44.7-36.4-81.1-81.1-81.1s-81.1,36.4-81.1,81.1,8.4,40.9,21.9,55.4l.5-1.1c-13.2-14.3-21.3-33.4-21.3-54.3,0-44.1,35.9-80,80-80s80,35.9,80,80h0Z"/>
            <path class="st11" d="M278,198.8c-12.8,10.8-29,17.6-46.7,18.7l-.4,1.2c18.4-1,35.2-8.1,48.3-19.4l-1.2-.5Z"/>
          </g>
          <g>
            <path class="st11" d="M302.1,137.6c0,19.1-7.1,36.5-18.8,49.8l.5,1.1c12-13.6,19.4-31.4,19.4-50.9,0-42.3-34.5-76.8-76.8-76.8s-76.8,34.5-76.8,76.8,7.4,37.6,19.6,51.2l.5-1.1c-11.8-13.4-19-30.9-19-50.1,0-41.7,33.9-75.7,75.7-75.7s75.7,33.9,75.7,75.7h0Z"/>
            <path class="st11" d="M273.6,196.7c-11.4,9.1-25.4,15-40.7,16.3l-.4,1.2c16-1.2,30.6-7.4,42.3-16.9l-1.2-.6Z"/>
          </g>
          <g>
            <path class="st11" d="M298.1,137.6c0,17.4-6.2,33.4-16.6,45.8l.5,1.1c10.7-12.7,17.2-29.1,17.2-46.9,0-40.1-32.6-72.7-72.7-72.7s-72.7,32.6-72.7,72.7,6.6,34.5,17.5,47.2l.5-1.1c-10.5-12.5-16.8-28.5-16.8-46.1,0-39.5,32.1-71.6,71.6-71.6s71.6,32.1,71.6,71.6h0Z"/>
            <path class="st11" d="M269.5,194.8c-10,7.5-22,12.5-35,14l-.4,1.2c13.7-1.4,26.3-6.6,36.7-14.6l-1.2-.6h0Z"/>
          </g>
          <g>
            <path class="st11" d="M294.5,137.6c0,16-5.5,30.6-14.8,42.2l.6,1.1c9.6-11.9,15.4-27,15.4-43.4,0-38.1-31-69.2-69.1-69.2s-69.1,31-69.1,69.2,5.8,31.7,15.6,43.6l.6-1.2c-9.4-11.6-15-26.4-15-42.5,0-37.5,30.5-68,68-68s68,30.5,68,68h0Z"/>
            <path class="st11" d="M265.8,193.1c-8.7,6.2-18.9,10.4-29.9,11.9l-.4,1.2c11.7-1.5,22.5-5.9,31.6-12.6l-1.2-.6Z"/>
          </g>
          <g>
            <path class="st11" d="M262,191.3c-7.4,4.9-15.8,8.3-24.8,9.8l-.5,1.2c9.7-1.5,18.7-5.2,26.5-10.5l-1.2-.6h0Z"/>
            <path class="st11" d="M290.9,137.6c0,14.5-4.8,27.9-13,38.7l.6,1.2c8.5-11.1,13.5-24.9,13.5-39.8,0-36.2-29.4-65.6-65.6-65.6s-65.6,29.4-65.6,65.6,5.1,29,13.7,40.1l.6-1.2c-8.2-10.8-13.1-24.3-13.1-38.9,0-35.5,28.9-64.4,64.4-64.4s64.4,28.9,64.4,64.4h0Z"/>
          </g>
          <g>
            <line class="st6" x1="161" y1="205.4" x2="203.6" y2="161.6"/>
            <rect class="st11" x="151.8" y="182.5" width="61" height="2" transform="translate(-76.3 186.2) rotate(-45.8)"/>
          </g>
          <rect class="st11" x="225.1" y="170.1" width="2" height="60.5"/>
          <g>
            <line class="st6" x1="291" y1="204.6" x2="250.4" y2="163.3"/>
            <rect class="st11" x="269.7" y="155" width="2" height="57.9" transform="translate(-51.3 242.6) rotate(-44.5)"/>
          </g>
        </g>
      </g>
      <path class="st7" d="M148.2,269.5s31.7-18.3,77.7-18.3,77.8,18.3,77.8,18.3"/>
      <path class="st10" d="M175,309.9s26.4-56.1,72.2-57.4l17.5,3s-57.4,25.8-15.8,70.3c-17,8.4-33.7,6.5-45.7.8-11.9-5.6-28.2-16.8-28.2-16.8Z"/>
      <rect class="st11" x="143.2" y="123.9" width="165.4" height="28.5"/>
      <g>
        <path class="st3" d="M164.1,139.7c-.4-.4-.9-.4-1.1-.3h-1.6c-.6,0-1.4.2-1.5,1.4-.2,1.9-1.9,3-4.7,3s-5.6-2.3-5.6-5.8,2.2-5.8,5.6-5.8,4.5,1.3,4.7,3.3c0,1.3,1.1,1.4,1.5,1.4h1.7c.9,0,1.4-.6,1.4-1.3,0-3.7-3.2-7.7-9.3-7.7s-10.1,4.1-10.1,10,4.1,10,10.1,10,9.3-3.7,9.3-7.4-.1-.7-.4-.9h0Z"/>
        <path class="st3" d="M175.3,128.3h-2.3l-8.8,17.4c0,.2-.2.4-.2.7,0,.7.6,1.2,1.3,1.2h1.9c.6,0,1.1-.1,1.5-.9l1.3-2.7h8.4l1.4,2.7c.4.8.8.9,1.5.9h1.9c.7,0,1.3-.5,1.3-1.2s-.1-.6-.2-.8l-8.8-17.4h0Z"/>
        <path class="st3" d="M205.4,128.3h-1.2c-.5,0-1,.3-1.4.7l-6.9,9.8-6.9-9.8c-.3-.4-.8-.7-1.4-.7h-1.2c-.7,0-1.4.6-1.4,1.4v16.7c0,.7.6,1.4,1.4,1.4h1.9c.7,0,1.4-.6,1.4-1.4v-9.1l6.3,8.9,6.3-8.9v9.1c0,.7.6,1.4,1.4,1.4h1.9c.7,0,1.4-.6,1.4-1.4v-16.7c0-.7-.6-1.4-1.4-1.4h0Z"/>
        <path class="st3" d="M218.9,128.3h-2.3l-8.8,17.4c0,.2-.2.4-.2.7,0,.7.6,1.2,1.3,1.2h1.9c.6,0,1.1-.1,1.5-.9l1.3-2.7h8.4l1.4,2.7c.4.8.8.9,1.5.9h1.9c.7,0,1.3-.5,1.3-1.2s-.1-.6-.2-.8l-8.8-17.4h0Z"/>
        <path class="st3" d="M242,141c0,0-.1-.2-.2-.3,2.4-1.1,3.7-3.1,3.7-5.7,0-4.1-3.2-6.7-8.1-6.7h-7.4c-.7,0-1.4.6-1.4,1.4v16.7c0,.7.6,1.4,1.4,1.4h1.9c.7,0,1.4-.6,1.4-1.4v-4.8h3.6l4,5.5c.3.4.8.6,1.2.6h2.4c.8,0,1.2-.6,1.2-1.2s-.2-.7-.4-1l-3.3-4.6h0ZM233.2,132.5h4.2c1.1,0,3.6.2,3.6,2.5s-2.7,2.5-3.6,2.5h-4.2v-5h0Z"/>
        <rect class="st3" x="247.5" y="128.3" width="4.6" height="19.4" rx="1.4" ry="1.4"/>
        <path class="st3" d="M268.1,143.5h-8.6v-13.8c0-.7-.6-1.4-1.4-1.4h-1.9c-.7,0-1.4.6-1.4,1.4v16.7c0,.7.6,1.4,1.4,1.4h11.8c.7,0,1.4-.7,1.4-1.4v-1.4c0-.7-.7-1.4-1.4-1.4h0Z"/>
        <path class="st3" d="M283.7,143.5h-8.6v-13.8c0-.7-.6-1.4-1.4-1.4h-1.9c-.7,0-1.4.6-1.4,1.4v16.7c0,.7.6,1.4,1.4,1.4h11.8c.7,0,1.4-.7,1.4-1.4v-1.4c0-.7-.7-1.4-1.4-1.4h0Z"/>
        <path class="st3" d="M294.7,128c-6.1,0-10.4,4.1-10.4,10s4.3,10,10.4,10,10.4-4.1,10.4-10-4.3-10-10.4-10ZM294.7,143.8c-3.4,0-5.8-2.4-5.8-5.8s2.9-5.8,5.8-5.8,5.8,2.3,5.8,5.8-2.4,5.8-5.8,5.8Z"/>
      </g>
      <g class="st9">
        <text class="st4" transform="translate(29.4 262.5) rotate(75.8)"><tspan x="0" y="0">S</tspan></text>
      </g>
      <g class="st9">
        <text class="st4" transform="translate(36.6 288.9) rotate(69.9)"><tspan x="0" y="0">I</tspan></text>
      </g>
      <g class="st9">
        <text class="st4" transform="translate(41 301.5) rotate(64.2)"><tspan x="0" y="0">E</tspan></text>
      </g>
      <g class="st9">
        <text class="st4" transform="translate(53 326.2) rotate(55)"><tspan x="0" y="0">M</tspan></text>
      </g>
      <g class="st9">
        <text class="st4" transform="translate(74.5 355.7) rotate(45.7)"><tspan x="0" y="0">P</tspan></text>
      </g>
      <g class="st9">
        <text class="st4" transform="translate(93.9 375.2) rotate(37.7)"><tspan x="0" y="0">R</tspan></text>
      </g>
      <g class="st9">
        <text class="st4" transform="translate(116.7 392.4) rotate(29.7)"><tspan x="0" y="0">E</tspan></text>
      </g>
      <g class="st9">
        <text class="st4" transform="translate(150.5 410) rotate(18.7)"><tspan x="0" y="0">E</tspan></text>
      </g>
      <g class="st9">
        <text class="st4" transform="translate(176.3 418.6) rotate(9.9)"><tspan x="0" y="0">N</tspan></text>
      </g>
      <g class="st9">
        <text class="st4" transform="translate(247.1 423.3) rotate(-9.6)"><tspan x="0" y="0">E</tspan></text>
      </g>
      <g class="st9">
        <text class="st4" transform="translate(276 417.8) rotate(-17.7)"><tspan x="0" y="0">L</tspan></text>
      </g>
      <g class="st9">
        <text class="st4" transform="translate(316.8 402.3) rotate(-31.3)"><tspan x="0" y="0">C</tspan></text>
      </g>
      <g class="st9">
        <text class="st4" transform="translate(344.5 384.8) rotate(-40.4)"><tspan x="0" y="0">A</tspan></text>
      </g>
      <g class="st9">
        <text class="st4" transform="translate(368.4 364.1) rotate(-50.5)"><tspan x="0" y="0">M</tspan></text>
      </g>
      <g class="st9">
        <text class="st4" transform="translate(391.9 333.7) rotate(-58.3)"><tspan x="0" y="0">I</tspan></text>
      </g>
      <g class="st9">
        <text class="st4" transform="translate(400.5 320.1) rotate(-65.7)"><tspan x="0" y="0">N</tspan></text>
      </g>
      <g class="st9">
        <text class="st4" transform="translate(414.6 287.2) rotate(-76)"><tspan x="0" y="0">O</tspan></text>
      </g>
      <g>
        <path class="st5" d="M226.3,100.9h-105.7v146.9c0,73.6,67.9,104.9,104.9,105.4,0,0,0,0,0,0h.8s0,0,0,0c37-.5,104.9-31.8,104.9-105.4V100.9h-105Z"/>
        <path class="st8" d="M226.3,114.5h-93.3v132.1c0,65,59.9,92.6,92.6,93h.8c32.7-.4,92.6-28,92.6-93V114.5h-92.6,0Z"/>
        <path class="st8" d="M226.2,123.9h-83v121.9c0,58.8,53.3,83.8,82.4,84.2h.7c29.1-.4,82.4-25.4,82.4-84.2v-121.9h-82.4Z"/>
      </g>
      <path class="st11" d="M236.2,401.3h-22.2v3.1h22.2v-3.1ZM238.6,391.3c-.9,2.3-1.8,4.6-2.4,6.6h-22.4c-.6-2.1-1.4-4.3-2.4-6.6.3-.6,1.2-2.8.6-4.4-.7-1.7-3-2-3.5-2.1-1.7-3.6-3.6-6.8-5-8.9,5.4,4.8,12.9,5.9,12.9,5.9,0,0-1.6,4.7.1,8.5,1.3,3.1,5.7,2.4,5-1.9-.7-4.3-3.4-7.6-3.4-7.6l6.8-11.1,6.8,11.1s-2.8,3.3-3.4,7.6,3.7,5,5,1.9c1.6-3.8.1-8.5.1-8.5,0,0,7.6-1.1,12.9-5.9-1.5,2.1-3.3,5.3-5,8.9-.4,0-2.7.5-3.5,2.1-.7,1.5.2,3.7.6,4.4h0ZM226.9,380.9c0-2.1-1.8-3.7-1.8-3.7,0,0-1.8,1.7-1.8,3.7s1.8,3.7,1.8,3.7c0,0,1.8-1.7,1.8-3.7Z"/>
    </g>
  </g>
</svg>