<?xml version="1.0" encoding="UTF-8"?>
<svg id="Capa_2" xmlns="http://www.w3.org/2000/svg" version="1.1" viewBox="0 0 450.2 450">
  <!-- Generator: Adobe Illustrator 30.3.0, SVG Export Plug-In . SVG Version: 2.1.3 Build 157)  -->
  <defs>
    <style>
      .st0 {
        fill: #dd241e;
      }

      .st1 {
        fill: #ffea03;
      }

      .st2 {
        fill: #cd850d;
      }

      .st3 {
        fill: #020203;
      }
    </style>
  </defs>
  <path class="st0" d="M225.1,444.7h.5s.1,0,.1,0c28.2-.4,75.1-12.1,115.4-44,30.5-24.2,66.9-67.9,66.9-139.2V5.3H42.1v256.3c0,71.2,36.4,115,66.9,139.2,40.3,31.9,87.3,43.6,115.3,44h.3s.4,0,.4,0Z"/>
  <g>
    <path class="st3" d="M225.8,450h-.7s-.9,0-.9,0h-.2c-28.7-.4-76.9-12.4-118.2-45.1-31.5-24.9-69-70-69-143.3V0h376.5v261.6c0,73.3-37.5,118.4-69,143.3-41.2,32.6-89.4,44.7-118.2,45.1h-.4ZM225.1,444.7h.5s.1,0,.1,0c28.2-.4,75.1-12.1,115.4-44,30.5-24.2,66.9-67.9,66.9-139.2V5.3H42.1v256.3c0,71.2,36.4,115,66.9,139.2,40.3,31.9,87.3,43.6,115.3,44h.3s.4,0,.4,0Z"/>
    <path class="st2" d="M225.7,426h-.6s-.8,0-.8,0h-.1c-25.4-.4-68.1-11-104.6-39.9-27.8-22-61-61.9-61-126.8V24h333v235.4c0,64.9-33.2,104.7-61,126.8-36.4,28.8-79,39.5-104.6,39.9h-.4ZM225.1,420.7h.5s.1,0,.1,0c56.1-.7,160.7-48.8,160.7-161.4V29.2H63.9v230.1c0,112.6,104.6,160.7,160.5,161.4h.3s.4,0,.4,0Z"/>
    <path class="st2" d="M225.6,409h-.5s-.8,0-.8,0h-.1c-23.7-.3-60.7-10-93.2-36.2-24.8-20-54.4-56.1-54.4-114.9V40.5h296.9v217.5c0,58.8-29.6,94.9-54.4,114.9-32.4,26.1-69.4,35.8-93.2,36.2h-.4ZM225.1,403.7h.4s0,0,0,0c49.9-.6,142.7-44,142.7-145.8V45.8H81.9v212.2c0,101.7,92.9,145.1,142.6,145.8h.3s.3,0,.3,0Z"/>
  </g>
  <path class="st1" d="M225.7,426h-.6s-.8,0-.8,0h-.1c-25.4-.4-68.1-11-104.6-39.9-27.8-22-61-61.9-61-126.8V24h333v235.4c0,64.9-33.2,104.7-61,126.8-36.4,28.8-79,39.5-104.6,39.9h-.4ZM225.1,420.7h.5s.1,0,.1,0c56.1-.7,160.7-48.8,160.7-161.4V29.2H63.9v230.1c0,112.6,104.6,160.7,160.5,161.4h.3s.4,0,.4,0Z"/>
  <path class="st1" d="M225.6,409h-.5s-.8,0-.8,0h-.1c-23.7-.3-60.7-10-93.2-36.2-24.8-20-54.4-56.1-54.4-114.9V40.5h296.9v217.5c0,58.8-29.6,94.9-54.4,114.9-32.4,26.1-69.4,35.8-93.2,36.2h-.4ZM225.1,403.7h.4s0,0,0,0c49.9-.6,142.7-44,142.7-145.8V45.8H81.9v212.2c0,101.7,92.9,145.1,142.6,145.8h.3s.3,0,.3,0Z"/>
</svg>