<?xml version="1.0" encoding="UTF-8"?>
<svg id="Capa_2" xmlns="http://www.w3.org/2000/svg" version="1.1" viewBox="0 0 232.2 232.1">
  <!-- Generator: Adobe Illustrator 30.2.1, SVG Export Plug-In . SVG Version: 2.1.1 Build 1)  -->
  <defs>
    <style>
      .st0 {
        fill: #0b5ca5;
      }

      .st1 {
        fill: #095da9;
      }

      .st2 {
        fill: #e0b937;
      }

      .st3 {
        fill: #0a5ca6;
      }

      .st4 {
        fill: #2c241b;
      }

      .st5 {
        fill: #edbd26;
      }

      .st6 {
        fill: #0f5ea5;
      }

      .st7 {
        fill: #d8ac43;
      }

      .st8 {
        fill: #245e8d;
      }

      .st9 {
        fill: #185c90;
      }

      .st10 {
        fill: #215e87;
      }

      .st11 {
        fill: #3f2e13;
      }

      .st12 {
        fill: #0b5ea9;
      }

      .st13 {
        fill: #e0b935;
      }

      .st14 {
        fill: #b73a24;
      }

      .st15 {
        fill: #a38736;
      }

      .st16 {
        fill: #e1b933;
      }

      .st17 {
        fill: #e3bb35;
      }

      .st18 {
        fill: #e0b936;
      }

      .st19 {
        fill: #749fbc;
      }

      .st20 {
        fill: #0b5da7;
      }

      .st21 {
        fill: #e1bb37;
      }

      .st22 {
        fill: #2d251a;
      }

      .st23 {
        fill: #e3bd37;
      }

      .st24 {
        fill: #b13120;
      }

      .st25 {
        fill: #29221e;
      }

      .st26 {
        fill: #29231e;
      }
    </style>
  </defs>
  <path class="st8" d="M210.97,15.94h-.38l-.02-15.5L22.26.6c-.23,0-.46-.11-.69-.13l189.38-.47.02,15.94Z"/>
  <path class="st8" d="M210.97,129.89c-.12.02-.26-.02-.38,0l-.12-13.17.07-5.26.05-21.57v-6.04l-.09-63.66c0-.99.2-2.14.09-3.12h.38v112.81Z"/>
  <path class="st8" d="M210.97,131.02c-.25,1.5-.23,3.07-.64,4.53-.24-1.5-.06-3.02-.11-4.53h.75Z"/>
  <path class="st8" d="M208.85,145.36c-.22-1.28-.41-2.99.76-3.77.17.2-.46,3.97-.76,3.77Z"/>
  <path class="st8" d="M209.98,138.94c0-.98-.65-2.41.31-3.02.33.96.04,2.1-.31,3.02Z"/>
  <path class="st8" d="M209.62,141.21c-.09-.31-.15-.61-.18-.96-.02-.37-.06-1.01.54-.93.45.6.09,1.38-.37,1.89Z"/>
  <path class="st9" d="M210.97,15.94v1.13h-.38c-.1-.15-.37-.32-.35-.57s.21-.42.35-.57h.38Z"/>
  <path class="st8" d="M208.44,147.24c-.07-.5-.12-1-.1-1.51.17.03.35-.02.52,0,.38.51,0,1.13-.42,1.51Z"/>
  <path class="st19" d="M210.97,131.02h-.38v-1.13c.12-.02.26.02.38,0,0,.37.06.77,0,1.13Z"/>
  <path class="st9" d="M210.6,131.02h-.38c-.01-.4-.15-1.04.38-1.13v1.13Z"/>
  <g>
    <path class="st20" d="M208.33,145.74c-.02.51.03,1.01.1,1.51.02.11-.02.26-.04.38-.36-.09-.69-.02-.79.24-.15.41.08.85-.02,1.26-.78,3.23-3.11,9.05-2.96,10.56.01.11,0,.25-.02.36-.5.14-.79.69-.99,1.29l-1.32,4.02c-.17.23-.43.39-.3.75.03.08.03.26,0,.34-1.22,1.01-2.15,2.68-2.25,4.26l-.02.32c-1.03.57-1.66,1.94-1.87,3.08-.02.1.02.23-.03.32h-.86c-1.11-.9-2.67-1.02-4.06-1.09l-1.23-.06c-.18-1.34-1.5-2.38-2.99-2.21-1.21.14-1.47-.51-2.11-1.39-.42-.57-2.01.66-1.83,1.24.7.89,1.67,1.67,1.33,2.87-1.64.15-3.39.86-5.27.59-.82-.12-.78-1.51-.81-2.19-.15-3.42-.1-6.61-.69-9.91-.11-.59-.69-.76-1.13-.88-.81-.22-3.63,2.85-3.51,2.6-.5,1.1-.39,2.36-.98,3.3-1.56-.49-.02-2.44-2.31-2.38,1.06-.96,2.13-2.29,3.18-3.53-.94-.83,2.55-7.58,3.17-7.43.96.23,1.49,1.39,2.49,1.78,1.58.61,3.35-1.05,3.24-2.67l1.87-3.65s2.12-8.15,1.14-7.78c-.47-.08-1.23.52-1.51.12-.93-1.32.65-3.28.38-4.65-.25-1.25-1.8-1.52-2.73-1.53.2-1.03.39-2.76.4-3.8.16-.09.96-.09.99-.5.17-2.08.93-4.04.84-6.09-.04-.85-.51-1.52-.14-2.48.19-.49.97-.75,1.5-1.24,1.22-1.12,1.81-.08,2.92.11,1.6.26,3.33-.9,4.92-1.09.69-.08.71-.95.64-1.31-.21-1.2-2.48-.4-2.61-1.96-.19-2.25,5.31-1.89,5.23-1.91.92.27,2.54.48,3.3.95,1.18.74,1.46,2.34,3.21,2.71.3.06.62.74.65,1.03.16,1.57-2.47-.59-3.27,0-.37.27-.73,1.03-.09,1.2.54.14,1.25-.18,1.51.25.17.28-.22.9-.4,1.35.16.83,1.12.64,1.49,1.54-.67,0-1.21-.47-1.62-.14-.63.51-1.42.78-1.03,1.59,1.27-.07,2.28-.24,3.12.45.59.49.71,1.48,1.14,2.22.67,1.16,2.27-.61,3.02-.45,2.62,1.6-1.3,5.26.82,7.17-.56,1.25-2.13.35-2.96,1.04-1.22,1.02-2.32,3.63-1.87,5.25.26.95,1.51,1.39,1.84,2.35.35,1.04,1.27,1.75,2.18,1.91Z"/>
    <path class="st1" d="M161.28,182.31c.17.05.28.25.41.37-.08.65.45.76,1.04,1.05l4.89,2.36c1.17.57,2.4-1.62,4.91,1.47.82,1.01,3.23,9.53,2.96,10.93-1.76.84-2.74,2.81-4.53,3.85-2.19,1.27-4.55,2.25-6.04,4.61.04.4.88.32,1.19.4-.28.33-.61.65-1.08.69-.25.02-.65-.1-.79.17-.1.19-.03.45-.02.6l-.36.04c-.27-1.7-7.36,3.58-8.12,3.8-2.44.7-3.57,1.77-4.75,3.62-.87,1.33-3.44,1.35-4.55,2.15-.75.54-1.21,1-1.85,1.27-.02-.08.03-.55-.14-.59-.96-.21-1.69.45-2.44.67s-1.44-.72-2.03-1.19c-.88-.16-1.18.9-1.91,1.03-1.16.22-3.39-1.35-4.56.08-1.41,1.73,1.19,1.96.98,4.52l-5.41,2.25c.2-.62-2.03-1.81-1.54-2.68s.35-1.59-.41-2.52l-1.85-2.28c.9-.58,1.83-.3,2.87.23.84.43,1.8-.27,2.62.04.64.24.97.21,1.29-.2.44-.56.08-1-.58-1.42-2.64-1.65,1.03-1.2.38-3.86-.22-.89-.87-1.15-1.51-1.73-3.79-3.43-2.84-.75-3.95-2.9,1.04-1.13,1.96-2.42,3.08-3.5,1.02-.97,2.57.61,3.53.54,2.87-.21,4.69-3.39,4.59-6.29,1.55.54,2.93.67,3.4-.82.45-1.4.16-2.87.9-4.4,1.18,1.57,2.45,1.56,3.97,1.87.76.16,2.19,1.19,2.74-.07.51-1.18.08-2.85.91-4.04,1.54-2.2,3.2.07,6.19-3.23-.04.05,3.33-1.89,3.99-1.45.82.55.56,2.17,1.53,2.65.13.06,3.6.33,3.33-1.42-.22-1.42-2.05-.53-2.64-.74-.37-.14-.15-1.1-.41-1.25-1.04-.6-1.53-1.46-2.34-2.21-.75-.69-4.13-.26-3.71-2.47.45-.55,1.42-1.12,2-1.58,1.43.15,2.5,1.18,3.87,1.57Z"/>
    <path class="st12" d="M40.45,137.49c.09.79,1,1.86.41,2.63-.32.42-1.31.26-1.43.69-.18.66-.56,1.51.18,1.89,1.34-.98,2.22-2.65,3.98-2.88.95-.12,2.04,1.71,1.96,2.56-.33,3.69-2.58,2.97-2.4,7.04.06,1.5,1.66,1.73,2.62,2.34.83.53,1.7,1.73,2.78.83.53-.44.65-1.51,1.35-1.81,3.76,1.72,1.61.08,3.75.92-.03.11.06.25.05.37-.85,1.4-.49,3.23-.94,4.88-.74,2.69,1.23.49.11,4.59.54.99.26,2.3.04,3.43l-1.1.02c-.7-.42-2.05-.65-2.94-.68-6.61,5.93-.51,3.79-10.68,4.65.38.87.81,2.04-.03,2.42-.78.35-1.53.56-1.47,1.43-.65,0-1.22,1.06-1.96.81-.28-.56-.85-1.16-.81-1.85-.01-.59.37-1.13.5-1.68.19-.79,1.57-.34,1.91-.8.95-1.3,1.79-1.76,3.21-2.25,1.88-.66-.83-3.71-1.22-3.79-.55-.12-.79.47-.9.95-.59,2.71-3.1.73-3.39,2.67-.17,1.15-1.03,1.56-1.97,1.51-1.92-3.1-3.03-7.34-4.08-7.93.02-.32-.05-.72-.44-.75l-.03-.38c-.02-.24.13-.51.09-.75-.1-.58-.5-1.02-.75-1.51.16-1.73-1.55-4.32-1.42-6.42.42-.28,1.48-.55,1.57-1.25.18-1.38-.32-2.79-.31-4.18.01-1.21-1.08-1.5-1.88-1.95.32-1.94,1.14-4.5,1.82-6.3.78-.3,1.82-1.16,2.54-1.38,1.08-.32,1.64,1.25,1.98,1.88,1.02,1.87-1.99,2.49-.16,4.91.65.86,1.26,2.15,2.73,1.73.69-.2,2.06-.71,2.56-1.28.91-1.29.92-2.92,1.4-4.33.99-.47,1.9-.72,2.77-.99Z"/>
    <path class="st0" d="M186.09,93.37c.34,1.99-.46,4.5.31,6.45l5.49,5.93c-.09,1.42-1.71,1.72-2.33,2.68-.84,1.3-2.55,2.19-3.12,3.59-.33.82-.77,6.96.3,7.21.33.08.98.07,1.28-.25,1.87-2.02,3.68-3.76,5.83-5.53.92-.76,2.37-2.39,3.73-1.56,4.45,2.7,7.9,8.91,9.26,7.43.35-.38.5-1.38.42-1.85,1.55.24,1.82-.65,3.21-.75l.12,13.17c-.52.09-.39.73-.38,1.13.05,1.51-.12,3.03.11,4.53-.03.1-.07.28-.04.38-.96.61-.31,2.03-.31,3.02v.38c-.6-.08-.57.56-.54.93.02.34.08.64.18.96.03.1-.07.3,0,.38-1.17.78-.98,2.49-.76,3.77.02.12-.01.25,0,.38-.17-.02-.35.03-.52,0-.91-.16-1.83-.87-2.18-1.91-.33-.96-1.58-1.4-1.84-2.35-.45-1.62.65-4.23,1.87-5.25.82-.69,2.4.21,2.96-1.04-2.13-1.9,1.79-5.57-.82-7.17-.75-.16-2.35,1.61-3.02.45-.43-.73-.55-1.73-1.14-2.22-.84-.69-1.85-.53-3.12-.45-.39-.81.41-1.08,1.03-1.59.41-.33.95.13,1.62.14-.37-.9-1.33-.72-1.49-1.54.18-.45.57-1.07.4-1.35-.27-.44-.97-.12-1.51-.25-.64-.16-.28-.92.09-1.2.8-.6,3.43,1.56,3.27,0-.03-.28-.35-.96-.65-1.03-1.75-.38-2.02-1.98-3.21-2.71-.76-.47-2.38-.68-3.3-.95.08.02-5.42-.34-5.23,1.91.13,1.57,2.4.76,2.61,1.96.06.36.05,1.23-.64,1.31-1.59.19-3.32,1.35-4.92,1.09-1.11-.18-1.71-1.23-2.92-.11-.52.48-1.31.75-1.5,1.24-.37.96.1,1.63.14,2.48.09,2.04-.68,4.01-.84,6.09-.03.41-.83.4-.99.5l.13-30.76v-10.81c2.34.46,1.02,3.44,2.96,3.16Z"/>
    <path class="st6" d="M196.96,174.43c-.87,1.89-1.88,3.83-2.9,5.67-2.23,4.03-5.52,7.54-8.71,10.85-.21-.65-.65.08-.84.29s-.35.67-.34.91c-.09.14-.23.24-.35.36-.14.12-.28.25-.4.4l-.35.35c-.28-.03-.66.09-.71.41-1.78-.43-1.52-1.63-3.04-1.66.72-.61,1.28-1.46,2.05-2.41l-.46-6.9c-.26-3.84,8.12-1.41,8.59-3.7.93.05,4.5-4.71,3.41-5.65,1.4.07,2.96.19,4.06,1.08Z"/>
    <path class="st9" d="M22.26.6c-.26.47-.28,1.04-.28,1.74l.04,18.07-.1,106.64c.4,1.24.26,2.2-.03,3.11l-.32.1-.36-5.77V3.6c0-1.32-.04-2.25.36-3.12.23.02.46.13.69.13Z"/>
    <path class="st3" d="M171.73,181.92c.06,1.49,1.72,2.01,3.07,2,.15,3.13.18,6.39.92,9.58.17.75,1.66.16,2.05-.18l1.54-1.31c1.52.03,1.26,1.23,3.04,1.66-.07.44-.54.53-.78.79-.17-.17-4.67,3.93-4.13,4.06-.29.15-.53.39-.86.46-.32-.26-.7-.44-1.11-.51.26-1.4-2.14-9.92-2.96-10.93-2.51-3.09-3.74-.9-4.91-1.47l-4.89-2.36c-.59-.28-1.12-.39-1.04-1.05,3.32.14,7.01-.91,10.05-.76Z"/>
    <path class="st10" d="M51.42,194.77c1.04.92,3.97,3.48,4.91,4.2,1.76,1.35,3.02,3.41,5.2,4.11-.3.51,6.18,4.65,5.69,4.11,1.88,2.08,6.52,4.32,6.43,4.26l3.57,2.51c1.44,1.01,3.38,1.49,4.72,2.32,2.88,1.8,6.01,3.11,9.08,4.55,2.26,1.06,4.39,2.51,6.82,3.34,1.41.48,3.47,1.64,4.85,1.87.63.32,1.97.71,2.56,1.1,1,.67,3.15,1.07,4.23,1.55,1.25.56,2.32,1.27,3.73,1.61,1.98.48,4.04,1.62,5.71-.09,1.35.18,2.42-.87,3.71-1.16,2.28-.5,4.29-1.73,6.42-2.61l5.41-2.25c1.54-.64,3-1.24,4.62-2.04l2.83-1.4,2.66-1.09c.64-.26,1.1-.72,1.85-1.27,1.11-.8,3.68-.82,4.55-2.15l.42.12-3.44,2.11c-2.18,1.34-4.55,2.12-6.78,3.45-.74.44-15.3,6.63-16.91,7.21l-8.08,2.94c-22.83-7.73-52.74-22.58-68.58-40.72l3.83,3.39Z"/>
    <path class="st6" d="M163.84,208.85c-3.78,2.94-8.39,5.05-12.45,7.54l-.42-.12c1.18-1.85,2.31-2.92,4.75-3.62.76-.22,7.86-5.5,8.12-3.8Z"/>
    <path class="st12" d="M48.71,189.19c.34,1.22,1.63.9,2.65.62.47.81,1.5,1.23,1.66,2.22-.68.67-1.85.95-1.7,2.06l.09.68-3.83-3.39c-.12-.13-.24-.26-.34-.4,0-1.59-1.34-1.55-1.91-2.94.35-.72,1.73-.7,2.14.07.33.64.59,1.12,1.23,1.1Z"/>
    <path class="st6" d="M175.49,198.48c.41.06.78.25,1.11.51l-.33.34c-.78.29-1.49.82-1.81,1.6-.04.39-.58.49-.77.69-.26-.06-.68-.11-.79.17-.08.21-.01.45,0,.61-.37.17-.62.68-1.09.73-.25.02-.64-.08-.78.19-.1.2-.07.43-.05.6-.12.02-.26,0-.38.04-1.05.36-2.42,1.06-2.61,2.21l-.31.03c-.23-.05-.69-.16-.83.1-.1.19.03.48.01.63l-.75.41c-.3-.08-1.15,0-1.19-.4,1.49-2.35,3.85-3.34,6.04-4.61,1.79-1.04,2.77-3.01,4.53-3.85Z"/>
    <path class="st10" d="M32.07,168.38c.63,1.02.87,2.59,1.86,3.38-.04.69.53,1.29.81,1.85.52,1.05,1.02,1.95,1.89,2.7.62.53.47,2.03,1.51,2.25.21,1.94,2.01,3.1,3.12,4.58l3.31,4.41c.2.27.52.37.78.46.57,1.4,1.92,1.36,1.91,2.94-7.93-7.85-14-17.49-18.46-27.86-.42-.99-.86-1.75-.81-2.66,1.06.6,2.17,4.84,4.08,7.93Z"/>
    <path class="st8" d="M25.43,150.64c-.13,2.1,1.58,4.69,1.42,6.42-2.24-4.35-3.25-9.45-3.77-14.34h.38l1.28,6.27c.14.67.42,1.19.7,1.65Z"/>
    <path class="st9" d="M208.4,147.62c-.8,4.14-1.95,8.28-3.77,12.07-.15-1.52,2.18-7.34,2.96-10.56.1-.41-.13-.85.02-1.26.1-.26.42-.33.79-.24Z"/>
    <path class="st10" d="M199.75,170.72c.1-1.58,1.02-3.26,2.25-4.26-.55,1.47-1.06,3.24-2.25,4.26Z"/>
    <path class="st9" d="M202.3,165.36l1.32-4.02c.2-.6.49-1.15.99-1.29-.32,1.88-1.18,3.77-2.31,5.3Z"/>
    <path class="st9" d="M22.29,134.39h-.37c-.19-.62-.29-1.17-.3-1.83.42.07.29-.55.39-.81.41.84.27,1.75.28,2.64Z"/>
    <path class="st9" d="M23.07,140.8l-.42.03c-.07-.37-.25-.73-.27-1.11.2.02.32-.15.35-.33.42.37.5.89.33,1.4Z"/>
    <path class="st10" d="M177.45,198.53c-.54-.13,3.96-4.23,4.13-4.06-1.31,1.43-2.39,3.17-4.13,4.06Z"/>
    <path class="st8" d="M22.32,136.3c0,.24,0,.51,0,.75-.86-.58-.13-1.81-.4-2.66h.37s.03,1.91.03,1.91Z"/>
    <path class="st10" d="M197.83,174.44c-1.12,1.96-2.45,3.83-3.76,5.67,1.02-1.84,2.03-3.78,2.9-5.67h.86Z"/>
    <path class="st8" d="M22.01,131.75c-.1.26.04.89-.39.81l-.05-2.29.32-.1c.11.42-.04,1.19.12,1.58Z"/>
    <path class="st9" d="M22.7,138.19h-.38v-1.13c0-.24,0-.52,0-.75.65.36.33,1.26.38,1.89Z"/>
    <path class="st10" d="M167.99,206.17c.2-1.16,1.56-1.85,2.61-2.21-.53,1.02-1.74,1.49-2.61,2.21Z"/>
    <path class="st10" d="M197.86,174.12c.21-1.14.84-2.51,1.87-3.08-.7.6-1.38,3.75-1.87,3.08Z"/>
    <path class="st8" d="M23.08,141.96c-.03.12,0,.25,0,.38-.58-.27-.33-.99-.42-1.51l.42-.03c-.11.35.1.8,0,1.17Z"/>
    <path class="st10" d="M174.46,200.92c.32-.78,1.04-1.31,1.81-1.6-.23.86-.95,1.43-1.81,1.6Z"/>
    <path class="st10" d="M173.69,201.61c-.09.5-.39.6-.8.79-.01-.16-.08-.41,0-.61.11-.28.54-.23.79-.17Z"/>
    <path class="st10" d="M171.81,203.13c.17.29-.07.53-.3.64-.19.09-.36.12-.53.14-.02-.16-.05-.4.05-.6.13-.27.53-.16.78-.19Z"/>
    <path class="st8" d="M22.74,139.39c-.03.18-.15.35-.35.33-.03-.51-.06-1.02-.06-1.53h.38c.03.4.05.8.04,1.21Z"/>
    <path class="st10" d="M167.68,206.2c.1.52-.45.59-.82.73.02-.14-.12-.44-.01-.63.15-.26.6-.16.83-.1Z"/>
    <path class="st10" d="M165.02,208.04c.18.29-.07.53-.3.65-.16.08-.34.1-.51.12-.02-.16-.08-.41.02-.6.14-.28.55-.15.79-.17Z"/>
    <path class="st10" d="M27.61,158.56h-.38c-.24-.47-.43-.97-.38-1.51.25.49.65.93.75,1.51Z"/>
    <path class="st9" d="M23.46,142.72h-.38c-.01-.12,0-.25,0-.38s-.03-.26,0-.38c.35.11.32.47.38.75Z"/>
    <path class="st8" d="M27.98,160.45c-.27-.15-.41-.45-.44-.75.39.03.46.43.44.75Z"/>
    <path class="st10" d="M185.35,190.95c-.39.4-.87.72-1.18,1.21,0-.24.16-.71.34-.91s.63-.94.84-.29Z"/>
    <path class="st10" d="M183.07,193.26c-.1.1-.1.31-.24.39-.16.08-.32.06-.47.02.05-.32.43-.44.71-.41Z"/>
    <path class="st8" d="M27.51,159.32c-.32-.13-.17-.53-.28-.75h.38c.04.24-.11.51-.09.75Z"/>
    <path class="st10" d="M201.99,166.11c-.13-.36.13-.52.3-.75-.08.25.16.76-.3.75Z"/>
    <path class="st10" d="M183.42,192.91c.12-.15.25-.28.4-.4l-.4.4Z"/>
    <path class="st10" d="M183.02,28.73c-.03,1.05.14,2.09.11,3.13l-.08,2.95c-.01.49,0,1.01,0,1.51l.11,10.44-.11,7.67v21.51c0,.62-.01,1.28,0,1.89l.09,3.7c.04,1.57.03,3.12.02,4.68l-.04,4v10.81s-.12,30.76-.12,30.76c0,1.04-.2,2.77-.4,3.8-.57,2.87-1.16,5.76-1.88,8.6-.28,1.08-.64,2.34-.74,3.38-.84,2.06-2.08,4.17-2.25,6.4-.62-.15-4.12,6.6-3.17,7.43-1.05,1.24-2.12,2.57-3.18,3.53s-1.52,2.51-2.4,3.53c-.78.89-1.18,1.68-1.97,2.89-.98,1.51-4.04,2.87-4.73,4.59-.1.1-5.08,4.99-4.87,4.82-.58.47-1.54,1.03-2,1.58-2.04,1.35-4.02,2.79-6.13,4.35-4.85,3.57-10.08,6.24-15.41,9.06-3.24,1.72-6.26,3.45-9.8,4.52-.62.19-1.12.55-1.45.88-1.38.26-2.83.78-4.1,1.44-1.55.81-2.53.84-4.31.15-13.41-5.15-26.22-11.86-37.4-20.72-.36-.28-.68-.87-1.2-.87-1.23-1.22-2.82-2.61-4.18-3.73-.33-.27-.61-.96-1.09-1.07-.38-1.04-1.7-1.64-2.4-2.4-1.94-2.09-1.91-3.06-3.67-4.44-.64-.5-1.06-1.59-1.53-2.25-1.09-1.5-1.94-3.41-3.38-4.58.2-.64-.48-1.14-.76-1.48.08-.94-.82-1.59-1.19-2.3-.89-1.69-1.48-3.55-2.5-5.17-.36-.56-.22-1.74-1.21-1.66.01-.12-.08-.25-.05-.37.37-1.5-3.1-10.67-3.33-12.83l-.78-7.45c-.31-2.98-.37-6.02-.36-9.02v-6.8s.13-47.19.13-47.19V29.92c0-.6-.29-1.36.2-1.65.31-.18.91-.47,1.53-.45,7.71.26,15.19.09,22.91.12l18.21.08,40.33-.09h23.04s25.48-.04,25.48-.04c1.07,0,1.46.32,2.02.83ZM179.24,146.31c1.77-5.9,2.94-11.81,2.95-18.19l.15-99.38h-44.92s-41.5-.03-41.5-.03h-24.16s-21.59.02-21.59.02l-.02,49.85.25,51.24c.07,15.15,6.41,29.08,15.93,40.56,12.74,15.37,31.53,25.33,49.95,32.35,11.85-4.73,22.67-9.69,33.09-17.06,13.84-9.8,24.92-22.9,29.87-39.36Z"/>
    <path class="st3" d="M177.72,153.95c.17-2.23,1.42-4.34,2.25-6.4.51.04,1.28.61,1.85.35,1.48-.67,1.51-2.17,1.87-3.49.13-.48.88-.7.78-1.14-.15-.6-.51-.75-.87-.87-.82-.27-.76.47-.99,1.05-.31.79-1.29.6-1.89.71.73-2.84,1.32-5.73,1.88-8.6.93.01,2.48.28,2.73,1.53.28,1.37-1.3,3.32-.38,4.65.28.4,1.05-.2,1.51-.12.97-.36-1.13,7.75-1.14,7.78l-1.87,3.65c.1,1.62-1.67,3.28-3.24,2.67-1.01-.39-1.54-1.54-2.49-1.78Z"/>
    <path class="st1" d="M173.68,167.3l-.02,5.6c-1.4.07-1.52,2.27-3.39,1.24-.68-.37.54-3.1-1.3-5.69.88-1.02,1.3-2.53,2.4-3.53,2.29-.05.75,1.89,2.31,2.38Z"/>
    <path class="st6" d="M191.67,173.28l-5.6.5c.34-1.2-.64-1.98-1.33-2.87-.18-.58,1.41-1.8,1.83-1.24.65.88.91,1.53,2.11,1.39,1.49-.17,2.81.87,2.99,2.21Z"/>
    <path class="st3" d="M129.44,205.64c.02-.26,0-.53-.09-.75-.13-.33-.55-.5-1.04-.47l-2.97.16c.11-.69-.01-1.44-.4-2.02-.67-1.01-2.51-.1-2.33-1.44.33-.33.83-.69,1.45-.88,3.53-1.06,6.55-2.8,9.8-4.52,5.33-2.83,10.56-5.49,15.41-9.06,2.11-1.55,4.08-3,6.13-4.35-.42,2.21,2.96,1.78,3.71,2.47.81.74,1.3,1.61,2.34,2.21.27.15.04,1.11.41,1.25.59.22,2.42-.67,2.64.74.28,1.74-3.2,1.48-3.33,1.42-.97-.48-.71-2.1-1.53-2.65-.66-.44-4.03,1.5-3.99,1.45-2.99,3.29-4.65,1.03-6.19,3.23-.83,1.19-.4,2.85-.91,4.04-.55,1.26-1.97.23-2.74.07-1.51-.32-2.79-.31-3.97-1.87-.73,1.54-.45,3-.9,4.4-.48,1.49-1.86,1.36-3.4.82.1,2.9-1.72,6.09-4.59,6.29-.96.07-2.52-1.51-3.53-.54Z"/>
    <path class="st3" d="M127.51,223.78c-.49.86,1.74,2.05,1.54,2.68-2.14.89-4.14,2.11-6.42,2.61-.12-2.77-.9.35-4.16-3.32-1.31-1.47-3.63-1.65-5.56-1.54-.53,3.67-3.05,2.07-3.43,4.5-1.07-.48-3.22-.88-4.23-1.55l-.49-1.45c-.17-.5,1.08-.86.96-1.53,2.8.06,3.01,2.27,5.32.09.98-.92,2.13-1.53,2.99-2.7.79-1.08,2.54-1.73,3.67-.72,1.21,1.08,2.3,2.26,3.44,3.38,2.26,2.24,3.93-.22,6.37-.44Z"/>
    <path class="st3" d="M125.25,218.98c-.68-.84-1.63-1.42-2.23-2.25.6-1.14.59-2.62-.38-3.52l3.73-4.07c1.11,2.15.15-.53,3.95,2.9.65.59,1.3.85,1.51,1.73.65,2.66-3.02,2.21-.38,3.86.66.41,1.02.85.58,1.42-.32.41-.65.44-1.29.2-.83-.32-1.78.39-2.62-.04-1.03-.53-1.97-.81-2.87-.23Z"/>
    <path class="st3" d="M141.98,219.77l-.07,1.01-2.83,1.4c-1.62.8-3.08,1.4-4.62,2.04.21-2.56-2.39-2.8-.98-4.52,1.16-1.43,3.39.14,4.56-.08.74-.14,1.03-1.19,1.91-1.03.59.47,1.28,1.41,2.03,1.19Z"/>
    <path class="st3" d="M164.55,177.89c-.48.37-.75,1.07-1.48,1.47-1.13.62-1.8,1.82-1.79,2.96-1.37-.39-2.44-1.42-3.87-1.57-.21.17,4.77-4.72,4.87-4.82.3,1.04,1.11,2.15,2.27,1.97Z"/>
    <path class="st20" d="M144.57,219.69l-2.66,1.09.07-1.01c.76-.22,1.49-.88,2.44-.67.17.04.12.51.14.59Z"/>
    <path class="st3" d="M103.89,6.88c1.13,1.47,3.09,2.51,3.6,4.65,1.78.39,3.02,1.42,4.04,3.02l-8.25,8.37c-.3.31-.39.76-.36,1.06.03.35.43.83.99.83,6.49-.01,5.92.79,10.27-2.99.84-.73,1.96-1.29,2.98-.7.76.44,1.2,1.77,2.13,1.89,1.15.15,1.76,1.15,2.7,1.47,1.97.67,4.2.16,6.29.39.5.06.78-.47.95-.67.65-.83-1.02-1.73-2.79-4.13-1.51-2.05-4.07-3.41-5.27-5.72.05-1.51,2.78-2.97,4.19-2.63.82-3.83.03-2.18,3.38-5.29,3.72-.27,3.76,1.64,4.96,1.06.37-.18,1.13-.68.94-1.19-.18-.24-1.25-.18-1-.95.3-.93,2.87-2,3.42-1.18.81,1.22,1.2,2.24,3.07,2.28-.06,3.04-5.37.24-3.61,2.97.17.26.77-.28,1.04-.2,1.81.57,3.42.34,5.13-.2-.71.22,4.6.07,3.76-1.56-.4-.76-2.54-.32-1.86-1.65.82-1.63,2.43-.15,3.27-.33,6.34-1.39,2.62,2.13,6.61-1.17.2.66.33,2.3,1.4,2.05.75-.17,2.46-1.4,2.94-.27s1.2,1.87,1.82,2.79c.73,1.07.98,1.79,2.67,1.75.87-.02,2.5-.65,3.34-.09,3.22,2.15,2.96-.79,5.44.3.36.16.66.66.82,1.39-.53.29-1.36.04-1.74.48-.35.42.34.97.61,1.18.35.27,1.08.42,1.4-.23.28-.56.54-1.04,1-1.2.29-.1,1.05.48,1.29.32,1.47-.98,4.34-1.61,4.32-1.61,1.15.49-.11,4.02.37,4.46,4.56,1.64,3.8-1.13,6.46,4.16-1.08,2.12-.24,5.4-.5,8.21.72.06,1.26-.06,1.84-.08.72.56,1.82.72,2.69.14.48-.32.71-.84.71-1.3,0-.53-.33-1.05-.8-1.34.4-.88.93-1.04,1.6-1.64,3.01.37,6,2.42,9.4.47-.65-.72,4.05,3.63,4.01,3.61.14.08.35-.13.44-.29l.38.03c.24.02.59.02.68-.17.12-.24.36-.59.34-.96l-.25-5.27c1.63-.19,1.06-1.35,3.33-.98l.09,63.66c-.28-.02-.56-.1-1.05.06l-.03,3.74c0,.41.09.75.33.97.16.15.49.15.75.14v1.13c-2.44-.37-.59,3.74-2.07,3.82-1.18.07-.18-1.91-1.39-2.48-2.56-1.2-5.24,3.46-6.93,4.89-.97.82-3.72,1.42-4.88,1.05-.74-1.04-4.82-4.07-5.86-3.41-.87-.38-2.05-1.82-2.95-1.3-.31.18-.37.59-.43.91-1.94.28-.61-2.7-2.97-3.16l.04-4c.86-.05.81-1.08,1.06-1.84.41-1.23.12-2.54-1.08-2.84l-.09-3.7c.74.19.79-.36.79-.94s-.06-1.13-.79-.94v-3.4c.75.2.79-.42.79-.94,0-.7.09-1.53-.79-1.32v-15.85c.33,0,.97.08,1.11-.39-.07.25.13-8.54-.99-7.27l-.11-10.44c.56.12.76-.07.78-.56.02-.68-.05-1.13-.78-.95l.08-2.95c.69-.1.81-.92.92-1.39.24-1.04-.53-1.29-1.02-1.74-.56-.51-.95-.83-2.02-.83l-25.48.03h-23.04s-40.33.1-40.33.1l-18.21-.08c-7.72-.03-15.2.13-22.91-.12-.61-.02-1.21.27-1.53.45-.5.29-.2,1.05-.2,1.65v38.48s-.11,47.19-.11,47.19c-.39.15-1.38.19-1.57.68-1.22-.94-.91-2.65-1.49-3.83-1.33-2.73-3.95-4.27-5.97-6.74,1.77-1.37,3.25-2.72,4.44-4.45,1.63-2.36,1.9.31,1.74-7.92-.01-.52-.38-.84-.62-.97-.48-.24-.97-.13-1.39.3-2.19,2.28-4.35,4.51-7.02,6.22-1.52.97-3.31.64-4.54-.57l-5.51-5.42c-.31-.3-.63-.66-.96-.63-2.23.22-1.06,7.41-.79,7.71l5.38,6.04-5.6,5.99c-.3,1.34-.66,6.66.44,7.48.47.34,1.11-.09,1.55-.53,1.78-1.8,3.45-3.51,5.41-5.09.59-.47.73-1.41,1.43-1.58,2.33-.56,3.65.89,5.47,2.61l4.6,4.35c-.82.09-1.56.88-2.18,1.26-.87-.48-1.98.72-2.73.56-1.21-.26-3.84-1.18-6.12.95-.45.42-1.34.36-1.76.87s.05,1.5-.27,1.95c-.24.34-2.97,3.31-2.27,4.38,1.03,1.57,1.94-.42,5.77.88.99.34,1.9.79,2.85.5.79.34,1.62.85,2.45,1.39.43,1.67-.27,3.31.51,4.74.1.19,0,.53.02.75-.86.27-1.78.52-2.77.99-.48,1.42-.49,3.04-1.4,4.33-.5.57-1.87,1.08-2.56,1.28-1.47.42-2.08-.87-2.73-1.73-1.83-2.41,1.18-3.04.16-4.91-.34-.63-.91-2.2-1.98-1.88-.72.22-1.76,1.08-2.54,1.38-.68,1.8-1.5,4.37-1.82,6.3.8.45,1.9.75,1.88,1.95-.02,1.39.48,2.8.31,4.18-.09.7-1.15.97-1.57,1.25-.28-.45-.56-.98-.7-1.65l-1.28-6.27c-.06-.28-.03-.64-.38-.75.09-.36-.12-.82,0-1.17.16-.51.09-1.03-.33-1.4,0-.4,0-.81-.04-1.21-.05-.63.27-1.53-.38-1.89l-.03-1.91c-.01-.9.13-1.81-.28-2.64-.16-.39,0-1.17-.12-1.58.3-.91.43-1.86.03-3.11l.1-106.64c.98-.75,1.98.12,3.04.42.48,1.96-.52,6.64.7,7.31.34.18,1.18-.02,1.48-.49,1.53-2.41,4.18-3.48,5.56-4.3s2.02-1.51,3.47-1.36c1.6.17,1.85,1.27,3.07,2.12,1.02.71,2.55.71,3.38,2.08.49.8,2.24,2.24,3.04,1.58,1.17-.96.28-3.03.53-4.22.46-2.23-.14-3.6-1.82-4.87-1.48-1.12-2.59-2.67-4.19-4.04,1.12-2.16,3.12-3.44,5.43-4.07,1.45-5.05,2.61-2.83,3.3-5.98.14-.33.42-.58.7-.68.4-.14.77.19.92.61.99,2.74,3.42.71,4.58,1.91.72.75,1.36.93,2.36.75,1.3-.23.97-1.89,2.41-2.51.46-.2,1.12.09,1.57.25,1.58.56,2.74-1.26,3.74-1.34,1.2-.1,2-.03,3.26-.69.63-.33,2.16.61,2.47-.99,1.25.07-.2,1.9.98,2.25.53.16,1.09,0,1.44-.43,1.8-2.2,2.27.73,4.33-.6,1.3-.84,2.88-.57,3.67.81.78-.66,2.54-2.28,3.05-1.42l.63,1.07c1.54-.24,3.08-1.85,4.79-1.88,1.04-.02,1.95,1.2,3.23.54.93-.48,2.14-.2,3.01-.04-.64,1.49-2.58.52-2.56,1.92,0,.28.32.56.8.71,1.08.34,1.89-1.06,2.76-1.09,1.61-.05,2.51,2,2.62,3.41.13,1.64,2.65-1.01,4.11-.28Z"/>
    <path class="st20" d="M42.02,120.52c-.02.88,1.48.48,1.89,1.03.95,1.27-.39,2.6-1.28,3.89,1.37.45,2.5.86,3.55,1.36-.56,1.67.14,3.73,1.1,5.35.71.37,1.69-.57,2.27-.73l.78,7.45c.17-1-3.29,3.07-2.97,2.32-.62,1.41,1.98,3.21-.57,5.34-.56.47-1.25,2.22-.29,2.36,1.55.23,3.15.29,3.41,1.89-.7.3-.82,1.37-1.35,1.81-1.08.9-1.95-.3-2.78-.83-.96-.61-2.56-.85-2.62-2.34-.17-4.07,2.08-3.35,2.4-7.04.07-.85-1.02-2.68-1.96-2.56-1.76.22-2.65,1.9-3.98,2.88-.74-.38-.36-1.23-.18-1.89.12-.43,1.11-.27,1.43-.69.59-.77-.32-1.84-.41-2.63-.03-.22.08-.56-.02-.75.43-.41,1.65-.17,1.98-.61,1-1.31-.82-5.28-1.52-6.75-.36-.74,1.09-1.4,1.52-2.27-.68-.91-6.4-1.06-5.63,1.21.28.83.87,1.48.69,2.28-.96.29-1.86-.16-2.85-.5-3.83-1.3-4.74.69-5.77-.88-.7-1.06,2.03-4.04,2.27-4.38.32-.45-.13-1.47.27-1.95.42-.51,1.31-.44,1.76-.87,2.28-2.13,4.91-1.2,6.12-.95.74.16,1.86-1.05,2.73-.56Z"/>
    <path class="st3" d="M52.92,164.97c-.35,1.88-.06,3.86-.72,5.64-1.69.17-5.56.73-5.39,3.1-2.2-.17-4.64-.5-6.99-.55-.56-.01-.83,1.76-.38,2.09.69.66-2.46.75-2.81,1.07-.87-.75-1.37-1.65-1.89-2.7.74.25,1.31-.81,1.96-.81,1.35,0,2.04-.84,3.09-1.62,1.96-1.46,4.52-1.58,6.79-2.27.96-3.44,3.37-2.11,5.23-3.93l1.1-.02Z"/>
    <path class="st0" d="M50.32,138.87c.23,2.16,3.7,11.33,3.33,12.83-2.14-.83,0,.81-3.75-.92-.26-1.6-1.86-1.66-3.41-1.89-.96-.14-.27-1.9.29-2.36,2.56-2.13-.05-3.92.57-5.34-.33.74,3.13-3.32,2.97-2.32Z"/>
    <path class="st20" d="M33.93,171.77c-.99-.79-1.23-2.36-1.86-3.38.95.05,1.8-.36,1.97-1.51.29-1.95,2.8.04,3.39-2.67.11-.49.34-1.08.9-.95.39.09,3.1,3.13,1.22,3.79-1.41.5-2.25.95-3.21,2.25-.34.46-1.72,0-1.91.8-.13.55-.51,1.08-.5,1.68Z"/>
    <path class="st1" d="M51.82,164.99c-1.86,1.82-4.27.49-5.23,3.93-2.27.69-4.83.81-6.79,2.27-1.05.79-1.74,1.63-3.09,1.62-.06-.86.69-1.08,1.47-1.43.84-.38.41-1.55.03-2.42,10.17-.86,4.07,1.27,10.68-4.65.89.03,2.24.26,2.94.68Z"/>
    <path class="st20" d="M54.91,153.73c-.37.73-1.28,1.51-1.17,2.6.18,1.74,2.15,2.76,3.67,2.56.37.71,1.27,1.36,1.19,2.3l-1.2.03c-.91-.54-.85-1.65-1.64-1.58-1.67.15.39.58-.06,2.21-.79-1.07-1.71-.79-2.83-.31,1.13-4.1-.85-1.9-.11-4.59.45-1.66.09-3.48.94-4.88.99-.09.85,1.09,1.21,1.66Z"/>
    <path class="st20" d="M210.54,111.46l-.07,5.26c-1.38.1-1.65.99-3.21.75-.28-1.77.03-3.54-.12-5.32,1.11-.41,2.19-.9,3.39-.69Z"/>
    <path class="st0" d="M210.6,15.94c-.15.15-.34.33-.35.57s.25.41.35.57c.11.98-.09,2.13-.09,3.12-2.27-.37-1.7.79-3.33.98-.04-.92-.84-2.57-1.61-2.98-1.81-.97-2.89-2.24-4.27-3.83l3.33-3.27c1.75-1.72,3.27-1.64,2.32-7-1.61.08-3.69-.62-5.26.17s-2.5,3.35-4.13,4.35c-3.07,1.87-2.76-6.75-14.06-4.32l-1.61-.76c-.98-.46-1.56,1.19-1.46,2.02.12,1.06,1.09,1.47,2.26,1.37.35-.03.63-.02.78-.23.17-.24.17-.6.14-.9,1.16.56,1.81,1.75,2.67,2.79,1.84,2.21,4.05,3.72,5.81,6.17-2.06,1.79-3.37,3.96-5.44,5.03-2.65-5.29-1.9-2.52-6.46-4.16-.48-.44.78-3.98-.37-4.46.02,0-2.85.63-4.32,1.61-.25.16-1.01-.42-1.29-.32-.47.16-.72.64-1,1.2-.32.65-1.05.5-1.4.23-.28-.21-.97-.76-.61-1.18.38-.44,1.21-.19,1.74-.48-.16-.74-.46-1.24-.82-1.39-2.48-1.09-2.22,1.85-5.44-.3-.84-.57-2.48.06-3.34.09-1.69.04-1.94-.68-2.67-1.75-.62-.92-1.35-1.68-1.82-2.79s-2.19.1-2.94.27c-1.07.24-1.19-1.4-1.4-2.05-3.99,3.29-.27-.23-6.61,1.17-.84.19-2.45-1.29-3.27.33-.67,1.33,1.47.89,1.86,1.65.84,1.63-4.47,1.78-3.76,1.56-1.71.53-3.32.76-5.13.2-.27-.08-.87.46-1.04.2-1.76-2.73,3.55.07,3.61-2.97-1.87-.04-2.25-1.06-3.07-2.28-.55-.83-3.12.25-3.42,1.18-.25.77.82.7,1,.95.19.51-.57,1.01-.94,1.19-1.2.59-1.24-1.33-4.96-1.06.37-.32,1.13-1.96.37-2.17-2.15-.58-5.4-1.27-6.92-.07l-2.3,1.82c-.45.35-7.24,2.32-9.74-1.93-.47,0-8-.72-6.75.62-.16,0-.34,0-.44.08-.17.12-.29.55-.09.81l1,1.29c-1.46-.73-3.97,1.92-4.11.28-.11-1.41-1.01-3.47-2.62-3.41-.87.03-1.68,1.43-2.76,1.09-.47-.15-.8-.43-.8-.71-.02-1.4,1.92-.43,2.56-1.92-.87-.16-2.08-.44-3.01.04-1.28.67-2.19-.56-3.23-.54-1.7.03-3.24,1.64-4.79,1.88l-.63-1.07c-.51-.87-2.27.76-3.05,1.42-.8-1.38-2.37-1.65-3.67-.81-2.06,1.32-2.54-1.61-4.33.6-.35.43-.92.58-1.44.43-1.18-.35.27-2.18-.98-2.25-.31,1.61-1.84.66-2.47.99-1.26.66-2.06.59-3.26.69-1,.08-2.16,1.9-3.74,1.34-.45-.16-1.11-.45-1.57-.25-1.44.62-1.11,2.27-2.41,2.51-1,.18-1.64,0-2.36-.75-1.16-1.2-3.59.84-4.58-1.91-.15-.42-.52-.74-.92-.61-.28.1-.56.34-.7.68-.21.03-.43,0-.63.05.17-.39.13-.53-.25-.67-.27-.1-.6-.13-.87-.12.1-.5.38-1.14.06-1.43-.92-.84-3.41.08-3.45.17-.19.39.04.93.02,1.31-1.3-.15-2.1.33-3.29.93s-2.53.59-3.7,1.54c-.84.68-2.55.73-3.18-.32-.72-1.19-2.1-3.03-3.68-2.69l-4.42.94c-1.46,3.29-.04,4.26.81,6.71,1.71.11,4.33,3.01,4.36,3.64s-2.95,3.56-4.74,3.82c-.33.71-.49,1.9-.99,2.37-1.05-.3-2.05-1.17-3.04-.42l-.04-18.07c0-.7.02-1.27.28-1.74l188.31-.16.02,15.5ZM42.13,1.87c-.52.16-.96-.41-1.14-.25-.3.29-.27.76-.15.96.16.28.7.19,1.28.17.95.13.9-.88,0-.88ZM98.58,2.36c0-.23-.19-.42-.42-.42s-.42.19-.42.42.19.42.42.42.42-.19.42-.42ZM134.52,2.04c-.35-.22-1.06-.09-1.18.08-.38.55.25.84.85.85.38.01.96-.54.33-.93ZM56.22,5.23c.05.6.4.65.62.53.21-.11.29-.35.19-.56s-.42-.42-.81.03ZM183.49,12.58c-.02-.57-.84-.57-.87,0-.04,1.01.91,1.01.87,0ZM190.31,15.43c-.3-2.6-3.08-1.76-4.49-1.61-.25,1.07-.15,2.07.73,2.85,1.31-.08,2.6-.36,3.75-1.24Z"/>
    <path class="st0" d="M210.6,89.9l-.05,21.57c-1.2-.22-2.28.28-3.39.69l-5.92-6.31c1.53-2.2,6.38-5.44,5.98-7.21.56.1,1.81.62,2.09-.2.45-1.31.07-3.04-.72-3.82-.6.54-.31.98-.47,1.3-.12.25-.48.39-.85.38.04-.89.2-3.46-.5-3.91-.24-.16-.99-.35-1.31-.04l-7.61,7.49c-.77.76-2.37.18-3.05-.53-1.87-1.96-3.79-3.58-5.35-5.56,1.04-.65,5.12,2.37,5.86,3.41,1.16.38,3.91-.23,4.88-1.05,1.69-1.42,4.37-6.09,6.93-4.89,1.21.57.21,2.55,1.39,2.48,1.48-.09-.37-4.2,2.07-3.82Z"/>
    <path class="st0" d="M210.6,83.86v4.9c-.26,0-.58,0-.75-.14-.23-.21-.33-.55-.33-.97l.03-3.74c.49-.16.77-.08,1.05-.06Z"/>
    <path class="st1" d="M76.82,182.01l-.78,4.24c-1.02.79-2.35.72-3.36,1.76-.09.62,1.66,1.57,2.33,1.19,1.4-.81,2.89-2.15,4.7-1.26s-.08,3.9.58,4.52c1.26,1.16,1.62-.67,4.7-.06.61.12,1.4-.1,1.76.41.27.38-.03,1.33.16,1.86,1.3.14,2.94.05,4.19.94,1.1-.18,1.63-.88,2.99-.97.02,1.38,1.55,1.44,2.04,2.1.9,1.23.79,3.07,1.8,4.28-1.21.41-1.71.61-1.65,1.46.13,1.81,1.4.93,3.35,3.98.52.92-.25,2.4-.69,3.3,1.35,1.51,3.25.99,4.08,1.93-.66.8.31,1.93-.24,2.8-.49.77-1.07,1.34-.85,2.29.15.64.91,1.47,1.83,1.44-.61.75-1.14,1.59-1.87,2.23.07-.36.16-.78-.03-1.24-.31-.76-.74.19-1.25.26l-9.62,1.38c-3.06-1.44-6.2-2.75-9.08-4.55-.27-2.91-2.94-2.08-4.94-3.75-.95-.79-2.24-1.78-3.35-1.08.09.06-4.55-2.18-6.43-4.26.61-1.28-.6-2.81-1-4.14-1.19-3.98-.16.02-4.7.03-2.18-.7-3.43-2.76-5.2-4.11,1.14-3.85,4.04-.88,4.48-2.93.16-.73-.65-1.2-1.01-1.89-.2-.38.75-.99.6-1.4s-.58-.9-.59-1.36c-.02-1.13,1.45-1.01,2.13-1.49,1.41-.98,2.49-2.24,4.33-2.47.08-1.57,1.29-1.68,2.37-2.19,2.06-.96,3.74-2.44,5.93-3.14.57-.18,1.08-.43,1.04-.97.53,0,.84.58,1.2.87Z"/>
    <path class="st1" d="M122.63,229.07c-1.29.28-2.36,1.34-3.71,1.16.08-.83-6.03-1.81-5.71.09-1.42-.34-2.49-1.05-3.73-1.61.38-2.43,2.9-.82,3.43-4.5,1.93-.11,4.25.08,5.56,1.54,3.27,3.67,4.04.55,4.16,3.32Z"/>
    <path class="st12" d="M106.88,219.28c-.82.69-1.59,2.43-2.61,2.95-.15.21.57,1.08.69.9l-.02.64-2.25,2.28c-1.38-.23-3.45-1.4-4.85-1.87-.16-1.89,2.75-.45,3.28-2.74.13-.57.5-.75.79-.99.73-.63,1.26-1.48,1.87-2.23,1.16-.03,2.17.28,3.1,1.06Z"/>
    <path class="st3" d="M101.91,220.44c-.29.25-.66.43-.79.99-.53,2.3-3.44.85-3.28,2.74-2.43-.83-4.56-2.28-6.82-3.34l9.62-1.38c.5-.07.93-1.03,1.25-.26.19.46.1.88.03,1.24Z"/>
    <path class="st3" d="M81.94,216.29c-1.34-.84-3.28-1.31-4.72-2.32l-3.57-2.51c1.11-.7,2.4.29,3.35,1.08,2.01,1.68,4.67.85,4.94,3.75Z"/>
    <path class="st3" d="M118.92,230.23c-1.68,1.71-3.73.57-5.71.09-.32-1.9,5.79-.91,5.71-.09Z"/>
    <path class="st0" d="M105.73,224.18c.12.67-1.13,1.03-.96,1.53l.49,1.45c-.59-.39-1.93-.79-2.56-1.1l2.25-2.28c.3.06.58.18.79.41Z"/>
    <path class="st3" d="M75.62,181.14c.04.54-.48.79-1.04.97-2.19.7-3.87,2.18-5.93,3.14-1.08.5-2.29.61-2.37,2.19-1.83.23-2.91,1.49-4.33,2.47-.68.47-2.15.36-2.13,1.49,0,.46.44.96.59,1.36s-.8,1.02-.6,1.4c.35.69,1.17,1.15,1.01,1.89-.44,2.05-3.34-.92-4.48,2.93-.94-.72-3.86-3.28-4.91-4.2l-.09-.68c1.08-.1,2.56.35,3.08-.79.24.47,1.27.61,1.72.65,1.9.19.83-6.74,1.99-10.43.99.04,2.01-.09,3.07-.51.4-.29.46-.69.43-1.05,3.5-.03,6.05,1.19,9.35.48.84-1.23-.86-2.42-1.84-3.52.78-.55,1.93-.58,2.32-1.52,1.37,1.12,2.96,2.51,4.18,3.73Z"/>
    <path class="st1" d="M51.37,183.4c.02.78-.06,1.59-.31,2.33-.7,1.23-1.92,2.11-2.36,3.46-.64.02-.89-.46-1.23-1.1-.4-.77-1.79-.78-2.14-.07-.26-.09-.58-.19-.78-.46.66-.22,1.02-.88,1.61-1.41.69-.62,1.81-.58,2.42-1.32.78-.95,1.64-1.63,2.79-1.44Z"/>
    <path class="st20" d="M51.36,189.81c-1.02.29-2.31.6-2.65-.62.44-1.35,1.66-2.23,2.36-3.46.59.72-.47,2.76.3,4.08Z"/>
    <path class="st12" d="M41.98,178.9c-1.7.03-.22,2.68-.04,3.74-.18.23-.42.4-.68.51-1.11-1.49-2.91-2.64-3.12-4.58.54-1.14,1.5-.64,2.4-1.55.98.21,1,1.3,1.44,1.88Z"/>
    <path class="st0" d="M40.53,177.03c-.9.91-1.86.41-2.4,1.55-1.03-.23-.89-1.72-1.51-2.25.35-.32,3.5-.42,2.81-1.07.5.36.96,1.21,1.1,1.78Z"/>
    <path class="st3" d="M67.22,207.2c.48.53-6-3.6-5.69-4.11,4.53,0,3.51-4.01,4.7-.03.4,1.33,1.6,2.86,1,4.14Z"/>
    <path class="st3" d="M51.37,183.4c-1.14-.19-2.01.5-2.79,1.44-.6.74-1.73.69-2.42,1.32-.59.53-.95,1.19-1.61,1.41l-3.31-4.41c.27-.11.5-.29.68-.51.81.13,1.16-.71,1.82-1.18s1.66-.48,1.52-1.43l6.1.75c.29,1.02-.03,1.81,0,2.62Z"/>
    <path class="st3" d="M118.53,202.57c0,.28-.02.64.22.88.25.26.9.07,1.33.33.63.38.62,1.51,1.41,1.36-.03.02-3.03,3.52-5.89,3.19-2.27-.26-3.41-2.56-5.25-3.29-2.05-.81-4.63-.46-6.79-.59-.71-.04-.53,1.7-.15,1.95-1.25-.26-2.68-.44-3.78.05-1.95-3.05-3.22-2.17-3.35-3.98-.06-.84.44-1.05,1.65-1.46-1.01-1.22-.9-3.06-1.8-4.28-.48-.66-2.02-.72-2.04-2.1-1.36.09-1.89.79-2.99.97-1.25-.89-2.89-.8-4.19-.94-.19-.53.11-1.48-.16-1.86-.36-.51-1.15-.29-1.76-.41-3.08-.61-3.44,1.22-4.7.06-.66-.62,1.25-3.61-.58-4.52s-3.3.46-4.7,1.26c-.67.39-2.43-.56-2.33-1.19,1.01-1.04,2.34-.97,3.36-1.76l.78-4.24c11.18,8.86,23.98,15.57,37.4,20.72,1.79.69,2.77.66,4.31-.15Z"/>
    <path class="st6" d="M49.19,115.59v6.8c-.6-.03-1.34-.17-1.83.25-1.1.94.08,3.92-1.19,4.15-1.05-.5-2.18-.91-3.55-1.36.89-1.29,2.23-2.63,1.28-3.89-.41-.54-1.91-.14-1.89-1.03.62-.38,1.37-1.17,2.18-1.26.5-.05,1.02.1,1.6-.04.1-.02,1.74-2.76,1.82-2.95.2-.49,1.18-.52,1.57-.68ZM45.66,121.06c.05.6.4.65.62.53.21-.11.29-.35.19-.56s-.42-.42-.81.03Z"/>
    <path class="st20" d="M173.66,172.9c-.01,3.57-4.79,1.98-7.2,3.48-.72.45-1.33,1.07-1.91,1.51-1.17.18-1.97-.93-2.27-1.97.69-1.71,3.75-3.07,4.73-4.59.79-1.22,1.19-2,1.97-2.89,1.84,2.59.62,5.32,1.3,5.69,1.87,1.03,1.99-1.17,3.39-1.24Z"/>
    <path class="st3" d="M67.95,173.94c-1.29-.02-2.56.59-2.67,1.96l-4.47-.6c-.99-.13-1.56-.02-2.09-.91-.38-.63.12-1.21.11-1.84,2.98.09,3.48-1.67,5.44-3.05,1.76,1.38,1.74,2.35,3.67,4.44Z"/>
    <path class="st3" d="M49.18,122.4c0,3,.05,6.04.36,9.02-.58.17-1.56,1.1-2.27.73-.96-1.62-1.65-3.68-1.1-5.35,1.27-.24.08-3.22,1.19-4.15.49-.41,1.23-.28,1.82-.25Z"/>
    <path class="st1" d="M62.74,167.25c.48.66.89,1.75,1.53,2.25-1.96,1.38-2.46,3.15-5.44,3.05-.04-1.43.02-2.84.09-4.27,1.59-.24,2.34-1.43,3.82-1.03Z"/>
    <path class="st20" d="M122.63,201.13c-.18,1.34,1.66.43,2.33,1.44.38.58.51,1.33.4,2.02-1.19.07-2.8-.13-3.86.55-.79.15-.78-.98-1.41-1.36-.43-.26-1.08-.07-1.33-.33-.24-.24-.22-.6-.22-.88,1.27-.66,2.72-1.18,4.1-1.44Z"/>
    <path class="st3" d="M57.04,162.71c.81-.06,1.76.71,2.33-.04,1.43,1.17,2.28,3.09,3.38,4.58-1.48-.4-2.23.79-3.82,1.03.17-3.52-2.38-4.62-2.61-5.52l.73-.05Z"/>
    <path class="st20" d="M179.97,147.55c.1-1.04.47-2.3.74-3.38.59-.11,1.58.08,1.89-.71.23-.58.17-1.32.99-1.05.36.12.73.27.87.87.11.43-.65.66-.78,1.14-.36,1.31-.39,2.82-1.87,3.49-.57.26-1.34-.32-1.85-.35Z"/>
    <path class="st12" d="M67.95,173.94c.7.76,2.02,1.36,2.4,2.4-.43.82-1.07,1.56-1.97,1.85l-3.1-2.29c.11-1.37,1.37-1.98,2.67-1.96Z"/>
    <path class="st0" d="M57.42,158.89c-1.52.19-3.48-.82-3.67-2.56-.12-1.09.79-1.87,1.17-2.6,1.02,1.62,1.61,3.48,2.5,5.17Z"/>
    <path class="st0" d="M183.05,54.43l.11-7.67c1.12-1.26.92,7.52.99,7.27-.14.48-.78.4-1.11.39Z"/>
    <path class="st0" d="M183.16,86.2c.01-1.56.02-3.11-.02-4.68,1.2.31,1.49,1.61,1.08,2.84-.25.76-.21,1.79-1.06,1.84Z"/>
    <path class="st20" d="M71.43,177.41c-.38.94-1.54.97-2.32,1.52-.2-.23-.68-.36-.74-.74.9-.3,1.54-1.03,1.97-1.85.48.11.76.81,1.09,1.07Z"/>
    <path class="st0" d="M58.61,161.19c.28.34.95.84.76,1.48-.57.74-1.51-.02-2.33.04.14-.49.3-.98.37-1.49l1.2-.03Z"/>
    <path class="st0" d="M183.13,31.86c.03-1.04-.14-2.08-.11-3.13.5.45,1.26.7,1.02,1.74-.11.47-.23,1.28-.92,1.39Z"/>
    <path class="st0" d="M183.05,72.54v-2.26c.88-.21.79.63.79,1.32,0,.52-.04,1.14-.79.94Z"/>
    <path class="st0" d="M183.05,77.82c-.01-.61,0-1.27,0-1.89.73-.19.79.35.79.94s-.05,1.13-.79.94Z"/>
    <path class="st0" d="M183.05,36.32c0-.49-.01-1.02,0-1.51.73-.18.81.27.78.95-.02.49-.22.68-.78.56Z"/>
    <g>
      <path class="st10" d="M186.07,173.79l5.6-.5,1.23.06c1.09.94-2.48,5.7-3.41,5.65l3.07-5.04-12.94,1.31-1.28-13.49c-1.35,1.77-3.96,3.68-3.89,5.84l.26,8.2c-9.75,1.75-5.63-1.44-12.92,6.13l13.48-1.19,1.03,12.67c1.37-1.34,3.34-2.53,4.16-4.18.45-2.86-.39-5.81-.48-8.99l9.51-1.25c-.46,2.29-8.84-.14-8.59,3.7l.46,6.9c-.77.95-1.32,1.8-2.05,2.41l-1.54,1.31c-.4.34-1.88.93-2.05.18-.74-3.19-.77-6.45-.92-9.58-.03-.56.32-1.67-.2-2.16-.83-.62-2.1-.2-2.87.16-3.04-.15-6.73.9-10.05.76-.13-.11-.24-.32-.41-.37-.02-1.14.65-2.34,1.79-2.96.73-.4,1-1.1,1.48-1.47.58-.44,1.19-1.06,1.91-1.51,2.41-1.5,7.19.09,7.2-3.48l.02-5.6c.59-.94.48-2.2.98-3.3-.11.24,2.7-2.82,3.51-2.6.44.12,1.02.29,1.13.88.59,3.3.55,6.49.69,9.91.03.68-.02,2.07.81,2.19,1.88.27,3.63-.44,5.27-.59Z"/>
      <path class="st6" d="M174.8,183.91c-1.35.02-3.01-.5-3.07-2,.77-.36,2.04-.79,2.87-.16.52.49.17,1.6.2,2.16Z"/>
      <path class="st21" d="M189.49,179l-9.51,1.25c.08,3.18.93,6.13.48,8.99-.82,1.65-2.79,2.83-4.16,4.18l-1.03-12.67-13.48,1.19c7.3-7.56,3.18-4.38,12.92-6.13l-.26-8.2c-.07-2.15,2.54-4.07,3.89-5.84l1.28,13.49,12.94-1.31-3.07,5.04Z"/>
    </g>
    <g>
      <path class="st10" d="M121.5,205.14c1.05-.68,2.67-.49,3.86-.55l2.97-.16c.49-.03.91.14,1.04.47.09.22.1.5.09.75-1.12,1.08-2.04,2.37-3.08,3.5l-3.73,4.07c-.51.56-2.08.32-1.65,2.02.27,1.04,1.64,1.04,2.03,1.51.6.83,1.56,1.41,2.23,2.25l1.85,2.28c.76.93.89,1.67.41,2.52-2.44.22-4.11,2.68-6.37.44-1.13-1.12-2.23-2.3-3.44-3.38-1.13-1.01-2.88-.36-3.67.72-.85,1.17-2.01,1.78-2.99,2.7-2.32,2.18-2.52-.03-5.32-.09-.21-.22-.49-.35-.79-.41l.02-.64,4.77,1.42,6.54-6.6,6.51,6.71c1.57-.6,3.04-.99,4.66-1.92l-7.91-7.93,9.32-9.38c-2.26-.02-5.1-1.01-6.56.33l-6.05,5.55c-6.27-4.81-3.31-6.68-12.51-5.91l9.19,9.41-7.95,8.33c-.12.18-.85-.69-.69-.9,1.02-.52,1.79-2.26,2.61-2.95,1.5-1.25,3.09-2.58,4.47-4.24.73-.89-.44-1.17-.89-1.59l-3.91-3.58c-.96-.88-1.47-3.13-3.12-3.47-.38-.25-.56-1.99.15-1.95,2.16.13,4.74-.22,6.79.59,1.84.73,2.98,3.03,5.25,3.29,2.86.32,5.86-3.18,5.89-3.19Z"/>
      <path class="st23" d="M104.96,223.13l7.95-8.33-9.19-9.41c9.2-.77,6.24,1.1,12.51,5.91l6.05-5.55c1.46-1.34,4.3-.35,6.56-.33l-9.32,9.38,7.91,7.93c-1.62.93-3.09,1.32-4.66,1.92l-6.51-6.71-6.54,6.6-4.77-1.42Z"/>
    </g>
    <path class="st3" d="M106.88,219.28c-.93-.78-1.94-1.09-3.1-1.06-.91.03-1.68-.8-1.83-1.44-.22-.96.36-1.53.85-2.29.55-.87-.42-2,.24-2.8.37.07.73-.03.61-.34-.85-2.25,1.6-.34,2.89-1.48l3.91,3.58c.46.42,1.63.71.89,1.59-1.38,1.66-2.97,2.98-4.47,4.24Z"/>
    <path class="st12" d="M103.42,206.4c1.65.34,2.16,2.59,3.12,3.47-1.29,1.13-3.74-.77-2.89,1.48.12.31-.24.41-.61.34-.83-.94-2.74-.42-4.08-1.93.45-.9,1.21-2.39.69-3.3,1.1-.49,2.53-.31,3.78-.05Z"/>
    <path class="st20" d="M122.63,213.21c.97.9.98,2.39.38,3.52-.39-.47-1.76-.47-2.03-1.51-.44-1.7,1.13-1.45,1.65-2.02Z"/>
    <g>
      <path class="st18" d="M206.4,27.57l-.38-.03-9.28-9.64-9.82,9.83c.11-2.16-.58-4.52.08-6.47,1.71-2.51,4.33-4.37,6.37-6.76l-9.37-9.57c8.81-1.17,6.15.83,12.74,6.18l6.22-6.13c.76-.75,2.35.01,3.26-.22.91,2.31.08,3.84-1.59,5.23-1.59,1.32-3.07,3.09-4.36,4.69,5.95,6.99,6.6,3.57,6.13,12.89Z"/>
      <path class="st9" d="M207.18,21.18l.25,5.27c.02.37-.22.71-.34.96-.09.18-.45.19-.68.17.47-9.32-.18-5.9-6.13-12.89,1.29-1.6,2.77-3.38,4.36-4.69,1.68-1.39,2.51-2.92,1.59-5.23-.92.24-2.5-.53-3.26.22l-6.22,6.13c-6.59-5.34-3.93-7.35-12.74-6.18l9.37,9.57c-2.04,2.39-4.66,4.25-6.37,6.76-.66,1.95.04,4.3-.08,6.47l9.82-9.83,9.28,9.64c-.09.16-.3.37-.44.29.04.02-4.66-4.33-4.01-3.61-1.52-1.7-2.9-3.49-5.08-5.19-1.24,1.95-2.8,3.34-4.32,4.72-.67.6-1.2.77-1.6,1.64-.51,1.11-2.2,1.34-2.6,2.51-.58.02-1.12.14-1.84.08.26-2.8-.58-6.09.5-8.21,2.08-1.07,3.38-3.24,5.44-5.03-1.76-2.46-3.97-3.96-5.81-6.17-.86-1.04-1.51-2.22-2.67-2.79l-.11-1.51c11.31-2.42,11,6.19,14.06,4.32,1.63-.99,2.49-3.52,4.13-4.35s3.64-.1,5.26-.17c.95,5.36-.57,5.28-2.32,7l-3.33,3.27c1.38,1.59,2.46,2.87,4.27,3.83.77.41,1.57,2.06,1.61,2.98Z"/>
    </g>
    <path class="st12" d="M40.43,136.74c-.78-1.43-.08-3.07-.51-4.74-.82-.54-1.65-1.05-2.45-1.39.17-.8-.41-1.45-.69-2.28-.77-2.27,4.95-2.12,5.63-1.21-.42.87-1.88,1.53-1.52,2.27.7,1.47,2.52,5.44,1.52,6.75-.34.44-1.55.19-1.98.61Z"/>
    <path class="st0" d="M201.56,24.23c-3.4,1.95-6.39-.1-9.4-.47,1.52-1.38,3.08-2.77,4.32-4.72,2.18,1.7,3.56,3.48,5.08,5.19Z"/>
    <path class="st0" d="M187.97,27.91c.4-1.17,2.09-1.4,2.6-2.51.47.3.79.81.8,1.34,0,.46-.23.99-.71,1.3-.87.58-1.97.41-2.69-.14Z"/>
    <g>
      <path class="st10" d="M55.71,161.85c-.1.38.53.64.6.91.23.9,2.78,2,2.61,5.52-.07,1.43-.13,2.84-.09,4.27.02.63-.49,1.21-.11,1.84.53.89,1.1.78,2.09.91l4.47.6,3.1,2.29c.06.37.53.51.74.74.98,1.09,2.68,2.29,1.84,3.52-3.3.71-5.85-.51-9.35-.48-1.09,0-2.17-.58-3.39-.39-.45.64.05,1.43-.12,1.95-1.16,3.69-.1,10.61-1.99,10.43-.45-.04-1.48-.19-1.72-.65-.31-.61-.72-1.11-1.38-1.27-.16-.99-1.19-1.41-1.66-2.22-.77-1.32.3-3.36-.3-4.08.25-.74.33-1.54.31-2.33s.29-1.6,0-2.62l-6.1-.75c-1.07-.13-2.55-.16-3.3-1.13-.45-.58-.46-1.67-1.44-1.88-.13-.57-.6-1.42-1.1-1.78-.45-.33-.18-2.1.38-2.09,2.34.05,4.79.38,6.99.55,1.14.09,2.55.81,3.75.35.25.13,1.07.77,1.4.2.59-1.02.29-2.25.24-3.24,0-.12-.04-.3,0-.41.66-1.78.37-3.76.72-5.64.21-1.13.5-2.44-.04-3.43,1.12-.47,2.05-.76,2.83.31ZM56.15,193.28l1.14-12.53,13.28,1.07c-7.55-7.49-2.3-4.12-12.97-6.04.15-8.97,2.55-6.35-3.35-14.08l-1.44,13.52-12.89-1.27c.91,2.04,2.26,3.47,3.52,5.08l9.04,1.1c.06,3-.88,5.95-.43,8.87.47,1.74,2.76,3.26,4.11,4.28Z"/>
      <path class="st1" d="M54.4,193.3c-.51,1.14-2,.69-3.08.79-.15-1.11,1.02-1.39,1.7-2.06.66.16,1.07.65,1.38,1.27Z"/>
      <path class="st21" d="M56.15,193.28c-1.35-1.02-3.63-2.53-4.11-4.28-.44-2.93.49-5.87.43-8.87l-9.04-1.1c-1.27-1.61-2.61-3.04-3.52-5.08l12.89,1.27,1.44-13.52c5.9,7.73,3.51,5.11,3.35,14.08,10.66,1.93,5.42-1.45,12.97,6.04l-13.28-1.07-1.14,12.53Z"/>
    </g>
    <path class="st1" d="M52.19,170.61c-.04.11-.01.29,0,.41-.35.04-.66.28-.82.74l-.82,2.31c-1.19.46-2.61-.26-3.75-.35-.17-2.37,3.7-2.93,5.39-3.1Z"/>
    <path class="st1" d="M41.98,178.9c.75.97,2.23,1,3.3,1.13.14.95-.86.95-1.52,1.43s-1.01,1.32-1.82,1.18c-.17-1.06-1.65-3.71.04-3.74Z"/>
    <path class="st1" d="M61.62,181.97c.03.35-.03.76-.43,1.05-1.06.42-2.08.55-3.07.51.16-.52-.33-1.31.12-1.95,1.22-.18,2.3.4,3.39.39Z"/>
    <path class="st12" d="M57.4,161.22c-.07.51-.23,1-.37,1.49l-.73.05c-.07-.27-.71-.53-.6-.91.45-1.63-1.61-2.06.06-2.21.78-.07.73,1.04,1.64,1.58Z"/>
    <path class="st12" d="M50.55,174.06l.82-2.31c.16-.46.47-.7.82-.74.05.99.35,2.23-.24,3.24-.33.57-1.15-.07-1.4-.2Z"/>
    <g>
      <path class="st10" d="M189.47,93.76c1.56,1.98,3.48,3.6,5.35,5.56.68.71,2.27,1.29,3.05.53l7.61-7.49c.32-.31,1.07-.12,1.31.04.69.45.54,3.02.5,3.91-.04.79-.23,1.53-.05,2.33.4,1.76-4.45,5.01-5.98,7.21l5.92,6.31c.15,1.78-.16,3.55.12,5.32.07.46-.07,1.46-.42,1.85-1.37,1.48-4.81-4.73-9.26-7.43-1.37-.83-2.81.8-3.73,1.56-2.15,1.77-3.96,3.5-5.83,5.53-.3.33-.96.33-1.28.25-1.06-.25-.63-6.39-.3-7.21.56-1.4,2.27-2.29,3.12-3.59.62-.95,2.25-1.26,2.33-2.68l-5.49-5.93c-.76-1.95.03-4.47-.31-6.45.06-.32.11-.73.43-.91.89-.52,2.08.92,2.95,1.3ZM206.19,118.78c1.29-8.59-.8-6.62-6.07-12.86,5.61-6.83,7.08-3.74,6.2-13.02l-9.6,9.54-9.75-9.56c-.84,9.17.54,5.92,6.27,12.96l-6.09,6.62c-.92,1.75-.12,4.44-.12,6.36l9.8-9.5,9.37,9.47Z"/>
      <path class="st2" d="M206.19,118.78l-9.37-9.47-9.8,9.5c0-1.92-.79-4.61.12-6.36l6.09-6.62c-5.73-7.04-7.12-3.79-6.27-12.96l9.75,9.56,9.6-9.54c.89,9.29-.59,6.19-6.2,13.02,5.27,6.24,7.36,4.27,6.07,12.86Z"/>
    </g>
    <path class="st3" d="M207.21,98.64c-.18-.8.02-1.54.05-2.33.37,0,.73-.14.85-.38.15-.33-.13-.76.47-1.3.79.78,1.17,2.51.72,3.82-.28.82-1.53.3-2.09.2Z"/>
    <path class="st3" d="M190.31,15.43c-1.15.88-2.44,1.16-3.75,1.24-.88-.78-.98-1.79-.73-2.85,1.4-.14,4.18-.99,4.49,1.61Z"/>
    <path class="st3" d="M183.48,4.28l.11,1.51c.03.3.03.65-.14.9-.15.21-.43.2-.78.23-1.17.1-2.14-.31-2.26-1.37-.1-.84.48-2.49,1.46-2.02l1.61.76Z"/>
    <path class="st3" d="M47.26,3.86c-1.1.05-2.27.18-3.37.05.02-.38-.21-.92-.02-1.31.04-.09,2.53-1,3.45-.17.32.29.04.92-.06,1.43Z"/>
    <path class="st3" d="M42.13,1.87c.89,0,.95,1.01,0,.88-.58.02-1.12.11-1.28-.17-.12-.2-.15-.67.15-.96.18-.17.62.4,1.14.25Z"/>
    <path class="st3" d="M134.52,2.04c.63.39.05.94-.33.93-.6-.02-1.23-.31-.85-.85.12-.17.83-.29,1.18-.08Z"/>
    <path class="st3" d="M183.49,12.58c.04,1.01-.91,1.01-.87,0,.02-.57.84-.57.87,0Z"/>
    <path class="st3" d="M56.22,5.23c.39-.45.71-.25.81-.03s.01.45-.19.56c-.22.12-.58.08-.62-.53Z"/>
    <circle class="st3" cx="98.16" cy="2.36" r=".42"/>
    <path class="st20" d="M45.66,121.06c.39-.45.71-.25.81-.03s.01.45-.19.56c-.22.12-.58.08-.62-.53Z"/>
    <g>
      <path class="st9" d="M128.75,6.42c-3.35,3.11-2.56,1.45-3.38,5.29-1.41-.34-4.15,1.12-4.19,2.63,1.2,2.31,3.76,3.68,5.27,5.72,1.77,2.4,3.44,3.3,2.79,4.13-.16.21-.45.73-.95.67-2.08-.24-4.32.28-6.29-.39-.94-.32-1.55-1.32-2.7-1.47-.93-.12-1.37-1.45-2.13-1.89-1.03-.59-2.14-.04-2.98.7-4.36,3.78-3.78,2.98-10.27,2.99-.56,0-.96-.48-.99-.83-.03-.3.06-.75.36-1.06l8.25-8.37c-1.02-1.6-2.26-2.62-4.04-3.02-.51-2.14-2.47-3.18-3.6-4.65l-1-1.29c-.2-.27-.09-.69.09-.81.1-.07.28-.07.44-.08l9.33,9.77-9.29,9.4c8.94.84,6.23-.58,12.79-6.11l6.07,6.1c1.27-.12,7.79,1.14,5.77-.89l-8.47-8.54,9.31-9.52c-2.09.03-5.05-1.18-6.49.19l-6.27,6c-6.06-5.33-4.1-7.04-12.74-6.41-1.25-1.34,6.27-.62,6.75-.62,2.5,4.25,9.29,2.28,9.74,1.93l2.3-1.82c1.52-1.2,4.76-.52,6.92.07.77.21,0,1.85-.37,2.17Z"/>
      <path class="st13" d="M103.42,4.7c8.64-.63,6.68,1.08,12.74,6.41l6.27-6c1.44-1.38,4.4-.16,6.49-.19l-9.31,9.52,8.47,8.54c2.02,2.03-4.5.76-5.77.89l-6.07-6.1c-6.56,5.53-3.85,6.95-12.79,6.11l9.29-9.4-9.33-9.77Z"/>
    </g>
    <g>
      <path class="st9" d="M43.89,3.9c1.1.13,2.27,0,3.37-.05.27-.01.61.02.87.12.38.14.42.28.25.67-1.92.51-4.3-.6-6.3.31l-6.38,6.16-6.29-6.1c-.68-.66-2.58-.33-3.37-.04-.26.73-.43,2.57.2,3.23l6.01,6.34-6.2,6.39c-.02,2.14-.21,4.11.04,6.64l9.6-9.61,9.61,9.35c-.1-2.04,1.09-4.84-.2-6.26l-5.99-6.64,6.44-6.52c1.07-1.09,2.25-1.96,2.82-3.24.2-.05.42-.02.63-.05-.69,3.16-1.85.93-3.3,5.98-2.3.63-4.3,1.91-5.43,4.07,1.61,1.37,2.71,2.92,4.19,4.04,1.68,1.27,2.28,2.64,1.82,4.87-.25,1.19.64,3.26-.53,4.22-.8.65-2.55-.78-3.04-1.58-.84-1.37-2.37-1.37-3.38-2.08-1.22-.85-1.47-1.95-3.07-2.12-1.45-.15-2.14.57-3.47,1.36s-4.04,1.89-5.56,4.3c-.3.47-1.15.68-1.48.49-1.22-.67-.21-5.35-.7-7.31.5-.48.66-1.66.99-2.37,1.78-.25,4.77-3.22,4.74-3.82s-2.66-3.52-4.36-3.64c-.85-2.45-2.27-3.42-.81-6.71l4.42-.94c1.59-.34,2.96,1.51,3.68,2.69.64,1.05,2.34,1,3.18.32,1.17-.95,2.5-.94,3.7-1.54s1.99-1.08,3.29-.93Z"/>
      <path class="st16" d="M48.39,4.64c-.57,1.28-1.75,2.15-2.82,3.24l-6.44,6.52,5.99,6.64c1.28,1.42.09,4.22.2,6.26l-9.61-9.35-9.6,9.61c-.26-2.52-.07-4.49-.04-6.64l6.2-6.39-6.01-6.34c-.63-.66-.47-2.5-.2-3.23.78-.28,2.69-.62,3.37.04l6.29,6.1,6.38-6.16c2-.91,4.38.2,6.3-.31Z"/>
    </g>
    <g>
      <path class="st5" d="M179.24,146.31c-4.95,16.46-16.03,29.56-29.87,39.36-10.42,7.38-21.24,12.33-33.09,17.06-18.42-7.02-37.21-16.98-49.95-32.35-9.52-11.49-15.86-25.41-15.93-40.56l-.25-51.24.02-49.85h21.59s24.16-.02,24.16-.02l41.5.02h44.92s-.15,99.38-.15,99.38c0,6.37-1.17,12.29-2.95,18.19ZM64.2,54.87c-.12.03-.26.04-.38.04-1.72-.04-3.43,1.11-4.82,2.47,1.29,2.11,3.02,3.51,5.17,4.44-.79.92-5.03.16-4.51.93-.61.22-.04,1.13.38,1.57,2.33,2.4,5.68-.13,6.81.51.55.73,1.44,1.57,2.54,1.23l6.9-2.15c.7-.22,2.26-.5,2.75.12,2.02,2.53,3.37,5.3,5.32,8.07.74-.75.76-1.95,1.42-2.96,6.28,8.97,4.3,5.98,13.36,12,1.53,4.27,3.42,8.47,4.66,12.94.42,1.5-1.28,3.05-1.53,4.38l-3.24.27c-.7,1.33-1.44,2.52-1.86,4.03l7.72.02,4.27-7.54-2.07-14.15,6.53-2.81c1.2-.29,2.65-.43,3.4-1.49,1.65-.48,3.53-.88,4.93-1.89,1.74-.17,3.41-1.01,4.88-1.95.2.04.52-.05.73-.03.42.07.82.19,1.21.37.07.14.3.23.32.37l.08.56c.04.26.38.36.66.29,0,.08.02.22.06.3.4.7.99,1.28,1.51,1.89l.31.37c-.06.55.28,1.02.82,1.13.17.11.28.36.46.44,1.14,2.05,3.47,5.49,5.93,5.95.11.02.22.04.32.07-.19.28.19.37.4.41.11.02.27.07.38.03.74,1.01,6.89,3.41,8.53,4.09l3.32,9.17c-2.37.54-3.57,2.37-4.02,4.5,2.1-.14,3.81.46,5.74.09.48-.17,1.21-.68,1.51-.97,3.2-3.05,2.26-4.16.75-8.3,0-.11.05-.29,0-.38.25-1.05-.32-1.98-.66-3.11-.57-1.84-.25-4.08-1.61-5.58-.9-1-2.32-1.62-3.39-2.25-.46-.27-1.13-.27-1.51-.75-1.96-3.02-2.02-8.85-2.11-12.72,1.75.62,6.69,11.26,8.58,7.12,2.58.54,5.02,3.01,7.48,2.98h.31c.44-.25.56-.75.51-1.59l8.58-2.26c.66-.17.99-.53.79-1.25-.1-.36-.65-.6-1.12-.51-.1.02-.29.02-.38-.02-3.31-3.02-11.77-6.11-16.07-8.47l-4.13-2.26-3.46-1.84-7.36-3.61c-1.57-.77-3.29-1.77-4.83-2.35l-34.21-.42c0-.45.2-.78.25-1.11.24-1.64-4.29-1.19-5.53-2.38-.01-.31.64-.65.24-.94-.01-.1.16-.31.04-.44-.11-.49-.58-.62-1.14-.77l-9.75-2.71c-1.87-2.59-3.63-5.07-5.65-7.54-.34-.41-.94-.39-1.24-.34-.38.06-.8,6.35-1.3,7.74l-5.91,2.43c-.83.34-1.29,1.34-1.68,2.07-2.14,3.99-5.64,2.86-5.43,4.47ZM125.23,102.96l9.83-11.9c-1.61-4.37-4.08-5.3-2.23-9.5l-5.17-6.88c-2.47.95-4.57,1.6-6.8,2.73.42,1.7-.04,3.68.68,5.06l6.89,8.56-5.31,7.54c-1.36.31-2.97-.37-4.04.33-1.25.86-1.68,2.74-2.41,3.88,3.47.1,5.29.64,8.55.19ZM81.62,93.08c.84-1.77,1.46-3.5,2.42-5.23l13.07-5.95c-2.35-1.7-4.32-3.04-6.97-4.48-10.81,8.9-8.77,3.88-13.93,17.23.2,1.51,1.15,2.89,1.86,4.15,6.16-4.55,2.86-4.28,3.55-5.72ZM77.03,118.19c-.12.03-.26-.04-.38,0-2.01.68-4.63,1.12-6.14,2.88-1.19,1.39-1.59,3.23-3.29,3.91-.27.11-.39.37-.75.38-.12,0-7.46,2.75-7.03,3.5l-.02.31c0,.06,0,.19-.14.45,1.38,1.53,2.76,3.09,5.13,3.84.05.28-.52.2-.62.61h-.35c-1.27,0-2.75-.49-3.8.36-.14.11-.49.05-.45.28.04.19-.08.63.12.83,2.42,2.5,5.04,1.23,7.11.81.46.52,1.45,1.78,2.3,1.54l6.85-2.01c1.18-.35,2.39-.39,3.58-.31.49,1.09.9,2.01,1.68,2.6.12.09.26.19.37.3.64,1.94,2.17,3.43,3.26,5.44l1.23-2.77c1.32.48,3.5,5.23,5.23,6.46,2.62,1.85,5.25,3.54,7.99,4.81.08.15.25.31.38.43l4.78,13.25c-.2,1.08-.78,1.83-1,2.69-.02.09-.06.23-.04.32-2.09,2.11-.33.97-3.91,1.38-.73,1.42-1.64,2.61-2.04,4.06,2.74.14,5.25.27,7.82-.09.6-1.35,1.65-2.21,1.98-3.45.03-.13.12-.32.1-.45l2.23-3.66-2.09-14.24c.81-.22,1.4-.29,1.58-.79.09.03.28-.03.38-.03,1.04-.84,3.26-.63,3.4-1.47.12,0,.26,0,.38-.04.06-.01,7.24-2.13,6.04-2.71,1.52-.04,2.57-.59,3.77-1.51,1.74.21,3.4-.71,5.12-1.65,1.5.84,2.04,2.49,3.21,3.51.11.1.29.31.44.34.17.64.54,1.2,1.09,1.58.17.11.3.28.45.41.35,1.33,1.66,2.23,2.45,3.42,1.19,1.79,2.87,2.48,4.7,3.33l5.08,2.37c1.2.56,2.29,1.19,3.43,1.81l3.15,8.74c-2.53.74-2.43,1.67-4.05,4.5,3.68.05,6.57,1.16,7.59-1.84.05-.13.16-.27.19-.41.17.05.38.04.51-.08.21-.18.27-.47.28-.73,0-.1.05-.22.02-.32.19.15.38.05.48-.07.12-.16.31-.43.23-.75l-3.03-11.78c-.38-1.5-.98-2.4-2.35-3.18l-3.27-1.88c-.05-.2-.36-.33-.45-.52-.07-.15-.16-.29-.28-.41,0-.11-.04-.23-.02-.35.09-.69-.55-1.27-.65-2.03l-1.38-11.18c.15-.28-.21-.83.05-1.14.15-.17.25-.03.39-.03.04.72.31,1.48,1.07,1.63,0,.27.32.44.4.65.32.87.46,2.15,1.47,2.37-.02.1.03.22.03.32,0,.44.31.76.74.81.06.34.44.5.59.77.87,1.59,2.35,2.79,3.65,3.98.23-.8.13-1.39.62-1.93l4,2.33c1.22.71,2.74.94,4.06,2.04.38-.67-.03-1.04-.11-1.52.1-.19.23-.35.39-.49,3.13-.75,6.22-1.5,9.56-2.81-7.03-3.96-14.05-7.43-21.16-10.81-.08-.04-.23-.04-.32-.03-.03-.83-1.04-.9-1.76-1.25-3.05-1.51-5.87-3.19-8.89-4.38-.1-.04-.27-.04-.38-.03-.58-.85-1.68-1.13-2.61-1.48-.08-.03-.25-.06-.32-.03,1.09-.22-2.99-1.39-2.44-1.39l-34.28.05c-.04-.89.92-.81,1.22-1.84-2.33-.76-4.76-1.01-6.87-2.05l.05-.43c.48-.19.91-.43,1.3-.79-3.37-1.28-6.63-2.39-10.19-2.85l-3.57-4.2c-.4-.48-.46-1.17-1.08-1.21-.06-.27-.25-.45-.42-.64-.1-.12,0-.4-.1-.56-.13-.23-.39-.34-.67-.26,0-.09-.03-.18-.05-.27-.16-.65-.67-1.19-1.36-1.21-1.11,2.33-.74,5.28-1.62,7.93ZM116.83,174.58l8.46.03,9.79-11.85c-1.76-4.55-4.02-5.42-2.33-9.8l-5.08-6.56-6.77,2.75c.34,1.69.04,3.61.58,5.06l7,8.53-5.37,7.56-4.1.13c-.83,1.34-1.77,2.58-2.19,4.13ZM81.86,167.04c-.84-2.81,1.2-4.96,2.42-7.58l12.8-5.88c-2.29-1.62-4.46-2.98-6.85-4.33l-10.11,7.48c-1.09,3.27-2.81,6.11-3.7,9.43-.39,1.44,1.08,3.01,1.62,4.42,1.49-1.34,2.77-2.14,3.82-3.55Z"/>
      <path class="st23" d="M135.51,54.81c-.14.11-.27.24-.38.38h-32.44c-1.02-.22-1.84-.17-2.65,0l.02-.39c.35-.52.85-.93,1.1-1.5l.39-.02c-.05.33-.25.66-.25,1.11l34.21.42Z"/>
      <path class="st7" d="M155.13,101.97l.04-.76c.13-.09.24-.25.33-.37.43-.58,1.42-1.35,1.36-2.24-.13-1.75-1.07-3.29-.98-4.93,1.5,4.14,2.44,5.25-.75,8.3Z"/>
      <path class="st7" d="M155.89,93.29c-1.6-1.9-1.14-9.61-4.15-9.43-.11-.13-.25-.26-.38-.38-.4-.36-.88-.64-1.13-1.13,1.07.63,2.48,1.25,3.39,2.25,1.35,1.5,1.04,3.74,1.61,5.58.34,1.12.91,2.06.66,3.11Z"/>
      <path class="st11" d="M80.02,111.47l-1.36.03c.01-.41-.04-.83,0-1.24.69.02,1.2.56,1.36,1.21Z"/>
      <g>
        <path class="st22" d="M81.62,93.08c-.69,1.44,2.61,1.18-3.55,5.72-.71-1.25-1.66-2.64-1.86-4.15,5.16-13.35,3.12-8.34,13.93-17.23,2.65,1.44,4.61,2.78,6.97,4.48l-13.07,5.95c-.96,1.73-1.58,3.46-2.42,5.23Z"/>
        <path class="st14" d="M72.85,60.51c-.09,1.22-5.24,3.34-5.99,4.31-1.13-.64-4.48,1.9-6.81-.51-.42-.44-.99-1.34-.38-1.57,5.66.53,8.55-2.18,13.18-2.24Z"/>
        <path class="st11" d="M137.11,127.92c-.32.14-1.29-.63-2.04-.63l-35.21-.13c-.31-.7.67-1.38.6-2.14-.6-.6-7.21-1.06-5.72-2.33,2.11,1.04,4.55,1.3,6.87,2.05-.3,1.02-1.26.95-1.22,1.84l34.28-.05c-.55,0,3.53,1.17,2.44,1.39Z"/>
        <path class="st11" d="M151.07,135.09c-.91.17-1.57-.56-2.43-.97l-7.1-3.46c-.61-.3-1.26-.5-1.12-1.2,3.02,1.19,5.84,2.87,8.89,4.38.72.35,1.73.42,1.76,1.25Z"/>
        <path class="st7" d="M66.47,125.36c-1.66,1.39-5,2.38-7.03,3.5-.44-.75,6.9-3.5,7.03-3.5Z"/>
        <g>
          <path class="st26" d="M96.3,49.52c.12.13-.05.34-.04.44-.69.18-1.35.62-1.74,1.19,2.33.79,4.66,1.03,6.65,2.14-.25.57-.75.98-1.1,1.5-.11.16-.51.06-.4.39.05.15-.04.38.4.38h35.44c.12,0,.27-.04.38,0,.97.92,2.11,1.55,3.4,1.89,1.4.36,2.89.99,4.25,1.81,2.59,1.57,7.2,3.52,10.79,5.46,5.7,3.07,11.28,6.01,17.03,8.63.09.04.28.04.38.02.26-.05,1.12.8.71.94-3.22,1.08-6.32,1.87-9.64,2.68l.18,1.98h-.31c-1.32-.52-2.52-1.45-3.92-2.13l-4.37-2.12-.54,1.67c-2.32-1.29-7.46-8.92-7.76-10.65-.12-.69-.37-.04-.61-.02-.64.03-.49.41-.33.93.66,2.05-.58,5.27.93,4.75v.75c-1.14.07.61,9.81,1.89,9.06.1.13.32.22.38.38.44,1.17,1.86,1.63,3.02,1.89.13.12.27.24.38.38.33.4,1.12.67,1.28,1.37l3.32,13.72c-.22.79-.77,1.25-.84,1.9-.09.13-.2.29-.33.37-.31.21-.58.82-1.02,1.03-1.8.3-3.5.22-5.37.06,1.04-4.34,1.48-1.98,3.78-4.09l-3.19-8.53c-.5-1.34-5.16-3.09-6.83-3.8-.89-.38-1.61-1.08-2.51-.79-.11.03-.27-.01-.38-.03-.08-.18-.21-.34-.4-.41-.1-.04-.22-.05-.32-.07-3.27-2-4.23-5.13-5.93-5.95-.18-.09-.29-.34-.46-.44,0-.26.03-.56-.12-.84-.12-.21-.44-.28-.7-.29l-.31-.37c-.12-.87-.66-1.62-1.51-1.89-.04-.07-.06-.21-.06-.3,0-.25.04-.6-.21-.77-.15-.11-.39-.07-.54-.07-.02-.15-.25-.24-.32-.37-.03-.41-.47-1.38-.99-1.1-.19.1-.16.58-.22.73-.21-.02-.53.08-.73.03-.6-.71-3.97,1.3-4.88,1.95-1.4,1-3.28,1.41-4.93,1.89-1.13.33-2.81.18-3.4,1.49l-6.53,2.81,2.07,14.15-4.27,7.54-7.72-.02c.43-1.51,1.17-2.69,1.86-4.03l3.24-.27c.25-1.33,1.95-2.88,1.53-4.38-1.25-4.47-3.14-8.67-4.66-12.94-9.06-6.02-7.08-3.04-13.36-12-.66,1.01-.68,2.21-1.42,2.96-1.95-2.76-3.3-5.53-5.32-8.07-.49-.62-2.06-.34-2.75-.12l-6.9,2.15c-1.1.34-1.99-.5-2.54-1.23.75-.98,5.9-3.1,5.99-4.31.35-.11.77-.12,1.11-.34-1.71-4.12-10.62,5.61-14.24-3.11,1.67-.8,3.17-1.03,4.1-2.15.12,0,.26,0,.38-.04,1.59-.36,3.4-1.26,4.68-2.48.96-.92,1.13-2.36,2.02-3.37l7.03-2.78c.42-2.59.45-5.31,1.12-7.63,2.74,2.26,3.94,6.03,6.73,7.79,3.11,1.82,7.15,2.25,10.53,3.13ZM75.67,51.27c-.73-.6-2.02-.3-2.51.05-.36.25-.88.83-.67,1.42.22.65,1.57.45,2.15.27.55-.18,1.48-1.36,1.03-1.73Z"/>
          <path class="st4" d="M125.23,102.96c-3.26.45-5.08-.09-8.55-.19.73-1.14,1.17-3.02,2.41-3.88,1.07-.7,2.67-.02,4.04-.33l5.31-7.54-6.89-8.56c-.72-1.38-.26-3.36-.68-5.06,2.22-1.12,4.33-1.78,6.8-2.73l5.17,6.88c-1.85,4.2.62,5.13,2.23,9.5l-9.83,11.9Z"/>
          <path class="st7" d="M63.83,54.91c-.93,1.12-2.44,1.35-4.1,2.15,3.62,8.72,12.54-1.01,14.24,3.11-.35.21-.77.22-1.11.34-4.63.06-7.52,2.77-13.18,2.24-.52-.77,3.72,0,4.51-.93-2.15-.93-3.88-2.33-5.17-4.44,1.39-1.36,3.1-2.51,4.82-2.47Z"/>
          <path class="st11" d="M155.18,101.21l-.04.76c-.3.29-1.04.8-1.51.97-1.93.37-3.64-.23-5.74-.09.45-2.13,1.65-3.97,4.02-4.5l-3.32-9.17c-1.65-.69-7.8-3.09-8.53-4.09.9-.29,1.62.41,2.51.79,1.67.71,6.33,2.46,6.83,3.8l3.19,8.53c-2.3,2.11-2.73-.26-3.78,4.09,1.87.16,3.57.25,5.37-.06.44-.2.71-.82,1.02-1.03Z"/>
          <path class="st7" d="M162.67,78.98c-2.46.03-4.9-2.44-7.48-2.98-1.89,4.14-6.83-6.51-8.58-7.12.09,3.87.15,9.7,2.11,12.72h-.38c-.06-.16-.27-.25-.38-.38l-1.48-3.75c-.66-1.67.06-3.64-.41-5.3v-.75l-.4-4.17c-.06-.59-.16-1.34.4-1.49.31,1.72,5.44,9.36,7.76,10.65l.54-1.67,4.37,2.12c1.41.68,2.6,1.61,3.92,2.13Z"/>
          <path class="st7" d="M96.3,49.52c-3.37-.88-7.41-1.31-10.53-3.13-2.79-1.76-3.99-5.53-6.73-7.79-.67,2.32-.7,5.05-1.12,7.63l-7.03,2.78c-.88,1.01-1.06,2.45-2.02,3.37-1.27,1.22-3.08,2.12-4.68,2.48-.22-1.61,3.29-.48,5.43-4.47.39-.73.85-1.73,1.68-2.07l5.91-2.43c.5-1.39.92-7.68,1.3-7.74.3-.05.91-.07,1.24.34,2.02,2.47,3.78,4.95,5.65,7.54l9.75,2.71c.56.16,1.03.28,1.14.77Z"/>
          <path class="st11" d="M155.89,93.29c.05.09,0,.27,0,.38-.09,1.64.85,3.18.98,4.93.06.89-.93,1.65-1.36,2.24.06-.65.62-1.11.84-1.9l-3.32-13.72c-.17-.7-.95-.96-1.28-1.37,3.01-.18,2.55,7.53,4.15,9.43Z"/>
          <path class="st7" d="M171.36,73.35c-5.76-2.62-11.33-5.56-17.03-8.63-3.59-1.93-8.2-3.89-10.79-5.46-1.36-.82-2.84-1.45-4.25-1.81-.73-1.08-2.18-1.51-3.4-1.89-.11-.03-.26,0-.38,0-.04-.16-.19-.38-.38-.38.11-.14.24-.27.38-.38,1.54.58,3.26,1.58,4.83,2.35l7.36,3.61,3.46,1.84,4.13,2.26c4.3,2.36,12.76,5.45,16.07,8.47Z"/>
          <path class="st7" d="M96.27,49.96c.4.28-.25.62-.24.94,1.24,1.19,5.77.74,5.53,2.38l-.39.02c-1.99-1.11-4.32-1.34-6.65-2.14.4-.57,1.05-1.01,1.74-1.19Z"/>
          <path class="st7" d="M162.98,78.97l-.18-1.98c3.32-.8,6.42-1.6,9.64-2.68.41-.14-.45-.99-.71-.94.47-.1,1.02.15,1.12.51.2.72-.12,1.07-.79,1.25l-8.58,2.26c.05.84-.06,1.34-.51,1.59Z"/>
          <path class="st11" d="M138.94,84.57c-2.46-.46-4.79-3.9-5.93-5.95,1.7.82,2.66,3.95,5.93,5.95Z"/>
          <path class="st11" d="M126.84,72.94c-1.47.94-3.13,1.78-4.88,1.95.91-.65,4.27-2.66,4.88-1.95Z"/>
          <path class="st11" d="M117.03,76.78c-.74,1.05-2.19,1.2-3.4,1.49.59-1.31,2.27-1.16,3.4-1.49Z"/>
          <path class="st11" d="M131.41,76.68c-.51-.61-1.11-1.19-1.51-1.89.85.27,1.38,1.02,1.51,1.89Z"/>
          <path class="st11" d="M128.77,73.28c-.38-.18-.79-.3-1.21-.37.06-.15.03-.63.22-.73.52-.28.96.69.99,1.1Z"/>
          <path class="st11" d="M132.55,78.18c-.54-.11-.89-.58-.82-1.13.26.01.58.07.7.29.15.28.13.58.12.84Z"/>
          <path class="st11" d="M150.23,82.35c.25.49.73.77,1.13,1.13-1.16-.26-2.58-.71-3.02-1.89h.38c.37.48,1.05.48,1.51.75Z"/>
          <path class="st11" d="M129.84,74.49c-.28.07-.62-.02-.66-.29l-.08-.56c.16,0,.4-.03.54.07.24.17.2.53.21.77Z"/>
          <path class="st11" d="M139.66,85.05c-.21-.04-.59-.12-.4-.41.19.07.32.23.4.41Z"/>
          <path class="st22" d="M135.14,55.18c.18,0,.34.22.38.38h-35.44c-.44,0-.36-.23-.4-.38.12-.02.26.03.38,0,.81-.17,1.63-.22,2.65,0h32.44Z"/>
          <path class="st14" d="M75.67,51.27c.45.37-.49,1.56-1.03,1.73-.58.19-1.93.38-2.15-.27-.2-.59.32-1.17.67-1.42.49-.34,1.78-.65,2.51-.05Z"/>
          <path class="st11" d="M146.08,65.75c-.55.15-.45.91-.4,1.49l.4,4.17c-1.51.52-.28-2.71-.93-4.75-.17-.52-.31-.9.33-.93.23-.01.48-.67.61.02Z"/>
          <path class="st11" d="M147.96,81.22c-1.28.75-3.03-8.99-1.89-9.06.47,1.66-.25,3.63.41,5.3l1.48,3.75Z"/>
          <path class="st22" d="M139.29,57.45c-1.29-.33-2.43-.97-3.4-1.89,1.22.38,2.67.81,3.4,1.89Z"/>
          <path class="st15" d="M100.05,55.18c-.12.03-.26-.02-.38,0-.1-.33.29-.23.4-.39l-.02.39Z"/>
        </g>
        <g>
          <path class="st25" d="M80.02,111.47c.02.08.04.18.05.27.01.17-.02.37.06.56.11.26.45.28.71.26.16.2.36.38.42.64-.44.25,3.82,5.11,4.13,5.3,3.43,2.12,9.63,2.01,9.41,3.75l-.05.43c-1.49,1.27,5.13,1.73,5.72,2.33.07.76-.92,1.44-.6,2.14l35.21.13c.76,0,1.72.77,2.04.63.07-.03.24,0,.32.03.01,1.19,1.58,1.55,2.61,1.48.11,0,.28,0,.38.03-.14.71.51.9,1.12,1.2l7.1,3.46c.85.42,1.52,1.14,2.43.97.09-.02.24,0,.32.03-1.4-.11,2.11,1.65,2.4,1.8l17.4,8.84c-1.35,1.03-8.65,1.73-8.2,2.98-.16.13-.29.3-.39.49-.4.22-1,.42-1.56.12l-5.7-3.07c-.74-.4-1.68.3-2.3.05-1.1-.45-1.64-1.67-2.67-1.99-.15-.27-.53-.43-.59-.77.07-.25.17-.68-.14-.81-.19-.08-.45,0-.61,0,0-.11-.04-.22-.03-.32.17-1.06-.73-1.73-1.47-2.37-.08-.21-.4-.37-.4-.65.09-.75-.24-1.67-1.07-1.63-.14,0-.24-.14-.39.03.2-.27-.08-.53,0,0-.27.31.1.86-.05,1.14-.78,1.48-.14,3.21-.02,4.94.14,1.94.25,8.02,2.04,8.27-.02.11.02.23.02.35,0,.18.11.35.28.41.09.19.4.32.45.52.26.98,3.44,2.16,4.64,3.19l3.3,14.48c.02.1-.02.22-.02.32-.27-.07-.63-.06-.74.21-.08.2-.02.42-.05.59-.02.14-.14.27-.19.41l-1.4,1.42c-1,1.02-3.39.04-5.07-.08.56-3.68,2.76-2.98,3.08-3.71.65-1.49-2.18-7.57-2.94-9.7l-9.58-4.37c-4.3-1.96-2.82-2.7-6.45-5.88-.15-.13-.29-.3-.45-.41-.08-.7-.34-1.42-1.09-1.58-.15-.03-.32-.24-.44-.34-.42-1.5-1.64-2.38-2.68-4.09-1.82.83-4.05,1.02-5.65,2.23-1.21.91-2.25,1.47-3.77,1.51.02,0-6.64,1.96-6.04,2.71-.12.03-.26.04-.38.04-1.19,0-2.78.4-3.4,1.47-.1,0-.28.07-.38.03-.7-.24-1.31.23-1.82.55-.84.52-.26,1.26-.14,2.1l1.29,8.93c1,6.9-1.41,4.95-1.05,7.12.02.13-.07.32-.1.45-1.06-.51-1.26,2.85-2.7,3.02-2.05.25-3.96-.03-6.04,0-.07-1.37.89-2.84,2.22-2.98.83-.08,1.48.13,2.06-.45.34-.34.75-.84.6-1.5-.02-.09.02-.23.04-.32,1.96-1.25,1.3-3.42.53-5.48l-2.27-6.04c-.6-1.6-.81-3.32-2.04-4.43-.13-.12-.3-.28-.38-.43-.55-1.03-1.79-1.4-2.83-2.04l-3.72-2.3c-3.34-2.07-5.52-7.98-6.81-7.56-.49.16-.73,1.26-1.22,1.46-.68.27-1.62-1.83-3.14-3.49-.1-.11-.24-.21-.37-.3-.31-1.14-1.16-3.28-2.59-3.27-3.71.02-11.16,4.26-10.25,1.05.1,0,.24.01.32-.03,1.18-.7,2.94-.9,3.43-2.25.23-.08.41-.35.68-.39.17-.03.36-.24.45-.37l.29-.38c.11-.15.26-.34.42-.44.23-.14.39-.41.39-.69-1.19-4.45-9.88,5.21-13.51-2.28,2.72-2.06,6.35-2.19,7.87-4.13.21-.27.43-.62.75-.75.99.47.99-2.56,2.18-3.06l6.38-2.72c1.02-.44,1.57-7,.87-6.29.05-.21.11-.44.11-.65l1.36-.03ZM75.6,122.93c-1.13-.61-3.34-.26-3.1,1.51.09.64,1.66.5,2.19.28s1.32-1.37.9-1.79Z"/>
          <path class="st22" d="M116.83,174.58c.42-1.55,1.36-2.79,2.19-4.13l4.1-.13,5.37-7.56-7-8.53c-.55-1.45-.24-3.37-.58-5.06l6.77-2.75,5.08,6.56c-1.69,4.38.57,5.25,2.33,9.8l-9.79,11.85-8.46-.03Z"/>
          <path class="st22" d="M81.86,167.04c-1.05,1.41-2.34,2.21-3.82,3.55-.54-1.41-2-2.98-1.62-4.42.89-3.32,2.61-6.15,3.7-9.43l10.11-7.48c2.38,1.34,4.56,2.71,6.85,4.33l-12.8,5.88c-1.21,2.61-3.25,4.77-2.42,7.58Z"/>
          <path class="st24" d="M73.17,132.15v.38s-.27.38-.27.38c-.19.06-.36.18-.45.37-.27.04-.45.31-.68.39-1.26.44-2.56,1.23-3.43,2.25-.08.05-.23.03-.32.03-.55.04-1.05.3-1.58.41-2.07.41-4.69,1.69-7.11-.81-.2-.2-.07-.64-.12-.83-.05-.23.31-.17.45-.28,1.27.43,2.77.6,3.8-.36h.35c3.19,0,6.21-1.49,9.37-1.92Z"/>
          <path class="st11" d="M162.99,148.73c-.45-1.25,6.85-1.95,8.2-2.98l-17.4-8.84c-.29-.15-3.8-1.9-2.4-1.8,7.11,3.37,14.14,6.85,21.16,10.81-3.34,1.31-6.44,2.06-9.56,2.81Z"/>
          <path class="st7" d="M73.99,131.4c0,.27-.16.55-.39.69l-.44.06c-3.16.43-6.18,1.92-9.37,1.92.1-.41.67-.33.62-.61-2.37-.76-3.75-2.31-5.13-3.84.14-.26.13-.38.14-.45,1.06,1.35,2.81,3.45,4.74,3.54,2.9.14,8.14-3.12,9.83-1.31Z"/>
          <path class="st11" d="M108.73,151.87c-.18.5-.77.57-1.58.79l2.09,14.24-2.23,3.66c-.36-2.17,2.05-.21,1.05-7.12l-1.29-8.93c-.12-.83-.7-1.57.14-2.1.51-.32,1.12-.78,1.82-.55Z"/>
          <path class="st11" d="M156.34,171.09l-3.3-14.48c-1.2-1.03-4.38-2.2-4.64-3.19l3.27,1.88c1.36.78,1.96,1.69,2.35,3.18l3.03,11.78c.08.32-.11.59-.23.75-.1.13-.29.23-.48.07Z"/>
          <path class="st11" d="M80.85,138.17c-.78-.59-1.19-1.51-1.68-2.6-1.19-.08-2.4-.04-3.58.31l-6.85,2.01c-.85.25-1.84-1.02-2.3-1.54.53-.11,1.03-.37,1.58-.41-.91,3.21,6.54-1.02,10.25-1.05,1.43,0,2.28,2.13,2.59,3.27Z"/>
          <path class="st11" d="M155.34,172.63c-1.02,3-3.91,1.89-7.59,1.84,1.62-2.82,1.52-3.76,4.05-4.5l-3.15-8.74c-1.15-.62-2.23-1.25-3.43-1.81l-5.08-2.37c-1.82-.85-3.5-1.54-4.7-3.33-.79-1.19-2.1-2.09-2.45-3.42,3.63,3.17,2.15,3.91,6.45,5.88l9.58,4.37c.76,2.13,3.59,8.22,2.94,9.7-.32.74-2.52.03-3.08,3.71,1.68.12,4.07,1.1,5.07.08l1.4-1.42Z"/>
          <path class="st11" d="M147.65,152.15c-1.79-.25-1.91-6.33-2.04-8.27-.12-1.73-.76-3.46.02-4.94l1.38,11.18c.09.76.74,1.34.65,2.03Z"/>
          <path class="st11" d="M106.9,171.01c-.34,1.25-1.39,2.1-1.98,3.45-2.57.36-5.08.23-7.82.09.4-1.46,1.3-2.64,2.04-4.06,3.58-.41,1.82.73,3.91-1.38.15.66-.26,1.16-.6,1.5-.58.58-1.23.37-2.06.45-1.34.13-2.29,1.61-2.22,2.98,2.08-.02,3.99.25,6.04,0,1.44-.17,1.64-3.53,2.7-3.02Z"/>
          <path class="st11" d="M94.79,122.26c.22-1.74-5.98-1.63-9.41-3.75-.32-.19-4.57-5.05-4.13-5.3.62.04.68.73,1.08,1.21l3.57,4.2c3.56.46,6.82,1.57,10.19,2.85-.39.36-.82.6-1.3.79Z"/>
          <path class="st11" d="M103.08,168.79c.22-.87.81-1.61,1-2.69l-4.78-13.25c1.23,1.11,1.44,2.83,2.04,4.43l2.27,6.04c.77,2.06,1.44,4.23-.53,5.48Z"/>
          <path class="st11" d="M162.6,149.21c.08.48.49.86.11,1.52-1.33-1.1-2.84-1.33-4.06-2.04l-4-2.33c-.49.53-.39,1.13-.62,1.93-1.3-1.19-2.78-2.39-3.65-3.98,1.03.32,1.57,1.54,2.67,1.99.62.26,1.56-.45,2.3-.05l5.7,3.07c.55.3,1.16.1,1.56-.12Z"/>
          <path class="st11" d="M98.93,152.41c-2.74-1.28-5.37-2.96-7.99-4.81-1.73-1.22-3.91-5.97-5.23-6.46l-1.23,2.77c-1.09-2.01-2.61-3.5-3.26-5.44,1.52,1.66,2.46,3.77,3.14,3.49.49-.2.73-1.3,1.22-1.46,1.29-.42,3.47,5.5,6.81,7.56l3.72,2.3c1.04.64,2.28,1.01,2.83,2.04Z"/>
          <path class="st11" d="M69.11,124.23c2.04-5.31,3.98-3.6,7.55-6.04.11-.04.26.03.38,0,1.27-.34,1-3.96,1.51-6.04.7-.71.16,5.86-.87,6.29l-6.38,2.72c-1.19.51-1.19,3.53-2.18,3.06Z"/>
          <path class="st11" d="M131.01,147.97c-1.17-1.02-1.71-2.68-3.21-3.51-1.72.95-3.38,1.86-5.12,1.65,1.6-1.21,3.83-1.4,5.65-2.23,1.03,1.71,2.26,2.59,2.68,4.09Z"/>
          <path class="st11" d="M118.91,147.62c1.2.57-5.98,2.69-6.04,2.71-.6-.75,6.06-2.71,6.04-2.71Z"/>
          <path class="st7" d="M78.65,110.26c-.04.41,0,.83,0,1.24,0,.21-.06.45-.11.65-.51,2.08-.24,5.69-1.51,6.04.88-2.65.51-5.6,1.62-7.93Z"/>
          <path class="st11" d="M68.35,124.98c-1.53,1.94-5.15,2.08-7.87,4.13,3.63,7.49,12.33-2.17,13.51,2.28-1.7-1.81-6.93,1.45-9.83,1.31-1.93-.09-3.68-2.19-4.74-3.54l.02-.31c2.03-1.12,5.37-2.11,7.03-3.5.36,0,.48-.27.75-.38h1.13Z"/>
          <path class="st7" d="M63.45,134.07c-1.02.96-2.52.79-3.8.36,1.05-.85,2.52-.36,3.8-.36Z"/>
          <path class="st11" d="M140.04,129.42c-1.03.07-2.6-.28-2.61-1.48.94.34,2.03.63,2.61,1.48Z"/>
          <path class="st11" d="M149.02,142.42c-1.01-.22-1.15-1.5-1.47-2.37.74.64,1.64,1.31,1.47,2.37Z"/>
          <path class="st11" d="M147.14,139.41c-.77-.15-1.03-.92-1.07-1.63.83-.04,1.17.88,1.07,1.63Z"/>
          <path class="st11" d="M132.53,149.89c-.55-.38-.92-.94-1.09-1.58.75.16,1.01.88,1.09,1.58Z"/>
          <path class="st11" d="M112.5,150.36c-.14.84-2.35.63-3.4,1.47.62-1.07,2.2-1.47,3.4-1.47Z"/>
          <path class="st7" d="M76.65,118.19c-3.57,2.43-5.5.73-7.55,6.04-.33.14-.54.48-.75.75h-1.13c1.71-.68,2.11-2.52,3.29-3.91,1.51-1.76,4.13-2.21,6.14-2.88Z"/>
          <path class="st11" d="M80.83,112.56c-.26.03-.6,0-.71-.26-.08-.19-.04-.4-.06-.56.28-.08.54.03.67.26.09.16,0,.44.1.56Z"/>
          <path class="st11" d="M156.32,171.42c0,.25-.07.55-.28.73-.14.12-.34.13-.51.08.03-.17-.03-.39.05-.59.11-.27.47-.28.74-.21Z"/>
          <path class="st11" d="M149.78,143.55c-.43-.05-.75-.37-.74-.81.16,0,.41-.08.61,0,.3.13.2.56.14.81Z"/>
          <path class="st11" d="M147.96,152.91c-.17-.07-.27-.23-.28-.41.11.12.21.26.28.41Z"/>
          <path class="st14" d="M75.6,122.93c.41.42-.38,1.57-.9,1.79s-2.11.36-2.19-.28c-.24-1.77,1.97-2.12,3.1-1.51Z"/>
          <path class="st11" d="M71.76,133.66c-.49,1.35-2.24,1.55-3.43,2.25.87-1.02,2.17-1.81,3.43-2.25Z"/>
          <path class="st11" d="M73.18,132.52v-.38s.42-.06.42-.06c-.17.1-.31.29-.42.44Z"/>
          <path class="st11" d="M145.68,137.8c-.04-.26.01-.33.05-.3s.06.16-.05.3Z"/>
          <path class="st11" d="M72.44,133.27c.09-.18.26-.3.45-.37-.1.13-.28.34-.45.37Z"/>
        </g>
      </g>
    </g>
    <g>
      <path class="st10" d="M47.62,116.27c-.08.19-1.72,2.93-1.82,2.95-.58.13-1.1-.02-1.6.04l-4.6-4.35c-1.82-1.72-3.14-3.17-5.47-2.61-.7.17-.84,1.11-1.43,1.58-1.96,1.58-3.63,3.29-5.41,5.09-.43.44-1.08.87-1.55.53-1.1-.81-.73-6.13-.44-7.48l5.6-5.99-5.38-6.04c-.27-.3-1.44-7.49.79-7.71.33-.03.65.33.96.63l5.51,5.42c1.23,1.21,3.02,1.54,4.54.57,2.66-1.7,4.83-3.94,7.02-6.22.42-.43.91-.55,1.39-.3.24.12.61.45.62.97.16,8.23-.11,5.56-1.74,7.92-1.19,1.73-2.67,3.08-4.44,4.45,2.01,2.47,4.64,4.01,5.97,6.74.58,1.19.27,2.89,1.49,3.83ZM45.29,118.65c-.04-2.1,1.08-4.87-.18-6.26l-5.92-6.56c5.52-6.46,7.12-4.15,6.02-12.56l-9.56,9.21-9.59-9.66c.04,2.3-.41,4.76.14,6.67l6.09,6.33-6.1,6.49c-.43,1.92-.36,4.43.1,6.44l9.37-9.52,9.63,9.42Z"/>
      <path class="st17" d="M45.29,118.65l-9.63-9.42-9.37,9.52c-.46-2.01-.53-4.53-.1-6.44l6.1-6.49-6.09-6.33c-.55-1.91-.1-4.37-.14-6.67l9.59,9.66,9.56-9.21c1.1,8.41-.5,6.1-6.02,12.56l5.92,6.56c1.26,1.39.14,4.16.18,6.26Z"/>
    </g>
  </g>
</svg>