<?xml version="1.0" encoding="UTF-8"?>
<svg id="Capa_2" data-name="Capa 2" xmlns="http://www.w3.org/2000/svg" xmlns:xlink="http://www.w3.org/1999/xlink" viewBox="0 0 450.21 450.03">
  <defs>
    <style>
      .cls-1 {
        stroke: #ec5f42;
      }

      .cls-1, .cls-2, .cls-3, .cls-4 {
        fill: none;
      }

      .cls-1, .cls-3, .cls-4 {
        stroke-miterlimit: 10;
        stroke-width: 3px;
      }

      .cls-5 {
        fill: #f5b4cd;
      }

      .cls-5, .cls-6, .cls-7 {
        fill-rule: evenodd;
      }

      .cls-8, .cls-9 {
        fill: #fff;
      }

      .cls-9 {
        font-family: Bicyclette-Regular, Bicyclette;
        font-size: 37.87px;
      }

      .cls-6 {
        fill: #000003;
      }

      .cls-7, .cls-10 {
        fill: #ec5f42;
      }

      .cls-11 {
        fill: #cd860e;
      }

      .cls-3 {
        stroke: #ce870f;
      }

      .cls-4 {
        stroke: #ea5d40;
      }

      .cls-12 {
        clip-path: url(#clippath);
      }
    </style>
    <clipPath id="clippath">
      <rect class="cls-2" x="144.26" y="151.25" width="163.37" height="92.51"/>
    </clipPath>
  </defs>
  <g id="Layer_1" data-name="Layer 1">
    <g>
      <g>
        <path class="cls-7" d="M218.96.15c-1.33.03-4.74.22-7.56.38-2.83.16-7.01.48-9.27.72-2.29.23-6.45.74-9.27,1.15-2.83.39-8.03,1.29-11.56,2-3.55.7-9.13,1.96-12.43,2.81-3.3.84-8.5,2.34-11.56,3.31-3.06.96-7.56,2.49-9.99,3.41-2.43.9-6.28,2.41-8.55,3.37-2.29.94-6.27,2.7-8.86,3.91-2.59,1.21-6.32,3.03-8.28,4.05-1.96,1.04-5.49,2.97-7.85,4.32-2.34,1.33-5.94,3.49-8,4.77-2.03,1.28-5.19,3.33-6.99,4.56-1.8,1.21-5.73,4.05-8.7,6.28-2.99,2.24-6.84,5.24-8.57,6.68-1.73,1.44-4.11,3.48-5.28,4.52-1.17,1.04-3.94,3.58-6.14,5.66-2.2,2.05-5.67,5.51-7.73,7.69-2.05,2.18-4.3,4.61-5.01,5.4-.68.78-1.33,1.48-1.4,1.57-.09.08-1.51,1.75-3.17,3.71-1.66,1.96-4.29,5.22-5.87,7.28-1.57,2.04-3.75,4.91-4.81,6.41-1.08,1.5-3.53,5.1-5.44,8-1.91,2.9-4.77,7.53-6.37,10.26-1.6,2.75-4.3,7.76-6.01,11.13-1.71,3.37-3.96,8.07-5.01,10.41-1.04,2.36-2.7,6.34-3.71,8.84-.99,2.52-2.59,6.88-3.55,9.71-.97,2.83-2.39,7.31-3.17,9.98-.76,2.68-1.84,6.66-2.39,8.86-.54,2.2-1.51,6.55-2.14,9.69-.63,3.15-1.53,8.41-2,11.71-.47,3.3-1.06,7.98-1.3,10.41-.23,2.43-.56,6.61-.72,9.27-.16,2.66-.29,8.37-.29,12.69s.13,10.03.29,12.7c.16,2.67.49,6.84.72,9.27.23,2.43.83,7.11,1.3,10.41.47,3.3,1.37,8.55,2,11.71.63,3.13,1.6,7.49,2.14,9.69.56,2.2,1.64,6.18,2.39,8.86.77,2.66,2.2,7.15,3.17,9.98.96,2.83,2.56,7.18,3.55,9.71,1.01,2.5,2.67,6.48,3.71,8.84,1.04,2.34,3.29,7.04,5.01,10.41,1.71,3.37,4.41,8.37,6.01,11.13,1.6,2.74,4.47,7.37,6.37,10.26,1.91,2.9,4.36,6.5,5.44,8,1.06,1.49,3.24,4.38,4.81,6.41,1.59,2.05,4.23,5.31,5.87,7.28,1.66,1.96,3.53,4.14,4.16,4.84.63.7,2.05,2.23,3.13,3.42,1.1,1.19,2.77,2.97,3.73,3.96.94,1.01,3.64,3.64,6,5.85,2.36,2.21,5.26,4.9,6.43,5.94,1.17,1.04,3.55,3.08,5.28,4.52,1.73,1.44,5.58,4.45,8.57,6.68,2.97,2.25,6.9,5.08,8.7,6.3,1.8,1.21,4.95,3.26,6.99,4.54,2.05,1.28,5.65,3.44,8,4.77,2.36,1.35,6.02,3.35,8.14,4.47,2.12,1.1,6.36,3.15,9.42,4.56,3.06,1.41,7.69,3.39,10.28,4.43,2.59,1.03,6.19,2.4,8,3.04,1.8.65,5.53,1.89,8.28,2.75,2.74.86,7.69,2.27,10.98,3.12,3.3.85,8.57,2.05,11.71,2.68,3.13.63,7.76,1.46,10.28,1.84,2.5.38,6.36.9,8.55,1.13,2.2.25,5.47.58,7.27.74,1.82.16,6.63.41,10.72.58,5.15.22,9.78.22,15.13.02,4.25-.16,9.83-.5,12.43-.74,2.59-.23,6.32-.63,8.28-.86,1.94-.25,6.12-.88,9.27-1.4,3.13-.52,8.34-1.53,11.56-2.25,3.22-.72,8.36-2,11.42-2.84,3.06-.86,7.94-2.36,10.84-3.31,2.92-.97,7.67-2.72,10.57-3.85,2.9-1.15,7.01-2.86,9.13-3.8,2.13-.94,6.36-2.95,9.42-4.48,3.06-1.53,6.74-3.42,8.14-4.21,1.42-.79,4.3-2.47,6.43-3.71,2.11-1.26,6.23-3.85,9.13-5.78,2.9-1.91,7.15-4.86,9.42-6.56,2.29-1.69,5.74-4.38,7.71-5.96,1.96-1.58,5.11-4.21,7-5.87,1.87-1.66,4.7-4.21,6.25-5.71,1.57-1.5,3.56-3.42,4.43-4.29.88-.86,2.75-2.79,4.16-4.29,1.42-1.48,3.67-3.93,5.02-5.4,1.34-1.49,3.66-4.19,5.13-6,1.49-1.8,3.62-4.43,4.74-5.85,1.1-1.4,3.05-3.98,4.29-5.71,1.26-1.73,3.56-5.06,5.13-7.42,1.58-2.34,4.21-6.52,5.87-9.26,1.64-2.76,4.07-6.99,5.37-9.42,1.31-2.43,3.26-6.28,4.36-8.57,1.08-2.27,2.77-6,3.76-8.27.98-2.27,2.5-6,3.37-8.27.88-2.29,2.2-5.87,2.92-8,.72-2.13,1.87-5.71,2.57-8,.68-2.27,1.84-6.38,2.54-9.13.7-2.74,1.78-7.49,2.41-10.55.63-3.06,1.53-8.12,2-11.27.48-3.13,1.13-8.34,1.46-11.54.31-3.22.7-8.36.87-11.42.16-3.06.29-7.94.29-10.84s-.12-7.78-.29-10.84c-.16-3.06-.56-8.19-.88-11.42-.31-3.21-.9-8.03-1.28-10.7-.4-2.66-1.17-7.17-1.73-9.98-.54-2.83-1.57-7.46-2.25-10.28-.68-2.83-1.71-6.74-2.29-8.7-.58-1.96-1.62-5.37-2.32-7.56-.72-2.2-2.14-6.23-3.15-8.99-1.03-2.74-2.79-7.17-3.94-9.83-1.13-2.67-2.97-6.72-4.05-8.99-1.08-2.29-3.05-6.14-4.36-8.57-1.3-2.43-3.73-6.66-5.37-9.42-1.66-2.74-4.29-6.92-5.87-9.26-1.57-2.36-3.87-5.69-5.13-7.42-1.24-1.73-3.19-4.31-4.29-5.71-1.12-1.42-3.24-4.05-4.74-5.85-1.48-1.8-3.8-4.5-5.13-6-1.35-1.48-3.6-3.93-5.02-5.42-1.4-1.48-3.33-3.46-4.28-4.37-.94-.92-2.94-2.85-4.43-4.29-1.5-1.42-4.25-3.94-6.12-5.6-1.89-1.66-5.04-4.29-7-5.87-1.96-1.58-5.42-4.27-7.71-5.96-2.27-1.69-6.52-4.65-9.42-6.56-2.9-1.93-7.02-4.52-9.13-5.78-2.13-1.24-5.01-2.92-6.43-3.71-1.4-.79-4.95-2.61-7.85-4.07-2.9-1.46-7.08-3.44-9.28-4.43-2.19-.99-6.44-2.75-9.42-3.93-2.99-1.19-7.8-2.95-10.71-3.93-2.9-.95-7.78-2.45-10.84-3.31-3.06-.85-8.14-2.11-11.27-2.81-3.15-.7-7.96-1.66-10.71-2.12-2.74-.47-6.99-1.12-9.42-1.44-2.43-.31-6.54-.76-9.13-.99-2.59-.23-8-.56-11.99-.72-4-.14-8.25-.25-9.42-.23-1.19.03-3.24.09-4.57.14Z"/>
        <path class="cls-6" d="M215.25,8.52c-2.76.12-7.24.45-10,.7-2.74.25-7.65.83-10.91,1.29-3.26.47-8.54,1.35-11.71,2-3.19.63-8.1,1.73-10.91,2.45-2.83.72-7.58,2.05-10.57,2.97-2.99.92-7.67,2.49-10.43,3.5-2.74,1.01-7.37,2.85-10.26,4.07-2.92,1.22-7.73,3.44-10.72,4.91-2.99,1.48-6.84,3.46-8.55,4.4-1.73.95-4.88,2.75-7,4.03-2.13,1.26-6.36,3.96-9.42,6-3.06,2.05-7.56,5.22-9.99,7.06-2.43,1.84-6.16,4.79-8.28,6.56-2.11,1.76-5.64,4.84-7.85,6.84-2.2,2-5.85,5.55-8.14,7.87-2.27,2.32-5.24,5.46-6.59,6.95-1.35,1.49-3.89,4.45-5.65,6.55-1.78,2.13-4.66,5.78-6.43,8.14-1.76,2.34-4.7,6.47-6.5,9.13-1.82,2.67-4.57,6.97-6.12,9.54-1.57,2.6-3.75,6.39-4.86,8.43-1.1,2.04-2.65,4.99-3.44,6.56-.79,1.57-2.36,4.91-3.49,7.42-1.15,2.52-2.95,6.75-4,9.42-1.06,2.67-2.67,6.97-3.55,9.56-.9,2.57-2.18,6.63-2.88,8.99-.68,2.34-1.76,6.32-2.39,8.84-.61,2.5-1.46,6.1-1.85,7.98-.38,1.89-1.04,5.42-1.46,7.85-.41,2.43-.99,6.29-1.28,8.55-.31,2.29-.77,6.45-1.04,9.27-.42,4.12-.5,7.85-.5,18.69s.09,14.57.5,18.69c.27,2.83.74,6.99,1.04,9.27.29,2.27.86,6.12,1.28,8.55.41,2.43,1.08,5.96,1.46,7.85.4,1.87,1.24,5.47,1.85,7.98.63,2.52,1.71,6.5,2.39,8.84.7,2.36,1.98,6.41,2.88,8.99.88,2.59,2.45,6.83,3.48,9.42,1.03,2.59,2.83,6.83,4,9.42,1.17,2.59,2.77,6,3.56,7.56.79,1.57,2.34,4.52,3.44,6.55,1.12,2.04,3.29,5.84,4.86,8.43,1.55,2.58,4.3,6.88,6.12,9.55,1.8,2.66,4.74,6.79,6.5,9.13,1.76,2.36,4.65,6.01,6.43,8.14,1.76,2.11,4.3,5.06,5.65,6.55,1.35,1.49,4.32,4.63,6.59,6.95,2.29,2.32,5.94,5.87,8.14,7.87,2.22,2,5.74,5.08,7.85,6.86,2.12,1.76,5.85,4.7,8.28,6.54,2.43,1.84,6.93,5.01,9.99,7.04,3.06,2.05,7.29,4.75,9.42,6.01,2.12,1.28,5.28,3.08,7,4.03,1.71.94,5.56,2.92,8.55,4.39,2.99,1.48,7.8,3.69,10.72,4.92,2.9,1.22,7.53,3.06,10.26,4.07,2.76,1.01,7.44,2.57,10.43,3.49,2.99.92,8,2.32,11.13,3.1,3.15.79,8.03,1.89,10.86,2.45,2.83.56,7.83,1.39,11.13,1.87,3.29.47,8.12,1.04,10.7,1.28,2.59.23,7.87.58,11.71.76,3.85.18,9.63.23,12.86.13,3.21-.09,7.78-.31,10.12-.45,2.36-.16,6.09-.49,8.28-.72,2.2-.23,5.87-.69,8.14-1.01,2.27-.32,6.2-.97,8.72-1.44,2.5-.47,6.48-1.3,8.84-1.84,2.36-.54,6.21-1.49,8.57-2.14,2.34-.63,6.84-2,9.98-3.03,3.15-1.03,7.91-2.7,10.57-3.73,2.66-1.01,7.22-2.92,10.14-4.2,2.9-1.3,6.75-3.1,8.55-4,1.82-.9,4.83-2.49,6.72-3.49,1.89-1.03,5.42-3.06,7.85-4.5,2.43-1.44,6.66-4.14,9.42-5.98,2.75-1.84,7.19-4.99,9.85-6.99,2.66-2.02,6.52-5.06,8.55-6.75,2.04-1.71,5.19-4.43,7.01-6.07,1.8-1.64,5.46-5.17,8.14-7.85,2.67-2.7,6.32-6.56,8.1-8.59,1.78-2.03,4.41-5.11,5.83-6.84,1.41-1.71,4.2-5.31,6.18-7.98,2-2.67,4.65-6.39,5.91-8.28,1.26-1.87,3.45-5.28,4.86-7.55,1.4-2.29,3.53-5.87,4.72-8,1.17-2.12,3.2-5.98,4.5-8.55,1.29-2.59,3.17-6.5,4.14-8.7.99-2.2,2.65-6.18,3.71-8.86,1.06-2.66,2.86-7.67,4.02-11.11,1.15-3.46,2.74-8.72,3.55-11.71.79-2.99,1.89-7.54,2.45-10.12.56-2.59,1.46-7.28,1.98-10.43.52-3.13,1.23-7.94,1.53-10.7.31-2.74.74-6.92.93-9.27.22-2.58.36-8.84.36-15.83s-.14-13.25-.36-15.83c-.2-2.36-.63-6.54-.93-9.27-.33-2.76-.95-7.24-1.41-9.99-.45-2.74-1.2-6.91-1.69-9.27-.48-2.34-1.53-6.74-2.3-9.76-.78-3.03-2.13-7.78-3.01-10.55-.88-2.79-2.38-7.18-3.31-9.78-.95-2.59-2.77-7.15-4.03-10.12-1.28-2.99-3.55-7.92-5.06-10.98-1.51-3.06-3.76-7.37-4.99-9.56-1.23-2.2-3.39-5.86-4.79-8.14-1.41-2.27-3.6-5.67-4.86-7.55-1.26-1.89-3.91-5.61-5.91-8.28-1.98-2.67-4.77-6.27-6.18-7.98-1.42-1.73-4.05-4.81-5.83-6.84-1.78-2.04-5.44-5.89-8.1-8.59-2.68-2.68-6.34-6.21-8.14-7.85-1.82-1.64-4.97-4.36-7.01-6.07-2.03-1.69-5.69-4.59-8.12-6.43-2.43-1.84-6.03-4.43-7.99-5.78-1.96-1.35-4.99-3.35-6.72-4.45-1.73-1.1-5.06-3.11-7.42-4.48-2.36-1.39-6.46-3.64-9.13-5.02-2.67-1.39-7.11-3.53-9.85-4.77-2.75-1.26-7.11-3.12-9.71-4.14-2.59-1.03-7.02-2.66-9.85-3.62-2.83-.95-7.13-2.32-9.56-3.02-2.43-.7-6.16-1.73-8.28-2.25-2.13-.54-6.43-1.48-9.56-2.11-3.13-.63-7.44-1.41-9.56-1.71-2.13-.32-5.58-.79-7.71-1.04-2.12-.25-6.23-.63-9.13-.85-2.92-.22-8.82-.47-13.15-.54-4.3-.07-10.08-.02-12.84.12Z"/>
        <path class="cls-7" d="M215.11,64.45c-2.03.12-5.51.43-7.71.68-2.2.25-5.98.78-8.43,1.15-2.43.4-6.41,1.17-8.84,1.71-2.43.54-6.23,1.48-8.43,2.11-2.2.63-5.85,1.77-8.12,2.52-2.29.78-6.2,2.23-8.72,3.22-2.5,1.01-7.2,3.13-10.43,4.72-3.2,1.59-7.58,3.89-9.71,5.1-2.11,1.23-5.51,3.33-7.56,4.68l-3.71,2.47,7.15.16c6.41-3.87,10.71-6.21,13.69-7.73,2.99-1.51,7.29-3.55,9.58-4.5,2.27-.97,5.6-2.29,7.42-2.94,1.8-.65,4.88-1.69,6.84-2.3,1.96-.63,5.49-1.64,7.85-2.25,2.36-.61,6.21-1.49,8.57-1.96,2.36-.47,6.14-1.1,8.41-1.42,2.29-.31,5.74-.74,7.71-.94,2.29-.23,7.49-.38,14.42-.38s12.1.14,14.28.38c1.87.2,5.28.61,7.56.94,2.27.3,6.07.95,8.41,1.4,2.36.47,6.28,1.35,8.71,1.96,2.43.63,6.48,1.8,8.99,2.61,2.52.81,6.7,2.3,9.29,3.33,2.58,1.03,6.57,2.72,8.84,3.78,2.27,1.04,5.74,2.79,7.71,3.85,1.96,1.06,5.15,2.88,7.06,4.04l3.51,2.11,7.26-.15c-6.18-4.03-9.58-6.14-11.54-7.27-1.96-1.13-6.27-3.39-9.56-4.99-3.3-1.62-7.92-3.71-10.28-4.66-2.36-.93-6.21-2.38-8.57-3.17-2.34-.81-6.34-2.03-8.84-2.74-2.52-.68-6.38-1.64-8.57-2.11-2.2-.47-5.48-1.12-7.28-1.44-1.8-.31-5.46-.83-8.14-1.14-2.66-.32-7.02-.7-9.71-.86-2.66-.16-7.22-.27-10.12-.25-2.92.02-6.97.14-9,.27Z"/>
        <path class="cls-7" d="M108.23,114.52c-1.64,1.71-4.29,4.66-5.89,6.53-1.6,1.89-4.32,5.3-6.03,7.57-1.73,2.27-4.23,5.82-5.58,7.85-1.33,2.03-3.49,5.51-4.79,7.71-1.3,2.2-3.73,6.81-5.42,10.26-1.71,3.46-3.73,7.89-4.52,9.83-.79,1.96-2.02,5.2-2.74,7.22-.72,2-2.02,6.03-2.86,8.99-.85,2.94-1.95,7.13-2.41,9.33-.49,2.2-1.21,5.87-1.6,8.14-.4,2.27-.97,6.37-1.28,9.13-.32,2.74-.7,7.89-.86,11.42-.2,4.47-.2,8.45,0,13.11.18,3.69.56,8.82.85,11.42.31,2.59.81,6.38,1.15,8.41.34,2.05,1.06,5.76,1.62,8.28.54,2.5,1.69,6.97,2.54,9.9.85,2.95,2.14,6.99,2.86,8.99.72,2.02,1.95,5.26,2.74,7.22.79,1.94,2.81,6.38,4.52,9.83,1.69,3.46,4.12,8.07,5.42,10.26,1.3,2.2,3.46,5.67,4.79,7.71,1.35,2.03,3.85,5.58,5.58,7.85,1.71,2.27,4.48,5.75,6.16,7.71,1.66,1.96,5.01,5.6,7.44,8.09,2.45,2.49,5.85,5.78,7.56,7.33,1.73,1.53,4.18,3.64,5.44,4.7,1.24,1.04,3.82,3.06,5.71,4.47,1.87,1.42,5.42,3.91,7.85,5.51,2.43,1.62,6.28,4,8.55,5.29,2.29,1.32,6.84,3.69,10.14,5.29,3.3,1.6,8.12,3.75,10.72,4.77,2.57,1.01,6.3,2.38,8.27,3.03,1.96.67,5.37,1.71,7.56,2.32,2.2.63,6,1.57,8.43,2.11,2.43.54,6.03,1.24,8,1.57,1.96.32,3.93.65,4.36.72.43.09.76.02.7-.14-.04-.14-1.8-1.39-3.93-2.74l-3.85-2.45c-6.63-1.51-10.16-2.4-12.12-2.94-1.96-.54-5.37-1.58-7.58-2.3-2.2-.74-5.4-1.87-7.13-2.54-1.73-.67-4.94-2.02-7.13-2.99-2.2-.97-5.92-2.77-8.28-3.98-2.36-1.22-5.76-3.12-7.56-4.18-1.8-1.06-5.02-3.1-7.13-4.5-2.12-1.42-5.33-3.67-7.15-5.02-1.8-1.35-4.5-3.46-6-4.68-1.48-1.22-4.43-3.8-6.54-5.71-2.11-1.91-5.51-5.28-7.56-7.47-2.05-2.2-4.97-5.47-6.47-7.27-1.51-1.8-3.94-4.88-5.4-6.84-1.46-1.95-3.56-4.9-4.66-6.56-1.1-1.64-2.86-4.41-3.91-6.14-1.05-1.71-2.86-4.93-4.07-7.13-1.19-2.2-3.19-6.23-4.43-8.99-1.26-2.74-3.12-7.24-4.14-9.98-1.03-2.76-2.34-6.54-2.92-8.43-.56-1.87-1.53-5.35-2.14-7.69-.61-2.36-1.49-6.27-1.96-8.72-.47-2.43-1.04-5.82-1.28-7.55-.25-1.73-.58-4.36-.74-5.85-.16-1.49-.41-4.65-.58-6.99-.16-2.36-.29-6.59-.29-9.42s.13-7.19.29-9.71c.16-2.5.49-6.23.72-8.27.23-2.03.68-5.26.97-7.13.31-1.89.96-5.29,1.42-7.56.47-2.27,1.39-6.07,2.02-8.41.65-2.36,1.89-6.41,2.76-8.99.86-2.59,2.25-6.39,3.1-8.43.83-2.04,2.3-5.44,3.28-7.56.97-2.11,2.74-5.64,3.94-7.83,1.19-2.2,3.01-5.42,4.05-7.13,1.04-1.73,2.81-4.5,3.91-6.14,1.1-1.66,3.21-4.61,4.66-6.56,1.46-1.96,3.89-5.04,5.4-6.84,1.49-1.8,3.6-4.18,4.65-5.3l1.93-2-.13-5.92-2.97,3.1h0ZM338.88,114.43l.02,2.92c3.44,3.76,5.49,6.11,6.77,7.63,1.28,1.53,3.51,4.36,4.95,6.28,1.42,1.91,3.58,4.97,4.79,6.77,1.21,1.8,2.97,4.56,3.93,6.14.95,1.57,2.77,4.77,4.03,7.13,1.28,2.34,3.17,6.14,4.21,8.41,1.04,2.27,2.54,5.74,3.31,7.71.78,1.96,2.11,5.62,2.95,8.12.84,2.52,1.94,6.05,2.43,7.85.49,1.8,1.24,4.88,1.69,6.84.45,1.96,1.15,5.44,1.55,7.71.42,2.27.99,6.37,1.32,9.13.31,2.74.7,7.89.88,11.42.25,4.79.25,8.07,0,12.97-.18,3.62-.57,8.82-.88,11.56-.33,2.76-.9,6.86-1.32,9.13-.4,2.27-1.1,5.75-1.55,7.71-.45,1.96-1.2,5.04-1.69,6.84-.48,1.8-1.59,5.33-2.43,7.85-.85,2.5-2.18,6.16-2.95,8.12-.78,1.96-2.27,5.44-3.31,7.71-1.04,2.27-3.01,6.2-4.36,8.7-1.35,2.52-3.3,5.92-4.32,7.56-1.03,1.66-2.72,4.29-3.76,5.85-1.06,1.57-3.06,4.39-4.47,6.27-1.4,1.89-3.89,5.04-5.53,7.01-1.62,1.94-5.85,6.45-9.4,9.99-3.55,3.53-7.92,7.65-9.72,9.15-1.8,1.51-4.88,3.94-6.84,5.42-1.96,1.48-5.44,3.91-7.72,5.42-2.27,1.51-6.19,3.92-8.7,5.37-2.52,1.44-6.5,3.57-8.84,4.72-2.36,1.15-6.34,2.95-8.86,4-2.5,1.06-7.2,2.79-10.43,3.87-3.2,1.08-8.16,2.52-10.98,3.22-2.83.7-5.84,1.42-6.7,1.6-1.15.22-2.54.9-5.15,2.56-1.96,1.24-3.82,2.45-4.14,2.68-.31.23-.5.47-.41.56.07.07,2.2-.23,4.7-.67,2.52-.43,6.11-1.13,8-1.55,1.89-.4,5.48-1.31,8-2,2.5-.7,6.5-1.93,8.84-2.74,2.36-.79,6.21-2.23,8.57-3.17,2.36-.95,6.99-3.04,10.28-4.66,3.3-1.6,7.6-3.85,9.56-4.99,1.96-1.13,5.62-3.4,8.14-5.06,2.5-1.66,6.11-4.16,7.98-5.58,1.89-1.4,4.9-3.8,6.7-5.31,1.8-1.49,5.01-4.34,7.13-6.3,2.11-1.96,5.46-5.29,7.42-7.42,1.96-2.11,4.84-5.38,6.41-7.26,1.59-1.89,4-4.97,5.4-6.86,1.4-1.87,3.6-5.02,4.9-6.99,1.31-1.96,3.3-5.1,4.41-6.99,1.12-1.89,3.39-6.05,5.01-9.27,1.64-3.22,3.82-7.91,4.86-10.41,1.04-2.52,2.54-6.34,3.31-8.5.78-2.14,1.98-5.87,2.67-8.27.68-2.4,1.64-5.96,2.13-7.92.47-1.96,1.19-5.29,1.59-7.42.4-2.11.97-5.71,1.28-7.98.32-2.27.74-5.82.93-7.85.23-2.29.38-7.69.38-14.12s-.14-11.83-.38-14.12c-.2-2.03-.61-5.58-.93-7.85-.33-2.27-.9-5.87-1.28-7.98-.4-2.13-1.28-6.1-1.96-8.86-.68-2.74-1.78-6.72-2.45-8.84-.65-2.11-1.82-5.58-2.61-7.71-.79-2.11-2.21-5.64-3.15-7.83-.93-2.2-2.97-6.5-4.52-9.56-1.55-3.06-3.75-7.1-4.86-8.99-1.12-1.89-3.1-5.02-4.41-6.99-1.3-1.96-3.5-5.11-4.9-6.99-1.4-1.89-3.82-4.97-5.4-6.86-1.57-1.87-4.41-5.11-6.34-7.2-1.91-2.07-3.53-3.76-3.62-3.76-.07,0-.12,1.32-.12,2.92Z"/>
        <path class="cls-5" d="M108.93,62.48c-.59,2.79-1.15,5.22-1.26,5.4-.11.2-2.3.81-4.9,1.37-2.59.56-4.93,1.08-5.2,1.15-.29.07-.5.23-.5.36-.02.11,2.27.72,5.06,1.33,2.79.61,5.22,1.26,5.38,1.42.18.16.83,2.59,1.44,5.37.61,2.83,1.22,5.02,1.39,4.97.16-.05.77-2.39,1.39-5.2.61-2.81,1.21-5.17,1.31-5.26.13-.07,2.56-.65,5.4-1.28,2.85-.63,5.19-1.24,5.19-1.35-.02-.13-.23-.27-.5-.34-.29-.07-2.7-.61-5.4-1.21l-4.88-1.1c-1.64-7.51-2.16-9.92-2.23-10.19-.07-.27-.23-.5-.38-.5-.13,0-.72,2.29-1.3,5.06h0ZM338.47,62.63c-.61,2.86-1.19,5.3-1.28,5.4-.09.13-2.29.67-4.88,1.22-2.59.56-4.93,1.08-5.22,1.15-.27.07-.49.23-.51.36,0,.11,2.29.7,5.08,1.32,2.79.61,5.2,1.22,5.35,1.33.16.13.81,2.54,1.44,5.38.63,2.85,1.26,5.11,1.42,5.06.16-.05.77-2.39,1.39-5.2.61-2.81,1.21-5.17,1.33-5.26.13-.07,2.56-.65,5.38-1.28,2.85-.63,5.17-1.24,5.17-1.35,0-.13-.29-.29-.65-.36-.34-.09-2.68-.61-5.2-1.17-2.5-.56-4.65-1.1-4.76-1.21-.11-.11-.59-2.05-1.1-4.32-.49-2.29-1.03-4.63-1.17-5.22-.14-.58-.36-1.06-.48-1.06s-.72,2.34-1.32,5.2Z"/>
      </g>
      <path class="cls-5" d="M223.71,25.75c-.61,2.86-1.19,5.3-1.28,5.4-.09.13-2.29.67-4.88,1.22-2.59.56-4.93,1.08-5.22,1.15-.27.07-.49.23-.51.36,0,.11,2.29.7,5.08,1.32,2.79.61,5.2,1.22,5.35,1.33.16.13.81,2.54,1.44,5.38.63,2.85,1.26,5.11,1.42,5.06.16-.05.77-2.39,1.39-5.2.61-2.81,1.21-5.17,1.33-5.26.13-.07,2.56-.65,5.38-1.28,2.85-.63,5.17-1.24,5.17-1.35,0-.13-.29-.29-.65-.36-.34-.09-2.68-.61-5.2-1.17-2.5-.56-4.65-1.1-4.76-1.21-.11-.11-.59-2.05-1.1-4.32-.49-2.29-1.03-4.63-1.17-5.22-.14-.58-.36-1.06-.48-1.06s-.72,2.34-1.32,5.2Z"/>
      <g class="cls-12">
        <g>
          <polygon class="cls-11" points="177.5 152.32 161.01 164.96 200.16 164.96 196.28 212.86 226.09 176.32 256.87 212.86 252.2 164.96 291.03 164.96 275.55 151.19 177.5 152.32"/>
          <path class="cls-11" d="M226.49,172.79c-19.39,0-35.16-15.77-35.16-35.16s15.77-35.16,35.16-35.16,35.16,15.77,35.16,35.16-15.77,35.16-35.16,35.16ZM226.49,105.93c-17.48,0-31.7,14.22-31.7,31.7s14.22,31.7,31.7,31.7,31.7-14.22,31.7-31.7-14.22-31.7-31.7-31.7Z"/>
          <path class="cls-11" d="M226.49,191.3c-29.6,0-53.67-24.08-53.67-53.67s24.08-53.67,53.67-53.67,53.67,24.08,53.67,53.67-24.08,53.67-53.67,53.67ZM226.49,86.26c-28.32,0-51.37,23.04-51.37,51.37s23.04,51.37,51.37,51.37,51.36-23.04,51.36-51.37-23.04-51.37-51.36-51.37Z"/>
          <path class="cls-11" d="M226.49,196.43c-32.42,0-58.8-26.38-58.8-58.8s26.38-58.8,58.8-58.8,58.8,26.38,58.8,58.8-26.38,58.8-58.8,58.8ZM226.49,81.14c-31.15,0-56.49,25.34-56.49,56.49s25.34,56.49,56.49,56.49,56.49-25.34,56.49-56.49-25.34-56.49-56.49-56.49Z"/>
          <path class="cls-11" d="M226.01,236.96l-13.26-38.25c-6.44-1.44-12.57-3.87-18.26-7.26l-35.92,16.06,16.61-34.02c-7.39-10.56-11.3-22.94-11.3-35.86,0-34.52,28.08-62.6,62.6-62.6s62.61,28.08,62.61,62.6c0,12.95-3.92,25.35-11.35,35.92l17.72,35.15-36.33-17.65c-6.11,3.74-12.74,6.38-19.75,7.85l-13.37,38.06ZM215.58,199.83l10.45,30.12,10.97-31.22-3.99-.92,5.27-1.05c7.76-1.54,15.03-4.55,21.63-8.95l3.36-2.24-1.82,4.02,28.89,14.04-14.44-28.66-3.02,1.43,2.59-3.62c7.41-10.31,11.33-22.47,11.33-35.17,0-33.25-27.05-60.3-60.3-60.3s-60.3,27.05-60.3,60.3c0,12.67,3.9,24.81,11.28,35.1l3.22,4.49-3.7-2.2-13.56,27.78,29.56-13.22-1.26-2.51,3.43,2.09c6.66,4.06,13.96,6.75,21.68,7.99l4.9.79-6.17,1.89Z"/>
          <path class="cls-11" d="M169.35,200.88c14.28,12.92,32.95,21.07,53.47,21.95l-.42-1.17c-19.87-.96-37.95-8.85-51.88-21.29l-1.17.51Z"/>
          <path class="cls-11" d="M173.54,199.03c12.99,11.22,29.56,18.39,47.74,19.55l-.43-1.19c-17.53-1.23-33.52-8.13-46.15-18.88l-1.17.51Z"/>
          <path class="cls-11" d="M177.93,197.09c11.59,9.48,25.99,15.65,41.74,17.04l-.44-1.21c-15.1-1.44-28.91-7.34-40.11-16.36l-1.2.53Z"/>
          <path class="cls-11" d="M182.17,195.23c10.2,7.87,22.53,13.09,35.97,14.63l-.43-1.2c-12.79-1.57-24.55-6.54-34.34-13.96l-1.2.53Z"/>
          <path class="cls-11" d="M185.92,193.57c8.92,6.49,19.45,10.89,30.86,12.51l-.44-1.23c-10.75-1.62-20.69-5.77-29.19-11.82l-1.23.54Z"/>
          <path class="cls-11" d="M189.7,191.91c7.59,5.16,16.31,8.76,25.71,10.37l-.45-1.25c-8.74-1.59-16.87-4.94-24-9.68l-1.26.55Z"/>
          <g>
            <path class="cls-11" d="M310.62,137.63c0,22.47-8.86,42.89-23.26,57.99l.54,1.11c14.77-15.34,23.88-36.17,23.88-59.1,0-47.03-38.26-85.29-85.29-85.29s-85.29,38.26-85.29,85.29c0,23.09,9.24,44.05,24.19,59.42l.53-1.11c-14.58-15.14-23.57-35.69-23.57-58.31,0-46.39,37.74-84.13,84.13-84.13s84.13,37.74,84.13,84.13Z"/>
            <path class="cls-11" d="M282.09,200.68c-14.09,12.43-32.34,20.24-52.38,21l-.43,1.17c20.68-.67,39.5-8.75,53.94-21.63l-1.13-.53Z"/>
          </g>
          <g>
            <path class="cls-11" d="M306.47,137.63c0,20.8-8,39.75-21.06,53.99l.54,1.12c13.43-14.48,21.67-33.85,21.67-55.11,0-44.74-36.4-81.14-81.14-81.14s-81.14,36.4-81.14,81.14c0,21.41,8.35,40.9,21.95,55.42l.53-1.11c-13.22-14.27-21.33-33.36-21.33-54.3,0-44.1,35.88-79.98,79.98-79.98s79.98,35.88,79.98,79.98Z"/>
            <path class="cls-11" d="M277.97,198.76c-12.79,10.78-28.98,17.65-46.72,18.7l-.44,1.19c18.39-.97,35.16-8.1,48.32-19.35l-1.16-.54Z"/>
          </g>
          <g>
            <path class="cls-11" d="M302.14,137.63c0,19.06-7.1,36.47-18.77,49.79l.55,1.12c12.04-13.56,19.38-31.39,19.38-50.91,0-42.35-34.46-76.81-76.81-76.81s-76.81,34.46-76.81,76.81c0,19.66,7.43,37.61,19.63,51.21l.54-1.14c-11.82-13.35-19.01-30.88-19.01-50.08,0-41.72,33.94-75.66,75.66-75.66s75.66,33.94,75.66,75.66Z"/>
            <path class="cls-11" d="M273.63,196.73c-11.37,9.08-25.41,14.98-40.73,16.27l-.44,1.19c15.97-1.23,30.59-7.38,42.34-16.91l-1.17-.55Z"/>
          </g>
          <g>
            <path class="cls-11" d="M298.06,137.63c0,17.41-6.25,33.37-16.63,45.79l.55,1.14c10.74-12.68,17.23-29.06,17.23-46.93,0-40.1-32.62-72.72-72.72-72.72s-72.73,32.62-72.73,72.72c0,18,6.59,34.48,17.46,47.19l.54-1.14c-10.5-12.46-16.84-28.52-16.84-46.05,0-39.46,32.11-71.57,71.57-71.57s71.57,32.11,71.57,71.57Z"/>
            <path class="cls-11" d="M269.47,194.79c-9.98,7.52-21.97,12.51-35.02,13.96l-.45,1.22c13.7-1.41,26.29-6.65,36.68-14.62l-1.2-.56Z"/>
          </g>
          <g>
            <path class="cls-11" d="M294.48,137.63c0,15.96-5.53,30.64-14.77,42.25l.56,1.15c9.6-11.87,15.37-26.97,15.37-43.4,0-38.13-31.02-69.15-69.15-69.15s-69.15,31.02-69.15,69.15c0,16.54,5.84,31.73,15.56,43.65l.55-1.16c-9.35-11.65-14.96-26.42-14.96-42.48,0-37.49,30.5-67.99,68-67.99s67.99,30.5,67.99,67.99Z"/>
            <path class="cls-11" d="M265.78,193.06c-8.7,6.18-18.9,10.38-29.94,11.9l-.45,1.22c11.69-1.51,22.48-5.95,31.6-12.56l-1.21-.56Z"/>
          </g>
          <g>
            <path class="cls-11" d="M262.05,191.32c-7.36,4.89-15.77,8.32-24.82,9.84l-.46,1.25c9.71-1.54,18.71-5.21,26.52-10.52l-1.24-.58Z"/>
            <path class="cls-11" d="M290.93,137.63c0,14.51-4.83,27.9-12.95,38.68l.57,1.17c8.48-11.05,13.54-24.87,13.54-39.85,0-36.17-29.43-65.6-65.6-65.6s-65.6,29.43-65.6,65.6c0,15.08,5.13,28.98,13.72,40.07l.55-1.16c-8.22-10.82-13.11-24.3-13.11-38.91,0-35.54,28.91-64.44,64.45-64.44s64.44,28.91,64.44,64.44Z"/>
          </g>
          <g>
            <line class="cls-11" x1="161.01" y1="205.35" x2="203.57" y2="161.62"/>
            <rect class="cls-11" x="151.78" y="182.49" width="61.02" height="2" transform="translate(-76.34 186.21) rotate(-45.79)"/>
          </g>
          <rect class="cls-11" x="225.08" y="170.12" width="2" height="60.53"/>
          <g>
            <line class="cls-11" x1="291.03" y1="204.63" x2="250.44" y2="163.34"/>
            <rect class="cls-11" x="269.74" y="155.04" width="2" height="57.89" transform="translate(-51.31 242.58) rotate(-44.51)"/>
          </g>
        </g>
      </g>
      <path class="cls-4" d="M148.2,269.51s31.71-18.32,77.74-18.32,77.84,18.32,77.84,18.32"/>
      <path class="cls-10" d="M174.96,309.86s26.41-56.08,72.25-57.38l17.46,3.01s-57.44,25.85-15.82,70.3c-16.98,8.44-33.73,6.49-45.66.84-11.92-5.65-28.23-16.77-28.23-16.77Z"/>
      <rect class="cls-11" x="143.22" y="123.87" width="165.45" height="28.45"/>
      <g>
        <path class="cls-8" d="M164.15,139.67c-.38-.37-.86-.35-1.1-.34h-1.62c-.64,0-1.41.25-1.49,1.42-.2,1.93-1.91,3.04-4.68,3.04-3.37,0-5.55-2.27-5.55-5.78s2.18-5.78,5.55-5.78c2.73,0,4.53,1.28,4.68,3.33.09,1.28,1.05,1.42,1.46,1.42h1.68c.94,0,1.43-.65,1.43-1.29,0-3.72-3.24-7.66-9.26-7.66s-10.1,4.1-10.1,9.98,4.15,9.98,10.1,9.98,9.26-3.74,9.26-7.43c0-.35-.13-.67-.37-.89Z"/>
        <path class="cls-8" d="M175.29,128.32h-2.27l-8.83,17.44c-.09.18-.22.42-.22.74,0,.66.57,1.2,1.26,1.2h1.88c.65,0,1.08-.14,1.5-.93l1.32-2.66h8.41l1.36,2.69c.41.76.84.9,1.49.9h1.88c.7,0,1.26-.54,1.26-1.2,0-.31-.13-.56-.25-.8l-8.8-17.38Z"/>
        <path class="cls-8" d="M205.42,128.32h-1.19c-.54,0-1.04.26-1.37.71l-6.92,9.83-6.92-9.84c-.32-.45-.82-.71-1.36-.71h-1.19c-.73,0-1.35.62-1.35,1.35v16.69c0,.73.62,1.35,1.35,1.35h1.85c.73,0,1.35-.62,1.35-1.35v-9.06l6.27,8.95,6.27-8.95v9.06c0,.73.62,1.35,1.35,1.35h1.85c.73,0,1.35-.62,1.35-1.35v-16.69c0-.73-.62-1.35-1.35-1.35Z"/>
        <path class="cls-8" d="M218.87,128.32h-2.27l-8.83,17.44c-.09.18-.22.42-.22.74,0,.66.57,1.2,1.26,1.2h1.88c.65,0,1.08-.14,1.5-.93l1.32-2.66h8.41l1.36,2.69c.41.76.84.9,1.49.9h1.88c.7,0,1.26-.54,1.26-1.2,0-.31-.13-.56-.25-.8l-8.8-17.38Z"/>
        <path class="cls-8" d="M241.99,141c-.06-.09-.13-.18-.19-.26,2.4-1.07,3.74-3.09,3.74-5.71,0-4.08-3.17-6.71-8.07-6.71h-7.42c-.73,0-1.35.62-1.35,1.35v16.69c0,.73.62,1.35,1.35,1.35h1.85c.73,0,1.35-.62,1.35-1.35v-4.8h3.62l4,5.54c.28.37.75.6,1.21.6h2.38c.81,0,1.23-.59,1.23-1.17,0-.41-.21-.72-.39-.96l-3.3-4.57ZM233.25,132.52h4.16c1.08,0,3.58.24,3.58,2.51s-2.74,2.48-3.58,2.48h-4.16v-4.98Z"/>
        <rect class="cls-8" x="247.47" y="128.32" width="4.55" height="19.39" rx="1.35" ry="1.35"/>
        <path class="cls-8" d="M268.12,143.5h-8.56v-13.84c0-.73-.62-1.35-1.35-1.35h-1.85c-.73,0-1.35.62-1.35,1.35v16.69c0,.73.62,1.35,1.35,1.35h11.76c.72,0,1.41-.68,1.41-1.41v-1.39c0-.72-.68-1.41-1.41-1.41Z"/>
        <path class="cls-8" d="M283.71,143.5h-8.56v-13.84c0-.73-.62-1.35-1.35-1.35h-1.85c-.73,0-1.35.62-1.35,1.35v16.69c0,.73.62,1.35,1.35,1.35h11.76c.72,0,1.41-.68,1.41-1.41v-1.39c0-.72-.68-1.41-1.41-1.41Z"/>
        <path class="cls-8" d="M294.66,128.03c-6.12,0-10.39,4.1-10.39,9.98s4.27,9.98,10.39,9.98,10.39-4.1,10.39-9.98-4.27-9.98-10.39-9.98ZM294.66,143.79c-3.44,0-5.84-2.38-5.84-5.78,0-3.99,2.93-5.78,5.84-5.78,3.55,0,5.84,2.27,5.84,5.78s-2.35,5.78-5.84,5.78Z"/>
      </g>
      <text class="cls-9" transform="translate(29.38 262.53) rotate(75.83)"><tspan x="0" y="0">S</tspan></text>
      <text class="cls-9" transform="translate(36.61 288.93) rotate(69.92)"><tspan x="0" y="0">I</tspan></text>
      <text class="cls-9" transform="translate(41.03 301.47) rotate(64.16)"><tspan x="0" y="0">E</tspan></text>
      <text class="cls-9" transform="translate(52.98 326.18) rotate(54.95)"><tspan x="0" y="0">M</tspan></text>
      <text class="cls-9" transform="translate(74.55 355.69) rotate(45.73)"><tspan x="0" y="0">P</tspan></text>
      <text class="cls-9" transform="translate(93.88 375.18) rotate(37.71)"><tspan x="0" y="0">R</tspan></text>
      <text class="cls-9" transform="translate(116.69 392.39) rotate(29.72)"><tspan x="0" y="0">E</tspan></text>
      <text class="cls-9" transform="translate(139.86 405.02) rotate(24.21)"><tspan x="0" y="0"> </tspan></text>
      <text class="cls-9" transform="translate(150.46 410) rotate(18.68)"><tspan x="0" y="0">E</tspan></text>
      <text class="cls-9" transform="translate(176.34 418.65) rotate(9.94)"><tspan x="0" y="0">N</tspan></text>
      <text class="cls-9" transform="translate(213.34 423.83) rotate(2.15)"><tspan x="0" y="0"> </tspan></text>
      <text class="cls-9" transform="translate(224.39 424.17) rotate(-.98)"><tspan x="0" y="0"> </tspan></text>
      <text class="cls-9" transform="translate(235.46 423.9) rotate(-4.12)"><tspan x="0" y="0"> </tspan></text>
      <text class="cls-9" transform="translate(247.13 423.26) rotate(-9.59)"><tspan x="0" y="0">E</tspan></text>
      <text class="cls-9" transform="translate(275.98 417.83) rotate(-17.72)"><tspan x="0" y="0">L</tspan></text>
      <text class="cls-9" transform="translate(303.65 408.06) rotate(-24.49)"><tspan x="0" y="0"> </tspan></text>
      <text class="cls-9" transform="translate(316.79 402.27) rotate(-31.25)"><tspan x="0" y="0">C</tspan></text>
      <text class="cls-9" transform="translate(344.46 384.81) rotate(-40.4)"><tspan x="0" y="0">A</tspan></text>
      <text class="cls-9" transform="translate(368.4 364.06) rotate(-50.52)"><tspan x="0" y="0">M</tspan></text>
      <text class="cls-9" transform="translate(391.9 333.67) rotate(-58.35)"><tspan x="0" y="0">I</tspan></text>
      <text class="cls-9" transform="translate(400.5 320.14) rotate(-65.71)"><tspan x="0" y="0">N</tspan></text>
      <text class="cls-9" transform="translate(414.63 287.24) rotate(-76.02)"><tspan x="0" y="0">O</tspan></text>
      <g>
        <path class="cls-1" d="M226.32,100.89h-105.69v146.89c0,73.63,67.85,104.94,104.86,105.4.03,0,.05.01.08.01.12,0,.25,0,.38,0,.13,0,.25,0,.38,0,.03,0,.05,0,.08-.01,37.01-.46,104.86-31.78,104.86-105.4V100.89h-104.94Z"/>
        <path class="cls-3" d="M226.28,114.48h-93.3v132.07c0,64.99,59.9,92.63,92.56,93.04.02,0,.05,0,.07,0,.11,0,.22,0,.33,0,.11,0,.22,0,.33,0,.02,0,.05,0,.07,0,32.67-.41,92.56-28.05,92.56-93.04V114.48h-92.63Z"/>
        <path class="cls-3" d="M226.24,123.87h-83.02v121.88c0,58.81,53.3,83.82,82.37,84.19.02,0,.04,0,.06,0,.1,0,.2,0,.3,0,.1,0,.2,0,.3,0,.02,0,.04,0,.06,0,29.07-.37,82.37-25.38,82.37-84.19v-121.88h-82.43Z"/>
      </g>
      <path class="cls-11" d="M236.22,401.29h-22.24v3.12h22.24v-3.12ZM238.65,391.3c-.93,2.3-1.75,4.57-2.35,6.63h-22.39c-.6-2.06-1.42-4.33-2.35-6.63.31-.65,1.23-2.81.56-4.36-.72-1.66-3-2.05-3.46-2.12-1.74-3.57-3.56-6.77-5.04-8.85,5.38,4.78,12.95,5.93,12.95,5.93,0,0-1.55,4.69.1,8.54,1.32,3.09,5.72,2.39,5.04-1.9-.68-4.29-3.45-7.62-3.45-7.62l6.84-11.06,6.84,11.06s-2.77,3.33-3.45,7.62c-.68,4.29,3.72,4.98,5.04,1.9,1.65-3.84.1-8.54.1-8.54,0,0,7.57-1.15,12.95-5.93-1.48,2.07-3.3,5.28-5.04,8.85-.45.06-2.74.45-3.46,2.12-.67,1.55.25,3.71.56,4.36ZM226.92,380.92c0-2.06-1.82-3.74-1.82-3.74,0,0-1.82,1.67-1.82,3.74s1.82,3.74,1.82,3.74c0,0,1.82-1.67,1.82-3.74Z"/>
    </g>
  </g>
</svg>