<?xml version="1.0" encoding="UTF-8"?>
<svg id="Capa_2" xmlns="http://www.w3.org/2000/svg" version="1.1" xmlns:xlink="http://www.w3.org/1999/xlink" viewBox="0 0 232.2 232.1">
  <!-- Generator: Adobe Illustrator 30.3.0, SVG Export Plug-In . SVG Version: 2.1.3 Build 157)  -->
  <defs>
    <style>
      .st0 {
        fill: url(#Degradado_sin_nombre_6);
      }

      .st1 {
        fill: #b7944c;
      }

      .st2 {
        fill: url(#Degradado_sin_nombre_5);
      }

      .st3 {
        fill: #e3c878;
      }

      .st4 {
        fill: url(#Degradado_sin_nombre_4);
      }

      .st5 {
        fill: #276b41;
      }

      .st6 {
        fill: url(#Degradado_sin_nombre_7);
      }

      .st7 {
        fill: #0f2e2f;
      }

      .st8 {
        fill: url(#Degradado_sin_nombre_3);
      }

      .st9 {
        fill: #195537;
      }
    </style>
    <linearGradient id="Degradado_sin_nombre_7" data-name="Degradado sin nombre 7" x1="667.2" y1="-180" x2="711.8" y2="-182.6" gradientTransform="translate(-283 -16.5) scale(.5 -.5)" gradientUnits="userSpaceOnUse">
      <stop offset="0" stop-color="#ae853e"/>
      <stop offset="1" stop-color="#d8bc6d"/>
    </linearGradient>
    <linearGradient id="Degradado_sin_nombre_6" data-name="Degradado sin nombre 6" x1="796.7" y1="-329.6" x2="856.3" y2="-331.8" gradientTransform="translate(-283 -16.5) scale(.5 -.5)" gradientUnits="userSpaceOnUse">
      <stop offset="0" stop-color="#ad873f"/>
      <stop offset="1" stop-color="#dcbc70"/>
    </linearGradient>
    <linearGradient id="Degradado_sin_nombre_3" data-name="Degradado sin nombre 3" x1="739.8" y1="-332.9" x2="800.9" y2="-328.6" gradientTransform="translate(-283 -16.5) scale(.5 -.5)" gradientUnits="userSpaceOnUse">
      <stop offset="0" stop-color="#caa95e"/>
      <stop offset="1" stop-color="#f9e28c"/>
    </linearGradient>
    <linearGradient id="Degradado_sin_nombre_4" data-name="Degradado sin nombre 4" x1="929.1" y1="-176.9" x2="868.3" y2="-179.6" gradientTransform="translate(-283 -16.5) scale(.5 -.5)" gradientUnits="userSpaceOnUse">
      <stop offset="0" stop-color="#aa813c"/>
      <stop offset="1" stop-color="#e9d07d"/>
    </linearGradient>
    <linearGradient id="Degradado_sin_nombre_5" data-name="Degradado sin nombre 5" x1="855" y1="-142.1" x2="895.6" y2="-184.1" gradientTransform="translate(-283 -16.5) scale(.5 -.5)" gradientUnits="userSpaceOnUse">
      <stop offset="0" stop-color="#d5b869"/>
      <stop offset="1" stop-color="#f7df8b"/>
    </linearGradient>
  </defs>
  <path class="st7" d="M116.1,0c3.6,2.9,6.9,5.4,10.9,7.8,20.5,12.2,45.3,16.5,69,17.5,5.3.2,10.9,0,16.1,0v37.7c0,10.1.3,20.9-.4,30.9-1.3,18.6-5.5,36.8-12.6,54-12.3,28.9-32.9,53.6-59.1,71-7.1,4.8-16,9.9-23.9,13.2-1.4-.4-7-3.2-8.4-3.9-14.9-7.7-28.4-17.7-40.3-29.5-28.3-28.5-43.5-63.1-46.9-103.1-.8-9.4-.5-19.4-.5-28.9V25.3c5.6,0,11.5.3,17.1,0,22.3-1,45.7-5.1,65.4-16,5.2-2.9,9-5.6,13.5-9.3Z"/>
  <path class="st9" d="M116.1,7.6c1.4.9,2.7,2,4.1,2.9,25.3,16.6,56.4,20.8,86,20.8v38c0,9.5.2,17.9-.6,27.4-2.9,37.4-19.2,72.5-46,98.8-10.1,9.9-21.6,18.4-33.9,25.3-2.8,1.5-6.6,3.6-9.5,4.7-16.7-7.8-31.9-18.5-44.8-31.6-26.7-26.8-41.5-60.9-44.6-98.5-.8-9.3-.6-18.2-.6-27.6V31.3c31.1.4,64.4-5,90.1-23.7Z"/>
  <path class="st5" d="M116.1,7.6v72.3c0,9.5,0,19,0,28.4,0,2.6.3,8.8,0,11.1-3.9,0-7.7,1-11.2,2.6-.2,7.1-.4,12.9-6,18.2-1.9,1.7-4.1,3-6.5,3.8-3.3,1.1-7.1.8-9.8,3.7-1.3,1.5-1.2,3.3-2.5,4.8-2.8,3.3-4.3,6.9-4.6,11.2-.5,8.6,5.7,15.8,12.3,20.5-.4-5.5-1.7-13.3,1.5-18.1,6.5,1.2,10-2.4,13-7.5l3.5-1.6c-1.3,8.5-5.1,14.5,2.1,21.5,1.9,9.5,3.5,13.7,8.2,22.3.2,2.4.1,8.1.1,10.8,0,4.2.2,9.7,0,13.8-16.7-7.8-31.9-18.5-44.8-31.6-26.7-26.8-41.5-60.9-44.6-98.5-.8-9.3-.6-18.2-.6-27.6V31.3c31.1.4,64.4-5,90.1-23.7Z"/>
  <path class="st7" d="M65.9,43.7c.5,0,.9,1,1.2,1.4,3.1,4.7,5.4,9.8,10.6,12.7,7.3,4,13.3-4.2,20.1-1,.6.3,1.9,1.5,2.3,1.7,13.9,5.1,15,19.1,9,31-2.5-4.2-4.1-11.3-9.1-14.2-3.9,2.9-6.6,2.8-11.1,1.7,3.4,2.8,6.3,6.4,6.8,11,0,.6,0,2.2.2,2.6,2.3,4.8,3.3,9.7,3,15.1-.2,3.9-1.1,8.6-2.4,12.5-3.2-4.9-6.8-9.9-10.7-14.3-.9-1-1.8-1.9-2.8-2.9-.3,0-.5-.1-.8-.2-8.7-1.8-9.1-8.3-13.3-14.8-.7,1-1.2,1.8-1.9,2.8,0,4.7-.9,8.7-5,11.6-.8.6-3,1.2-2.9,2.3.2,4.7,4.5,11.6,7.1,15.3-6.8-1.3-12.7-2.9-17.5-8.2-4.3-4.8-4.7-10.1-3.8-16.1.2-1-.1-2.7,0-3.8.7-6.9,10.2-8.2,10.5-15.5.2-6.1-5.3-10.9-9-15.2,3.5-9.4,9.5-14,19.5-15.4Z"/>
  <path class="st3" d="M56.8,51.2c2.4-1.6,4.6-2.3,7.4-3,3.6,6.1,7.4,12.5,14.7,14.4,6.6,1.7,10.3-1.9,15.7-2.5-3,4.9-2.3,8.5.7,13.2-3.6.8-5.6-.5-8.6-2.3-2.7.5-5.1.4-7.8.4,1.3,1.9,2.6,3.8,4.1,5.5,3,3.3,6.2,5.3,8.2,9.5-3.4-1.4-5.3-1.9-9-1.1-1.9,3.6-2.6,6.4-1.9,10.5-2.9-2.2-4.3-5-5.6-8.4-.2-.1-1.7-2.7-2-3.1-1.3-2-2.7-3.9-4.3-5.7-1.5,3.6-3.3,6.1-5.6,9.2.4,3.8.3,6.1-2.6,8.9-2.5-5.2-4.7-7.7-10.8-7.8,4.4-4.7,10.1-7.6,10.3-14.9.2-6.8-4.2-11.2-8.4-15.9,1.2-2.6,3.2-5.4,5.6-7Z"/>
  <path class="st6" d="M51.1,58.2c1.2-2.6,3.2-5.4,5.6-7l11,14.7c1.9,2.6,5.7,7.2,7.2,9.8v.2c-.7-.7-1.2-1.7-1.7-2.1-.7.4-1.3,7-1.5,8.2-.1.9,3,3.9,2.9,5.4-.2-.1-1.7-2.7-2-3.1-1.3-2-2.7-3.9-4.3-5.7-1.5,3.6-3.3,6.1-5.6,9.2.4,3.8.3,6.1-2.6,8.9-2.5-5.2-4.7-7.7-10.8-7.8,4.4-4.7,10.1-7.6,10.3-14.9.2-6.8-4.2-11.2-8.4-15.9Z"/>
  <path class="st1" d="M84.7,89c2.3,0,4.4.5,6.1,2.2,3,2.9,3.9,8.4,3.9,12.4,0,.9,0,3.5-.2,4.3h-.2c-2.7-3-5-6.8-8.2-9.5-2.7-2.3-2.3-6.3-1.5-9.4Z"/>
  <path class="st3" d="M84.7,89c2.3,0,4.4.5,6.1,2.2,3,2.9,3.9,8.4,3.9,12.4,0,.9,0,3.5-.2,4.3h-.2c0-1.1-.6-2.8-1-3.9-2-5.6-4.7-10.6-8.7-15Z"/>
  <path class="st1" d="M49.4,93.1c1.2,0,2,0,3.2.4,2.1,1.2,2.9,2.7,3.8,4.8-2.2,4.8-1.1,8.3,1.2,12.9-.5-.3-1.5-.8-1.9-1.2-6.5-3.7-8-10.1-6.2-17Z"/>
  <path class="st3" d="M49.4,93.1c1.2,0,2,0,3.2.4-1.9,5-1.3,9.9,1.8,14.3.4.6,1.2,1.6,1.3,2.3-6.5-3.7-8-10.1-6.2-17Z"/>
  <path class="st1" d="M97.9,62.3c7.2,2.7,10.8,6.6,10.5,14.7,0,.5,0,1-.1,1.4-.2-.2-.2,0-.2-.3-2.4-3.7-4.7-6.8-9.4-7.3-1.1-1.9-1.7-3-1.9-5.2.3-1.3.5-2,1.1-3.3Z"/>
  <path class="st3" d="M97.9,62.3c7.2,2.7,10.8,6.6,10.5,14.7h-.2c0-.5,0-.5,0-1l-.4-.2c-1.7-5.5-5.1-9.6-11-10.2.3-1.3.5-2,1.1-3.3Z"/>
  <path class="st3" d="M107.8,75.8l.4.2c0,.4,0,.4,0,.9h.2c0,.6,0,1.1-.1,1.5-.2-.2-.2,0-.2-.3,0-.8-.1-1.4-.3-2.3Z"/>
  <path class="st7" d="M116.1,119.4c4,0,7.6.9,11.2,2.5.3,7.2.4,13,6.1,18.3,1.9,1.8,4.1,3.1,6.6,3.8,3.3,1,7,.7,9.6,3.6,1.4,1.6,1.4,3.3,2.7,5.1,2.5,3.2,4.3,7.2,4.4,11.4.3,9-6,15.1-12.4,20.3.5-5.5,1.6-13.1-1.3-18.1-3.5.1-6.8,0-9.5-2.7-3.7-3.6-2-4.3-7.1-6.5.3,1.8.6,3.6,1,5.4,1.6,7.1,2.2,10.6-3.2,16.1-1.3,6.9-3.1,13-6.6,19.2-.3.6-1.3,2.7-1.8,3-4.7-8.6-6.2-12.8-8.2-22.3-7.2-6.9-3.3-13-2.1-21.5l-3.5,1.6c-3,5.1-6.5,8.7-13,7.5-3.1,4.7-1.8,12.6-1.5,18.1-6.6-4.8-12.8-11.9-12.3-20.5.3-4.3,1.8-7.9,4.6-11.2,1.3-1.5,1.2-3.4,2.5-4.8,2.7-2.9,6.5-2.7,9.8-3.7,2.4-.8,4.6-2.1,6.5-3.8,5.6-5.2,5.8-11,6-18.2,3.5-1.7,7.3-2.6,11.2-2.6Z"/>
  <path class="st0" d="M116.1,123.6c2.7,0,4.6.5,7.2,1.3,0,11.2,5.3,20.5,16.9,23.6,2.2.6,3.7.6,5.8,1.7-5.5,3.2-6.2,6-6.2,12.2-4.8-1.5-4.7-3.5-7-7-4.1-1.7-6.8-3-10.5-5.4,0,3.2,0,5.9.3,9.1.5,5.1,3,8.5,1.4,13.5-1.5-4.4-3.5-6.8-7.7-8.8h-.1c-4.1,1.7-6.6,4.7-7.8,9-1.5-5,.5-7.9,1.2-12.9.5-3.5.6-6.4.4-9.9-4.1,2.5-6,3.6-10.6,5.5-.2.4-.4.8-.6,1.3-1.6,3-2.9,4.6-6.2,5.6-.2-6-.5-9-6.2-12.2,2.3-1,4-1.1,6.4-1.8,11.2-3.1,16.2-12.6,16.2-23.4,2.6-.7,4.6-1.2,7.2-1.3Z"/>
  <path class="st8" d="M108.9,124.9c2.6-.7,4.6-1.2,7.2-1.3v26.7c0,4-.2,9.6,0,13.4-4.1,1.8-6.6,4.7-7.8,9-1.5-5,.5-7.9,1.2-12.9.5-3.5.6-6.4.4-9.9-4.1,2.5-6,3.6-10.6,5.5-.2.4-.4.8-.6,1.3-1.6,3-2.9,4.6-6.2,5.6-.2-6-.5-9-6.2-12.2,2.3-1,4-1.1,6.4-1.8,11.2-3.1,16.2-12.6,16.2-23.4Z"/>
  <path class="st1" d="M115.9,168.4c.8.1,2.1,1.6,2.6,2.2,1.9,2.8,2.2,5.6,1.6,8.8-.7,3.3-2.2,9.2-3.8,12h-.2c-1.9-4-4.7-12.2-4-16.7.4-2.7,1.7-4.8,3.9-6.4Z"/>
  <path class="st3" d="M115.9,168.4c.3.7.2,3.3.2,4.2v13.1c0,1.1,0,4.9.1,5.8h-.2c-1.9-4-4.7-12.2-4-16.7.4-2.7,1.7-4.8,3.9-6.4Z"/>
  <path class="st1" d="M84.5,153.8c1.2.7,1.8,1.1,2.7,2.1,1,1.9,1.2,3.8,1.1,5.9-4.6,3.9-5,6.5-5.2,12.4-.4-.5-.9-1.1-1.1-1.7-4.1-6.8-2.8-13.2,2.5-18.8Z"/>
  <path class="st3" d="M84.5,153.8c1.2.7,1.8,1.1,2.7,2.1-3.1,2.5-4.8,5.6-5.3,9.5-.3,2.1.5,6.2.1,7.1-4.1-6.8-2.8-13.2,2.5-18.8Z"/>
  <path class="st1" d="M147.6,153.8c5.7,5.8,6.7,12.4,2.2,19.3-.1.3-.2.4-.4.7h-.2c-.3-1.3-.2-3-.5-4.5-.8-3.3-1.8-5.5-4.8-7.4,0-2.4,0-3.8,1.2-6,.9-1,1.5-1.4,2.6-2.1Z"/>
  <path class="st3" d="M147.6,153.8c5.7,5.8,6.7,12.4,2.2,19.3,0-.2-.2-.4-.1-.6,1.5-6.3.8-12.3-4.6-16.6.9-1,1.5-1.4,2.6-2.1Z"/>
  <path class="st7" d="M166.1,43.6c10.1,1.5,16.4,5.7,19.7,15.6-3.7,3.9-8.5,8.2-9,13.8-.8,8.9,11.7,9.8,10.4,18.6-.2,1.5.3,3.2.4,4.8.4,4.1-.5,8.2-2.8,11.6-4.6,6.5-11.5,8.5-18.8,9.9,3-4.8,7-10.3,7.1-16-6.2-2.8-8-6.6-7.8-13.1-.7-1.1-1.2-1.8-1.9-2.8-5,7.6-3.9,12.4-14.1,14.9l-2.3,2.3c-2.7,2.5-5.9,7.2-8.1,10.2-1,1.4-2.1,3.3-3.2,4.5-2.6-7.8-3.4-16.1-.8-24,.2-.5,1.6-3.7,1.6-3.8,0-6.2,2.6-9.1,6.9-13.3-4.4,1.1-7.2,1.3-11-1.7-4.7,2.7-6.8,9.7-9.1,14.1v.2c-5.6-11.9-5.6-25,8.2-30.6,1.4-.5,2.5-2.2,4-2.7,4.1-1.2,7.8,1.3,11.7,2.3,4.4,1.1,9-.7,11.8-4.2,2.7-3.4,4.9-7.1,7.2-10.7Z"/>
  <path class="st4" d="M168,48.1c3.1.8,4.7,1.4,7.4,3.1,2.8,2.1,4,4,5.7,7-4.3,4.5-8.6,9-8.5,15.7,0,3.8,1.9,7.2,4.6,9.7,1.8,1.7,4.1,3.4,5.5,5.3-6,.1-8.4,2.5-10.9,7.8-2.4-2.6-2.7-4.3-2.6-7.8,0-.4,0-.8,0-1.1-2.4-3.4-3.7-5.6-5.6-9.3-1.6,2-3.2,4-4.6,6.1-2.7,4.2-3.2,8-7.3,11.2.3-2.7.2-9.2-2.5-10.8-3.8-.4-4.9-.1-8.5,1.3,2.1-4,4.5-5.5,7.6-8.8,1.9-2,3.3-3.9,4.7-6.2-2.9,0-5.1,0-7.9-.3-1.5,1-6.8,3.7-8.3,2.2,0-.1,0-.2,0-.4,2.2-3.1,3.1-6.9,1.7-10.5-.3-.7-.7-1.6-1.2-2.4,5.9,1.1,9.5,4.3,15.9,2.6,7-1.9,11-8.5,14.4-14.4Z"/>
  <path class="st2" d="M168,48.1c3.1.8,4.7,1.4,7.4,3.1-1.5,1.8-3.2,4.3-4.7,6.2-3.2,4.2-6.3,8.4-9.5,12.7l-6.1,8.2c-1,1.3-2.3,2.6-2.8,4.1-.5,1.6-.2,4.5-.7,5.9-.2-.9-1-2.6-1.6-3.2-.5-.1-.2-.2-.6,0-3.8-.4-4.9-.1-8.5,1.3,2.1-4,4.5-5.5,7.6-8.8,1.9-2,3.3-3.9,4.7-6.2-2.9,0-5.1,0-7.9-.3-1.5,1-6.8,3.7-8.3,2.2,0-.1,0-.2,0-.4,2.2-3.1,3.1-6.9,1.7-10.5-.3-.7-.7-1.6-1.2-2.4,5.9,1.1,9.5,4.3,15.9,2.6,7-1.9,11-8.5,14.4-14.4Z"/>
  <path class="st1" d="M137.6,107c0-.5-.1-1-.1-1.4-.1-7,1-16.6,10-16.6.8,1.9,1.1,5.7.2,7.4-1,1.9-5,5.2-6.5,7.3-.4.6-3.1,4-3.4,4.1-.2-.4-.2-.4-.1-.8Z"/>
  <path class="st3" d="M137.6,107c0-.5-.1-1-.1-1.4-.1-7,1-16.6,10-16.6-3.5,4.1-5.4,7.5-7.6,12.4-.6,1.4-1.5,4.6-2.3,5.6Z"/>
  <path class="st1" d="M179.6,93.6c1.1-.4,2-.5,3.2-.6,2.1,7.5.3,12.5-5.9,17-.7.4-1.4.9-2.1,1.3.2-.4.4-.9.6-1.3,1.9-4.1,2.6-7.4.6-11.5.8-2.2,1.7-3.5,3.7-4.8Z"/>
  <path class="st3" d="M179.6,93.6c1.1-.4,2-.5,3.2-.6,2.1,7.5.3,12.5-5.9,17l-.2-.6c3.7-5.2,5.3-9.6,2.9-15.8Z"/>
  <path class="st3" d="M176.7,109.4l.2.6c-.7.4-1.4.9-2.1,1.3.2-.4.4-.9.6-1.3.8,0,.8,0,1.4-.6Z"/>
  <path class="st1" d="M124.3,77.8c-.1.4-.1.4-.4.6-.6-1.5.3-6.6,1-8.2,1.9-4.6,5.2-6.2,9.5-8,.6,1.2.8,1.9,1.1,3.1.3,2.1-.8,3.7-1.8,5.5-4.6.6-6.8,3.3-9.2,7Z"/>
  <path class="st3" d="M124.3,77.8c-.1.4-.1.4-.4.6-.6-1.5.3-6.6,1-8.2,1.9-4.6,5.2-6.2,9.5-8,.6,1.2.8,1.9,1.1,3.1-.3.3-2.6.9-3.5,1.2-3.9,1.5-7.5,6.7-7.6,10.9,0,.1,0,.3,0,.4Z"/>
</svg>