<?xml version="1.0" encoding="UTF-8"?>
<svg id="Capa_2" xmlns="http://www.w3.org/2000/svg" version="1.1" viewBox="0 0 232.2 232.1">
  <!-- Generator: Adobe Illustrator 30.1.0, SVG Export Plug-In . SVG Version: 2.1.1 Build 65)  -->
  <defs>
    <style>
      .st0, .st1 {
        fill: #fff;
      }

      .st1, .st2 {
        fill-rule: evenodd;
      }

      .st3, .st2 {
        fill: #efb812;
      }

      .st4 {
        fill: #1d1d1b;
      }
    </style>
  </defs>
  <g id="Layer_1">
    <g>
      <circle class="st4" cx="116.6" cy="116.4" r="113.9"/>
      <path class="st2" d="M232.1,110.5c0-1.6-.3-4.2-.4-5.9-.2-1.7-.5-4.1-.7-5.5-.2-1.4-.6-3.7-.9-5.2-.3-1.5-.8-3.8-1.2-5.3-.4-1.5-.9-3.5-1.2-4.5-.3-1-.8-2.8-1.2-3.9-.4-1.1-1.1-3.2-1.6-4.6-.5-1.4-1.4-3.7-2-5.1-.6-1.4-1.5-3.5-2.1-4.6s-1.6-3.2-2.2-4.4c-.7-1.2-1.9-3.4-2.8-4.9-.9-1.4-2.2-3.6-3-4.8-.8-1.2-2-2.9-2.6-3.8-.6-.9-1.6-2.2-2.2-3-.6-.7-1.7-2.1-2.4-3-.8-.9-2-2.3-2.6-3.1-.7-.8-1.9-2-2.6-2.8-.7-.8-1.7-1.8-2.2-2.3-.5-.5-1.5-1.5-2.3-2.2-.8-.7-2.2-2-3.2-2.9-1-.9-2.6-2.2-3.6-3-1-.8-2.8-2.2-4-3.1-1.2-.9-3.4-2.4-4.9-3.4-1.5-1-3.6-2.3-4.7-3-1.1-.6-2.6-1.5-3.3-1.9-.7-.4-2.6-1.4-4.1-2.1s-3.6-1.8-4.8-2.3c-1.1-.5-3.3-1.4-4.9-2-1.5-.6-4-1.5-5.5-2-1.5-.5-4-1.3-5.6-1.7-1.6-.4-4.2-1.1-5.8-1.5-1.6-.4-4.1-.9-5.5-1.1-1.4-.2-3.6-.6-4.9-.7-1.2-.2-3.4-.4-4.7-.5s-4.1-.3-6.2-.4c-2.1,0-4.2-.1-4.9-.1-.6,0-1.7,0-2.4,0s-2.4.1-3.9.2c-1.5,0-3.6.2-4.8.4-1.2.1-3.3.4-4.8.6-1.5.2-4.1.7-6,1-1.8.4-4.7,1-6.4,1.5-1.7.4-4.4,1.2-6,1.7-1.6.5-3.9,1.3-5.2,1.8-1.2.5-3.2,1.2-4.4,1.7-1.2.5-3.2,1.4-4.6,2-1.3.6-3.3,1.6-4.3,2.1-1,.5-2.8,1.5-4,2.2-1.2.7-3.1,1.8-4.1,2.5s-2.7,1.7-3.6,2.4c-.9.6-3,2.1-4.5,3.2s-3.5,2.7-4.4,3.5c-.9.7-2.1,1.8-2.7,2.3-.6.5-2,1.9-3.2,2.9-1.1,1.1-2.9,2.8-4,4-1.1,1.1-2.2,2.4-2.6,2.8-.4.4-.7.8-.7.8,0,0-.8.9-1.6,1.9-.9,1-2.2,2.7-3,3.8-.8,1-1.9,2.5-2.5,3.3-.6.8-1.8,2.6-2.8,4.1-1,1.5-2.5,3.9-3.3,5.3-.8,1.4-2.2,4-3.1,5.7-.9,1.7-2,4.2-2.6,5.4-.5,1.2-1.4,3.3-1.9,4.6-.5,1.3-1.3,3.6-1.8,5-.5,1.5-1.2,3.8-1.6,5.2-.4,1.4-1,3.4-1.2,4.6-.3,1.1-.8,3.4-1.1,5-.3,1.6-.8,4.3-1,6s-.6,4.1-.7,5.4c-.1,1.2-.3,3.4-.4,4.8C0,110.9,0,113.9,0,116.1s0,5.2.2,6.6c0,1.4.2,3.5.4,4.8.1,1.2.4,3.7.7,5.4s.7,4.4,1,6c.3,1.6.8,3.9,1.1,5,.3,1.1.8,3.2,1.2,4.6.4,1.4,1.1,3.7,1.6,5.1.5,1.5,1.3,3.7,1.8,5,.5,1.3,1.4,3.3,1.9,4.6.5,1.2,1.7,3.6,2.6,5.4.9,1.7,2.3,4.3,3.1,5.7.8,1.4,2.3,3.8,3.3,5.3,1,1.5,2.2,3.4,2.8,4.1.5.8,1.7,2.3,2.5,3.3.8,1.1,2.2,2.7,3,3.8s1.8,2.1,2.1,2.5c.3.4,1.1,1.1,1.6,1.8.6.6,1.4,1.5,1.9,2,.5.5,1.9,1.9,3.1,3,1.2,1.1,2.7,2.5,3.3,3.1.6.5,1.8,1.6,2.7,2.3s2.9,2.3,4.4,3.4c1.5,1.2,3.6,2.6,4.5,3.2.9.6,2.5,1.7,3.6,2.3,1.1.7,2.9,1.8,4.1,2.5,1.2.7,3.1,1.7,4.2,2.3,1.1.6,3.3,1.6,4.9,2.4,1.6.7,4,1.8,5.3,2.3,1.3.5,3.2,1.2,4.1,1.6.9.3,2.8,1,4.3,1.4,1.4.4,4,1.2,5.7,1.6s4.4,1.1,6,1.4c1.6.3,4,.8,5.3.9,1.3.2,3.3.5,4.4.6,1.1.1,2.8.3,3.8.4.9,0,3.4.2,5.5.3,2.7.1,5,.1,7.8,0,2.2,0,5.1-.3,6.4-.4,1.3-.1,3.3-.3,4.3-.4,1-.1,3.2-.5,4.8-.7,1.6-.3,4.3-.8,6-1.2,1.7-.4,4.3-1,5.9-1.5,1.6-.4,4.1-1.2,5.6-1.7,1.5-.5,4-1.4,5.4-2,1.5-.6,3.6-1.5,4.7-2,1.1-.5,3.3-1.5,4.9-2.3s3.5-1.8,4.2-2.2c.7-.4,2.2-1.3,3.3-1.9,1.1-.6,3.2-2,4.7-3,1.5-1,3.7-2.5,4.9-3.4,1.2-.9,3-2.3,4-3.1,1-.8,2.6-2.2,3.6-3,1-.9,2.4-2.2,3.2-2.9.8-.8,1.8-1.8,2.3-2.2.4-.4,1.4-1.4,2.1-2.2.7-.8,1.9-2,2.6-2.8.7-.8,1.9-2.2,2.6-3.1.8-.9,1.9-2.3,2.4-3,.6-.7,1.6-2.1,2.2-2.9.6-.9,1.8-2.6,2.6-3.8.8-1.2,2.2-3.4,3-4.8.9-1.4,2.1-3.6,2.8-4.9.7-1.2,1.7-3.2,2.2-4.4.6-1.2,1.4-3.1,1.9-4.3.5-1.2,1.3-3.1,1.7-4.3.4-1.2,1.1-3,1.5-4.1.4-1.1,1-2.9,1.3-4.1.4-1.2.9-3.3,1.3-4.7.4-1.4.9-3.9,1.2-5.4.3-1.6.8-4.2,1-5.8.2-1.6.6-4.3.8-5.9.2-1.7.4-4.3.4-5.9,0-1.6.1-4.1.1-5.6s0-4-.1-5.6h0ZM227.7,124.3c-.1,1.2-.3,3.4-.5,4.8-.2,1.4-.5,3.9-.8,5.5-.3,1.6-.7,4-1,5.4-.3,1.3-.9,3.7-1.3,5.2-.4,1.5-1.2,4.3-1.8,6-.6,1.8-1.5,4.4-2.1,5.7-.6,1.4-1.4,3.4-1.9,4.6-.5,1.1-1.5,3.1-2.1,4.5-.7,1.3-1.7,3.3-2.3,4.4-.6,1.1-1.7,2.9-2.4,4.1-.7,1.2-1.9,2.9-2.5,3.9-.6,1-2,2.9-3.1,4.3-1,1.4-2.5,3.2-3.2,4.1s-2.1,2.5-3,3.5-2.8,3-4.2,4.4c-1.4,1.4-3.3,3.2-4.2,4.1-.9.9-2.6,2.2-3.6,3.1-1.1.9-3,2.4-4.4,3.5-1.4,1-3.7,2.7-5.1,3.6-1.4.9-3.6,2.3-4.9,3.1-1.2.7-3.1,1.8-4.1,2.3-1,.5-2.5,1.3-3.5,1.8-.9.5-2.9,1.4-4.4,2.1-1.5.7-3.9,1.6-5.2,2.2-1.4.5-3.8,1.4-5.4,1.9s-3.9,1.2-5.1,1.6c-1.2.3-3.2.8-4.4,1.1-1.2.3-3.3.7-4.6.9-1.3.2-3.3.6-4.5.7-1.2.2-3.1.4-4.2.5-1.1.1-3.1.3-4.3.4-1.2,0-3.6.2-5.2.2-1.7,0-4.6,0-6.6,0-2,0-4.7-.3-6-.4-1.3-.1-3.8-.4-5.5-.7-1.7-.2-4.3-.7-5.7-1-1.5-.3-4-.9-5.6-1.3-1.6-.4-4.2-1.1-5.7-1.6-1.5-.5-4-1.3-5.4-1.8-1.4-.5-3.8-1.5-5.3-2.1-1.5-.6-4-1.8-5.5-2.5-1.5-.8-3.5-1.8-4.4-2.3-.9-.5-2.5-1.4-3.6-2.1-1.1-.6-3.3-2-4.9-3.1-1.6-1.1-3.9-2.7-5.2-3.6-1.2-.9-3.2-2.5-4.3-3.4-1.1-.9-2.9-2.5-4-3.5-1.1-1-3-2.9-4.2-4.1-1.2-1.2-2.7-2.8-3.4-3.6-.7-.8-2-2.3-2.9-3.4-.9-1.1-2.4-3-3.3-4.2-.9-1.2-2.4-3.3-3.4-4.7-.9-1.4-2.4-3.6-3.2-4.9-.8-1.3-1.9-3.3-2.5-4.4-.6-1.1-1.4-2.6-1.8-3.4-.4-.8-1.2-2.6-1.8-3.9s-1.5-3.5-2.1-4.9-1.3-3.5-1.8-4.9c-.5-1.3-1.1-3.4-1.5-4.6-.4-1.2-.9-3.3-1.2-4.6-.3-1.3-.8-3.1-1-4.1-.2-1-.5-2.8-.8-4.1s-.5-3.2-.7-4.4c-.2-1.2-.4-3.3-.5-4.8-.2-2.1-.3-4.1-.3-9.6s0-7.5.3-9.6c.1-1.5.4-3.6.5-4.8.2-1.2.4-3.2.7-4.4s.6-3.1.8-4.1c.2-1,.6-2.8,1-4.1.3-1.3.9-3.3,1.2-4.6.4-1.2,1-3.3,1.5-4.6.5-1.3,1.3-3.6,1.8-4.9.5-1.4,1.5-3.6,2.1-4.9.6-1.3,1.4-3,1.8-3.8.4-.8,1.2-2.3,1.8-3.4.6-1,1.7-3,2.5-4.3.8-1.3,2.2-3.5,3.2-4.9.9-1.4,2.4-3.5,3.4-4.7.9-1.2,2.4-3.1,3.3-4.2.9-1.1,2.2-2.6,2.9-3.4s2.2-2.4,3.4-3.6c1.2-1.2,3.1-3,4.2-4.1,1.1-1,3-2.6,4-3.5,1.1-.9,3-2.4,4.3-3.4,1.2-1,3.6-2.6,5.2-3.6,1.6-1,3.8-2.4,4.9-3.1,1.1-.7,2.7-1.6,3.6-2.1.9-.5,2.9-1.5,4.4-2.3,1.5-.8,4-1.9,5.5-2.5,1.5-.6,3.9-1.6,5.3-2.1,1.4-.5,3.8-1.3,5.4-1.8s4-1.2,5.4-1.5c1.4-.4,4-.9,5.6-1.3,1.6-.3,4.4-.8,6-1s4.2-.5,5.6-.7c1.4-.1,3.7-.3,5.2-.4,1.4,0,4.4,0,6.6,0,2.2,0,5.3.2,6.8.3s3.6.3,4.7.4,2.9.4,4,.5c1.1.2,3.3.6,4.9.9,1.6.3,3.8.8,4.9,1.1,1.1.3,3,.8,4.3,1.2s3.5,1.1,4.9,1.6c1.5.5,3.7,1.3,5.1,1.9s3.6,1.5,5,2.1c1.4.6,3.7,1.8,5.1,2.5,1.4.7,3.5,1.9,4.7,2.6,1.2.7,2.9,1.8,3.8,2.3.9.6,2.4,1.6,3.5,2.3,1,.7,2.9,2,4.1,3,1.2,1,3.1,2.4,4.2,3.3s2.7,2.3,3.6,3.1c.9.8,2.8,2.7,4.2,4,1.4,1.4,3.3,3.4,4.2,4.4s2.3,2.6,3,3.5c.7.9,2.2,2.7,3.2,4.1,1,1.4,2.4,3.3,3.1,4.3.6,1,1.8,2.7,2.5,3.9.7,1.2,1.8,3.1,2.5,4.2s1.8,3.3,2.6,4.9,1.9,4.1,2.6,5.7c.6,1.5,1.6,3.9,2.1,5.2.5,1.3,1.2,3.6,1.7,5,.4,1.4,1.1,3.9,1.6,5.4.4,1.6.9,3.8,1.2,5,.2,1.2.6,3.4.9,4.8.2,1.4.6,3.7.7,5.2.2,1.4.4,3.6.5,4.8.1,1.3.2,4.6.2,8.2s0,6.8-.2,8.2h0Z"/>
      <path class="st2" d="M111,33.2c-1.1,0-2.8.2-4,.3-1.1.1-3.1.4-4.3.6-1.2.2-3.3.6-4.6.9-1.2.3-3.2.8-4.3,1.1-1.1.3-3,.9-4.2,1.3-1.2.4-3.2,1.2-4.5,1.7-1.3.5-3.7,1.6-5.4,2.4-1.7.8-3.9,2-5,2.6-1.1.6-2.8,1.7-3.9,2.4l-1.9,1.3h3.7c3.3-1.9,5.5-3.1,7.1-3.9,1.5-.8,3.8-1.8,4.9-2.3,1.2-.5,2.9-1.2,3.8-1.5.9-.3,2.5-.9,3.5-1.2s2.8-.8,4.1-1.2c1.2-.3,3.2-.8,4.4-1,1.2-.2,3.2-.6,4.3-.7,1.2-.2,3-.4,4-.5,1.2-.1,3.9-.2,7.4-.2s6.2,0,7.4.2c1,0,2.7.3,3.9.5,1.2.2,3.1.5,4.3.7,1.2.2,3.2.7,4.5,1,1.2.3,3.3.9,4.6,1.3s3.5,1.2,4.8,1.7c1.3.5,3.4,1.4,4.6,2,1.2.5,3,1.4,4,2,1,.5,2.7,1.5,3.6,2.1l1.8,1.1h3.7c-3.2-2.2-4.9-3.3-5.9-3.8-1-.6-3.2-1.8-4.9-2.6-1.7-.8-4.1-1.9-5.3-2.4-1.2-.5-3.2-1.2-4.4-1.6-1.2-.4-3.3-1-4.6-1.4-1.3-.3-3.3-.8-4.4-1.1s-2.8-.6-3.8-.7-2.8-.4-4.2-.6c-1.4-.2-3.6-.4-5-.5-1.4,0-3.7-.1-5.2-.1-1.5,0-3.6,0-4.7.1h0Z"/>
      <path class="st2" d="M55.8,59.1c-.8.9-2.2,2.4-3,3.4-.8,1-2.2,2.7-3.1,3.9-.9,1.2-2.2,3-2.9,4.1-.7,1.1-1.8,2.8-2.5,4-.7,1.1-1.9,3.5-2.8,5.3-.9,1.8-1.9,4.1-2.3,5.1-.4,1-1,2.7-1.4,3.7-.4,1-1,3.1-1.5,4.6-.4,1.5-1,3.7-1.2,4.8-.2,1.1-.6,3-.8,4.2-.2,1.2-.5,3.3-.7,4.7-.2,1.4-.4,4.1-.5,5.9,0,2.3,0,4.4,0,6.8,0,1.9.3,4.6.4,5.9.2,1.3.4,3.3.6,4.3.2,1.1.5,3,.8,4.3.3,1.3.9,3.6,1.3,5.1.4,1.5,1.1,3.6,1.5,4.6s1,2.7,1.4,3.7c.4,1,1.5,3.3,2.3,5.1.9,1.8,2.1,4.2,2.8,5.3.7,1.1,1.8,2.9,2.5,4,.7,1.1,2,2.9,2.9,4.1.9,1.2,2.3,3,3.2,4,.8,1,2.6,2.9,3.8,4.2s3,3,3.9,3.8c.9.8,2.2,1.9,2.8,2.4.6.5,2,1.6,2.9,2.3,1,.7,2.8,2,4.1,2.8,1.2.8,3.2,2.1,4.4,2.7,1.2.7,3.5,1.9,5.2,2.7,1.7.8,4.2,1.9,5.5,2.5,1.3.5,3.2,1.2,4.3,1.6,1,.3,2.8.9,3.9,1.2,1.1.3,3.1.8,4.3,1.1,1.2.3,3.1.6,4.1.8s2,.3,2.2.4c.2,0,.4,0,.4,0,0,0-.9-.7-2-1.4l-2-1.3c-3.4-.8-5.2-1.2-6.2-1.5-1-.3-2.8-.8-3.9-1.2-1.1-.4-2.8-1-3.7-1.3s-2.6-1-3.7-1.5-3.1-1.4-4.3-2.1c-1.2-.6-3-1.6-3.9-2.2s-2.6-1.6-3.7-2.3c-1.1-.7-2.8-1.9-3.7-2.6-.9-.7-2.3-1.8-3.1-2.4-.8-.6-2.3-2-3.4-2.9-1.1-1-2.8-2.7-3.9-3.9-1.1-1.1-2.6-2.8-3.3-3.8s-2-2.5-2.8-3.5c-.8-1-1.8-2.5-2.4-3.4s-1.5-2.3-2-3.2c-.5-.9-1.5-2.6-2.1-3.7-.6-1.1-1.6-3.2-2.3-4.6-.7-1.4-1.6-3.7-2.1-5.1s-1.2-3.4-1.5-4.4c-.3-1-.8-2.8-1.1-4-.3-1.2-.8-3.2-1-4.5-.2-1.2-.5-3-.7-3.9-.1-.9-.3-2.2-.4-3s-.2-2.4-.3-3.6c0-1.2-.2-3.4-.2-4.9s0-3.7.2-5c0-1.3.2-3.2.4-4.3s.3-2.7.5-3.7c.2-1,.5-2.7.7-3.9.2-1.2.7-3.1,1-4.3.3-1.2,1-3.3,1.4-4.6.5-1.3,1.2-3.3,1.6-4.3.4-1.1,1.2-2.8,1.7-3.9.5-1.1,1.4-2.9,2-4,.6-1.1,1.5-2.8,2.1-3.7.5-.9,1.5-2.3,2-3.2.6-.9,1.7-2.4,2.4-3.4.8-1,2-2.6,2.8-3.5.8-.9,1.9-2.2,2.4-2.7l1-1v-3.1c0,0-1.6,1.6-1.6,1.6h0ZM174.8,59v1.5c1.8,1.9,2.8,3.2,3.5,3.9s1.8,2.2,2.6,3.2c.7,1,1.9,2.6,2.5,3.5s1.5,2.3,2,3.2c.5.8,1.4,2.5,2.1,3.7.7,1.2,1.6,3.2,2.2,4.3.5,1.2,1.3,3,1.7,4,.4,1,1.1,2.9,1.5,4.2.4,1.3,1,3.1,1.2,4.1s.6,2.5.9,3.5.6,2.8.8,4c.2,1.2.5,3.3.7,4.7.2,1.4.4,4.1.4,5.9.1,2.5.1,4.2,0,6.7,0,1.9-.3,4.6-.4,6-.2,1.4-.5,3.5-.7,4.7-.2,1.2-.6,3-.8,4-.2,1-.6,2.6-.9,3.5s-.8,2.8-1.2,4.1c-.4,1.3-1.1,3.2-1.5,4.2-.4,1-1.2,2.8-1.7,4-.5,1.2-1.6,3.2-2.2,4.5-.7,1.3-1.7,3.1-2.2,3.9-.5.9-1.4,2.2-1.9,3-.6.8-1.6,2.3-2.3,3.2-.7,1-2,2.6-2.9,3.6-.8,1-3,3.3-4.9,5.2-1.8,1.8-4.1,3.9-5,4.7-.9.8-2.5,2-3.5,2.8-1,.8-2.8,2-4,2.8-1.2.8-3.2,2-4.5,2.8-1.3.7-3.4,1.8-4.6,2.4-1.2.6-3.3,1.5-4.6,2.1-1.3.6-3.7,1.4-5.4,2-1.6.6-4.2,1.3-5.7,1.7-1.5.4-3,.7-3.5.8-.6.1-1.3.5-2.7,1.3-1,.6-2,1.3-2.1,1.4-.2.1-.3.2-.2.3,0,0,1.1-.1,2.4-.3,1.3-.2,3.1-.6,4.1-.8,1-.2,2.8-.7,4.1-1,1.3-.4,3.4-1,4.6-1.4,1.2-.4,3.2-1.1,4.4-1.6,1.2-.5,3.6-1.6,5.3-2.4,1.7-.8,3.9-2,4.9-2.6,1-.6,2.9-1.8,4.2-2.6,1.3-.9,3.1-2.1,4.1-2.9,1-.7,2.5-2,3.5-2.7.9-.8,2.6-2.2,3.7-3.2,1.1-1,2.8-2.7,3.8-3.8,1-1.1,2.5-2.8,3.3-3.7.8-1,2.1-2.6,2.8-3.5.7-1,1.9-2.6,2.5-3.6.7-1,1.7-2.6,2.3-3.6.6-1,1.8-3.1,2.6-4.8.9-1.7,2-4.1,2.5-5.4.5-1.3,1.3-3.3,1.7-4.4.4-1.1,1-3,1.4-4.3.4-1.2.9-3.1,1.1-4.1.2-1,.6-2.7.8-3.8.2-1.1.5-2.9.7-4.1.2-1.2.4-3,.5-4.1.1-1.2.2-4,.2-7.3s0-6.1-.2-7.3c-.1-1.1-.3-2.9-.5-4.1-.2-1.2-.5-3-.7-4.1-.2-1.1-.7-3.2-1-4.6-.4-1.4-.9-3.5-1.3-4.6-.3-1.1-.9-2.9-1.4-4-.4-1.1-1.1-2.9-1.6-4-.5-1.1-1.5-3.3-2.3-4.9s-1.9-3.7-2.5-4.6c-.6-1-1.6-2.6-2.3-3.6-.7-1-1.8-2.6-2.5-3.6-.7-1-2-2.6-2.8-3.5-.8-1-2.3-2.6-3.3-3.7-1-1.1-1.8-1.9-1.9-1.9s0,.7,0,1.5h0Z"/>
      <path class="st2" d="M123.3,115.2c6,0,6.7,0,6.6-.2,0,0-1.5-.8-3.2-1.5-1.7-.7-3.2-1.3-3.2-1.4s1.1-1.1,2.4-2.2c1.3-1.2,2.3-2.1,2.3-2.2,0,0-1.5.3-3.2.8-1.7.5-3.2.8-3.2.8,0,0,.3-1.5.7-3.2.4-1.8.8-3.2.8-3.3,0,0-1.2.9-2.6,2.2-1.4,1.3-2.6,2.3-2.6,2.3,0,0-.4-1.4-.9-3.1s-.9-3.1-1-3.2c0-.1-.1-.2-.2,0,0,0-.5,1.5-.9,3.2-.5,1.7-.9,3.1-.9,3.1,0,0-1.2-.9-2.6-2.2-1.4-1.3-2.5-2.3-2.6-2.2,0,0,.3,1.6.8,3.3.4,1.7.8,3.1.7,3.2s-1.5-.3-3.2-.8-3.2-.8-3.2-.7c0,0,1,1,2.3,2.2,1.3,1.1,2.3,2.1,2.3,2.1s-1.4.7-3.2,1.4c-1.8.7-3.2,1.4-3.2,1.5,0,.2.7.2,3.3.2h3.4c0-.8,0-1.5.2-1.9.1-.4.4-1.2.7-1.7.3-.5.8-1.2,1.3-1.7.5-.4,1.2-1,1.6-1.2.4-.2,1.1-.5,1.6-.6.5-.1,1.2-.2,1.6-.2s1.1,0,1.6.2c.4,0,1.2.4,1.8.6s1.3.8,1.8,1.4,1.1,1.2,1.3,1.8c.2.5.5,1.4.6,1.9,0,.5.1,1.1,0,1.2"/>
      <path class="st2" d="M56.2,188.9c-.3,1.4-.6,2.7-.7,2.8,0,.1-1.2.4-2.5.7-1.3.3-2.5.6-2.7.6-.2,0-.3.1-.3.2s1.2.4,2.6.7c1.4.3,2.7.6,2.8.7s.4,1.3.7,2.8c.3,1.5.6,2.6.7,2.6,0,0,.4-1.2.7-2.7.3-1.4.6-2.7.7-2.7,0,0,1.3-.3,2.8-.7,1.5-.3,2.7-.6,2.7-.7s-.1-.1-.3-.2c-.2,0-1.4-.3-2.8-.6l-2.5-.6c-.8-3.9-1.1-5.1-1.2-5.3,0-.1-.1-.3-.2-.3s-.4,1.2-.7,2.6h0ZM174.6,189c-.3,1.5-.6,2.7-.7,2.8s-1.2.3-2.5.6c-1.3.3-2.6.6-2.7.6-.1,0-.2.1-.3.2,0,0,1.2.4,2.6.7,1.4.3,2.7.6,2.8.7s.4,1.3.7,2.8.6,2.6.7,2.6.4-1.2.7-2.7c.3-1.4.6-2.7.7-2.7,0,0,1.3-.3,2.8-.7,1.5-.3,2.7-.6,2.7-.7s-.1-.1-.3-.2c-.2,0-1.4-.3-2.7-.6-1.3-.3-2.4-.6-2.4-.6,0,0-.3-1.1-.6-2.2-.2-1.2-.5-2.4-.6-2.7s-.2-.6-.2-.6-.4,1.2-.7,2.7h0Z"/>
      <path class="st2" d="M150.1,95.6c0-1.1,0-1.2-.4-1.9-.2-.4-.5-.9-.7-1.1s-.3-.3-.2-.3c1.5.8.8,2.6,3.3,2.1-.9-.4-.6-3.5-3.9-3.5s-4.6,0-5,.2h0c-.2.1-.5.3-.7.5-.1.2-.2.3-.2.3s-1.1-.5-2.4.3-1,2.3-1,2.3c.5-.6,2.1-.5,2.8-.5,3.7,0,4.2,0,4.4.2.2,0,.5.4.6.6.1.2.2.6.2.8s-.1.6-.2.8c-.1.2-.4.5-.6.6-.3.2-.6.2-2.1.2-1.2,0-1.9,0-2.4.2-.4,0-.9.3-1.2.5-.3.2-.9.6-1.2.9s-.8.9-1,1.3c-.2.4-.4,1-.5,1.4-.1.5-.2,1-.1,1.6,0,.4.2,1.1.3,1.4.1.4.4.9.6,1.2.2.3,5.2,5.4,11.8,12,6.3,6.3,11.4,11.4,11.5,11.4,0,0,0-1,0-2.1v-2l-16.8-16.8h2.4c11,11,14.2,14.2,14.3,14.2s0-.8,0-1.8v-1.8l-10.6-10.6h2.4c6.2,6.2,8,8,8.1,8s0-.4,0-.8-.1-1.2-.3-1.7c-.1-.5-.4-1.3-.6-1.7-.2-.5-.6-1.3-1-1.8-.3-.5-1-1.3-1.5-1.8s-1.2-1.1-1.7-1.4c-.5-.3-1.2-.7-1.5-.9-.3-.2-.9-.4-1.2-.5-.3-.1-.9-.3-1.3-.4,0,0-2.1-1.3-2.4-3.7s-.2-4.8-.2-5.8h0Z"/>
      <path class="st2" d="M80.5,101.4c-.3,2.4-2.4,3.7-2.4,3.7-.4,0-1,.3-1.3.4-.3.1-.9.3-1.2.5-.3.2-1,.6-1.5.9-.5.3-1.3,1-1.7,1.4-.5.5-1.1,1.3-1.5,1.8s-.8,1.3-1,1.8c-.2.4-.4,1.2-.6,1.7-.1.5-.2,1.2-.3,1.7s0,.8,0,.8,1.9-1.8,8.1-8h2.4l-10.6,10.6v1.8c0,1,0,1.8,0,1.8s3.3-3.2,14.3-14.2h2.4l-16.8,16.8v2c0,1.1,0,2.1,0,2.1,0,0,5.2-5.1,11.5-11.4,6.5-6.5,11.6-11.7,11.8-12,.2-.3.5-.8.6-1.2.1-.4.3-1,.3-1.4,0-.5,0-1-.1-1.6,0-.4-.3-1.1-.5-1.4-.2-.4-.7-.9-1-1.3-.4-.3-.9-.8-1.2-.9-.3-.2-.9-.4-1.2-.5-.4-.1-1.2-.2-2.3-.2s-1.8,0-2.1-.2c-.2-.1-.5-.4-.6-.6-.1-.2-.2-.6-.2-.8s0-.6.2-.8c.1-.2.4-.5.6-.6.3-.2.7-.2,4.4-.2s2.4-.1,2.8.5c0,0,.3-1.5-1-2.3s-2.4-.3-2.4-.3c0,0,0-.2-.2-.3-.1-.2-.4-.4-.7-.5h0c-.4-.2-.8-.2-5-.2s-3,3.1-3.9,3.5c2.5.4,1.8-1.4,3.3-2.1,0,0,0,.2-.2.3-.2.2-.5.7-.7,1.1-.3.7-.4.8-.4,1.9s.2,3.4-.2,5.8h0Z"/>
      <g>
        <path class="st0" d="M89.4,73.3h-1.8c-.6,0-1.4.2-1.5,1.4-.2,1.9-1.9,3-4.6,3s-5.5-2.2-5.5-5.7,2.2-5.7,5.5-5.7,4.5,1.3,4.6,3.3c0,1.3,1.1,1.4,1.5,1.4h1.7c.9,0,1.4-.7,1.4-1.3,0-3.7-3.2-7.6-9.2-7.6s-10,4.1-10,9.9,4.1,9.9,10,9.9,9.2-3.7,9.2-7.4-.4-1.2-1.3-1.2h0ZM89.6,74.4s0,0,0,0c0,0,0,0,0,0ZM89.5,74.3s0,0-.1,0h0s0,0,.1,0h0Z"/>
        <path class="st0" d="M110,79.6l-8.4-16.7-.3-.5h-2.3l-.3.5-8.4,16.6h0c0,.2-.2.5-.2.8,0,.7.6,1.2,1.3,1.2h1.9c.7,0,1.1-.1,1.5-.9l1.3-2.5,9.2,1.6.4.9c.4.8.8.9,1.5.9h1.9c.7,0,1.3-.5,1.3-1.2s-.1-.6-.2-.7h0c0,0,0,0,0,0ZM100.2,69.7c.2.4.3.8.5,1.1l2.3,4.5-5-1.1,1.7-3.4c.1-.3.3-.7.5-1.1Z"/>
        <path class="st0" d="M121,70l-4.7-.3c-1.8-.1-1.8-.8-1.8-1.1,0-1.3,1.5-2.2,3.8-2.2s3.6.8,3.7,2.1c0,1.2,1,1.4,1.4,1.4h1.7c.9,0,1.4-.7,1.4-1.3,0-1.9-.8-6.4-8.2-6.4s-8.3,3.3-8.3,6.4.8,4.8,5.9,5.2l4.8.3c2,.2,2,1,2,1.3,0,1.5-1.3,2.3-3.8,2.3-4.4,0-4.4-1.8-4.4-2.5s-.6-1.4-1.4-1.4h-1.8c-.8,0-1.3.5-1.3,1.3v.3c0,3,2.3,6.5,8.9,6.5s8.3-3.3,8.3-6.5-.6-5-6.2-5.5h0Z"/>
        <path class="st0" d="M146.9,79.6l-8.4-16.7-.3-.5h-2.3l-.3.5-8.4,16.6h0c0,.2-.2.5-.2.8,0,.7.6,1.2,1.3,1.2h1.9c.6,0,1.1-.1,1.5-.9h0s0,0,0,0l.3-.8,9.3-1.6,1.3,2.5c.4.8.9.9,1.5.9h1.9c.7,0,1.3-.5,1.3-1.2s-.1-.6-.2-.7h0c0,0,0,0,0,0ZM134.2,75.3l2.4-4.5c.1-.3.3-.7.5-1.1.2.4.4.8.5,1.1l1.7,3.4-5,1.1h0Z"/>
        <path class="st0" d="M157.9,70l-4.7-.3c-1.8-.1-1.8-.8-1.8-1.1,0-1.3,1.5-2.2,3.8-2.2s3.6.8,3.7,2.1c0,1.2,1,1.4,1.4,1.4h1.7c.9,0,1.4-.7,1.4-1.3,0-1.9-.8-6.4-8.2-6.4s-8.3,3.3-8.3,6.4.8,4.8,5.9,5.2l4.8.3c2,.2,2,1,2,1.3,0,1.5-1.3,2.3-3.8,2.3-4.4,0-4.4-1.8-4.4-2.5s-.6-1.4-1.4-1.4h-1.8c-.8,0-1.3.5-1.3,1.3v.3c0,3,2.3,6.5,8.9,6.5s8.3-3.3,8.3-6.5-.6-5-6.2-5.5h0Z"/>
      </g>
      <g>
        <path class="st1" d="M139.2,123.6h-10.3v7.3h-6.2v-7.3h-13.2v7.3h-6.2v-7.3h-10.3c-3.8,15.9-1.8,16.5.7,19.8,2.5,3.3,3.6,6.7,3.6,10.1s-2.5,21.9-2.5,21.9c11.5,11.3,21.3,13.5,21.3,13.5,0,0,9.8-2.2,21.3-13.5,0,0-2.5-18.5-2.5-21.9s1.1-6.8,3.6-10.1,4.4-3.9.7-19.8h0ZM134.9,145c-2.1,2.7-3,5.6-3,8.4s2.1,18.4,2.1,18.4c-1.7,1.7-3.4,3.1-4.9,4.4l-1.6-7.5v8.8c-.7.5-1.4,1-2.1,1.4l-2.2-10.2v11.5c-1.5.9-2.9,1.5-3.9,1.9l-3-18.3-3.5,18.1c-1-.4-2.3-1.1-3.7-1.9v-11.4l-2.2,10.1c-.7-.4-1.4-.9-2.1-1.5v-8.6l-1.6,7.4c-1.5-1.2-3.1-2.6-4.8-4.2,0,0,2.1-15.5,2.1-18.4s-.9-5.7-3-8.4-3.7-3.3-.6-16.6h4.3v3.5h11v-3.5h7.8v3.5h10.6v-3.5h4.8c3.2,13.3,1.6,13.9-.6,16.6h0Z"/>
        <path class="st1" d="M116.3,147.1h-.1c-1.2,0-2.9.7-2.9,2.5v6.2h5.9v-6.2c0-1.8-1.7-2.5-2.9-2.5h0Z"/>
      </g>
      <g>
        <path class="st0" d="M16.6,119c-.4.4-.9.7-.9.7h0c0,0,7.9.2,7.9.2.1,0,.2.1.2.2v1.1c0,.1-.1.2-.2.2l-10.1-.2c-.1,0-.2-.1-.2-.2v-.8l7.2-6.8c.5-.4,1-.8,1-.8h0c0,0-7.8-.2-7.8-.2-.1,0-.2-.1-.2-.2v-1.1c0,0,.1-.2.2-.2l10.1.2c.1,0,.2.1.2.2v.8l-7.4,6.9h0Z"/>
        <path class="st0" d="M20.7,95.2c3.4.5,5,3.4,4.5,6.5-.5,3.1-2.9,5.3-6.3,4.8-3.4-.5-5-3.4-4.5-6.5.5-3.1,2.9-5.3,6.3-4.8h0ZM19.2,104.9c2.5.4,4.4-1.2,4.7-3.4.4-2.3-.9-4.3-3.4-4.7-2.6-.4-4.3,1.2-4.7,3.4-.4,2.2.8,4.3,3.4,4.7h0Z"/>
        <path class="st0" d="M27,92.2c0,0-.2.2-.3.1l-9.6-3c-.1,0-.2-.2-.1-.3l1.5-4.7c.7-2.2,2.2-3.1,3.8-2.6.9.3,1.4.8,1.7,1.5h0c.8-.7,1.7-.9,2.8-.6,1.9.6,2.5,2.3,1.8,4.7l-1.5,4.8h0ZM18.6,88.2l2.9.9,1.2-3.7c.4-1.3-.1-1.8-.9-2.1-.8-.2-1.6,0-2,1.5l-1.1,3.4h0ZM27.2,87.1c.5-1.6.2-2.5-1-2.8-1.1-.3-1.9.2-2.4,1.8l-1.1,3.5,3.4,1.1s1.1-3.5,1.1-3.5Z"/>
        <path class="st0" d="M30.5,78.6l2.4-5.2c0,0,.2-.2.3-.1l.8.3c0,0,.2.2.1.3l-3,6.5c0,0-.2.2-.3,0l-9.2-4.2c-.1,0-.1-.2-.1-.3l.5-1c0,0,.2-.2.3,0,0,0,8.1,3.8,8.2,3.8Z"/>
        <path class="st0" d="M32.5,67l2.9,1.8,3.5-5.7c0,0,.2-.1.3,0l.7.5c0,0,.1.2,0,.3l-4.2,6.8c0,0-.2.1-.3,0l-8.6-5.3c0,0-.1-.2,0-.3l4.1-6.6c0,0,.2-.1.3,0l.7.5c0,0,.1.2,0,.3l-3.4,5.5,2.6,1.6,3.2-5.1c0,0,.2-.1.3,0l.7.5c0,0,.1.2,0,.3l-3.2,5.1h0Z"/>
        <path class="st0" d="M41.7,61.5l-1.9-10.7c-.1-.7,0-1.1,0-1.1h0s-4.6,5.5-4.6,5.5c0,0-.3,0-.3,0l-.7-.5c0,0,0-.3,0-.3l6.5-7.8h0s2,11,2,11c0,.4,0,.9,0,.9h0s4.7-5.7,4.7-5.7c0,0,.3,0,.3,0l.7.5c0,0,0,.3,0,.3l-6.6,7.9h0Z"/>
        <path class="st0" d="M54.8,44.4l-4.3,3.9.6,2.1c0,.2,0,.3-.1.4l-.8.8c0,0-.2,0-.2,0,0,0,0-.1,0-.2l-3-11,.5-.4,10.7,4.1c0,0,.2,0,.2,0,0,0,0,.1,0,.2l-.8.8c-.2.1-.2.2-.4,0l-2-.8h0ZM50.1,46.9l3.3-3-2.9-1.1c-.5-.2-1.9-.9-1.9-.9h0c0,0,.5,1.5.7,2l.8,3h0Z"/>
        <path class="st0" d="M62.8,36.7l-.6-1,3.7-2.4.6,1s-3.7,2.4-3.7,2.4Z"/>
        <path class="st0" d="M76.6,32.8c0,0-.2,0-.3-.1l-4-9.3c0-.1,0-.2.1-.3l7-3c0,0,.3,0,.3.1l.3.8c0,.1,0,.3-.1.3l-5.8,2.5,1.4,3.2,5.2-2.2c0,0,.3,0,.3.1l.3.8c0,.1,0,.3-.1.3l-5.2,2.2,1.7,3.9c0,0,0,.2-.1.3l-1,.4h0Z"/>
        <path class="st0" d="M92.8,16.4c0-.1,0-.2.2-.3l1.1-.3c0,0,.2,0,.3.1l1.4,5.2c.9,3.3-.7,5.4-3.7,6.3-3,.8-5.4-.3-6.3-3.5l-1.4-5.2c0-.1,0-.2.2-.3l1.1-.3c0,0,.2,0,.3.1l1.4,5.2c.7,2.5,2.3,3.3,4.5,2.7,2.2-.6,3.2-2.1,2.5-4.6l-1.4-5.2h0Z"/>
        <path class="st0" d="M102,20.3l.4,3.4,6.6-.8c0,0,.3.1.3.2v.8c.1.1,0,.3-.1.3l-7.9,1c0,0-.2,0-.2-.2l-1.2-10c0-.1,0-.2.2-.2l7.8-.9c0,0,.3.1.3.2v.8c.1.1,0,.3-.1.3l-6.4.8.4,3.1,5.9-.7c0,0,.3.1.3.2v.8c.1.1,0,.3-.1.3l-5.9.7h0Z"/>
        <path class="st0" d="M113.2,13.7c0-.1.1-.2.2-.2h4.5c2.5.1,4.3,1.4,4.2,3.6,0,1.7-1.1,2.8-2.8,3.1h0s.4.4.7.8l1.9,2.8c0,.1.1.2.1.2,0,0,0,.1-.1.1h-1.4c0,0-.2,0-.2-.1l-2.5-3.6h-3.1s0,3.5,0,3.5c0,.1-.1.2-.2.2h-1.1c0,0-.2-.1-.2-.2,0,0,.2-10.1.2-10.1ZM114.8,14.8v4.2c0,0,3.1,0,3.1,0,1.6,0,2.8-.7,2.8-2.1,0-1.4-1.1-2.1-2.7-2.2h-3.1c0,0,0,0,0,0Z"/>
        <path class="st0" d="M124.8,24.3l8.1-7.2c.5-.4.9-.7.9-.7h0s-7.1-1.1-7.1-1.1c0,0-.2-.2-.2-.3v-.8c.1-.1.3-.2.4-.2l10,1.5h0s-8.4,7.4-8.4,7.4c-.3.3-.7.5-.7.5h0s7.3,1.1,7.3,1.1c.1,0,.2.2.2.3v.8c-.2.1-.3.2-.4.2l-10.2-1.5h0s0,0,0,0Z"/>
        <path class="st0" d="M146.2,26.7l-5.6-1.7-1.5,1.6c-.2.2-.2.2-.4.1l-1.1-.3c-.1,0-.1-.1-.1-.2,0,0,0-.1.1-.2l7.9-8.3.6.2,2,11.2c0,0,0,.2,0,.2,0,0,0,.1-.2,0l-1.1-.3c-.2,0-.2,0-.3-.3l-.4-2.1h0ZM141.6,24l4.3,1.3-.5-3.1c-.1-.6-.2-2.1-.2-2.1h-.1s-.9,1.2-1.3,1.6l-2.2,2.3h0Z"/>
        <path class="st0" d="M156.9,29.6l.5-1.1,3.9,2-.5,1.1-3.9-2Z"/>
        <path class="st0" d="M177,41.5c-.1.6-.5,1.7-.5,1.7h0c0,0,1.1-.5,1.6-.8l6.2-2.8c.2,0,.3,0,.4,0l.9.8c0,0,0,.1,0,.2,0,0-.1,0-.2.1l-10.5,4.6-.5-.4,2.5-11.1c0,0,0-.2,0-.2,0,0,0,0,.2,0l.9.8c.2.1.2.2.1.4l-1.5,6.6h0Z"/>
        <path class="st0" d="M186.8,53.7l-4-4.2-2.1.6c-.2,0-.3,0-.4-.1l-.8-.8c0,0,0-.2,0-.2s.1,0,.2,0l10.9-3.2.4.5-3.9,10.8c0,0,0,.2,0,.2s-.1,0-.2,0l-.8-.8c-.1-.2-.2-.2,0-.4l.7-2h0ZM184.2,49l3.1,3.3,1.1-3c.2-.5.9-1.9.9-1.9h0c0,0-1.4.5-1.9.7l-3,.9h0Z"/>
        <path class="st0" d="M190.9,60l3.4,4.7c0,0,0,.3,0,.3l-.7.5c0,0-.3,0-.3,0l-4.2-5.8c0,0,0-.2,0-.3l8.2-5.9c0,0,.2,0,.3,0l.7.9c0,0,0,.2,0,.3l-7.3,5.3h0Z"/>
        <path class="st0" d="M200,67.5l-3,1.7,3.2,5.8c0,0,0,.3-.1.3l-.7.4c0,0-.3,0-.3,0l-3.9-7c0,0,0-.2,0-.3l8.8-4.9c0,0,.2,0,.3,0l3.8,6.9c0,0,0,.3-.1.3l-.7.4c0,0-.3,0-.3,0l-3.1-5.7-2.7,1.5,2.9,5.2c0,0,0,.3-.1.3l-.7.4c0,0-.3,0-.3,0l-2.9-5.2h0Z"/>
        <path class="st0" d="M208.3,78.7c.2-.5.6-.9.6-.9h0c0,0-7.4,2.7-7.4,2.7-.1,0-.2,0-.3-.1l-.4-1.1c0,0,0-.2.1-.3l9.5-3.5c.1,0,.2,0,.3.1l.3.8-4.2,8.9c-.3.6-.6,1.1-.6,1.1h0c0,0,7.3-2.7,7.3-2.7.1,0,.2,0,.3.1l.4,1.1c0,0,0,.2-.1.3l-9.5,3.5c-.1,0-.2,0-.3-.1l-.3-.8,4.3-9.1h0Z"/>
        <path class="st0" d="M214.5,89.9l.8-.2c.1,0,.3,0,.3.2l2.1,9.6c0,0,0,.3-.2.3l-.8.2c-.1,0-.3,0-.3-.2l-.9-4.1-8.8,1.9c-.1,0-.2,0-.2-.2l-.2-1.1c0,0,0-.2.2-.2l8.8-1.9-.9-4.1c0,0,0-.3.2-.3h0Z"/>
        <path class="st0" d="M208.1,106.8c-.1,0-.2,0-.2-.2v-1.1c-.1,0,0-.2,0-.2l10.1-1.1c.1,0,.2,0,.2.2v1.1c.1,0,0,.2,0,.2l-10.1,1.1Z"/>
        <path class="st0" d="M210.6,118.4v-5.8c-.1,0-2.1-.9-2.1-.9-.2-.1-.2-.2-.2-.4v-1.1c0,0,0-.2,0-.2s.1,0,.2,0l10.3,5v.6l-10.1,5.3c0,0-.2,0-.2,0s-.1,0-.1-.2v-1.1c0-.2,0-.2.2-.4l1.9-1h0ZM211.8,113.2v4.5c0,0,2.9-1.4,2.9-1.4.5-.3,1.9-.8,1.9-.8h0c0,0-1.4-.6-1.9-.9l-2.8-1.4h0Z"/>
      </g>
      <g>
        <path class="st0" d="M63.5,202.2c-.1,0,0-.2,0-.2l.2-.4c.3-.5,1.1-1.6,1.1-1.6h.2c0,.1-.6,1.4-.9,1.9l-.2.4c0,0-.1.1-.2,0,0,0-.2-.1-.2-.1ZM65.6,199c.2.1.2.3.1.5s-.3.2-.5.1c-.2-.1-.2-.3-.1-.5s.3-.2.5-.1Z"/>
        <path class="st0" d="M67.5,201.2c0,.2,0,.6,0,.6h0s.3-.2.5-.4l2-1.3c0,0,0,0,.2,0l.4.2s0,0,0,0c0,0,0,0,0,0l-3.4,2.2h-.2c0-.1.2-4.1.2-4.1,0,0,0,0,0,0,0,0,0,0,0,0l.4.2c0,0,0,0,0,.1v2.4c-.1,0-.1,0-.1,0Z"/>
        <path class="st0" d="M70.1,204.3s0,0,0,0l-.3-.2s0,0,0-.1l1.7-3.1s0,0,0,0l.3.2s0,0,0,.1l-1.7,3.1Z"/>
        <path class="st0" d="M75,204.3c0,0,0,0,0-.1.2-.5,0-1-.7-1.4-.7-.4-1.5-.1-1.9.7-.4.8,0,1.6.6,1.9.7.3,1.2.2,1.5-.2,0,0,0,0,.1,0h.3c0,.1,0,.2,0,.2-.3.7-1.2.9-2.2.4-1-.5-1.4-1.5-.9-2.6s1.6-1.4,2.6-.9c1.1.5,1.2,1.5,1,2.1,0,0,0,0-.1,0l-.3-.2h0Z"/>
        <path class="st0" d="M76.3,203.8v-.3c.1,0,.2,0,.2,0l3.2,1.4s0,0,0,.1v.3c-.1,0-.2,0-.2,0l-1.3-.6-1.3,2.9s0,0,0,0l-.4-.2s0,0,0-.1l1.3-2.9-1.3-.6s0,0,0-.1h0Z"/>
        <path class="st0" d="M83.3,208.2c-.4,1.1-1.5,1.5-2.6,1.1-1-.4-1.6-1.4-1.2-2.5s1.5-1.5,2.6-1.1c1,.4,1.6,1.4,1.2,2.5ZM80.1,207c-.3.8,0,1.6.8,1.9.8.3,1.6,0,1.9-.8.3-.9,0-1.6-.8-1.9-.8-.3-1.6,0-1.9.8Z"/>
        <path class="st0" d="M85,206.9s0,0,0,0l1.5.5c.8.3,1.3.9,1.1,1.6s-.7.8-1.3.8h0s0,.2.1.3l.4,1.1c0,0,0,0,0,0,0,0,0,0,0,0l-.5-.2s0,0,0,0l-.5-1.5-1-.3-.4,1.2s0,0,0,0h-.4c0-.1,0-.2,0-.2l1.1-3.4h0ZM85.4,207.5l-.5,1.4,1.1.3c.5.2,1,0,1.2-.4.2-.5-.2-.8-.7-1l-1-.4h0Z"/>
        <path class="st0" d="M88.6,211.8s0,0,0,0h-.4c0-.1,0-.2,0-.2l1-3.4s0,0,0,0h.4c0,.1,0,.2,0,.2l-1,3.4Z"/>
        <path class="st0" d="M92.6,212.2l-2-.5-.5.6c0,0,0,0-.2,0h-.4c0-.1,0-.1,0-.2,0,0,0,0,0,0l2.7-3h.2c0,0,.9,4,.9,4,0,0,0,0,0,0,0,0,0,0,0,0h-.4c0-.1,0-.1-.1-.2l-.2-.8h0ZM91,211.3l1.5.4-.2-1.1c0-.2,0-.7,0-.7h0s-.3.4-.4.6c0,0-.7.8-.7.8Z"/>
        <path class="st0" d="M96.5,212.5c0,0,0,0,0,.1,0,.4.2.8,1,1,.8.1,1.1-.1,1.2-.5,0-.2,0-.5-.5-.6l-1-.3c-.7-.2-1-.6-.9-1.1.1-.6.7-1.1,1.8-.9,1.1.2,1.4.8,1.3,1.4,0,0,0,0,0,0h-.4c0,0,0-.1,0-.2,0-.3-.2-.7-.9-.8-.6-.1-1.1.1-1.1.5,0,.2,0,.4.5.6l1,.3c.8.2,1,.7.9,1.2,0,.5-.6,1.1-1.8.9-1.1-.2-1.6-.8-1.5-1.5h0c0,0,0-.1,0-.1h.4c0,0,0,0,0,0Z"/>
        <path class="st0" d="M104.3,213.2c-.2,1.2-1.2,1.8-2.3,1.6-1.1-.1-1.9-1-1.7-2.2s1.2-1.8,2.3-1.6c1.1.2,1.9,1,1.7,2.2ZM100.9,212.7c-.1.9.4,1.5,1.2,1.6.8.1,1.5-.3,1.7-1.2.1-.9-.4-1.5-1.2-1.6-.8-.1-1.5.3-1.7,1.2Z"/>
        <path class="st0" d="M105.4,215.2s0,0,0,0l.3-3.6s0,0,0,0l1.7.2c.8,0,1.2.5,1.2,1.1,0,.3-.2.5-.4.7h0c.3.2.4.5.4.9,0,.7-.6,1-1.5,1l-1.8-.2ZM107.2,214.9c.6,0,.9-.1.9-.5,0-.4-.2-.6-.8-.7h-1.3c0-.1-.1,1.1-.1,1.1h1.3c0,.1,0,.1,0,.1ZM106.1,212v1.1c0,0,1.3.1,1.3.1.5,0,.6-.2.7-.5s-.1-.5-.7-.6h-1.2Z"/>
        <path class="st0" d="M109.8,211.9s0,0,0,0h1.6c.9.1,1.5.6,1.4,1.4,0,.6-.4,1-1,1.1h0s.1.1.2.3l.7,1c0,0,0,0,0,0,0,0,0,0,0,0h-.5s0,0,0,0l-.8-1.3h-1.1c0,0,0,1.2,0,1.2,0,0,0,0,0,0h-.4s0,0,0-.1l.2-3.6h0ZM110.3,212.3v1.5c0,0,1,0,1,0,.6,0,1-.2,1-.7,0-.5-.4-.8-.9-.8h-1.1Z"/>
        <path class="st0" d="M114.5,214v1.2s2.3,0,2.3,0c0,0,0,0,0,0v.3s0,0,0,0h-2.8c0,0,0,0,0-.1v-3.6c0,0,0,0,.1,0h2.8c0,0,0,.1,0,.1v.3s0,0,0,0h-2.3s0,1.1,0,1.1h2.1s0,0,0,.1v.3s0,0,0,0h-2.1s0,0,0,0Z"/>
        <path class="st0" d="M120.3,215.2h2c0-.1,0,0,0,0v.3s0,0,0,0h-2.5c0,.1,0,0,0,0l-.2-3.6s0,0,0,0h.4s0,0,0,0l.2,3.2h0Z"/>
        <path class="st0" d="M125.9,214.5l-2.1.2-.3.7c0,0,0,0-.1,0h-.4s0,0,0,0,0,0,0,0l1.5-3.8h.2s2.1,3.4,2.1,3.4c0,0,0,0,0,0s0,0,0,0h-.4c0,0,0,0-.1,0l-.4-.6h0ZM124,214.2h1.6c0-.1-.6-1.1-.6-1.1-.1-.2-.3-.6-.3-.6h0s-.1.5-.2.7l-.4,1h0Z"/>
        <path class="st0" d="M131.9,213.7l-2,.3-.2.7c0,0,0,0-.1.1h-.4c0,0,0,0,0,0s0,0,0,0l1.2-3.8h.2s2.4,3.2,2.4,3.2c0,0,0,0,0,0s0,0,0,0h-.4c0,0,0,0-.1,0l-.4-.6h0ZM130.1,213.5l1.6-.2-.6-.9c-.1-.2-.4-.6-.4-.6h0s-.1.5-.2.7l-.3,1.1h0Z"/>
        <path class="st0" d="M134.1,214.1s0,0,0,0l-.7-3.5s0,0,0,0l1.5-.3c1.1-.2,2.1.3,2.3,1.4.2,1.1-.4,2-1.6,2.2l-1.5.3ZM133.9,210.8l.6,2.7,1.1-.2c1-.2,1.3-.8,1.1-1.6-.2-.9-.9-1.2-1.7-1.1l-1,.2h0Z"/>
        <path class="st0" d="M139.4,211.4c.1.2.4.5.4.5h0s0-.4.1-.6l.5-2.3c0,0,0,0,.1-.1h.4c0-.1,0-.1,0,0,0,0,0,0,0,0l-.9,3.9h-.2c0,0-2.6-3-2.6-3,0,0,0,0,0,0,0,0,0,0,0,0h.4c0-.1,0-.1.1,0l1.6,1.8h0Z"/>
        <path class="st0" d="M142.9,210.2l.4,1.2,2.2-.7s.1,0,.1,0v.3c0,0,0,.1,0,.1l-2.7.8s0,0,0,0l-1-3.4s0,0,0,0l2.6-.8s.1,0,.1,0v.3c0,0,0,.1,0,.1l-2.2.7.3,1,2-.6s.1,0,.1,0v.3c0,0,0,.1,0,.1l-2,.6h0Z"/>
        <path class="st0" d="M145.7,207.3s0,0,0,0l1.5-.5c.8-.3,1.6,0,1.8.6.2.6,0,1.1-.5,1.4h0s.2,0,.3.2l1,.7c0,0,0,0,0,0,0,0,0,0,0,0l-.5.2s0,0-.1,0l-1.3-.9-1,.4.4,1.2s0,0,0,0h-.4c0,.1,0,.1,0,0l-1.2-3.4h0ZM146.4,207.5l.5,1.4,1-.4c.5-.2.8-.6.7-1-.2-.5-.6-.6-1.2-.4l-1,.4h0Z"/>
        <path class="st0" d="M150.8,208c0,0,0,0,.1,0,.2.4.6.6,1.4.3.7-.3.9-.7.7-1.1,0-.2-.3-.4-.8-.2l-1,.3c-.7.2-1.1,0-1.4-.4-.2-.5,0-1.3,1-1.7,1.1-.4,1.6,0,1.9.5,0,0,0,0,0,0h-.3c0,.2,0,.2-.1,0-.1-.3-.5-.5-1.2-.2-.6.2-.8.7-.7,1,0,.2.3.3.7.2l1-.3c.8-.2,1.2,0,1.4.5.2.5,0,1.3-1,1.7-1.1.4-1.8.1-2-.5h0c0,0,0-.1,0-.1h.4c0-.1,0-.2,0-.2Z"/>
        <path class="st0" d="M155.4,207.4s0,0,0,.1l-.4.2s0,0-.1,0l-1.4-3.3s0,0,0-.1l.4-.2s0,0,.1,0l1.4,3.3Z"/>
        <path class="st0" d="M156.8,206.8s0,0-.1,0l-1.6-3.2s0,0,0-.1l1.4-.7c1-.5,2.1-.2,2.6.8.5,1,.1,2-1,2.5l-1.4.7h0ZM155.9,203.7l1.2,2.5,1-.5c.9-.4,1.1-1.1.7-1.9-.4-.8-1.2-1-1.9-.6l-1,.5Z"/>
        <path class="st0" d="M162.8,203l-1.8,1v.8c0,0,0,.1,0,.1l-.4.2s0,0,0,0h0c0,0-.1-4.1-.1-4.1h.2c0-.1,3.3,2.2,3.3,2.2,0,0,0,0,0,0,0,0,0,0,0,0l-.4.2c0,0,0,0-.1,0l-.6-.4h0ZM160.9,203.4l1.4-.8-.9-.6c-.2-.1-.6-.5-.6-.5h0s0,.5,0,.8v1.1s0,0,0,0Z"/>
        <path class="st0" d="M164.9,202.6s0,0-.1,0l-1.8-3.1s0,0,0-.1l1.3-.8c1-.6,2.1-.4,2.7.6.6,1,.3,2-.8,2.6l-1.3.8h0ZM163.6,199.6l1.4,2.4.9-.6c.8-.5,1-1.2.5-1.9-.4-.8-1.2-.9-2-.4l-.9.6h0Z"/>
        <path class="st0" d="M167.1,196.9c.1,0,.2,0,.2,0l.2.4c.3.5.9,1.7.9,1.7h-.2c0,.1-.9-.9-1.2-1.4l-.2-.4c0,0,0-.2,0-.2h.2ZM168.7,199.6c.2-.1.4,0,.5.1s0,.4-.1.5-.4,0-.5-.1,0-.4.1-.5Z"/>
      </g>
      <path class="st3" d="M176.9,132.3c.5,0,2.7-.4,5.5-2-.4-.6-1.8-2.2-3.9-4.1-1.8-1.6-4.3-3.5-7.4-4.9,0-1,.1-2,.2-2.9,0-.5,0-1.4,0-2.8,3.9,2,7.7,4.4,11.2,7.2-3.5-2.1-7.2-4.1-11.1-5.2,3.6,1.8,7.2,3.7,10.7,5.8-1.4.9-3.1,1.3-4.8,1.2.6.4,1.1.9,1.5,1.3.5,0,2.8-.6,5.5-2.2-.3-.6-1.4-2.2-3.1-4.2-1.9-2.1-5.2-4.8-9.8-6.3,0-5.9,0-16.1,0-29.9v-31.6c-85.3,0-110.1,0-110.2,0,0,0-.1,14.9,0,33,0,12.8,0,22.6,0,28.7,0,0,0-.2-.2-.3-4.7,1.4-8,4.3-10,6.4-1.8,1.9-2.8,3.6-3.1,4.2,2.7,1.7,5,2.2,5.5,2.2.5-.4,1-.8,1.5-1.3-1.7.2-3.4-.2-4.8-1.2,3.5-2.1,7-4.1,10.7-5.8-3.9,1.1-7.6,3.1-11.1,5.2,3.6-2.8,7.4-5.2,11.4-7.3-3.8,1.1-7.4,3.1-10.3,5.7,1.6-1.5,3.2-3.1,5-4.4,1.6-1.2,3.4-2.2,5.3-2.9,0,3.5,0,5.6,0,6.2,0,.3,0,.7,0,1.1-3.2,1.4-5.9,3.4-7.7,5-2.1,1.9-3.5,3.5-3.9,4.1,2.8,1.6,5,2,5.5,2,.4-.3.8-.6,1.3-.9-1.8-.5-3.5-.9-5.3-1.4,3.4-1.9,6.9-3.7,10.4-5.3,0,.2,0,.5,0,.7,0,.8.2,1.8.4,2.9-3.4,1.6-5.7,3.2-7.1,4.4-1.7,1.5-2.5,2.8-2.8,3.2,2.8,2,5.3,2.1,5.8,2.1.6-.5,1.3-1.1,2-1.6h0c-.4,0-.8,0-1.1,0-1.7-.3-3.3-.7-5-1.2,2.8-1.4,5.8-2.6,8.7-3.8.2,1.3.6,3,.8,4,0,.3.1.6.2.9-3.6,2-6,4-7.3,5.6-1.6,1.8-2.3,3.3-2.5,3.9,3.3.6,6.4.2,8.4-.2,2-.4,3.3-1,3.6-1.2,0,0,0-.1,0-.2.4,1.3,1,2.9,1.4,4.1.5,1.4,1.4,3.4,1.9,4.6.5,1.1,1.3,2.9,1.8,3.9.5,1,1.4,2.7,2,3.8.6,1.1,1.6,2.8,2.2,3.8s1.6,2.5,2.2,3.4c.6.9,1.8,2.5,2.6,3.6.8,1.1,2.2,2.8,3.1,3.8.8,1,2.4,2.8,3.5,3.9,1.1,1.1,2.7,2.8,3.7,3.7.9.9,2.4,2.2,3.2,2.9.8.7,2,1.7,2.7,2.2.6.5,1.9,1.4,2.8,2.1.9.7,2.6,1.9,3.7,2.6,1.1.7,2.8,1.8,3.8,2.4,1,.6,2.9,1.7,4.2,2.4,1.3.7,3.1,1.6,4,2l1.7.8c2.6-1.2,4.3-2.1,5.5-2.8,1.2-.6,3.2-1.8,4.4-2.5,1.2-.7,3-1.9,4.1-2.6,1-.7,2.7-1.9,3.8-2.7,1.1-.8,2.7-2.1,3.8-3,1-.9,2.9-2.5,4.1-3.7,1.2-1.2,3.1-3.1,4.2-4.2,1.1-1.1,2.6-2.9,3.4-3.9.9-1,2.3-2.8,3.2-4,.9-1.2,2.1-2.9,2.7-3.8.6-.9,1.5-2.2,2-3.1.5-.9,1.4-2.4,2-3.5.6-1.1,1.6-3.1,2.3-4.4.7-1.4,1.6-3.4,2.1-4.6s1.3-3.2,1.8-4.6c.3-.8.6-1.7.9-2.6.4.2,1.7.7,3.5,1.1,2,.5,5.1.9,8.4.2-.2-.6-.9-2-2.6-3.9-1.4-1.5-3.6-3.5-7.1-5.4.2-1,.5-2.1.6-2.8.1-.6.2-1.3.4-2.1,2.9,1.1,5.7,2.3,8.5,3.7-1.6.6-3.3,1-5,1.2-.4,0-.8.1-1.1,0h0c.7.5,1.4,1,2,1.6.5,0,3-.2,5.8-2.1-.2-.4-1-1.7-2.8-3.2-1.4-1.2-3.6-2.8-6.8-4.3.2-1.1.3-2.5.4-3.6,3.5,1.6,6.9,3.3,10.2,5.2-1.8.5-3.5.9-5.3,1.4.4.3.9.6,1.3.9h0ZM177.4,126.6c-2.1-1.4-4.3-2.6-6.6-3.5,0-.3,0-.6,0-.9,2.4,1.2,4.6,2.7,6.5,4.4ZM176.2,116.8c1.8,1.3,3.4,2.9,5,4.4-2.9-2.6-6.4-4.5-10.1-5.7,0-.4,0-.9,0-1.5,1.8.6,3.5,1.6,5,2.8h0ZM61.3,122c0,.3,0,.6,0,.9-2.4.9-4.7,2.2-6.8,3.6,2-1.8,4.3-3.3,6.8-4.6ZM52.4,128.5c2.8-2.1,5.8-3.8,9-5.3,0,.4,0,.9.1,1.3-3.1,1.1-6.2,2.4-9.1,4ZM62.1,129.1c0,.2,0,.4,0,.6-1.6.6-3.2,1.4-4.7,2.3,1.5-1.1,3-2,4.6-2.9h0ZM57.3,132.8c1.7-.8,3.3-1.7,5-2.5,0,0,0,.2,0,.3,0,.2,0,.4,0,.6-1.7.5-3.5,1-5.1,1.6ZM56.9,144c2.4-.6,4.7-1.4,7-2.4-.7.1-1.3.2-1.9.3-2.1.4-4.3.7-6.3,1.6,2.2-2.7,5-4.9,8-6.6.2.9.4,1.8.6,2.3.2.8.6,2.3,1,3.5-2.8.7-5.5,1.1-8.4,1.3ZM59,144.8c2.2-.4,4.3-1.1,6.2-2,0,.2.1.4.2.5,0,.1,0,.2,0,.3-2,.8-4.3,1-6.5,1.2h0ZM166.7,143.7c.1-.3.2-.6.3-.8,1.9.9,3.9,1.6,6,1.9-2.1-.2-4.3-.4-6.3-1.1h0ZM176.3,143.5c-2-.8-4.1-1.2-6.3-1.6-.6-.1-1.3-.2-1.9-.3,2.3,1,4.6,1.8,7,2.4-2.7-.2-5.4-.6-8.1-1.2,0-.2.1-.4.2-.6.3-1.1.9-3.1,1.2-4.3,0-.3.1-.6.2-.9,2.9,1.6,5.6,3.8,7.8,6.4h0ZM169.1,85.8c0,20,0,33-.1,34.5,0,1.3-.2,3.3-.4,4.4-.1,1.1-.3,2.8-.4,3.6s-.5,2.9-.8,4.5c-.3,1.6-.9,3.9-1.2,5.2-.3,1.2-.9,3.1-1.2,4.1-.3,1.1-.9,2.7-1.2,3.6-.3.9-1,2.7-1.5,3.8-.5,1.2-1.3,3-1.8,4.1s-1.4,2.9-2.1,4.1c-.6,1.2-1.6,2.9-2.1,3.8-.5.9-1.6,2.6-2.4,3.8-.8,1.2-2,3-2.7,3.9s-1.8,2.4-2.4,3.2c-.6.8-2,2.3-2.9,3.4-.9,1.1-2.9,3.1-4.4,4.5-1.4,1.4-3.7,3.4-4.9,4.5-1.3,1.1-3.1,2.5-4.1,3.2-1,.7-2.9,2.1-4.3,3-1.4.9-3.4,2.2-4.6,2.9-1.1.7-3.3,1.8-7.4,3.9l-2.8-1.4c-1.6-.8-3.8-2-5-2.7-1.2-.7-3.2-1.9-4.3-2.7-1.2-.8-3.1-2.1-4.2-2.9-1.1-.9-2.8-2.2-3.8-3-1-.8-2.6-2.2-3.6-3.2-1-.9-2.5-2.4-3.3-3.2-.8-.8-2.1-2.2-2.8-3.1s-2.1-2.5-3-3.6c-.9-1.1-2.1-2.7-2.6-3.4-.5-.7-1.5-2.1-2.1-3.1s-1.7-2.6-2.3-3.6c-.6-1-1.6-2.8-2.3-4-.7-1.2-1.7-3.2-2.2-4.5-.6-1.2-1.5-3.4-2-4.7-.5-1.3-1.3-3.6-1.8-5-.5-1.4-1.1-3.5-1.4-4.6-.3-1.1-.8-3-1-4.2s-.7-3.2-.9-4.4c-.2-1.2-.5-3.3-.7-4.6-.2-1.3-.3-3.4-.5-4.6,0-1.4-.2-13.6-.2-34.8v-32.6h105.9v32.1h0ZM169.8,131.2c0-.3.1-.6.1-.8,1.6.8,3.2,1.6,4.8,2.4-1.6-.6-3.2-1.1-4.9-1.6h0ZM170,129.8c0-.2,0-.4.1-.6,1.5.8,2.9,1.7,4.3,2.8-1.4-.8-2.9-1.5-4.4-2.1h0ZM170.7,124.6c0-.1,0-.3,0-.4,0-.2,0-.5,0-.8,3.1,1.4,6,3.2,8.7,5.1-2.8-1.6-5.8-2.8-8.8-3.9h0Z"/>
    </g>
  </g>
</svg>