<?xml version="1.0" encoding="UTF-8"?>
<svg id="Capa_2" data-name="Capa 2" xmlns="http://www.w3.org/2000/svg" viewBox="0 0 232.24 232.15">
  <defs>
    <style>
      .cls-1, .cls-2 {
        fill: #efb812;
      }

      .cls-3 {
        fill: #1d1d1b;
      }

      .cls-4, .cls-5 {
        fill: #fff;
      }

      .cls-2, .cls-5 {
        fill-rule: evenodd;
      }
    </style>
  </defs>
  <g id="Layer_1" data-name="Layer 1">
    <g>
      <circle class="cls-3" cx="116.59" cy="116.42" r="113.95"/>
      <path class="cls-2" d="M232.1,110.5c-.08-1.58-.29-4.23-.45-5.89-.16-1.65-.46-4.14-.66-5.52-.2-1.37-.6-3.7-.89-5.15-.28-1.46-.81-3.85-1.16-5.3-.35-1.46-.88-3.47-1.18-4.49-.3-1.01-.84-2.77-1.2-3.9-.37-1.13-1.1-3.21-1.63-4.64-.53-1.41-1.44-3.7-2.03-5.07-.59-1.38-1.53-3.46-2.09-4.64-.56-1.18-1.57-3.17-2.25-4.42-.67-1.25-1.92-3.44-2.77-4.86-.85-1.41-2.21-3.57-3.03-4.78-.81-1.22-2-2.94-2.65-3.83-.64-.89-1.64-2.22-2.21-2.95-.58-.73-1.67-2.09-2.44-3.02-.76-.93-1.96-2.32-2.65-3.09-.7-.76-1.86-2.03-2.59-2.8-.72-.76-1.72-1.78-2.21-2.26-.48-.47-1.51-1.47-2.29-2.21-.77-.73-2.19-2.03-3.16-2.89-.97-.85-2.6-2.21-3.61-3.03-1.01-.82-2.8-2.2-3.98-3.07-1.17-.87-3.36-2.4-4.86-3.38-1.49-.99-3.62-2.33-4.71-2.98-1.1-.64-2.58-1.5-3.32-1.91-.72-.41-2.55-1.35-4.05-2.1-1.5-.75-3.65-1.77-4.79-2.29-1.13-.51-3.32-1.42-4.86-2.03-1.54-.61-4.02-1.52-5.53-2.03-1.5-.49-4.01-1.26-5.59-1.71-1.58-.44-4.2-1.09-5.82-1.45-1.63-.36-4.11-.85-5.53-1.1-1.41-.24-3.6-.58-4.86-.74-1.25-.16-3.37-.39-4.71-.51-1.34-.12-4.12-.29-6.19-.37-2.06-.07-4.25-.13-4.86-.12-.61.02-1.67.05-2.36.07-.69.02-2.44.11-3.9.2-1.46.08-3.61.25-4.78.37-1.18.12-3.33.38-4.78.6-1.46.2-4.14.67-5.96,1.03-1.83.36-4.71,1.01-6.41,1.45-1.7.44-4.38,1.21-5.96,1.71-1.58.49-3.9,1.28-5.16,1.76-1.25.46-3.24,1.24-4.41,1.74-1.18.48-3.23,1.39-4.57,2.02-1.34.62-3.26,1.56-4.27,2.09-1.01.54-2.83,1.53-4.05,2.23-1.21.69-3.07,1.8-4.12,2.46-1.05.66-2.68,1.72-3.6,2.35-.93.62-2.95,2.09-4.49,3.24-1.54,1.15-3.53,2.7-4.42,3.45-.89.74-2.12,1.79-2.72,2.33-.6.54-2.03,1.85-3.17,2.92-1.13,1.06-2.93,2.84-3.99,3.97-1.06,1.12-2.22,2.38-2.58,2.79-.35.4-.69.76-.72.81-.05.04-.78.9-1.64,1.91-.85,1.01-2.21,2.69-3.03,3.75-.81,1.05-1.93,2.54-2.48,3.31-.56.77-1.82,2.63-2.81,4.13-.98,1.5-2.46,3.88-3.29,5.29-.83,1.42-2.22,4-3.1,5.74-.88,1.74-2.04,4.16-2.58,5.37-.54,1.22-1.39,3.27-1.91,4.56-.51,1.3-1.34,3.55-1.83,5.01-.5,1.46-1.24,3.77-1.63,5.15-.39,1.38-.95,3.44-1.24,4.57-.28,1.13-.78,3.38-1.11,5-.33,1.63-.79,4.34-1.03,6.04-.24,1.7-.55,4.11-.67,5.37-.12,1.25-.29,3.41-.37,4.78-.08,1.37-.15,4.32-.15,6.55s.06,5.17.15,6.55c.08,1.37.25,3.53.37,4.78.12,1.25.43,3.67.67,5.37.24,1.7.71,4.41,1.03,6.04.32,1.62.83,3.86,1.11,5,.29,1.13.85,3.19,1.24,4.57.4,1.37,1.13,3.69,1.63,5.15.49,1.46,1.32,3.71,1.83,5.01.52,1.29,1.38,3.34,1.91,4.56.54,1.21,1.7,3.63,2.58,5.37.88,1.74,2.28,4.32,3.1,5.74.83,1.41,2.3,3.8,3.29,5.3.98,1.5,2.25,3.35,2.81,4.12.55.77,1.67,2.26,2.48,3.31.82,1.06,2.18,2.74,3.03,3.75.85,1.01,1.82,2.14,2.15,2.5.32.36,1.06,1.15,1.62,1.76.57.61,1.43,1.53,1.92,2.04.48.52,1.88,1.88,3.09,3.02,1.22,1.14,2.71,2.53,3.32,3.07.6.54,1.83,1.59,2.72,2.33.89.74,2.88,2.29,4.42,3.45,1.53,1.16,3.56,2.62,4.49,3.25.93.62,2.55,1.68,3.6,2.34,1.06.66,2.92,1.77,4.12,2.46,1.22.7,3.1,1.73,4.2,2.3,1.1.57,3.28,1.63,4.86,2.35,1.58.73,3.97,1.75,5.3,2.29,1.34.53,3.2,1.24,4.12,1.57.93.33,2.85.98,4.27,1.42,1.41.45,3.97,1.17,5.67,1.61,1.7.44,4.42,1.06,6.04,1.38,1.62.33,4,.75,5.3.95,1.29.2,3.28.46,4.41.59,1.13.13,2.82.3,3.75.38.94.08,3.42.21,5.53.3,2.66.11,5.04.11,7.8,0,2.19-.08,5.07-.26,6.41-.38,1.34-.12,3.26-.33,4.27-.45,1-.13,3.16-.46,4.78-.72,1.62-.27,4.3-.79,5.96-1.16,1.66-.37,4.31-1.03,5.89-1.47,1.58-.45,4.1-1.22,5.59-1.71,1.51-.5,3.96-1.4,5.45-1.99,1.5-.59,3.61-1.48,4.71-1.96,1.1-.48,3.28-1.52,4.86-2.31,1.58-.79,3.48-1.77,4.2-2.17.73-.41,2.22-1.27,3.32-1.91,1.09-.65,3.21-1.99,4.71-2.98,1.5-.98,3.69-2.51,4.86-3.38,1.18-.87,2.96-2.26,3.98-3.08,1.01-.82,2.64-2.17,3.61-3.03.97-.85,2.42-2.17,3.22-2.94.81-.77,1.84-1.77,2.29-2.21.45-.45,1.42-1.44,2.15-2.21.73-.76,1.89-2.03,2.59-2.79.69-.77,1.89-2.16,2.65-3.09.77-.93,1.87-2.29,2.44-3.02.57-.72,1.57-2.05,2.21-2.95.65-.89,1.84-2.61,2.65-3.83.82-1.21,2.17-3.36,3.03-4.77.85-1.42,2.1-3.6,2.77-4.86.68-1.25,1.68-3.24,2.25-4.42.56-1.17,1.43-3.09,1.94-4.26.5-1.17,1.29-3.09,1.74-4.26.45-1.18,1.13-3.03,1.5-4.12.37-1.1.97-2.95,1.33-4.12.35-1.17.95-3.29,1.31-4.71.36-1.41.92-3.87,1.24-5.44.33-1.58.79-4.19,1.03-5.82.25-1.62.59-4.3.75-5.95.16-1.66.36-4.31.45-5.89.08-1.58.15-4.1.15-5.59s-.06-4.01-.15-5.59ZM227.7,124.26c-.1,1.22-.32,3.37-.48,4.78-.16,1.42-.52,3.9-.79,5.52-.27,1.63-.73,4.04-1.02,5.38-.29,1.33-.85,3.68-1.26,5.22-.42,1.54-1.24,4.26-1.83,6.04-.6,1.77-1.52,4.36-2.07,5.73-.55,1.38-1.4,3.44-1.91,4.57-.5,1.13-1.47,3.15-2.14,4.49-.67,1.33-1.72,3.32-2.32,4.41-.61,1.1-1.71,2.95-2.43,4.12-.73,1.17-1.86,2.93-2.51,3.89-.65.98-2.02,2.9-3.05,4.27-1.02,1.37-2.46,3.23-3.19,4.12-.73.89-2.09,2.48-3.01,3.53-.92,1.05-2.8,3.04-4.18,4.43-1.38,1.38-3.27,3.21-4.2,4.05-.94.85-2.56,2.25-3.61,3.13-1.05.87-3.04,2.44-4.41,3.48-1.37,1.03-3.66,2.66-5.08,3.6-1.42.95-3.6,2.34-4.86,3.08-1.25.74-3.08,1.79-4.05,2.32-.97.52-2.53,1.34-3.46,1.8-.93.46-2.92,1.39-4.41,2.06-1.5.66-3.86,1.64-5.23,2.16-1.37.53-3.83,1.39-5.45,1.92-1.62.53-3.94,1.24-5.15,1.56-1.22.33-3.2.83-4.42,1.1-1.22.28-3.27.71-4.56.95-1.3.24-3.33.58-4.5.74-1.17.17-3.07.4-4.2.52-1.13.12-3.06.29-4.27.37-1.21.07-3.57.19-5.22.23-1.66.06-4.64.03-6.63-.07-1.98-.09-4.7-.27-6.04-.39-1.33-.12-3.82-.42-5.52-.66-1.7-.25-4.28-.68-5.74-.97-1.46-.29-3.98-.85-5.6-1.26-1.62-.4-4.2-1.12-5.74-1.6-1.54-.47-3.96-1.28-5.38-1.8-1.41-.52-3.8-1.47-5.3-2.1-1.51-.63-3.99-1.77-5.53-2.54-1.54-.76-3.53-1.78-4.41-2.27-.89-.49-2.52-1.42-3.61-2.08-1.1-.65-3.28-2.04-4.86-3.1-1.58-1.05-3.9-2.69-5.16-3.63-1.25-.95-3.18-2.46-4.27-3.37-1.09-.92-2.91-2.51-4.05-3.54-1.13-1.03-3.02-2.86-4.2-4.06-1.17-1.2-2.7-2.81-3.4-3.59-.7-.77-2.01-2.29-2.92-3.38-.92-1.1-2.41-2.98-3.32-4.2-.91-1.21-2.42-3.34-3.35-4.71-.94-1.38-2.36-3.6-3.16-4.92-.81-1.34-1.93-3.3-2.51-4.35-.57-1.05-1.37-2.57-1.77-3.38-.41-.81-1.24-2.56-1.84-3.9-.6-1.34-1.53-3.52-2.06-4.86-.53-1.34-1.34-3.52-1.79-4.86-.46-1.33-1.12-3.42-1.49-4.64-.35-1.21-.91-3.26-1.24-4.56-.32-1.29-.75-3.15-.96-4.12-.2-.98-.54-2.8-.75-4.05-.21-1.25-.51-3.24-.66-4.41-.16-1.18-.4-3.33-.54-4.78-.21-2.13-.26-4.05-.26-9.64s.05-7.52.26-9.64c.14-1.46.38-3.6.54-4.78.15-1.17.45-3.16.66-4.41.21-1.25.56-3.07.75-4.05.2-.97.64-2.82.96-4.11.33-1.3.88-3.35,1.24-4.56.36-1.22,1.02-3.31,1.49-4.64.46-1.34,1.28-3.56,1.83-4.93.54-1.37,1.47-3.56,2.06-4.86.59-1.29,1.39-3.02,1.8-3.83.41-.81,1.21-2.33,1.77-3.38.58-1.05,1.7-3.01,2.51-4.35.8-1.33,2.22-3.55,3.16-4.92.93-1.37,2.44-3.5,3.35-4.71.91-1.22,2.4-3.1,3.32-4.2.91-1.09,2.22-2.61,2.92-3.38.7-.77,2.23-2.39,3.4-3.59,1.18-1.2,3.07-3.03,4.2-4.06,1.14-1.03,2.96-2.62,4.05-3.53,1.1-.91,3.02-2.44,4.27-3.38,1.25-.95,3.58-2.58,5.16-3.64,1.58-1.05,3.76-2.44,4.86-3.09,1.1-.66,2.72-1.59,3.61-2.08.88-.48,2.87-1.5,4.41-2.27,1.54-.76,4.02-1.9,5.53-2.54,1.5-.63,3.88-1.58,5.3-2.1,1.42-.52,3.84-1.33,5.38-1.8,1.54-.47,3.99-1.16,5.45-1.53,1.45-.37,3.99-.94,5.63-1.26,1.63-.34,4.36-.79,6.04-1.03,1.68-.24,4.22-.54,5.63-.67,1.42-.13,3.73-.3,5.16-.36,1.42-.07,4.4-.1,6.62-.06,2.23.04,5.28.17,6.78.28,1.5.11,3.61.31,4.71.44,1.1.13,2.88.37,3.98.54,1.1.16,3.32.56,4.93.88,1.62.32,3.84.81,4.93,1.09,1.1.27,3.02.8,4.27,1.16,1.25.36,3.47,1.07,4.93,1.56,1.46.49,3.74,1.34,5.08,1.87,1.34.53,3.59,1.49,5.01,2.14,1.41.64,3.71,1.75,5.08,2.46,1.38.72,3.49,1.88,4.71,2.59,1.22.71,2.94,1.75,3.83,2.31.89.57,2.45,1.6,3.47,2.3,1.01.7,2.87,2.04,4.12,2.98,1.25.95,3.14,2.44,4.19,3.32,1.05.88,2.68,2.28,3.61,3.13.93.85,2.81,2.67,4.2,4.05,1.38,1.39,3.26,3.38,4.18,4.43.92,1.05,2.28,2.64,3.01,3.53.73.88,2.16,2.74,3.19,4.12,1.03,1.38,2.4,3.3,3.05,4.27.65.97,1.78,2.72,2.51,3.89.72,1.18,1.84,3.07,2.47,4.2.63,1.13,1.79,3.35,2.57,4.93s1.95,4.13,2.61,5.67c.65,1.53,1.59,3.88,2.08,5.22.48,1.34,1.25,3.6,1.71,5.04.45,1.43,1.15,3.88,1.55,5.44.4,1.56.94,3.83,1.19,5.03.25,1.22.64,3.37.87,4.78.23,1.42.56,3.73.73,5.16.16,1.41.38,3.57.48,4.78.11,1.33.19,4.56.19,8.17s-.07,6.84-.19,8.17Z"/>
      <path class="cls-2" d="M110.97,33.25c-1.05.06-2.84.22-3.98.35-1.13.13-3.08.4-4.35.6-1.25.2-3.31.6-4.56.88-1.25.28-3.21.76-4.35,1.09-1.13.33-3.02.91-4.19,1.3-1.18.4-3.2,1.15-4.5,1.66-1.29.52-3.72,1.62-5.38,2.43-1.65.82-3.91,2.01-5.01,2.63-1.09.63-2.84,1.72-3.9,2.41l-1.91,1.27,3.69.08c3.31-2,5.53-3.2,7.06-3.99,1.54-.78,3.76-1.83,4.94-2.32,1.17-.5,2.89-1.18,3.83-1.52.93-.33,2.52-.87,3.53-1.19,1.01-.32,2.83-.85,4.05-1.16,1.22-.32,3.2-.77,4.42-1.01,1.22-.24,3.17-.57,4.34-.73,1.18-.16,2.96-.38,3.98-.48,1.18-.12,3.86-.2,7.44-.2s6.24.07,7.37.2c.97.1,2.72.32,3.9.48,1.17.16,3.13.49,4.34.72,1.22.24,3.24.7,4.5,1.01,1.25.32,3.34.93,4.64,1.35,1.3.42,3.46,1.19,4.79,1.72,1.33.53,3.39,1.4,4.56,1.95,1.17.54,2.96,1.44,3.98,1.99,1.01.55,2.66,1.49,3.64,2.08l1.81,1.09,3.74-.08c-3.19-2.08-4.94-3.17-5.95-3.75-1.01-.59-3.23-1.75-4.93-2.57-1.7-.84-4.09-1.91-5.3-2.41-1.22-.48-3.2-1.23-4.42-1.64-1.21-.42-3.27-1.05-4.56-1.41-1.3-.35-3.29-.85-4.42-1.09-1.13-.24-2.82-.58-3.75-.74-.93-.16-2.81-.43-4.2-.59-1.37-.17-3.62-.36-5.01-.45-1.37-.08-3.73-.14-5.22-.13-1.51,0-3.6.07-4.65.14Z"/>
      <path class="cls-2" d="M55.83,59.08c-.85.88-2.21,2.4-3.04,3.37-.83.98-2.23,2.73-3.11,3.9-.89,1.17-2.18,3-2.88,4.05-.69,1.05-1.8,2.84-2.47,3.98-.67,1.13-1.92,3.51-2.8,5.3-.88,1.78-1.92,4.07-2.33,5.07-.41,1.01-1.04,2.68-1.41,3.73-.37,1.03-1.04,3.11-1.48,4.64-.44,1.51-1,3.68-1.24,4.81-.25,1.13-.62,3.03-.83,4.2-.2,1.17-.5,3.29-.66,4.71-.17,1.41-.36,4.07-.45,5.89-.1,2.3-.1,4.36,0,6.76.09,1.9.29,4.55.44,5.89.16,1.34.42,3.29.59,4.34.18,1.06.55,2.97.84,4.27.28,1.29.87,3.59,1.31,5.11.44,1.52,1.11,3.6,1.48,4.64.37,1.04,1,2.71,1.41,3.73.41,1,1.45,3.29,2.33,5.07.87,1.78,2.13,4.16,2.8,5.3.67,1.13,1.78,2.93,2.47,3.98.7,1.05,1.99,2.88,2.88,4.05.88,1.17,2.31,2.96,3.18,3.98.85,1.01,2.58,2.89,3.84,4.17,1.26,1.28,3.02,2.98,3.9,3.78.89.79,2.16,1.88,2.81,2.42.64.54,1.97,1.58,2.94,2.3.97.73,2.8,2.02,4.05,2.84,1.25.84,3.24,2.06,4.41,2.73,1.18.68,3.53,1.9,5.23,2.73,1.7.83,4.19,1.93,5.53,2.46,1.33.52,3.25,1.23,4.26,1.56,1.01.34,2.77.88,3.9,1.2,1.13.32,3.09.81,4.35,1.09,1.25.28,3.11.64,4.12.81,1.01.17,2.03.33,2.25.37.22.05.39,0,.36-.07-.02-.07-.93-.72-2.03-1.41l-1.99-1.26c-3.42-.78-5.24-1.24-6.25-1.51-1.01-.28-2.77-.82-3.91-1.19-1.13-.38-2.79-.97-3.68-1.31-.89-.34-2.55-1.04-3.68-1.54-1.13-.5-3.06-1.43-4.27-2.05-1.22-.63-2.97-1.61-3.9-2.16-.93-.55-2.59-1.6-3.68-2.32-1.1-.73-2.75-1.9-3.69-2.59-.93-.7-2.32-1.78-3.09-2.42-.76-.63-2.29-1.96-3.37-2.95-1.09-.98-2.84-2.72-3.9-3.86-1.06-1.13-2.56-2.82-3.34-3.75-.78-.93-2.03-2.52-2.79-3.53-.75-1-1.84-2.53-2.41-3.38-.57-.85-1.48-2.28-2.02-3.17-.54-.88-1.48-2.55-2.1-3.68-.61-1.13-1.64-3.21-2.29-4.64-.65-1.41-1.61-3.73-2.14-5.15-.53-1.42-1.21-3.37-1.5-4.35-.29-.97-.79-2.76-1.11-3.97-.32-1.22-.77-3.23-1.01-4.5-.24-1.25-.54-3-.66-3.89-.13-.89-.3-2.25-.38-3.02-.08-.77-.21-2.4-.3-3.6-.08-1.22-.15-3.4-.15-4.86s.06-3.71.15-5.01c.08-1.29.25-3.21.37-4.26.12-1.05.35-2.71.5-3.68.16-.98.49-2.73.73-3.9.24-1.17.71-3.13,1.04-4.34.33-1.22.98-3.31,1.42-4.64.45-1.34,1.16-3.3,1.6-4.35.43-1.05,1.19-2.81,1.69-3.9.5-1.09,1.41-2.91,2.03-4.04.61-1.13,1.55-2.8,2.09-3.68.54-.89,1.45-2.32,2.02-3.17.57-.86,1.65-2.38,2.41-3.38.75-1.01,2.01-2.6,2.79-3.53.77-.93,1.86-2.16,2.4-2.73l.99-1.03-.06-3.06-1.53,1.6h0ZM174.82,59.03v1.5c1.78,1.94,2.84,3.15,3.5,3.94.66.79,1.81,2.25,2.55,3.24.73.99,1.85,2.56,2.47,3.49.62.93,1.53,2.35,2.03,3.17.49.81,1.43,2.46,2.08,3.68.66,1.21,1.64,3.17,2.17,4.34.54,1.17,1.31,2.96,1.71,3.98.4,1.01,1.09,2.9,1.52,4.19.44,1.3,1,3.12,1.25,4.05.25.93.64,2.52.87,3.53.23,1.01.6,2.81.8,3.98.21,1.17.51,3.29.68,4.71.16,1.41.36,4.07.45,5.89.13,2.47.13,4.16,0,6.69-.09,1.87-.3,4.55-.45,5.96-.17,1.42-.46,3.54-.68,4.71-.2,1.17-.57,2.96-.8,3.98-.23,1.01-.62,2.6-.87,3.53-.25.93-.82,2.75-1.25,4.05-.44,1.29-1.12,3.18-1.52,4.19-.4,1.01-1.17,2.81-1.71,3.98-.54,1.17-1.55,3.2-2.25,4.49-.7,1.3-1.7,3.06-2.23,3.9-.53.85-1.4,2.21-1.94,3.02-.55.81-1.58,2.27-2.3,3.23-.72.98-2.01,2.6-2.85,3.61-.84,1-3.02,3.33-4.85,5.16-1.83,1.82-4.09,3.95-5.02,4.72-.93.78-2.52,2.03-3.53,2.8-1.01.76-2.8,2.02-3.99,2.8-1.17.78-3.2,2.02-4.49,2.77-1.3.74-3.35,1.84-4.56,2.43-1.22.59-3.27,1.52-4.57,2.06-1.29.55-3.72,1.44-5.38,2-1.65.56-4.21,1.3-5.67,1.66-1.46.36-3.01.73-3.46.83-.59.11-1.31.46-2.66,1.32-1.01.64-1.97,1.26-2.14,1.38-.16.12-.26.24-.21.29.04.04,1.13-.12,2.42-.34,1.3-.22,3.15-.59,4.12-.8.98-.2,2.82-.68,4.12-1.03,1.29-.36,3.35-.99,4.56-1.41,1.22-.41,3.2-1.15,4.42-1.63,1.22-.49,3.6-1.57,5.3-2.41,1.7-.83,3.92-1.99,4.93-2.57,1.01-.59,2.9-1.76,4.2-2.61,1.29-.85,3.15-2.15,4.12-2.88.98-.72,2.53-1.96,3.46-2.74.93-.77,2.58-2.24,3.68-3.25,1.09-1.01,2.81-2.73,3.83-3.83,1.01-1.09,2.5-2.78,3.31-3.74.82-.98,2.06-2.56,2.79-3.54.72-.97,1.86-2.59,2.53-3.6.68-1.01,1.7-2.63,2.28-3.6.58-.98,1.75-3.12,2.58-4.78.85-1.66,1.97-4.08,2.51-5.37.54-1.3,1.31-3.27,1.71-4.38.4-1.11,1.02-3.03,1.38-4.26.35-1.24.85-3.07,1.1-4.09.24-1.01.61-2.73.82-3.83.2-1.09.5-2.94.66-4.12.17-1.17.38-3,.48-4.05.12-1.18.2-3.97.2-7.28s-.07-6.1-.2-7.28c-.1-1.05-.32-2.88-.48-4.05-.17-1.17-.46-3.03-.66-4.12-.2-1.1-.66-3.15-1.01-4.57-.35-1.41-.92-3.47-1.26-4.56-.33-1.09-.94-2.88-1.35-3.98-.41-1.09-1.14-2.91-1.63-4.04-.48-1.13-1.53-3.35-2.33-4.93-.8-1.58-1.93-3.66-2.51-4.64-.58-.98-1.6-2.59-2.28-3.6-.67-1.01-1.8-2.64-2.53-3.6-.72-.98-1.97-2.56-2.79-3.54-.81-.97-2.28-2.64-3.27-3.72-.99-1.07-1.82-1.94-1.87-1.94-.04,0-.06.68-.06,1.51Z"/>
      <path class="cls-2" d="M123.34,115.15c5.97,0,6.68-.04,6.62-.19-.05-.1-1.51-.76-3.24-1.47-1.74-.72-3.17-1.34-3.17-1.4,0-.06,1.06-1.05,2.36-2.2,1.3-1.16,2.31-2.13,2.25-2.16-.06-.04-1.51.32-3.23.77-1.72.46-3.17.81-3.21.76-.06-.04.28-1.5.73-3.23.45-1.75.81-3.21.79-3.28-.03-.06-1.19.95-2.59,2.25-1.39,1.29-2.56,2.33-2.59,2.31-.04-.02-.44-1.39-.9-3.05-.46-1.66-.89-3.12-.96-3.24-.06-.12-.14-.16-.18-.07-.05.08-.46,1.51-.92,3.17-.46,1.65-.89,3.06-.95,3.12-.05.06-1.22-.95-2.59-2.23-1.38-1.28-2.53-2.26-2.55-2.16-.02.09.33,1.56.77,3.26.45,1.7.78,3.12.74,3.16-.05.05-1.5-.31-3.24-.77-1.74-.46-3.19-.8-3.22-.73-.04.06.99,1.04,2.28,2.17,1.29,1.12,2.35,2.09,2.35,2.13,0,.05-1.41.67-3.16,1.4-1.75.72-3.2,1.4-3.24,1.5-.06.15.66.19,3.32.19h3.38c0-.85.1-1.47.23-1.91.13-.45.45-1.2.71-1.68.27-.49.84-1.21,1.35-1.67.48-.45,1.2-.97,1.58-1.15.39-.2,1.09-.46,1.55-.58.46-.12,1.18-.22,1.58-.22s1.11.07,1.55.15c.45.08,1.24.36,1.76.62.58.29,1.31.83,1.85,1.37.56.56,1.06,1.24,1.35,1.84.25.53.54,1.39.63,1.91.09.53.14,1.1.09,1.25"/>
      <path class="cls-2" d="M56.19,188.91c-.31,1.44-.59,2.69-.65,2.79-.06.1-1.19.42-2.53.71-1.34.29-2.55.56-2.68.59-.15.04-.26.12-.26.19,0,.06,1.17.37,2.61.69,1.44.32,2.69.65,2.78.73.09.08.43,1.34.74,2.77.32,1.46.63,2.59.72,2.56.08-.03.4-1.24.72-2.68.32-1.45.62-2.67.68-2.71.06-.04,1.32-.33,2.79-.66,1.47-.32,2.68-.64,2.68-.7,0-.06-.12-.14-.26-.18-.15-.04-1.39-.32-2.79-.62l-2.52-.57c-.85-3.87-1.12-5.12-1.15-5.26-.04-.14-.12-.26-.19-.26-.06,0-.37,1.18-.67,2.61h0ZM174.6,188.98c-.32,1.48-.61,2.73-.66,2.79-.05.06-1.18.34-2.52.63-1.34.29-2.55.56-2.69.59-.14.04-.25.12-.26.19,0,.06,1.18.36,2.62.68,1.44.32,2.68.63,2.76.69.08.06.42,1.31.74,2.78.32,1.47.65,2.64.73,2.61.08-.03.4-1.24.71-2.68.32-1.45.62-2.67.69-2.71.07-.04,1.32-.33,2.78-.66,1.47-.32,2.67-.64,2.67-.7,0-.06-.15-.15-.34-.19-.18-.05-1.38-.32-2.68-.6-1.29-.29-2.4-.57-2.45-.62-.05-.06-.31-1.06-.57-2.23-.25-1.18-.53-2.39-.6-2.69-.07-.3-.19-.55-.25-.55s-.37,1.21-.68,2.68Z"/>
      <path class="cls-2" d="M150.1,95.59c0-1.09-.03-1.22-.37-1.94-.2-.43-.5-.91-.66-1.08-.16-.17-.27-.32-.24-.35,1.47.76.84,2.56,3.31,2.13-.86-.42-.64-3.52-3.89-3.52-4.25,0-4.6.01-5.01.21h0c-.24.12-.54.35-.66.52-.12.17-.22.33-.22.34,0,.01-1.12-.47-2.45.35s-1.03,2.27-1.03,2.27c.47-.6,2.05-.49,2.83-.48,3.71,0,4.16.04,4.45.19.22.1.48.36.6.58.13.21.22.56.22.77s-.1.55-.22.76c-.12.2-.39.47-.6.58-.33.17-.64.21-2.1.2-1.18,0-1.92.06-2.35.17-.35.09-.9.3-1.22.46-.31.16-.88.58-1.24.93-.36.35-.82.92-1.02,1.29-.2.36-.43.99-.54,1.42-.12.52-.16,1.03-.13,1.55.03.43.16,1.08.29,1.44.13.36.39.92.59,1.22.2.32,5.24,5.45,11.76,11.98,6.27,6.28,11.45,11.4,11.49,11.37.05-.03.08-.96.08-2.07v-2.02l-16.78-16.76h2.44c10.99,10.98,14.21,14.16,14.26,14.16.05,0,.08-.81.08-1.8v-1.8l-10.57-10.57h2.44c6.18,6.17,8.01,7.97,8.05,7.97.05,0,.06-.36.02-.8-.04-.44-.15-1.2-.27-1.69-.11-.49-.36-1.26-.55-1.71-.19-.46-.62-1.26-.96-1.77-.34-.52-1-1.32-1.46-1.78-.46-.46-1.24-1.1-1.73-1.42-.49-.31-1.16-.71-1.49-.86-.34-.16-.89-.38-1.22-.5-.34-.11-.93-.29-1.33-.38,0,0-2.07-1.31-2.41-3.71s-.19-4.76-.19-5.84Z"/>
      <path class="cls-2" d="M80.49,101.43c-.34,2.4-2.41,3.71-2.41,3.71-.4.1-.99.27-1.33.38-.33.12-.89.34-1.22.5-.34.15-1.01.55-1.49.86-.49.32-1.26.96-1.73,1.42-.46.46-1.12,1.26-1.46,1.78-.34.52-.77,1.31-.96,1.77-.19.45-.44,1.22-.55,1.71-.12.49-.24,1.25-.27,1.69-.03.44-.03.8.02.8.04,0,1.87-1.8,8.05-7.97h2.44s-10.57,10.57-10.57,10.57v1.8c0,.99.03,1.8.08,1.8.04,0,3.27-3.19,14.26-14.16h2.44s-16.78,16.76-16.78,16.76v2.02c0,1.11.03,2.05.08,2.07.04.03,5.22-5.09,11.49-11.37,6.52-6.53,11.56-11.66,11.76-11.98.2-.3.46-.85.59-1.22.13-.36.26-1.01.29-1.44.03-.52,0-1.03-.13-1.55-.1-.43-.34-1.06-.54-1.42-.2-.36-.66-.94-1.02-1.29-.36-.35-.93-.77-1.24-.93-.32-.16-.87-.37-1.22-.46-.43-.11-1.17-.17-2.35-.17-1.46,0-1.77-.03-2.1-.2-.21-.11-.48-.38-.6-.58-.12-.21-.22-.55-.22-.76s.1-.57.22-.77c.12-.22.38-.48.6-.58.29-.15.74-.19,4.45-.19.78,0,2.36-.12,2.83.48,0,0,.3-1.46-1.03-2.27s-2.44-.34-2.45-.35c0,0-.1-.16-.22-.34-.11-.17-.41-.4-.66-.52h0c-.42-.2-.77-.21-5.01-.21-3.25,0-3.03,3.1-3.89,3.52,2.47.43,1.84-1.37,3.31-2.13.03.03-.08.18-.24.35-.16.17-.46.65-.66,1.08-.34.73-.37.85-.37,1.94s.15,3.44-.19,5.84Z"/>
      <g>
        <path class="cls-4" d="M89.4,73.32s-.09,0-.13,0h-1.64c-.63,0-1.4.25-1.48,1.45-.19,1.87-1.88,2.96-4.62,2.96-3.33,0-5.47-2.24-5.47-5.7s2.15-5.7,5.47-5.7c2.7,0,4.46,1.26,4.62,3.29.09,1.27,1.05,1.41,1.46,1.41h1.66c.94,0,1.43-.65,1.43-1.29,0-3.68-3.21-7.59-9.16-7.59s-9.99,4.06-9.99,9.88,4.11,9.88,9.99,9.88,9.16-3.7,9.16-7.36c0-.61-.44-1.23-1.29-1.23ZM89.62,74.39s-.05-.04-.08-.05c.03,0,.06.03.08.05ZM89.51,74.34s-.09-.01-.13-.01c0,0,.01,0,.02,0,.04,0,.08,0,.12.01Z"/>
        <path class="cls-4" d="M110.03,79.64l-8.42-16.65-.28-.55h-2.26l-.28.55-8.42,16.64-.03.06c-.09.17-.22.42-.22.74,0,.66.56,1.2,1.26,1.2h1.86c.65,0,1.08-.14,1.48-.9l1.26-2.54,9.23,1.62.45.9c.42.78.85.92,1.49.92h1.86c.69,0,1.26-.54,1.26-1.2,0-.32-.13-.57-.22-.74l-.03-.05ZM100.2,69.68c.17.42.35.81.48,1.08l2.28,4.54-4.98-1.1,1.74-3.43c.14-.27.31-.67.48-1.09Z"/>
        <path class="cls-4" d="M121.02,69.98l-4.7-.34c-1.79-.13-1.79-.83-1.79-1.07,0-1.32,1.54-2.24,3.76-2.24s3.57.75,3.7,2.1c.09,1.25,1.03,1.39,1.43,1.39h1.69c.94,0,1.43-.65,1.43-1.29,0-1.92-.8-6.39-8.25-6.39-5.69,0-8.28,3.32-8.28,6.41,0,1.77.77,4.81,5.93,5.24l4.79.34c1.99.15,1.99.98,1.99,1.29,0,1.52-1.28,2.29-3.81,2.29-4.38,0-4.38-1.81-4.38-2.49,0-.84-.56-1.4-1.4-1.4h-1.78c-.79,0-1.34.54-1.34,1.32v.29c0,2.99,2.33,6.47,8.91,6.47,5.73,0,8.33-3.35,8.33-6.47,0-1.49-.61-5.01-6.22-5.47Z"/>
        <path class="cls-4" d="M146.87,79.64l-8.42-16.65-.28-.55h-2.26l-.28.55-8.42,16.64-.03.06c-.09.17-.22.42-.22.74,0,.66.56,1.2,1.26,1.2h1.86c.65,0,1.08-.14,1.48-.9l.02-.04.02-.05.34-.83,9.29-1.62,1.27,2.52c.42.78.85.92,1.49.92h1.86c.69,0,1.26-.54,1.26-1.2,0-.32-.13-.56-.22-.74l-.03-.05ZM134.19,75.31l2.35-4.53c.14-.28.31-.67.49-1.1.17.42.35.81.48,1.08l1.72,3.43-5.04,1.11Z"/>
        <path class="cls-4" d="M157.85,69.98l-4.7-.34c-1.79-.13-1.79-.83-1.79-1.07,0-1.32,1.54-2.24,3.76-2.24s3.57.75,3.7,2.1c.09,1.25,1.03,1.39,1.43,1.39h1.69c.94,0,1.43-.65,1.43-1.29,0-1.92-.8-6.39-8.25-6.39-5.69,0-8.28,3.32-8.28,6.41,0,1.77.77,4.81,5.93,5.24l4.79.34c1.99.15,1.99.98,1.99,1.29,0,1.52-1.28,2.29-3.81,2.29-4.39,0-4.39-1.81-4.39-2.49,0-.84-.56-1.4-1.4-1.4h-1.78c-.79,0-1.34.54-1.34,1.32v.29c0,2.99,2.33,6.47,8.91,6.47,5.73,0,8.33-3.35,8.33-6.47,0-1.49-.61-5.01-6.22-5.47Z"/>
      </g>
      <g>
        <path class="cls-5" d="M139.17,123.64h-10.31v7.27h-6.16v-7.27h-13.15v7.27h-6.16v-7.27h-10.31c-3.78,15.87-1.85,16.54.67,19.81,2.52,3.26,3.63,6.68,3.63,10.09s-2.52,21.94-2.52,21.94c11.5,11.34,21.26,13.51,21.26,13.51,0,0,9.77-2.16,21.26-13.51,0,0-2.52-18.53-2.52-21.94s1.11-6.83,3.63-10.09c2.52-3.26,4.45-3.93.67-19.81ZM134.86,145.04c-2.11,2.73-3.04,5.59-3.04,8.45s2.11,18.38,2.11,18.38c-1.71,1.68-3.36,3.11-4.94,4.35l-1.63-7.54v8.76c-.72.52-1.42,1-2.1,1.43l-2.21-10.19v11.53c-1.53.86-2.87,1.5-3.95,1.95l-2.98-18.3-3.48,18.08c-1.04-.45-2.27-1.06-3.65-1.85v-11.41l-2.18,10.09c-.68-.44-1.39-.94-2.12-1.47v-8.62l-1.6,7.4c-1.53-1.2-3.13-2.59-4.77-4.21,0,0,2.11-15.52,2.11-18.38s-.93-5.72-3.04-8.45c-2.11-2.73-3.73-3.29-.56-16.59h4.29v3.51h10.99v-3.51h7.84v3.51h10.65v-3.51h4.83c3.17,13.29,1.55,13.85-.56,16.59Z"/>
        <path class="cls-5" d="M116.26,147.11h0s-.04,0-.06,0c-.02,0-.04,0-.06,0h0c-1.15.05-2.87.69-2.87,2.51v6.21h5.87v-6.21c0-1.82-1.73-2.46-2.87-2.5Z"/>
      </g>
      <g>
        <path class="cls-4" d="M16.62,119.01c-.43.4-.85.65-.85.65v.05s7.85.13,7.85.13c.11,0,.21.11.21.21l-.02,1.12c0,.11-.11.21-.21.21l-10.1-.17c-.11,0-.21-.11-.21-.21v-.84s7.18-6.77,7.18-6.77c.46-.45,1-.77,1-.77v-.07s-7.82-.13-7.82-.13c-.11,0-.21-.11-.21-.21l.02-1.12c0-.1.11-.21.21-.21l10.1.17c.11,0,.21.11.21.21v.82s-7.35,6.93-7.35,6.93Z"/>
        <path class="cls-4" d="M20.74,95.24c3.36.54,4.97,3.37,4.47,6.47-.49,3.08-2.9,5.29-6.26,4.76-3.36-.54-4.97-3.38-4.47-6.47.5-3.12,2.9-5.29,6.26-4.75ZM19.19,104.94c2.53.4,4.35-1.21,4.7-3.44.36-2.27-.87-4.33-3.4-4.73-2.56-.41-4.34,1.15-4.71,3.44-.36,2.23.84,4.32,3.4,4.73Z"/>
        <path class="cls-4" d="M26.97,92.24c-.03.1-.16.17-.26.14l-9.63-3.03c-.1-.03-.17-.16-.14-.26l1.48-4.7c.71-2.24,2.21-3.05,3.77-2.56.87.27,1.4.81,1.67,1.54h.03c.75-.67,1.73-.92,2.81-.57,1.92.61,2.52,2.32,1.78,4.68l-1.5,4.78ZM18.61,88.21l2.86.9,1.17-3.73c.43-1.35-.1-1.83-.92-2.09-.8-.25-1.57.04-2.04,1.53l-1.07,3.4ZM27.19,87.09c.5-1.61.16-2.49-.96-2.84-1.1-.35-1.9.19-2.4,1.78l-1.09,3.48,3.36,1.06,1.09-3.48Z"/>
        <path class="cls-4" d="M30.45,78.59l2.43-5.25c.04-.1.23-.16.33-.12l.76.35c.1.04.16.23.12.33l-2.99,6.46c-.04.1-.18.15-.28.1l-9.17-4.24c-.1-.04-.15-.18-.1-.28l.47-1.02c.04-.1.18-.15.28-.1l8.15,3.77Z"/>
        <path class="cls-4" d="M32.55,66.96l2.92,1.82,3.53-5.65c.06-.09.25-.13.34-.08l.71.45c.09.06.13.25.08.34l-4.23,6.78c-.06.09-.2.12-.29.07l-8.57-5.34c-.09-.06-.12-.2-.07-.29l4.14-6.64c.06-.09.25-.13.34-.08l.71.45c.09.06.13.25.08.34l-3.43,5.5,2.62,1.63,3.15-5.06c.06-.09.25-.13.34-.08l.71.45c.09.06.13.25.08.34l-3.15,5.06Z"/>
        <path class="cls-4" d="M41.72,61.46l-1.93-10.68c-.12-.65-.09-1.12-.09-1.12l-.04-.03-4.6,5.53c-.07.08-.26.1-.35.03l-.65-.54c-.08-.07-.1-.27-.03-.35l6.47-7.78.03.02,1.97,10.99c.08.43.04.86.04.86l.03.02,4.73-5.69c.07-.08.26-.1.35-.03l.65.54c.08.07.1.27.03.35l-6.58,7.92-.03-.02Z"/>
        <path class="cls-4" d="M54.82,44.43l-4.32,3.93.59,2.09c.06.25.04.27-.12.42l-.84.77c-.08.07-.16.05-.2.02-.04-.04-.05-.14-.08-.21l-3.04-11.01.47-.42,10.67,4.08c.07.03.17.06.21.1.04.04.04.13-.03.2l-.84.77c-.16.14-.18.17-.43.08l-2.04-.78ZM50.1,46.92l3.34-3.03-2.93-1.13c-.55-.21-1.88-.9-1.88-.9l-.08.07s.55,1.39.71,1.96l.83,3.03Z"/>
        <path class="cls-4" d="M62.79,36.74l-.64-1.01,3.7-2.36.64,1.01-3.7,2.36Z"/>
        <path class="cls-4" d="M76.64,32.85c-.1.04-.24-.01-.28-.11l-3.99-9.28c-.04-.1.01-.23.11-.28l7.03-3.02c.1-.04.28.03.32.13l.33.77c.04.1-.03.28-.13.32l-5.8,2.49,1.36,3.16,5.16-2.22c.1-.04.28.03.32.13l.33.77c.04.1-.03.28-.13.32l-5.16,2.22,1.66,3.87c.04.1-.01.23-.11.28l-1.03.44Z"/>
        <path class="cls-4" d="M92.75,16.36c-.03-.1.05-.23.15-.26l1.08-.29c.1-.03.23.05.26.15l1.41,5.21c.89,3.28-.65,5.44-3.68,6.27-3.01.82-5.45-.26-6.34-3.55l-1.41-5.21c-.03-.1.05-.23.15-.26l1.08-.29c.1-.03.23.05.26.15l1.42,5.21c.67,2.47,2.32,3.26,4.5,2.67,2.22-.6,3.21-2.11,2.54-4.58l-1.41-5.21Z"/>
        <path class="cls-4" d="M102.04,20.28l.42,3.41,6.62-.81c.1-.01.26.11.27.21l.1.84c.01.1-.11.26-.21.27l-7.94.97c-.1.01-.22-.08-.23-.18l-1.22-10.03c-.01-.1.08-.22.18-.23l7.76-.95c.1-.01.26.11.27.21l.1.84c.01.1-.11.26-.21.27l-6.44.78.37,3.06,5.92-.72c.1-.01.26.11.27.21l.1.84c.01.1-.11.26-.21.27l-5.92.72Z"/>
        <path class="cls-4" d="M113.24,13.69c0-.1.11-.21.21-.21l4.49.07c2.47.04,4.26,1.3,4.22,3.52-.03,1.7-1.13,2.75-2.75,3.13v.04s.36.34.65.77l1.95,2.8c.1.14.12.19.12.23,0,.07-.04.1-.14.1l-1.44-.02c-.09,0-.19-.06-.24-.13l-2.54-3.64-3.1-.05-.06,3.51c0,.11-.11.21-.21.21l-1.12-.02c-.1,0-.21-.11-.21-.21l.17-10.1ZM114.76,14.84l-.07,4.23,3.12.05c1.61.03,2.78-.69,2.8-2.06.02-1.39-1.1-2.14-2.74-2.17l-3.12-.05Z"/>
        <path class="cls-4" d="M124.84,24.28l8.15-7.17c.49-.44.92-.66.92-.66v-.05s-7.1-1.08-7.1-1.08c-.1-.02-.22-.18-.21-.28l.13-.83c.02-.1.17-.22.28-.21l10,1.52v.03s-8.4,7.36-8.4,7.36c-.33.29-.71.48-.71.48v.03s7.31,1.11,7.31,1.11c.1.02.22.18.21.28l-.13.83c-.02.1-.18.22-.28.21l-10.18-1.55v-.03Z"/>
        <path class="cls-4" d="M146.21,26.73l-5.59-1.69-1.49,1.59c-.18.18-.22.17-.42.11l-1.09-.33c-.1-.03-.13-.11-.12-.16.02-.05.09-.12.15-.18l7.88-8.27.61.18,2,11.25c.01.08.04.18.02.23-.01.05-.09.1-.19.07l-1.09-.33c-.2-.06-.24-.07-.29-.32l-.38-2.15ZM141.64,23.96l4.32,1.3-.53-3.09c-.1-.58-.2-2.08-.2-2.08l-.1-.03s-.91,1.19-1.31,1.62l-2.17,2.28Z"/>
        <path class="cls-4" d="M156.87,29.61l.53-1.07,3.92,1.96-.53,1.07-3.92-1.96Z"/>
        <path class="cls-4" d="M176.96,41.45c-.13.57-.51,1.74-.51,1.74l.08.07s1.08-.59,1.62-.83l6.23-2.75c.24-.1.27-.07.43.06l.95.78c.08.07.07.13.04.17-.03.04-.14.09-.21.12l-10.47,4.57-.49-.4,2.52-11.14c.02-.08.04-.19.08-.23.03-.04.09-.06.17,0l.95.78c.16.13.19.16.14.41l-1.53,6.64Z"/>
        <path class="cls-4" d="M186.83,53.66l-4.01-4.25-2.08.63c-.25.07-.27.04-.42-.11l-.78-.83c-.07-.08-.06-.16-.02-.2s.14-.06.21-.08l10.95-3.24.43.46-3.87,10.75c-.03.07-.05.17-.09.21s-.13.05-.2-.03l-.78-.83c-.14-.15-.17-.18-.09-.42l.74-2.05ZM184.25,48.98l3.09,3.28,1.08-2.95c.2-.55.86-1.9.86-1.9l-.07-.08s-1.38.58-1.95.75l-3.02.89Z"/>
        <path class="cls-4" d="M190.89,60.01l3.4,4.68c.06.08.03.28-.05.34l-.68.5c-.08.06-.28.03-.34-.05l-4.19-5.76c-.06-.08-.04-.23.05-.29l8.17-5.94c.08-.06.23-.04.29.05l.66.91c.06.08.04.23-.05.29l-7.27,5.28Z"/>
        <path class="cls-4" d="M200.01,67.51l-3.01,1.66,3.22,5.83c.05.09,0,.28-.1.33l-.74.41c-.09.05-.28,0-.33-.1l-3.86-7c-.05-.09,0-.23.08-.29l8.84-4.88c.09-.05.24,0,.29.08l3.78,6.85c.05.09,0,.28-.1.33l-.74.41c-.09.05-.28,0-.33-.1l-3.13-5.68-2.7,1.49,2.88,5.22c.05.09,0,.28-.1.33l-.74.41c-.09.05-.28,0-.33-.1l-2.88-5.22Z"/>
        <path class="cls-4" d="M208.27,78.69c.25-.53.55-.92.55-.92l-.02-.05-7.36,2.75c-.1.04-.23-.02-.27-.12l-.39-1.05c-.04-.1.02-.23.12-.27l9.46-3.54c.1-.04.23.02.27.12l.29.79-4.18,8.92c-.27.59-.64,1.08-.64,1.08l.02.07,7.32-2.74c.1-.04.23.02.27.12l.39,1.05c.04.1-.03.23-.12.27l-9.46,3.54c-.1.04-.23-.02-.27-.12l-.29-.77,4.29-9.13Z"/>
        <path class="cls-4" d="M214.47,89.9l.82-.18c.1-.02.27.09.29.19l2.06,9.64c.02.1-.09.27-.19.29l-.82.18c-.1.02-.27-.09-.29-.19l-.87-4.06-8.78,1.88c-.1.02-.23-.06-.25-.16l-.23-1.1c-.02-.1.06-.23.16-.25l8.78-1.88-.87-4.06c-.02-.1.09-.27.19-.29Z"/>
        <path class="cls-4" d="M208.09,106.83c-.1.01-.22-.08-.23-.19l-.12-1.12c-.01-.1.08-.22.19-.23l10.05-1.11c.1-.01.22.08.23.19l.12,1.12c.01.1-.08.22-.19.23l-10.05,1.11Z"/>
        <path class="cls-4" d="M210.58,118.41l-.1-5.84-1.96-.93c-.23-.12-.23-.15-.23-.36l-.02-1.14c0-.1.07-.16.12-.16s.14.05.21.08l10.27,4.99v.63s-10.09,5.32-10.09,5.32c-.07.04-.16.09-.21.09-.05,0-.12-.05-.12-.16l-.02-1.14c0-.21,0-.25.22-.37l1.93-1.01ZM211.82,113.21l.08,4.51,2.78-1.45c.52-.27,1.92-.82,1.92-.82v-.1s-1.41-.5-1.94-.76l-2.83-1.37Z"/>
      </g>
      <g>
        <path class="cls-4" d="M63.51,202.19c-.11-.07-.08-.17-.04-.24l.22-.35c.3-.49,1.15-1.57,1.15-1.57l.21.13s-.59,1.24-.9,1.73l-.22.35c-.04.07-.13.13-.23.07l-.19-.12ZM65.6,199.04c.16.1.21.3.11.46-.1.16-.3.21-.46.11-.16-.1-.21-.3-.11-.46.1-.16.3-.21.46-.11Z"/>
        <path class="cls-4" d="M67.46,201.24c-.01.21-.07.64-.07.64l.03.02s.34-.27.51-.38l2.01-1.32c.08-.05.09-.04.15,0l.38.22s.03.04.02.06c0,.02-.04.04-.07.05l-3.37,2.2-.19-.11.22-4.02s0-.07.01-.08c0-.02.03-.03.06,0l.38.22c.06.04.08.04.07.13l-.14,2.4Z"/>
        <path class="cls-4" d="M70.05,204.29s-.07.05-.1.03l-.35-.19s-.05-.07-.03-.1l1.68-3.15s.07-.05.1-.03l.35.19s.05.07.03.1l-1.68,3.15Z"/>
        <path class="cls-4" d="M75.01,204.32c-.06-.03-.08-.06-.04-.14.19-.46,0-1.02-.69-1.35-.72-.35-1.49-.14-1.89.68-.4.81-.1,1.56.62,1.92.68.33,1.2.19,1.46-.22.05-.08.07-.09.14-.05l.31.15s.09.03.07.09c-.33.66-1.19.95-2.19.45-.99-.49-1.43-1.5-.9-2.58.53-1.08,1.6-1.35,2.59-.86,1.06.52,1.25,1.46.96,2.06-.01.03-.05.04-.11.01l-.32-.16Z"/>
        <path class="cls-4" d="M76.34,203.79l.12-.27s.08-.06.11-.04l3.19,1.39s.06.08.04.11l-.12.27s-.08.06-.11.04l-1.35-.59-1.27,2.91s-.06.05-.1.04l-.36-.16s-.05-.06-.04-.1l1.27-2.91-1.35-.59s-.06-.08-.04-.11Z"/>
        <path class="cls-4" d="M83.32,208.24c-.43,1.12-1.52,1.47-2.56,1.08-1.03-.39-1.62-1.39-1.19-2.51.43-1.12,1.53-1.47,2.56-1.08,1.04.4,1.62,1.39,1.19,2.51ZM80.08,207c-.32.84.1,1.59.85,1.88.76.29,1.56.01,1.88-.83.33-.86-.08-1.58-.85-1.88-.75-.29-1.56-.02-1.88.83Z"/>
        <path class="cls-4" d="M85.01,206.94s.06-.06.09-.05l1.5.5c.83.27,1.3.88,1.05,1.63-.19.57-.67.81-1.26.76h0s.09.16.14.34l.36,1.15c.02.06.02.08.02.09,0,.02-.02.03-.06.02l-.48-.16s-.06-.04-.07-.07l-.47-1.49-1.04-.34-.39,1.17s-.06.06-.09.05l-.38-.12s-.06-.06-.05-.09l1.12-3.38ZM85.4,207.49l-.47,1.42,1.05.34c.54.18,1.01.06,1.16-.4.15-.46-.15-.84-.69-1.02l-1.04-.35Z"/>
        <path class="cls-4" d="M88.61,211.81s-.06.06-.09.05l-.38-.11s-.06-.06-.05-.09l1-3.42s.06-.06.09-.05l.38.11s.06.06.05.09l-1,3.42Z"/>
        <path class="cls-4" d="M92.62,212.17l-2-.51-.5.58c-.06.07-.07.06-.15.05l-.39-.1s-.05-.04-.04-.06c0-.02.03-.04.05-.06l2.66-3.03.22.06.87,3.94s.02.06.01.08c0,.02-.03.04-.07.03l-.39-.1c-.07-.02-.08-.02-.11-.11l-.17-.75ZM90.96,211.26l1.54.4-.23-1.08c-.04-.2-.1-.73-.1-.73h-.04s-.3.42-.44.58l-.73.83Z"/>
        <path class="cls-4" d="M96.48,212.54c.07.01.08.05.07.1-.09.45.17.8,1,.96.75.14,1.08-.12,1.16-.51.04-.22-.04-.47-.53-.6l-1-.27c-.73-.2-.99-.59-.89-1.1.11-.55.7-1.06,1.77-.86,1.13.22,1.44.81,1.32,1.44,0,.03-.04.06-.1.04l-.36-.07c-.06-.01-.08-.03-.07-.12.03-.32-.16-.69-.88-.83-.63-.12-1.07.11-1.14.5-.04.22.07.44.5.55l.98.26c.82.23,1.04.69.95,1.16-.09.49-.63,1.08-1.78.87-1.11-.21-1.58-.84-1.46-1.48v-.06s.04-.06.1-.05l.38.07Z"/>
        <path class="cls-4" d="M104.31,213.21c-.17,1.19-1.16,1.78-2.26,1.62-1.09-.15-1.89-.99-1.72-2.18s1.17-1.77,2.26-1.62c1.1.16,1.89.99,1.72,2.18ZM100.87,212.72c-.13.9.45,1.53,1.24,1.64.8.11,1.52-.33,1.65-1.23.13-.91-.43-1.53-1.24-1.64-.79-.11-1.52.32-1.65,1.23Z"/>
        <path class="cls-4" d="M105.37,215.18s-.07-.04-.07-.08l.33-3.55s.04-.07.08-.07l1.73.16c.83.08,1.22.53,1.17,1.11-.03.32-.17.54-.41.69h0c.29.22.45.54.41.94-.06.71-.61,1.04-1.48.96l-1.76-.16ZM107.16,214.87c.59.05.87-.13.91-.54.04-.41-.21-.64-.79-.69l-1.28-.12-.11,1.24,1.28.12ZM106.13,212l-.1,1.05,1.38.13c.5.05.62-.17.65-.47.03-.3-.13-.54-.68-.59l-1.25-.11Z"/>
        <path class="cls-4" d="M109.76,211.91s.04-.07.08-.07l1.58.08c.87.04,1.49.51,1.45,1.29-.03.6-.43.96-1.01,1.07h0s.12.14.22.29l.66,1.01c.04.05.04.07.04.08,0,.02-.01.04-.05.03l-.51-.02s-.07-.02-.08-.05l-.85-1.31-1.09-.05-.06,1.24s-.04.07-.08.07l-.4-.02s-.07-.04-.07-.08l.18-3.56ZM110.29,212.33l-.07,1.49,1.1.05c.57.03.99-.21,1.01-.69.02-.49-.36-.77-.94-.8l-1.1-.05Z"/>
        <path class="cls-4" d="M114.5,214.03l-.02,1.21,2.35.04s.09.05.08.09v.3s-.06.09-.09.08l-2.82-.05s-.07-.04-.07-.08l.06-3.57s.04-.07.08-.07l2.76.05s.09.05.08.09v.3s-.06.09-.09.09l-2.29-.04-.02,1.09,2.11.04s.09.05.08.09v.3s-.06.09-.09.08l-2.11-.04Z"/>
        <path class="cls-4" d="M120.3,215.17l2.04-.1s.09.05.09.08v.3s-.03.09-.07.09l-2.51.12s-.08-.03-.08-.07l-.18-3.56s.03-.08.07-.08l.4-.02s.08.03.08.07l.16,3.16Z"/>
        <path class="cls-4" d="M125.88,214.46l-2.05.19-.28.71c-.04.08-.05.09-.12.09l-.4.04s-.06-.02-.06-.04.01-.05.02-.08l1.48-3.75.22-.02,2.14,3.42s.04.05.04.07-.01.04-.05.05l-.4.04c-.07,0-.09,0-.14-.07l-.41-.65ZM124.02,214.16l1.58-.15-.58-.94c-.11-.18-.34-.65-.34-.65h-.04s-.14.51-.22.71l-.41,1.03Z"/>
        <path class="cls-4" d="M131.93,213.66l-2.04.31-.23.73c-.03.09-.04.09-.12.1l-.4.06s-.06-.02-.06-.03.01-.05.02-.08l1.25-3.83.22-.03,2.35,3.28s.04.05.04.07c0,.02-.01.05-.05.05l-.4.06c-.07.01-.08.01-.14-.06l-.45-.63ZM130.06,213.47l1.57-.24-.64-.9c-.12-.17-.38-.63-.38-.63h-.04s-.11.52-.17.72l-.34,1.06Z"/>
        <path class="cls-4" d="M134.05,214.07s-.08-.02-.09-.06l-.71-3.49s.02-.08.06-.09l1.5-.31c1.11-.23,2.1.3,2.33,1.42.23,1.1-.35,1.96-1.58,2.22l-1.51.31ZM133.86,210.8l.55,2.71,1.05-.21c.96-.2,1.31-.82,1.14-1.65-.17-.86-.89-1.23-1.71-1.06l-1.04.21Z"/>
        <path class="cls-4" d="M139.39,211.38c.13.16.39.51.39.51h.04s.06-.44.1-.64l.52-2.34c.02-.09.03-.09.11-.11l.42-.11s.05,0,.06.02c0,.02,0,.06-.01.09l-.88,3.93-.22.05-2.64-3.04s-.04-.05-.05-.07c0-.02,0-.04.04-.05l.42-.11c.07-.02.08-.02.15.05l1.57,1.82Z"/>
        <path class="cls-4" d="M142.95,210.21l.35,1.16,2.25-.68s.1.02.11.06l.09.28s-.02.1-.06.11l-2.7.81s-.08-.01-.09-.05l-1.03-3.41s.01-.08.05-.09l2.64-.8s.1.02.11.06l.08.28s-.02.1-.06.11l-2.19.66.31,1.04,2.01-.61s.1.02.11.06l.09.28s-.02.1-.06.11l-2.01.61Z"/>
        <path class="cls-4" d="M145.71,207.31s0-.08.04-.09l1.5-.52c.82-.29,1.57-.09,1.83.65.2.57-.04,1.05-.53,1.37h0s.16.08.31.19l.99.69c.05.03.06.05.07.06,0,.02,0,.04-.03.05l-.48.17s-.07,0-.1-.01l-1.28-.9-1.04.36.41,1.17s-.01.08-.05.09l-.37.13s-.08-.01-.09-.05l-1.18-3.37ZM146.36,207.5l.49,1.41,1.04-.36c.54-.19.84-.57.68-1.02-.16-.46-.63-.57-1.17-.38l-1.04.36Z"/>
        <path class="cls-4" d="M150.79,208.02c.06-.03.09,0,.11.05.17.43.58.58,1.36.27.71-.29.85-.69.7-1.05-.08-.21-.29-.38-.77-.23l-.99.32c-.72.22-1.15.04-1.35-.45-.21-.52.02-1.27,1.03-1.67,1.07-.43,1.65-.09,1.89.5.01.03,0,.07-.06.09l-.34.14c-.06.02-.09.02-.12-.06-.15-.29-.51-.5-1.19-.23-.59.24-.84.66-.69,1.03.08.21.29.33.71.2l.97-.31c.81-.25,1.24.02,1.42.47.19.47.05,1.26-1.03,1.69-1.05.42-1.79.14-2.03-.46l-.02-.06s0-.07.04-.09l.36-.14Z"/>
        <path class="cls-4" d="M155.44,207.36s0,.08-.04.1l-.36.16s-.08,0-.1-.04l-1.43-3.27s0-.08.04-.1l.36-.16s.08,0,.1.04l1.43,3.27Z"/>
        <path class="cls-4" d="M156.84,206.83s-.08,0-.1-.03l-1.55-3.22s0-.08.03-.1l1.38-.66c1.02-.49,2.12-.23,2.62.81.49,1.02.14,2-.99,2.54l-1.39.67ZM155.85,203.69l1.2,2.5.97-.46c.88-.42,1.07-1.11.71-1.88-.38-.79-1.17-.98-1.92-.62l-.96.46Z"/>
        <path class="cls-4" d="M162.77,202.96l-1.81.98.03.77c0,.09-.01.1-.08.13l-.35.19s-.06,0-.07-.01c0-.02,0-.05,0-.08l-.1-4.03.2-.11,3.3,2.3s.05.03.06.05c0,.02,0,.05-.03.06l-.35.19c-.07.04-.08.04-.15,0l-.63-.44ZM160.94,203.41l1.4-.75-.9-.64c-.17-.12-.57-.47-.57-.47l-.03.02s.07.52.08.73l.03,1.11Z"/>
        <path class="cls-4" d="M164.9,202.65s-.08,0-.1-.03l-1.84-3.06s0-.08.03-.1l1.31-.79c.97-.58,2.09-.42,2.68.56.58.97.33,1.97-.75,2.62l-1.32.79ZM163.64,199.63l1.43,2.38.92-.55c.84-.5.96-1.21.53-1.94-.45-.75-1.25-.87-1.97-.44l-.91.55Z"/>
        <path class="cls-4" d="M167.13,196.92c.11-.07.19,0,.24.07l.22.35c.31.48.93,1.71.93,1.71l-.21.13s-.86-1.06-1.18-1.55l-.22-.35c-.04-.07-.06-.18.03-.24l.19-.12ZM168.72,199.59c.16-.1.36-.06.46.1.1.16.06.36-.1.46s-.36.06-.46-.1-.06-.36.1-.46Z"/>
      </g>
      <path class="cls-1" d="M176.85,132.3c.46-.05,2.69-.37,5.5-2.01-.45-.58-1.82-2.25-3.93-4.1-1.76-1.55-4.32-3.46-7.45-4.88.06-.99.12-2.03.16-2.93.02-.48.04-1.42.06-2.78,3.93,2.04,7.68,4.44,11.17,7.16-3.53-2.07-7.18-4.07-11.09-5.19,3.65,1.78,7.21,3.73,10.68,5.84-1.4.92-3.13,1.33-4.79,1.16.56.43,1.06.86,1.52,1.26.51-.1,2.8-.59,5.47-2.24-.32-.56-1.35-2.25-3.12-4.15-1.95-2.09-5.22-4.85-9.81-6.31.04-5.86.05-16.1.03-29.92l-.05-31.64c-85.28-.06-110.09-.03-110.16.03-.06.05-.11,14.92-.1,33.03.01,12.77.04,22.64.08,28.72-.05-.09-.1-.18-.15-.27-4.67,1.45-7.99,4.26-9.96,6.37-1.78,1.9-2.8,3.59-3.12,4.15,2.67,1.65,4.95,2.15,5.47,2.24.46-.4.97-.82,1.52-1.26-1.67.18-3.39-.24-4.79-1.16,3.47-2.11,7.03-4.06,10.68-5.84-3.91,1.12-7.56,3.12-11.09,5.19,3.57-2.79,7.41-5.24,11.43-7.31-3.81,1.13-7.36,3.11-10.33,5.74,1.62-1.54,3.25-3.08,5.04-4.41,1.62-1.2,3.4-2.22,5.31-2.86.03,3.46.06,5.58.1,6.17.02.32.05.7.07,1.1-3.24,1.43-5.88,3.39-7.68,4.98-2.1,1.86-3.48,3.53-3.93,4.1,2.81,1.64,5.03,1.96,5.5,2.01.4-.31.82-.62,1.26-.92-1.76-.47-3.52-.95-5.28-1.42,3.39-1.94,6.88-3.72,10.43-5.35.02.24.05.47.07.68.09.79.22,1.85.37,2.88-3.38,1.55-5.65,3.18-7.06,4.44-1.72,1.53-2.52,2.77-2.76,3.2,2.81,1.96,5.33,2.14,5.79,2.15.61-.54,1.26-1.07,1.97-1.57-.01,0-.02,0-.03,0-.38.07-.77.02-1.14-.05-1.69-.29-3.35-.71-4.98-1.25,2.85-1.39,5.76-2.64,8.72-3.76.24,1.34.57,2.99.8,4.01.06.28.14.58.21.9-3.63,1.97-5.95,4.01-7.34,5.55-1.63,1.82-2.32,3.28-2.55,3.85,3.3.63,6.36.23,8.37-.23,1.97-.45,3.33-1.03,3.64-1.17.03-.06.06-.11.09-.17.43,1.28,1.01,2.93,1.44,4.05.53,1.37,1.37,3.43,1.88,4.56.51,1.13,1.34,2.89,1.84,3.9.51,1.01,1.42,2.73,2.03,3.83.61,1.09,1.61,2.78,2.21,3.75.6.97,1.6,2.49,2.21,3.38.6.89,1.78,2.52,2.61,3.6.84,1.1,2.2,2.81,3.06,3.83.85,1.01,2.42,2.78,3.51,3.92,1.08,1.14,2.73,2.8,3.66,3.68.94.88,2.4,2.2,3.24,2.94.85.72,2.04,1.73,2.65,2.22.6.48,1.87,1.45,2.8,2.14.94.7,2.59,1.86,3.69,2.58,1.09.73,2.81,1.82,3.83,2.42,1.01.61,2.9,1.67,4.2,2.36,1.29.69,3.09,1.61,4.01,2.04l1.65.79c2.56-1.23,4.31-2.12,5.52-2.76,1.22-.65,3.19-1.77,4.38-2.48,1.2-.73,3.02-1.88,4.05-2.57,1.03-.7,2.74-1.91,3.79-2.71,1.06-.79,2.74-2.13,3.75-2.97,1.01-.85,2.87-2.49,4.12-3.66,1.25-1.16,3.14-3.05,4.19-4.18,1.05-1.13,2.6-2.89,3.45-3.9.85-1.01,2.29-2.83,3.2-4.04.91-1.22,2.12-2.91,2.68-3.75.57-.85,1.47-2.25,1.99-3.09.53-.85,1.44-2.41,2.03-3.46.59-1.06,1.63-3.05,2.3-4.42.68-1.37,1.63-3.43,2.11-4.56.48-1.13,1.3-3.21,1.81-4.64.28-.75.6-1.69.9-2.57.45.19,1.73.71,3.52,1.12,2.01.46,5.06.86,8.37.23-.23-.57-.92-2.03-2.55-3.85-1.36-1.51-3.6-3.49-7.1-5.42.23-.99.47-2.06.62-2.83.11-.56.25-1.32.39-2.1,2.88,1.1,5.71,2.31,8.48,3.67-1.62.55-3.29.96-4.98,1.25-.38.06-.77.12-1.14.05-.01,0-.02,0-.03,0,.71.51,1.36,1.03,1.97,1.57.47-.01,2.99-.19,5.79-2.15-.25-.43-1.04-1.67-2.76-3.2-1.37-1.22-3.57-2.81-6.81-4.32.16-1.1.34-2.5.45-3.56,3.46,1.6,6.86,3.34,10.17,5.23-1.76.47-3.52.95-5.28,1.42.44.3.86.61,1.26.92ZM177.45,126.6c-2.06-1.42-4.28-2.58-6.6-3.52.02-.29.05-.6.07-.93,2.35,1.21,4.55,2.7,6.53,4.45ZM176.22,116.79c1.79,1.33,3.42,2.87,5.04,4.41-2.9-2.58-6.36-4.51-10.06-5.66,0-.45.01-.95.01-1.5,1.8.64,3.47,1.61,5.01,2.75ZM61.26,122.02c.03.31.05.63.08.95-2.41.95-4.72,2.15-6.85,3.62,2.05-1.81,4.34-3.34,6.77-4.57ZM52.41,128.48c2.8-2.05,5.81-3.8,8.96-5.26.04.45.08.88.12,1.29-3.14,1.05-6.19,2.37-9.08,3.97ZM62.07,129.05c.03.22.07.44.1.65-1.6.65-3.17,1.4-4.67,2.26,1.45-1.08,2.98-2.04,4.57-2.91ZM57.26,132.77c1.67-.84,3.33-1.68,5-2.52.02.09.03.19.05.27.03.19.07.39.1.6-1.74.49-3.46,1.03-5.15,1.65ZM56.86,143.97c2.39-.58,4.69-1.44,6.96-2.4-.65.11-1.29.23-1.94.34-2.12.37-4.27.74-6.26,1.57,2.22-2.68,4.96-4.91,8.01-6.57.21.88.43,1.76.59,2.32.21.79.64,2.26,1.02,3.48-2.75.66-5.55,1.09-8.38,1.26ZM59,144.77c2.17-.37,4.27-1.06,6.24-2.04.06.18.11.36.16.53.03.1.07.21.1.32-2.04.82-4.3,1.02-6.51,1.19ZM166.68,143.68c.1-.3.19-.58.27-.84,1.89.92,3.91,1.58,5.99,1.93-2.12-.17-4.29-.35-6.26-1.09ZM176.32,143.48c-1.99-.83-4.13-1.2-6.26-1.57-.65-.11-1.29-.23-1.94-.34,2.27.96,4.57,1.82,6.96,2.4-2.73-.17-5.44-.58-8.11-1.2.06-.2.12-.39.17-.55.34-1.13.88-3.06,1.19-4.26.07-.27.15-.58.23-.91,2.95,1.65,5.61,3.83,7.76,6.44ZM169.06,85.81c0,20.01-.05,33.02-.15,34.48-.08,1.29-.25,3.28-.37,4.41-.13,1.13-.33,2.75-.45,3.6-.12.85-.49,2.87-.81,4.49-.32,1.62-.85,3.94-1.17,5.16-.32,1.21-.85,3.07-1.18,4.12-.34,1.06-.87,2.68-1.2,3.6-.34.94-1,2.66-1.48,3.83-.48,1.18-1.28,3-1.77,4.05-.49,1.05-1.42,2.91-2.07,4.12-.65,1.21-1.62,2.94-2.14,3.83-.53.88-1.63,2.61-2.43,3.82-.81,1.22-2.03,2.97-2.72,3.9-.69.93-1.79,2.36-2.44,3.17-.65.81-1.96,2.33-2.9,3.38-.94,1.06-2.9,3.08-4.35,4.5-1.45,1.41-3.66,3.43-4.91,4.48-1.26,1.05-3.08,2.5-4.05,3.21-.98.72-2.9,2.06-4.27,2.97-1.37.91-3.43,2.2-4.57,2.86-1.13.66-3.27,1.81-7.43,3.91l-2.83-1.43c-1.56-.79-3.83-2.02-5.04-2.72-1.22-.72-3.17-1.93-4.35-2.71-1.17-.77-3.07-2.1-4.2-2.94-1.13-.85-2.85-2.2-3.83-3.01-.97-.81-2.59-2.24-3.6-3.18-1.01-.94-2.52-2.4-3.33-3.23-.82-.84-2.1-2.22-2.85-3.07-.75-.85-2.11-2.47-3.01-3.6-.91-1.13-2.08-2.66-2.61-3.39-.52-.73-1.49-2.12-2.14-3.09-.65-.97-1.68-2.59-2.28-3.6-.6-1.01-1.64-2.83-2.29-4.04-.66-1.22-1.66-3.24-2.25-4.5-.59-1.25-1.5-3.37-2.03-4.71-.53-1.33-1.35-3.59-1.81-5-.47-1.42-1.1-3.47-1.39-4.56-.3-1.1-.76-2.98-1.03-4.2-.27-1.22-.66-3.2-.87-4.41-.2-1.22-.5-3.3-.67-4.64-.16-1.34-.35-3.41-.45-4.6-.09-1.41-.15-13.61-.15-34.77v-32.6h105.88v32.12ZM169.78,131.19c.05-.28.1-.55.14-.82,1.59.8,3.17,1.6,4.76,2.4-1.61-.59-3.25-1.11-4.9-1.58ZM170.01,129.81c.04-.21.07-.42.1-.61,1.5.83,2.95,1.74,4.32,2.76-1.42-.81-2.91-1.52-4.42-2.15ZM170.71,124.6c.02-.14.03-.28.04-.41.02-.23.05-.53.07-.85,3.05,1.44,5.98,3.15,8.71,5.14-2.82-1.56-5.78-2.85-8.82-3.88Z"/>
    </g>
  </g>
</svg>