<?xml version="1.0" encoding="UTF-8"?>
<svg id="Capa_2" xmlns="http://www.w3.org/2000/svg" version="1.1" xmlns:xlink="http://www.w3.org/1999/xlink" viewBox="0 0 232.2 232.1">
  <!-- Generator: Adobe Illustrator 30.3.0, SVG Export Plug-In . SVG Version: 2.1.3 Build 157)  -->
  <defs>
    <style>
      .st0 {
        fill: url(#Degradado_sin_nombre_6);
      }

      .st1 {
        fill: #c78422;
      }

      .st2 {
        fill: #da992b;
      }

      .st3 {
        fill: url(#Degradado_sin_nombre_5);
      }

      .st4 {
        fill: url(#Degradado_sin_nombre_24);
      }

      .st5 {
        fill: url(#Degradado_sin_nombre_201);
      }

      .st6 {
        fill: #365678;
      }

      .st7 {
        fill: url(#Degradado_sin_nombre_28);
      }

      .st8 {
        fill: url(#Degradado_sin_nombre_19);
      }

      .st9 {
        fill: url(#Degradado_sin_nombre_11);
      }

      .st10 {
        fill: #080c14;
      }

      .st11 {
        fill: url(#Degradado_sin_nombre_26);
      }

      .st12 {
        fill: url(#Degradado_sin_nombre_25);
      }

      .st13 {
        fill: url(#Degradado_sin_nombre_4);
      }

      .st14 {
        fill: #15191f;
      }

      .st15 {
        fill: url(#Degradado_sin_nombre_2);
      }

      .st16 {
        fill: url(#Degradado_sin_nombre_9);
      }

      .st17 {
        fill: url(#Degradado_sin_nombre_211);
      }

      .st18 {
        fill: #bd7d1e;
      }

      .st19 {
        fill: url(#Degradado_sin_nombre_13);
      }

      .st20 {
        fill: #b93734;
      }

      .st21 {
        fill: url(#Degradado_sin_nombre_7);
      }

      .st22 {
        fill: #211205;
      }

      .st23 {
        fill: url(#Degradado_sin_nombre_23);
      }

      .st24 {
        fill: url(#Degradado_sin_nombre_21);
      }

      .st25 {
        fill: url(#Degradado_sin_nombre_3);
      }

      .st26 {
        fill: #a82725;
      }

      .st27 {
        fill: url(#Degradado_sin_nombre_22);
      }

      .st28 {
        fill: url(#Degradado_sin_nombre_10);
      }

      .st29 {
        fill: url(#Degradado_sin_nombre_14);
      }

      .st30 {
        fill: url(#Degradado_sin_nombre_221);
      }

      .st31 {
        fill: url(#Degradado_sin_nombre_27);
      }

      .st32 {
        fill: url(#Degradado_sin_nombre_191);
      }

      .st33 {
        fill: #d9982c;
      }

      .st34 {
        fill: url(#Degradado_sin_nombre_15);
      }

      .st35 {
        fill: url(#Degradado_sin_nombre_20);
      }

      .st36 {
        fill: url(#Degradado_sin_nombre_8);
      }

      .st37 {
        fill: #f4c450;
      }

      .st38 {
        fill: url(#Degradado_sin_nombre_31);
      }

      .st39 {
        fill: #153c63;
      }

      .st40 {
        fill: url(#Degradado_sin_nombre_12);
      }
    </style>
    <linearGradient id="Degradado_sin_nombre_31" data-name="Degradado sin nombre 31" x1="802.7" y1="-68.2" x2="800.9" y2="-56.1" gradientTransform="translate(-283 -16.5) scale(.5 -.5)" gradientUnits="userSpaceOnUse">
      <stop offset="0" stop-color="#b87110"/>
      <stop offset="1" stop-color="#ffcb56"/>
    </linearGradient>
    <linearGradient id="Degradado_sin_nombre_2" data-name="Degradado sin nombre 2" x1="912.1" y1="-350.2" x2="696.9" y2="-79.2" gradientTransform="translate(-283 -16.5) scale(.5 -.5)" gradientUnits="userSpaceOnUse">
      <stop offset="0" stop-color="#e9a32a"/>
      <stop offset="1" stop-color="#fdc757"/>
    </linearGradient>
    <linearGradient id="Degradado_sin_nombre_3" data-name="Degradado sin nombre 3" x1="723.1" y1="-208" x2="722.9" y2="-201.8" gradientTransform="translate(-283 -16.5) scale(.5 -.5)" gradientUnits="userSpaceOnUse">
      <stop offset="0" stop-color="#9e2625"/>
      <stop offset="1" stop-color="#c23937"/>
    </linearGradient>
    <linearGradient id="Degradado_sin_nombre_4" data-name="Degradado sin nombre 4" x1="874.5" y1="-225.4" x2="872.4" y2="-207.9" gradientTransform="translate(-283 -16.5) scale(.5 -.5)" gradientUnits="userSpaceOnUse">
      <stop offset="0" stop-color="#951c1b"/>
      <stop offset="1" stop-color="#b8302e"/>
    </linearGradient>
    <linearGradient id="Degradado_sin_nombre_5" data-name="Degradado sin nombre 5" x1="873.6" y1="-208.6" x2="873.2" y2="-201.3" gradientTransform="translate(-283 -16.5) scale(.5 -.5)" gradientUnits="userSpaceOnUse">
      <stop offset="0" stop-color="#992322"/>
      <stop offset="1" stop-color="#be3330"/>
    </linearGradient>
    <linearGradient id="Degradado_sin_nombre_6" data-name="Degradado sin nombre 6" x1="796.5" y1="-248.5" x2="797" y2="-256.2" gradientTransform="translate(-283 -16.5) scale(.5 -.5)" gradientUnits="userSpaceOnUse">
      <stop offset="0" stop-color="#bf3a38"/>
      <stop offset="1" stop-color="#971c1b"/>
    </linearGradient>
    <linearGradient id="Degradado_sin_nombre_7" data-name="Degradado sin nombre 7" x1="797.8" y1="-201.2" x2="798.7" y2="-209.9" gradientTransform="translate(-283 -16.5) scale(.5 -.5)" gradientUnits="userSpaceOnUse">
      <stop offset="0" stop-color="#c53937"/>
      <stop offset="1" stop-color="#951e1e"/>
    </linearGradient>
    <linearGradient id="Degradado_sin_nombre_8" data-name="Degradado sin nombre 8" x1="969.9" y1="-94.9" x2="919" y2="-68" gradientTransform="translate(-283 -16.5) scale(.5 -.5)" gradientUnits="userSpaceOnUse">
      <stop offset="0" stop-color="#d49227"/>
      <stop offset="1" stop-color="#f6bd46"/>
    </linearGradient>
    <linearGradient id="Degradado_sin_nombre_9" data-name="Degradado sin nombre 9" x1="670.8" y1="-97.3" x2="625.1" y2="-69.9" gradientTransform="translate(-283 -16.5) scale(.5 -.5)" gradientUnits="userSpaceOnUse">
      <stop offset="0" stop-color="#da992d"/>
      <stop offset="1" stop-color="#f3ba47"/>
    </linearGradient>
    <linearGradient id="Degradado_sin_nombre_10" data-name="Degradado sin nombre 10" x1="628.5" y1="-75.1" x2="624.3" y2="-68" gradientTransform="translate(-283 -16.5) scale(.5 -.5)" gradientUnits="userSpaceOnUse">
      <stop offset="0" stop-color="#ebaf41"/>
      <stop offset="1" stop-color="#fad160"/>
    </linearGradient>
    <linearGradient id="Degradado_sin_nombre_11" data-name="Degradado sin nombre 11" x1="822.3" y1="-87.5" x2="767.5" y2="-78.8" gradientTransform="translate(-283 -16.5) scale(.5 -.5)" gradientUnits="userSpaceOnUse">
      <stop offset="0" stop-color="#da972b"/>
      <stop offset="1" stop-color="#fac34c"/>
    </linearGradient>
    <linearGradient id="Degradado_sin_nombre_12" data-name="Degradado sin nombre 12" x1="725.7" y1="-355.5" x2="723.5" y2="-336.6" gradientTransform="translate(-283 -16.5) scale(.5 -.5)" gradientUnits="userSpaceOnUse">
      <stop offset="0" stop-color="#931e1d"/>
      <stop offset="1" stop-color="#b82c2b"/>
    </linearGradient>
    <linearGradient id="Degradado_sin_nombre_13" data-name="Degradado sin nombre 13" x1="949" y1="-67.9" x2="947.5" y2="-56.3" gradientTransform="translate(-283 -16.5) scale(.5 -.5)" gradientUnits="userSpaceOnUse">
      <stop offset="0" stop-color="#bb7614"/>
      <stop offset="1" stop-color="#fac54f"/>
    </linearGradient>
    <linearGradient id="Degradado_sin_nombre_14" data-name="Degradado sin nombre 14" x1="724.6" y1="-292.8" x2="724.2" y2="-286" gradientTransform="translate(-283 -16.5) scale(.5 -.5)" gradientUnits="userSpaceOnUse">
      <stop offset="0" stop-color="#961f1f"/>
      <stop offset="1" stop-color="#bd3230"/>
    </linearGradient>
    <linearGradient id="Degradado_sin_nombre_15" data-name="Degradado sin nombre 15" x1="652.8" y1="-67.3" x2="652.9" y2="-57.8" gradientTransform="translate(-283 -16.5) scale(.5 -.5)" gradientUnits="userSpaceOnUse">
      <stop offset="0" stop-color="#bc771c"/>
      <stop offset="1" stop-color="#f7c44c"/>
    </linearGradient>
    <linearGradient id="Degradado_sin_nombre_19" data-name="Degradado sin nombre 19" x1="687.6" y1="-377.8" x2="644.8" y2="-360.5" gradientTransform="translate(-283 -16.5) scale(.5 -.5)" gradientUnits="userSpaceOnUse">
      <stop offset="0" stop-color="#d49125"/>
      <stop offset="1" stop-color="#edb23d"/>
    </linearGradient>
    <linearGradient id="Degradado_sin_nombre_20" data-name="Degradado sin nombre 20" x1="680.7" y1="-363.9" x2="679.3" y2="-356.9" gradientTransform="translate(-283 -16.5) scale(.5 -.5)" gradientUnits="userSpaceOnUse">
      <stop offset="0" stop-color="#a76c18"/>
      <stop offset="1" stop-color="#db972a"/>
    </linearGradient>
    <linearGradient id="Degradado_sin_nombre_21" data-name="Degradado sin nombre 21" x1="674.7" y1="-353.3" x2="667.3" y2="-342" gradientTransform="translate(-283 -16.5) scale(.5 -.5)" gradientUnits="userSpaceOnUse">
      <stop offset="0" stop-color="#e39e2b"/>
      <stop offset="1" stop-color="#f2c14b"/>
    </linearGradient>
    <linearGradient id="Degradado_sin_nombre_22" data-name="Degradado sin nombre 22" x1="667.8" y1="-353.7" x2="666.2" y2="-348.6" gradientTransform="translate(-283 -16.5) scale(.5 -.5)" gradientUnits="userSpaceOnUse">
      <stop offset="0" stop-color="#be8021"/>
      <stop offset="1" stop-color="#de9d2b"/>
    </linearGradient>
    <linearGradient id="Degradado_sin_nombre_191" data-name="Degradado sin nombre 19" x1="811.9" y1="-469.6" x2="769.1" y2="-452.3" xlink:href="#Degradado_sin_nombre_19"/>
    <linearGradient id="Degradado_sin_nombre_201" data-name="Degradado sin nombre 20" x1="805" y1="-455.8" x2="803.6" y2="-448.8" xlink:href="#Degradado_sin_nombre_20"/>
    <linearGradient id="Degradado_sin_nombre_211" data-name="Degradado sin nombre 21" x1="799.1" y1="-445.1" x2="791.6" y2="-433.9" xlink:href="#Degradado_sin_nombre_21"/>
    <linearGradient id="Degradado_sin_nombre_221" data-name="Degradado sin nombre 22" x1="792.1" y1="-445.5" x2="790.6" y2="-440.4" xlink:href="#Degradado_sin_nombre_22"/>
    <linearGradient id="Degradado_sin_nombre_23" data-name="Degradado sin nombre 23" x1="984.6" y1="-239.2" x2="940.2" y2="-228" gradientTransform="translate(-283 -16.5) scale(.5 -.5)" gradientUnits="userSpaceOnUse">
      <stop offset="0" stop-color="#cb8922"/>
      <stop offset="1" stop-color="#f5b63e"/>
    </linearGradient>
    <linearGradient id="Degradado_sin_nombre_24" data-name="Degradado sin nombre 24" x1="966.7" y1="-216.7" x2="965.7" y2="-207" gradientTransform="translate(-283 -16.5) scale(.5 -.5)" gradientUnits="userSpaceOnUse">
      <stop offset="0" stop-color="#b57019"/>
      <stop offset="1" stop-color="#fac548"/>
    </linearGradient>
    <linearGradient id="Degradado_sin_nombre_25" data-name="Degradado sin nombre 25" x1="949.8" y1="-379.2" x2="906.8" y2="-361.2" gradientTransform="translate(-283 -16.5) scale(.5 -.5)" gradientUnits="userSpaceOnUse">
      <stop offset="0" stop-color="#c9831d"/>
      <stop offset="1" stop-color="#eeaf36"/>
    </linearGradient>
    <linearGradient id="Degradado_sin_nombre_26" data-name="Degradado sin nombre 26" x1="935.3" y1="-356.8" x2="932.5" y2="-344.4" gradientTransform="translate(-283 -16.5) scale(.5 -.5)" gradientUnits="userSpaceOnUse">
      <stop offset="0" stop-color="#ac6009"/>
      <stop offset="1" stop-color="#f9c243"/>
    </linearGradient>
    <linearGradient id="Degradado_sin_nombre_27" data-name="Degradado sin nombre 27" x1="654.6" y1="-238.1" x2="610.9" y2="-230" gradientTransform="translate(-283 -16.5) scale(.5 -.5)" gradientUnits="userSpaceOnUse">
      <stop offset="0" stop-color="#cd8a25"/>
      <stop offset="1" stop-color="#fbc249"/>
    </linearGradient>
    <linearGradient id="Degradado_sin_nombre_28" data-name="Degradado sin nombre 28" x1="643" y1="-214" x2="643.9" y2="-210.1" gradientTransform="translate(-283 -16.5) scale(.5 -.5)" gradientUnits="userSpaceOnUse">
      <stop offset="0" stop-color="#c88525"/>
      <stop offset="1" stop-color="#e4a537"/>
    </linearGradient>
  </defs>
  <path class="st14" d="M15.4,32c-.1-6.6,0-13.4,0-20.1v-6.4c0-1.2,0-2.4,0-3.6,0-.4.2-.8.5-1.1.7-.6,1.3-.8,2.2-.8,6,0,12,0,17.9,0h25.3c0,0,72,0,72,0h54.1s18.2,0,18.2,0c3,0,6.1,0,9.1,0,1.1,0,2.1.6,2.1,1.8,0,1.8,0,3.6,0,5.5v10.7s0,33,0,33v36.8c0,9.6.1,19.2-.6,28.7-4.2,52.9-44.5,94.7-92.5,112.8-1.6.5-6.4,2.9-7.9,2.5-3.8-.9-8.1-2.8-11.7-4.4-45.4-19.2-83.7-60-88-110.7-.5-6.4-.6-12.3-.7-18.7,0-5.9-.1-11.7,0-17.6v-28c0-5.1-.1-10.9,0-15.9,0-1.6,0-3.2,0-4.8Z"/>
  <path class="st10" d="M15.4,32c.6.8.6,4.1,0,4.8,0-1.6,0-3.2,0-4.8Z"/>
  <path class="st39" d="M17.5,1.8c4.8-.3,10.9,0,15.8,0h28.1s86.4.1,86.4.1c4.2-.2,9.3,0,13.6,0h24.9s18.3,0,18.3,0c2.7,0,7.2-.1,9.8,0-.2,11.5,0,23.3,0,34.9v13.3c0,2.1,0,4.9,0,6.9.3.7.2,11.6.2,13v24.9s0,9.2,0,9.2c0,1.1,0,3.8,0,4.8h-.1c-.1-1.3,0-2.6,0-3.8v.2c-.2,1.8-.1,4.3-.3,6.2-.3,4.8-.6,9.5-1.4,14.2-1.3,7.9-3.5,15.7-6.3,23.3-5.2,13.2-15.2,28.6-24.7,39.1-4.6,4.9-9.4,9.5-14.6,13.7-12.2,10-27,18.4-41.5,24.5-2.6,1.1-7,3-9.7,3.6-4.2-1.4-11-4.4-15-6.3-15.3-6.9-29.3-16.2-41.7-27.6-1.8-1.6-3.4-3.5-5.1-5.1-10.3-10-18.4-21.7-24.8-34.5-3.7-7.4-6.4-15.6-8.5-23.7-.1-.5-.7-3.1-.7-3.4-2.6-11.9-2.5-22-2.5-34v-25.4c0-22.5-.4-45.4-.1-67.9Z"/>
  <path class="st6" d="M17.5,1.8c4.8-.3,10.9,0,15.8,0h28.1s86.4.1,86.4.1c-.5.2-22.2.1-24.4.1H38.1c-2.3,0-19.3-.3-20.4,0,0,2.6,0,5.4,0,8v18s0,51.5,0,51.5c0,5.5.3,10.7.2,16.3.2-.3.1-.1.2-.4v10.3c-.1.8-.2,1.7-.2,2.6,0,.8.1,1.1.2,1.8v-.8s.1,0,.1,0c.4,2.1-.9,1,.2,2.8,0,.9-.3,1.1-.2,2.1.3,1.6.3,3.4.6,5v-.3c.1,0,.2,0,.2,0,0,.7-.2,1.3,0,2h.1c0,.1.1-.2.1-.2.3.4.6,3.1.5,3.6-.3,1.3.8,3.6.4,4.7-2.6-11.9-2.5-22-2.5-34v-25.4c0-22.5-.4-45.4-.1-67.9Z"/>
  <path class="st10" d="M214.4,57c.3.7.2,11.6.2,13v24.9s0,9.2,0,9.2c0,1.1,0,3.8,0,4.8h-.1c-.1-1.3,0-2.6,0-3.8-.1-1.3,0-4.1,0-5.5v-11.5c0-10.3,0-20.8,0-31.1Z"/>
  <path class="st14" d="M185.9,26.7c-2.2-2.2-4.8-2.2-7.8-2.7-.2-.3-.2-.3-.4-.5h-.3c-.2.4-.3.6-.5.9-.4.7-1,1.4-1.9,1.6-.4,0-.7-.2-.9-.5-2.3-5.3.7-9.7,5.6-12,.5-.2,1.5-1.2,2.2-1.5,3.7-2.1,8.6-2,12.6-1.1,2.8.6,8.4,2.8,7.4,6.6,1.5,2,2.3,2.5,1.8,5.2,1.2,1.5,2.8,5.2.4,6.9-.4.3-1.1,0-1.5-.1-.3,1.4.5,3.5-1.1,4.6-.5.4-1.2.7-1.9.6-.5-.2-.6-.5-.9-1-.9,2.2-3.8,5.8-5.7,2.4-.2.2-.4.5-.7.7-.9.9-2.3,1.1-3.2,0-.8-1-.8-1.8-.7-3-1.3,0-2.3-.2-3.6-.4-.2,2.4,0,5.2,0,7.6v12.3s0,36.6,0,36.6c0,11.6.4,22.7-1.6,34.3-6.5,37.6-34.6,61-67,77.3-3.9-2.1-8.9-4.7-12.7-6.9-10-5.9-19.3-13-27.6-21.2-1.9-1.9-3.5-3.8-5.2-5.6-9.7-10.4-16.1-22.4-19.6-36.2-.6-2.4-1.5-6-1.8-8.5-1.4-11.9-1.1-24.2-1.1-36.2v-51.8c-.6,0-1.2.2-1.7.2-.1-.5-.2-1.2-.3-1.7-.9,2.1-2.2,3.9-4.5,4.2-1.3.2-1.3-1.3-1.3-2.1-1.5.8-3.5,1.7-4.9.2-1.3-1.3,1-2.7,1.5-3.9,2.8-6.6-3.1-7.8-8-8.1-.6.8-.9,1.4-1.8,1.6-1.2-.3-1.2-1.9-1.3-2.9-.1-2.2.6-4.4,2.1-6.1,1.9-2,4.8-2.7,7-4.6,1.2-1,4.3-1.5,5.9-1.6,4.2-.3,8.9,1.1,11.5,4.5.6.8,0,2.3,2.2,3.8.8.6.8,3,.8,4,1.1,1.8,2.9,4.7.5,6.4-.7.5-.7.5-1.6.4-.5.7-.3,1.5-1.5,3,5.1,0,10.4,0,15.6,0,14,0,28,.1,42,0,1.3-2.1,1.4-3.6,1-5.9-2-2.4-4.2-2.6-7-4-1.9.3-1.7.9-3.4,1.7-.2.1-.5,0-.7-.2-.7-.8-.6-2.9-.5-3.8.4-4.1,3.2-5.8,6.7-7.2.6-.2,1.8-1.3,2.6-1.7,2.7-1.5,6-1.6,9-1.4,3.2.5,6.8,1.4,9,4,.7.8,1,1.7,1.7,2.5h-.1c0,.1-.5,0-.5,0h0c-.3,2,2.7,1.5.8,5.5,1,1.5,1.7,2.8,1.4,4.7-.2,1.3-1.6,2.7-2.9,2.5-.1,0-.2,0-.3,0h-.6c-.2-.2-.2-.2-.5-.3-.2,1.8-.3,1.9-1.4,3.4,1.5.1,4.2,0,5.8,0h10.8s29.4,0,29.4,0c4.9,0,10.1,0,15,0,.6-2.6,1-3.6.9-6.3Z"/>
  <path class="st38" d="M127.6,17.1c-1,0-1.9-.4-3-.6-2.4-.5-5.4-1.2-7.8-.9-.8.1-2,1.4-2.9,1.6-.7.2-1.4-.2-1.9-.6-.8-.5-3.3-1.8-3.5-2.7.2-.4.6-.6,1-.8,4.3-2.1,10.8-1.5,14.9,1,.7.4,1.6,2.1,2.4,2.4.5.1.5.2.9.5h0Z"/>
  <path class="st1" d="M123.6,24.9c1.9,1.5,2.3,2.5,2.9,4.8h-.6c0,0,0-.2,0-.2-1-2.3-.5-2.2-2.2-4.6Z"/>
  <path class="st15" d="M49.9,35.1c4.7,0,9.6,0,14.3,0h27.6s91.2,0,91.2,0v44.1s0,16.2,0,16.2c0,10.3,0,20.1-2.1,30.3-1.4,6.7-3.5,13.2-6.3,19.4-1.7,3.8-4.8,9.7-7.2,13,0-1.9,0-3.8,0-5.7-1.5-1.7-3-3.7-4.4-5.5,0-2.8,0-5.5,0-8.3,0-2.7,0-5.5,0-8.2,1-1.7,3-3.9,4.1-5.7.1-1.7.3-9.3,0-10.6-.7-.6-5.9-.6-6.9-.3-.4.6-.2,3.4-.2,4.2h-2.8c0-.9.2-3.5-.1-4.2-1.2-.4-6.7-.4-7.9,0-.4.7-.3,3.4-.2,4.3h-3c0-1.5.1-2.9,0-4.4-1.2-.2-4.9-.4-6,0-.7.9-.6,10.4-.2,12,.1.6,2.5,3.6,3,4.5v.2c.2,5.2.1,11,0,16.2-1.4,1.7-4.3,4.9-5.3,6.5,0,1.6-.3,7.2.2,8.3,1.4.6,24.2.3,27.2.2-2.8,3.1-4.9,5.7-7.8,8.8-11.1,11.6-26.5,21.7-40.8,29-2-.9-4.2-2.2-6.1-3.2-16.1-8.7-30.6-20.1-41.9-34.5,7.6.2,15.3,0,23,0,.9,0,2.4,0,3.2-.3.4-1,.2-6.8.2-8.2-1-1.7-3.3-3.7-4.7-6-.2-5.1,0-11.6,0-16.8.8-1.3,1.9-2.5,2.7-3.9.2-.3.5-.9.5-1.3.1-1.9.4-9.9,0-11.3-.8-.4-6.2-.5-6.8,0-.3,1-.2,3.1-.2,4.3-1,0-1.9,0-2.9,0,0-1,.2-3.4-.2-4.2-1.1-.6-5.9-.3-7.4-.2-.3,1.4-.2,3-.2,4.4h-3c0-1.5,0-2.9,0-4.4-1.3-.1-5.5-.4-6.5.2-.4,1-.2,9.9-.2,11.8,1,1.3,2.8,3.5,3.5,4.8,0,5.5,0,11,0,16.5-3.3,5.7-4.4,2.8-4.4,10.6-5.7-8.3-10.7-20.5-12.6-30.3-2.7-13.6-2-29.2-2-43.2v-49.2Z"/>
  <path class="st14" d="M74.2,53.5c0-.8-.2-4.1.3-4.3,1.2-.6,6.8-.3,8.1-.2.1,1.7.1,2.9.1,4.6h3c0-1.2-.4-4.8,1.2-4.8,1.9,0,3.8.2,5.7.2,0,3.1,0,8.1-.1,11.1-1,1.6-2.7,2.9-3.4,4.7-.5,1.3-.3,15.2-.2,17.5,1.3,1.8,3.5,3.9,4.6,5.7v1.6c0,1.8.2,5.2-.2,6.8-.2.7-9.2.4-10.1.4h-13.1c-1,0-5.9,0-6.6-.3-.4-.8-.2-2.4-.2-3.3,0-1.5-.2-3.4.1-4.8.4-1.8,4.2-4.6,4.3-6.3.3-4.1,0-8.4.1-12.4,0-1.5,0-3.1,0-4.5-1-1.6-2.5-2.8-3.4-4.5,0-1.7,0-3.8,0-5.6,0-1.8,0-4.2,0-5.9.5,0,1.1-.1,1.6-.2,1.8,0,3.5,0,5.3,0,0,1.4,0,3.1,0,4.5,1,0,2,0,2.9-.1Z"/>
  <path class="st26" d="M69.4,65.6c5.5.2,12,0,17.6,0v10.8c0,1.8-.1,4.9,0,6.6-5.9,0-11.8,0-17.7,0,0-5.8,0-11.6,0-17.4Z"/>
  <path class="st26" d="M76.4,80.3c.1.1,0,0,.1.3-.2.5-.3.5-.7.8h-.2c0-.5.5-.8.7-1.1Z"/>
  <path class="st20" d="M77.4,71.4v.2c0,.5-.1.7-.4,1.1l-.2-.2c0-.4.4-.8.6-1.1Z"/>
  <path class="st26" d="M76.1,50.5c1.6,0,3.2,0,4.9,0,0,1.5-.1,2.8,0,4.3,2.2.1,4.4.2,6.5,0,0-1.3,0-3.1,0-4.4,1,0,2.3,0,3.2,0v.3c0,3.1.1,6.2.2,9.4-8,.2-16.7,0-24.8,0,0-3-.1-6.9,0-9.7,1.2,0,2.2,0,3.5,0-.1,1.5-.1,2.9,0,4.5,2.1,0,4.5,0,6.5,0,0-1.5,0-3,0-4.5Z"/>
  <path class="st20" d="M77.2,58h.5c0,0,0,.2,0,.2l-.7.3c-.2.1,0,.1-.3,0,0-.4,0-.2.4-.6Z"/>
  <path class="st26" d="M65,88.7h26.4c0,2.1,0,4.2,0,6.4-3-.2-6.6,0-9.6,0h-16.8s0-6.3,0-6.3Z"/>
  <path class="st20" d="M88.9,89.2h.2c.4,0,1.2,0,1.6.1-.5.9-1.7.8-2.6.7v-.2c.4,0,.4,0,.7-.1h0c-.6-.6-1.1,0-1.8-.3h0c.7-.2,1.3-.2,2-.2Z"/>
  <path class="st26" d="M90.8,90.8c.2,0,0,0,.3.2-.2.4-.6.6-1,.9h-.2s0-.3,0-.3c.3-.4.6-.5,1-.8Z"/>
  <path class="st25" d="M68.3,84.5h20.2c.9,1,1.6,1.8,2.4,2.9h-2.4s-22.5,0-22.5,0c.8-1.1,1.3-1.9,2.2-2.9Z"/>
  <path class="st20" d="M67.1,61.8c7,.2,15,0,22,0-.3.5-.7,1-1.1,1.5l-.8.9c-6,0-11.9,0-17.9.2-.7-.7-1.5-1.8-2.2-2.6Z"/>
  <path class="st14" d="M139.7,48.8c1.5,0,4.6-.1,6,.2,0,1.6,0,3,0,4.6h3.1c0-1.3-.3-3.3.1-4.4.3-.3.4-.3.9-.3,1.2,0,6.9-.2,7.6.4.2.9.1,3.3.1,4.3.9,0,1.9,0,2.8,0,0-.9-.1-3.9.3-4.4,1.3-.4,5.4-.4,6.6,0,.4.5.2,9.8.2,11.2-.8,1.4-2.6,3.4-3.6,5-.2,5.2,0,11.8,0,17,1.2,1.9,3.4,3.9,4.7,5.7,0,1.4.3,7.7-.3,8.5-.8.5-4.2.3-5.3.3h-8s-8.8,0-8.8,0c-2.1,0-4.8.1-6.8-.3-.4-.5-.3-6.8-.2-7.7.2-1.7,3-4.8,4.1-6.3-.1-5.6,0-11.4,0-17-.7-1-3-3.6-3.3-4.2-.7-1.3-.7-11.7,0-12.4Z"/>
  <path class="st26" d="M146.2,65.6h15.9c-.1,5,0,10,0,14.9,0,.8,0,1.6,0,2.3-3.6,0-7.2,0-10.8,0-2,0-4.6,0-6.5,0,0-.9,0-2.5.1-3.3,0-4.3-.1-9.7,0-13.9.4-.2.9-.1,1.4-.1Z"/>
  <path class="st20" d="M144.8,79.7c0-4.3-.1-9.7,0-13.9.4-.2.9-.1,1.4-.1-.7.2-.5,0-.9.5-.4,2.4.2,15.6-.4,16.4-.1-.8,0-1.9-.1-2.8Z"/>
  <path class="st26" d="M155.4,73.6c.4,0,.6-.2.9-.4h.2c-.1.4-.1.6-.6.7-.5.2-.6.8-1.2.9l-.3-.2c-.2-.5.2-1,.7-1.2l.2.2Z"/>
  <path class="st20" d="M154.6,74.6c-.2-.5.2-1,.7-1.2l.2.2c-.3.5-.4.6-.9,1Z"/>
  <path class="st20" d="M157.7,68.1h.1c0,.5-.3.6-.7,1l-.2-.2c.2-.4.4-.5.7-.8Z"/>
  <path class="st26" d="M159.6,77.1v.2c0,.4-.3.4-.6.7h0c0,0,0-.3,0-.3l.7-.6Z"/>
  <path class="st26" d="M162,50.4c1,0,2.6,0,3.6,0v.2c0,3.2,0,6.4,0,9.5h-24.6c-.1-2.9,0-6.8,0-9.8h3c0,1.5,0,3,0,4.6,2,0,4.4,0,6.4-.1.1-1,0-3.3,0-4.5h5.3c0,1.5,0,3,0,4.4,1.9,0,4.4,0,6.2,0,0-1.4,0-3.1,0-4.5Z"/>
  <path class="st13" d="M140.7,88.7c8.4,0,17.7-.2,26,0,0,1.8.2,4.6,0,6.3h-25.8s0-6.3,0-6.3Z"/>
  <path class="st3" d="M143.9,84.5c1.7-.1,4.8,0,6.7,0h12.9s2.2,2.9,2.2,2.9h-2.2s-21.8,0-21.8,0c.7-.9,1.5-2,2.2-2.9Z"/>
  <path class="st26" d="M142.3,61.8c7.1.2,14.7,0,21.8,0l-1,1.3-.8,1.1c-6,0-12.1,0-18.2,0-.7-.8-1.2-1.6-1.9-2.4Z"/>
  <path class="st14" d="M114,72.9c1.7,0,3.3,0,5,0,0,1.3,0,3,0,4.3.8,0,1.8,0,2.7,0,0-.8-.1-3.6.3-4.1,1.2-.4,6.3-.4,7.3.2.5,1.1.2,9.4,0,11.1,0,.4-3,4.3-3.6,5.1,0,5.6,0,11.3,0,16.9,1.5,1.9,3.3,3.9,4.6,5.8,0,1.3.4,7.8-.3,8.5-1.3.4-10.1.2-12.1.2-5.7,0-11.3,0-17,0-.3-1.7,0-7.2,0-9.1,1.4-2.1,3.5-4.1,5-6.2v-16.3c-1.1-2-2.6-3.6-3.8-5.5,0-1.5-.1-9.6.2-10.6,1.1-.4,5.2-.3,6.2,0,.4.7.2,3.3.2,4.1h3c0-.6,0-1.3,0-1.9-.2-2.4.3-2.5,2.4-2.5Z"/>
  <path class="st26" d="M107.8,89.3h16.2c-.1,2,0,4.5,0,6.5v10.9c-1.8-.1-4.2,0-6.1,0h-10c0-5.7,0-11.7,0-17.4Z"/>
  <path class="st26" d="M114.8,104.1h0s0,.2,0,.2l-.2.3c-.7.3-.4-.1-1.2.3h-.1c0-.3,0-.2.2-.5.5-.2.8-.1,1.3-.2Z"/>
  <path class="st26" d="M102.7,112.5h15.8c3.3,0,6.9,0,10.1.1,0,2.1,0,4.3,0,6.4h-25.9c0-2.2,0-4.4,0-6.5Z"/>
  <path class="st26" d="M111.2,113.9h.2c-.1.6-.6,1.1-1,1.5-.1,0,0,0-.2-.2.2-.5.6-.9,1-1.3Z"/>
  <path class="st26" d="M113.5,75.3c0-.2,0-.3,0-.5.7-.4,2.9-.2,3.7,0,0,1.4,0,2.7,0,4.1,1.5,0,5.1-.1,6.4,0,0-1.2,0-3,0-4.2,1,0,3.2-.1,4.1.2-.2,1.5,0,6.9,0,8.7h-23.8c0-2.8,0-6.1,0-8.9h3.1c0,1.3,0,2.9-.2,4.2,2.2,0,4.5,0,6.7,0,0-1.2,0-2.3,0-3.5Z"/>
  <path class="st20" d="M123.7,74.6c1,0,3.2-.1,4.1.2-.6.6-1.4.5-2.2.5-.4.7-.5.8-1.1,1.5v.2s.5,0,.5,0c-.1.3-.1.2-.4.5h-.4c-.3.7-.1,1.2-.5,1.6h-.1c0-1.3,0-3.1,0-4.4Z"/>
  <path class="st20" d="M113.5,75.3c0-.2,0-.3,0-.5.7-.4,2.9-.2,3.7,0-1.6.9-1.8.2-3.1,1.2l-.3-1h-.1c0,0,0,0,0,0v.2c.1,0,0,.2,0,.2v1.5s0,0,0,0c-.2-.5,0-.7-.2-1.3Z"/>
  <path class="st20" d="M119,79.7l.3.2c-.1.4-.4.5-.8.9h0c0-.3.3-.7.6-1.1Z"/>
  <path class="st0" d="M106.3,108.1c6.1,0,12.8-.2,18.7,0,.6.9,1.5,2.1,2.1,3h-2.5c-4.3,0-8.6,0-12.8,0-2.6,0-5.4,0-8,0,.5-.7,1.9-2.7,2.5-3Z"/>
  <path class="st26" d="M117.7,109.1c.2.7-.2,1.3-.8,1.7,0-.4.6-1.3.8-1.7Z"/>
  <path class="st21" d="M105.2,85.1c7-.2,14.6,0,21.7,0l-1.2,1.6c-.3.4-.7.8-1,1.2h-9.2c-2.6,0-5.6-.2-8.2,0-.7-.8-1.4-1.9-2.1-2.8Z"/>
  <path class="st36" d="M180.5,15.4c2.6,1.2,3.3,2.8,6.6,3.8,2.8-.9,2.6-2.5,5.8-2.7,2.8-.1,6.2.6,8.4,2.4,1.1.9,1.1,1.5,1.2,2.7-2-1.3-3.9-1.5-6.2-1.5.6.3,1.3.4,2,.6,2.7.8,5.9,2.9,5.8,6.1,0,.7-.2,1.2-.8,1.7-.5-.2-1.7-2.3-2.7-3-1.2-.9-1.3-.9-2.7-1.4.6.5,1.2.9,1.7,1.5,1.5,1.8,2.9,4.9,1.3,7-.3.4-1.1,1-1.5,1.3-.3-3.4-.4-4.6-2.8-7.3,1.6,3.5,2.7,6.9-1.5,9.7-.3.2-.5.1-.8,0-.6-1.2.5-4.5-.3-5.3-.2.7-1.7,7.3-4.2,5.2-1.1-.9.5-4.8.5-6.7-.4.5-.4.6-.6,1.2-.3.8-.5,1.1-.9,1.8-.6.3-.9.6-1.5.5-.3,0-.8,0-1.1-.1,0-.7.5-2.1.8-2.9,1.8-5.9-4.2-7.2-8.8-7.3,2.4-.8,5.8-1,8.2-.4.5.1,1.5.6,1.9,0-.2-.8-1.8-1.2-2.5-1.3-4-.7-8.4-.8-10.7,3.2-1-4.5.5-7.8,5.3-9Z"/>
  <path class="st33" d="M186.3,33c1.1-.2,3-3,3.6-4v-.2c.1,0,.2,0,.2,0l.3.6v.2c-.5.5-.5.6-.7,1.2-.3.8-.5,1.1-.9,1.8-.6.3-.9.6-1.5.5-.3,0-.8,0-1.1-.1Z"/>
  <path class="st2" d="M187.4,33.1c.6-1.5,1.3-1,2.4-2.3-.3.8-.5,1.1-.9,1.8-.6.3-.9.6-1.5.5Z"/>
  <path class="st16" d="M27,24.2c-.2-2.2,0-4.1,1.4-5.8,1.7-2.3,3.9-3.6,6.4-1.6,1.2,1,2.9,2.5,4.6,2.5,1,0,2.2-1.8,3-2.1,3.4-1.2,10.7.6,11.4,4.6,0,.2,0,.3,0,.5-2.2-1.1-3.6-1.3-6-1.8,2.8,1.3,6.1,2.2,7.4,5.4.6,1.4,0,2.4-1.1,3.3-.5-2.8-1.9-4-4.4-5.2,2.1,2.4,5,5.6,1.4,8.5-.2.2-.5.3-.7.5-.2-3.3-.5-5-2.9-7.5,1,2.6,2.7,5.5.5,7.9-.4.5-.9.9-1.3,1.4-.3-2-.6-4.8-1.9-6.4h-.2c-.2.5.3,1.5.4,2.1.3,2.9-1.1,5.1-3.5,6.4-.6-1.2-1-1.7-.6-2.9-.1-.3-.2-.4-.4-.7-.8,1.5-2.8,3.2-4.6,2,0-.5,1.4-1.8,1.8-2.6,2.9-6.9-2.3-8.9-8.3-9.8,3-.9,4.9-.6,7.9,0,.4,0,1.5.4,1.8.3v-.2c-.5-1.9-5.6-2-7.2-1.9-.2,0-.5,0-.7.2-2.3.5-3.2,1-4.5,3Z"/>
  <path class="st28" d="M27,24.2c-.2-2.2,0-4.1,1.4-5.8,1.7-2.3,3.9-3.6,6.4-1.6-.7.3-1.3.2-2,.3-1.5.3-3.4,1.2-4.2,2.6-.2.4-.2,1.8-.3,2.4.6-.3.2-.7.6-.7l.2.2c1-.1,1.3-.8,3.1-.6-.2,0-.5,0-.7.2-2.3.5-3.2,1-4.5,3Z"/>
  <path class="st22" d="M40.8,33.3c.3-.7.5-1.5.8-2.2,0,1-.1,1.9-.4,2.9-.1-.3-.2-.4-.4-.7Z"/>
  <path class="st26" d="M70.7,131.1c5.6,0,11.5,0,17.1,0-.2,1.3-.1,4.4-.1,5.9,0,3.5,0,7,0,10.5h-17.1c.2-1.8,0-4.4,0-6.2v-10.1Z"/>
  <path class="st20" d="M83,131.6c.6,0,2.2-.1,2.4.6-.4.3-.4.3-.9.5h0c.3-.5.4-.8.6-1.2-.5.5-1.1,1-1.6,1.5l-.5-.7c-.5.3-.8.5-1.3.4-.4,0-.7,0-1.3,0-.3-.2-.4-.4-.3-.4-.5,0-1.8.1-2.3,0-.2-.3,0-.2-.3-.3l-.7.5v-.2c.3-.3.3-.4.8-.5.8.5,1.3.1,2,.4,1.6.6,1.9-.4,3.5-.5Z"/>
  <path class="st26" d="M86.7,136.9c.4.3.4.4.5.9-.1.4-.1.4-.5.8h0c0,0,.4-.5.4-.5h-.2c0-.1-.7.2-.7.2h-.1c.2-.7.2-1,.7-1.4Z"/>
  <path class="st26" d="M144.5,131.1h11.3c.8,0,4.3,0,5,0v.3c.2,5.3,0,10.6.2,15.9h-11.4c-.7,0-4.5.1-4.9,0-.2-.8,0-3.9,0-4.9v-11.4Z"/>
  <path class="st20" d="M144.5,131.1h11.3c.8,0,4.3,0,5,0v.3c-1.3.5-1.8-.3-2.9.7h0s.3-.4.3-.4h-1.8c.3.2.9.2,1.2.3h0s-.2,0-.2,0c-.2,0-.9.2-1.2.3-1.2-1.5-2.1.5-3,.1-.7-.3-1.5,0-1.7-.2v-.2c.4,0,.6,0,1,.1h0c-1.4-.4-2-.5-3.2.3v-.4c-.4,0-1,.4-1.6.6v-.2c1.3-.4.8-.8,2.3-.8,3.5,0,6.9,0,10.4-.2-4.7-.2-10.8-.1-15.5,0,0,2.7-.2,8,0,10.6.2-1,0-4.1.2-4.7.5.2.6.2,1,.5-.1.4-.9,1.3-.9,1.4,0,1.7-.1,3.4-.2,5.1,0,.8.1,2.8-.4,3.2-.2-.8,0-3.9,0-4.9v-11.4Z"/>
  <path class="st9" d="M100.8,23.3c0-2.9.3-5.4,3-7.1.6-.4,2-1,2.9-1,2.2.2,3.7,3.2,5.9,3.7,1.6.3,2.6-1,3.8-1.8,1.1-.7,1.8-.5,3-.4,2.9.2,6.5.4,8.3,3.2.2.4.4.6.3,1.1-1.1,1.2-4.1-.9-5.5-.6,1.8,1.3,4.3,1.2,5.5,3.7.4.9,1.2,3.9,0,4.3-.9-.2-2.1-2.2-3.5-3.3-.4.2-.4.2-.9.1.3,2.1,1,2.2.9,5.1-.5.8-1.4,2.6-2.4,2.6-.2-.2-.4-.3-.4-.7-.3-2.2-.5-4.1-1.4-6.1.3,2.7,1,4.5-.7,6.6-.4.1-.5.2-.9.4h0c0,.1,0,0,0,0h.4c0,0,0,.2,0,.2-.5.3-1.5.5-2.3.8h-.2c0-1.6,0-3.9-.2-5.4-.5,1.2-.5,2.5-1,3.7-.7,1.6-2.2.7-3.4,1.1-.3.3-.2.2-.5.5-.3-.8.6-2.5.8-3.5,1.3-5.6-3.4-7.4-7.9-8.2,3.6-.6,5.3,0,8.8.9l.2-.2v-.3c-.1-.2-.3-.4-.5-.5-3.6-2-9.6-2.7-12.2,1.2Z"/>
  <path class="st10" d="M123.5,25.2c-.2-.4-.3-.4-.2-.8.4,0,.8.4,1.2.7-.4.2-.4.2-.9.1Z"/>
  <path class="st40" d="M66.3,153c2.9,0,6.1,0,9,0h17c0,2.5.1,4.6.1,7.1h-26.2s0-7.1,0-7.1Z"/>
  <path class="st26" d="M68.9,155.2c.1.7-.5,1.2-1.1,1.4v-.2c.2-.6.5-.9,1.1-1.2Z"/>
  <path class="st26" d="M79.9,153.6c.5.3.3.2.9.1h.1c0,.1-.2.4-.2.4-.3.3-.4.5-.7.4-.1-.4-.1-.6-.1-1Z"/>
  <path class="st26" d="M139.1,153h26.2c0,2.4,0,4.7,0,7.1h-26.2c0-2.4,0-4.8,0-7.1Z"/>
  <path class="st26" d="M150.4,115.4c1.6,0,3.2,0,4.8,0,0,1.5,0,2.9,0,4.4,1.4,0,4.9,0,6.2,0,.1-1.3,0-3,0-4.4.8,0,2.8-.2,3.5.1.1,0,.1.3.1.5,0,3.1,0,6.1-.2,9.2-2.5.2-5.1,0-7.6,0-5.4,0-10.9-.1-16.3,0v-9.9s3,0,3,0c-.2,1.3,0,3.1,0,4.4,2-.2,4.3,0,6.4,0,0-1.2,0-3.1,0-4.3Z"/>
  <path class="st26" d="M87.5,115.3c1.2,0,2.4,0,3.6,0-.1,3.2,0,6.6,0,9.9-2.9,0-5.9,0-8.8,0-5,0-10.1,0-15.1,0v-5.7s0-4.2,0-4.2c1.1,0,2.2,0,3.3,0,0,1.5,0,2.8,0,4.3,1.2.1,5.4.1,6.5,0,0-1.3,0-3.1,0-4.4,1.5,0,2.8,0,4.2,0,0,1.4,0,3,0,4.4,2.1,0,4.2,0,6.3,0,0-1.3,0-3.1,0-4.5Z"/>
  <path class="st19" d="M187.7,11.9c3.8-.4,11.6.5,13.1,4.9-2.9-1-3.5-1.1-6.5-1.4-3.1,0-3.5-.2-6,1.8-2.4-.2-4.9-1.7-6.6-3.3,1.9-1.4,3.7-1.8,6-2Z"/>
  <path class="st2" d="M191.7,13l.2.2v.3c-.7.5-1.8.7-2.6.9l-.4-.3-.3.3h-.3c.2-.4.6-1,.9-1.3.3.2.5.2.8.3.3-.1.3-.1.5-.3h.2c0,.3,0,.5,0,.8.4-.2.6-.5,1-.9Z"/>
  <path class="st26" d="M143.2,148.8c6.1-.1,12.8,0,19,0l2.1,2.7h-2.1s-21.3,0-21.3,0c.7-.9,1.5-1.9,2.3-2.8Z"/>
  <path class="st29" d="M68.2,126.9c7.2.2,14.7,0,21.9,0-.4.5-.8,1.1-1.2,1.6-.3.4-.6.9-.9,1.2-3.4,0-6.9,0-10.3,0-2.5,0-4.9,0-7.4,0-.6-.7-1.5-2.1-2.1-2.9Z"/>
  <path class="st26" d="M70,148.8h18.8c.7.8,1.4,1.9,2,2.7h-1.9s-21,0-21,0c.8-.9,1.4-1.8,2.1-2.8Z"/>
  <path class="st26" d="M142.1,126.9h21c-.4.6-.8,1.3-1.3,1.9l-.8.9c-5,.3-11.7,0-16.9.1l-2.1-2.9Z"/>
  <path class="st34" d="M39,12.3c3.9-.6,10.6.2,12.3,4.4-2-.4-4-.7-6-1-1.7,0-3-.2-4.4.8-.4.3-1,.8-1.4,1.1-1-.3-1.2-.4-2.1-.9-.8-.4-1.2-.7-2-1.2l1.2-.2c.3-.6.3-.6.4-1.2.7-.4,2.3-.7,2-1.9Z"/>
  <path class="st2" d="M37,14.2l.5.5c.6,0,.6-.4,1.4-.5h.2c0,.1,0,.4,0,.4.9-.2.7-1.2,2-1.1.1.4,0,.6-.2,1.1.7-.3,1.3-1,1.9-1.2l-.3.9c.4-.2.6-.4.9-.6h.3c0,.1,0,0,0,0,0,.5-.3.4-.3.9v.2c-.6,0-.8,0-1.4,0-.1-.3,0-.1,0-.5-.7,0-.5.5-1.7.5-.5.5-.7,1.1-1.1,1.3-.4-.2-.2,0-.5-.6-.3.7-.3.8-.4,1.6-.4-.1-.6-.2-1-.2-.8-.4-1.2-.7-2-1.2l1.2-.2c.3-.6.3-.6.4-1.2Z"/>
  <path class="st33" d="M36.6,15.4c1.6,0,1.1-.2,2.3-.4v.2c0,0-.1.3-.1.3-.3.7-.3.8-.4,1.6-.4-.1-.6-.2-1-.2-.8-.4-1.2-.7-2-1.2l1.2-.2Z"/>
  <path class="st1" d="M38.4,17.1c1.1.6,3.6-1.8,5-1.6.7,0,1.4,0,2,.4-1.7,0-3-.2-4.4.8-.4.3-1,.8-1.4,1.1-1-.3-1.2-.4-2.1-.9.4,0,.6,0,1,.2Z"/>
  <path class="st33" d="M43.5,14.6c.5-.3.7-.4,1.2-.8.5,0,.5,0,.8.3.1.4.1.2,0,.7,0,.3.3-.2.2.2-.7,0-1.2.2-1.9.2v-.3c0,0-.4,0-.4,0v-.2Z"/>
  <path class="st37" d="M34.1,14.3c1.4-1.2,3.1-1.7,4.9-2,.3,1.2-1.3,1.5-2,1.9,0,.6-.1.6-.4,1.2l-1.2.2c-.7-.5-.8-.7-1.3-1.3Z"/>
  <g>
    <path class="st14" d="M50.8,154.5c7.6.1,12,3.3,12.1,11.2.7,1.1,2.5,5.1,1.5,6.2,0,0-.4,0-.4,0,0,0-.4.1-.4.1,0,1.2,0,2.3-.9,3.3-.3.4-.4.3-.9.4-.1,0-.7,0-.7.1-.5.9-1,1.9-2,2.5-.3.2-.7.3-1.1.2-.7-.2-.8-.5-1.2-1.1-1,2.7-4,4.8-5.6,1.4l-1.5.4c-1.7,0-3.8-1.1-2.6-3.1.4-.7,1-1.4,1.4-2.2.4-.7.6-1.4.8-2.2.5-3.8-4.9-5.2-7.7-5.5h0c0-.1.5-.6.5-.6-.7,0-1.9,1.2-2.6,1.6-3.1-2.2-.7-7.5,1.9-8.9,3.3-1.8,5.6-3.7,9.4-3.9Z"/>
    <path class="st8" d="M44.5,158.5c3.1,1.2,2.5,3,6.5,4l.8-.7c.9-1,1.6-1.4,2.9-1.4,2.8,0,6.5,1.2,7.1,4.3v.5c-1.4-.6-2.4-.8-4-1.1l-.2.2h.2c1.1.4,2.2,1,3.1,1.7,1.9,1.3,2.4,3.4,2.7,5.5-1.6-1.8-2.3-3.1-4.6-4,1.6,1.4,3.2,3.3,3.6,5.4-.3,1-.4,1.4-1.1,2.2-.7-1.1-.6-1.6-1-2.6-.3,0-.2,0-.4-.2l-.3.5c0,1.7.3,3.1-.9,4.3-.2.3-.3.4-.7.4-1-.7-.6-3.9-1.4-5.4l-.3-.2c0,.3,0,.4,0,.7.4,2-.9,6.5-3.1,7-1.2-.3-1-1.7-.9-2.7l-.5-.4c-.7,1-1.1,1.4-2.3,1.5-.5,0-2.4-.1-1.7-1.1,1.9-2.3,3.6-6,1.3-8.6-1.7-1.9-4.4-2.6-6.8-2.8.9-1.3,7.3.1,8,0v-.3c-.3-.7-1.2-.9-2-1.1-2.9-.5-6.6-.7-8.8,1.6-.1.2-.1.2-.3.3l-.2-.2c-.3-1.2,0-2.9.6-4,1.1-2.1,2.4-2.7,4.5-3.3Z"/>
    <path class="st1" d="M57.9,164.3c1.1.3,2.2,1,3.1,1.6,1.9,1.3,2.4,3.4,2.7,5.5-1.6-1.8-2.3-3.1-4.6-4,1.6,1.4,3.2,3.3,3.6,5.4-.3,1-.4,1.4-1.1,2.2-.7-1.1-.6-1.6-1-2.6-.3,0-.2,0-.4-.2l-.3.5c-.2-.7-1-2.4-1.3-3.3-.5-.1-.9-.5-.8-1,.4-.4.2-.3.6-.4.1.2.2.3.4.5v.2c.1,0,.3,0,.3,0,.3-.4.4-.3.4-.7-.3-.2-.5-.3-.7-.6.1-.6,1.5-.7,1.8-1.4-.4-.6-2-1-2.8-1.8Z"/>
    <path class="st10" d="M58.6,169.5c.7,0,1.9,2.3,2,3-.3,0-.2,0-.4-.2l-.3.5c-.2-.7-1-2.4-1.3-3.3Z"/>
    <path class="st35" d="M51.9,161.7c.9-1,1.6-1.4,2.9-1.4,2.8,0,6.5,1.2,7.1,4.3v.5c-1.4-.6-2.4-.8-4-1.1l-.2.2c-.3,0-.2,0-.4-.2.2-.2.8-.2,1.3-.3h0c-.8-.3-.6-.2-1-.8h-.3c0-.3.5-1.2.8-1.5l.3.2v-.2c.1,0,0-.2,0-.2-1.2-.7-3.4-.6-4.7-.5-.5.3-1.1,1-1.6,1.1Z"/>
    <path class="st2" d="M49.8,178c.3-1.1,3.1-5.5,4.1-5.7.2.6-.3.5-.2,1.3l-.2.2c-.5.3-1,2-1.3,2.7-.7,1-1.1,1.4-2.3,1.5Z"/>
    <path class="st1" d="M39.8,165.7c0-.4,0-.5.2-.9v-.2c.5-.9.6-1,1.2-1.7h.2s0,0,0,0h-.1c0-.1.1,0,.1,0h0c0-.1,0,0,0,0h-.1c0,0,0,.1,0,.1h-.2c0-.1,0,0,0,0v.2c.1,0-.9,1.5-.9,1.5.4,0,.6-.3,1-.5v-.4c.9-1.1.5-.3,1.8-1-.1.2-.2.4-.3.7.4.6,3.8,0,5.7.5v.2c-2.8-.5-6.5-.7-8.7,1.6Z"/>
    <path class="st22" d="M52.1,176.5c.3-.7.9-2.4,1.3-2.7-.2,1-.4,2-.8,3l-.5-.4Z"/>
    <path class="st2" d="M51.5,166.2v.3c.3.1.2,0,.4.2v.2c-.4.4-.8.7-1.2,1h-.1c.3-.9-.2-.1-.2-.9,0,0,.2,0,.3,0,.6-.2.6-.4.9-.8Z"/>
    <path class="st24" d="M47.2,158.6c-.6-.4-1.1-.7-.8-1.4.8-.7,2-.9,3-1.1,3-.5,7,.2,9.4,2,.5.3.6.4,1,.8l.3.3c.3.6.4.8.5,1.5-1.7-.6-3-1-4.8-1.2-.9,0-1.3-.1-2.4,0-.5.2-1,.4-1.4.6-1.8,1.3-2.6.5-4-.8l-.9-.7Z"/>
    <path class="st27" d="M47.2,158.6c.7-.5,2.6-1.2,3.6-1.6l.4.2.3.2.4-.2h.3c0,0-.1.5-.1.5.3,0,.1,0,.4,0,.2-.2.3-.3.6-.4h0c0,.1-.2.7-.2.7h0c-.2.4-.4.6-.7.9v.2c-.2.4-.3.5-.2.9-1.8,1.3-2.6.5-4-.8l-.9-.7Z"/>
    <path class="st2" d="M47.2,158.6c.7-.5,2.6-1.2,3.6-1.6l.4.2-1.5,1.5h-.1c0,0,.1-.6.1-.6h-.1c-.6.4-.8.8-1.5,1.1l-.9-.7Z"/>
    <path class="st33" d="M52.5,157.7c.2-.2.3-.3.6-.4h0c0,.1-.2.7-.2.7h0c-.2.4-.4.6-.7.9v.2c-.1,0-.4-.2-.4-.2v-.2c.4-.2.6-.4.8-.7l-.2-.2Z"/>
    <path class="st1" d="M58.9,158.1c.5.3.6.4,1,.8l.3.3c.3.6.4.8.5,1.5-1.7-.6-3-1-4.8-1.2-.9,0-1.3-.1-2.4,0v-.7c.7.2,1.4.2,1.9-.2l.2-.2c.6-.5,2.2.3,3.3-.2Z"/>
    <path class="st18" d="M55.9,159.5c2.3-.9,2.8.3,4.3-.3.3.6.4.8.5,1.5-1.7-.6-3-1-4.8-1.2Z"/>
    <path class="st33" d="M58.9,158.1c.5.3.6.4,1,.8-.6,0-2.8-.2-3.6-.3h-.1c-.2-.3-.2-.3-.5-.4.6-.5,2.2.3,3.3-.2Z"/>
    <path class="st2" d="M53,158.1l.5-.4c.6.1.7,0,1.3-.2.4.1.2,0,.5.4v.3s.1.2.1.2c-.5.5-1.2.5-1.8.2v.7c-.6.2-1.1.4-1.5.6-.1-.4,0-.5,0-.9v-.2c.4-.3.6-.5.9-.8Z"/>
    <path class="st18" d="M52.3,158.9c.9,0,.8-.2,1.3-.2v.7c-.6.2-1.1.4-1.5.6-.1-.4,0-.5,0-.9v-.2Z"/>
  </g>
  <g>
    <path class="st14" d="M112.9,200.5c7.6.1,12,3.3,12.1,11.2.7,1.1,2.5,5.1,1.5,6.2,0,0-.4,0-.4,0,0,0-.4.1-.4.1,0,1.2,0,2.3-.9,3.3-.3.4-.4.3-.9.4-.1,0-.7,0-.7.1-.5.9-1,1.9-2,2.5-.3.2-.7.3-1.1.2-.7-.2-.8-.5-1.2-1.1-1,2.7-4,4.8-5.6,1.4l-1.5.4c-1.7,0-3.8-1.1-2.6-3.1.4-.7,1-1.4,1.4-2.2.4-.7.6-1.4.8-2.2.5-3.8-4.9-5.2-7.7-5.5h0c0-.1.5-.6.5-.6-.7,0-1.9,1.2-2.6,1.6-3.1-2.2-.7-7.5,1.9-8.9,3.3-1.8,5.6-3.7,9.4-3.9Z"/>
    <path class="st32" d="M106.7,204.4c3.1,1.2,2.5,3,6.5,4l.8-.7c.9-1,1.6-1.4,2.9-1.4,2.8,0,6.5,1.2,7.1,4.3v.5c-1.4-.6-2.4-.8-4-1.1l-.2.2h.2c1.1.4,2.2,1,3.1,1.7,1.9,1.3,2.4,3.4,2.7,5.5-1.6-1.8-2.3-3.1-4.6-4,1.6,1.4,3.2,3.3,3.6,5.4-.3,1-.4,1.4-1.1,2.2-.7-1.1-.6-1.6-1-2.6-.3,0-.2,0-.4-.2l-.3.5c0,1.7.3,3.1-.9,4.3-.2.3-.3.4-.7.4-1-.7-.6-3.9-1.4-5.4l-.3-.2c0,.3,0,.4,0,.7.4,2-.9,6.5-3.1,7-1.2-.3-1-1.7-.9-2.7l-.5-.4c-.7,1-1.1,1.4-2.3,1.5-.5,0-2.4-.1-1.7-1.1,1.9-2.3,3.6-6,1.3-8.6-1.7-1.9-4.4-2.6-6.8-2.8.9-1.3,7.3.1,8,0v-.3c-.3-.7-1.2-.9-2-1.1-2.9-.5-6.6-.7-8.8,1.6-.1.2-.1.2-.3.3l-.2-.2c-.3-1.2,0-2.9.6-4,1.1-2.1,2.4-2.7,4.5-3.3Z"/>
    <path class="st1" d="M120,210.3c1.1.3,2.2,1,3.1,1.6,1.9,1.3,2.4,3.4,2.7,5.5-1.6-1.8-2.3-3.1-4.6-4,1.6,1.4,3.2,3.3,3.6,5.4-.3,1-.4,1.4-1.1,2.2-.7-1.1-.6-1.6-1-2.6-.3,0-.2,0-.4-.2l-.3.5c-.2-.7-1-2.4-1.3-3.3-.5-.1-.9-.5-.8-1,.4-.4.2-.3.6-.4.1.2.2.3.4.5v.2c.1,0,.3,0,.3,0,.3-.4.4-.3.4-.7-.3-.2-.5-.3-.7-.6.1-.6,1.5-.7,1.8-1.4-.4-.6-2-1-2.8-1.8Z"/>
    <path class="st10" d="M120.7,215.4c.7,0,1.9,2.3,2,3-.3,0-.2,0-.4-.2l-.3.5c-.2-.7-1-2.4-1.3-3.3Z"/>
    <path class="st5" d="M114.1,207.7c.9-1,1.6-1.4,2.9-1.4,2.8,0,6.5,1.2,7.1,4.3v.5c-1.4-.6-2.4-.8-4-1.1l-.2.2c-.3,0-.2,0-.4-.2.2-.2.8-.2,1.3-.3h0c-.8-.3-.6-.2-1-.8h-.3c0-.3.5-1.2.8-1.5l.3.2v-.2c.1,0,0-.2,0-.2-1.2-.7-3.4-.6-4.7-.5-.5.3-1.1,1-1.6,1.1Z"/>
    <path class="st2" d="M111.9,224c.3-1.1,3.1-5.5,4.1-5.7.2.6-.3.5-.2,1.3l-.2.2c-.5.3-1,2-1.3,2.7-.7,1-1.1,1.4-2.3,1.5Z"/>
    <path class="st1" d="M102,211.6c0-.4,0-.5.2-.9v-.2c.5-.9.6-1,1.2-1.7h.2s0,0,0,0h-.1c0-.1.1,0,.1,0h0c0-.1,0,0,0,0h-.1c0,0,0,.1,0,.1h-.2c0-.1,0,0,0,0v.2c.1,0-.9,1.5-.9,1.5.4,0,.6-.3,1-.5v-.4c.9-1.1.5-.3,1.8-1-.1.2-.2.4-.3.7.4.6,3.8,0,5.7.5v.2c-2.8-.5-6.5-.7-8.7,1.6Z"/>
    <path class="st22" d="M114.3,222.4c.3-.7.9-2.4,1.3-2.7-.2,1-.4,2-.8,3l-.5-.4Z"/>
    <path class="st2" d="M113.7,212.2v.3c.3.1.2,0,.4.2v.2c-.4.4-.8.7-1.2,1h-.1c.3-.9-.2-.1-.2-.9,0,0,.2,0,.3,0,.6-.2.6-.4.9-.8Z"/>
    <path class="st17" d="M109.4,204.5c-.6-.4-1.1-.7-.8-1.4.8-.7,2-.9,3-1.1,3-.5,7,.2,9.4,2,.5.3.6.4,1,.8l.3.3c.3.6.4.8.5,1.5-1.7-.6-3-1-4.8-1.2-.9,0-1.3-.1-2.4,0-.5.2-1,.4-1.4.6-1.8,1.3-2.6.5-4-.8l-.9-.7Z"/>
    <path class="st30" d="M109.4,204.5c.7-.5,2.6-1.2,3.6-1.6l.4.2.3.2.4-.2h.3c0,0-.1.5-.1.5.3,0,.1,0,.4,0,.2-.2.3-.3.6-.4h0c0,.1-.2.7-.2.7h0c-.2.4-.4.6-.7.9v.2c-.2.4-.3.5-.2.9-1.8,1.3-2.6.5-4-.8l-.9-.7Z"/>
    <path class="st2" d="M109.4,204.5c.7-.5,2.6-1.2,3.6-1.6l.4.2-1.5,1.5h-.1c0,0,.1-.6.1-.6h-.1c-.6.4-.8.8-1.5,1.1l-.9-.7Z"/>
    <path class="st33" d="M114.6,203.7c.2-.2.3-.3.6-.4h0c0,.1-.2.7-.2.7h0c-.2.4-.4.6-.7.9v.2c-.1,0-.4-.2-.4-.2v-.2c.4-.2.6-.4.8-.7l-.2-.2Z"/>
    <path class="st1" d="M121,204c.5.3.6.4,1,.8l.3.3c.3.6.4.8.5,1.5-1.7-.6-3-1-4.8-1.2-.9,0-1.3-.1-2.4,0v-.7c.7.2,1.4.2,1.9-.2l.2-.2c.6-.5,2.2.3,3.3-.2Z"/>
    <path class="st18" d="M118.1,205.4c2.3-.9,2.8.3,4.3-.3.3.6.4.8.5,1.5-1.7-.6-3-1-4.8-1.2Z"/>
    <path class="st33" d="M121,204c.5.3.6.4,1,.8-.6,0-2.8-.2-3.6-.3h-.1c-.2-.3-.2-.3-.5-.4.6-.5,2.2.3,3.3-.2Z"/>
    <path class="st2" d="M115.2,204l.5-.4c.6.1.7,0,1.3-.2.4.1.2,0,.5.4v.3s.1.2.1.2c-.5.5-1.2.5-1.8.2v.7c-.6.2-1.1.4-1.5.6-.1-.4,0-.5,0-.9v-.2c.4-.3.6-.5.9-.8Z"/>
    <path class="st18" d="M114.5,204.8c.9,0,.8-.2,1.3-.2v.7c-.6.2-1.1.4-1.5.6-.1-.4,0-.5,0-.9v-.2Z"/>
  </g>
  <g>
    <path class="st14" d="M197.3,85.7c3.9-.3,8.1.5,10.6,3.8.7.9.9,1.5.6,2.6-.2.7.6,1.2.9,1.7.9,1,.4,2.4.6,3.5.4,2.4,2.5,4.7-.3,6.4-.3,1-.6,2.1-1.2,2.9-.7.9-1,.7-1.9.8-1.3,1.1-1,2.6-3.3,3.1-.6-.2-.5-.2-1-.7-1,.2-3.8,4.1-4.9.2v-.6c-.7-.8-3.6.4-4.1-1-1-2.9,3.6-4.5,1.6-8-1.4-2.4-4.5-2.1-6.8-2.9-.2-.3,0-.2-.4-.4l-.4.2c-.6.7,0,1.3-.8,1.9-.5,0-.3.1-.7-.2-.3-.6-.3-.8-.4-1.4-.7-4.9,1.6-7.6,5.7-9.8,2.3-1.2,3.2-1.9,6-2.2Z"/>
    <path class="st23" d="M187.4,96.2c-.2.2-.1.2-.4.3-1.3-1.7,2.9-8.8,6.3-6.1,1,.9,3.2,3.1,4.6,3,.8,0,2.1-1.4,2.8-1.7,1.9-.8,4.7.3,6.3,1.4,1.2.9,1.7,1.8,1.7,3.3h-.1c0,.1-.1,0-.1,0-.3,0-.6.2-.9.3,1.1,1,3.4,4.3,2.2,5.5h-.2c-.8-1.8-2.5-2.9-4.1-3.9,1.8,2.4,5,5.1,1.7,8-.4-3.3-.7-3.3-3-5.7,1.3,2.2,2.6,4.7.9,7.3-.3.4-1,1.1-1.5,1.2-.7-.7.3-4.6-.6-5.5h-.2c0,1.2,0,2.5-.4,3.6-.4,1-2.2,3.7-3.4,3-.7-1.2.5-3.4.6-4.7,0-.9,0-1.5,0-2.4-.9,3.5-.9,5.5-5.2,4.5,1.2-1.5,2.7-3.4,2.8-5.4,0-1.2-.3-2.4-1.2-3.3-1.8-1.9-4.5-2.4-7-2.5,2.1-.6,3.4-.7,5.7-.4.7,0,2.3.6,2.8.3v-.3c-2-2.3-7.5-1.7-9.9,0Z"/>
    <path class="st37" d="M187.4,96.2c-.2.2-.1.2-.4.3-1.3-1.7,2.9-8.8,6.3-6.1-.4.5-1.9.5-2.3.9-1.1.9-2.5,3-3.5,4.2,0,.3,0,.5,0,.7Z"/>
    <path class="st22" d="M204.3,94.9c1.7.5,2.5.7,4.1,1.6-.3,0-.6.2-.9.3-1.1-.6-2.1-1.2-3.1-1.9Z"/>
    <path class="st4" d="M193,88.6c3.9-2.6,12.7-2.2,14.3,3-1.6-.5-3.1-.9-4.7-1.1-.7,0-1.6-.1-2.3-.1-1.2.8-2.1,1.9-3.6,1.2l-.9-.6-1-.8-1-.8c-.3-.3-.7-.6-.9-.9Z"/>
    <path class="st2" d="M194,89.5c1.5-.4,2.4-.3,3.8-1.2h.3c0,.3,0,.7,0,.8-.2.7-.4.7-.8,1.3-.8,0-.7.2-1.4.7l-1-.8-1-.8Z"/>
    <path class="st33" d="M198.1,88.4c0,.2,0,.5,0,.6-.2.7-.4.7-.8,1.3-.8,0-.7.2-1.4.7l-1-.8c.7-.2,1.3-.3,2-.5.3-.4.5-.8.8-1.2h.1c0,0,.2-.1.2-.1Z"/>
    <path class="st18" d="M196.7,91.6c.5,0,.8-.4,1.2-.6,1.2-.4,3.4-1.5,4.6-.5-.7,0-1.6-.1-2.3-.1-1.2.8-2.1,1.9-3.6,1.2Z"/>
    <path class="st2" d="M198.1,89.1c.3-.3.9-.4,1.4-.7,0,.2-.2.4-.2.6.3-.2.6-.2,1-.2v.2c.1,0,.2,0,.2,0-.6.6-2.3,1.3-3.1,1.5.4-.6.6-.5.8-1.3Z"/>
  </g>
  <g>
    <path class="st14" d="M181.1,154.9c2.3-.2,5.7.2,7.7,1.2,2.1,1,2.9,1.9,3.7,4l-.4,1.6c1.7,1.6,1.2,2.6,1.5,4.7.2,1.3,1.1,2.6.8,3.9-.1.6-.4,1.6-.9,1.9-.3-.3-.1-.2-.5-.3-.3.4-.2,1.7-.5,2-.9,1-4.8,4.9-6,4.8,0,0-.6-.5-.7-.4-1.2,1.4-1.6,1.7-3.4,2-1.2-.3-1.2-.2-1.7-1.3v-.3c-.7-.2-2.1.3-3.2,0-1.2-.4-1.4-.5-2.1-1.6.9-1.7,2.6-2.8,3.1-4.9.9-3.8-3.3-4.7-6.1-5.3-1.2.6-3.3,1.7-3.4-.5-.2-2.9,1-6.1,3.6-7.6.6-.4,1.9-.8,2.5-1.2,2.3-1.7,3.1-2.4,6-2.7Z"/>
    <path class="st12" d="M170.4,165.2c-.2-3.4,2.1-5.4,5.1-6.3,1.2.6,2.6,2.1,3.9,3,2.8,2,3.3-.8,5.8-1.1,1.8-.3,3.9.2,5.5,1.3.9.7,1.9,1.7,1.6,3-.6,0-2.7-1.3-5-1,2.1.5,4.1,1.4,5.4,3.2.6.9,1.1,3,.4,3.9-.2-.1-.2,0-.2-.3-.4-1.4-1.6-2.5-2.8-3.1-.2-.1-.3-.1-.6-.2.2,1.4,4.7,3.5,1,6.9,0-2.8-.4-3.3-2.4-5.2,0,0-.2-.2-.2-.2,1.7,3.5,2.8,5.9-1.1,8.6,0-1.6.3-4.8-.5-6h-.1c0,.7.1,1.3.1,1.9,0,1.4-2,6.7-3.9,5.3-.7-1.3.5-3.5.3-5,0,0,0-.5,0-.5-.8,1.9-.7,3.1-2.7,4.4-.9,0-2.2.1-2.7-.7.1-.3,1.1-1.5,1.4-1.9,1.2-1.6,2-4.4.9-6.2-1.2-2.2-4.4-2.8-6.7-2.9,2.3-.6,3.9-.8,6.3-.3.4.1,1.2.3,1.5,0-.5-1.6-4.6-1.5-6-1.4-.9.2-1.8.4-2.7.9-.4.2-1,1.2-1.3,1,0-.4-.1-.7-.2-1.1Z"/>
    <path class="st18" d="M190.6,162.2c.9.7,1.9,1.7,1.6,3-.6,0-2.7-1.3-5-1-.2,0,0,0-.3,0v-.2c0,0,.5,0,.5,0,.5,0,.7-.4,1.2-.8.3-.2,1.7-.9,2.1-.9Z"/>
    <path class="st2" d="M173.7,161.2c.6-.1.9-.3,1.5-.1v.2c-.9.5-1.5.9-2.1,1.6h.1c.7-.4.8-.6,1.6-.3-1,.2-3.8,1.6-3.9,2.8h.2c1-.7,2-1.1,3.2-1.2l.2.2c-.9.2-1.8.4-2.7.9-.4.2-1,1.2-1.3,1,0-.4-.1-.7-.2-1.1.1.2.2.4.4.6h0c0-.1-.1-.5-.1-.5.1-.9,2.3-3.5,3-4.2Z"/>
    <path class="st2" d="M187.3,163.9c-.5-.2-.7-.2-.7-.7.5-.4,1.1-.4,1.7-.5l.2.4c-.5.5-.7.8-1.2.8Z"/>
    <path class="st11" d="M181.2,161.4c-1.4-.6-2.6-2-4-2.8-.3-.1-.2-.4-.3-.7,1.4-2.8,12.2-2.1,13.8,1.4.4.5.5,1.1.6,1.7-1.3-.6-2.1-.8-3.5-1-4.2-.7-3.5,0-6.5,1.3h-.2Z"/>
    <path class="st18" d="M190.7,159.3c.4.5.5,1.1.6,1.7-1.3-.6-2.1-.8-3.5-1,.2-.6.5-.9,1.1-.8.8.4.5,1.3,1.9,1.4.2-.4-.2-.6-.2-1.2Z"/>
  </g>
  <g>
    <path class="st14" d="M33.2,85.5c.2,0,.4,0,.6,0,2.9,0,7.6,1,9,4.1.3.6.2,1.7.5,2.3.7,1.9,1.1,2.5,1,4.6,1.3,1.8,2.6,5.2,1,7.3,0,.3-.9.2-.9.2-1.5,1.8,0,4.1-3.6,3.5-.8.9-2.2,2.5-3.6,2.4,0,0-.4,0-.5,0-2.1,1.8-4.3,3.8-4.8-.5-.4,0-.7.2-1.2.3-3.4.3-4-1.3-2-3.8,1.3-1.6,1.8-3.5,1.6-5.6-1.7-2.8-3.7-2.4-6.5-3.1-.4.5-.9,1.1-1.5,1.3-1.2-.2-1.1-1.7-1.2-2.6-.4-4.2,1.6-6.1,4.9-7.9,2.9-1.7,3.8-2.3,7.2-2.5Z"/>
    <path class="st31" d="M22.6,96.3h0c0,.1-.2.1-.2.1-1-3.2,2.6-8,5.6-6.3,1.8,1.4,2.9,2.8,5.1,3.4,1.8-1.6,2.4-2.1,5-2.1,2.1,0,5.1,1.6,5.4,3.8v.3c-.1,0-.4.1-.4.1-2-1-2-.9-4.2-1.2,2.4,1.3,4.9,2.2,5.8,5.2.3,1,.2,2.6-.5,3.4h-.2c-.6-3.2-1.9-3.8-4.6-4.9,2.9,2.2,3.3,2.7,3.7,6.4-.4.9-.8,1.7-1.3,2.6-.2-1.1-.5-2.4-.9-3.4-.3-.2-.2-.2-.4-.5-.1.3-.2.6-.4.9,0,1.2.1,2.2-.6,3.2-.4.6-1.5,1.6-2.2,1.7h-.1c0-.1.1-.8.1-.8.3-1.4,0-3.9-.3-5.4,0,2.3-.5,6.9-3.4,7.9-.3.1-.5-.1-.7-.3-.7-1.5.7-4.1.9-5.8-.7,1.2-1.5,3.1-2.9,3.8-.6.3-2.3.4-2.6-.4.4-.8,1.4-1.4,1.9-2.4,3.1-6.1-.1-8.9-6-9.3,1.6-.4,2.2-.4,3.8-.4.7,0,3,.3,3.5,0v-.2c-.3-.7-2.6-1.1-3.4-1.2-2.3-.2-4,.2-5.8,1.7Z"/>
    <path class="st37" d="M22.6,96.3h0c0,.1-.2.1-.2.1-1-3.2,2.6-8,5.6-6.3-.5.5-1.1.9-1.8,1.3-1.5.8-3.5,3.2-3.6,4.9Z"/>
    <path class="st10" d="M38.9,99.7c1.1,1,1.8,2.4,2.1,3.8-.3-.2-.2-.2-.4-.5-.1.3-.2.6-.4.9-.2-1.9-.5-2.5-1.3-4.2Z"/>
    <path class="st2" d="M38.6,92.5c.6.7-.6,2.5-1.5,2.1v-.5s.3-.1.3-.1c.3-.2.5-.5.3-.8-.3,0-.3.1-.6.3h-.2c0-.3.2-.4.5-.6.4,0,.3,0,.8.3.4-.2.3-.2.5-.7Z"/>
    <path class="st37" d="M29.5,89.7c-.5-.3-.8-.5-1.1-.9-.2-1.1.7-1.2,1.6-1.5,3.2-.9,7-.6,9.9,1.1h.2c1.3.9,1.7,1.5,2,3-1.1-.3-1.8-.5-2.8-.8-.6-.1-3.1-.3-3.4-.5-2,0-2.3,2.6-4.1,1.1l-1.4-1-.7-.5Z"/>
    <path class="st7" d="M40,88.4c1.3.8,1.7,1.4,2,2.9-1.1-.3-1.8-.5-2.8-.8-.6-.1-3.1-.3-3.4-.5-.3-.7,0-.5-.7-.8.4,0,.6-.3.9-.6h0c1-.4,3.1.9,4-.3Z"/>
    <path class="st33" d="M30.2,90.2c.5-.2,2-.6,2.3-.9,1.3-1.3,1.6-.6,3.3-.9l.2.3c-.3.3-.5.5-.9.6.6.3.4.1.7.8-2,0-2.3,2.6-4.1,1.1l-1.4-1Z"/>
    <path class="st1" d="M31.6,91.2c1.1-.4,1.1-1.6,3.2-2.1l.3.2c.6.3.4.1.7.8-2,0-2.3,2.6-4.1,1.1Z"/>
    <path class="st2" d="M29.5,89.7c.3,0,.4,0,.6-.3,3.6-2.7,4.4-1,8.4-1,.7,0,.8.2,1.4-.1h.2c-.8,1.3-3,0-4,.5h0c0,0-.2-.4-.2-.4-1.6.3-1.9-.5-3.3.9-.3.3-1.8.7-2.3.9l-.7-.5Z"/>
  </g>
</svg>