<?xml version="1.0" encoding="UTF-8"?>
<svg id="Capa_2" xmlns="http://www.w3.org/2000/svg" version="1.1" xmlns:xlink="http://www.w3.org/1999/xlink" viewBox="0 0 232.2 232.1">
  <!-- Generator: Adobe Illustrator 30.3.0, SVG Export Plug-In . SVG Version: 2.1.3 Build 157)  -->
  <defs>
    <style>
      .st0 {
        fill: #f0cf65;
      }

      .st1 {
        fill: #041b32;
      }

      .st2 {
        fill: url(#Degradado_sin_nombre_2);
      }

      .st3 {
        fill: #0f4d7e;
      }

      .st4 {
        fill: url(#Degradado_sin_nombre_3);
      }
    </style>
    <linearGradient id="Degradado_sin_nombre_3" data-name="Degradado sin nombre 3" x1="634.2" y1="-250.5" x2="740" y2="-250.2" gradientTransform="translate(-283 -16.5) scale(.5 -.5)" gradientUnits="userSpaceOnUse">
      <stop offset="0" stop-color="#b98a30"/>
      <stop offset="1" stop-color="#e8c25e"/>
    </linearGradient>
    <linearGradient id="Degradado_sin_nombre_2" data-name="Degradado sin nombre 2" x1="961.8" y1="-252.9" x2="858.1" y2="-252.6" gradientTransform="translate(-283 -16.5) scale(.5 -.5)" gradientUnits="userSpaceOnUse">
      <stop offset="0" stop-color="#b9892f"/>
      <stop offset="1" stop-color="#e6c05b"/>
    </linearGradient>
  </defs>
  <path class="st1" d="M170.9,197.8c15.1-15.1,26-32.8,31.4-53.5,2.1-7.9,3.3-16.1,3.6-24.3.2-5.5,0-12.1,0-17.6v-29.5s0-72.9,0-72.9H26.2v75.3s0,29.7,0,29.7c0,6.8-.2,13.9.4,20.6,2.5,27.8,14.8,52.2,34.4,71.9,12.6,12.6,27.4,22.8,43.6,30.3,2.3,1.1,4.6,2,7,2.9,1,.4,3.3,1,4.1,1.4h.6c2.8-1.1,5.2-1.7,8.2-3,17.2-7.5,32.9-18.1,46.3-31.3Z"/>
  <path class="st0" d="M135.1,6.5c6.8-.1,14,0,20.8,0h42.3s0,71.2,0,71.2v26.1c0,5.1.1,10.7,0,15.7-.3,8.5-1.5,16.9-3.6,25.1-5.3,19.7-15.4,36.1-29.8,50.4-5.6,5.5-11.7,10.5-18.2,14.9-1.3.9-3.8,2.7-5.2,3.4-.3.3-3,1.9-3.5,2.2-6.9,4.1-14.2,7.5-21.7,10.3-1.9-.6-4.6-1.7-6.4-2.5-7.5-3.3-15.8-7.6-22.5-12.3-.6-.3-1.8-1.2-2.4-1.6-.7-.4-2.8-1.9-3.3-2.4-.4-.2-2.3-1.7-2.8-2.1-4.2-3.2-8.1-6.7-11.9-10.4-13.9-14-23.9-30.1-29.1-49.2-2.3-8.6-3.6-17.4-3.8-26.3-.2-5.1,0-11,0-16.1v-27s0-69.3,0-69.3h40.2c7.1,0,14.6-.1,21.7,0,11.2-.2,22.5.1,33.7,0,1.8,0,3.7,0,5.6,0Z"/>
  <path class="st4" d="M33.9,6.5h40.2c7.1,0,14.6-.1,21.7,0-1.1.6-9.8-.2-10.6.3.2.3.3.3.5.5l.4.9h.5s0,.1,0,.1c0,.4-.1.4-.4.7-.5.7-.7,1.9-.6,2.7.2,1.3,0,2.8,0,4.1,0,.3,1,1.6.9,1.9-.4.9-.3.9-.1,1.8h.3c-.4.4-1,.4-1.2.8.5.2,3,.2,3.5.7h0c3.5,1.3,6.7,2.9,8.4,6.5,1.1,2.2,1.2,4.7.4,7-1.1,2.9-3.4,5-6.1,6.2-1.1.5-2.3.9-3.5,1.2v1.4c2.6,1.9,2.7,4.4,0,6.3v13.6c1.3,0,6.9-.3,7.7.5.8.8.7,2.6.6,3.7,0,.6-.2,1.4-.7,1.8-.6.5-2.1.3-2.9.3v1.6c3.2,0,3.8.2,3.6,3.7,0,1.2-.1,1.9-1.2,2.6-1.2,0-6.3,0-7,.1-.2.5-.1.8-.1,1.3h.2c-.3,1.4-1.2,2.2-2.1,3,0,.5.7.3,0,1.4-.1.1,0,.1,0,.3.2-.2.3-.4.5-.5l.2,1.5c-.2,0-.4.1-.6,0,.1.2.1.3.3.4-.2.3-.2.3-.6.4-.9-.5-.8-.1-2.1,0l-.2.2c2.5,0,7.8.7,9.6,2.6v.2c2.8,2.1,4.5,3.8,5,7.4.3,2.4-.4,4.7-1.9,6.6-2.1,2.7-5,4-8.3,4.8,0,.4,0,.9,0,1.3,2.5,1.9,2.8,4.4,0,6.3v12.4c2.1,0,4.5,0,6.5,0,1.3,0,1.6,2.2,1.6,3.1,0,3-1,3-3.6,3v1.4c1.5,0,2.4-.2,3.4,1.1.2,1.7.7,5.1-1.9,5.1-2,0-4,0-6,0,0,1.4,0,1.7-.7,2.9,0,1.4-2.5,1.6-3.2,2.2h0c.5.2.6.1.9.4.3,2.1-1.7,1.6-2.5,2.6.7.3,4.1-.2,5.8.6v.2c3.4,1,6.5,2.5,8.3,5.8,1,1.9,1.2,4.2.6,6.3-.9,2.6-2.8,4.4-5.2,5.7-.9.5-3.7,1.3-4,1.6,0,.4,0,.6.2.9,1.8,2,2.4,4.1-.3,5.9v9.5c1.9,0,4.1,0,6,0,.7.5,1,.8,1.1,1.6.2,1.3.5,3.7-1.2,4.1-.6.1-1.3-.1-1.9.2,0,.4,0,.4,0,.8.7.7,3.3-.7,3.2,3.1,0,2.4-.3,3.1-2.8,3.1-1.5,0-2.9,0-4.4,0,.3,2.7-1.2,4.2-3.8,4.5-.2,0-.5,0-.7,0h0c.3.7,1.2,1.3,1.6,1.6.2.1.4,2,.5,2.3.8.3.3-.2.8.1,0,.5.4,1.5.3,1.9-.2,0-.2,0-.5-.2.3.5.8.4,1,.9-.3.5-.5,0-.8.6.1.4.4.5.7.7v.2c-.6-.3-1.9-1.2-2.4-1.6-.7-.4-2.8-1.9-3.3-2.4-.4-.2-2.3-1.7-2.8-2.1-4.2-3.2-8.1-6.7-11.9-10.4-13.9-14-23.9-30.1-29.1-49.2-2.3-8.6-3.6-17.4-3.8-26.3-.2-5.1,0-11,0-16.1v-27s0-69.3,0-69.3Z"/>
  <path class="st1" d="M80,42c-3.5-.8-6.7-2.4-8.8-5.5-1.3-2-1.8-4.4-1.3-6.7.6-2.7,2.6-5.3,4.9-6.7,4.8-2.9,9.2-3,14.4-1.9,3.5,1.2,6.7,2.8,8.4,6.4,1.1,2.2,1.2,4.7.4,7-1.1,2.9-3.4,5-6.1,6.2-1.1.5-2.3.9-3.5,1.2v1.4c2.6,1.9,2.7,4.4,0,6.3v13.6c1.3,0,6.9-.3,7.7.5.8.8.7,2.6.6,3.7,0,.6-.2,1.4-.7,1.8-.6.5-2.1.3-2.9.3v1.6c3.2,0,3.8.2,3.6,3.7,0,1.2-.1,1.9-1.2,2.6-1.2,0-6.3,0-7,.1-.2.5-.1.8-.1,1.3l-.2.5c-.5,1.2-1,1.8-2.1,2.4-.7.2-1,.3-1.7.4-2-.2-4-1.2-4.2-3.5-.3-3.1-.1-6.3-.1-9.4v-19.5c-2.6-1.6-2.7-4.8,0-6.3v-1.5Z"/>
  <path class="st3" d="M82.4,22.8c4-.7,9.5,1,12.1,4.1,1.2,1.5,1.9,3.4,1.7,5.3-.4,3.7-3.5,6.2-6.8,7.3-.7.3-2.7.7-3.1,1.2-.6.6-.3,3.5-.2,4.4,2.7.9,2.6,2.2,0,3.2-.1,2,0,4.5,0,6.4v10.8c2.7,0,5.5,0,8.2,0v1.9c-2.2,0-3.6-.5-3.6,2.4,0,3.7.2,3.6,3.6,3.6,0,.5,0,1.3-.1,1.7-.4.3-.4.2-1,.2-2.4,0-4.7,0-7.1,0,0,.8.1,2.3,0,3-.6,2.4-2.8,2.1-3.9.2,0-2.6,0-5.5,0-8.1v-14.9c0-2.2,0-4.6,0-6.8,0-.7-1.5-.8-1.7-1.3-.7-1.5.7-1.9,1.8-2.3,0-.7.3-4.2-.4-4.4-3.8-1.4-8.4-2.6-9.6-7-1.7-6.5,4.7-10,10.2-10.7Z"/>
  <path class="st1" d="M80.5,26.3c1.6,0,1.7,1.3,3,1.6,2.9.7,2.1-2.5,5.6-1.3,2.8.9,4.9,3.4,3.9,6.5-.6,1.8-2.4,2.8-4,3.5-.2,0-.4.1-.6.2-3.9,1.1-11.8.7-13-4.2-.3-1.2,0-2.4.6-3.5,1-1.7,2.9-2.5,4.7-2.9Z"/>
  <path class="st0" d="M80.5,28.4c2.2,2,5.2,2.4,7.3,0,3.6,1.3,4.7,4,.8,6-2.5,1-5.4,1.1-8,.3-1.5-.4-4.1-1.9-3.4-3.8.5-1.3,2-2,3.3-2.4Z"/>
  <path class="st1" d="M80,107.1c-1.1-.3-2.3-.6-3.3-1.1-5.1-2.2-8.6-7.4-6.1-12.9,3.2-6.7,12.7-8.5,19.2-6.4,1.3.4,2.4,1,3.6,1.6,2.8,2.1,4.5,3.8,5,7.4.3,2.4-.4,4.7-1.9,6.6-2.1,2.7-5,4-8.3,4.8,0,.4,0,.9,0,1.3,2.5,1.9,2.8,4.4,0,6.3v12.4c2.1,0,4.5,0,6.5,0,1.3,0,1.6,2.2,1.6,3.1,0,3-1,3-3.6,3v1.4c1.5,0,2.4-.2,3.4,1.1.2,1.7.7,5.1-1.9,5.1-2,0-4,0-6,0,0,1.4,0,1.7-.7,2.9,0,0-.5.5-.7.7-.7.5-1.9,1.2-2.8,1.2-4.9-.4-4.2-4.8-4.2-8.4,0-1.4,0-2.5,0-3.8v-18.9c-2.6-1.6-2.6-4.5,0-6.2v-1.4Z"/>
  <path class="st3" d="M83.5,88c1,0,1.9,0,2.9.1,4.7.6,10.6,4.1,9.8,9.7-.5,3.6-3.9,5.9-7.1,6.9-.6.2-2.2.5-2.7,1-.6.6-.3,3.6-.3,4.4,2.5,1,2.7,2.2,0,3.2-.1,1.6,0,3.8,0,5.5v10.5c2.7,0,5.4,0,8.1,0v1.9c-3.1,0-3.6-.3-3.6,3.1,0,3.3.8,2.6,3.6,2.7v1.9s-2.2,0-2.2,0h-5.9c0,1.2.2,2.8-.4,3.8-.7,1.4-3.4.8-3.5-.7-.2-1.9-.1-4,0-5.9v-15.5c0-1.5.1-6.2-.1-7.4-2.6-1.1-2.4-2.2.1-3.2,0-1,.4-3.9-.6-4.5-.5-.3-1.6-.6-2.2-.8-3.4-1-7.2-3.6-7.4-7.6-.3-6.2,6.7-8.9,11.6-9.2Z"/>
  <path class="st1" d="M80.4,91.6c1.6-.2,1.6,1.1,2.9,1.5,1.5.7,2.9-1.1,3.6-1.3,3.4-.8,7.5,3.3,5.8,6.7-.9,1.9-2.4,2.6-3.8,3.2-.4.2-.8.3-1.2.4-3.8.9-11.5.4-12.5-4.4-.3-1.2,0-2.4.7-3.4,1-1.4,2.8-2.4,4.5-2.6Z"/>
  <path class="st0" d="M80.3,93.7c.4,0,.6.3.9.6,2.1,1.5,4.8,1.5,6.6-.6,3.5,1.1,4.7,3.9.9,5.8-2.4.9-4.5,1.1-6.9.6-4.4-.8-7.1-4.1-1.5-6.4Z"/>
  <path class="st1" d="M80.4,175.8c-.6-.4-1.1-.8-1.4-1.3-1.5-2.6.8-3.3,1.4-5.2.2-.4-.5-.6-.9-.7-2.8-.7-5.7-2.4-7.4-4.8-1.2-1.7-1.6-3.8-1.3-5.8,1.2-6.5,9.4-9.4,15.2-8.7,1,.1,1.8.2,2.8.4,3.4,1,6.5,2.5,8.2,5.8,1,1.9,1.2,4.2.6,6.3-.9,2.6-2.8,4.4-5.2,5.7-.9.5-3.7,1.3-4,1.6,0,.4,0,.6.2.9,1.8,2,2.4,4.1-.3,5.9v9.5c1.9,0,4.1,0,6,0,.7.5,1,.8,1.1,1.6.2,1.3.5,3.7-1.2,4.1-.6.1-1.3-.1-1.9.2,0,.4,0,.4,0,.8.7.7,3.3-.7,3.2,3.1,0,2.4-.3,3.1-2.8,3.1-1.5,0-2.9,0-4.4,0-.3,2.4-1.1,4.1-3.8,4.3-1.7.2-3.7-1.3-3.9-3-.3-2.5-.2-5.4-.2-7.9v-15.8Z"/>
  <path class="st3" d="M83.7,151.3c4.8-.2,12,2.2,12.1,8.2,0,3.4-3.2,5.8-6,6.8-.9.3-2.9.7-3.5,1.3-.3.8-.2,2.9-.1,3.9.7.4,1.9.6,1.8,1.6,0,.9-1,.9-1.6,1.4-.3.6-.2,11.4-.3,13,2.4,0,4.9,0,7.3,0v1.7c-.9,0-2-.1-2.8.3-.3.3-.5.9-.5,1.3-.1,3.7-.2,3.8,3.3,3.7v1.8s-1.8,0-1.8,0h-5.4c0,1.5.5,4.5-2,4.3-.6,0-1.1-.6-1.4-1.1-.2-1.6-.1-5.3-.1-7.1v-13.6c0-1.1,0-2.7,0-3.8-.2-.7-1.3-.8-1.6-1.4-.6-1.2.8-1.6,1.7-2,0-.5,0-1,0-1.5,0-2.4.1-2.5-2.2-3.1-2.8-.8-5.9-2.3-7.1-5.2-.5-1.3-.6-2.6-.2-3.9,1.4-4.2,6.5-6.1,10.6-6.3Z"/>
  <path class="st1" d="M86.9,154.6c2.2-.1,4.7,1.1,5.6,3.2.4,1,.4,2.1,0,3.1-.7,1.6-2.1,2.4-3.6,3-2.8,1.1-7.7,1-10.3-.5-5.1-3-2.8-7.5,2-8.7,2.8-.2,2.6,3.6,6.3,0Z"/>
  <path class="st0" d="M87.9,156.6c3.2,1.2,4.3,3.3.8,5.1-2.4.9-5.2,1-7.6.3-1.2-.3-3.8-1.5-3.1-3.2.4-1.1,1.7-1.7,2.8-2.2.7,0,2,1.4,3.3,1.4,1.7,0,2.6-.5,3.9-1.5Z"/>
  <path class="st0" d="M81.6,206.9h.2c1.1.6,3.1-1.2,3.4,2.2-.2.2-.1.1-.3.2-.7-.4-2.8-1.9-3.3-2.4Z"/>
  <path class="st0" d="M84.3,82.2c.7-.1,1-.2,1.7-.4.2.4.2.4.2.8-.4.7-1.4,0-1.9-.4Z"/>
  <path class="st0" d="M86.2,208.3h-.2c-.4-.4-.4-1.3-.1-1.7,0,.1.3,1.6.4,1.7Z"/>
  <path class="st2" d="M135.1,6.5c6.8-.1,14,0,20.8,0h42.3s0,71.2,0,71.2v26.1c0,5.1.1,10.7,0,15.7-.3,8.5-1.5,16.9-3.6,25.1-5.3,19.7-15.4,36.1-29.8,50.4-5.6,5.5-11.7,10.5-18.2,14.9-1.3.9-3.8,2.7-5.2,3.4.3-.6,2.5-1.9,3.2-2.4,1.5-1,2.9-1.9,4.3-2.9.3-.2,1.2-.8,1.3-1.2-.2-.4-1.2-.7-1.5-1.1-1.4-1.6.3-1.9.2-3-1.7,0-2.3.2-3.8-1-.6-.5-1.1-1.3-1.3-2.1-.2-.9-.1-4.6-.1-5.8v-13.3c0-1.2,0-3.2,0-4.3,0-.4-1.8-1.5-1.8-2.7,0-1.7.4-2.2,1.5-3.5.3-.3.4-.4.3-.8-.6-.5-1.1-.1-1.7-.8-.6-.3-1.3-.6-1.9-.8-4.7-2.1-7.6-7.4-4.8-12.2,1.1-1.9,2.2-2.7,4-3.9.8-1.3,5.3-2.2,6.8-2.3.9,0,2.3,0,3.3,0-.5-.5-2.4-2-2.5-2.5.4,0,.3,0,.7,0l.2-.4c.3-.1.3-.1.6-.3-.6-.5-2.3,0-3.5-1.4-1.5-1.7-1.2-3.4-1.2-5.5v-5.2s0-19,0-19c-.9-1-2.3-1.8-1.8-3.4,0-.2,0-.4,0-.5.2-1.3.9-1.9,1.9-2.5v-1.4c-3.4-.8-6.5-2.3-8.6-5.2-2.2-3.1-2.2-7,0-10.2,1-1.6,2.2-2.5,3.8-3.5.5-.8,2.3-1.4,3.2-1.7,2.4-.8,4.9-1,7.5-.8h0c-.8-.2-.8-1.2-1.7-1.1-1.1,0-1.3-.5-1.8-1.3,0-.5.2-.6.5-1.1h.2c.3.5.8.7,1.4.7.4-.2.4-.3.7-.6-1.5,0-2.8,0-3.9-1.2-.4-.5-1.3-1.6-1.3-2.3,0-9.4,0-19.2,0-28.6,0-.7-2.6-1.6-1.8-4,.4-1.5.8-1.7,2.1-2.7v-1.3c-.1,0-.2,0-.3,0-3.6-1-6.9-2.6-8.8-6-2.2-3.8-1.3-8.1,1.7-11.2,1.2-1.2,2.3-1.9,3.8-2.7v-.2c1.8-1.3,5.1-1.3,6.7-1.7v-.2c-.1-.3-.1-.2-.4-.4,0-.3.2-2.1.3-2.4.3-.6.7-.9.9-1.7-.8-1.1.6-5.2,0-6.5-.1-.3.6-1.2.8-1.6v-.2c.3,0,.5,0,.7,0v-.3c0-.2,0-.3-.4-.3-1.9-.2-12.9.2-13.8-.2Z"/>
  <path class="st1" d="M140.3,22.3c1.8-.7,3.6-1.3,5.5-1.6,6-.7,13.5,1.6,15.9,7.7.9,2.2.8,4.6,0,6.8-1.8,4.1-5.5,5.8-9.6,6.9v1.4c2.5,1.7,2.7,4.7,0,6.3,0,4.5,0,9.1,0,13.6,1.8,0,3.5,0,5.3,0,1.4,0,2.2,0,3,1.2.1,3.8.8,5.2-3.6,5.1v1.6c2.7,0,3.6-.2,3.7,3.1,0,2,0,3.2-2.4,3.2-1.9,0-3.9,0-5.8,0-.1,1.4-.3,2.8-1.5,3.7-2.6,2.2-6.6.5-6.8-2.9-.1-3.2,0-6.3,0-9.4v-19c-1.5-1-2-1.8-2-3.6.4-1.5.8-1.7,2.1-2.7v-1.3c-.1,0-.2,0-.3,0-3.6-1-6.9-2.6-8.8-6-2.2-3.8-1.3-8.1,1.7-11.2,1.2-1.2,2.3-1.9,3.8-2.7Z"/>
  <path class="st3" d="M147.6,22.7c5.2-.2,12.5,2.8,12.6,8.8,0,3.9-3.1,6.7-6.5,7.9-1,.3-2.8.6-3.5,1.3-.4.9-.2,3.2-.2,4.3,2.6,1,2.6,2.2,0,3.3-.2,2.1-.1,4.8-.1,7,0,3.4,0,6.8,0,10.2h8.2s0,1.9,0,1.9c-.7,0-2.6-.1-3,.3-.9.8-.8,4.3-.1,5.3.4.6,2.4.4,3.1.4v1.9s-2.6,0-2.6,0c-1.8,0-3.7,0-5.5,0,0,1.2,0,2.1-.1,3.3-.7,1.1-1.8,1.9-3.2,1-.4-.3-.7-1.1-.7-1.6,0-2.4,0-4.9,0-7.3v-14.2c0-2.4.1-5.8,0-8.1-2.4-1.1-2.8-2.2,0-3.2,0-.6.3-4.2-.2-4.4-2.6-1.2-5-1.5-7.3-3.4-3.2-2.7-3.6-7.2-.9-10.4,2.6-2.9,6.1-3.9,9.9-4.2Z"/>
  <path class="st1" d="M144.5,26.3c1.5-.2,1.6,1.3,2.9,1.6,1.5.6,2.5-1.1,3.3-1.4,3.3-1.1,7.6,3.3,6.1,6.6-.9,2-2.4,2.8-4,3.5-.6.2-1.2.3-1.8.5-3.8.7-11.2,0-12-4.8-.2-1.2.1-2.5.8-3.4,1-1.4,2.9-2.3,4.6-2.5Z"/>
  <path class="st0" d="M144.3,28.4c.9.3,1.5,1.8,3.6,1.7,1.9-.1,2.5-.3,3.9-1.6,3.7,1.2,4.6,4,.8,5.9-2.5,1-5.4,1.1-8,.4-1.5-.5-4.2-1.9-3.4-3.8.5-1.3,1.9-2,3.1-2.5Z"/>
  <path class="st1" d="M139.1,88.2c4.8-2.5,9.3-3,14.5-1.5,9.9,2.9,12.4,14.1,2.6,19.1-1.4.7-2.6,1-4,1.4v1.3c2.6,1.9,2.7,4.5,0,6.3,0,4,0,8.4,0,12.4,1.9,0,5.1,0,6.9,0,.6.4.7.5,1.1,1.1.1,2.7.8,5-2.7,5-.2,0-.4,0-.7,0v1.5c1.6,0,2.5-.2,3.4,1.2,0,1.7.6,5-2.1,5-1.9,0-3.9,0-5.8,0,0,.9-.1,1.7-.6,2.5-1.9,3.6-7.6,2.5-7.7-1.8,0-3.1,0-6.1,0-9.1v-17.8c-1.1-.8-1.7-1.4-1.9-2.8,0,0,0-.2,0-.3,0-.2,0-.4,0-.5.2-1.3.9-1.9,1.9-2.5v-1.4c-3.4-.8-6.5-2.3-8.6-5.2-2.2-3.1-2.2-7,0-10.2,1-1.6,2.2-2.5,3.8-3.5Z"/>
  <path class="st3" d="M147.5,88c1.6,0,3.1,0,4.6.5,9.8,2.6,11.2,12.6,1.3,16-3.7,1.3-3.8.5-3.5,5.2,0,.6,2.5.8,1.8,2.1-.4.9-1,1-1.8,1.4-.2,1.4,0,4.2,0,5.7v10.2c2.6,0,5.5-.1,8.1,0v1.9c-.9,0-2.3,0-3,.2-.8.9-.9,4.3-.1,5.2.7.4,2.3.3,3.2.3v1.9c0,0-2.3,0-2.3,0-2,0-3.9,0-5.9,0,0,1.7.6,4.5-1.8,4.7-1,0-2.1-.6-2.1-1.7-.3-9.5.2-19.1,0-28.5-2.7-1.2-2.8-1.6-.1-3.3.3-.6.3-3.9-.2-4.4-.5-.5-2.2-.6-3.1-1-1.4-.5-2.7-1.2-3.9-2.1-3.4-2.7-4-7.2-1-10.5,2.5-2.7,6.1-3.8,9.8-4Z"/>
  <path class="st1" d="M144.4,91.6c1.4-.2,1.7,1.2,3,1.5.3.1,1.4.1,1.7-.1,2.1-1.8,3.2-1.8,5.7-.2,1.7,1.1,3,3.3,2,5.5-.7,1.8-2.3,2.6-3.9,3.4-.5.2-1,.3-1.5.4-3.7.8-11.1.3-12.2-4.5-.8-3.3,2.4-5.5,5.3-6Z"/>
  <path class="st0" d="M144.3,93.7c.5,0,1.6,1.6,3.5,1.6,1.8,0,2.6-.4,4-1.6,3.4,1.1,4.7,3.8,1,5.7-.1,0-.3.1-.4.2-7.9,2.9-15.9-3.2-8.1-5.8Z"/>
  <path class="st1" d="M139.3,151.5c4.8-2.4,9.3-2.8,14.2-1.3,10.2,3.1,10.9,14.6.6,18.1-.5.2-1.8.5-2.2.8-.3.8.7,1.5,1.2,2.2,1.2,1.9.4,3.5-1.2,4.6v9.5c1.4,0,5.7-.3,6.7.6.8.6.8,4.1-.1,4.8-.8.7-2.2.2-2.6.7,0,.5,0,.5.2.9,1.1.3,1.9-.5,2.8,1.1.5,1,.6,4.5-.8,4.7-1.8.3-4.2.1-6.1.2-.1,1.3-.3,2.4-1.4,3.3-.8.7-1.8,1-2.8.9-1.9-.2-3.6-1.6-3.6-3.5-.2-7.7,0-15.5-.1-23.2-4.3-3.1.1-5.1,0-6.5-.3-.4-.5-.5-.9-.6-.3,0-.7-.2-1-.2-.6-.3-1.3-.6-1.9-.8-4.7-2.1-7.6-7.4-4.8-12.2,1.1-1.9,2.2-2.7,4-3.9Z"/>
  <path class="st3" d="M147.7,151.3c4,0,8.7,1.3,10.8,5.1,1.5,2.7.7,5.9-1.6,7.8-1.6,1.4-3.5,2.1-5.6,2.6-.6.2-1.1.3-1.6.6-.2,1.2-.2,2.7,0,3.9.4.2,1.5.6,1.6,1,.5,1.4-.8,1.4-1.5,2-.4.6-.2,11.3-.2,13,2.4,0,4.8,0,7.3,0v1.7c-.8,0-1.9-.1-2.7.2-.9.9-.9,3.9-.1,4.9.6.4,2,.2,2.8.2v1.7s-2.7,0-2.7,0h-4.6c0,1,.2,2.9-.5,3.7-.3.4-.9.6-1.4.6-.7,0-1.4-.4-1.6-1-.4-1.1-.2-3.5-.2-4.7,0-2.5.2-19.3-.1-20-.2-.5-1.1-.6-1.5-1-.2-.3-.3-.7-.2-1,.2-.6,1.3-.9,1.8-1.2,0-4.5.6-3.7-3.9-5.2-4.8-1.5-8-6.9-4-11.2,2.4-2.6,6.1-3.5,9.5-3.7Z"/>
  <path class="st1" d="M144.1,154.6h1.2c.6.6,1.2,1.2,2,1.4,1.4.4,2.2-.8,3.3-1.4h.1c2.2,0,4.6,1.2,5.4,3.3.4.9.4,2,0,2.9-.6,1.5-2.1,2.4-3.5,3-.3,0-.5.2-.8.2-3.7,1-11.2.9-12.5-3.9-.8-2.9,2.2-5,4.8-5.5Z"/>
  <path class="st0" d="M144,156.7c1.9,0,3.2,3.4,7.3,0,3.1,1,4.4,3.3,1,5-2.8,1.1-6.4,1.2-9.2-.2-.9-.5-2.3-1.6-1.7-2.8.5-1,1.7-1.6,2.7-2Z"/>
  <path class="st1" d="M114.3,20.7c3.3-.6,8,.7,10.9,2.4,5.3,3.2,7.1,9.8,2.9,14.7-2,2.4-4.8,3.6-7.9,4.3v1.4c2.5,1.7,2.7,4.7,0,6.3v13.6c2,0,4,0,6.1,0,1.5,0,2.2.6,2.2,2.2,0,3.8,0,4.1-3.6,4.1v1.6c1.9,0,3.5-.3,3.6,2.3,0,3.7,0,4.1-3.6,4h-4.6c0,2.6-1.3,4.6-4.1,4.7-1.1,0-2.1-.4-2.9-1.1-.5-.5-1.2-1.4-1.2-2.1-.3-2.9-.1-6.3-.1-9.3v-19.8c-2.7-1.8-2.6-4.6,0-6.3v-1.3c-15.3-4-12.8-19.7,2.3-21.5Z"/>
  <path class="st3" d="M114.3,22.8c.7-.2,3.1,0,3.9,0,3.2.4,6.5,1.9,8.5,4.4,1.2,1.5,1.8,3.4,1.5,5.4-.5,3.5-3.5,5.8-6.7,6.9-.6.2-2.8.7-3.1,1-.6.7-.3,3.5-.3,4.4,2.6,1.1,2.6,2.2,0,3.4-.2,2.1-.1,4.8-.1,6.9,0,3.4,0,6.8,0,10.2,2.7,0,5.5,0,8.2,0v1.9c-2.8,0-3.5-.5-3.6,2.9,0,3.3.6,3,3.6,3v1.9s-1.5,0-1.5,0c-2.2,0-4.5,0-6.7,0,0,1.6.6,4.9-2,4.7-.9,0-1.3-.5-1.8-1.2-.2-1.8,0-5.4,0-7.3v-14.6c0-2.5.1-6.1,0-8.6-2.6-1.1-2.5-2.2,0-3.3,0-.6.3-4.2-.3-4.4-2.4-1-4.6-1.3-6.7-2.9-5.3-4.2-3.6-10.8,2.2-13.4,1.9-.9,3-1.2,5.1-1.4Z"/>
  <path class="st1" d="M112.7,26.3c2.2.2,2.1,4,6.2,0,6.3.2,9,7.3,1.8,10.3-.8.2-1.4.4-2.2.6-3.6.7-10.8-.3-11.5-5-.2-1.2.2-2.4.9-3.4,1.1-1.4,3-2.2,4.7-2.4Z"/>
  <path class="st0" d="M119.8,28.5c3.7,1.2,4.7,4.2.7,5.9-2.8,1.2-6,1.1-8.8,0-4-1.8-2.9-4.6.8-5.9,2.3,2.2,5.1,2.2,7.3,0Z"/>
  <path class="st1" d="M114.3,86.5c6.1-.7,14.1,2.1,15.8,8.7.6,2.3.2,4.7-1,6.7-2,3.2-5.4,4.9-8.9,5.8v1.3c2.7,1.8,2.7,4.5,0,6.3,0,4,0,8.4,0,12.4,1.9,0,3.8,0,5.7,0,2.1,0,2.4,1,2.4,2.9,0,3.3-.7,3.3-3.5,3.2v1.5c.7,0,2.3-.1,2.8.4.9,1,1,4.3,0,5.3-.5.5-1.9.5-2.6.4h-4.7c0,.7,0,1.2-.2,1.8-1.1,4-7.3,3.8-8-.4-.2-1.3-.1-2.7-.1-4v-5.5c0-6.1,0-12.1,0-18.2-2.6-2-2.8-4.4,0-6.3v-1.4c-7.6-1.4-13.6-9-8.2-16.1,2.4-3.2,6.6-4.6,10.5-5.1Z"/>
  <path class="st3" d="M115.1,88.6c.1,0,.3,0,.4,0,5.1-.2,12.4,2.4,12.7,8.7.2,3.6-3.3,6.9-6.5,7.8-4.4,1.2-3.8,1-3.7,5.5,2.6,1.1,2.7,2.2,0,3.2-.2,1.6,0,4.1,0,5.9,0,3.4,0,6.8,0,10.1,2.7,0,5.3,0,8,0v1.9c-.5,0-2.5,0-2.9.2-1,.6-.7,4.4-.2,5.2.6.4,2.3.3,3.1.3,0,.6,0,1.3,0,2h-2.1c-1.9,0-3.9,0-5.8,0,0,1.5.4,4.9-2,4.6-.9,0-1.3-.5-1.9-1.2,0-1.1,0-2.2,0-3.3-.1-8.6.2-17.3,0-25.8-2.5-1.1-2.7-2.1,0-3.2,0-.8.3-4.2-.4-4.5-2.5-1-4.5-1.2-6.8-3-3.2-2.6-4.1-6.9-1.3-10.2,2.5-2.9,5.9-4,9.5-4.3Z"/>
  <path class="st1" d="M118.9,92.1c6.2.2,9.1,7.2,2,10.1-.4.1-.7.2-1.1.3-3.8,1.1-11.5.4-12.6-4.3-.3-1.1,0-2.2.5-3.1,1-1.6,2.7-2.5,4.5-2.9,2.9-.2,2.6,4,6.8,0Z"/>
  <path class="st0" d="M112.2,94.3c.5,0,2.1,1.7,3.9,1.6,1.6-.1,2.5-.4,3.7-1.7,3.5,1.3,4.5,3.9.8,5.8-7.7,2.8-16.3-2.6-8.4-5.7Z"/>
  <path class="st1" d="M115.1,149.9c5.7-.3,13.1,2.3,14.9,8.3.7,2.3.4,4.7-.8,6.8-1.9,3.5-5.5,5-9.1,6v1.2c2.6,1.7,2.7,4.5,0,6.2-.2,3.9,0,8.7,0,12.7,1.5,0,6.1-.3,7.4.4.9.6.8,3.4.5,4.4-.4,1.7-1.9,1.4-3.3,1.4v1.4c.8,0,2.3,0,2.9.6.8.9.8,4.3,0,5.2-.7.7-2.7.5-3.7.5h-3.7c0,1.3-.2,2.2-1.1,3.3-.7.8-1.9,1.3-2.9,1.4-1.1,0-2.2-.4-3-1.2-.5-.5-1.1-1.3-1.1-2-.3-2.8-.1-6.1-.1-8.9v-19.2c-.6-.4-1-.7-1.4-1.2-1.9-2.8,1.3-4.4,1.5-5.8-.1-.3-.1-.4-.4-.4-4.5-1.2-9.5-4.2-9.9-9.4-.5-7.6,6.9-11.2,13.3-11.7Z"/>
  <path class="st3" d="M115.5,151.9c3.9-.2,9,1.5,11.3,4.6,4.4,5.8-1.1,11.3-6.9,12.3-2,.4-2,1-1.9,2.8,0,.7,0,1.4.1,2.1.6.4,1.3.5,1.7,1.2.7,1.2-.8,1.8-1.7,2.1-.1,2.8,0,5.6,0,8.4,0,2.7,0,5.3,0,7.9,2.7,0,5.3,0,8,0v1.9c-1,0-2-.2-2.9.3-.7.9-.7,4.5,0,5.3.7.3,2.1.2,2.9.1v1.9s-2.2,0-2.2,0h-5.8c0,1.2,0,2.3-.1,3.5-1.3,1.6-2.7,1.5-3.7-.3-.2-2.2,0-5.3,0-7.6v-14.3c0-2.2,0-4.4,0-6.6,0-1.1-2-1-1.9-2.3,0-1,1-1,1.5-1.6.7-.9.5-2.2.4-3.3,0-1.3-.8-1.3-1.9-1.6-.7-.2-1.3-.4-2-.6-5.3-1.8-8.7-7.4-4.5-12.2,2.3-2.7,6.3-3.8,9.7-4.1Z"/>
  <path class="st1" d="M112.2,155.5c1.7-.1,1.7,1.1,3.2,1.6,1.7.6,2.3-1,3.4-1.4,2.1-.8,5.2,1.6,6,3.4.5,1.1.4,2.3,0,3.3-.7,1.6-2.3,2.5-3.9,3.1-3.9,1.5-12.6,1.1-13.7-4-.2-1.1,0-2.2.6-3.2.9-1.4,2.9-2.5,4.5-2.8Z"/>
  <path class="st0" d="M112.4,157.6c.4.2.5.4.8.6,2.4,1.6,4.5,1.1,6.4-.6,3.4,1,4.8,3.8,1.1,5.7-.2,0-.4.2-.7.3-2.6.9-6.1.9-8.7-.3-1.2-.6-2.9-2-2.1-3.6.6-1.1,1.9-1.7,3.1-2.1Z"/>
</svg>