<?xml version="1.0" encoding="UTF-8"?>
<svg id="Capa_2" xmlns="http://www.w3.org/2000/svg" version="1.1" xmlns:xlink="http://www.w3.org/1999/xlink" viewBox="0 0 232.2 232.1">
  <!-- Generator: Adobe Illustrator 30.1.0, SVG Export Plug-In . SVG Version: 2.1.1 Build 89)  -->
  <defs>
    <style>
      .st0 {
        font-size: 17.5px;
      }

      .st0, .st1, .st2 {
        fill: #fff;
      }

      .st0, .st2 {
        font-family: Bicyclette-Regular, Bicyclette;
      }

      .st3, .st4 {
        fill: #0050a0;
      }

      .st3, .st5 {
        fill-rule: evenodd;
      }

      .st2 {
        font-size: 12px;
      }

      .st6 {
        fill: #1b2e17;
      }

      .st7 {
        fill: #e6aa00;
      }

      .st8 {
        fill: #cd8712;
      }

      .st9 {
        fill: #cd850d;
      }

      .st5 {
        fill: #000002;
      }

      .st10 {
        fill: #ab1f23;
      }
    </style>
    <path id="path" d="M480.1,50.7c0-50.9,41.3-92.2,92.2-92.2S664.5-.2,664.5,50.7s-41.3,92.2-92.2,92.2-92.2-41.3-92.2-92.2Z"/>
    <path id="path1" d="M709.2,34.2c50.9,0,92.2,41.3,92.2,92.2,0,50.9-41.3,92.2-92.2,92.2-50.9,0-92.2-41.3-92.2-92.2,0-50.9,41.3-92.2,92.2-92.2Z"/>
  </defs>
  <path class="st3" d="M113,.9c-.7,0-2.4.1-3.9.2-1.4,0-3.6.2-4.7.4-1.2.1-3.3.4-4.7.6-1.4.2-4.1.7-5.9,1-1.8.4-4.7,1-6.4,1.4-1.7.4-4.4,1.2-5.9,1.7-1.6.5-3.9,1.3-5.1,1.7-1.2.5-3.2,1.2-4.4,1.7-1.2.5-3.2,1.4-4.5,2s-3.2,1.5-4.2,2.1c-1,.5-2.8,1.5-4,2.2s-3,1.8-4.1,2.4c-1,.7-2.7,1.7-3.6,2.3-.9.6-2.9,2.1-4.5,3.2-1.5,1.1-3.5,2.7-4.4,3.4-.9.7-2.1,1.8-2.7,2.3-.6.5-2,1.8-3.1,2.9-1.1,1.1-2.9,2.8-4,3.9-1.1,1.1-2.2,2.4-2.6,2.8-.4.4-.7.8-.7.8,0,0-.8.9-1.6,1.9-.8,1-2.2,2.7-3,3.7s-1.9,2.5-2.5,3.3-1.8,2.6-2.8,4.1-2.4,3.9-3.3,5.3c-.8,1.4-2.2,4-3.1,5.7-.9,1.7-2,4.1-2.6,5.3-.5,1.2-1.4,3.2-1.9,4.5s-1.3,3.5-1.8,5c-.5,1.4-1.2,3.7-1.6,5.1s-.9,3.4-1.2,4.5c-.3,1.1-.8,3.4-1.1,5s-.8,4.3-1,6-.5,4.1-.7,5.3c-.1,1.2-.3,3.4-.4,4.8,0,1.4-.1,4.3-.1,6.5s0,5.1.1,6.5c0,1.4.2,3.5.4,4.7.1,1.2.4,3.6.7,5.3.2,1.7.7,4.4,1,6s.8,3.8,1.1,5c.3,1.1.8,3.2,1.2,4.5.4,1.4,1.1,3.7,1.6,5.1.5,1.4,1.3,3.7,1.8,5s1.4,3.3,1.9,4.5,1.7,3.6,2.6,5.3,2.3,4.3,3.1,5.7c.8,1.4,2.3,3.8,3.3,5.3s2.2,3.3,2.8,4.1c.5.8,1.7,2.2,2.5,3.3s2.2,2.7,3,3.7,1.8,2.1,2.1,2.5c.3.4,1.1,1.1,1.6,1.8.6.6,1.4,1.5,1.9,2s1.9,1.9,3.1,3c1.2,1.1,2.7,2.5,3.3,3s1.8,1.6,2.7,2.3,2.9,2.3,4.4,3.4c1.5,1.2,3.5,2.6,4.5,3.2.9.6,2.5,1.7,3.6,2.3,1.1.7,2.9,1.8,4.1,2.4,1.2.7,3.1,1.7,4.2,2.3s3.3,1.6,4.8,2.3c1.6.7,3.9,1.7,5.3,2.3,1.3.5,3.2,1.2,4.1,1.6.9.3,2.8,1,4.2,1.4,1.4.4,3.9,1.2,5.6,1.6,1.7.4,4.4,1.1,6,1.4,1.6.3,4,.7,5.3.9s3.3.5,4.4.6,2.8.3,3.7.4c.9,0,3.4.2,5.5.3,2.6.1,5,.1,7.7,0,2.2,0,5-.3,6.4-.4,1.3-.1,3.2-.3,4.2-.4,1-.1,3.1-.5,4.7-.7,1.6-.3,4.3-.8,5.9-1.2,1.7-.4,4.3-1,5.8-1.5,1.6-.4,4.1-1.2,5.6-1.7s3.9-1.4,5.4-2,3.6-1.5,4.7-1.9c1.1-.5,3.3-1.5,4.8-2.3,1.6-.8,3.5-1.8,4.2-2.2s2.2-1.3,3.3-1.9c1.1-.6,3.2-2,4.7-3s3.7-2.5,4.8-3.4c1.2-.9,2.9-2.2,3.9-3.1,1-.8,2.6-2.2,3.6-3s2.4-2.2,3.2-2.9c.8-.8,1.8-1.8,2.3-2.2s1.4-1.4,2.1-2.2c.7-.8,1.9-2,2.6-2.8.7-.8,1.9-2.1,2.6-3.1.8-.9,1.9-2.3,2.4-3,.6-.7,1.6-2,2.2-2.9.6-.9,1.8-2.6,2.6-3.8s2.2-3.3,3-4.7,2.1-3.6,2.7-4.8c.7-1.2,1.7-3.2,2.2-4.4.6-1.2,1.4-3.1,1.9-4.2.5-1.2,1.3-3.1,1.7-4.2.5-1.2,1.1-3,1.5-4.1s1-2.9,1.3-4.1c.4-1.2.9-3.3,1.3-4.7.4-1.4.9-3.8,1.2-5.4.3-1.6.8-4.2,1-5.8s.6-4.3.7-5.9c.2-1.7.4-4.3.4-5.8s.1-4.1.1-5.6,0-4-.1-5.6c0-1.6-.3-4.2-.5-5.8-.2-1.6-.5-4.1-.7-5.5s-.6-3.7-.9-5.1c-.3-1.4-.8-3.8-1.2-5.3-.4-1.4-.9-3.4-1.2-4.5-.3-1-.8-2.7-1.2-3.9-.4-1.1-1.1-3.2-1.6-4.6s-1.4-3.7-2-5c-.6-1.4-1.5-3.4-2.1-4.6s-1.6-3.1-2.2-4.4c-.7-1.2-1.9-3.4-2.7-4.8-.8-1.4-2.2-3.5-3-4.7s-2-2.9-2.6-3.8c-.6-.9-1.6-2.2-2.2-2.9-.6-.7-1.7-2.1-2.4-3-.8-.9-1.9-2.3-2.6-3.1-.7-.8-1.8-2-2.6-2.8-.7-.8-1.7-1.8-2.2-2.2-.5-.5-1.5-1.5-2.3-2.2s-2.2-2-3.1-2.9c-1-.8-2.6-2.2-3.6-3s-2.8-2.2-3.9-3.1c-1.2-.9-3.3-2.4-4.8-3.4s-3.6-2.3-4.7-3c-1.1-.6-2.6-1.5-3.3-1.9s-2.5-1.3-4-2.1c-1.5-.7-3.6-1.8-4.8-2.3-1.1-.5-3.3-1.4-4.8-2-1.5-.6-4-1.5-5.5-2s-4-1.3-5.6-1.7c-1.6-.4-4.2-1.1-5.8-1.4-1.6-.4-4.1-.8-5.5-1.1-1.4-.2-3.6-.6-4.8-.7-1.2-.2-3.3-.4-4.7-.5-1.3-.1-4.1-.3-6.1-.4h-7.1l.3.7h0Z"/>
  <path class="st5" d="M111.1,5.2c-1.4,0-3.7.2-5.1.4-1.4,0-3.9.4-5.6.7-1.7.2-4.4.7-6,1s-4.2.9-5.6,1.3-3.9,1.1-5.4,1.5c-1.5.5-3.9,1.3-5.3,1.8s-3.8,1.5-5.3,2.1-4,1.8-5.5,2.5c-1.5.8-3.5,1.8-4.4,2.3s-2.5,1.4-3.6,2.1c-1.1.6-3.3,2-4.8,3.1-1.6,1.1-3.9,2.7-5.1,3.6-1.2.9-3.2,2.5-4.2,3.4-1.1.9-2.9,2.5-4,3.5s-3,2.8-4.2,4-2.7,2.8-3.4,3.6-2,2.3-2.9,3.4c-.9,1.1-2.4,3-3.3,4.2s-2.4,3.3-3.3,4.7-2.3,3.6-3.1,4.9c-.8,1.3-1.9,3.3-2.5,4.3-.6,1-1.4,2.6-1.8,3.4-.4.8-1.2,2.5-1.8,3.8s-1.5,3.5-2,4.8c-.5,1.4-1.4,3.6-1.8,4.9-.5,1.3-1.1,3.4-1.5,4.6s-.9,3.2-1.2,4.5-.7,3.1-1,4.1c-.2,1-.5,2.8-.7,4s-.5,3.2-.7,4.4c-.2,1.2-.4,3.3-.5,4.7-.2,2.1-.3,4-.3,9.6s0,7.5.3,9.6c0,1.4.4,3.6.5,4.7,0,1.2.4,3.1.7,4.4.2,1.2.6,3.1.7,4,.2,1,.6,2.8,1,4.1.3,1.3.9,3.3,1.2,4.5.4,1.2,1,3.3,1.5,4.6s1.3,3.5,1.8,4.8,1.4,3.5,2,4.8,1.4,3.1,1.8,3.9c.4.8,1.2,2.3,1.8,3.4.6,1,1.7,3,2.5,4.3s2.2,3.5,3.1,4.9,2.4,3.5,3.3,4.7,2.4,3.1,3.3,4.2c.9,1.1,2.2,2.6,2.9,3.4.7.8,2.2,2.4,3.4,3.6,1.2,1.2,3,3,4.2,4,1.1,1,2.9,2.6,4,3.5s3,2.4,4.2,3.3c1.2.9,3.6,2.6,5.1,3.6,1.6,1.1,3.7,2.4,4.8,3.1,1.1.7,2.7,1.6,3.6,2.1.9.5,2.8,1.5,4.4,2.3,1.5.8,4,1.9,5.5,2.5s3.9,1.6,5.3,2.1,3.8,1.3,5.3,1.8,4.1,1.2,5.7,1.6c1.6.4,4.1,1,5.6,1.3,1.4.3,4,.7,5.7,1,1.7.2,4.2.5,5.5.7,1.3.1,4,.3,6,.4,2,0,4.9.1,6.6,0,1.6,0,4-.2,5.2-.2s3.1-.2,4.2-.4c1.1-.1,3-.4,4.2-.5,1.2-.2,3.2-.5,4.5-.7s3.3-.7,4.5-.9c1.2-.3,3.2-.8,4.4-1.1s3.5-1,5.1-1.6c1.6-.5,4-1.4,5.4-1.9s3.7-1.5,5.2-2.1c1.5-.7,3.5-1.6,4.4-2,.9-.5,2.5-1.3,3.4-1.8,1-.5,2.8-1.6,4-2.3s3.4-2.1,4.8-3.1c1.4-.9,3.7-2.6,5-3.6,1.4-1,3.3-2.6,4.4-3.5,1-.9,2.7-2.3,3.6-3.1.9-.8,2.8-2.6,4.2-4s3.2-3.4,4.2-4.4c.9-1,2.3-2.6,3-3.5s2.1-2.7,3.2-4.1c1-1.4,2.4-3.3,3-4.2.6-1,1.8-2.7,2.5-3.9s1.8-3,2.4-4.1c.6-1.1,1.6-3.1,2.3-4.4.7-1.3,1.6-3.3,2.1-4.5.5-1.1,1.4-3.2,1.9-4.5.5-1.4,1.5-3.9,2.1-5.7s1.4-4.5,1.8-6c.4-1.5,1-3.9,1.3-5.2s.7-3.7,1-5.3.6-4.1.8-5.5.4-3.5.5-4.7c.1-1.3.2-4.5.2-8.1s0-6.8-.2-8.1c-.1-1.2-.3-3.3-.5-4.7-.2-1.4-.5-3.7-.7-5.1s-.6-3.5-.9-4.7c-.2-1.2-.8-3.4-1.2-5-.4-1.5-1.1-4-1.5-5.4-.5-1.4-1.2-3.7-1.7-5s-1.4-3.7-2.1-5.2c-.7-1.5-1.8-4.1-2.6-5.6-.8-1.6-1.9-3.8-2.6-4.9-.6-1.1-1.7-3-2.5-4.2-.7-1.2-1.8-2.9-2.5-3.9-.6-1-2-2.9-3-4.2-1-1.4-2.4-3.2-3.2-4.1-.7-.9-2.1-2.5-3-3.5s-2.8-3-4.2-4.4-3.2-3.2-4.2-4c-.9-.8-2.5-2.2-3.6-3.1-1-.9-2.9-2.4-4.2-3.3-1.2-.9-3.1-2.3-4.1-3s-2.6-1.7-3.4-2.3c-.9-.6-2.6-1.6-3.8-2.3-1.2-.7-3.3-1.9-4.7-2.6s-3.6-1.8-5-2.4-3.6-1.6-5-2.1c-1.3-.5-3.6-1.4-5-1.9s-3.7-1.2-4.9-1.5c-1.2-.4-3.2-.9-4.2-1.2-1.1-.3-3.3-.8-4.9-1.1-1.6-.3-3.8-.7-4.9-.9-1.1-.2-2.9-.4-3.9-.5-1.1,0-3.2-.3-4.7-.4s-4.5-.2-6.7-.3h-6.6v-.6h0Z"/>
  <path class="st4" d="M116.3,181.5h-.5c-8.3-.1-22.4-3.6-34.4-13.1-9.1-7.2-20-20.3-20-41.6V50.7h109.4v76c0,21.3-10.9,34.4-20,41.6-12,9.5-26,13-34.4,13.1h0ZM116.1,179.9h.2c8.2-.1,21.8-3.5,33.5-12.8,8.9-7,19.5-19.7,19.5-40.4V52.2H63v74.5c0,20.7,10.6,33.4,19.5,40.4,11.7,9.3,25.4,12.7,33.5,12.8h0Z"/>
  <path class="st9" d="M116.3,174.5h-.4c-7.4-.1-19.8-3.2-30.4-11.6-8.1-6.4-17.7-18-17.7-36.8V57.7h96.8v68.4c0,18.8-9.6,30.4-17.7,36.8-10.6,8.4-23,11.5-30.4,11.6h-.2ZM116.1,173h0c16.3-.2,46.7-14.2,46.7-46.9V59.2h-93.7v66.9c0,32.7,30.4,46.7,46.6,46.9h.4Z"/>
  <path class="st9" d="M116.3,169.5h-.4c-6.9-.1-17.6-2.9-27.1-10.5-7.2-5.8-15.8-16.3-15.8-33.4v-63.2h86.3v63.2c0,17.1-8.6,27.6-15.8,33.4-9.4,7.6-20.2,10.4-27.1,10.5h0ZM116.1,168h0c14.5-.2,41.5-12.8,41.5-42.4v-61.7h-83.2v61.7c0,29.6,27,42.2,41.4,42.4h.3Z"/>
  <path class="st8" d="M123.1,198.5c-.5,1.2-.9,2.3-1.2,3.4h-11.5c-.3-1.1-.7-2.2-1.2-3.4.2-.3.6-1.4.3-2.2-.4-.9-1.5-1.1-1.8-1.1-.9-1.8-1.8-3.5-2.6-4.5,2.8,2.4,6.6,3,6.6,3,0,0-.8,2.4,0,4.4.7,1.6,2.9,1.2,2.6-1s-1.8-3.9-1.8-3.9l3.5-5.7,3.5,5.7s-1.4,1.7-1.8,3.9c-.3,2.2,1.9,2.6,2.6,1,.8-2,0-4.4,0-4.4,0,0,3.9-.6,6.6-3-.8,1.1-1.7,2.7-2.6,4.5-.2,0-1.4.2-1.8,1.1-.3.8,0,1.9.3,2.2h.3ZM117,196.9c0-1.1-.9-1.9-.9-1.9,0,0-.9.9-.9,1.9s.9,1.9.9,1.9c0,0,.9-.9.9-1.9Z"/>
  <g>
    <path class="st3" d="M111,34.2c-1,0-2.8.2-3.9.3s-3.1.4-4.3.6c-1.2.2-3.3.6-4.5.9-1.2.3-3.2.8-4.3,1.1-1.1.3-3,.9-4.2,1.3-1.2.4-3.2,1.1-4.5,1.7-1.3.5-3.7,1.6-5.3,2.4s-3.9,2-5,2.6-2.8,1.7-3.9,2.4l-1.9,1.3h3.7c3.3-1.9,5.5-3.1,7-3.9,1.5-.8,3.7-1.8,4.9-2.3,1.2-.5,2.9-1.2,3.8-1.5s2.5-.9,3.5-1.2,2.8-.8,4-1.2c1.2-.3,3.2-.8,4.4-1,1.2-.2,3.1-.6,4.3-.7,1.2-.2,2.9-.4,3.9-.5,1.2,0,3.8-.2,7.4-.2s6.2,0,7.3.2c1,0,2.7.3,3.9.5,1.2.2,3.1.5,4.3.7s3.2.7,4.5,1c1.2.3,3.3.9,4.6,1.3,1.3.4,3.4,1.2,4.8,1.7,1.3.5,3.4,1.4,4.5,1.9,1.2.5,2.9,1.4,3.9,2,1,.5,2.6,1.5,3.6,2.1l1.8,1.1h3.7c-3.2-2.1-4.9-3.2-5.9-3.8s-3.2-1.7-4.9-2.6c-1.7-.8-4.1-1.9-5.3-2.4s-3.2-1.2-4.4-1.6c-1.2-.4-3.2-1-4.5-1.4s-3.3-.8-4.4-1.1c-1.1-.2-2.8-.6-3.7-.7-.9-.2-2.8-.4-4.2-.6-1.4-.2-3.6-.4-5-.4h-9.8,0Z"/>
    <g>
      <path class="st4" d="M45.6,78.1c.6-1.1,1.3-2.4,1.8-3.1.5-.9,1.4-2.3,2-3.1.6-.8,1.6-2.4,2.4-3.4.7-1,2-2.6,2.8-3.5s1.8-2.1,2.4-2.7l1-1v-3l-1.6,1.6c-.8.9-2.2,2.4-3,3.3-.8,1-2.2,2.7-3.1,3.9-.9,1.2-2.2,3-2.9,4s-1.8,2.8-2.5,3.9c-.4.7-1,1.9-1.7,3.1,0,0,2.4,0,2.4,0Z"/>
      <path class="st4" d="M177.9,65.2c.7.8,1.8,2.2,2.5,3.2s1.8,2.5,2.5,3.5c.6.9,1.5,2.3,2,3.1.4.7,1.2,2,1.8,3.1h2.4c-.7-1.3-1.5-2.8-1.9-3.5-.6-1-1.6-2.6-2.3-3.6s-1.8-2.6-2.5-3.6-2-2.5-2.8-3.5-2.3-2.6-3.2-3.7c-1-1.1-1.8-1.9-1.9-1.9s0,.7,0,1.5v1.5c1.8,1.9,2.8,3.1,3.5,3.9,0,0-.1,0-.1,0Z"/>
      <path class="st4" d="M195.1,131.2c-.2,1.1-.5,2.3-.6,3.1-.2,1-.6,2.6-.9,3.5-.2.9-.8,2.7-1.2,4s-1.1,3.2-1.5,4.2-1.2,2.8-1.7,3.9c-.5,1.2-1.5,3.2-2.2,4.5s-1.7,3-2.2,3.9c-.5.8-1.4,2.2-1.9,3s-1.6,2.3-2.3,3.2c-.7,1-2,2.6-2.8,3.6s-3,3.3-4.8,5.1-4.1,3.9-5,4.7-2.5,2-3.5,2.8-2.8,2-4,2.8-3.2,2-4.5,2.7-3.3,1.8-4.5,2.4c-1.2.6-3.2,1.5-4.5,2s-3.7,1.4-5.3,2-4.2,1.3-5.6,1.7c-1.4.4-3,.7-3.4.8-.6.1-1.3.5-2.6,1.3-1,.6-2,1.3-2.1,1.4-.2.1-.3.2-.2.3,0,0,1.1-.1,2.4-.3,1.3-.2,3.1-.6,4.1-.8s2.8-.7,4.1-1c1.3-.4,3.3-1,4.5-1.4s3.2-1.1,4.4-1.6,3.6-1.6,5.3-2.4c1.7-.8,3.9-2,4.9-2.6s2.9-1.7,4.2-2.6c1.3-.8,3.1-2.1,4.1-2.9,1-.7,2.5-1.9,3.4-2.7s2.6-2.2,3.7-3.2c1.1-1,2.8-2.7,3.8-3.8s2.5-2.8,3.3-3.7c.8-1,2-2.5,2.8-3.5.7-1,1.8-2.6,2.5-3.6s1.7-2.6,2.3-3.6,1.7-3.1,2.6-4.7c.8-1.7,2-4,2.5-5.3s1.3-3.2,1.7-4.4c.4-1.1,1-3,1.4-4.2s.8-3.1,1.1-4.1c.2-1,.6-2.7.8-3.8,0-.2,0-.4.1-.6h-2.7Z"/>
      <path class="st4" d="M102.9,196.6l-2-1.3c-3.4-.8-5.2-1.2-6.2-1.5s-2.7-.8-3.9-1.2c-1.1-.4-2.8-1-3.7-1.3-.9-.3-2.5-1-3.7-1.5-1.1-.5-3-1.4-4.2-2s-3-1.6-3.9-2.1-2.6-1.6-3.7-2.3-2.7-1.9-3.7-2.6c-.9-.7-2.3-1.8-3.1-2.4-.8-.6-2.3-1.9-3.3-2.9-1.1-1-2.8-2.7-3.9-3.8-1.1-1.1-2.5-2.8-3.3-3.7s-2-2.5-2.8-3.5c-.7-1-1.8-2.5-2.4-3.4-.6-.8-1.5-2.3-2-3.1-.5-.9-1.5-2.5-2.1-3.7-.6-1.1-1.6-3.2-2.3-4.6-.6-1.4-1.6-3.7-2.1-5.1-.5-1.4-1.2-3.3-1.5-4.3s-.8-2.7-1.1-3.9-.8-3.2-1-4.5v-.6h-2.2c.2,1,.4,2.2.6,3,.3,1.3.9,3.6,1.3,5.1.4,1.5,1.1,3.6,1.5,4.6s1,2.7,1.4,3.7,1.4,3.3,2.3,5c.9,1.8,2.1,4.1,2.8,5.3.7,1.1,1.8,2.9,2.5,3.9s2,2.9,2.9,4c.9,1.2,2.3,2.9,3.2,3.9.8,1,2.6,2.9,3.8,4.1,1.3,1.3,3,3,3.9,3.8s2.1,1.9,2.8,2.4c.6.5,2,1.6,2.9,2.3,1,.7,2.8,2,4,2.8s3.2,2,4.4,2.7c1.2.7,3.5,1.9,5.2,2.7s4.2,1.9,5.5,2.4,3.2,1.2,4.2,1.5,2.7.9,3.9,1.2c1.1.3,3.1.8,4.3,1.1,1.2.3,3.1.6,4.1.8s2,.3,2.2.4h.4s-.9-.7-2-1.4h0Z"/>
    </g>
  </g>
  <g>
    <path class="st9" d="M12.6,99.2h42.4c-.1,5.1,0,10.7,0,15.8h-5.8v-6.6h-5.8v1.7s0,4.9,0,4.9h-6.3v-6.6c-2.2,0-4.5,0-6.7,0,0,2.1,0,4.5,0,6.6-2.1,0-4.3,0-6.4,0v-6.6c-1.9,0-3.8,0-5.7,0v6.6h-5.7v-15.8h0Z"/>
    <path class="st9" d="M177.3,99.2h42.4c-.1,5.1,0,10.7,0,15.8h-5.8v-6.6h-5.8v1.7s0,4.9,0,4.9h-6.3v-6.6c-2.2,0-4.5,0-6.7,0,0,2.1,0,4.5,0,6.6-2.1,0-4.3,0-6.4,0v-6.6c-1.9,0-3.8,0-5.7,0v6.6h-5.7v-15.8h0Z"/>
  </g>
  <path d="M2576.6-427.1c2-.3,5.5-.3,7.7-.2,43.1.7,88.9,20.2,110.7,59,5.3,9.5,8.1,18.2,11.3,28.1,9.7-.1,27.5-2.1,34,4,3.1,3,4.9,7.1,4.9,11.4,0,15.3-14.8,14.7-25.6,14.5,19.8,33.6,23.6,71-5.5,101.4-3.6,3.7-7.1,7.1-11.7,9.4,5.1,7.9,9.8,16,14.1,24.3,55.7-.6,112.6,0,168.4,0V189.4c0,21.4.5,43.3-2,64.6-3.6,30.5-11.7,60.4-24.1,88.5-38,85.5-110.2,145.2-192.3,186.8-24.4,12.4-49.6,22.2-75.1,32-2.3.9-4.7,1.7-7,2.5-17.8-5.9-36.7-13.9-53.9-21.3-60.4-26.2-109.4-57.9-155.8-104.4-40.7-40.2-69.4-90.9-83-146.4-10.4-41.5-8.8-72.5-8.8-114.7V-175.3c16.9.4,35,0,52,0h115.8c4.5-8.3,9.3-16.5,14.4-24.5-38-24.1-40.3-75.2-16.7-110.5-7.2,0-15.3,1.1-20.9-4-2.9-2.7-4.6-6.4-4.6-10.4-.1-4.3,1.6-8.5,4.7-11.5,6.5-6.2,24.3-4.3,33.9-4.2,3.7-16,11.3-30.8,21.9-43.2,24.4-29,56.7-40.5,93.2-43.6h0ZM2383.1,414.3c14.6-20.9,40-41.9,65.7-46.3,17.2-3,34.8,1,49,11.2,6,4.3,11.4,9.3,16.1,14.9,12.7-16.8,26.3-28.4,47-33.5,1.9-26.9,5.4-62.7,5.2-89.1-24.2,21.6-53.9,34.5-86.6,31.6,7.5-7.2,14.2-15.1,21.1-22.9-29.5,15.7-66.8,20-93.9-2.8,7.5-2.3,13.8-3.3,21.4-6,24.6-8.5,47.5-22.6,67.4-39.3,6.1-5.1,11.7-11,17.7-16.2-2.8,1-5.7,2-8.6,3-20.6,6.9-54.5,6.9-71.1-9.4,34.4-7.7,71.4-32.2,94.9-58-19.1,8-48.4,7.6-64.9-6.1,22.4-5.8,48.4-22.4,65.6-37.8,5.1-4.5,9.8-10,14.7-14.5-15.5,5.7-36.5,6.8-51.7-.2-1.7-.8-3.4-1.7-5-2.8,22.2-10.4,38.5-20.8,56.1-38.2,4.8-4.7,9.5-10,14.2-14.5-12.3,4.6-27.2,3.2-38.8-2.9,31.2-19.5,42.3-29.5,65.4-58.8,13.5,18.3,26.4,33,44.9,46.7,6.2,4.6,12,7.9,18.2,12-10,7.2-25.9,6.6-37.2,3,20.6,23.3,36.2,36.4,64.2,50.5,1.5.8,3.3,1.6,4.7,2.4-16.8,8-37.5,10.9-54.6,2.1,24.1,25.7,45.9,41.6,79.8,53-15.6,14-46.7,13.7-65,5.7,24.3,27.8,59.2,48.2,94.4,58.5-5.7,5.5-17.4,10-25.1,11.6-17.7,3.6-37.4,2.1-53.8-5.5,18.2,20.5,50.3,41.3,75.7,51.8,9.8,4,20.1,6.9,30.3,9.5-26.6,24.4-64.3,17.3-93.8,2.7,7.5,8.5,13.3,14.8,21.2,22.9-22.9,4.5-53.8-7.3-72.3-20.1-4.8-3.3-10.3-7.9-14.9-11.6.9,18,2.1,35.9,3.5,53.8.8,10.3,2.5,25.6,2.7,35.6,14.6,2.7,27.5,12.3,37.7,22.7,3.3,3.3,6.5,7.3,9.7,10.5,11.7-14.2,28.6-24.8,47.2-26.5,35.2-3.2,63.6,20.9,83.7,46.9,45.9-48.5,73.3-111.7,77.3-178.4.8-11.9.4-27.5.4-39.8V-36.3h-493c-21.4,0-44.3.5-65.5,0v226.4c0,13.3-.1,29.1.7,42.1,3.1,47.6,17.2,96.9,43.3,137.1,9,13.8,23.1,33.3,34.7,44.9h0ZM2332.2-91.3c7.3,10.6,7,13.5-.4,24.1,8.1,5.5,11.3,7,21.2,7,7.4-.6,11.9-2.5,17.6-7.3-12.5-21.9.8-17.6-1.4-24.8-2.8-1.5-6.1-.3-7.1-3.7-.8-2.7.3-6.4,1.8-8.6,1.8-2.7,4.8-4.5,8-4.9,9.7-1.3,10.1,6.5,13,8.1,1.7-1.4,3.3-5.8,3.4-7.9.4-17.9-17.8-18.8-28.2-9.5-1.4,1.2-2.7,2.6-3.9,4.1,3.6-7.6,8.9-14.6,5.5-23.4-1.7-4.4-5.7-6.9-10.2-7.5-9.8,1.5-12.1,9.5-10.2,18.4,1.1,5.4,4.8,9.5,7.6,14-2.7-2-4.9-5.3-7-6.7-14.3-9-23.5-3.9-27.1,10.8l2.7,8c2.8-3.8,5.1-7.2,10.3-8,2.9-.4,5.9.4,8.1,2.2,3.2,2.6,6.1,8.4,3.1,12.3-1,1.4-5,2.7-6.7,3.4h-.1ZM2495.1-175.2h177.9c-3.2-4.5-8.2-11.2-10.5-16h-157.3c-3.4,5.1-7.2,10.7-10.1,16ZM2783.3-101.2c2.2-3.1,4.4-7,8.9-8.1,7.3-1.8,17.7,6.3,12.8,14.1-.9,1.5-5.6,2.1-6.3,3.8.5,3.1,1.2,4,3.1,6.5,3.1,4.1-2,13.6-4.3,17.9,8.9,6.2,12,7.1,22.9,6.8,7-1.3,10-3,15.9-6.9-13-21.2.9-18.1-1.4-24.9-.9-.6-1.9-1-3-1.2-5.1-.8-4.7-6.3-2.7-10.1,1.4-2.7,3.8-4.8,6.7-5.7,10.2-3.3,11.4,6,15.1,6.9,1.5-1,1.7-1.5,2-3.3,3.4-19.5-15-24.4-28.1-13.4-1.4,1.2-2.6,2.5-3.8,3.8,2.9-5.1,8-12.7,7.2-18.6-1-8.2-6.1-12.7-14.3-11.7-14.5,7.5-6.9,21.3-1.6,31.7-5-5.1-10.7-11.6-18.3-11.2-13.9.8-15.2,13.3-10.8,23.5h0ZM2489.9-340.2h187.8c-8.8-24.3-23.9-38.5-47-50-13.5-6.7-39.7-12-54.6-9.8-39.2,3.9-71.8,21.7-86.1,59.9h0Z"/>
  <path d="M2784.5-20.2c14-1.1,14.6,10.9,14.6,21.6,4.4-.5,8.3-.9,12.8-.3,12.9,1.9,21.1,14.1,18.6,26.8-1.7,8.5-7.1,12.4-13.8,16.8l.4,4c1.5,15-14.7,15.7-25.6,16.8-3.7.6-13.9-.4-17.6-1.2-7.3-1.7-11.6-2.7-15.9-9.1-.3-3.1,0-7.3,0-10.6-14.2-8.2-19.6-24.7-7.2-37.9C2757.1,0,2766.9.7,2775.4.8c.2-9.1.6-16,9.1-21h0ZM2760.2,34.9c1.9-4.4,7.3-16.3-.7-17.4-5,5.5-5.4,12.3.7,17.4ZM2815.7,33.5c3.5-5,6.5-13.9-1.7-16.1-4,3.5-1.9,12.8.4,16.8.9-.2.5,0,1.3-.8h0Z"/>
  <path d="M2784,92.8c13.9-1.7,15,10.3,14.8,20.9,10.8-.9,20.4-1.7,27.6,8.4,3.7,5.3,5.2,11.8,4,18.2-1.6,8.7-7.2,12.4-13.8,17.1l.2,1.5c.5,4.7,1,7.9-2.3,12-4,5-16.1,6.4-22.3,6.8-3.5.1-6.9,0-10.4,0-6.7-.4-17.5-2.1-22.1-7.5-3.1-3.6-2.1-8.3-1.8-12.8-14.4-8-19.5-25.4-7.3-38.3,6.4-6.8,16.1-6,24.7-5.8-.1-8.8.5-15.6,8.6-20.5h.1ZM2760.3,147.5c1.7-4.7,4.5-10.9,3.1-15.6-1.4-1.7-1.8-1.8-3.9-2-5,5.5-5.1,12.7.9,17.6h-.1ZM2815.8,145.9c3.5-4.9,6.5-14.6-2-16-3.7,3.5-1.8,13.1.6,16.9,1.1-.2.5,0,1.4-.9Z"/>
  <path d="M2377.4-20.2c14.3-.6,14.4,11.3,14.7,22.1,10.7-2.4,21.6-1,28.2,8.8,3.3,4.9,4.5,11,3.2,16.8-1.7,8.1-7.2,12.8-13.7,17,.2,5,.8,9.6-2.6,13.7-4.8,5.8-17,6.4-24.2,7.2-4.6.7-15-.5-19.5-1.9-6.3-2-9.4-3.8-12.5-9.5-.1-3.5-.1-5.9.3-9.4-13.7-8.5-20.3-22.9-8.1-37.4,6.2-7.3,16.8-6.7,25.7-6.5,0-9.5-.8-15.9,8.5-21.1v.2ZM2353.4,34.9c1.7-5.3,7-16.1-1.3-17.4-4.4,5-4.8,14,1.3,17.4ZM2409.1,33.1c2.9-4.9,5.7-15.5-3-15.5-2.3,3-2,2.8-1.5,7,.2,2.4,1.5,8,3.3,9.4l1.3-.8h-.1Z"/>
  <path d="M2377.3,92.8h2.2c11.9,0,12.4,12.4,12.5,21.1,10.9-1.1,21.5-.9,28.4,9.3,3.2,4.8,4.4,10.8,3.2,16.5-1.7,8.4-7.3,13.1-13.9,17.6.3,4.1.4,6.1.2,10.2-5.3,8.8-16.6,9.6-26,10.3-11.2.3-26,.6-32.8-10-.3-4.1-.2-6.7.2-10.8-8.9-4.3-14.7-12-14.4-22.2.1-5.9,2.6-11.5,7-15.5,7.6-7,15.8-6.3,25.1-6-.6-8.6-.1-16.1,8.3-20.5h0ZM2353.5,147.9c1.1-3.8,4.5-13.1,2.3-16.4-.5-.7-1.8-1.5-2.6-2-6.8,5.6-5.4,12.4.3,18.3h0ZM2408.8,146c3.4-5,6.2-15.2-2.5-16.1-1.5,1.5-2,2-2,4.3s1.4,9.6,3.3,12.2c1.1-.2.7,0,1.3-.5h-.1Z"/>
  <path class="st10" d="M2421.5-146.7c34.7.5,70.7,0,105.5,0h218.4c-.2,11.6,0,23.7,0,35.3-8.1-.4-17.1-.3-25.3-.3.1,2.8.1,5.9,0,8.7-.2,15.8.3,31.7-.1,47.4-7.3-3.7-16.9-8.1-24.4-11.3-7.3,2.9-16.9,7.9-24.4,11.2.2-16,0-32.5,0-48.6v-7.5c-20.3-.6-42.2,0-62.8,0,0,18,.5,38.5-.2,56.3-6.6-3.5-17.7-8.5-24.5-11.4l-24.6,11.4v-56.2c-7.1-.3-15.9,0-23,0h-40v56.1c-4.9-2.7-19.2-9.1-24.5-11.1l-24.6,11.6c-.6-17.6-.2-38.6,0-56.4-8.1-.3-17.1,0-25.2,0-.3-11.5-.1-23.7-.2-35.3h0Z"/>
  <path d="M660.5-998.6c-1.6-11-6-19.2-3.8-31,1.7-8.6,9.5-18.1,16.1-7.1,5.6,9.2,2.8,22.4.3,32.4-.7,2.7-1.5,5.6-2.1,8.3,1.5-3,3.1-6,4.7-8.9.4-.3,1.8-2.1,2.2-2.6,3.9-4.5,5.3-6.4,11-8.6,13.1-5,23.3,6.4,16.7,18.7-3,5.7-8,8.1-14.3,9.9l-1-3c-4-11.3-18,7-14.8,13.5,4.2,2.6,14-3.9,16.6.7,2.3,4.2-.4,10.9-5.3,12.5-5.8,1.9-8.3,1.2-13.8-.8,4.2,21.9-18.5,22.2-12.1-.8-3.9,1.7-4.6,2-8.8,3.1-5.4-1.4-11.9-4.4-11.6-11.9.3-6.9,13.4-.2,17-2.6,3.1-4.8-1.4-11.1-4.6-14.1-6.3-6-7.1-2.6-10.1,1.6-3,4.1-12-3.6-13.9-6.5-2.2-3.2-3.5-7.8-2.5-12.1.8-3.3,2.9-6.1,5.9-7.7,3.4-1.8,7.7-1.8,11.3-.6,9,2.8,12.7,10.3,16.7,17.8l.2-.2Z"/>
  <path class="st6" d="M-478.1-1426.3c3.4,3.9,11.4,19.4,15.2,25.4,11.1,17.7,23.7,34.5,37.6,50,8.6,9.7,17.9,18.7,27.9,27,5,4.2,23.7,16.6,25.8,19.7.9,5.7-5,7.8-9.6,8.5-22.3,3.4-47.8-6.3-65.9-18.6,21.3,32.6,50.5,59.3,85,77.6,6.2,3.2,24,9.9,26.9,12.8,1.9,7.7-14.5,11.4-19.9,12.4-25.4,4.9-53.9-4.4-75.2-18.2,22.1,34.4,61.6,67.2,97.7,85.8,10.8,5.7,22.2,10.2,33.4,14.9,17.6,7.4-11.8,16.3-17.6,17.5-36.8,7.7-70.5-3.3-101.5-22.7,6.2,9.5,14.8,17.9,22.5,26.1,32.9,35.2,74.2,61.7,120.1,76.4,26.3,8.4-5.1,16.8-14.5,19.6-59.8,14.8-124.9-6.5-169.9-46.6.5,5.2.9,10.9.9,16.1.4,31.6,4.5,63.7,5.7,95.2,14.7,13.5,33.2,33.7,47.4,48.4l26.9-28.4c8.6-9,18.1-21.9,31.1-22.9,14.6-1.1,21.5,9.4,30.5,18.6,24.9,25.6,49,51.9,73.5,77.8,23,24,45.8,48.1,68.5,72.5,9.6,10.3,19.6,20.3,28.9,30.9,4.3,4.6,4.4,12.7-.1,17.2-5.9,6-16.2,5.5-24,5.4h-73.5c-3.6,0-9.4-.4-12.6-2.5-6.7-5-13-11.9-18.8-17.9l-26.3-27.8c-26.2-28.1-52.6-55.9-79.4-83.3l-.3.4c7.9,11.7,19.2,25.7,28,37.2,16.2,21,32.2,42.1,48.2,63.3,6.2,8.3,15.2,19.3,20.1,28.3,4.2,7.7-11.6,13.6-17.2,15.2-66.1,18.3-137,19.6-205.2,18.2-47.2-1-96-4.4-141.9-16.7-33.8-9.1-21.7-17.1-6.5-38.3,19.8-27.5,40.6-55,61-82.2,4.4-5.9,9.3-12.1,12.9-18.5-21.7,22-43.1,44.3-64.3,66.8-9.3,9.6-18.3,19.9-27.9,29.2-4,4.4-11,12-15.3,15.8-5.3,6.7-12.3,12.7-21.2,12.7-29.1,0-58.5.7-87.6-.2-10.8-.3-18.3-12.8-11-21.6,9.3-11,19.9-21.5,29.8-32.1l59-62.8,57.9-61.4c11.2-12,22.4-24.1,33.8-35.9,3.7-3.7,8.4-6.9,13.6-7.9,17.8-3.5,29.2,13.3,40.2,24.9l24.8,26.3c15.5-16.7,31.6-32.9,48-48.7l6.7-112c-5,4.4-10.2,8.8-15.7,12.9-48.4,35.7-117.3,52.1-174.1,27.6-3.6-1.6-7.8-6.9-4.8-8.6,7-3.9,22.2-8.7,29-11.4,6.3-2.5,12.5-5.3,18.6-8.3,39.3-19,78.4-52.2,105.1-86.8-33.6,20.4-73.8,33.4-112.7,19-4-1.5-9.9-4.2-11.6-8.3.2-4.1,4.5-6,8-7.3,52.7-19.2,95.8-54,128.8-99.1-4.6,2.7-9.3,5.3-14.1,7.6-22.8,10.9-47.8,16.6-72.3,7.7-3.1-.5-13.2-6.5-7.9-10.2,4.9-3.5,14-6.5,19.8-9.2,4.6-2.2,9.1-4.6,13.5-7.1,27.8-16,58.4-45,75.5-72.1-18.5,9.8-35.8,18.3-57.6,18.4-4.8,0-23.4-2.4-14.7-11.7,2.8-3,10.8-7.7,14.6-10.5,9.1-6.8,17.8-14.1,26-22,19.4-19,34.1-37.9,48.6-60.9,4.1-6.4,11.8-22,15.8-26.5h0Z"/>
  <path class="st7" d="M159.2,104.1v-41.7h-86.2v43.4c0,1.2,0,3.5,0,4.6,0,5.2,0,10.3,0,15.5,0,.4,0,.9.1,1.3,0,.6.1,1.2.2,1.8.2,1.7.5,3.5,1,5.2,2.8,10.8,9.6,20.3,18.9,26.4,3.3,2.1,6,3.5,9.6,5.1,1.2.5,2.4,1,3.7,1.4.6.2,1.6.6,2.1.8.1,0,.2,0,.3,0h14.3c.3,0,.5-.2.8-.3,1.4-.6,3.1-1.1,4.7-1.8,1.2-.5,2.3-1,3.4-1.5.8-.4,1.7-.8,2.5-1.2,4.3-2.5,7.3-4.3,10.9-7.9,5.9-5.8,10.1-12.6,12.2-20.6.9-3.3,1.4-6.7,1.5-10.1,0-2.5,0-5.2,0-7.8v-12.7ZM146.3,69.4c1.6-1,2.9.7,3.1,2.2,0,.4.2,1.3.3,1.5.2,0,.1,0,.3,0,.3-.5,0-2.2-.2-2.7-1.2-2.2-1.2-3.5.5-5.5.4.2.9.9,1.1,1.3.9,1.8.1,2.9-.5,4.6-.2.5-.4,1.9-.1,2.4.2.1,0,0,.4.1.4-.4.2-2.7,1.3-3.5,2.1-1.5,3.9,1.1,1.9,2.8,0,0,0-.1,0-.2-.2-.4-.3-.7-.8-.9-.8-.4-1.9.8-1.5,1.6.2.3.4.4.6.7h0c-.5.4-1.2.4-1.8.4.4.4.8.9,1.3,1h0c.2,0,.4,0,.5.2,0,.2-.3.4-.4.5-.3.2-.5.2-.8.1-.5.2-.4,1.2-.9,1.3-.2-.1-.2-.1-.3-.3-.1-.4-.2-.7-.4-1.2-.9.4-1.2.2-1.8-.6.6,0,1.1,0,1.5-.4.2-.2.6-.5.6-.8-.4-.2-1.2.3-1.5-.2,0-.2.4-.6.5-.8.3-.8-.3-1.3-1-1.6h0c-1,.2-1,.4-1.4,1.3-1.2-.8-1.4-2.4-.3-3.1ZM135.8,69.2c1.4.1,2,1.9,2,3.1,0,.2,0,.7.2.9.2,0,0,0,.3,0,.5-.7-.2-2.9-.5-3.6-.9-1.7-.3-3.3.9-4.7.4.1.7.7.9.9,1.7,2.3-.3,3.8-.5,6.1,0,.4-.1,1.2.3,1.4.1,0,.3,0,.3-.2.2-1.2.1-2.5,1.2-3.4.4-.3.9-.5,1.4-.4,1.6.2,1.8,2.3.3,3.3h0c-.2-.8-.5-1.4-1.4-1.1-.4.1-.7.5-.8.8-.5.9.4,1,.6,1.4-.1.5-1.2.5-1.7.5.7.9,1,1,2,1.2-.3.5-.5.6-1,.8l-.7-.2c-.2.6-.3,1-.7,1.4h0c-.3-.3-.5-1-.7-1.5-.2,0-.4.1-.5.1-.4,0-1-.3-1.1-.7.2,0,.4-.1.6-.2.4,0,1.3-.7,1.2-1.2-.5,0-1.4.4-1.5-.3,0-.3.4-.4.5-.6.4-.9-.8-2.1-1.7-1.7-.5.2-.6.7-.7,1.2-1.5-1.2-1.1-3.5,1-3.3ZM90.3,69.2c2-.1,2.5,2.1,2.6,3.6,0,.2,0,.2.1.3.2,0,.2,0,.4-.1.7-1-.9-3.8-1-4.8-.1-1.3.6-2.5,1.4-3.3h0c.5.1.9,1.1,1.1,1.4,1.2,2-.5,3.6-.8,5.5,0,.4-.2,1.1.1,1.4.2,0,.2,0,.4,0,0-.1,0-.1,0-.3,0-1.4.6-3.8,2.4-3.7.4,0,.8.3,1.1.6.6.8.3,1.9-.4,2.5-.5,0-.4-.7-.8-.9-.6-.3-1.3.2-1.6.7-.4.8.2,1.1.4,1.6h0c-.4.3-1.2.3-1.7.4.4.5,1,1.1,1.7,1.1s.1,0,.2,0c-.1.8-.9.6-1.4.8-.3.1-.3,1.2-.8,1.2-.2-.1-.2-.3-.4-.5-.1-.3-.2-.7-.3-1-.2.1-.4.2-.7.3-.6-.3-.8-.4-1.1-.9h.2c.7,0,1.9-.4,1.9-1.2h0c-.4.1-1.3.3-1.5-.3,0-.3.5-.4.5-.7.2-.6-.3-1.4-.8-1.6-.3-.1-.6,0-.9,0-.5.2-.6.6-.8,1.1-.5-.4-.9-.7-1-1.3-.2-1,.5-1.9,1.4-2ZM112,69.2c2-.1,2.5,2.1,2.6,3.6,0,.2,0,.2.1.3.2,0,.2,0,.4-.1.7-1-.9-3.8-1-4.8-.1-1.3.6-2.5,1.4-3.3h0c.5.1.9,1.1,1.1,1.4,1.2,2-.5,3.6-.8,5.5,0,.4-.2,1.1.1,1.4.2,0,.2,0,.4,0,0-.1,0-.1,0-.3,0-1.4.6-3.8,2.4-3.7.4,0,.8.3,1.1.6.6.8.3,1.9-.4,2.5-.5,0-.4-.7-.8-.9-.6-.3-1.3.2-1.6.7-.4.8.2,1.1.4,1.6h0c-.4.3-1.2.3-1.7.4.4.5,1,1.1,1.7,1.1s.1,0,.2,0c-.1.8-.9.6-1.4.8-.3.1-.3,1.2-.8,1.2-.2-.1-.2-.3-.4-.5-.1-.3-.2-.7-.3-1-.2.1-.4.2-.7.3-.6-.3-.8-.4-1.1-.9h.2c.7,0,1.9-.4,1.9-1.2h0c-.4.1-1.3.3-1.5-.3,0-.3.5-.4.5-.7.2-.6-.3-1.4-.8-1.6-.3-.1-.6,0-.9,0-.5.2-.6.6-.8,1.1-.5-.4-.9-.7-1-1.3-.2-1,.5-1.9,1.4-2ZM78.1,69.3c1.9-.7,3,1.2,3,2.8,0,.3,0,.8.1,1,1.1.5.3-2.5.2-2.8-1.2-2.2-1-3.5.6-5.4.3,0,.6.5.8.8.9,1.2.9,2.6.3,3.9-.3.6-1.3,3.5-.2,3.6.2-.2.3-1.4.3-1.8.3-2.4,3.7-3.1,3.8-.3,0,.3-.5,1.4-1,1.3-.4-.4-.5-1.1-1-1.1-.7,0-1.3.5-1.4,1.2,0,.4.4.8.6,1.1,0,.5-1.3.5-1.6.5h0c.7.9,1,1.1,2,1.1-.4.5-.5.6-1.1.9-.2,0-.4-.1-.7-.2h0c-.2.5-.3,1.1-.7,1.4-.4-.4-.5-.8-.6-1.4-.2,0-.4.1-.6.2-.6-.2-.7-.3-1-.8h.2c.1,0,.3,0,.4,0,.4,0,1.4-.7,1.3-1.2-.3-.2-1.3.4-1.6-.2,0-.6.8-.5.5-1.2-.1-.4-.3-.9-.8-1.1-.3-.1-.6-.1-.9,0-.6.2-.7.7-.9,1.2-.3-.2-.5-.4-.7-.8-.5-.7-.1-2.1.7-2.4ZM75.5,79.6h81.3c0,2.3,0,4.8,0,7v18.1c-3.1.1-7,0-10.1,0h-71.3v-2.5c0-5.5,0-17,0-22.6ZM93.5,150.2c-1.1.8-2.8,1.7-4.1,2.5h0c0-.4,2-3.3,2.3-3.7.5-.8,1.3-1.7,1.9-2.4.2.5,0,2.9,0,3.6h0ZM114.8,149.3c-.6.9-2,2.2-2.7,3.1-1.3,1.6-2.6,3.8-3.4,5.7.6-.1,1.5-.7,2.1-.9.7-.3,1.3-.6,2-.9-.4.7-.8,1.2-1.2,1.8-1.6,2.7-4,3.9-6.7,5.4,0,0-.1,0-.2,0-.5.1-5.1-2.3-5.7-2.7.4-.3,1.4-1.3,1.8-1.7,1.3-1.2,2.5-2.5,3.7-3.7,3.4-3.4,6.9-6.8,10.3-10.3.2.3.1,3.5,0,4.1ZM114.5,108.6c-1.1,2.2-3.4,4.7-5.5,6.2-.9.6-1.9.9-2.8,1.4-.1,0-.1.1,0,.3.8,1.1,2.9.8,4,.6,1.2-.4,1.8-.7,2.8-1.2-.7,1.1-1.7,2.2-2.6,3-1.7,1.5-3.6,2.8-5.9,3.3-.5.1-1.3.1-1.5.5,0,.3.4.5.6.7,1.4.9,3.3,1,4.9.6.2,0,.4,0,.6-.1.5-.2,1.1-.4,1.6-.6.3-.1,1.2-.6,1.4-.7,0,.4-2,2.4-2.5,2.8-2.2,2.2-5.1,4.1-8.2,4.6-.4,0-1.1.1-1.3.5,0,.2,0,.3.2.4,1.2.9,3,1.2,4.5,1.1.8,0,1.6-.3,2.3-.5l.8-.2c0,0-.2.3-.2.4l-.2.5c1.7-.1,3.4-1.4,4.7-2.3-1,1.4-2.7,2.9-4.1,3.9-2.4,1.7-5.3,3.5-8.3,4-.6.1-1.9.1-2.1.6,0,.7,1.3,1.1,1.8,1.2,1.6.6,2.9.5,4.6.2-.2.2-.4.4-.4.6h0c1.5.6,3.6-.8,4.9-1.5-.1.3-.3.7-.2,1,.5.5,3.1-1.2,3.6-1.6.8-.6,1.6-1.4,2.2-1.8,0,.6,0,2.5-.1,3,0,1.2-.2,2.4-.2,3.6-.6.6-1.4,1.3-2,1.9-2.4,2.2-4.7,4.6-7.1,6.7-.6-.8-2.7-2.8-3.4-3.5l-3.2-3.2c-.7-.7-1.3-1.4-2.1-2-.6-.6-1.1-.7-1.8-.1-.8.6-1.4,1.3-2.1,2l-3.9,3.9c-.6.6-1.4,1.5-2.1,2-1-1.1-1.9-2-2.7-3.3-1.6-2.3-3-4.7-4.1-7.3-2-4.4-3.2-9.2-3.5-14-.2-2.6-.2-5.2-.2-7.8v-11.2c1.8,0,3.7,0,5.5,0h20.9c1.8,0,3.6,0,5.4,0,2.5,0,5.7,0,8.2,0-.1.3-.8,1.4-.9,1.5ZM135.8,159.6c-.6-.6-1.3-1.3-2-1.9-1.5-1.4-3.1-2.9-4.6-4.2h0c.4-.6,1.6-1.9,2-2.5,1.3-1.6,2.7-3.2,4.1-4.8.3.2-.5,4.1-.5,4.8.4.8,1.2,1.3,1.8,1.9-.4,2.5-.9,3.4.3,5.8-.4.3-.8.6-1.2.8ZM156.8,125.3c-.3,6.2-2,12.3-5,17.8-.5,1-2.9,4.9-3.7,5.6-.4.6-1.3,1.6-1.8,2.1-2-2-4.6-4.3-6.5-6.4-.7-.4-2.1-2.4-3.1-2.4s-1.7,1.1-2.3,1.7c-.5.6-1.9,2-2.6,2.6-1.6,1.7-3.3,3.4-4.9,5.1-.7-.7-1.4-1.3-2.1-2-1.1-1.1-2.3-2.2-3.5-3.3-.6-.5-2.2-2-2.6-2.5-.2-1.3-.3-2.8-.4-4.1,0-.9-.2-2.2-.1-3.1.4.3.9.8,1.4,1.2,1,.9,2.2,1.7,3.5,2.1.4.1,1,.3,1.3.2.2-.4-.3-.8-.3-1.2,0,0,.2,0,.3,0,.8.5,1.5.8,2.5,1,1.3.4,2.4.4,3.7.2.7-.1,4.1-.9,3.8-2-.1-.1-.2-.2-.4-.2-1.3-.2-2.4-.4-3.6-.9-2.4-.8-5.1-2.5-7.1-4-1.5-1.2-2.2-2-3.4-3.3.5.2,1.1.7,1.6,1,1.1.7,1.8.9,2.9,1.3.4,0,1.3.3,1.6,0,0-.2,0-.2,0-.4.1-.1,1,0,1.2.1.7.2,1.3.2,2,.1.7,0,2.8-.5,3-1.3,0-.1-.1-.3-.3-.3-1.1-.3-2.2-.4-3.3-1-.9-.3-2.6-1.3-3.4-1.8-1.8-1.2-4.3-3.4-5.6-5.2,1.6,1.1,3,1.7,4.9,1.9.8,0,1.5,0,2.3-.2.3,0,.5-.2.8-.3.4-.1,1.5-.6,1.3-1.1-.4-.4-1.6-.5-2.3-.8h0c-.9-.3-2.1-1-2.8-1.5-1.4-1-3.8-3-4.7-4.6,2,1,2.5,1.3,4.8,1.5.4,0,.6,0,1-.1h0c2-.5.6-1.2-.4-1.6-2.7-1.4-4.6-3.6-6.3-6.1-.5-.7-.8-1.5-1.3-2.2h5.9c1.3,0,2.7,0,3.9,0,2.7,0,5.4,0,8.1,0h14.8c2.3,0,4.8,0,7.1,0,0,3.7,0,7.3,0,10.9s0,4.9,0,7.3Z"/>
  <g>
    <path class="st1" d="M93.6,92.3c0,0,0,.2,0,.2,0,.3,0,.5,0,.8,0,0,0,.1,0,.2,0,.2,0,.4,0,.6,0,.2,0,.4,0,.5s0,0,0,0c0,.3-.2.5-.2.9,0,.1,0,.2,0,.4,0,.1,0,.2-.1.4v.4c-.1.1-.2.2-.2.3s0,.2,0,.3c0,.1-.1.3-.2.4,0,0,0,.2-.1.2,0,.1-.1.2-.2.4-.2.3-.3.6-.5.9,0,.1-.2.3-.3.4-.2.3-.5.5-.8.8-.2.2-.4.3-.7.4-.2.1-.4.2-.6.4,0,0,0,0,0,0-.2,0-.3,0-.4.1-.4,0-.7.1-1,.2-.2,0-.5,0-.7,0-.1,0-.2,0-.4,0-.2,0-.5,0-.7,0h-.5c-.3,0-.5,0-.8,0h-.9s0,0-.1,0c0,0-.2,0-.3,0-.3,0-.5,0-.8,0-.2,0-.3,0-.5,0h-.7c-.1,0-.2,0-.4,0,0,0-.2,0-.3,0,0,0,0,0-.1,0,0,0-.1,0,0-.1s0,0,0,0c0-.2.2-.3.2-.4s.1-.3.1-.5c0,0,0-.2.1-.3s0-.2,0-.4c0-.3,0-.5,0-.8,0-.1,0-.2,0-.3,0,0,0-.2,0-.3,0-.2,0-.4,0-.5,0-.1,0-.3,0-.4,0,0,0-.1,0-.2s0-.2,0-.2c0-.3,0-.7,0-1,0-.3,0-.5,0-.8s0-.2,0-.4c0-.2,0-.4,0-.6,0-.2,0-.3,0-.5s0-.3,0-.5c0,0,0-.2,0-.2,0,0,0-.2,0-.3,0,0,0,0,0,0,0-.1,0-.2,0-.4s0-.2,0-.3c0,0,0,0,0-.1,0-.2,0-.5,0-.7,0-.2,0-.4,0-.6s0-.2,0-.2c0,0,0,0,0-.1,0-.1,0-.2,0-.4v-.6c0-.3,0-.6,0-.9,0-.2,0-.4,0-.6,0-.2,0-.5,0-.7,0-.1,0-.2,0-.3s0-.2,0-.3v-.6c0,0,0-.1,0-.2s0-.2,0-.2v-.2c0-.2-.1-.4-.2-.5l-.2-.4c0,0,0-.2-.2-.2,0,0,0-.1,0-.2,0,0,0-.1.1-.1.1,0,.3,0,.4,0,.5,0,1,0,1.6,0h.2c.4,0,1.2,0,1.8,0,.3,0,.6,0,1,0,.3,0,.6,0,1,0,.3,0,.6,0,.9,0,.2,0,.4,0,.6.1.2,0,.4,0,.5.1.2,0,.5.1.7.2h.3c.2.2.4.4.5.5.2.1.3.2.5.4,0,0,.2,0,.2.2,0,0,.1.1.2.2.2.1.3.2.4.4.2.2.4.5.6.8.2.3.4.6.5.9v.2c.2.2.2.4.3.6,0,.2.2.4.2.7v.2c.1.2.2.3.2.5s0,0,0,.1c0,.1,0,.2,0,.4,0,0,0,0,0,.1,0,.2,0,.4,0,.6s0,.3,0,.4c0,.2,0,.4,0,.5s0,.3,0,.5ZM89.5,93c0-.1,0-.2,0-.3,0-.1,0-.2,0-.4,0-.4,0-.7,0-1.1,0,0,0-.1,0-.2,0,0,0,0,0-.1,0-.1,0-.2,0-.4,0-.1-.1-.2-.1-.4,0-.1,0-.2,0-.3,0-.2-.1-.4-.2-.6,0-.2-.2-.5-.4-.7-.1-.2-.3-.5-.6-.6-.1,0-.2-.2-.4-.3-.2,0-.4-.1-.5-.2-.2,0-.4-.1-.6-.2h-.2c-.2,0-.4,0-.5,0,0,0-.1,0-.1,0,0,.1,0,.2,0,.3,0,0,0,.1,0,.2,0,.1,0,.3,0,.4s0,.2,0,.4c0,.1,0,.3,0,.4,0,.1,0,.2,0,.4,0,.2,0,.3,0,.4,0,0,0,.1,0,.2,0,0,0,0,0,.1,0,.2,0,.4,0,.7,0,.4,0,.7,0,1.1s0,.4,0,.5v.5c0,.1,0,.3,0,.4,0,.2,0,.5,0,.7,0,0,0,0,0,.1,0,.2,0,.4,0,.6,0,.1,0,.2,0,.4,0,0,0,.2,0,.2,0,.5,0,.9,0,1.3h0c0,.4,0,.6,0,.9,0,.2,0,.3,0,.4s0,0,0,.1c0,0,.3,0,.4,0,.1,0,.3,0,.4,0,.2,0,.3,0,.5,0,.2,0,.3,0,.6,0l.4-.2c.2,0,.3-.2.4-.3,0,0,.1,0,.2-.1,0,0,0,0,.1-.2l.2-.2c0,0,0,0,0-.2,0-.2.1-.3.2-.4,0,0,0-.1,0-.2,0,0,0,0,0-.1,0-.2.1-.4.2-.5.1-.2.2-.4.2-.7,0-.3,0-.6,0-.9,0-.1,0-.3,0-.4,0-.2,0-.3,0-.5Z"/>
    <path class="st1" d="M103.7,98.6v.3s0,0,0,0c0,.2,0,.3-.1.5,0,0,0,0,0,0,0,.1,0,.3-.1.4,0,.1,0,.2,0,.3,0,.1,0,.2,0,.4h0c0,.2,0,.3,0,.4,0,0,0,.2,0,.2,0,0,0,.1,0,.2,0,0,0,0,0,0,0,.2,0,.3-.1.4,0,0,0,0-.1,0h0c0,0-.1,0-.2,0,0,0-.1,0-.2,0,0,0-.2,0-.3,0h0c0,0-.1,0-.2,0,0,0-.1,0-.2,0-.1,0-.2,0-.3,0h-.3s-.1,0-.2,0h-.2c-.6,0-1.1,0-1.7,0h-.1c-.3,0-.6,0-.9,0s-.4,0-.6,0c-.3,0-.6,0-.8,0-.2,0-.3,0-.5,0h-.5c0,0-.1,0-.2,0,0,0,0,0,0,0,0,0,0,0,0-.1h0c0,0,0-.1.1-.2.2-.1.2-.3.3-.5,0,0,0-.2,0-.2,0,0,0,0,0,0,0-.2,0-.3,0-.5,0,0,0-.1,0-.2,0,0,0,0,0,0,0,0,0-.1,0-.2,0,0,0-.2,0-.3,0,0,0-.2,0-.2s0-.2,0-.2c0,0,0-.1,0-.2,0-.2,0-.4,0-.8,0-.1,0-.3,0-.4,0,0,0-.2,0-.3,0-.4,0-.7,0-1.1s0-.7,0-1c0-.1,0-.2,0-.4v-.3c0-.2,0-.4,0-.6,0-.1,0-.3,0-.4,0-.3,0-.4,0-.5v-.8c0-.3,0-.6,0-.9,0,0,0,0,0-.1,0,0,0-.2,0-.2,0-.1,0-.2,0-.3,0,0,0-.2,0-.2,0-.1,0-.3-.1-.4,0,0,0-.1-.1-.2,0,0-.2-.2-.2-.2,0,0,0,0,0,0,0,0,0,0,0,0,0,0,0,0,0,0,0,0,.1,0,.2,0,0,0,.1,0,.2,0h.6s0,0,.1,0h1.3s0,0,0,0c.4,0,.7,0,1.1,0,.4,0,.7,0,1.1,0,0,0,.1,0,.2,0,.2,0,.2,0,.4,0h.6c.1,0,.3,0,.4,0,0,0,.1,0,.2,0,0,0,.2,0,.2,0,0,0,0,0,0,0,.2,0,.3,0,.5,0,0,0,.2,0,.2,0,0,0,0,0,.1,0,0,0,0,0,0,.1,0,.2,0,.4,0,.6,0,.2,0,.5,0,.7,0,.2,0,.4,0,.6,0,0,0,.1,0,.2,0,0,0,.2,0,.2,0,0,0,.1,0,.2,0,0,0,0,0,.2,0,0,0,.1,0,.2,0,0,0,.2,0,.2,0,0,0,.2,0,.2,0,0,0,0,0,.1s0,0,0,0c0,0,0,0,0,0h0c0,0,0-.1,0-.1h-.2c0-.2-.1-.2-.2-.3,0,0-.1,0-.2,0h-.2c-.1,0-.2-.1-.4-.1,0,0-.1,0-.2,0h-.2c0,0-.2,0-.2,0-.1,0-.2,0-.3,0h0c-.2,0-.3,0-.4,0-.3,0-.6,0-.9,0s-.2,0-.3,0c0,0-.2,0-.2,0s-.2,0-.3,0h0s0,0,0,0c0,0,0,0,0,0,0,.2,0,.2,0,.6v.2c0,0,0,0,0,.4v.4c0,.1,0,.2,0,.3v.5s0,0,.1,0,0,0,0,0h0c.4,0,.8,0,1.2,0s.4,0,.7,0h.3c0,0,.2,0,.2,0,.1,0,.2,0,.3,0,.1,0,.2,0,.3-.2,0,0,0,0,.1,0,0,0,.1,0,.1,0,0,.3,0,.7,0,1v.6c0,.1,0,.3,0,.4,0,.1,0,.2,0,.3,0,0,0,.2,0,.2,0,0,0,.2,0,.3,0,0,0,.1,0,.2,0,0,0,0,0,0,0,0,0,0-.1,0h0c0,0,0-.1,0-.1,0,0-.2,0-.2-.1,0,0-.1,0-.2,0-.2,0-.4,0-.5,0-.2,0-.4,0-.6,0-.2,0-.3,0-.5,0h-.2c-.1,0-.2,0-.3,0-.2,0-.3,0-.4,0,0,0,0,0,0,.1,0,.2,0,.3,0,.5,0,.2,0,.4,0,.6v.7s0,.1,0,.2c0,.2,0,.3,0,.5,0,0,0,0,0,0,0,0,0,0,0,0,.1,0,.3,0,.4,0h.5c0,0,.1,0,.2,0,0,0,0,0,.1,0h.3s0,0,0,0c0,0,.2,0,.3,0,.2,0,.4,0,.6,0,.1,0,.3,0,.4,0,0,0,0,0,0,0,.1,0,.2,0,.3,0,.2,0,.3,0,.5-.1,0,0,.2,0,.2,0h.2c0-.1.1-.2.2-.2h.2c0-.2,0-.2,0-.2,0,0,0,0,0,0,0,0,.1,0,.2.2Z"/>
    <path class="st1" d="M125.4,101.6s0,0,0,0c0,0,0,0-.1,0,0,0-.2,0-.3,0-.1,0-.2,0-.3,0-.4,0-.9,0-1.4,0s-.6,0-.7,0c0,0,0,0,0,0h0c-.4,0-.5,0-.6,0-.4,0-.7,0-1.1,0s-.7,0-.9,0h-.2s0,0,0,0c0,0,0,0,0-.1h0c.1-.2.2-.4.3-.5s0-.2.1-.2c0-.1.1-.3.1-.4v-.4c0-.1.1-.2.1-.4v-.4c0-.1,0-.2,0-.4,0,0,0-.2,0-.2,0-.2,0-.5,0-.8,0-.4,0-.7,0-1.1,0-.2,0-.4,0-.6v-.3c0-.2,0-.4,0-.6,0-.3,0-.6,0-.9,0-.2,0-.4,0-.7,0-.1,0-.2,0-.4,0-.4,0-.8,0-1.2v-.4c0-.2,0-.4,0-.6,0-.2,0-.4,0-.6,0,0,0,0,0,0,0-.2,0-1.6,0-1.8h0c0,.1-.2,1.4-.2,1.5,0,.4-.2,1.2-.3,1.6-.1.5-.3,1-.3,1.2,0,.2,0,.4-.1.5,0,.2-.2.4-.2.6,0,.3-.1.5-.2.8,0,.3-.2.6-.2.9,0,0,0,0,0,.1,0,.2,0,.4-.2.6,0,.2,0,.3-.2.4,0,.2-.1.4-.2.6,0,.2,0,.4-.2.5,0,.2-.1.3-.2.5,0,.1,0,.2,0,.3s0,.1,0,.2c0,.2,0,.4,0,.5,0,.2-.1.4-.2.6,0,0-.2.9-.2,1,0,0-.2.4-.3.4-.2,0-.5,0-.7,0h-1.4c-.3,0-.4,0-.6,0h-.2c-.3,0-.6,0-1,0v-.2c-.2-.2-.4-1.5-.4-1.7,0-.2,0-.3-.1-.5,0,0,0-.2,0-.2,0-.2-.2-.6-.2-.8,0-.3-.1-.5-.2-.8h0c0-.2,0-.3,0-.5,0,0,0-.2-.1-.3,0,0,0,0,0-.1,0-.2,0-.4-.1-.6s0-.3-.1-.4c0-.1,0-.3-.1-.4,0-.4-.1-.6-.2-.9,0-.2,0-.2,0-.4,0-.1,0-.2,0-.2,0-.2-.2-1-.3-1.5,0,0-.4-1.8-.4-1.8,0-.5-.2-.8-.3-1.6,0,0,0,0,0,0v2.1h0c0,.4,0,.6,0,.8v.3c0,.4,0,.9,0,1.3v.5c0,.2,0,.4,0,.5v.4c0,.3,0,.5,0,.8v.4s0,.1,0,.2c0,.3,0,.5,0,.8s0,.3,0,.4c0,0,0,.2,0,.2,0,.2,0,.3,0,.4,0,.2,0,.4,0,.6v.6c0,.2,0,.4,0,.5,0,0,0,.1,0,.2,0,.1,0,.3,0,.4,0,.2,0,.4.2.6,0,0,0,.2,0,.2,0,.1.1.3.2.4,0,.1.2.2.3.3s0,0,0,0c0,0,0,0,0,0,0,0,0,0,0,0,0,0-.1,0-.2,0h-.2c0,0-.1,0-.2,0,0,0,0,0-.2,0-.2,0-.3,0-.5,0-.3,0-.6,0-.9,0h-.3c-.3,0-.1,0-.3,0h-.2s-.1,0-.2,0h-.5c0,0-.1,0-.2,0-.3,0-.6,0-.9,0-.2,0-.5,0-.7,0,0,0-.2,0-.3,0,0,0-.2,0-.2,0s0,0,0,0c0,0,0,0,0-.1h0c0,0,0-.1,0-.1,0,0,.1,0,.2,0,0,0,0-.1.1-.2.1,0,.2-.2.2-.4.1-.2.2-.4.3-.7,0-.2.1-.4.1-.6,0-.1,0-.3,0-.4,0-.4,0-.8,0-1.3s0-.3,0-.5c0-.1,0-.2,0-.3,0,0,0-.2,0-.3h0c0-.2,0-.3,0-.4v-.3c0,0,0-.2,0-.3v-1.1c0-.2,0-.3,0-.5,0-.2,0-.3,0-.5,0-.7,0-1.3,0-2,0,0,0-.1,0-.2v-1.4c0-.2,0-.5,0-.7,0-.2,0-.4,0-.5,0-.1,0-.2,0-.3,0,0,0,0,0-.1,0,0,0-.2,0-.2,0-.3,0-.6,0-.9,0,0,0-.2,0-.3v-.6c0-.2,0-.4,0-.5,0,0,0-.2,0-.2s0-.2,0-.3c0,0,0-.1,0-.2-.1-.3-.2-.6-.4-.9,0-.1-.2-.2-.2-.3,0,0,0,0-.1-.1,0,0,0-.1,0-.2s0,0,0,0c0,0,.2,0,.3,0,.3,0,.5,0,.8,0s.3,0,.4,0c0,0,.2,0,.2,0,0,0,.1,0,.2,0s.3,0,.4,0c.4,0,.8,0,1.2,0,0,0,0,0,0,0h.8c.2,0,.5,0,.7,0,.5,0,1.8,0,2.3,0,0,0,0,0,0,0,0,0,.1,0,.3,0,0,0,.1,0,.1.1,0,.1,0,.2,0,.4,0,0,0,.1,0,.2,0,.1,0,.2,0,.4,0,.1,0,.3,0,.4,0,0,0,.1,0,.2,0,.1,0,.2,0,.4h0q0,.1,0,.2v.3c0,.2.1.4.2.7,0,.1,0,.3.1.5,0,.1,0,.3.1.4v.7c.2.2.2.4.2.6.1.4.2,1,.3,1.5v.7c.2.3.3.6.4.9,0,.2,0,.2,0,.3,0,.3.1.6.2.9v.2c0,.2.1.3.2.4,0,0,0,.2,0,.3,0,.2.1.4.2.6,0,0,0,.2.1.4,0-.2,0-.3,0-.4l.4-2c0-.1,0-.2,0-.4,0-.1,0-.3.1-.4,0-.3,0-.5.2-.7,0-.1,0-.2,0-.4,0-.2,0-.4.1-.6l.2-.9c0-.3.1-.6.2-.9,0-.1,0-.2,0-.2,0-.3,0-.4.1-.6,0-.3.1-.6.2-.9,0,0,0-.1,0-.2,0-.2.1-.5.1-.7,0-.2,0-.4.1-.7,0,0,0,0,0-.2,0-.2,0-.5,0-.7-.1-.1,0-.3,0-.3,0-.2.2-.2.3-.2s.2,0,.3,0c.1,0,.1,0,.3,0,.1,0,.2,0,.4,0,.1,0,.3,0,.4,0,0,0,.2,0,.2,0h.2s.3,0,.4,0c.2,0,.3,0,.5,0,.1,0,.2,0,.4,0,.1,0,.2,0,.4,0,.2,0,.5,0,.7,0h0c.2,0,.4,0,.6,0,.5,0,1.4,0,2.1,0h.2s.1,0,.2,0c0,0,0,0,.1,0,.1,0,.2,0,.4.1,0,0,0,0,0,.1,0,0,0,0,0,0,0,0-.1,0-.2.2-.1.1-.2.2-.3.4,0,0,0,.1,0,.2,0,.2-.1.3-.2.5,0,.2,0,.3,0,.5,0,.1,0,.3,0,.4,0,.1,0,.2,0,.3,0,.5,0,1.1,0,1.6,0,0,0,.1,0,.2,0,.1,0,.2,0,.4,0,.5,0,1,0,1.4,0,.3,0,1.1,0,1.1,0,.2,0,1.5,0,1.5,0,.4,0,.7,0,1s0,.1,0,.2c0,.5,0,.9,0,1.4v1c0,.2,0,.4,0,.6,0,.4,0,.9,0,1.3,0,0,0,.1,0,.2,0,.2,0,.4,0,.6,0,.1,0,.2,0,.3,0,.3,0,.5.1.9,0,.2,0,.3.1.4,0,.2.2.4.3.5.1.1.2.2.4.3,0,0,0,.1,0,.2Z"/>
    <path class="st1" d="M137,101.4s0,0,0,0c0,0,0,0,0,0,0,0,0,0,0,0,0,0,0,0-.1,0,0,0-.2,0-.2,0h-.5c0,0-.1,0-.2,0,0,0,0,0-.1,0,0,0,0,0-.1,0q-.2,0-.4,0c0,0-.1,0-.2,0-.1,0-.2,0-.3,0-.3,0-.5,0-.8,0h-.2c-.2,0-.4,0-.6,0h-.1c0,0-.1,0-.1,0,0,0,0-.2,0-.2,0,0,.1-.2.1-.3,0,0,0-.1,0-.2,0-.1,0-.3,0-.4,0-.1,0-.2,0-.4,0,0,0,0,0,0,0,0,0,0,0,0h-.4c0,0-.2,0-.3,0h-.2c-.3,0-.5,0-.8,0h-.1c-.3,0-.5,0-.8,0s-.2,0-.2,0c0,0,0,0,0,0,0,0-.2,0-.2,0s0,0,0,0c0,.1,0,.2,0,.3,0,0,0,0,0,.1v.2c0,0,0,.2,0,.3,0,.2,0,.3.1.4,0,0,0,0,0,.1,0,0,0,0,0,0h0c0,0,0,0,0,0-.2,0-.3,0-.5,0s-.4,0-.6,0h0c0,0-.2,0-.3,0-.3,0-.6,0-.9,0s-.1,0-.2,0c0,0,0,0-.1,0,0,0-.2,0-.3,0,0,0-.2,0-.2,0h-.6s0,0-.1,0c0,0,0,0,0,0t0,0s0,0,0,0c0,0,.1,0,.2-.1,0,0,0,0,0-.1,0-.2.2-.4.3-.5,0-.2.1-.3.2-.5,0,0,0-.1,0-.2,0,0,0-.2,0-.3,0,0,0,0,0-.2,0-.1,0-.2,0-.3,0-.1,0-.2,0-.4,0-.1,0-.2,0-.4,0,0,0-.2,0-.3,0,0,0-.2,0-.3,0-.2,0-.4.2-.5,0-.2,0-.3,0-.4,0-.2.1-.3.1-.5,0-.1,0-.2,0-.3,0-.1,0-.2,0-.3,0,0,0-.1,0-.2v-.2c0,0,0-.2,0-.3v-.2c0-.1,0-.3.1-.4h0c0-.2,0-.3,0-.4,0-.1,0-.2,0-.3,0,0,0-.2,0-.3,0,0,0,0,0-.1,0,0,0-.1,0-.2,0,0,0,0,0-.1,0-.2,0-.4.1-.6,0,0,0-.2,0-.3,0-.1,0-.2,0-.3v-.2c0,0,0-.1,0-.2,0,0,0,0,0,0,0-.2,0-.4,0-.6,0,0,0-.1,0-.2,0-.3,0-.5,0-.8,0,0,0-.1,0-.2,0-.2,0-.4-.1-.5,0,0,0,0,0-.1,0,0,0,0,0,0,.4,0,.7,0,1,0,.2,0,.4,0,.6,0h.1c.3,0,.6,0,.9,0h.6c.2,0,.4,0,.6,0,0,0,.1,0,.2,0s.1,0,.2,0c0,0,.1,0,.2,0,.1,0,.2,0,.4,0,0,0,0,0,0,0,.2,0,.4,0,.6,0h0s0,0,0,0c0,0,0,0,0,.1,0,.1,0,.2-.1.3,0,0,0,.1,0,.1,0,.1,0,.2,0,.3,0,.2,0,.4,0,.6,0,.2,0,.4,0,.6,0,.2,0,.4.1.6v.2c0,.1.1.3.1.4s0,0,0,0c0,.1,0,.2,0,.4,0,0,0,.2,0,.3,0,.1,0,.2,0,.3,0,0,0,0,0,0,0,.1,0,.3,0,.4,0,0,0,.2,0,.3,0,0,0,0,0,.1,0,0,0,.1,0,.2,0,0,0,.2,0,.2,0,0,0,0,0,.1,0,.1,0,.3,0,.4,0,0,0,.2,0,.3,0,0,0,.2,0,.3v.5c.2.1.2.2.2.4,0,.1,0,.2,0,.3,0,0,0,.2,0,.3,0,.2.1.5.2.7,0,0,0,.2,0,.3s0,0,0,.1c0,.2.1.4.2.5,0,0,0,0,0,.1,0,.1,0,.3,0,.4,0,.2,0,.3.1.5,0,.2,0,.3.2.4v.2c.2.1.2.3.3.4,0,0,.1.2.2.2,0,0,0,0,0,0ZM130.3,97.2s0,0,0,0h2.1c0,0,.2,0,.2,0,0,0,0,0,0,0h0c0-.2,0-.3,0-.4,0-.1,0-.2,0-.3,0-.1,0-.2,0-.4,0,0,0-.1,0-.2,0,0,0-.2,0-.3,0,0,0,0,0,0,0-.1,0-.2,0-.3v-.2c0,0,0-.1,0-.2,0-.1,0-.2,0-.3,0-.1,0-.2,0-.3,0-.2,0-.3,0-.5,0,0,0,0,0-.1,0,0,0,0,0-.1,0,0,0-.2,0-.3,0,0,0-.2,0-.3,0,0,0,0,0,0,0,0,0-.2,0-.3,0,0,0,0,0-.1,0-.2,0-.4,0-.6,0,0,0,0,0-.1,0,0,0,0,0,0,0,0,0,0-.1,0h0c0,0,0,.1,0,.2,0,.1,0,.3,0,.4,0,0,0,.2,0,.3s0,0,0,.1h0c0,.2,0,.4,0,.5,0,0,0,.1,0,.2,0,0,0,.1,0,.2,0,0,0,.2,0,.3,0,.1,0,.2,0,.3,0,0,0,0,0,.1,0,0,0,.1,0,.2,0,.1,0,.3,0,.4,0,0,0,.2-.1.3,0,.2,0,.3,0,.5s0,.2,0,.2c0,0,0,.2,0,.3,0,.2,0,.3,0,.4s0,.2,0,.4c0,0,0,.1,0,.2,0,0,0,.2,0,.2Z"/>
    <path class="st1" d="M138.2,101.6h-.2c0,0-.1,0-.2,0s-.1,0-.2,0,0,0,0,0c0,0,0,0,0,0h0c0-.1.2-.2.2-.4v-.2c.2,0,.2-.2.2-.3,0,0,0,0,0-.1s0-.1,0-.2c0-.1,0-.2,0-.4,0-.2,0-.3,0-.4s0-.1,0-.1c0-.1,0-.2,0-.3,0-.3,0-.6,0-.9s0-.1,0-.2h0c0-.2,0-.2,0-.2,0-.2,0-.4,0-.6,0-.1,0-.2,0-.4,0,0,0,0,0,0,0-.2,0-.3,0-.5s0-.1,0-.2c0,0,0-.2,0-.3,0,0,0,0,0-.1,0,0,0-.1,0-.2v-.8c0-.2,0-.5,0-.7v-.5c0-.1,0-.2,0-.4s0-.2,0-.3,0-.2,0-.4c0,0,0-.1,0-.2,0,0,0-.2,0-.2,0-.1,0-.2,0-.4,0,0,0-.1,0-.2h0c0-.2,0-.3,0-.4v-.2c0,0,0-.2,0-.2s0-.2,0-.3c0,0,0,0,0,0,0-.2,0-.3-.1-.5,0-.1,0-.2-.2-.3,0,0-.1-.1-.2-.2,0,0,0,0,0,0h0s0,0,0,0c.3,0,.6,0,.9,0h.4c.2,0,.3,0,.5,0,0,0,0,0,.1,0,.1,0,.2,0,.3,0,0,0,0,0,0,0,0,0,.1,0,.2,0,0,0,.2,0,.2,0,0,0,.1,0,.2,0,0,0,.2,0,.2,0,0,0,.2,0,.3,0h.1s.1,0,.2,0c0,0,0,0,0,0,0,0,0,0,0,0h0c0,.1-.2.2-.2.3v.2c-.2.2-.2.3-.3.5,0,0,0,0,0,0,0,0,0,.2,0,.3s0,0,0,.1c0,.3,0,.5,0,.8,0,.2,0,.5,0,.7s0,1,0,1.4c0,.2,0,.4,0,.5,0,.2,0,.4,0,.5,0,.2,0,.3,0,.4h0c0,.4,0,.7,0,1,0,.3,0,.5,0,.8s0,.1,0,.2v.9c0,.2,0,.4,0,.6v.3s0,0,0,.1c0,.1,0,.2,0,.3s0,.2,0,.3c0,.1,0,.3,0,.4,0,0,0,0,0,0,0,.1,0,.3,0,.4,0,.1,0,.2.1.3,0,.1.1.2.2.3,0,0,0,0,0,0,0,0,0,.2,0,.2,0,0-.2,0-.3,0-.2,0-.3,0-.5,0h-.3c-.1,0-.2,0-.3,0-.1,0-.2,0-.4,0h-.4c-.1,0-.2,0-.4,0h0c-.3,0-.5,0-.8,0Z"/>
    <path class="st1" d="M142.7,96.5c0-.1,0-.2,0-.4v-.9c0-.2,0-.3,0-.4,0-.1,0-.3,0-.4s0-.2,0-.4c0,0,0-.2,0-.2s0,0,0,0c0,0,0-.2,0-.2,0,0,0-.2,0-.2,0,0,0,0,0-.2,0,0,0,0,0-.1,0,0,0-.2,0-.2,0,0,0-.2,0-.2,0,0,0,0,0-.1,0,0,0-.2,0-.3v-.2c.1,0,.1-.1.2-.2,0,0,0-.2,0-.3,0-.1.1-.2.2-.4,0-.1,0-.2.2-.3,0,0,0-.1,0-.2,0,0,0,0,0,0,0,0,0,0,.1-.2,0,0,.1-.2.2-.2.1-.1.2-.2.4-.4,0,0,0,0,.2-.1,0,0,.2-.1.3-.2,0,0,.1,0,.2-.1.1,0,.2,0,.4-.1,0,0,.1,0,.2,0,.1,0,.2,0,.4-.1h.3c0,0,.1,0,.2,0h.2c0,0,.1,0,.2,0,0,0,0,0,0,0,0,0,.3,0,.4,0,.2,0,.3,0,.4,0,0,0,0,0,.1,0,.1,0,.2,0,.3,0,.1,0,.2,0,.3,0h.1c.2,0,.3.1.5.2,0,0,0,0,.2,0h0s0,0,0,0c.1,0,.2.2.4.2.1.1.3.2.4.3.1,0,.2.1.2.2,0,0,0,0,.1.1,0,.1.2.3.3.4.1.2.2.4.3.6,0,0,0,.2.1.3,0,.2.1.4.2.6,0,0,0,0,0,.3v.3c0,.2.1.4.2.5,0,0,0,0,0,0,0,.1,0,.2,0,.4,0,.1,0,.3,0,.4,0,0,0,0,0,.1,0,0,0,.2,0,.3,0,0,0,.1,0,.2,0,.1,0,.3,0,.4,0,.3,0,.5,0,.8,0,0,0,.1,0,.2,0,.3,0,.6,0,.9s0,.1,0,.2c0,0,0,.2,0,.2v.2c0,0,0,.2,0,.2,0,0,0,.1,0,.2,0,0,0,.2,0,.3,0,0,0,.1,0,.2,0,.1,0,.2-.1.3,0,.1,0,.2-.1.3,0,.1,0,.2-.1.3,0,.1-.1.2-.2.3,0,.1-.1.2-.2.3,0,0-.1.2-.2.3,0,0,0,0-.1.2,0,.1-.2.2-.4.4,0,0,0,0-.1.1,0,0,0,0,0,0,0,0-.2.1-.2.2,0,0-.2.1-.2.2,0,0-.2,0-.3.1,0,0,0,0,0,0,0,0-.1,0-.2,0,0,0-.2.1-.3.1-.1,0-.2,0-.3.1,0,0-.1,0-.2,0s-.1,0-.2,0c0,0-.2,0-.2,0-.3,0-.3,0-.6,0,0,0-.1,0-.2,0,0,0,0,0-.1,0-.3,0-.4,0-.7-.2l-.5-.2c-.3-.1-.5-.2-.7-.4-.3-.2-.5-.3-.7-.5,0,0-.1-.2-.2-.3-.1-.1-.2-.2-.3-.4,0,0,0,0,0-.1,0,0-.1-.2-.2-.3,0,0,0,0,0,0,0-.1-.1-.2-.1-.4,0-.1,0-.3-.1-.4,0,0,0-.2,0-.3,0,0,0-.2,0-.3,0,0,0,0,0-.1,0,0,0-.2,0-.2,0,0,0-.1,0-.2,0-.1,0-.2,0-.3,0,0,0-.1,0-.2s0,0,0-.1c0-.1,0-.3,0-.4ZM145.6,95.1c0,.1,0,.2,0,.3,0,0,0,.1,0,.2v.2c0,.2,0,.3,0,.4s0,.2,0,.4c0,0,0,0,0,0,0,.2,0,.4,0,.5,0,.1,0,.2,0,.4,0,0,0,0,0,.1,0,.1.1.3.2.4,0,0,0,.2,0,.2,0,0,0,.2.1.2v.2c.2.1.2.2.3.3,0,0,0,0,.1,0,.1,0,.2.1.3.2,0,0,0,0,.2,0,.2,0,.2,0,.4,0,.2,0,.3-.1.4-.2,0,0,0,0,.2-.1,0,0,0-.2.1-.2,0,0,.1-.2.2-.2,0-.1,0-.2.2-.3,0-.1,0-.2.1-.3,0,0,0-.2,0-.2,0,0,0,0,0-.1,0-.1.1-.3.1-.4,0-.2,0-.3,0-.5,0-.1,0-.3,0-.4s0-.3,0-.5c0,0,0,0,0-.1,0,0,0,0,0-.1,0-.2,0-.5,0-.7,0,0,0,0,0-.1,0,0,0-.1,0-.2s0-.2,0-.3c0,0,0-.2,0-.3,0-.2,0-.3,0-.4,0,0,0-.1,0-.2,0-.1,0-.3,0-.4,0-.1,0-.2,0-.4,0,0,0-.1,0-.2h0c0-.2-.1-.4-.2-.6,0,0-.1-.1-.2-.2,0,0-.2-.1-.2-.2-.2,0-.4-.2-.6-.2h-.1c0,0-.1,0-.2,0,0,0-.1,0-.2,0,0,0-.1,0-.2.1,0,0-.1.1-.2.2,0,.2-.2.3-.3.5,0,0-.2.4-.2.5,0,0,0,.2,0,.2,0,0,0,.1,0,.2s0,.2,0,.2c0,0,0,.2,0,.2,0,0,0,.1,0,.2,0,0,0,.1,0,.2,0,.3,0,.5,0,.8,0,0,0,.1,0,.2,0,0,0,.2,0,.2Z"/>
  </g>
  <text>
    <textPath startOffset="100%" xlink:href="#path"><tspan class="st0"><tspan x="0" y="0">SIGLOS XII</tspan></tspan>
    </textPath></text>
  <text>
    <textPath startOffset="100%" xlink:href="#path1"><tspan class="st2"><tspan x="0" y="0" xml:space="preserve">NO SERVIMOS A REYES,                                      ENCAUZAMOS REINOS.</tspan></tspan>
    </textPath></text>
  <g>
    <path class="st1" d="M26.2,79.6c-.5.2-1,.3-1,.3h0s7.1,3.2,7.1,3.2c0,0,.1.2.1.3l-.4,1c0,0-.2.1-.3.1l-9.1-4c0,0-.1-.2-.1-.3l.3-.8,9.1-3.4c.6-.2,1.2-.3,1.2-.3h0c0,0-7-3.2-7-3.2,0,0-.1-.2-.1-.3l.4-1c0,0,.2-.1.3-.1l9.1,4c0,0,.1.2.1.3l-.3.7-9.3,3.5Z"/>
    <path class="st1" d="M39.4,59.7c2.8,1.8,3.1,5,1.4,7.6-1.7,2.6-4.7,3.6-7.5,1.8-2.8-1.8-3.1-5-1.4-7.6,1.7-2.6,4.7-3.6,7.5-1.8ZM34.2,67.9c2.1,1.4,4.4.6,5.6-1.2,1.2-1.9.9-4.2-1.2-5.6-2.1-1.4-4.4-.7-5.6,1.2-1.2,1.9-1,4.2,1.2,5.6Z"/>
    <path class="st1" d="M47.5,52.7c.1-.1.2-.1.3,0,.9.9,2.1.8,3.8-.8,1.5-1.5,1.4-2.7.6-3.5-.4-.4-1.2-.6-2.2.3l-2.2,1.9c-1.6,1.4-2.9,1.4-3.9.3-1.1-1.1-1.4-3.3.8-5.4,2.3-2.3,4.1-2.1,5.4-.8,0,0,0,.2,0,.3l-.7.7c-.1.1-.2.1-.4,0-.7-.6-1.9-.7-3.3.7-1.3,1.3-1.4,2.6-.6,3.4.4.4,1.1.5,2-.3l2.1-1.9c1.8-1.5,3.2-1.3,4.2-.4,1,1,1.5,3.2-.8,5.5-2.2,2.2-4.4,2.3-5.7,1.1h-.1c0-.2,0-.3,0-.4l.8-.8Z"/>
    <path class="st1" d="M56.7,42.5l2.1,2.7,5.2-4c0,0,.3,0,.3,0l.5.7c0,0,0,.3,0,.3l-6.2,4.8c0,0-.2,0-.3,0l-6.1-7.9c0,0,0-.2,0-.3l6.1-4.7c0,0,.3,0,.3,0l.5.7c0,0,0,.3,0,.3l-5.1,3.9,1.9,2.4,4.6-3.6c0,0,.3,0,.3,0l.5.7c0,0,0,.3,0,.3l-4.6,3.6Z"/>
    <path class="st1" d="M62.9,31.3c0,0,0-.2,0-.3l3.8-2.2c2.1-1.2,4.3-1,5.3.9.8,1.5.4,2.9-.8,4h0s.5.1.9.3l3.1,1.4c.2,0,.2.1.2.1,0,0,0,.1,0,.2l-1.2.7c0,0-.2,0-.3,0l-4-1.8-2.6,1.5,1.7,3c0,0,0,.2,0,.3l-1,.5c0,0-.2,0-.3,0l-4.9-8.6ZM64.7,31.5l2.1,3.6,2.7-1.5c1.4-.8,2-2,1.3-3.2-.7-1.2-2-1.3-3.4-.5l-2.7,1.5Z"/>
    <path class="st1" d="M80.2,29.2c.4.4,1.3,1.3,1.3,1.3h0s0-1.2,0-1.8l.5-6.7c0-.3,0-.3.3-.3l1.1-.5c0,0,.1,0,.2,0,0,0,0,.2,0,.2l-.9,11.2-.6.2-8.5-7.4c0,0-.1-.1-.2-.2,0,0,0-.1,0-.1l1.1-.5c.2,0,.2,0,.4,0l5,4.4Z"/>
    <path class="st1" d="M92,29.3c0,0,0,.2-.1.3l-1.1.3c0,0-.2,0-.3-.1l-2.7-9.6c0,0,0-.2.1-.3l1.1-.3c0,0,.2,0,.3.1l2.7,9.6Z"/>
    <path class="st1" d="M106,16.3c.1,0,.2,0,.2.2l1.5,9.8c0,.1,0,.2-.2.2l-1.1.2c-.1,0-.2,0-.2-.2l-1.2-7.4h0s-.1.6-.4,1.2l-2.8,5.8-4.4-4.6c-.5-.5-.8-1-.8-1h0s1.2,7.4,1.2,7.4c0,.1,0,.2-.2.2l-1.1.2c-.1,0-.2,0-.2-.2l-1.5-9.8c0-.1,0-.2.2-.2h.7c.1-.1.2,0,.4,0l5.5,5.7h0s3.5-7.2,3.5-7.2c0-.1.2-.2.3-.2h.7Z"/>
    <path class="st1" d="M122.6,21.2c0,3.3-2.6,5.3-5.7,5.3-3.1,0-5.6-2.1-5.5-5.4s2.6-5.3,5.7-5.3c3.1,0,5.6,2.1,5.5,5.4ZM113,21c0,2.5,1.8,4.1,4,4.1,2.3,0,4.1-1.5,4.1-4,0-2.6-1.7-4.1-4-4.1-2.2,0-4.1,1.4-4.1,4Z"/>
    <path class="st1" d="M127.4,23.4c.2,0,.2.1.2.3-.2,1.3.6,2.2,2.9,2.6,2.1.3,3-.4,3.2-1.5,0-.6-.2-1.3-1.5-1.6l-2.8-.7c-2-.5-2.8-1.6-2.6-3,.2-1.6,1.9-3,4.8-2.5,3.2.5,4.1,2.1,3.8,3.9,0,0,0,.2-.3.1l-1-.2c-.2,0-.2,0-.2-.3,0-.9-.5-1.9-2.5-2.2-1.8-.3-3,.4-3.1,1.5,0,.6.2,1.2,1.4,1.5l2.8.6c2.3.6,2.9,1.8,2.7,3.2-.2,1.4-1.7,3.1-4.9,2.6-3.1-.5-4.5-2.2-4.2-4v-.2c0-.1.1-.2.3-.2l1.1.2Z"/>
    <path class="st1" d="M150.8,30.8l-5.4-2-1.6,1.5c-.2.2-.2.2-.4,0l-1.1-.4c0,0-.1-.1-.1-.2,0,0,0-.1.2-.2l8.2-7.6.6.2,1.3,11.2c0,0,0,.2,0,.2,0,0,0,0-.2,0l-1.1-.4c-.2,0-.2,0-.3-.3l-.2-2.1ZM146.4,27.8l4.2,1.5-.3-3.1c0-.6,0-2,0-2h0s-1,1.1-1.4,1.5l-2.3,2.1Z"/>
    <path class="st1" d="M165.3,28.9c0,0,.2-.1.3,0l3.8,2.3c2.1,1.3,2.9,3.2,1.8,5.1-.9,1.4-2.3,1.8-3.9,1.3h0s.1.5.2,1l.2,3.4c0,.2,0,.2,0,.3,0,0,0,0-.2,0l-1.2-.7c0,0-.1-.1-.1-.2l-.3-4.4-2.6-1.6-1.8,2.9c0,0-.2.1-.3,0l-.9-.6c0,0-.1-.2,0-.3l5.2-8.4ZM166,30.7l-2.2,3.5,2.6,1.6c1.3.8,2.7.8,3.4-.3.7-1.2.1-2.4-1.2-3.2l-2.6-1.6Z"/>
    <path class="st1" d="M174.6,41.8l-2.2,2.6,5.1,4.2c0,0,0,.3,0,.3l-.5.6c0,0-.3,0-.3,0l-6.1-5c0,0,0-.2,0-.3l6.3-7.7c0,0,.2,0,.3,0l5.9,4.9c0,0,0,.3,0,.3l-.5.6c0,0-.3,0-.3,0l-4.9-4.1-1.9,2.3,4.5,3.7c0,0,0,.3,0,.3l-.5.6c0,0-.3,0-.3,0l-4.5-3.7Z"/>
    <path class="st1" d="M185.9,44.4c0,0,0-.1,0-.1,0,0,0,0,.1,0l.9,1c.1.2.2.2.1.4l-.7,4.2c0,.6-.3,1.3-.3,1.3h0c0,0,.7,0,1.3,0l4.3-.4c.2,0,.3,0,.4.2l.9,1c0,0,0,.1,0,.1s0,0-.1,0l-7.2.7-3,2.8c0,0-.2,0-.3,0l-.8-.8c0,0,0-.2,0-.3l3-2.8,1.3-7.2Z"/>
    <path class="st1" d="M192.1,59.8l-2.8,2,3.8,5.4c0,0,0,.3,0,.3l-.7.5c0,0-.3,0-.3,0l-4.5-6.4c0,0,0-.2,0-.3l8.1-5.7c0,0,.2,0,.3,0l4.4,6.3c0,0,0,.3,0,.3l-.7.5c0,0-.3,0-.3,0l-3.7-5.2-2.5,1.8,3.4,4.8c0,0,0,.3,0,.3l-.7.5c0,0-.3,0-.3,0l-3.4-4.8Z"/>
    <path class="st1" d="M197.4,70.1c0,.2,0,.3-.1.3-1.1.6-1.5,1.8-.4,3.8,1,1.9,2.1,2.2,3.1,1.7.6-.3,1-.9.4-2.2l-1.1-2.7c-.8-1.9-.4-3.2.9-3.9,1.4-.7,3.5-.3,4.9,2.4,1.5,2.8.7,4.5-.9,5.4,0,0-.2,0-.3-.1l-.5-.9c0-.2,0-.2.1-.4.8-.5,1.2-1.6.3-3.3-.8-1.6-2.1-2.2-3.1-1.6-.6.3-.8.9-.3,2l1.1,2.6c.9,2.2.3,3.5-.9,4.1-1.2.6-3.5.5-5-2.4-1.5-2.8-.9-4.9.7-5.7h.2c.1-.1.2-.1.3,0l.5.9Z"/>
    <path class="st1" d="M201,82c.2.6,0,1.2-.9,1.5-1.2.5-2.1.3-2.8-.5-.1-.1-.2-.3-.2-.3,0,0,0-.1,0-.2l.4-.3c0,0,.2,0,.2,0,.5.6.9.7,1.5.5h0c-.2-.5,0-1,.5-1.2.5-.2,1,0,1.2.5Z"/>
  </g>
  <g>
    <path class="st1" d="M28.1,161.4l-2.9,1.6,3.1,5.7c0,0,0,.3,0,.3l-.7.4c0,0-.3,0-.3,0l-3.7-6.8c0,0,0-.2,0-.3l8.6-4.7c0,0,.2,0,.3,0l3.6,6.7c0,0,0,.3,0,.3l-.7.4c0,0-.3,0-.3,0l-3-5.5-2.6,1.4,2.8,5.1c0,0,0,.3,0,.3l-.7.4c0,0-.3,0-.3,0l-2.8-5.1Z"/>
    <path class="st1" d="M36.8,171.1c0-.6.3-1,.3-1h0s-6.1,4.5-6.1,4.5c0,0-.2,0-.3,0l-.6-.9c0,0,0-.2,0-.3l7.9-5.8c0,0,.2,0,.3,0l.5.7-1.5,9.4c0,.6-.3,1.2-.3,1.2h0c0,0,6.1-4.5,6.1-4.5,0,0,.2,0,.3,0l.6.9c0,0,0,.2,0,.3l-7.9,5.8c0,0-.2,0-.3,0l-.5-.6,1.6-9.7Z"/>
    <path class="st1" d="M49.9,187.4c-.1-.1-.1-.2,0-.4.9-1,.9-2.6-.6-4.1-1.5-1.6-3.7-1.7-5.5,0-1.8,1.8-1.7,4-.1,5.5,1.5,1.5,3,1.6,4,.7.2-.2.3-.2.4,0l.7.7c0,0,.2.2,0,.3-1.4,1.4-3.9,1.4-6.1-.8-2.1-2.1-2.4-5.2,0-7.5,2.3-2.3,5.4-2.1,7.5,0,2.3,2.3,1.9,4.9.6,6.2,0,0-.2,0-.3,0l-.7-.7Z"/>
    <path class="st1" d="M56.7,198.3l-4.5-3.4-1.9.9c-.2.1-.3,0-.4,0l-.9-.7c0,0,0-.1,0-.2,0,0,.1,0,.2-.1l10-4.8.5.4-2,10.9c0,0,0,.2,0,.2,0,0-.1,0-.2,0l-.9-.7c-.2-.1-.2-.1-.1-.4l.4-2.1ZM53.5,194.3l3.5,2.7.6-3c.1-.6.5-1.9.5-1.9h0c0,0-1.2.7-1.7,1l-2.7,1.3Z"/>
    <path class="st1" d="M72.9,199.1c0,0,.2-.1.3,0l.9.5c0,0,.1.2,0,.3l-2.6,4.5c-1.6,2.9-4.2,3.3-6.8,1.8-2.6-1.5-3.6-3.9-1.9-6.8l2.6-4.5c0,0,.2-.1.3,0l.9.5c0,0,.1.2,0,.3l-2.6,4.5c-1.2,2.2-.6,3.8,1.3,4.9,1.9,1.1,3.6.7,4.9-1.4l2.6-4.5Z"/>
    <path class="st1" d="M73.3,210.5l9.2-5c.6-.3,1-.4,1-.4h0s-6.5-2.6-6.5-2.6c0,0-.2-.2-.1-.3l.3-.8c0,0,.2-.2.3-.1l9.1,3.6h0s-9.5,5.2-9.5,5.2c-.4.2-.8.3-.8.3h0s6.7,2.7,6.7,2.7c0,0,.2.2.1.3l-.3.8c0,0-.2.2-.3.1l-9.3-3.7h0Z"/>
    <path class="st1" d="M94.6,215.2l-5.5-1.3-1.4,1.6c-.2.2-.2.2-.4.1l-1.1-.3c0,0-.1-.1-.1-.2s0-.1.1-.2l7.2-8.4h.6c0,.1,2.5,10.9,2.5,10.9,0,0,0,.2,0,.2,0,0,0,.1-.2,0l-1.1-.3c-.2,0-.2,0-.3-.3l-.5-2.1ZM90.1,212.8l4.2,1-.7-3c-.1-.6-.3-2-.3-2h0s-.8,1.2-1.2,1.6l-2,2.3Z"/>
    <path class="st1" d="M113.2,209.5c.1,0,.2.1.2.2l-.9,9.8c0,.1-.1.2-.2.2h-1.1c-.1-.1-.2-.2-.2-.3l.7-7.3h0s-.3.6-.7,1l-4.1,4.8-3.1-5.5c-.3-.6-.5-1.2-.5-1.2h0s-.7,7.3-.7,7.3c0,.1-.1.2-.2.2h-1.1c-.1-.1-.2-.2-.2-.3l.9-9.8c0-.1.1-.2.2-.2h.7c.1,0,.2.1.3.3l3.9,6.8h0s5.1-6,5.1-6c0-.1.2-.2.3-.1h.7Z"/>
    <path class="st1" d="M128.3,213.9c.2,3.3-2.1,5.4-5.1,5.6-3,.2-5.6-1.6-5.8-4.9-.2-3.3,2.1-5.4,5.1-5.6,3.1-.2,5.6,1.6,5.8,4.9ZM118.8,214.5c.2,2.5,2.1,3.8,4.3,3.7,2.2-.1,3.9-1.8,3.7-4.2-.2-2.5-2-3.9-4.3-3.7-2.2.1-3.9,1.7-3.7,4.2Z"/>
    <path class="st1" d="M133.5,214.7c.2,0,.3,0,.3.2.3,1.2,1.3,1.8,3.6,1.4,2.1-.4,2.6-1.5,2.4-2.5-.1-.6-.6-1.2-2-1l-2.8.4c-2,.3-3.1-.5-3.4-1.9-.3-1.5.7-3.4,3.6-4,3.1-.6,4.5.5,4.9,2.2,0,0,0,.2-.2.2l-1,.2c-.2,0-.2,0-.3-.2-.3-.8-1.1-1.6-3.1-1.2-1.7.4-2.6,1.4-2.4,2.5.1.6.6,1,1.8.9l2.8-.4c2.3-.3,3.4.7,3.6,2,.3,1.3-.5,3.4-3.6,4.1-3,.6-4.9-.5-5.3-2.2v-.2c0-.1,0-.2.1-.2l1-.2Z"/>
    <path class="st1" d="M148.3,204c0,0,0-.2.1-.3l4-1.7c2.2-.9,4.3-.5,5.1,1.5.6,1.5,0,2.9-1.2,3.8h0s.5.2.9.5l2.8,1.7c.1,0,.2.1.2.2,0,0,0,.1,0,.1l-1.3.5c0,0-.2,0-.3,0l-3.7-2.3-2.8,1.2,1.3,3.1c0,0,0,.2-.1.3l-1,.4c0,0-.2,0-.3-.1l-3.8-9ZM150.1,204.4l1.6,3.8,2.8-1.2c1.4-.6,2.2-1.7,1.7-2.9-.5-1.2-1.8-1.5-3.3-.9l-2.8,1.2Z"/>
    <path class="st1" d="M163.5,202.9l1.7,2.9,5.6-3.2c0,0,.3,0,.3,0l.4.7c0,0,0,.3,0,.3l-6.7,3.9c0,0-.2,0-.3,0l-4.9-8.5c0,0,0-.2,0-.3l6.6-3.8c0,0,.3,0,.3,0l.4.7c0,0,0,.3,0,.3l-5.4,3.1,1.5,2.6,5-2.9c0,0,.3,0,.3,0l.4.7c0,0,0,.3,0,.3l-5,2.9Z"/>
    <path class="st1" d="M176.4,200c0,0,0,.2,0,.3l-.9.6c0,0-.2,0-.3,0l-5.7-8c0,0,0-.2,0-.3l.9-.6c0,0,.2,0,.3,0l5.7,8Z"/>
    <path class="st1" d="M177.9,190.3c-.6,0-1-.2-1-.2h0s5,5.7,5,5.7c0,0,0,.2,0,.3l-.8.7c0,0-.2,0-.3,0l-6.5-7.3c0,0,0-.2,0-.3l.6-.5,9.5.7c.6,0,1.2.2,1.2.2h0s-5-5.7-5-5.7c0,0,0-.2,0-.3l.8-.7c0,0,.2,0,.3,0l6.5,7.3c0,0,0,.2,0,.3l-.6.5-9.8-.7Z"/>
    <path class="st1" d="M195.2,174.9c2.5,2.1,2.5,5.3.5,7.6-1.9,2.3-5,3-7.6.8-2.5-2.1-2.5-5.3-.5-7.6,2-2.3,5-3,7.6-.8ZM189.1,182.2c1.9,1.6,4.2,1.2,5.6-.5,1.4-1.7,1.4-4-.5-5.6-1.9-1.6-4.2-1.2-5.6.5-1.4,1.7-1.5,4,.5,5.6Z"/>
    <path class="st1" d="M199.4,171.8c0-.2.2-.2.3,0,1.1.7,2.2.3,3.5-1.6,1.1-1.8.8-2.9-.1-3.5-.5-.3-1.3-.4-2.1.8l-1.7,2.3c-1.2,1.7-2.5,1.9-3.7,1.2-1.3-.8-2-2.8-.4-5.4,1.7-2.7,3.5-2.9,5-2,0,0,.1.1,0,.3l-.5.9c0,.1-.2.2-.4,0-.8-.4-1.9-.3-3,1.4-.9,1.5-.8,2.8.1,3.4.5.3,1.2.3,1.9-.7l1.6-2.3c1.4-1.9,2.8-2,3.9-1.3,1.2.7,2.1,2.7.4,5.4-1.6,2.6-3.7,3.2-5.2,2.3h-.1c-.1-.2-.1-.2,0-.4l.6-.9Z"/>
    <path class="st1" d="M207.2,161.7c.2-.5.8-.6,1.2-.4.5.2.6.8.4,1.2-.2.5-.8.6-1.2.4-.5-.2-.6-.8-.4-1.2Z"/>
  </g>
  <g>
    <path class="st1" d="M179.5,121.5c0,0,0,0,0,0,0,.5.4.8,1.3.8s1.2-.4,1.2-.8-.1-.5-.7-.5h-1.1c-.8-.2-1.2-.5-1.2-1.1s.5-1.3,1.7-1.3,1.7.6,1.7,1.3,0,0-.1,0h-.4c0,0,0,0-.1-.1,0-.4-.3-.7-1.1-.7s-1.1.3-1.1.8.2.5.7.5h1.1c.9.2,1.3.6,1.3,1.2s-.5,1.3-1.8,1.3-1.9-.6-1.9-1.3h0c0-.1,0-.1,0-.1h.4Z"/>
    <path class="st1" d="M184.8,122.8s0,0,0,0h-.4s0,0,0,0v-3.9s0,0,0,0h.4s0,0,0,0v3.9Z"/>
    <path class="st1" d="M190.7,121.1c0,1-.7,1.8-2.1,1.8s-2.2-.8-2.2-2.1.9-2.1,2.2-2.1,1.9.9,2,1.5c0,0,0,0,0,0h-.4s0,0,0,0c0-.5-.4-1-1.3-1s-1.5.6-1.5,1.6.7,1.6,1.5,1.6,1.5-.5,1.5-1.1h-1.8s0,0,0,0v-.3s0,0,0,0h2.4v.2Z"/>
    <path class="st1" d="M192.9,122.4h2.3s0,0,0,0v.3s0,0,0,0h-2.8s0,0,0,0v-3.9s0,0,0,0h.4s0,0,0,0v3.5Z"/>
    <path class="st1" d="M200.7,120.9c0,1.3-1,2.1-2.2,2.1s-2.2-.8-2.2-2.1,1-2.1,2.2-2.1,2.2.8,2.2,2.1ZM196.9,120.9c0,1,.7,1.6,1.6,1.6s1.6-.6,1.6-1.6-.7-1.6-1.6-1.6-1.6.6-1.6,1.6Z"/>
    <path class="st1" d="M202.6,121.5c0,0,0,0,0,0,0,.5.4.8,1.3.8s1.2-.4,1.2-.8-.1-.5-.7-.5h-1.1c-.8-.2-1.2-.5-1.2-1.1s.5-1.3,1.7-1.3,1.7.6,1.7,1.3,0,0-.1,0h-.4c0,0,0,0-.1-.1,0-.4-.3-.7-1.1-.7s-1.1.3-1.1.8.2.5.7.5h1.1c.9.2,1.3.6,1.3,1.2s-.5,1.3-1.8,1.3-1.9-.6-1.9-1.3h0c0-.1,0-.1,0-.1h.4Z"/>
    <path class="st1" d="M211.5,120.8l1.7,2s0,0,0,0c0,0,0,0,0,0h-.6c0,0,0,0-.2,0l-1.4-1.6h0c0,.1-.2.3-.3.4l-1,1.2c0,0,0,0-.2,0h-.5s0,0,0,0,0,0,0,0l1.7-2-1.6-1.9s0,0,0,0c0,0,0,0,0,0h.6c0,0,0,0,.2,0l1.3,1.5h0c0-.1.3-.4.3-.5l.9-1c0,0,0,0,.2,0h.5s0,0,0,0,0,0,0,0l-1.6,1.9Z"/>
    <path class="st1" d="M215.2,122.8s0,0,0,0h-.4s0,0,0,0v-3.9s0,0,0,0h.4s0,0,0,0v3.9Z"/>
    <path class="st1" d="M217.7,122.8s0,0,0,0h-.4s0,0,0,0v-3.9s0,0,0,0h.4s0,0,0,0v3.9Z"/>
  </g>
  <g>
    <path class="st1" d="M13.7,119.2v-.3s0,0,0,0h3.8s0,0,0,0v.3s0,0,0,0h-1.6v3.5s0,0,0,0h-.4s0,0,0,0v-3.5h-1.6s0,0,0,0Z"/>
    <path class="st1" d="M19.2,118.9s0,0,0,0h1.8c1,0,1.7.5,1.7,1.3s-.4,1.1-1.1,1.2h0s.1.1.3.3l.8,1.1c0,0,0,0,0,0,0,0,0,0,0,0h-.6s0,0,0,0l-1-1.4h-1.2v1.4s0,0,0,0h-.4s0,0,0,0v-3.9ZM19.8,119.3v1.7h1.2c.6,0,1.1-.3,1.1-.8s-.4-.8-1.1-.8h-1.2Z"/>
    <path class="st1" d="M27.1,122.1h-2.3l-.4.8c0,0,0,0-.1,0h-.4s0,0,0,0,0,0,0,0l2-4h.2l2,4s0,0,0,0,0,0,0,0h-.4c0,0,0,0-.1,0l-.4-.8ZM25.1,121.5h1.8l-.5-1.1c-.1-.2-.3-.8-.3-.8h0s-.2.5-.3.8l-.6,1.1Z"/>
    <path class="st1" d="M34.1,118.8s0,0,0,0v3.9s0,0,0,0h-.4s0,0,0,0v-3h0s0,.2-.2.4l-1.5,2.1-1.5-2.1c-.2-.2-.2-.4-.2-.4h0v3s0,0,0,0h-.4s0,0,0,0v-3.9s0,0,0,0h.3s0,0,.1,0l1.8,2.6h0l1.8-2.6s0,0,.1,0h.3Z"/>
    <path class="st1" d="M39.4,118.9s0,0,0,0h.4s0,0,0,0v2.1c0,1.3-.8,2-2,2s-2-.7-2-2v-2.1s0,0,0,0h.4s0,0,0,0v2.1c0,1,.5,1.5,1.4,1.5s1.4-.5,1.4-1.5v-2.1Z"/>
    <path class="st1" d="M42.7,120.1c-.2-.2-.3-.3-.3-.3h0v3.1s0,0,0,0h-.4s0,0,0,0v-3.9s0,0,0,0h.3l2.7,2.8c.2.2.3.4.3.4h0v-3.1s0,0,0,0h.4s0,0,0,0v3.9s0,0,0,0h-.3l-2.8-2.8Z"/>
    <path class="st1" d="M47.2,119.2v-.3s0,0,0,0h3.8s0,0,0,0v.3s0,0,0,0h-1.6v3.5s0,0,0,0h-.4s0,0,0,0v-3.5h-1.6s0,0,0,0Z"/>
    <path class="st1" d="M53.3,122.8s0,0,0,0h-.4s0,0,0,0v-3.9s0,0,0,0h.4s0,0,0,0v3.9Z"/>
  </g>
</svg>