<?xml version="1.0" encoding="UTF-8"?>
<svg id="Capa_2" xmlns="http://www.w3.org/2000/svg" version="1.1" xmlns:xlink="http://www.w3.org/1999/xlink" viewBox="0 0 232.2 232.1">
  <!-- Generator: Adobe Illustrator 30.3.0, SVG Export Plug-In . SVG Version: 2.1.3 Build 157)  -->
  <defs>
    <style>
      .st0 {
        fill: url(#Degradado_sin_nombre_6);
      }

      .st1 {
        fill: url(#Degradado_sin_nombre_5);
      }

      .st2 {
        fill: #bf1e20;
      }

      .st3 {
        fill: url(#Degradado_sin_nombre_4);
      }

      .st4 {
        fill: url(#Degradado_sin_nombre_2);
      }

      .st5 {
        fill: #e1a951;
      }

      .st6 {
        fill: #0e2f4c;
      }

      .st7 {
        fill: url(#Degradado_sin_nombre_7);
      }

      .st8 {
        fill: url(#Degradado_sin_nombre_3);
      }

      .st9 {
        fill: #f3f3f3;
      }
    </style>
    <linearGradient id="Degradado_sin_nombre_7" data-name="Degradado sin nombre 7" x1="892.1" y1="-60.7" x2="866.2" y2="-65.5" gradientTransform="translate(-283 -16.5) scale(.5 -.5)" gradientUnits="userSpaceOnUse">
      <stop offset="0" stop-color="#ddad4e"/>
      <stop offset="1" stop-color="#eca158"/>
    </linearGradient>
    <linearGradient id="Degradado_sin_nombre_2" data-name="Degradado sin nombre 2" x1="721.8" y1="-60.8" x2="697.1" y2="-67" gradientTransform="translate(-283 -16.5) scale(.5 -.5)" gradientUnits="userSpaceOnUse">
      <stop offset="0" stop-color="#dfac4c"/>
      <stop offset="1" stop-color="#f1a258"/>
    </linearGradient>
    <linearGradient id="Degradado_sin_nombre_3" data-name="Degradado sin nombre 3" x1="639.7" y1="-239.1" x2="640.6" y2="-265.5" gradientTransform="translate(-283 -16.5) scale(.5 -.5)" gradientUnits="userSpaceOnUse">
      <stop offset="0" stop-color="#dcab4d"/>
      <stop offset="1" stop-color="#f2a45a"/>
    </linearGradient>
    <linearGradient id="Degradado_sin_nombre_4" data-name="Degradado sin nombre 4" x1="957" y1="-246.9" x2="956.8" y2="-266.7" gradientTransform="translate(-283 -16.5) scale(.5 -.5)" gradientUnits="userSpaceOnUse">
      <stop offset="0" stop-color="#dba94c"/>
      <stop offset="1" stop-color="#f4a65f"/>
    </linearGradient>
    <linearGradient id="Degradado_sin_nombre_5" data-name="Degradado sin nombre 5" x1="654.4" y1="-352.5" x2="646.9" y2="-333.6" gradientTransform="translate(-283 -16.5) scale(.5 -.5)" gradientUnits="userSpaceOnUse">
      <stop offset="0" stop-color="#ddb152"/>
      <stop offset="1" stop-color="#f0a05b"/>
    </linearGradient>
    <linearGradient id="Degradado_sin_nombre_6" data-name="Degradado sin nombre 6" x1="639.9" y1="-195" x2="640.4" y2="-172.4" gradientTransform="translate(-283 -16.5) scale(.5 -.5)" gradientUnits="userSpaceOnUse">
      <stop offset="0" stop-color="#dead51"/>
      <stop offset="1" stop-color="#f1a35b"/>
    </linearGradient>
  </defs>
  <path class="st6" d="M22.7,0h186.7s0,81.2,0,81.2v31.5c0,5.5.1,11.7,0,17.2-.7,21.2-8.7,41.4-22.6,57.4-3.6,4.2-7,7.5-11,11.2-18.2,15.8-37.2,25.5-59.7,33.5-2.9-1.1-5.9-2.1-8.8-3.2-36.1-14.1-71-39.1-81.5-78.4-3.6-13.5-3.1-24.6-3.1-38.4v-28.9S22.7,0,22.7,0Z"/>
  <path class="st2" d="M26.5,3.8h112.7s43,0,43,0c7.5,0,16-.2,23.4,0-.2,9.7,0,19.7,0,29.4v54.1s0,25.4,0,25.4c0,14.1.5,24.8-3.4,38.6-9.9,34.5-40.1,57.4-71.8,71.1-4.6,2-9.4,4-14.1,5.6-31.8-11-65.5-31.5-80.7-62.7-3.9-8-6.5-16.5-7.9-25.3-1.3-8.4-1-16.1-1-24.5v-27s0-19.1,0-19.1c0-2.2-.2-7,0-8.8l-.9-.9c.4-.6.7-1,1-1.6-.4-1.4-.1-10.3-.1-12.7v-27.6c0-4.7,0-9.4,0-14.1Z"/>
  <path class="st5" d="M26.7,58.2c.8.6,2.6,3.4,2.8,4.3-.6.3-2.3-1.4-2.9-1.8l-.9-.9c.4-.6.7-1,1-1.6Z"/>
  <path class="st6" d="M46.8,24.3h138.6s0,67.5,0,67.5v23.4c0,4.4,0,9,0,13.4-.8,21.3-10.3,37.7-25.6,52-11.2,10.1-24.6,17.8-38.4,23.7-1.7.7-3.5,1.5-5.2,2.1-2.8-.9-5.9-2.4-8.6-3.6-25.8-11.5-50.8-30.7-58.5-59.2-2.7-10.1-2.2-19.6-2.2-29.9v-23.8s0-65.6,0-65.6Z"/>
  <path class="st9" d="M50.7,28.2h130.9s0,66.4,0,66.4v22.1c0,10.9.3,18.9-3.2,29.5-4.3,12.9-11.5,22.4-21.3,31.6-11.7,10.5-26.3,18.7-40.9,24.5-27-10.7-54.5-29.1-63-58.4-3-10.5-2.5-19.4-2.5-30.2v-23.7s0-61.8,0-61.8Z"/>
  <path class="st6" d="M127.2,82.1c1.6-2.1,2.8-3.1,4.3-4.9,2.9-3.4,5.7-6.5,8.9-9.6,1.5-1.5,2.7-2.9,4.5-4-2.1,5.9-6,11.8-9.2,17.2-.9,1.5-2.8,2.8-3.6,4.3,2.5,1.9,5.2,3.9,7.4,6.2,13.2,13.3,19.6,32,24.1,49.8.7,2.8-1.8,2.2-3.3,1.8.5,1.5,2.6,6.6-.1,7-2.6.4-6.7-2-8.9-3.4-4.6-2.9-6.9-5.9-10.3-9.6-3.7-.3-5.4-.5-9-1.3-.1,1-.2,1.6-.2,2.7,1.2,2.1,4.3,5.9,3.8,8.1-.4,1.7-7.3,4-8.9,4.7.7,2.3,0,5.3,0,7.6-.3,3.6-1.5,19-.7,21.4.3.8.8,1.3,1.5,1.6,2.4,1.2,7.4.1,8.5,3.2.2.5.2,1,.2,1.6v.3c-1-.5-1.8-1-2.8-1.2-.8.3-1.6.6-2.4.9-2.9-.9-5.8-2.5-8.7-1-4,2-7.2,5.1-11.7,5.5-.6,0-1.4,2-1.9,1.8-.4-.5-.3-2.1-.2-2.7.6-2.5,5.4-3.8,7.6-4.8-2.2.3-4.6.6-6.8,1.1-2.5.6-3.4.7-5.8-.3-1,.3-1.7.7-2.6,1.2-.2-.5,0-1.3.2-1.8,1.1-3,5-2.2,7.4-2.6,1.4-.2,2.8-.3,4.1-.5-.5,0-1.6-.1-2-.2-2.3-.7-2.2-1.2-4.4-.6.4-1,.9-1.8,2-2.2,3.3-1.4,9.1,1.7,11.7.7.6-.2.9-.7,1.1-1.3,1.1-2.7,1.6-22.7,1.2-26.1-2,.7-11,4.1-12.1,5.2-.9,2.1,5.9,5.7-.3,9,.2-1.2.2-1.8.2-3-.7-.5-1-.6-1.5-1.4-.4-.7-.8-1.5-1.6-1.8-1.6.1-2.4,4.6-2.1,5.9.3,1.5,1,3.5,1.7,4.9,0,.1,1.3.6,1.5.7.2.8-1.4,1.1-1.9,1.1-3.5,0-3.9-4.9-4.2-7.1,0,.4-.2,1.7-.2,2,.4,2.5,1,2.5.4,5,.5.9.9,1.2,1.6,2-.5.7-2.3.4-3-.1-1.4-1-2-2.7-2.3-4.3-1-5.5.5-7.8,3.5-12.1,2.6-3.7,6.8-4.4,10.8-6.3,2.7-1.2,5.7-2.6,8.4-3.7-.5-2-1.2-5.2-1.9-7-.4-1-3-4.4-3.9-5.4-1.8-2-3-7-4.5-8.5-1.6-1.6-4.4-3.2-6.3-5-1,1.1-2.7,2.8-3.7,3.9-3,3.3-9.2,11.3-13,13.3,1.7-5,4.6-9.2,7.3-13.7,1.3-2.2,3.6-6,5.1-8l1.7-2.1c2.5-2.8,2.8-4.2,4.1-7.7.7-.9,1-1.2,1.9-1.9.9-.6,2.8-1.7,3.4-2.5,2.4-3.1,2.3-7.1,4.9-10.4,1.9-2.5,3.4-2.9,5.8-4.7,1.1-.8,2.8-3.7,3.7-4.9.5-.6,1.1-1.5,1.6-2.2Z"/>
  <path d="M130.9,87.7c1.8,1.1,3.9,2.9,5.4,4.4,8.6,8.1,14.6,19.2,18.7,30.2.9,2.3,2.1,5.5,2.7,7.9,0,0,0,.2,0,.3-7.2-1-11.1-7.5-14.2-13.4-.2-.3-.5-.5-.8-.7h-.3c-.3.4-.4.9-.3,1.4.8,4.1,3.5,7.9,6.3,10.8-9,.1-10.8-10.9-12.9-11.1-1.6,1,1.7,6.9,2.6,8.1.3.4.6.8,1,1.2-8.4-2.2-9.1-10.2-11.2-10.9-1.2.4-.2,3.7.3,4.5.6,1.2,1.3,2.3,2,3.5-3.6-1.2-6.3-3.9-8-7.2-.5-1.1-1.1-2.8-2-3.5-.5-.1-.3-.1-.8,0-.9,1.3.8,4.7,1.4,6-3.7-1.6-5.6-2.8-8.3-5.7,1.7-1.4,6.2-6.2,7.3-8.1,1.1-2.1,2.1-4.2,3.4-6.4.1,5.1.2,6.3-1,11.3,2.9-2.9,5.7-8.1,6.2-12.1.6-5,0-6,2.7-10.4Z"/>
  <path class="st2" d="M127.2,82.1c1.6-2.1,2.8-3.1,4.3-4.9,2.9-3.4,5.7-6.5,8.9-9.6,1.5-1.5,2.7-2.9,4.5-4-2.1,5.9-6,11.8-9.2,17.2-.9,1.5-2.8,2.8-3.6,4.3l-1.3,2.6c-2.7,4.5-2.1,5.4-2.7,10.4-.5,4-3.3,9.2-6.2,12.1,1.2-4.9,1.1-6.2,1-11.3-1.4,2.2-2.3,4.4-3.4,6.4-1,1.9-5.6,6.7-7.3,8.1-.6.5-1.3,1.1-2,1.6-2,1.9-2.8,3.2-4.3,5.5-.5.8-1,1.5-1.5,2.3-1,1.1-2.7,2.8-3.7,3.9-3,3.3-9.2,11.3-13,13.3,1.7-5,4.6-9.2,7.3-13.7,1.3-2.2,3.6-6,5.1-8l1.7-2.1c2.5-2.8,2.8-4.2,4.1-7.7.7-.9,1-1.2,1.9-1.9.9-.6,2.8-1.7,3.4-2.5,2.4-3.1,2.3-7.1,4.9-10.4,1.9-2.5,3.4-2.9,5.8-4.7,1.1-.8,2.8-3.7,3.7-4.9.5-.6,1.1-1.5,1.6-2.2Z"/>
  <path d="M110.3,115.2c3.6,4,6.7,6.1,12.1,6.8,1.6,1.5,5.1,4.3,7.2,4.3,3.9,0,4.6,2.2,8.1,3,1.1.3,2.8,0,4,.2,2.1.7,2.7,1.5,5,1.7,2,2.8,3.9,5,6.4,7.3,1,.9,3.3,2.2,3.9,3.2.7,1,1.3,4,1.6,5.3-5.4-1.6-9.6-5.1-13.4-9.2-1-1.1-1.9-2.4-2.9-3.5h-.2c-1.4-.3-2.7-.3-4.1-.5-3.5-.4-7.1-1.2-10.4-2.4-1.7-.6-3.3-1.4-5-2-.2,3.7-.3,6.4-1.6,9.9-3.7-4.2-5.7-8.1-7.8-13.1-.2-.5-3.3-2.5-4.1-3.1-1.1-.8-2.2-1.7-3.2-2.6,1.5-2.3,2.2-3.6,4.3-5.5Z"/>
  <path d="M149.7,130.4c2.3,0,4.5,3.4,8.6,2.6.8,2.2,1.4,4.9,2,7.1-2.7-.7-10.6-7-10.7-9.7Z"/>
  <path class="st9" d="M124.6,137.8c3,1.8,4.3,3.9,5.8,7l-1.8.8c-1,.5-2.1,1-3.2,1.4-.6-2-1.4-5.1-1.3-7.2,0-.4.4-1.6.5-2Z"/>
  <path d="M125.2,133.7c.8,0,3.2,1,4.2,1.4l-.3,2.3c-1.4-.4-4-2.1-3.9-3.7Z"/>
  <path d="M92.9,41.2c3.9-4.6,8.3-6,14.2-5.8,8.9.2,13,7.8,20.4,11.1,3.8,1.7,5.8,1.5,9.7,1.5.4.9-1.7,1.3-2.3,1.5-5.2,1.4-9.4-.7-13.7-3.3.3,1,.5,1.9.7,2.9.7,3.4.4,7-.8,10.3-4.5,12.3-16.1,10.9-20.8,17.9-1.1,1.6-1.6,3.8-1.2,5.8.2.9.7,1.6,1.4,2.1,2.3,1.3,4.6-2.3,6.2-3.5,1.3-1,3.1-1.7,4.7-2.2,5.2-1.5,10.9-.1,15.5,2.5h.2c-.5.8-1.1,1.6-1.6,2.2-.9,1.2-2.6,4.1-3.7,4.9-2.4,1.8-3.8,2.1-5.8,4.7-2.5,3.3-2.5,7.3-4.9,10.4-.6.8-2.5,1.9-3.4,2.5-.9.8-1.1,1-1.9,1.9-1.2,3.5-1.6,4.9-4.1,7.7l-1.7,2.1c-.8-.9-1.8-2.3-2.5-3.2-.6,1.7-2.2,6.5-4.4,6.4,0-.5.4-2,.4-2.6.4-3.1,0-5.6-1.2-8.5-1,2.4-1.8,4.5-4.5,5.3,1.4-5,.7-8.8-1.4-13.6-.8-1.9-2-3.9-2.5-5.8-3.5-11.9,1.9-26.4,13-32.4,3.2-1.7,6.5-2.8,9.5-4.8,1.2-.8,2.1-1.8,2.5-3.2.5-1.7-.3-3.6-2.2-3.6-1,0-2.2.4-3.3.4-.7,0-1.6,0-2.3,0-1.5-.1-3-.4-4.5-.8-1.8-.5-3.1-1.1-5-1.1-7.1,0-14.3,0-21.4,0-1.3,0-4.9.3-3.7-2.1.2-.4.5-.6.9-.8,1.9-.7,5.3-1.4,7.3-2,5.8-1.7,12-3.1,17.8-4.9Z"/>
  <path class="st6" d="M92.9,41.2c3.9-4.6,8.3-6,14.2-5.8,8.9.2,13,7.8,20.4,11.1,3.8,1.7,5.8,1.5,9.7,1.5.4.9-1.7,1.3-2.3,1.5-5.2,1.4-9.4-.7-13.7-3.3.3,1,.5,1.9.7,2.9.7,3.4.4,7-.8,10.3-4.5,12.3-16.1,10.9-20.8,17.9-1.1,1.6-1.6,3.8-1.2,5.8.2.9.7,1.6,1.4,2.1,2.3,1.3,4.6-2.3,6.2-3.5,1.3-1,3.1-1.7,4.7-2.2,5.2-1.5,10.9-.1,15.5,2.5h.2c-.5.8-1.1,1.6-1.6,2.2-5.5-1.9-9.4-4-15.4-1.3-3.5,1.6-4.6,5.6-8.8,5.4-1.8,0-3.7-1.7-4.4-3.3-2.8-7.4,3.6-13.1,9.8-15.8,1.7-.7,3.6-1.6,5.1-2.6,2-1.3,3.6-2.9,5-4.8,1.5-2,2.3-4.4,2.6-6.9.3-2.8,0-5.9-1-8.5-1.2-3-4-6-7-7.3-3.3-1.4-7.9-1.4-11.2,0-1.7.7-3,1.6-4.3,2.8-.5.5-1,1.2-1.6,1.5-2.1,1.2-14.5,4.2-17.2,4.6h.2c4.7.4,10.7-.3,15.4,0,3,.4,5.2,1.6,8.4,1.9,3.3.4,7.5-1.4,9.8,1.4,2.5,3.1,1.2,7.4-1.7,9.6-3.1,2.4-6.5,3.6-10,5.2-7.3,3.6-11.9,11.6-12.8,19.5-.4,3.1-.4,8.1,1.1,10.8,2.2,4.3,2.8,7.2,3.9,11.8.2-.9.5-2.6,1.1-3.2,1.5,0,3.4,6.6,3.8,8,.1-1,.2-3.2,1.2-3.6.4,0,.7.3.9.7,1.2,2.3,2.1,4.1,3.7,6.2l-1.7,2.1c-.8-.9-1.8-2.3-2.5-3.2-.6,1.7-2.2,6.5-4.4,6.4,0-.5.4-2,.4-2.6.4-3.1,0-5.6-1.2-8.5-1,2.4-1.8,4.5-4.5,5.3,1.4-5,.7-8.8-1.4-13.6-.8-1.9-2-3.9-2.5-5.8-3.5-11.9,1.9-26.4,13-32.4,3.2-1.7,6.5-2.8,9.5-4.8,1.2-.8,2.1-1.8,2.5-3.2.5-1.7-.3-3.6-2.2-3.6-1,0-2.2.4-3.3.4-.7,0-1.6,0-2.3,0-1.5-.1-3-.4-4.5-.8-1.8-.5-3.1-1.1-5-1.1-7.1,0-14.3,0-21.4,0-1.3,0-4.9.3-3.7-2.1.2-.4.5-.6.9-.8,1.9-.7,5.3-1.4,7.3-2,5.8-1.7,12-3.1,17.8-4.9Z"/>
  <path class="st6" d="M106,108.7c-3.6-5.2-4.4-17.7,4.1-18.8,1.3-.2,3.5-.2,3.7,1.5-.4.8-2.9.6-4.1,1.2-5.6,2.6-3.8,9.8-1.8,14.2-.9.8-1.1,1-1.9,1.9Z"/>
  <path class="st9" d="M101.3,41.8c.9-.3,1.7.2,2,1.1.3.9-.2,1.7-1.1,2-.8.2-1.7-.2-2-1.1-.3-.8.2-1.7,1.1-2Z"/>
  <path class="st5" d="M50.1,164.1c4.7-.4,8,5.5,9.9,9.2-.7-.4-1.2-.8-1.8-1.3-1.7.6-5.6,3.3-7.2,4.4-.5.4-1.2.8-1.7,1.3-.4.4-.1.9,0,1.7h-.2c-.9-.4-2.8-3.6-3.4-4.6-3.1-4.9-1.2-9.6,4.4-10.7Z"/>
  <path class="st2" d="M52.2,166.3c1.8.2,4.1,1.4,4.1,3.4-.3.8-6.1,4.3-7.3,5l-1.7,1.1c-3.5-4.8-.3-8.8,4.8-9.5Z"/>
  <path class="st5" d="M189.1,77.9c.4.3.9,1,1.2,1.5,2.2.2,8.2.2,10.4,0,.4-.5.8-1.2,1.1-1.8.1,3.5.6,7.7-1,10.8-1.8,2.2-3.4,2.9-6.3,2.5-6.3-.8-5.8-8.4-5.4-13Z"/>
  <path class="st2" d="M190.5,82c2.3-.1,7.7,0,10.2,0,.1,0,.2.2.3.3.1.3.2.5.2.9,0,1.5-.7,2.9-1.8,3.9-5.7,3.7-11.8-2.3-8.9-5.1Z"/>
  <path class="st5" d="M189.1,130.5c.5.4.6,1,.8,1.7,1.7.6,8.5,1.4,10.4,1.6.4-.5.9-1.2,1.3-1.7,0,3-.5,7.3-1.9,9.9-2.7,3.8-8.2,3.2-10.6-.6-1.6-2.6-.6-8,0-10.8Z"/>
  <path class="st2" d="M189.7,134.9c1.5,0,9.4,1.2,10.6,1.5-.1,1.8-.4,2.9-1.7,4.2-4.4,3-12-.8-8.9-5.7Z"/>
  <path class="st5" d="M135.6,7.9c2.8,0,10.2-1,8.8,4-.3,1-1.4,1.5-2.2,1.9,3.3,1,4.5,3.8,1.7,6.2-2.2,1.2-7.8,1.2-10.4.8.4-.2,2-.8,2.1-1.3.3-3,.2-7.2,0-10.2,0-.4-1.3-.8-1.5-1.3.4-.2.9-.2,1.4-.2Z"/>
  <path class="st2" d="M138.3,14.3c1.2,0,2.1,0,3.1.6,1.7,1.1,1.6,2.9.5,4.5-4.4,3-3.7-2.7-3.6-5.1Z"/>
  <path class="st2" d="M138.4,8.7c1.1,0,1.8,0,2.7.6,1.4,1,1.1,2.5.2,3.7-1.1.6-1.7.6-2.9.6,0-1.7,0-3.2,0-4.9Z"/>
  <path class="st5" d="M87,7.9c2.5,0,7.2-.6,8.6,1.7,1.3,2.2,0,3.9-1.8,5,1.5,2.9,2.3,4.6,5,6.4-3.5.3-4,.3-5.8-2.7-.5-.9-1.5-3.3-2.8-3.1-.6.6-.8,4.2,0,4.8.4.2.9.2,1.2.6v.3c-.4.2-5.3,0-5.8-.1.3-.3,1.4-1.3,1.5-1.7.1-3,0-6.5,0-9.5,0-.6-1.3-1-1.5-1.5.4-.2.9-.2,1.4-.2Z"/>
  <path class="st2" d="M89.8,8.7c3.3,0,5,2.2,3,4.9-4,3.1-3.1-2.7-3-4.9Z"/>
  <path class="st5" d="M105.3,7.9c3.1,0,9.8-1,9,4.2-.2,1.2-1.3,1.9-2.3,2.5,1.6,2.9,2.2,4.5,5,6.4-3.6.3-4.2.1-6-3-.5-1-1.2-2.5-2.4-2.9-.5.1-.3,0-.6.3-.1,1.1,0,3.1,0,4.2.2.4,1.1.7,1.6,1.1v.2c-.8.4-5.3.1-6.4,0,.4-.2,1.8-.8,1.8-1.2.5-3,.3-7.2.1-10.2,0-.5-1.2-.7-1.4-1.3.4-.3.9-.2,1.4-.2Z"/>
  <path class="st2" d="M108,8.7c3.3,0,5,2.2,3,5-4,3.1-3-2.9-3-5Z"/>
  <path class="st5" d="M43.1,85.4h.2c.2.5.2.7.2,1.1v.3c0,4.9-6.4,4.2-5.5,6.8.9.7,3.8.5,4.6-.2.1-.5.1-.6.4-.9h.3c.3,1.1.1,5,0,6.2-1.1-2.8-2.2-2.3-5-2.3-.8,0-1.6,0-2.4,0-2.9,0-3.8-.8-5.3,2.2-.1-2.2-.2-4.5-.1-6.7,0-2.3,1.4-4.3,3.9-4,1.4.2,2.1,1.3,2.9,2.3,2.2-1.6,4.3-2.4,5.7-4.8Z"/>
  <path class="st2" d="M33.2,90.5c.3,0,.5,0,.8,0,2.4,0,3,1.4,3,3.5h-2c-1.1,0-4.6.6-3.7-1.4.5-1.2.7-1.5,1.9-2Z"/>
  <path class="st5" d="M201.5,41.5c.7.5.4,2.7.4,3.6-.5.6-1,1-1.6,1.5-2.5,2.1-4.9,4.4-7.5,6.4,2.1,0,5.5.1,7.5-.3.6-.1,1.1-1.7,1.4-2.3.1,1,.3,4.5,0,5.4-.4,0-.6-.7-.8-1-1.1-1.5-9.4-.3-11.6-.7-.4,0-.4-.2-.6-.5.5-1,8.9-7.6,10.3-8.8-2.2,0-6.8-.1-8.7.2-.3.6-.7,1.6-1,2.2-.3-1.8-.2-3.9,0-5.7.2.4.9,1.9,1.3,2,2.5.5,7.1.3,9.6,0,.7,0,1.2-1.4,1.4-1.8Z"/>
  <path class="st7" d="M157.9,7.5h.2c.8.5,4,10.8,5,12,.5.6,1.3.7,1.5,1.2-.5.3-5.1.5-5.5-.2.4-.5.5-.4,1.1-.8-.3-.9-.6-2.5-1.2-3.2-.3-.4-.8-.3-1.3-.3h-2.8c-.6,1.2-.9,2.2-1.2,3.5.6.3,1.1.4,1.3.9-.6.5-3.5.3-4.2-.1.3-.6,1.3-.5,1.7-1.5,1.4-3.1,2.5-6.5,3.8-9.6.5-1.3.5-1.6,1.6-2Z"/>
  <path class="st2" d="M156.8,10.9c.4.4,1.6,3.9,1.9,4.6h-1.8s-1.7,0-1.7,0c.5-1.6,1.1-3,1.6-4.6Z"/>
  <path class="st4" d="M73.2,7.4c1.2.4,4,10.8,5.5,12.3.3.4,1.4.9,1.8,1.1-1,0-5.4.5-6-.2.3-.5.5-.4,1.1-.7-.2-.9-.5-2.5-1.2-3.3-.3-.4-.7-.3-1.2-.3h-2.9c-.3.7-.8,1.8-1,2.5-.3,1.4.9,1.2,1.3,1.9h-.2c-.7.2-3.7.5-4.1,0,.2-.4.5-.5.9-.7h.2c1.9-3.3,2.9-7.8,4.6-11.2.4-.8.4-.9,1.2-1.3Z"/>
  <path class="st2" d="M72.3,10.8c.4.5,1.5,3.9,1.8,4.7-.4,0-.9,0-1.4,0h-2.2c0,0,1.7-4.8,1.7-4.8Z"/>
  <path class="st5" d="M184.4,158.1c1.7-.2,3.4.3,4.8,1.3,1.5,1,2.5,2.7,2.8,4.5.5,3.4-1.4,5.6-3.4,8-.7-.3-2.8-1.1-3-1.7.5-.3,1.9-.1,2.8-.4,2.2-.7,2.7-3.2,2-5.2-.7-1.9-2.4-2.8-4.2-3.6-3.4-1.1-5.7,0-6.8,3.4,1.3.9,2.2,1.3,3.8,1.8.3-.4.5-.8,1-1h.2c-.1,1.1-1.7,4.4-2.5,4.7l-.2-.2c0-.4,0-.5,0-1-.7-.8-2.8-1.7-3.9-2.1.9-3.9,2.4-7.4,6.7-8.4Z"/>
  <path class="st5" d="M37.4,120.6c.7.3.8.6,1.2,1.3h4.1c1.1,2.4,1.5,4.9.7,7.4-.6,1.6-1.7,3-3.3,3.7-1.6.8-3.6.8-5.3.2-1.6-.6-2.9-1.8-3.6-3.3-.7-1.5-1.3-6.8.3-7.6.7-.1,1.9-.3,2.6-.2v.2c-.4,1.2-2.7,1.1-2.7,3.9,0,6.1,10.9,6,11.4.4,0-.5,0-1.9-.4-2.1-.8-.5-3-.1-3.9,0-.2.6-.3,1.1-.8,1.5-.5-.7-.3-4.4-.3-5.4Z"/>
  <path class="st8" d="M43.1,102.5l.3.2c.2.6.4,5.2-.2,5.6-.4-.3-.6-.8-.8-1.3-1.3.3-2.1.7-3.3,1.2v4c1,.4,2.1.8,3.3,1.1.2-.5.3-1.2.9-1.3.5.8.2,3.9.1,4.9-.3-.7-.6-1.3-1-2-.7-.4-1.2-.7-1.9-1-1-.4-9.5-3.7-9.7-4-.2-.3-.2-.4-.2-.7,1.3-2.1,11.3-3.2,12.5-6.5v-.2Z"/>
  <path class="st2" d="M37.8,108.6h.2c.1.8,0,2.5,0,3.3l-2.5-1-1.9-.7c1.4-.5,2.8-1.1,4.2-1.6Z"/>
  <path class="st5" d="M189,59.8c.7.2.7.7,1.1,1.3,2,1.3,6.5,2.6,8.8,3.7,1,.5,2,.7,2.9,1.3.2.6.3.4.1.9-1.1.7-7.6,3.2-9.2,3.8-2.4,1-2.5,1-3.7,3.2,0-1-.4-5.4.3-5.9.5.3.4.4.7,1,1.2-.4,2.2-.8,3.4-1.3,0-1.2,0-2.8,0-4.1-2.4-1-3-1.7-4.3.9,0-1.6,0-3.3,0-4.9Z"/>
  <path class="st2" d="M194.3,64.1l4.5,1.7c-.4.2-.9.4-1.4.6-1,.4-2,.8-3.1,1.2v-3.5Z"/>
  <path class="st5" d="M43.2,40.6c.4.4.5,5,0,5.5-.5-.2-.6-.6-.9-1.1-1.3.4-2.1.7-3.3,1.2v4c1.1.5,2.2.9,3.3,1.2.2-.5.5-1.3.8-1.5l.2.2c.2.9.3,3.3,0,4.2h-.2c-.4-.2-.5-.8-.7-1.2-.6-.4-1.2-.7-1.9-1l-6.2-2.5c-1-.4-2.5-.9-3.4-1.4-.3-.5-.3-.5-.4-1,1-1.3,11.1-3.6,12.2-5.7.2-.5,0-.4.5-.7Z"/>
  <path class="st2" d="M37.8,46.5c.3.3.2,2.8.1,3.4l-3-1.2-1.3-.6,4.2-1.6Z"/>
  <path class="st5" d="M174.6,169.7l.3.2c.1.5-.1,1-.3,1.4.9,2.5,5.8,10.4,5.7,11.6-.4.7-.5.7-1.3.5-3.6-1.4-7.2-2.6-10.9-3.7-1.1-.2-1.7.5-2.7,1,.5-.9,3.4-4.5,4.3-4.8l.2.2c-.2.4-.3.5-.1.9.7.9,2.1,1.2,3.2,1.5.7-1,1.7-2.1,2.5-3-.7-1.1-1.1-1.8-1.9-2.8-.7.3-1.4.7-2.1,1,.7-1.3,2.1-2.9,3.1-4Z"/>
  <path class="st2" d="M176,176.3c.4.6,2,3.5,2.5,4.2l-1.5-.5-2.9-1.1,2-2.6Z"/>
  <path class="st3" d="M189.1,106.5c.4.3.9,1.5,1.4,1.5,3.1.4,6.6,0,9.7,0,.6,0,1-1,1.3-1.5h.1c.3.6.2,8.1.3,9.5-.6,0-2.7.4-3.1,0,.2-.4,1.2-1.1,1.6-1.4.7-.5.6-3,.6-4-1.1,0-3.7-.2-4.7.2-.2,0-.1.4-.1.6,0,2.4,0,2.2,2,3.4-1.6,0-3.2,0-4.8,0,2.1-1.5,1.9-1.6,1.8-4.2-3.4,0-6.1-1.1-5.3,3.6.3,1.6,2.2,1.4,2.5,2.7-.6.3-2.7-.4-3.4-.6,0-1.9-.1-8.5.1-10Z"/>
  <path class="st1" d="M46,148.5c.2,0,.5,0,.6,0,.3.3,3.6,8.9,3.9,9.8-.5-.5-1-1.1-1.6-1.4-1.7-.1-8.6,2.9-10.1,4v2c-1.2-1.9-3-6.9-3.9-9.2.6-.3,2-1.2,2.7-1.2v.2c.1,0,0,.5,0,.5l-1.1,1.4c.3,1.5.6,2.4,1.3,3.7,1.5-.6,2.8-1.1,4.3-1.8-.3-1-.6-2.2-1.5-2.7-.7,0-.9,0-1.4-.4.3-.6,3.3-1.6,4.1-1.8l-1.3,1.7c.3,1.2.5,1.8,1,2.9,1.6-.7,3.3-1.3,4.9-2.2-.3-.9-.8-2.5-1.3-3.3-.4-.8-2.3-.5-3.1-1.5v-.2c.9-.3,1.7-.4,2.5-.5Z"/>
  <path class="st0" d="M39.6,69.7c1-.2,2.3.1,3.3.3,1.5,3.4,1.4,7.8-1.9,10.1-1.5,1.1-3.4,1.5-5.2,1.1-1.8-.3-3.4-1.4-4.3-3-1.5-2.4-1.2-4.9-.6-7.5l.2-.4c.7-.5,2.5-.5,3.3-.4v.2c-.6.6-1.2.7-1.7,1.1-.8.7-1.3,1.7-1.4,2.7,0,1,.2,2,.9,2.7,3.9,4.3,14,.6,9.5-5.4-.3-.4-1.5-1.1-2.1-1.6Z"/>
  <path class="st5" d="M125.9,7.9c.9,0,1.7,0,2.6.1-.5.2-2,.8-2,1.3-.3,2.9-.3,7.2,0,10.1,0,.6,1.7,1.2,2.3,1.4-1.2.1-3.2,0-4.5,0-.6,0-1.7.1-2.1-.2.2-.8,1-.7,1.5-1.2.4-1.4.2-8.2.1-10,0-.5-1.1-1.1-1.5-1.4.5-.4,2.9-.3,3.7-.3Z"/>
  <path class="st5" d="M189.1,95.9c.5.4.8,1,1.1,1.6,2.8.1,7.3.2,10.1-.1.6,0,1.1-1.3,1.4-1.8.2,1.8.2,4.5.2,6.3l-.4-.2c-.5-.9-.6-1.4-1.8-1.4-3,0-6.2-.3-9.2.1-.5,0-1.1,1.5-1.4,2-.1-1.6-.2-4.9,0-6.3Z"/>
  <path class="st5" d="M186,146.9l.3.3c0,.2.2,1,.3,1.1,1.2,1.1,8.8,3.3,10.3,3.5.4-.5.9-1,1.4-1.5-.2,1.2-1.3,4.8-1.9,6l-.2-.3c-.1-1.4-.3-1.7-1.7-2.1-2.8-.9-5.6-2-8.5-2.5-.5,0-1.6,1.1-1.9,1.4.3-1.7,1.3-4.2,1.9-5.9Z"/>
  <path class="st5" d="M30.7,58.6l.4.2c.1.3.5,1.1.8,1.2,1.7.5,8.8.4,10.2.1.6-.4,1-1.3,1.4-1.9,0,1.7.1,4.6,0,6.3-.6-.3-.9-1.4-1.2-1.4-2.7-.5-7.2-.3-10,0-.6,0-1.2,1.7-1.3,2.1-.2-1.3-.2-5,0-6.4Z"/>
</svg>