<?xml version="1.0" encoding="UTF-8"?>
<svg id="Capa_2" xmlns="http://www.w3.org/2000/svg" version="1.1" xmlns:xlink="http://www.w3.org/1999/xlink" viewBox="0 0 450.2 450">
  <!-- Generator: Adobe Illustrator 30.3.0, SVG Export Plug-In . SVG Version: 2.1.3 Build 157)  -->
  <defs>
    <style>
      .st0 {
        fill: #867645;
      }

      .st1 {
        fill: url(#Degradado_sin_nombre_6);
      }

      .st2 {
        fill: #f1e191;
      }

      .st3 {
        fill: url(#Degradado_sin_nombre_5);
      }

      .st4 {
        fill: url(#Degradado_sin_nombre_11);
      }

      .st5 {
        fill: #f7eebe;
      }

      .st6 {
        fill: url(#Degradado_sin_nombre_4);
      }

      .st7 {
        fill: #decb84;
      }

      .st8 {
        fill-opacity: 0;
      }

      .st8, .st9 {
        fill: #15140b;
      }

      .st10 {
        fill: url(#Degradado_sin_nombre_2);
      }

      .st11 {
        fill: url(#Degradado_sin_nombre_9);
      }

      .st12 {
        fill: url(#Degradado_sin_nombre_17);
      }

      .st13 {
        fill: url(#Degradado_sin_nombre_13);
      }

      .st14 {
        fill: url(#Degradado_sin_nombre_7);
      }

      .st15 {
        fill: #bb9f52;
      }

      .st16 {
        fill: url(#Degradado_sin_nombre_3);
      }

      .st9 {
        fill-opacity: 0;
      }

      .st17 {
        fill: url(#Degradado_sin_nombre_10);
      }

      .st18 {
        fill: url(#Degradado_sin_nombre_8);
      }

      .st19 {
        fill: #edd990;
      }

      .st20 {
        fill: url(#Degradado_sin_nombre_12);
      }
    </style>
    <linearGradient id="Degradado_sin_nombre_17" data-name="Degradado sin nombre 17" x1="1185.9" y1="-399.6" x2="682.3" y2="356.9" gradientTransform="translate(-228.5 147) scale(.5 -.5)" gradientUnits="userSpaceOnUse">
      <stop offset="0" stop-color="#001d51"/>
      <stop offset="1" stop-color="#043d80"/>
    </linearGradient>
    <linearGradient id="Degradado_sin_nombre_13" data-name="Degradado sin nombre 13" x1="1208.5" y1="-417.4" x2="797.2" y2="172.1" gradientTransform="translate(-228.5 147) scale(.5 -.5)" gradientUnits="userSpaceOnUse">
      <stop offset="0" stop-color="#af9349"/>
      <stop offset="1" stop-color="#d2bc79"/>
    </linearGradient>
    <linearGradient id="Degradado_sin_nombre_2" data-name="Degradado sin nombre 2" x1="1180.9" y1="-386.5" x2="894.9" y2="196.3" gradientTransform="translate(-228.5 147) scale(.5 -.5)" gradientUnits="userSpaceOnUse">
      <stop offset="0" stop-color="#a7893f"/>
      <stop offset="1" stop-color="#f7e17d"/>
    </linearGradient>
    <linearGradient id="Degradado_sin_nombre_3" data-name="Degradado sin nombre 3" x1="1151.4" y1="39.7" x2="1137.3" y2="80.9" gradientTransform="translate(-228.5 147) scale(.5 -.5)" gradientUnits="userSpaceOnUse">
      <stop offset="0" stop-color="#bfa557"/>
      <stop offset="1" stop-color="#ebd47d"/>
    </linearGradient>
    <linearGradient id="Degradado_sin_nombre_4" data-name="Degradado sin nombre 4" x1="1130.4" y1="-9.2" x2="1118.2" y2="42.9" gradientTransform="translate(-228.5 147) scale(.5 -.5)" gradientUnits="userSpaceOnUse">
      <stop offset="0" stop-color="#b59c53"/>
      <stop offset="1" stop-color="#ebd27b"/>
    </linearGradient>
    <linearGradient id="Degradado_sin_nombre_5" data-name="Degradado sin nombre 5" x1="1108.9" y1="-53.1" x2="1098.5" y2="4.2" gradientTransform="translate(-228.5 147) scale(.5 -.5)" gradientUnits="userSpaceOnUse">
      <stop offset="0" stop-color="#b09852"/>
      <stop offset="1" stop-color="#eacf6f"/>
    </linearGradient>
    <linearGradient id="Degradado_sin_nombre_6" data-name="Degradado sin nombre 6" x1="1075.7" y1="-88.5" x2="1072.9" y2="-27.9" gradientTransform="translate(-228.5 147) scale(.5 -.5)" gradientUnits="userSpaceOnUse">
      <stop offset="0" stop-color="#bba255"/>
      <stop offset="1" stop-color="#e7ce71"/>
    </linearGradient>
    <linearGradient id="Degradado_sin_nombre_7" data-name="Degradado sin nombre 7" x1="1045" y1="-120.5" x2="1045.1" y2="-56.9" gradientTransform="translate(-228.5 147) scale(.5 -.5)" gradientUnits="userSpaceOnUse">
      <stop offset="0" stop-color="#b89f53"/>
      <stop offset="1" stop-color="#e2c86a"/>
    </linearGradient>
    <linearGradient id="Degradado_sin_nombre_8" data-name="Degradado sin nombre 8" x1="1010.4" y1="-137.8" x2="1022" y2="-80.3" gradientTransform="translate(-228.5 147) scale(.5 -.5)" gradientUnits="userSpaceOnUse">
      <stop offset="0" stop-color="#b99f51"/>
      <stop offset="1" stop-color="#e2c76b"/>
    </linearGradient>
    <linearGradient id="Degradado_sin_nombre_9" data-name="Degradado sin nombre 9" x1="686.9" y1="-65.6" x2="680.2" y2="-32.6" gradientTransform="translate(-228.5 147) scale(.5 -.5)" gradientUnits="userSpaceOnUse">
      <stop offset="0" stop-color="#c8b776"/>
      <stop offset="1" stop-color="#f0db85"/>
    </linearGradient>
    <linearGradient id="Degradado_sin_nombre_10" data-name="Degradado sin nombre 10" x1="716.5" y1="-92.7" x2="703.8" y2="-61.5" gradientTransform="translate(-228.5 147) scale(.5 -.5)" gradientUnits="userSpaceOnUse">
      <stop offset="0" stop-color="#cab672"/>
      <stop offset="1" stop-color="#f2dc85"/>
    </linearGradient>
    <linearGradient id="Degradado_sin_nombre_11" data-name="Degradado sin nombre 11" x1="747.5" y1="-117.9" x2="728.5" y2="-87.9" gradientTransform="translate(-228.5 147) scale(.5 -.5)" gradientUnits="userSpaceOnUse">
      <stop offset="0" stop-color="#c5b069"/>
      <stop offset="1" stop-color="#f4de84"/>
    </linearGradient>
    <linearGradient id="Degradado_sin_nombre_12" data-name="Degradado sin nombre 12" x1="766.8" y1="-144.2" x2="752.4" y2="-115.8" gradientTransform="translate(-228.5 147) scale(.5 -.5)" gradientUnits="userSpaceOnUse">
      <stop offset="0" stop-color="#bea962"/>
      <stop offset="1" stop-color="#e5cd77"/>
    </linearGradient>
  </defs>
  <path class="st12" d="M30.5,75.9c-.1-5.2,0-10.9.1-16.2,0-10.4.1-20.7.3-31,0-5.9-.4-17.2.6-22.7,1.2-.8,28-1.5,31-1.7l66.6-2.1c43.3-1.4,86.6-1.9,129.9-1.4,6.8-.1,15.3.3,22.2.4,19.1.3,38.1.8,57.2,1.5l52.6,1.6c8.7.3,18.4.4,27.1.9,1.1,0,1.2,0,2.2.3,1.3,2.9,1.7,146.2,1.4,161.1-.3,13.8-1.1,27.5-2.4,41.2-2.4,23.5-6.2,53.8-14.1,76.1-21.1,59.7-59.9,89.3-110.7,123.6-20,13.5-41,25.4-62.7,35.8-1.8.9-3.6,1.7-5.5,2.5-4.2-1.6-9.5-4.4-13.7-6.4-10.8-5.2-21.4-11-31.8-17.2-55.2-33-107.2-72.3-134.1-132.9-22.8-51.5-16.1-107.2-16.3-162.7,0-12-.1-23.9,0-35.9,0-4.7,0-10.2.1-14.8Z"/>
  <path class="st13" d="M28.7.2L159.5,0h44.1c8.9,0,18.4-.2,27.3,0,7.2-.2,15.3,0,22.6,0,4.5,0,12-.2,16.3.2,8.2-.6,22.1,0,30.5,0h24.3c3.5,0,8-.1,11.5,0,2.8-.1,5.7,0,8.5,0,2.2-.3,6.3-.1,8.7-.1h16.1s23.4,0,23.4,0c3.9,0,8.8-.1,12.5,0,5-.1,11.7.2,16.5-.2v140.6s0,52.2,0,52.2c0,16.9.3,33.6-1.8,50.5-1.2,10-3.5,19.4-6.2,29.1-21.6,79-93.2,128.8-162,164.7-6.1,3.2-12.2,6.3-18.4,9.4-2,1-5.1,2.7-7,3.5-4.8-.6-19.7-8.2-24.8-10.8-10.1-5.1-20-10.5-29.7-16.2-37.1-21.6-71.9-46.8-98.9-80.6-26.4-33.1-41.7-70.7-44.1-113-.4-6.5-.3-13.2-.3-19.8v-15.7c0-3-.3-7,0-9.9-.2-1.8,0-5.2-.1-7.1,0-5.6,0-11.3,0-16.9v-39S28.7.2,28.7.2ZM37.5,9.2l-.2,162.7c0,17.1-.7,39.4.6,56.3,2.8,36.1,15.4,70.8,36.5,100.3,4.5,6.4,9.8,12.7,14.8,18.7.9.8,1.2,1.2,2,2.2,1.5,1.5,2.9,3.1,4.3,4.6,5.9,5.4,11.3,11.6,17.5,16.7.4.3,2.6,2.3,2.8,2.6.8.6,3.4,2.6,3.9,3.3,2.2,1.5,5.5,4.4,7.8,6.2,4.8,3.8,9.6,7.4,14.6,11,20.7,14.7,42.7,27.6,65.6,38.6,4.3,2.1,12.5,6.2,16.9,7.1,4.3,0,11.8-4.5,15.5-6.3,69.4-34.2,142.4-84.2,164.6-162.6,2.3-8,4.8-17.5,5.8-25.8,3-22.1,2.7-43.8,2.5-66.1v-31.8s0-85.5,0-85.5c0-17.2-.3-35.1,0-52.2-33.2.4-67.3,0-100.6,0h-44.8c-8.2,0-17.1.2-25.2,0-38.4.5-77.8,0-116.3,0h-58.2c-9.9,0-20.5.2-30.4,0Z"/>
  <path class="st10" d="M366.4,53.1c.7-.8,4.7-3.1,5.7-3.9,5-3.7,9.5-7.8,13.6-12.5,1.1-1.2,2.2-3,3.3-4.1.4.7.2.4,0,1.3-3.6,26.6-29.4,42.2-52.3,51-4.5,1.7-9,3.4-13.5,4.9-5.9,2-17.3,5.3-22.2,8.7-3.7,2.6-3.8,15.7-4.7,19.7-1.5,7.4-4.5,20.4-9,26.1-1.2,2.9-3.5,6.2-5.3,8.9-12.3,18.4-31.1,32.9-52.7,38.4-1.5.4-7.7,1-8.6,1.5,3.3,1,11.2,1.3,12.2,2.3,1,1,4.3,6.4,5.6,8.2,6.2,8.3,11.4,11.7,19.7,17.3,7.5,4.3,13.9,7.6,20.5,13.6,1.9,1.5,8.8,7.2,9.9,8.8,3.6,2.8,8.2,7.3,11.6,10.6,5.1,5,11,10.7,15.9,16,1.4,1.2,7.2,6.8,8.1,8.2,1.7,1.7,22.7,21.6,22.6,21.4-.8,0-.8,0-1.6-.2-2.8,0-6.2-1.2-8.8-2.2-15.4-6-27.3-18.4-39.1-29.6-5.5-5.2-11.2-10.7-16.4-16.3-1.1-1-2.5-2.4-3.8-3.1,1.3,1.5,2.4,2.8,3.6,4.4,6.8,8.5,13.9,16.8,21.4,24.7,2.4,2.6,4.8,5.1,7.3,7.7.7.7,3.5,3.4,4,4,.5.5,3,2.7,3.3,3.1,4,3.4,9.6,8.5,12.1,13.1-21.3-1.8-41.4-31.7-54.1-46.9-1.1-1.3-4-6-5.3-6.6,1,1.9,2.3,4.1,3.5,6,8.6,14.2,19.3,29.2,31.4,40.5,1.1,1.1,1.9,2.1,3.1,3.1-3.4-1.3-6.8-3.5-9.9-5.4-12.9-7.7-24-20.6-31.3-33.6-3.2-5.8-6-12.1-8.9-18.1,3,12.7,5,22.3,9.5,34.9,1.3,3.6,2.8,7.2,4.3,10.7.9,2.1,3.8,8.1,3.9,10.1.5,7.2-4.1,17.7-6.2,24.6-4.3,14.3-8.8,28-14,41.9-.7,1.9-1.4,3.7-1.8,5.7h0c.9,1.5,1.4,2,2.5,3.2,4.5,2.5,11,4.3,15.9,6.3,1.9.8,4.1,1.3,5.8,2.4.7.6.6.2.7,1-1.5,1.1-7.5,0-9.3-.5-2.1-.4-16.2-3.3-17.2-3.1-5.8.9-19.5,8.2-24.7,12.1-1.6,1.2-6.1,4.7-7.1,5l-.3-.2v-.3c1.4-4.6,8.1-11.9,12.3-14.7-6-.8-12.8.6-18.6,2.3-1.1.3-5.5,2.2-6.1,1.9.2-.7,0-.5.4-1,1.2-1.9,4.1-3.5,6-4.7,3.6-2.1,8-4.4,12.1-5.1,3.4-.5,11.2,1.2,13.5,0,5.3-2.7,13.2-26.6,15.7-33.3,2.6-8.8,10.2-27.9,8.6-36.8-2.2-12.5-14.3-25.3-22.3-34.8-6.4-7.6-12.1-16.2-16.6-25.1-1.1-2.2-2.1-4.6-3.7-6.6,1.3,4.4,2.9,8.8,4.2,13.3.9,3.1,2.3,5.6,3.1,9.2-2.6-1.5-5.4-2.7-8-4.3-29.7-18.6-55-42.5-61.8-78.4-.4-1.6-.7-3.3-1-5-.9-6.1-1.4-12.2-1.3-18.3,0-24,8.3-38.6,30.4-49.8,8.9-4.5,20.4-8.2,26.5-16.8,2.6-3.7,2.6-8.8,1.8-13-2.2-4.3-4.8-5.4-9.4-5.2-20.2,1.2-40.3,1.7-60.5,2.6-3.1.1-6.3.6-9.4.7-3.4.7-12,1.2-15.4,1.2-.6,0-2.6-.2-3-.6,2-.5,3.6-1.3,5.6-1.9,5-1.6,10.1-3.1,15.2-4.7,1.5-.6,3.3-1.2,4.8-1.7,9.9-3.3,19.8-7.4,29.9-10.1,2.7-.7,8.6-2.5,11.2-1.7l.2.4c-.9,1.4-3.2,2.3-4.7,2.8-.8.3-1.9.7-2.7,1-.8,1-14.1,6.5-16.3,7.3-.7,1-2.2,1.2-3.4,1.9h.8c1.8-.7,10.2-2,13-2.6,4.2-1,9-1.9,13.2-3.1,4.9-1.4,10.3-1.6,13.1-6.3-1.1-10.2-15.5-.7-21.6-1.8l-.2.2v-.5c3.7-5.6,8.6-10.1,14.8-12.7,3.8-2.4,11.8-2.7,16.2-2.5,13.6.7,25.5,8.9,38.1,13.1,3.2,1.1,6,2,9.2,2.9,1.7.5,5.4,1.3,6.9,1.9v.5c-.1,0-.5,0-.5,0-1.3.1-2,.4-3.3.4-7.9.1-20.1-4.2-27.9-6.2-4.6-1.2-8.7-2.1-13.4-3.1,1.5,1.1,3,1.7,4.5,2.6,3.9,2.3,7.7,5.2,10.7,8.6.5.5,1.5,1.7,1.7,2.3,13.9,15.3,6.8,34.7-6.9,47.1-11.6,10.5-32.8,15.4-34.6,33-.6,6.4,4.2,11,8.2,15.2,10.2,7.8,20.8,7.1,32.4,2.5,14.6-5.9,25-20.7,28.6-35.6,1.4-5.8,1.4-14.3,4-19.7,7.8-16,34.9-23.3,50.4-28.9,8.4-3.1,16.8-6.3,25.2-9.6,10.6-4.8,16.8-7.8,26.9-13.7ZM188.6,204c1,3.2,3.4,8.8,5.2,11.7-3.2-10.9-5-14.9-6.8-26.5-.2-1.2-.3-1.9-.4-3.1-.8,4.6-.1,8.8.9,13.4.2.9,1,3.7,1,4.5Z"/>
  <path class="st2" d="M198.9,158.1c10.2,7.8,20.8,7.1,32.4,2.5,14.6-5.9,25-20.7,28.6-35.6,1.4-5.8,1.4-14.3,4-19.7,7.8-16,34.9-23.3,50.4-28.9,8.4-3.1,16.8-6.3,25.2-9.6h.4c0,.1,0,.1,0,.1l.3.3-1.1.5-.4.9.9-.3v.3c-2.1,1.3-4.9,3.1-7.1,4.2-7.3,3.6-13.5,2.7-19.3,9-1.7,1.9-14.2,4.9-16.4,7.4-5.8,4.3-12.7,8.5-16.8,14.4-2.1,2.4-4.5,6.1-7.4,7.5-1.6.8-2.4,3.3-2.8,4.9-2.1,8.9-2.1,18.5-6.5,26.9-4.6,8.8-12.8,17.9-21.5,22.9-8.5,4.8-21,7.7-30.7,5.5-5.6-1.3-12.8-8-14.2-13.7.9.7.4.5,1.6.6Z"/>
  <path class="st2" d="M215,77.3c-.1-1.8.2-1.5-.8-2.7,1.9-2,6.2-2,8,.1,7.1,8.5,2.4,18.9-4.6,25.1-15.5,13.9-38.6,16.2-45.2,38.8-1.4,4.4-1.4,8.5-2.3,11.6-.2-.6-.3-.7-.7-1-.6,2.1-3.5,2.8-4.5,5.2-.8,1.9-1.8,3.9-2.3,6-.5,2.2-1,4.9-1.3,7.2-.5,3.4-2.7,9.2-2.3,12.3l-.4.5c-.4-1.6-.7-3.3-1-5-.9-6.1-1.4-12.2-1.3-18.3,0-24,8.3-38.6,30.4-49.8,8.9-4.5,20.4-8.2,26.5-16.8,2.6-3.7,2.6-8.8,1.8-13Z"/>
  <path class="st2" d="M190,42.5c3.8-2.4,11.8-2.7,16.2-2.5,13.6.7,25.5,8.9,38.1,13.1,3.2,1.1,6,2,9.2,2.9,1.7.5,5.4,1.3,6.9,1.9v.5c-.1,0-.5,0-.5,0-1.3.1-2,.4-3.3.4-7.9.1-20.1-4.2-27.9-6.2-4.6-1.2-8.7-2.1-13.4-3.1,1.5,1.1,3,1.7,4.5,2.6,3.9,2.3,7.7,5.2,10.7,8.6.5.5,1.5,1.7,1.7,2.3.3,1.2.4,1.6,1.1,2.6-1.6,0-1.7-1.1-2.9-1.7-1.1-.6-2.5-1.1-3.7-1.6-2.7-3.9-5.5-1.7-9.4-1.8-1.7,0-.7-.6-3-.1v.4c2.2,1.6,3.9,2.6,6,4.6-3-1.6-8.4-4.3-11.6-5.6-4.2,1.7-8.4,2.9-12.5,5.1-1.9,1-4.8,1.5-6.8,2.5l-.6-.4c.2-.2.8-.6,1-.8-.7.2-.9.3-1.6.2v-.2c1.3-3.1,7.4.2,8.7-7.4.6-.6.5-.4.7-1.1l-.6-.4c-1.1-10.2-15.5-.7-21.6-1.8l-.2.2v-.5c3.7-5.6,8.6-10.1,14.8-12.7Z"/>
  <path class="st5" d="M175.4,55.5l-.2.2v-.5c3.7-5.6,8.6-10.1,14.8-12.7l.3.4c-.8.6-4.2,2.3-5.6,3.3,1.6-.2,3.1-.7,4.6-1.1-4.8,2.6-7.8,6.3-11.7,9.9-.4.3-1.7.5-2.2.6Z"/>
  <path class="st19" d="M244.3,53.1c3.2,1.1,6,2,9.2,2.9,1.7.5,5.4,1.3,6.9,1.9v.5c-.1,0-.5,0-.5,0-1.3.1-2,.4-3.3.4-3.2-2.6-3.2-.6-6.7-2-2.2-.8-5.1-2.2-7.3-3.2.6-.2,1.1-.3,1.7-.5Z"/>
  <path class="st2" d="M172.7,57.6c2.7-.7,8.6-2.5,11.2-1.7l.2.4c-.9,1.4-3.2,2.3-4.7,2.8-.8.3-1.9.7-2.7,1-.8,1-14.1,6.5-16.3,7.3-.7,1-2.2,1.2-3.4,1.9h.8c1.8-.7,10.2-2,13-2.6,4.2-1,9-1.9,13.2-3.1,4.9-1.4,10.3-1.6,13.1-6.3l.6.4c-.2.7-.1.5-.7,1.1-1.3,7.7-7.4,4.4-8.7,7.4v.2c.8,0,1,0,1.7-.2-.3.2-.8.6-1,.8l.6.4c-3,1.1-6.4,2.1-9.6,2.7-1.4.3-2.8.2-4.1.5-1.7,0-4,.9-6,1-1.8.2-9-.1-10,.2l.4.4c-.9,0-2.4,0-3.2.2v.2c1.4.3,2,.3,3.5.3h-.3c-.8,0-1.2.2-1.9.3-6.5.6-13.1.2-19.5.9-.7,0-2,.9-2.9,1.2-3.4.7-12,1.2-15.4,1.2-.6,0-2.6-.2-3-.6,2-.5,3.6-1.3,5.6-1.9,5-1.6,10.1-3.1,15.2-4.7,1.5-.6,3.3-1.2,4.8-1.7,9.9-3.3,19.8-7.4,29.9-10.1Z"/>
  <path class="st19" d="M197,57.3l.6.4c-.2.7-.1.5-.7,1.1-1.3,7.7-7.4,4.4-8.7,7.4v.2c.8,0,1,0,1.7-.2-.3.2-.8.6-1,.8-3,1.2-22.2,3.7-25.3,3.5-2.3,0-5.3.3-7.6.2,0,0-1.2-.6-1.3-.7.9-.3,1.4-.5,2.4-.6h.8c1.8-.7,10.2-2,13-2.6,4.2-1,9-1.9,13.2-3.1,4.9-1.4,10.3-1.6,13.1-6.3Z"/>
  <path class="st19" d="M172.7,57.6c2.7-.7,8.6-2.5,11.2-1.7l.2.4c-.9,1.4-3.2,2.3-4.7,2.8-.8.3-1.9.7-2.7,1l-.7-.3c.6-.4,1-.5,1.7-.7v-.4c-3.8-.8-14.6,4.6-18.5,6.2-.7.3-2.3,1.3-2.5.9.7-.6,1.1-.7,1.9-1l.3-.5c-1.7-.2-1.5.6-2.7,0,1.1-.8,2.1-.6,2.4-1.2-1.3,0-17.3,5.7-19.9,6.5l-.7-.3c1.5-.6,3.3-1.2,4.8-1.7,9.9-3.3,19.8-7.4,29.9-10.1Z"/>
  <path class="st5" d="M172.7,57.6c2.7-.7,8.6-2.5,11.2-1.7l.2.4c-.9,1.4-3.2,2.3-4.7,2.8-2.7-2.3-3.7.4-6.7-1.5Z"/>
  <path class="st5" d="M120.2,76.5c-.6,0-2.6-.2-3-.6,2-.5,3.6-1.3,5.6-1.9,5-1.6,10.1-3.1,15.2-4.7l.7.3c.4.5.2.3.6.7-3.5,1.5-7.2,2.3-10.7,3.4-3.5,1.1-4.5,2.1-8.3,2.8Z"/>
  <path class="st0" d="M154.5,69.9c-1.3.2-1.5.3-2.8.2.6-.3,7.8-2.7,8.6-2.7-.7,1-2.2,1.2-3.4,1.9-.9.2-1.5.3-2.4.6Z"/>
  <path class="st7" d="M135.7,75.4c.9-.3,2.2-1.1,2.9-1.2,6.5-.7,13.1-.3,19.5-.9.7,0,1.1-.2,1.9-.2h.3c-1.5,0-2.1,0-3.5-.3v-.2c.8-.1,2.3-.1,3.2-.2l-.4-.4c1-.3,8.3,0,10-.2,2-.2,4.2-1,6-1-.8.4-1.5.9-2.3,1,1.1,0,4.8,0,5.6.2v.2c-2.3,0-5.2.3-7.3.1l-.2.2c7.5,1.7,27.6-2.7,34.1-.3-20.2,1.2-40.3,1.7-60.5,2.6-3.1.1-6.3.6-9.4.7Z"/>
  <path class="st2" d="M254.9,343.8c.5,1.4-1.5,5.8-1.9,7.5-1.1,5.3-8.6,23.6-12.9,26.5-2.5,1.8-7.7.3-10.6.2-1.9,0-4.1,0-6,.5-3.4.8-7.4,3.2-10.2,5.1-1.6,1.1-3.4,2.9-5.3,3.3l-.5-.2c1.2-1.9,4.1-3.5,6-4.7,3.6-2.1,8-4.4,12.1-5.1,3.4-.5,11.2,1.2,13.5,0,5.3-2.7,13.2-26.6,15.7-33.3Z"/>
  <path class="st0" d="M214.1,190.8c1.8.1,4.2,2.1,7.4,1.8,20-1.7,41.9-16,54.3-31.2,2.4-3,4.7-6.1,6.8-9.4,1.3-2,3.5-5.9,5-7.4-1.2,2.9-3.5,6.2-5.3,8.9-12.3,18.4-31.1,32.9-52.7,38.4-1.5.4-7.7,1-8.6,1.5-2.2-.2-5.2-1.2-6.9-2.6Z"/>
  <path class="st7" d="M288.9,243.5c3.6,2.8,8.2,7.3,11.6,10.6,5.1,5,11,10.7,15.9,16-.3.5,0,.3-.6.5-.6-.3-7-6.8-7.6-7.5-3.4-4.5-17.9-15.7-19.3-19.7Z"/>
  <path class="st19" d="M366.4,53.1c.7-.8,4.7-3.1,5.7-3.9,5-3.7,9.5-7.8,13.6-12.5,1.1-1.2,2.2-3,3.3-4.1.4.7.2.4,0,1.3-3.8,6.1-9.9,11.6-15.5,16-.8.6-2,1.6-2.9,1.7v-1c-1.1.5-2.5,1.9-4.3,2.8v-.4Z"/>
  <path class="st7" d="M324.4,278.3c1.7,1.7,22.7,21.6,22.6,21.4-.8,0-.8,0-1.6-.2-1.9-1-5.3-4.7-7.1-6.4-3.4-3.2-6.7-6.4-10-9.6-1-1-3.8-3.6-4.6-4.6l.6-.7Z"/>
  <path class="st19" d="M258.5,221.1c7.5,4.3,13.9,7.6,20.5,13.6-.4.4-.2.2-.8.5-6.3-4.3-11.9-9.3-19-12.6-.7-.3-.5,0-1.1-.7l.4-.8Z"/>
  <path class="st7" d="M255.7,375.5c4.5,2.5,11,4.3,15.9,6.3,1.9.8,4.1,1.3,5.8,2.4l-.4.4c-1.2-.2-1.8-.4-3-.8-2-.4-18.1-6.6-19-7.7.4-.4.2-.2.7-.5Z"/>
  <path class="st2" d="M233.2,195.6v.5c-2.3.9-19.4-2.6-20.1-5.4h1c1.7,1.4,4.8,2.5,6.9,2.6,3.3,1,11.2,1.3,12.2,2.3Z"/>
  <path class="st2" d="M231.8,383.6v.7c-.9,1.4-2.8,2.6-4,3.9-2.3,2.4-3.8,4.6-5.4,7.5l.3-.2c-.7,1.5-1.6,2.1-3.2,2.8,1.4-4.6,8.1-11.9,12.3-14.7Z"/>
  <path class="st0" d="M274,383.7c1.2.4,1.8.6,3,.8l.4-.4c.7.6.6.2.7,1-1.5,1.1-7.5,0-9.3-.5,2-.3,4.3.8,5.2-1Z"/>
  <path class="st7" d="M313.6,289.3c.5.5,3,2.7,3.3,3.1v.3c-1.7-.7-2.9-1.3-3.6-2.8l.3-.6Z"/>
  <path class="st0" d="M186.6,179.9l.5-.2c0,2.5.2,7.2,0,9.5-.2-1.2-.3-1.9-.4-3.1-.8,4.6-.1,8.8.9,13.4.2.9,1,3.7,1,4.5-1.9-2.2-3-12.7-2.8-15.7.1-2.5.6-5.7.7-8.4Z"/>
  <path class="st7" d="M186.6,179.9c0-.8,0-1.3.3-1.8.2.8.2.9.2,1.6l-.5.2Z"/>
  <path class="st2" d="M59.6,51.2c.8.5,3.4,4.3,4.2,5.4,12.2,14.9,28.6,25.2,45.5,34,9.7,5,20.9,9.5,29.2,16.8,4.7,4.1,3.6,14.6,4,20.3,1,18.2,11.3,29,10.9,47.4l-.7.4c-1.7-.5-6.2-5.9-7.6-7.5-10.7-11.9-16.7-27.4-18.9-43.1-.6-3.9-.7-8.5-2.2-12.2-1.8-3.8-12.3-6.3-16.2-7.6-18.9-6.4-33.7-15-42.7-33.7-1.7-3.6-6.7-16.4-5.5-20Z"/>
  <path class="st15" d="M195.1,243.8c1.4,1.1,7.8,6.1,8.7,7.1.7.5,2.3,1.6,2.7,2.3,1.7,1.3,5.5,4.2,7,5.7,2.8,2.3,9,7.2,11,9.8-1,6.8,0,18.2,1,25.1.5,3.6,1.5,7.7,1.3,11.3-2.3,3.9-7.4,6.2-11.3,8.4-11.5,6.6-22.3,14.3-32.8,22.4-1.3,1-2.5,1.9-3.6,3,.4.3,4.1,2.5,4.2,2.7,4.9,3.2,11.9,10.1,10.9,16.6l-.3.5c-.7-.5-.4-.2-.8-1.2-5.2-7.3-9.9-10-18.8-11.8-10.7-2.2-20.9,8.1-26.4,16.2-1.1,1.6-2.2,4.2-3.4,5.6-.4.7-.3.5-.9,1.1h-.1c-.4-.6-.3-.8-.3-1.6.7-7.3,6.7-16.5,12.5-20.8v-.5c-5.9-.7-20.9,5.9-21.5,5.8,0-.4,0-.5,0-.8,3.2-5.1,15.4-11.2,21.5-11.5,4.1-.3,7.1.9,11-1.7,11.2-7.5,21.9-15.9,33-23.6,3.9-2.7,10.1-6.7,13-10.3,3.8-7.5-6.5-33.4-9.8-41.7-1.2-3.1-4-8.5-5-11.6v-.4c-1.3-2.3-2-3.7-2.9-6.1Z"/>
  <path class="st5" d="M212.8,303.6l.7-.4v.3c-1.7,3.9-10.4,9.2-14.2,11.9-9.7,6.9-19.2,14-28.9,20.9-5.2,3.7-6.5,4-12.8,4-6.9,0-13,3-18.3,7.3-1.1.9-3.9,3.5-5.2,3.1,3.2-5.1,15.4-11.2,21.5-11.5,4.1-.3,7.1.9,11-1.7,11.2-7.5,21.9-15.9,33-23.6,3.9-2.7,10.1-6.7,13-10.3Z"/>
  <path class="st19" d="M155.7,346.2l.7.2c-1.2,1.6-2.8,2.9-4,4.4-4.8,6-7.1,9.1-7.9,16.6-.4.7-.3.5-.9,1.1h-.1c-.4-.6-.3-.8-.3-1.6.7-7.3,6.7-16.5,12.5-20.8Z"/>
  <path class="st19" d="M183.3,341.6c4.9,3.2,11.9,10.1,10.9,16.6l-.3.5c-.7-.5-.4-.2-.8-1.2,0-3.7-2.6-8.4-5.3-11.1-1.3-1.2-3.7-2.6-4.8-4.2l.3-.7Z"/>
  <path class="st7" d="M195.1,243.8c1.4,1.1,7.8,6.1,8.7,7.1l-.5.2c-1.6-1.2-3.1-2.5-5-2.4,0,.3.2.7.2,1l-.6.2c-1.2-2.3-1.9-3.7-2.8-6.1Z"/>
  <path class="st7" d="M213.5,258.9v.5c-1.9-1.8-7.7-3.5-7-6.2,1.7,1.3,5.5,4.2,7,5.7Z"/>
  <path class="st7" d="M329,93.5c4.1-1.4,8.7-2.6,13-3.9,12.9-4,25.6-8.1,37.8-14.1,3.2-1.6,6.5-3,9.5-5,.8-.5.4-.4,1.4-.8l.3.3-.2.9c-5.6,14.1-17.5,23.1-31,28.9-4.6,2-9.4,3.7-14.2,5.1-4.8,1.4-41.8,10.4-44.7,9.4-.2,0-.3-.2-.5-.3.2-4.1.2-6.5,2-10.3,1.4-3.2,4.5-4,7.7-4.9,6.3-1.7,12.7-3.8,19-5.3Z"/>
  <path class="st19" d="M329,93.5c4.1-1.4,8.7-2.6,13-3.9,12.9-4,25.6-8.1,37.8-14.1,3.2-1.6,6.5-3,9.5-5,.8-.5.4-.4,1.4-.8l.3.3-.2.9c-3.6,2.7-7.7,6.2-12,6.9-2.8,2.5-10.4,4.9-14.1,6.8v.5c-1.7,1.4-4.9,3.3-5.5,4.8-2.1,4.7-7.5,4.3-11.7,6.6-1.3.8-1.7,2.3-3.2,2.7-3.2.8-6.7,1.3-9.8,2.2-7.7,2.4-15.2,4-23,5.8l.7.2c-1.3,2-7.3,5.5-9.7,6.2-.5.1-1.4.2-2,.4.2-4.1.2-6.5,2-10.3,1.4-3.2,4.5-4,7.7-4.9,6.3-1.7,12.7-3.8,19-5.3Z"/>
  <path class="st2" d="M364.6,84.7c-1.5.2-3.5,1.4-5,1.7-7.1,1.6-13.3,5.4-20.4,7-2.6.6-5.5,1.8-8.1,1.7l2.3-.5v-.3c.1,0,.8,0,.8,0h-2.3c0,0-.3-.4-.3-.4,9.7-2.9,19.5-5.8,29.1-9.1,5.8-2,11.9-4.8,17.6-7.2l.5.3c-2.8,2.5-10.4,4.9-14.1,6.8Z"/>
  <path class="st2" d="M302.3,103.8c1.4-3.2,4.5-4,7.7-4.9,6.3-1.7,12.7-3.8,19-5.3l.3.4c-.7.4-.8.4-1.5.6,0,.5,0,.3.2.7-2.1,1.3-5,1.5-7.2,2.3-3.8,1.5-7.7,2.6-11.6,3.8-2.5.7-4.2,2.6-6.9,2.5Z"/>
  <path class="st16" d="M387.7,103.2l.7-.5v.3c-1.1,2.2-2.7,3.8-4.3,5.7-6.2,6.9-14.1,12-23,14.7-12.7,3.9-25.9,5.3-39.1,5.8-8.3.3-16-.7-24.1-1.5.4-3,1-5.1,1.5-7.9.2-.6.4-.8.7-1.4,1.2-.6,20.4-2.5,22.7-2.7,1.9-.2,3.7-.5,5.6-.7,4.9-.6,9.9-1.1,14.8-1.7,3.3-.3,7.8-1.3,11.1-1.9,11.1-1.9,22.9-4.5,33.6-8.3Z"/>
  <path class="st19" d="M343,113.4c3.3-.3,7.8-1.3,11.1-1.9,11.1-1.9,22.9-4.5,33.6-8.3-1.5,2.5-4.7,3.2-7.3,3.9-7.4,2-14.9,3-22,6.3-1.8.8-5.5,0-7.3,0-2,0-6.9,1.6-9,1.1l-.2-.6h0c.4-.1.9-.3,1.2-.5Z"/>
  <path class="st19" d="M299.3,119.8c.2-.6.4-.8.7-1.4,1.2-.6,20.4-2.5,22.7-2.7l1.8.2.2.3c-.7.4-.7.5-1.5.7-2,0-3.3.8-4.8.9-4.9.4-14.3.2-18.6,2.5l-.4-.6Z"/>
  <path class="st2" d="M322.6,115.7c1.9-.2,3.7-.5,5.6-.7l.6.4c-.5.5-.7.3-1.6.4l.9.4-.9-.2v.5c-1.4.1-2.8.2-4.1.4.8-.3.8-.3,1.5-.7l-.2-.3-1.8-.2Z"/>
  <path class="st6" d="M295.4,136.4c.3-1.2.5-2.1,1.2-3.1.2-.1.4-.2.6-.3,3.9.5,7.8,1.2,11.7,1.7,5,.7,10,1.1,15.1,1.5,1.4,0,2.8.2,4.1.2,5.6.2,11.2.3,16.8.2,1.7,0,7.6-.2,8.9,0,1.8-.3,4.4-.3,6.3-.5,4.4-.4,9.4-.9,13.6-1.8l.9-.3.3.2c-1,3.4-9,9.1-12.2,10.8-4.1,2.2-8.6,3.8-13.2,4.6-15.2,2.8-38.8,0-53.8-4.2-1.1-.3-2.8-.7-3.5-1.6.5-1.6,1.1-2.9,1.7-4.5.2-.5,1-2.3,1.3-2.9Z"/>
  <path class="st7" d="M295.4,136.4c.3-1.2.5-2.1,1.2-3.1.2-.1.4-.2.6-.3,3.9.5,7.8,1.2,11.7,1.7,5,.7,10,1.1,15.1,1.5,1.4,0,2.8.2,4.1.2v.4c-.9,2.3-22.1-1.3-25.7-2-1.1-.2-3,.1-3.8-.3-.1-.7,0-.5-.4-1-1.2.2-.7,0-1.5.7-.5,1.8-.2,1.5-1.5,2.3Z"/>
  <path class="st19" d="M373.8,134.2l.3.4c-1.1,1.3-5.1,2.1-6.9,2.7-4.1,1.3-9.2.7-13.4.4,2.1-.3,2.8-.4,4.9-.4l-.2-.3c-1.9-.4-3.3,0-4.6-.5,1.8-.3,4.4-.3,6.3-.5,4.4-.4,9.4-.9,13.6-1.8Z"/>
  <path class="st7" d="M294.1,139.3c.9,1.2,0,3.1-.6,4.4-.4,0-.7.1-1.1.1.5-1.6,1.1-2.9,1.7-4.5Z"/>
  <path class="st3" d="M289.6,148.3c2,.6,3.9,1.2,5.9,1.9,4,1.1,8.1,2.2,12.1,3.3,2.7.7,6.7,1.5,9.3,2.3,8.9,1.5,18.7,3.5,27.6,4.4,3.5.4,7,.6,10.5.8,2.2.1,5.5.1,7.5.5l.2.3c-.9,1.8-9.2,6.2-11.3,7.1-16.9,7.4-38,1.9-54.4-4.4-4.6-1.8-8.6-4.3-12.6-5.8h-.4c.7-2.1,2.8-5.4,3.9-7.5.5-.9,1.1-1.9,1.6-2.8Z"/>
  <path class="st2" d="M317,155.7c8.9,1.5,18.7,3.5,27.6,4.4,3.5.4,7,.6,10.5.8,2.2.1,5.5.1,7.5.5l-1.9,1.3c-2.8,0-5.6-.1-8.4-.4-10.9-1.1-21.7-2.8-32.4-5.1-1.1-.2-4.1-.6-4.6-1.2.4-.3,1-.2,1.6-.3Z"/>
  <path class="st19" d="M289.6,148.3c2,.6,3.9,1.2,5.9,1.9-2.4.6-2.5-.4-4.7-.2-1,0-1.7,2-2.6,1.6l-.2-.5c.5-.9,1.1-1.9,1.6-2.8Z"/>
  <path class="st1" d="M281.4,161.2c5.3,2.8,13.3,6.4,18.8,8.7,4.2,1.6,8.4,3.1,12.6,4.8,2.1.8,4.6,1.5,6.6,2.4,5.6,1.5,11.2,3.9,16.9,5.3,1.2.3,5.6,1.5,6.5,2-.2.7,0,.4-.6.9-5.8,3.4-12.8,6.3-19.6,6.2-16.3.2-31.1-8.7-44.1-17.7-1.9-1.3-2.7-1.8-4.1-3.6,1.3-2.7,4.9-6.7,6.9-9.1Z"/>
  <path class="st15" d="M322.7,191.5c1.3-.8,4.7-1.1,5.2-1.4,1.5-1.1,2.6-2.2,4.4-2.9,3.2-1.3,4.9.4,7.4-2.4,1.1,0,1.5.2,2.6.5-5.8,3.4-12.8,6.3-19.6,6.2Z"/>
  <path class="st19" d="M300.3,169.9c4.2,1.6,8.4,3.1,12.6,4.8,2.1.8,4.6,1.5,6.6,2.4v.2c-2.5.9-13.4-4.3-16.4-5.1-1.3-.4-2.2-1-2.9-2.2Z"/>
  <path class="st2" d="M60.6,87.6c15.9,9.7,33.1,17.6,51.1,22.6,1.8.6,9.6,2.5,9.8,4.7.2,2.4,2.6,5.2,1.4,6.8-2.1,2.4-9.1,1.1-12,1-13-.7-27-5-37-13.6-5.7-4.9-12.4-13.9-14.9-21l1.6-.5Z"/>
  <path class="st7" d="M63.3,119.4c5,1.6,9.6,2.4,14.4,3.8,3.6.7,7.2,1.4,10.9,1.9.5,0,6.8.9,6.9,1,8.6.6,16.6.5,25.2.1.7,0,1.4.3,2,.6,1.1.8,2.2,7,2.9,9-1.8,1.3-4.4,2-6.6,2.6-13.7,3.4-29.7,5.5-42-3.2-5.4-3.8-8.2-7.6-11.6-13.1-.8-1.1-1.3-1.7-2.2-2.7Z"/>
  <path class="st5" d="M95.6,126c8.6.6,16.6.5,25.2.1.7,0,1.4.3,2,.6-6.5,2.6-20.5,2.4-27,.6,2.1,0,4.2,0,6.3-.1-1.3-.2-5.6-.5-6.5-.8v-.5Z"/>
  <path class="st5" d="M63.3,119.4c5,1.6,9.6,2.4,14.4,3.8v.4c-1,.2-6.3-1.1-7.5-1.5h-.3c0-.1-.1.3-.1.3.9,1.2,3.8,1.7,5.3,2.1-3.3.5-6.1-2.4-9.6-2.4-.8-1.1-1.3-1.7-2.2-2.7Z"/>
  <path class="st14" d="M271,173c2.2,1,4.7,2.6,6.4,4.2,5.5,3.5,12.3,7.7,17.6,11.3,9.3,5,16.9,9,26.7,13.2.7.2,1.3.2,1.9.7v.5c-8.6,5.7-20.6,7.7-29.7,2.3-9.4-5.6-23.2-17.4-29.5-26.3.2-.9,0-.5.9-1.2,2-1.8,3.3-3.1,5.6-4.6Z"/>
  <path class="st19" d="M295,188.4c9.3,5,16.9,9,26.7,13.2,0,.5.1.3-.2.8-3.6-.5-23.4-10.8-27.3-13.4l.8-.6Z"/>
  <path class="st19" d="M271,173c2.2,1,4.7,2.6,6.4,4.2-2.5.6-3.8-2.4-5.8-2.1-1.3.2-4.7,3-6.1,3.1l-.2-.6c2-1.8,3.3-3.1,5.6-4.6Z"/>
  <path class="st7" d="M121.4,141.5c1.7-.5,3.5-1,5.2-1.6l1.3,3.7c.8,1.9,3.1,6.8,2.8,8.6-1.8,3.1-14.8,7.1-18.5,8-9.3,2.4-18.7,2.5-27.1-2.7-2.7-1.7-9.3-6.2-10.2-9.4,5.7,0,12.3.3,17.9-.3,9.9-1,19.1-3.6,28.6-6.4Z"/>
  <path class="st5" d="M74.9,148.2c5.7,0,12.3.3,17.9-.3,9.9-1,19.1-3.6,28.6-6.4.8,0,2-.1,2.7.3-.1,0-.2,0-.3,0-1.4.3-21.5,6.8-22,7.2-5.8,1.1-19.4,3.1-25.7.2.1,0-1.2-1.1-1.1-1.1Z"/>
  <path class="st2" d="M121.4,141.5c1.7-.5,3.5-1,5.2-1.6l1.3,3.7-.2.6h-.2c-.4-.5-.5-.9-1-1-4.9-.2-7.6,1.8-11.7,3-3,.8-10.1,2.6-12.9,2.8.5-.4,20.6-6.9,22-7.2.1,0,.2,0,.3,0-.6-.4-1.8-.3-2.7-.3Z"/>
  <path class="st18" d="M254,185.8c1.3-1.5,5.9-4,8-4,7.7,8.1,16,15.8,24.6,23,1,.8,2,1.6,3,2.5,4.9,3.3,9.1,6.6,14.3,9.7.6,0,1.1.3,1.4.7l-.3.5c-2.4,1.2-4.7,1.1-7.4,1.3-15.2,1-26.6-9.5-35.9-20.2-2.1-2.4-4-5.6-5.9-8.2-.9-1.1-3.1-4.3-1.8-5.4Z"/>
  <path class="st7" d="M289.6,207.3c4.9,3.3,9.1,6.6,14.3,9.7-.3.2-.5.3-.8.2-2.8-1-12.1-7.3-13.6-9.3v-.7Z"/>
  <path class="st2" d="M254,185.8c1.3-1.5,5.9-4,8-4-1,1.1-6,4.1-7.5,4.3l-.5-.3Z"/>
  <path class="st11" d="M87.7,174l-.4-.5v-.4c1-.5,6.3-1.1,7.8-1.5,2.6-.6,5.2-1.4,7.7-2.3,9.9-3.4,19.8-7.8,29.3-12.1.7-.3,1.2,0,1.8.3.7,1.2,4.5,7.2,4.6,8.1-1.5,3.6-15.4,12.3-19.4,13.8-7.4,2.7-14.5,3.6-21.9.2-2.7-1.2-7.2-3.7-9.5-5.6Z"/>
  <path class="st5" d="M87.7,174l-.4-.5v-.4c1-.5,6.3-1.1,7.8-1.5,2.6-.6,5.2-1.4,7.7-2.3,9.9-3.4,19.8-7.8,29.3-12.1.7-.3,1.2,0,1.8.3-1.1,3.5-26.1,12.5-30.7,14-6.1,2-9.1,2.5-15.6,2.5Z"/>
  <path class="st17" d="M139.6,170.9c.7-.6.9-.9,1.9-1,2.7.8,4.7,4.6,6.7,6.8-4.3,6.7-15.8,18.3-23.9,19.7-7.9,1.4-12.5,0-19.3-3.4-.6-.4-.5-.3-.9-.9.8-.9,9.5-4.9,11.5-6,8.3-4.7,16.2-9.8,24-15.2Z"/>
  <path class="st19" d="M139.6,170.9l.6.5c-.8,3.9-29.7,20.6-35.3,21.6-.6-.4-.5-.3-.9-.9.8-.9,9.5-4.9,11.5-6,8.3-4.7,16.2-9.8,24-15.2Z"/>
  <path class="st4" d="M151.3,178.9c2.1,3.6,4.5,7.1,6.4,10.8-4.9,9.9-17.4,27.8-30.2,20.5-1.1-.7-4-2-4.6-3,.3-.9,0-.5,1-1.2,3.3-1.7,21.6-21.1,25.3-24.7.7-.9,1.4-1.6,2.1-2.4Z"/>
  <path class="st19" d="M149.2,181.4c.8.8.7.4.7,1.3-2.6,4.4-20.4,22.2-25.1,25h-.7s-.5-.6-.5-.6c.1-.6,0-.4.4-1,3.3-1.7,21.6-21.1,25.3-24.7Z"/>
  <path class="st7" d="M248.9,189c.7,0,1.1,0,1.5.7,4.5,6.5,9,12.4,14.7,17.9,2.5,2.4,5.4,5,7.8,7.6,1.8,1.5,6.6,4.8,7.8,6v.4s-.7,0-.7,0c-5.8.2-15-2.3-20.1-4.8-8.8-4.2-18.6-13.8-22.3-22.9-.2-.5-.2-.3,0-.8,1-.7,9.7-3.6,11.3-4.2Z"/>
  <path class="st2" d="M237.6,194c-.2-.5-.2-.3,0-.8,1-.7,9.7-3.6,11.3-4.2l.3.6c-1.1,1.7-8.4,3.8-10.5,4.3-.4,0-.8.1-1.2.2Z"/>
  <path class="st19" d="M272.9,215.2c1.8,1.5,6.6,4.8,7.8,6v.4s-.7,0-.7,0c-2.3-1.7-6.3-3.5-7-6.5Z"/>
  <path class="st20" d="M152.5,203.8c1.2-1.8,5.3-8.4,6.8-8.8l.4.6c1.8,3.6,4.5,9.3,2.7,13.1-4,8.8-10,17.5-20.8,12.8-1.1-.5-2.9-1.1-3.4-2.2.4-.5.2-.3.8-.5,4.6-3.2,9.9-10.5,13.4-15Z"/>
  <path class="st19" d="M152.5,203.8l.6.4c0,.8-.2,1.3-.5,2-2.9,5.3-7.5,10.8-13.1,13.5l-.4-.2v-.7c4.5-3.2,9.9-10.5,13.4-15Z"/>
  <path class="st7" d="M152.5,203.8c1.2-1.8,5.3-8.4,6.8-8.8l.4.6c.3,1.4,0,1.9-.9,3.1-1.7,2.4-4.1,5.6-6.2,7.6.3-.8.6-1.2.5-2l-.6-.4Z"/>
  <path class="st7" d="M166.1,208.2c.5,1,.9,2,1.4,3,1,2.2,4.8,9.6,4.1,11.5-1.3,3.5-11.4,6.2-14.5,4.6,2.9-4,7.9-14.1,9-19.1Z"/>
  <path class="st2" d="M166.1,208.2c.5,1,.9,2,1.4,3v1.6c-.1,0-.2,0-.2,0-4.8,4.6-3.9,9.8-8.7,14.3,0,0-1.3.2-1.5.3,2.9-4,7.9-14.1,9-19.1Z"/>
  <path class="st5" d="M57.2,85.2c1.3.8,2.2,1.5,3.4,2.3l-1.6.5c-.7-1-1.1-1.8-1.8-2.8Z"/>
  <path class="st8" d="M277.4,248.4c1.3.7,2.6,2.1,3.8,3.1l-.2,1.4c-1.2-1.6-2.3-2.9-3.6-4.4Z"/>
  <path class="st9" d="M365.3,108h.3c-.2.9,0,.5-.8,1.1-.6-.2-.3,0-.8-.4.5-.2.9-.4,1.3-.7Z"/>
  <path class="st8" d="M107.3,87.6l.5.5v1.1c-.6-.3-.8-.4-1.3-.8l.8-.8Z"/>
  <path class="st7" d="M28.7.2L159.5,0h44.1c8.9,0,18.4-.2,27.3,0,7.2-.2,15.3,0,22.6,0,4.5,0,12-.2,16.3.2-1.5.6-3.9.3-5.7.4-.8.5-6.6,0-7.8-.1l.2.4c.2.5.3.7.5,1.2-.3.9,0,.5-.6,1.1h-.4c-2,.3-4.2,1.6-3.9,3.9.5.6.7.8,1.3,1.3-1.5,1.2-9.3.1-10.9.9-38.4.5-77.8,0-116.3,0h-58.2c-9.9,0-20.5.2-30.4,0l-.2,162.7-.4.5c-1.3-1.2-.6-5.6-1-7.7-.6-.2-1.2,0-1.8.1-.5.2-1,1-1.2,1.6-.2.9-.2,2.4-.2,3.3,0,0-1.3,1.9-1.4,1.9-.5,2.6-1.1,5.2-1.8,7.8-.4,1.4.3,3.3-.1,4.7-.3,1.1.3,1.8-.3,2.8-.3-.8-.2-2-.3-3-.2-1.8,0-5.2-.1-7.1,0-5.6,0-11.3,0-16.9v-39S28.7.2,28.7.2Z"/>
  <path class="st19" d="M230.9.1c7.2-.2,15.3,0,22.6,0,4.5,0,12-.2,16.3.2-1.5.6-3.9.3-5.7.4-.8.5-6.6,0-7.8-.1-2.5.5-22.5.3-25.3-.4Z"/>
  <path class="st2" d="M410.5,244.8h.4c0,.1,0,.6,0,.6-.2,2-.1,4.4-.5,6.4-2.4,11.1-5.2,21.7-9.1,32.4-26.3,71.6-95.5,117.8-161.1,150.1-15.1,7.4-12,8.6-27.2,1.5-29.2-13.5-56.8-30.1-82.5-49.5-3.2-2.5-7.1-5.4-10.1-8.2-.3-.3-.5-1.1-.6-1.5,2.2,1.5,5.5,4.4,7.8,6.2,4.8,3.8,9.6,7.4,14.6,11,20.7,14.7,42.7,27.6,65.6,38.6,4.3,2.1,12.5,6.2,16.9,7.1,4.3,0,11.8-4.5,15.5-6.3,69.4-34.2,142.4-84.2,164.6-162.6,2.3-8,4.8-17.5,5.8-25.8Z"/>
  <path class="st7" d="M269.7.3c8.2-.6,22.1,0,30.5,0h24.3c3.5,0,8-.1,11.5,0,2.8-.1,5.7,0,8.5,0-1.3.3-2.9.3-3.6.6v.2c0,0-50.5,0-50.5,0h-15.6c-3.1,0-8.1.5-10.8-.5,1.9,0,4.2.2,5.7-.4Z"/>
  <path class="st19" d="M344.5.3c2.2-.3,6.3-.1,8.7-.1h16.1s23.4,0,23.4,0c3.9,0,8.8-.1,12.5,0-2.5,1.3-13.7.5-17.3.6l-28.7.2c-5.7,0-12.8.2-18.4,0v-.2c.8-.3,2.3-.3,3.6-.6Z"/>
  <path class="st19" d="M115.9,373.3l-.3.3c-1.9-1.9-4.3-3-5.2-3.9-3.2-3.1-15.2-13.6-17.2-16.9l.2-.4c.9.9,1.1,1.2,2.2,1.6,5.9,5.4,11.3,11.6,17.5,16.7.4.3,2.6,2.3,2.8,2.6Z"/>
  <path class="st19" d="M89.3,347.2c.9.8,1.2,1.2,2,2.2-.2.1-.4.2-.7.3-1.1-.6-1.6-1-1.8-2.3l.4-.2Z"/>
</svg>