<?xml version="1.0" encoding="UTF-8"?>
<svg id="Capa_2" xmlns="http://www.w3.org/2000/svg" version="1.1" xmlns:xlink="http://www.w3.org/1999/xlink" viewBox="0 0 450.2 450">
  <!-- Generator: Adobe Illustrator 30.1.0, SVG Export Plug-In . SVG Version: 2.1.1 Build 65)  -->
  <defs>
    <style>
      .st0 {
        fill: #1d1d1b;
      }

      .st0, .st1, .st2, .st3, .st4 {
        fill-rule: evenodd;
      }

      .st5 {
        fill: #fff;
      }

      .st6 {
        fill: none;
      }

      .st1 {
        fill: #050007;
      }

      .st2, .st7 {
        fill: #2389e5;
      }

      .st8 {
        isolation: isolate;
      }

      .st9, .st4 {
        fill: #efb812;
      }

      .st3 {
        fill: #ccecff;
      }

      .st10 {
        clip-path: url(#clippath);
      }
    </style>
    <clipPath id="clippath">
      <circle class="st6" cx="224.6" cy="224.4" r="151.3"/>
    </clipPath>
  </defs>
  <path class="st2" d="M219.6,2.2c-1.3,0-4.6.2-7.5.4-2.9,0-6.9.4-9.2.8-2.3.2-6.3.8-9.2,1.2s-7.9,1.3-11.5,1.9c-3.5.8-9,1.9-12.3,2.7s-8.5,2.3-11.5,3.3-7.5,2.5-10,3.5c-2.5,1-6.2,2.3-8.5,3.3-2.3,1-6.2,2.7-8.8,3.8-2.5,1.2-6.3,3.1-8.3,4s-5.4,2.9-7.9,4.2c-2.3,1.3-6,3.5-7.9,4.8s-5.2,3.3-6.9,4.4-5.8,4-8.7,6.2c-2.9,2.3-6.7,5.2-8.5,6.5s-4,3.5-5.2,4.4-3.8,3.5-6.2,5.6c-2.1,2.1-5.6,5.4-7.7,7.7-2.1,2.1-4.2,4.6-5,5.4-.8.8-1.3,1.5-1.3,1.5,0,0-1.5,1.7-3.1,3.7-1.7,1.9-4.2,5.2-5.8,7.3-1.5,1.9-3.7,4.8-4.8,6.3s-3.5,5-5.4,7.9-4.8,7.5-6.3,10.2-4.2,7.7-6,11c-1.7,3.3-3.8,8.1-5,10.4-1,2.3-2.7,6.3-3.7,8.8-1,2.5-2.5,6.7-3.5,9.6s-2.3,7.3-3.1,9.8c-.8,2.7-1.7,6.5-2.3,8.8-.6,2.1-1.5,6.5-2.1,9.6s-1.5,8.3-1.9,11.5-1,7.9-1.3,10.4c-.2,2.5-.6,6.5-.8,9.2,0,2.7-.2,8.3-.2,12.5s0,10,.2,12.5c0,2.7.6,6.7.8,9.2.2,2.5.8,7.1,1.3,10.4.4,3.3,1.3,8.5,1.9,11.5s1.5,7.5,2.1,9.6,1.5,6.2,2.3,8.8c.8,2.7,2.1,7.1,3.1,9.8,1,2.9,2.5,7.1,3.5,9.6s2.7,6.3,3.7,8.8c1,2.3,3.3,6.9,5,10.4,1.7,3.3,4.4,8.3,6,11s4.4,7.3,6.3,10.2,4.2,6.5,5.4,7.9c1,1.5,3.3,4.4,4.8,6.3,1.5,2.1,4.2,5.2,5.8,7.3,1.7,1.9,3.5,4,4,4.8.6.8,2.1,2.3,3.1,3.5,1.2,1.2,2.7,2.9,3.7,3.8s3.7,3.7,6,5.8,5.2,4.8,6.3,6c1.2,1,3.5,3.1,5.2,4.4,1.7,1.3,5.6,4.4,8.5,6.5,2.9,2.3,6.9,5,8.7,6.3,1.7,1.2,5,3.3,6.9,4.4,2.1,1.3,5.6,3.5,7.9,4.8s6,3.3,8.1,4.4,6.3,3.1,9.4,4.6c3.1,1.3,7.7,3.3,10.2,4.4,2.5,1,6.2,2.3,7.9,3.1,1.7.6,5.6,1.9,8.3,2.7s7.7,2.3,11,3.1c3.3.8,8.5,2.1,11.5,2.7,3.1.6,7.7,1.5,10.2,1.7,2.5.4,6.3,1,8.5,1.2,2.1.2,5.4.6,7.3.8,1.7,0,6.5.4,10.6.6,5.2.2,9.6.2,15,0,4.2,0,9.8-.6,12.3-.8,2.5-.2,6.3-.6,8.3-.8,1.9-.2,6.2-1,9.2-1.3,3.1-.6,8.3-1.5,11.5-2.3s8.3-1.9,11.3-2.9c3.1-.8,7.9-2.3,10.8-3.3s7.7-2.7,10.6-3.8,6.9-2.9,9-3.8c2.1-1,6.3-2.9,9.4-4.4,3.1-1.5,6.7-3.5,8.1-4.2s4.2-2.5,6.3-3.7c2.1-1.2,6.2-3.8,9-5.8s7.1-4.8,9.4-6.5,5.8-4.4,7.7-6,5-4.2,6.9-5.8c1.9-1.7,4.6-4.2,6.2-5.6,1.5-1.5,3.5-3.5,4.4-4.2s2.7-2.7,4-4.2c1.3-1.5,3.7-3.8,5-5.4,1.3-1.5,3.7-4.2,5-6,1.5-1.7,3.7-4.4,4.6-5.8,1.2-1.3,3.1-4,4.2-5.6,1.2-1.7,3.5-5,5-7.3s4.2-6.5,5.8-9.2c1.5-2.7,4-6.9,5.4-9.4,1.3-2.5,3.3-6.2,4.2-8.5,1.2-2.3,2.7-6,3.7-8.3s2.5-6,3.3-8.3c1-2.3,2.1-5.8,2.9-7.9s1.9-5.6,2.5-7.9c.8-2.3,1.7-6.3,2.5-9s1.7-7.5,2.3-10.4c.6-3.1,1.5-8.1,1.9-11.2s1.2-8.3,1.5-11.5c.4-3.3.8-8.3.8-11.3s.2-7.9.2-10.8,0-7.7-.2-10.8c0-3.1-.6-8.1-1-11.3-.4-3.3-1-7.9-1.3-10.6s-1.2-7.1-1.7-9.8c-.6-2.9-1.5-7.3-2.3-10.2-.8-2.9-1.7-6.7-2.3-8.7-.6-1.9-1.5-5.4-2.3-7.5-.8-2.1-2.1-6.2-3.1-8.8s-2.7-7.1-3.8-9.8-2.9-6.7-4-8.8c-1.2-2.3-3.1-6.2-4.2-8.5-1.3-2.5-3.7-6.5-5.4-9.4-1.7-2.7-4.2-6.9-5.8-9.2-1.5-2.3-3.8-5.6-5-7.3s-3.1-4.2-4.2-5.6c-1.2-1.3-3.3-4-4.6-5.8-1.5-1.7-3.8-4.4-5-6-1.3-1.5-3.7-3.8-5-5.4-1.3-1.5-3.3-3.5-4.2-4.4s-2.9-2.9-4.4-4.2-4.2-3.8-6.2-5.6-5-4.2-6.9-5.8-5.4-4.2-7.7-6c-2.3-1.7-6.5-4.6-9.4-6.5s-6.9-4.4-9-5.8c-2.1-1.2-5-2.9-6.3-3.7s-5-2.5-7.7-4c-2.9-1.5-7.1-3.5-9.2-4.4s-6.3-2.7-9.4-3.8c-2.9-1.2-7.7-2.9-10.6-3.8s-7.7-2.5-10.8-3.3c-3.1-.8-8.1-2.1-11.2-2.7-3.1-.8-7.9-1.7-10.6-2.1s-6.9-1.2-9.4-1.3c-2.5-.4-6.5-.8-9-1s-7.9-.6-11.9-.8c-4,0-8.3-.2-9.4-.2h-4.6l1.2.2Z"/>
  <path class="st1" d="M215.8,10.4c-2.7,0-7.1.4-10,.8-2.7.2-7.5.8-10.8,1.3-3.3.4-8.5,1.3-11.5,1.9s-8.1,1.7-10.8,2.5c-2.9.8-7.5,2.1-10.6,2.9-2.9,1-7.7,2.5-10.4,3.5s-7.3,2.9-10.2,4-7.7,3.5-10.6,4.8c-2.9,1.5-6.7,3.5-8.5,4.4s-4.8,2.7-6.9,4c-2.1,1.2-6.3,3.8-9.4,6s-7.5,5.2-10,6.9c-2.5,1.7-6.2,4.8-8.3,6.5-2.1,1.7-5.6,4.8-7.9,6.7-2.1,1.9-5.8,5.6-8.1,7.9-2.3,2.3-5.2,5.4-6.5,6.9-1.3,1.5-3.8,4.4-5.6,6.5s-4.6,5.8-6.3,8.1-4.6,6.3-6.5,9c-1.7,2.7-4.6,6.9-6.2,9.4s-3.7,6.3-4.8,8.3-2.7,5-3.5,6.5c-.8,1.5-2.3,4.8-3.5,7.3s-2.9,6.7-4,9.4c-1,2.7-2.7,6.9-3.5,9.4-1,2.5-2.1,6.5-2.9,8.8s-1.7,6.3-2.3,8.8c-.6,2.5-1.5,6-1.9,7.9s-1,5.4-1.5,7.9c-.4,2.5-1,6.2-1.3,8.5-.4,2.3-.8,6.3-1,9.2-.4,4-.6,7.9-.6,18.5s0,14.4.6,18.5c.2,2.9.8,6.9,1,9.2s.8,6.2,1.3,8.5c.4,2.5,1.2,6,1.5,7.9s1.2,5.4,1.9,7.9c.6,2.5,1.7,6.5,2.3,8.8.8,2.3,1.9,6.3,2.9,8.8s2.5,6.7,3.5,9.4c1,2.5,2.9,6.7,4,9.4,1.2,2.5,2.7,6,3.5,7.5.8,1.5,2.3,4.4,3.5,6.5,1.2,2.1,3.3,5.8,4.8,8.3s4.2,6.7,6.2,9.4c1.7,2.7,4.6,6.7,6.5,9,1.7,2.3,4.6,6,6.3,8.1,1.7,2.1,4.2,5,5.6,6.5,1.3,1.5,4.2,4.6,6.5,6.9,2.3,2.3,6,5.8,8.1,7.9,2.1,1.9,5.8,5,7.9,6.7s5.8,4.6,8.3,6.5c2.5,1.7,6.9,5,10,6.9,3.1,2.1,7.3,4.8,9.4,6,2.1,1.3,5.2,3.1,6.9,4s5.6,2.9,8.5,4.4,7.7,3.7,10.6,4.8,7.5,3.1,10.2,4,7.3,2.5,10.4,3.5c2.9,1,7.9,2.3,11,3.1,3.1.8,7.9,1.9,10.8,2.5s7.7,1.3,11,1.9c3.3.4,8.1,1,10.6,1.3,2.5.2,7.9.6,11.5.8,3.8,0,9.6.2,12.7,0,3.3,0,7.7-.4,10-.4s6-.6,8.3-.8c2.1-.2,5.8-.8,8.1-1,2.3-.4,6.2-1,8.7-1.3s6.3-1.3,8.8-1.7c2.3-.6,6.2-1.5,8.5-2.1s6.7-1.9,9.8-3.1c3.1-1,7.9-2.7,10.6-3.7s7.1-2.9,10-4.2,6.7-3.1,8.5-4,4.8-2.5,6.7-3.5,5.4-3.1,7.9-4.4,6.5-4,9.4-6c2.7-1.7,7.1-5,9.8-6.9,2.7-1.9,6.5-5,8.5-6.7,2.1-1.7,5.2-4.4,6.9-6,1.7-1.5,5.4-5.2,8.1-7.9,2.7-2.7,6.3-6.5,8.1-8.5s4.4-5,5.8-6.7,4.2-5.2,6.2-7.9c1.9-2.7,4.6-6.3,5.8-8.3s3.5-5.2,4.8-7.5,3.5-5.8,4.6-7.9c1.2-2.1,3.3-6,4.4-8.5,1.3-2.5,3.1-6.5,4-8.7s2.7-6.2,3.7-8.8c1-2.7,2.9-7.7,4-11,1.2-3.5,2.7-8.7,3.5-11.5s1.9-7.5,2.5-10,1.5-7.3,1.9-10.4c.6-3.1,1.2-7.9,1.5-10.6.4-2.7.8-6.9,1-9.2.2-2.5.4-8.8.4-15.8s0-13.1-.4-15.8c-.2-2.3-.6-6.5-1-9.2s-1-7.1-1.3-10c-.4-2.7-1.2-6.9-1.7-9.2-.4-2.3-1.5-6.7-2.3-9.6-.8-3.1-2.1-7.7-3.1-10.4s-2.3-7.1-3.3-9.6-2.7-7.1-4-10-3.5-7.9-5-11c-1.5-3.1-3.7-7.3-5-9.4-1.2-2.1-3.3-5.8-4.8-8.1-1.3-2.3-3.7-5.6-4.8-7.5-1.3-1.9-3.8-5.6-5.8-8.3s-4.8-6.2-6.2-7.9-4-4.8-5.8-6.7c-1.7-2.1-5.4-5.8-8.1-8.5s-6.3-6.2-8.1-7.7-5-4.2-6.9-6c-1.9-1.7-5.6-4.6-8.1-6.3-2.5-1.7-6-4.4-7.9-5.8s-5-3.3-6.7-4.4-5-3.1-7.3-4.4-6.3-3.7-9-5c-2.7-1.3-7.1-3.5-9.8-4.8-2.7-1.3-7.1-3.1-9.6-4s-6.9-2.7-9.8-3.7-7.1-2.3-9.4-3.1c-2.5-.8-6.2-1.7-8.3-2.3-2.1-.6-6.3-1.5-9.4-2.1-3.1-.6-7.3-1.3-9.4-1.7-2.1-.4-5.6-.8-7.7-1s-6.2-.6-9-.8-8.8-.4-13.1-.6h-12.7l.4-.4Z"/>
  <g class="st10">
    <path class="st3" d="M382.9-6.7h-3.7c0,1.3,1.5,1.7,2.9.6.2,0,.4-.4.6-.6h.2ZM152.3-6.7h-3.7c0,1.3,1.5,1.7,2.9.6.2,0,.4-.4.6-.6h.2ZM291.5-6.7h-18.8c6.5,2.1,13.5,2.9,16.3,2.3,2.1-.4,2.9-1.3,2.7-2.3h-.2ZM61-6.7h-18.8c6.5,2.1,13.5,2.9,16.3,2.3,2.1-.4,2.9-1.3,2.7-2.3h-.2ZM127.1-6.7h-3.5c-1,1-2.1,1.9-4.4,2.5-3.8.8-3.5,3.5.6,2.7,2.9-.6,6-2.9,7.3-5.2h0ZM357.5-6.7h-3.5c-1,1-2.1,1.9-4.4,2.5-3.8.8-3.5,3.5.6,2.7,2.9-.6,6-2.9,7.3-5.2h0ZM447.7-6.7h-9.6c2.3,1.7,6.3,4.4,11.3,7.1v-6c-.6-.4-1.2-.8-1.7-1.2ZM144.6.2c-.8.8-1.9,1.2-2.7.8-.8-.2-1-1,0-2.5,2.3-2.9,5.4-1.3,2.5,1.5l.2.2ZM375.2.2c-.8.8-1.9,1.2-2.7.8-.8-.2-1-1,0-2.5,2.3-2.9,5.4-1.3,2.5,1.5l.2.2ZM259.2-6.7h-15.4c9.4,4.4,29.2,11.3,47.1,10.4,3.8-.2,4.2-3.5-.8-3.5s-17.9-1.9-31-6.7v-.2ZM28.7-6.7h-15.4C22.7-2.3,42.5,4.7,60.4,3.7c3.8-.2,4.2-3.5-.8-3.5s-17.9-1.9-31-6.7v-.2ZM235.6-6.7h-10.4c8.5,5,23.5,12.1,32.1,13.3,3.3.4,5.4-2.1,1-3.1-6.7-1.5-18.5-7.1-22.3-9.8,0,0-.2,0-.4-.2v-.2ZM5-6.7H-5.4C3.1-1.7,18.1,5.4,26.7,6.6c3.3.4,5.4-2.1,1-3.1C21,2,9.2-3.6,5.4-6.3c0,0-.2,0-.4-.2v-.2ZM77.3,5.6c0,1.2-.8,1.7-1.3,1.7s-1.2-.8-1-2.1c0-1.9,2.7-2.3,2.3.4ZM307.9,5.6c0,1.2-.8,1.7-1.3,1.7s-1.2-.8-1-2.1c0-1.9,2.7-2.3,2.3.4ZM370.6-6.7h-5.2c-5.6,7.9-11,10.4-15.8,10.8-3.7.2-3.8,4.2,0,4,8.3-.2,14.8-6.5,18.8-12.3.6-.8,1.2-1.5,1.9-2.5h.2ZM140-6.7h-5.2c-5.6,7.9-11,10.4-15.8,10.8-3.7.2-3.8,4.2,0,4,8.3-.2,14.8-6.5,18.8-12.3.6-.8,1.2-1.5,1.9-2.5h.2ZM432.5-6.7h-8.3c7.5,8.3,16.7,14,25.2,17.3v-5.2c-5.2-2.7-12.5-6.7-16.2-10.8-.4-.4-.8-1-1-1.3h.2ZM-11.5-5.5V.4c6.9,3.8,15.6,7.9,23.1,9.8,4.2,1.2,6.2-1.9,1.9-3.3C6.9,4.8-5.2-1.5-11.5-5.5ZM217.1-6.7h-9.6c5.4,4.2,21.5,13.7,34.6,17.1,4.2,1.2,6.2-1.9,1.9-3.3-7.3-2.3-21.2-9.8-26.7-13.8h-.2ZM201.9-6.7h-8.3c8.1,9,18.3,15,27.1,17.9,4,1.3,7.1-1.3,1.9-3.8-4.4-2.3-15.2-7.5-19.8-12.7-.4-.4-.8-1-1-1.3ZM-11.5,5.4v5.2c.6.2,1.2.4,1.9.6,4,1.3,7.1-1.3,1.9-3.8-1-.6-2.3-1.2-3.8-1.9ZM267.1,9.1c-3.7-1-2.3-3.8,1.2-3.3,10.6,2.3,18.5,2.9,23.1,2.3,3.3-.4,4.6,3.5.4,3.8-3.3.4-14.2,0-24.4-2.9h-.2ZM36.6,9.1c-3.7-1-2.3-3.8,1.2-3.3,10.6,2.3,18.5,2.9,23.1,2.3,3.3-.4,4.6,3.5.4,3.8-3.3.4-14.2,0-24.4-2.9h-.2ZM420.2,12.3c-2.5,0-2.3-2.7.8-2.7s6.3,2.3,7.3,3.8c.8,1.5-.2,2.9-1.5,1.5-1.5-1.3-3.1-2.7-6.3-2.7h-.2ZM189.8,12.3c-2.5,0-2.3-2.7.8-2.7s6.3,2.3,7.3,3.8c.8,1.5-.2,2.9-1.5,1.5-1.5-1.3-3.1-2.7-6.3-2.7h-.2ZM251.9,13.7c-2.5-1.3-1.3-3.8.8-3.1,2.9,1,8.7,4,22.7,5.2,3.5.2,2.9,3.3-.6,3.5-5.4,0-16-2.1-22.7-5.6h-.2ZM21.4,13.7c-2.5-1.3-1.3-3.8.8-3.1,2.9,1,8.7,4,22.7,5.2,3.5.2,2.9,3.3-.6,3.5-5.4,0-16-2.1-22.7-5.6h-.2ZM53.5,19.1c-2.7-.4-2.3-2.9.6-2.7,2.7,0,7.7-.4,9.6-.8,2.7-.8,3.7,1.7.4,2.9-2.5.8-7.1,1.2-10.6.6ZM284,19.1c-2.7-.4-2.3-2.9.6-2.7,2.7,0,7.7-.4,9.6-.8,2.7-.8,3.7,1.7.4,2.9-2.5.8-7.1,1.2-10.6.6ZM235,12.7c-1.7-1-4.2,1.7-1.3,3.7s17.9,6.9,21.2,7.1c3.3.2,5-2.9,1.3-3.5-3.7-.6-16.3-4.8-21.2-7.3ZM4.4,12.7c-1.7-1-4.2,1.7-1.3,3.7s17.9,6.9,21.2,7.1c3.3.2,5-2.9,1.3-3.5-3.7-.6-16.3-4.8-21.2-7.3ZM-11.5,17.9v7.5c.6-1,.8-2.3,1-3.7,0-1.3-.2-2.7-1-3.8ZM130.4,25c-3.3,1.7-2.1,3.7,1.7,2.3,7.9-2.7,14.2-8.1,22.9-16.5C165.2,1,178.5-1.1,184.8.6c4.2,1.2,6.2-2.1,1.2-3.8-6.7-2.3-23.8.6-34,11.7-7.9,8.7-16,13.5-21.9,16.5h.4ZM361,25c-3.3,1.7-2.1,3.7,1.7,2.3,7.9-2.7,14.2-8.1,22.9-16.5,10.2-9.8,23.5-11.9,29.8-10.2,4.2,1.2,6.2-2.1,1.2-3.8-6.7-2.3-23.8.6-34,11.7-7.9,8.7-16,13.5-21.9,16.5h.4ZM296.9,22.5c2.7-.8,4,2.3-.2,3.7-5.8,1.7-20,3.1-33.1-.8-2.1-.6-2.5-4.4,1.3-3.3,5,1.5,19.8,3.7,31.9.2v.2ZM66.4,22.5c2.7-.8,4,2.3-.2,3.7-5.8,1.7-20,3.1-33.1-.8-2.1-.6-2.5-4.4,1.3-3.3,5,1.5,19.8,3.7,31.9.2v.2ZM328.3,26.2c3.1.4,2.3,3.5-1,3.1-13.3-1.7-20.4-12.3-21.2-16.3-.4-2.3,1.9-2.9,2.7-1,1,2.7,7.3,13.1,19.2,14.2h.2ZM97.7,26.2c3.1.4,2.3,3.5-1,3.1-13.3-1.7-20.4-12.3-21.2-16.3-.4-2.3,1.9-2.9,2.7-1,1,2.7,7.3,13.1,19.2,14.2h.2ZM449.4,25.4v-7.5c-2.1-3.8-7.9-6.2-14.2-4.8-2.3.6-2.9-.6-3.3-1.2-2.7-3.8-7.5-7.1-16-6.7-10.8.6-15.8,6.2-17.5,8.5-1.9,2.5.6,3.5,1.7,2.3,5.8-5.6,11.7-6,13.3-5.8,2.3,0,1.9,1.9.4,2.3-2.1.4-5.4,2.1-6.9,3.7-2.1,2.1,0,3.3,1.2,2.1,1.5-1.3,5-3.1,6.9-3.1s2.7,1.3.8,1.9c-1.5.4-3.5,1.9-4.2,3.1-.8,1,0,2.7,1.7,1.3,3.1-2.3,8.3-3.3,11.2,0,2.3,2.5.4,5.8-1.5,6.5-1.2.6-2.1.2-1.3-.8,3.5-4-6.5-6.2-5.2,1,1,5.2,9.4,5.6,13.1-.4,1.9-3.1,1.7-6.2,4.4-8.1,3.5-2.5,11.9-1.7,12.3,3.8,0,1.7-1.7,2.3-2.5.8-1.2-2.7-4.8-2.3-6,1.2-.8,2.5,1.2,4.8,5.2,4.6,1.9,0,5-1.7,6.3-4.8h.2ZM191,27.3c3.5-4-6.5-6.2-5.2,1,1,5.2,9.4,5.6,13.1-.4,1.9-3.1,1.7-6.2,4.4-8.1,3.5-2.5,11.9-1.7,12.3,3.8,0,1.7-1.7,2.3-2.5.8-1.2-2.7-4.8-2.3-6,1.2-.8,2.5,1.2,4.8,5.2,4.6,2.7,0,7.1-3.1,7.3-8.3.4-6-6.7-10.4-15.2-8.7-2.3.6-2.9-.6-3.3-1.2-2.7-3.8-7.5-7.1-16-6.7-10.8.6-15.8,6.2-17.5,8.5-1.9,2.5.6,3.5,1.7,2.3,5.8-5.6,11.7-6,13.3-5.8,2.3,0,1.9,1.9.4,2.3-2.1.4-5.4,2.1-6.9,3.7-2.1,2.1,0,3.3,1.2,2.1,1.5-1.3,5-3.1,6.9-3.1s2.7,1.3.8,1.9c-1.5.4-3.5,1.9-4.2,3.1-.8,1,0,2.7,1.7,1.3,3.1-2.3,8.3-3.3,11.2,0,2.3,2.5.4,5.8-1.5,6.5-1.2.6-2.1.2-1.3-.8l.2-.2ZM400.4-6.7h-10.4c-4.4,2.3-9,5.8-13.8,10.8-7.7,8.1-20.2,15.8-29.8,16.9-3.1.4-2.7-2.3,0-2.9,3.8-.6,16-5,21.9-11.7,1.7-1.9-.4-3.8-2.7-1.7-4.6,4.4-14.8,9.2-25.8,10.2-7.3.6-14.8-3.3-12.7-10.6,1.5-5.4,7.9-5.2,10.2-3.5,2.7,1.9,2.1,4.2,1.7,5-.6,1.3-2.7,1.7-2.1,0,.8-2.7-2.3-3.7-4.4-2.3-2.1,1.3-1.7,4.8.8,6,4.4,2.1,9.8-1,10.2-5.6.4-3.8-3.1-9.2-11.2-8.3-3.3.4-6-.6-7.1-2.7h-10.8s-.2,0-.4.2c-2.5,1.2-6.3,1.5-8.8-.2h-7.1c.8,2.3,2.3,4,4.2,5,.8.4,1.3.6.6,2.3-3.8,8.1-3.1,20.8,13.5,29.2,15,7.7,32.9,2.7,37.1.8,3.1-1.5,2.5-3.8-1.3-2.5-6.9,2.1-11.5,2.3-14,1.9-3.5-.6-2.7-3.3,1.2-3.5,7.9-.2,23.8-2.7,39-18.8,7.3-7.7,15.8-12.3,22.3-14.4l-.2.4ZM170-6.7h-10.4c-4.4,2.3-9,5.8-13.8,10.8-7.7,8.1-20.2,15.8-29.8,16.9-3.1.4-2.7-2.3,0-2.9,3.8-.6,16-5,21.9-11.7,1.7-1.9-.4-3.8-2.7-1.7-4.6,4.4-14.8,9.2-25.8,10.2-7.3.6-14.8-3.3-12.7-10.6,1.5-5.4,7.9-5.2,10.2-3.5,2.7,1.9,2.1,4.2,1.7,5-.6,1.3-2.7,1.7-2.1,0,.8-2.7-2.3-3.7-4.4-2.3-2.1,1.3-1.7,4.8,1,6,4.4,2.1,9.8-1,10.2-5.6.4-3.8-3.1-9.2-11.2-8.3-3.3.4-6-.6-7.1-2.7h-10.8s-.2,0-.4.2c-2.5,1.2-6.3,1.5-8.8-.2h-7.1c.8,2.3,2.3,4,4.2,5s1.3.6.6,2.3c-3.8,8.1-3.1,20.8,13.5,29.2,15,7.7,32.9,2.7,37.1.8,3.1-1.5,2.5-3.8-1.3-2.5-6.9,2.1-11.5,2.3-14,1.9-3.5-.6-2.7-3.3,1.2-3.5,7.9-.2,23.8-2.7,39-18.8,7.3-7.7,15.8-12.3,22.3-14.4l-.4.4ZM-11.5,34.3v4.6c6.2-6.2,14.6-10.4,21.7-10.6,2.5,0,2.3-2.3-.8-2.5-5-.2-14.4,2.7-21.2,8.3l.2.2ZM449.4,38.9v-4.6c-1.3,1.2-2.5,2.3-3.5,3.5-2.1,2.7,0,4.8,1.9,2.7.6-.6,1-1.2,1.5-1.5ZM217.5,40.6c-1.9,2.1-4,0-1.9-2.7,6.3-8.1,18.7-12.1,24.4-11.9,3.1,0,3.3,2.5.8,2.5-7.9,0-16.9,5.2-23.3,12.1h0ZM256.7,35.8c-1.9-.6-1.9-2.5,1.3-2.3,3.1.2,9.8,3.3,12.3,7.3,1.2,1.9-.8,3.1-2.1,1.5-1.3-1.7-5.4-5-11.5-6.5h0ZM26.2,35.8c-1.9-.6-1.9-2.5,1.3-2.3,3.1.2,9.8,3.3,12.3,7.3,1.2,1.9-.8,3.1-2.1,1.5-1.3-1.7-5.4-5-11.5-6.5ZM-11.5,42.9v5.8c8.1-4.2,28.7-15.2,44.6-1.5,1.9,1.7,4,0,2.1-2.3-2.5-3.1-12.9-10-26.7-7.1-1.7.4-2.9-1.3-.6-2.3,3.8-1.5,8.7-1,10.6-.8,2.5,0,3.1-1.9,0-2.7-8.3-1.9-19.4,1.2-30.2,11h.2ZM396.1,47.9c.2,1.5,1.7,1.2,1.7-.6s1-4.6,1.7-6c.8-1.3-1.2-2.7-2.5-.2-1.3,2.5-1.3,5.8-1.2,6.7h.2ZM165.6,47.9c.2,1.5,1.7,1.2,1.7-.6s1-4.6,1.7-6c.8-1.3-1.2-2.7-2.5-.2-1.3,2.5-1.3,5.8-1.2,6.7h.2ZM171.4,50.6c.4,1.5,2.1,1.3,1.9-.4,0-2.9.8-6.5,2.1-8.7,1.3-2.3-1.2-3.1-2.7,0-1.3,2.3-1.9,6.7-1.3,9h0ZM401.9,50.6c.4,1.5,2.1,1.3,1.9-.4,0-2.9.8-6.5,2.1-8.7,1.3-2.3-1.2-3.1-2.7,0-1.3,2.3-1.9,6.7-1.3,9h0ZM256,51.2c-1-1-1.2-2.1-.6-2.7.6-.6,1.7-.8,3.7.6,3.8,2.7.8,5.4-3.1,2.1h0ZM25.4,51.2c-1-1-1.2-2.1-.6-2.7.6-.6,1.7-.8,3.7.6,3.8,2.7.8,5.4-3.1,2.1ZM166.5,53.3c.4.8,1,1.2,1.5,1,.6,0,.8-.8.6-1.9-.6-2.1-2.9-1.2-1.9,1h-.2ZM397.1,53.3c.4.8,1,1.2,1.5,1,.6,0,.8-.8.6-1.9-.6-2.1-2.9-1.2-1.9,1h-.2ZM210.8,52.3c2.1-1.2,3.3.4,1.3,1.7-5.2,3.8-12.9,3.8-15.6.8-1.3-1.5,0-2.7,1.3-1.5,2.3,1.7,7.7,2.1,12.7-.8l.2-.2ZM441.1,52.3c2.1-1.2,3.3.4,1.3,1.7-5.2,3.8-12.9,3.8-15.6.8-1.3-1.5,0-2.7,1.3-1.5,2.3,1.7,7.7,2.1,12.7-.8l.2-.2ZM392.9,46.8c0-1.7-2.7-1.9-2.9.8s1.3,7.3,2.3,8.7c1.2,1.7,2.9.6,2.1-.8-.8-1.5-1.7-5-1.5-8.7ZM162.3,46.8c0-1.7-2.7-1.9-2.9.8s1.3,7.3,2.3,8.7c1.2,1.7,2.7.6,2.1-.8-.8-1.5-1.7-5-1.5-8.7ZM157.7,57.9c.6.6,1.3.8,1.7.4.4-.4.6-1,0-1.9-1.3-1.7-3.1-.2-1.5,1.5h-.2ZM388.3,57.9c.6.6,1.3.8,1.7.4s.6-1,0-1.9c-1.3-1.7-3.1-.2-1.5,1.5h-.2ZM-11.5,51.2v8.3c9.8-3.5,23.8-8.1,31.7-2.9,2.3,1.5,4.4-.6,2.1-2.7-2.5-2.5-11.2-5.4-19.8-2.1-2.5,1-3.5-1-.2-2.5,3.7-1.9,11.5-3.1,17.3-1,2.9,1.2,3.8-1.3,1.2-2.9-11-5.6-28.7,4.4-31.9,5.8h-.4ZM449.4,59.3v-8.3c-2.1.6-2.7-1.2-.6-2.3l.6-.4v-5.8c-.2,0-.4.4-.6.6-8.7,8.1-15,9.2-20.2,7.1-4.6-1.9-3.7-7.7.8-9.4,2.3-.8,2.9.4,2.5,1.2-1.7,3.5,1.9,5.2,4.8,4,3.5-1.2,5-7.1-1.2-10-7.7-3.5-20,4.8-17.7,15.4,2.1,9.2,13.7,12.9,23.7,10.2,1.9-.6,4.8-1.5,7.9-2.7v.4ZM201.5,42.3c.4-.8-.2-2.1-2.5-1.2-4.4,1.7-5.4,7.5-.8,9.4,5.2,2.1,11.3,1,20.2-7.1,11-10.2,22.3-13.3,30.8-11.5,3.1.8,2.5,2.9,0,2.7-2.1,0-6.9-.8-10.6.8-2.3,1-1.3,2.7.6,2.3,14-2.9,24.4,4,26.7,7.1,1.9,2.5,0,4-2.1,2.3-16.3-14-37.5-2.3-45.2,1.7-2.1,1.2-1.5,3.1,1,2.1,3.3-1.3,21-11.3,31.9-5.8,2.7,1.3,1.7,3.8-1.2,2.9-5.6-2.1-13.5-1-17.3,1-3.3,1.7-2.3,3.5.2,2.5,8.7-3.3,17.3-.4,19.8,2.1,2.3,2.1,0,4.2-2.1,2.7-10.4-6.7-31.7,3.5-39.8,5.6-9.8,2.7-21.5-1-23.7-10.2-2.3-10.6,10-19,17.7-15.4,6.2,2.9,4.6,8.8,1.2,10-3.1,1.2-6.5-.6-4.8-4h0ZM6,64.6c-2.1,0-2.5-3.3,1.3-3.7,5-.6,11,.2,14,1.9,3.7,2.1,1,4.8-1,3.7-4.2-2.3-9.8-2.3-14.4-1.9ZM236.5,64.6c-2.1,0-2.5-3.3,1.3-3.7,5-.6,11,.2,14,1.9,3.7,2.1,1,4.8-1,3.7-4.2-2.3-9.8-2.3-14.4-1.9ZM-11.5,63.3v4.4c2.5-.8,5.2-1.5,7.9-1.9,4.2-.8,4-4,0-3.8-2.1,0-5,.6-7.9,1.5v-.2ZM413.5,70c-2.5.6-3.5-2.1-1.2-2.5,2.7-.4,5.2-3.3,7.5-4,2.5-.8,2.7,1.5.6,2.3-1.3.4-4.4,3.7-6.9,4.2h0ZM182.9,70c-2.5.6-3.5-2.1-1.2-2.5,2.7-.4,5.2-3.3,7.5-4,2.5-.8,2.7,1.5.6,2.3-1.3.4-4.4,3.7-6.9,4.2h0ZM321.7,71.2c1.2,1.3,3.7,1,2.3-1.3-1.7-2.9-4-10.4,2.3-17.1,1.7-1.9,3.7-.6,1.9,1.5-2.1,2.3-3.5,6.2-3.1,8.1s2.7,2.1,2.7,0c0-3.1,1.9-6.3,5-8.3,2.3-1.3,2.5-2.3,0-4.4-2.9-2.5-2.3-6.7,1.5-8.5,3.3-1.5,5.2-.2,6,.6,1.3,1.3-.2,2.5-1.3,1.7-1-.8-3.7,0-4.2,1.9s1.7,4.2,5.2,3.8c3.8-.4,6.5-4.6,3.7-8.8-2.7-3.8-11.7-3.7-17.5,1.7-7.9,7.5-10.8,21.2-4.4,28.8v.2ZM91.2,71.2c1.2,1.3,3.7,1,2.3-1.3-1.7-2.9-4-10.4,2.3-17.1,1.7-1.9,3.7-.6,1.9,1.5-2.1,2.3-3.5,6.2-3.1,8.1.4,1.9,2.7,2.1,2.7,0,0-3.1,1.9-6.3,5-8.3,2.3-1.3,2.5-2.3,0-4.4-2.9-2.5-2.3-6.7,1.5-8.5,3.3-1.5,5.2-.2,6,.6,1.3,1.3-.2,2.5-1.3,1.7-1-.8-3.7,0-4.2,1.9-.6,1.9,1.7,4.2,5.2,3.8,3.8-.4,6.5-4.6,3.7-8.8-2.7-3.8-11.5-3.7-17.5,1.7-7.9,7.5-10.8,21.2-4.4,28.8v.2ZM146,71c1,0,1.5,0,1.3.6,0,.4-.6.8-1.5,1-1.3.2-1.9-1.2,0-1.5h.2ZM376.3,71c1,0,1.5,0,1.3.6,0,.4-.6.8-1.5,1-1.3.2-1.9-1.2,0-1.5h.2ZM83.5,71.8c1.7,2.3,5.6,1.3,3.3-1-2.7-2.9-2.9-8.1-2.3-11.5.4-2.9-1.3-2.9-2.5-.4-1.5,3.5-1.2,9.6,1.5,13.1v-.2ZM314,71.8c1.7,2.3,5.6,1.3,3.3-1-2.7-2.9-2.9-8.1-2.3-11.5.4-2.9-1.3-2.9-2.5-.4-1.5,3.5-1.2,9.6,1.5,13.1v-.2ZM225,74.6c-3.8,1.3-4.6-2.3-1.3-3.7,4.4-1.7,15.2-3.8,23.3-.8,3.7,1.3,2.1,4-1,3.3-4.4-1-12.1-1.7-21,1.2h0ZM-5.6,74.6c-3.8,1.3-4.6-2.3-1.3-3.7,4.4-1.7,15.2-3.8,23.3-.8,3.7,1.3,2.1,4-1,3.3-4.4-1-12.1-1.7-21,1.2ZM79.4,71.6c-.6-.8-1.3-.8-1.7-.6-.4.4-.6,1.2,0,2.3,1.5,2.9,4.4,1.3,1.7-1.7ZM310,71.6c-.6-.8-1.3-.8-1.7-.6-.4.4-.6,1.2,0,2.3,1.5,2.9,4.4,1.3,1.7-1.7ZM63.5,73.3c0,1.7,2.5,2.9,3.1-.8,1.3-8.7-6.5-14.4-9.6-15.6-2.1-.8-2.3,1.2-.4,2.3,1.9,1.2,7.3,5.2,7.1,14h-.2ZM294,73.3c0,1.7,2.5,2.9,3.1-.8,1.3-8.7-6.5-14.4-9.6-15.6-2.1-.8-2.3,1.2-.4,2.3,1.9,1.2,7.3,5.2,7.1,14h-.2ZM375.6,74.8c2.7-1,2.5,1.2,0,1.9-3.8,1.3-7.1,1.2-9-.8-1.7-1.5,0-2.7,1.3-1.5,1.7,1.3,5.4,1.2,7.7.4ZM145,74.8c2.7-1,2.5,1.2,0,1.9-3.8,1.3-7.1,1.2-9-.8-1.7-1.5,0-2.7,1.3-1.5,1.7,1.3,5.4,1.2,7.7.4ZM426.5,69.8c2.1-1,1.3-3.3-1.7-2.5-5.8,1.3-10,8.1-16,6.5-2.3-.6-3.7,2.5-1,3.3,6.7,2.3,11.7-4.2,18.8-7.3h-.2ZM196,69.8c2.1-1,1.3-3.3-1.7-2.5-5.8,1.3-10,8.1-16,6.5-2.3-.6-3.7,2.5-1,3.3,6.7,2.3,11.7-4.2,18.8-7.3h-.2ZM241.2,80.8c-1.9-.4-2.9-1.3-2.7-2.3s1.5-1.5,4.2-1.3c4.6.6,4,4.4-1.5,3.5v.2ZM10.6,80.8c-1.9-.4-2.9-1.3-2.7-2.3s1.5-1.5,4.2-1.3c4.6.6,4,4.4-1.5,3.5v.2ZM-11.5,80.4v4.6c3.5-1.5,6.9-2.7,10.2-3.1,4.6-.8,4.4-4.8-.2-4.4-2.7.2-6.2,1.3-10,3.1v-.2ZM66.6,82.9c0-1.3-.8-1.9-1.7-1.9s-1.9.8-1.9,2.1c-.2,3.3,3.3,2.9,3.7-.2ZM297.1,82.9c0-1.3-.8-1.9-1.7-1.9s-1.9.8-1.9,2.1c-.2,3.3,3.3,2.9,3.7-.2ZM-11.5,88.7v4.4c6-2.7,12.9-4.6,21.5-4,4,.2,5-3.8.8-4.4-7.5-1.2-15.4.8-22.3,3.8v.2ZM94.2,99.3c.6,1.2,1.7,1.3,2.5,1s1.2-1.5.6-2.7c-1.5-2.9-4.6-1-3.1,1.7ZM324.8,99.3c.6,1.2,1.7,1.3,2.5,1,.8-.4,1.2-1.5.6-2.7-1.5-2.9-4.6-1-3.1,1.7ZM-11.5,98.3v4.8c3.7-1.7,7.5-3.3,12.1-4,5.8-1.2,5.2-4.8-.6-4-4,.6-7.9,1.7-11.5,3.3ZM449.4,93.3v-4.4c-11.7,5-21.5,13.1-25.4,14-4.2,1.2-2.3,3.8,0,3.3,8.5-2.3,16-8.7,25.4-12.7v-.2ZM193.7,106c-2.3.6-4.2-2.1,0-3.3,6.3-1.7,27.9-21.2,47.9-17.9,4.2.6,3.3,4.6-.8,4.4-22.1-1.3-33.1,12.9-46.9,16.7h-.2ZM230.8,107.5c-1.7,0-2.7-.6-2.9-1.5,0-1,.8-1.9,2.9-2.1,3.8-.6,4.8,3.3,0,3.7ZM.2,107.5c-1.7,0-2.7-.6-2.9-1.5,0-1,.8-1.9,2.9-2.1,3.8-.6,4.8,3.3,0,3.7ZM155.8,103.9c1.9,1.3,2.7,2.9,2.3,3.7-.4.8-1.9,1-4.6-.4-6.2-3.5-3.1-6.7,2.1-3.3h.2ZM386.3,103.9c1.9,1.3,2.7,2.9,2.3,3.7s-1.9,1-4.6-.4c-6.2-3.5-3.1-6.7,2.1-3.3h.2ZM-11.5,107.5v4.4c1.2-.6,2.1-1,3.1-1.2,3.8-1.2,3.5-5-1-4-.6,0-1.3.4-2.1.8ZM310.2,112.3c1,1.7-1.7,3.8-3.5,1.3-3.1-4.2-5-11-4.8-16,0-3.3,3.8-4.2,4-1,.4,5.4,1.7,10.6,4.2,15.4v.2ZM79.6,112.3c1,1.7-1.7,3.8-3.5,1.3-3.1-4.2-5-11-4.8-16,0-3.3,3.8-4.2,4-1,.4,5.4,1.7,10.6,4.2,15.4v.2ZM409,117.9c2.9-.2,4,2.3-.8,3.3-3.7.8-15.8.2-23.3-3.8-2.9-1.5-1.3-4.2,1.2-3.1,6,2.7,12.7,4.6,22.7,3.7h.2ZM178.5,117.9c2.9-.2,4,2.3-.8,3.3-3.7.8-15.8.2-23.3-3.8-2.9-1.5-1.3-4.2,1.2-3.1,6,2.7,12.7,4.6,22.7,3.7h.2ZM319,100.8c-1.2-3.3-5.4-2.1-4.2,2.3,2.9,9.6,11,18.1,16.7,21.7,2.5,1.5,5.6-1,1.9-3.5-3.1-2.1-10.6-9.4-14.4-20.6ZM88.5,100.8c-1.2-3.3-5.4-2.1-4.2,2.3,2.9,9.6,11,18.1,16.7,21.7,2.5,1.5,5.6-1,1.9-3.5-3.1-2.1-10.6-9.4-14.4-20.6ZM-11.5,122.5v2.9h0c2.5-.4,2.5-2.5,0-2.9ZM172.9,33.3c1.5-1.3.4-3.7-2.3-3.1-2.3.6-3.8,5.8,1.7,6.7,6,1.2,14.6-8.8,4.2-15.6-10.4-6.9-18.3.2-20,2.1-1.2,1.3-2.9,1.3-4.8,1.3s-9.4-1.2-15.8,8.5c-1,1.5-1.5,1.3-3.3,1.5-4,.6-13.5,3.7-14.6,15.6,0,1.3-.8,2.3-1.9,2.9-8.5,5.2-17.5,27.1,0,46.7,19.6,22.1,49.4,27.1,63.1,25.6,24.4-2.5,34.4-12.7,42.9-15.2,3.8-1.2,3.5-5-1-4-6,1.3-16.7,10.4-30.8,12.7-3.8.6-5.2-2.1-1-3.3,19.8-5,26.5-14.6,41.5-17.3,5.8-1.2,5.2-4.8-.6-4-13.8,1.7-23.7,11.3-36.7,15-9.6,2.7-17.1,5.4-28.5,1.5-2.5-.8-1.3-4.4,1.5-3.5,3.5,1.3,10.2,1.9,16.3.2,3.8-1,2.7-4-.2-3.3-7.3,1.7-18.8-.4-23.1-4.2-4-3.3,0-5,2.5-3.1s17.1,8.5,32.9-.2c9.8-5.2,22.9-14.2,34-16,4.6-.8,4.4-4.8-.2-4.4-7.3.6-19.6,7.3-34.2,16-8.5,5-18.5,6-27.5,2.3-3.8-1.5-1.2-4.4,1.5-3.5,5.6,1.9,14.6,2.3,24.6-2.9,7.1-3.8,14.4-8.5,22.3-11.9,4.2-1.9,2.9-4.8-.6-3.7-6.9,2.1-13.1,7.1-20.8,10.4-2.9,1.2-4.4-1.2-2.1-2.7,9-5.6,21-13.5,34.4-15.6,4.2-.8,4-4,0-3.8-8.1.4-23.1,6.7-35.6,15.2-5.2,3.7-11.7,6.5-18.8,2.7-1.7-1-4.4,1-1.9,2.9,3.1,2.3,8.5,2.9,12.7,2.1,4-.8,4,2.1,0,2.9-7.3,1.7-16.5-1.3-21-6.9-4.2-5.8-.4-13.8,4.4-14.4,5.2-.6,6.3,2.9,5,4.6-.6.8-1.3.6-1.5,0-.8-1.7-4.6-1.5-4.4,1.9.4,2.9,5.2,3.8,8.5.2,3.5-3.7.8-7.9,0-9.2-1-1.3-.8-4.2,2.7-5.8,2.7-1.2,5.2.8,5.2,2.5s-.8,1.2-1.5.8c-1.9-.8-4,1.5-1.9,3.3,2.3,1.9,7.9-1.2,6-6.2-1.3-3.5-5.6-5.2-9.6-3.8-2.5.8-4.4,3.1-5,3.8-.8,1-1.2,1.3-1.7,1.3-1.2,0-9-1-14.4,5.2-3.7,4-4,7.7-4.2,10.4,0,1-.4,1.7-.8,2.1-3.1,3.8-15,6-20-1.7-4.8-7.3,1.9-12.5,5.2-12.9,3.1-.4,6.9,2.5,3.7,5.6-.6.6-1.3.2-1-.4.8-1.9-3.1-2.7-3.7,0-1,4,6.2,6.2,10,2.3s.8-10.6-3.8-12.1c-2.7-1-2.3-9.4,4-10.8,6.7-1.5,9.4,3.8,6,7.1-1.2,1-2.5,1.2-1.7-.8,1.2-2.7-3.8-4.4-5-.4-1.2,3.8,6.3,8.3,11.2,2.1,4-5.4,0-11.3-5-12.7-2.7-.8-2.3-9,3.8-9.8,6.5-.8,7.9,5,4.6,7.3-1.2.8-2.1,0-1.3-.8,2.1-2.1-2.5-4.6-4-1-1.2,3.1,3.8,7.5,9.6,3.8,4.4-2.7,4-8.5,1.9-10.4-1.5-1.5,1.5-6,6.3-6.2,4.4,0,7.1,3.3,7.3,5.2,0,2.3-1.5,3.8-3.1,4.2-1,.2-1.3-.6-.8-1.3h0ZM449.4,112.1v-4.4c-6.2,2.5-16.2,9.8-28.7,11.9-3.8.6-5.2-2.1-1-3.3,13.8-3.5,21.3-9,29.6-13.3v-4.8c-8.5,3.7-16.2,9.2-25.2,11.7-9.6,2.7-17.1,5.4-28.5,1.5-2.5-.8-1.3-4.4,1.5-3.5,3.5,1.3,10.2,1.9,16.3.2,3.8-1,2.7-4-.2-3.3-7.3,1.7-18.8-.4-23.1-4.2-4-3.3,0-5,2.5-3.1s17.1,8.5,32.9-.2c6.9-3.7,15.4-9.2,23.8-12.7v-4.6c-6.7,2.9-15,7.5-24.2,12.9-8.5,5-18.5,6-27.5,2.3-3.8-1.5-1.2-4.4,1.5-3.5,5.6,1.9,14.6,2.3,24.6-2.9,7.1-3.8,14.4-8.5,22.3-11.9,4.2-1.9,2.9-4.8-.6-3.7-6.9,2.1-13.1,7.1-20.8,10.4-2.9,1.2-4.4-1.2-2.1-2.7,7.1-4.4,16.3-10.4,26.5-13.7v-4.4c-8.1,2.5-18.7,7.5-27.5,13.7-5.2,3.7-11.7,6.5-18.8,2.7-1.7-1-4.4,1-1.9,2.9,3.1,2.3,8.5,2.9,12.7,2.1,4-.8,4,2.1,0,2.9-7.3,1.7-16.5-1.3-21-6.9-4.2-5.8-.4-13.8,4.4-14.4,5.2-.6,6.3,2.9,5,4.6-.6.8-1.3.6-1.5,0-.8-1.7-4.6-1.5-4.4,1.9.4,2.9,5.2,3.8,8.5.2,3.5-3.7.8-7.9,0-9.2-1-1.3-.8-4.2,2.7-5.8,2.7-1.2,5.2.8,5.2,2.5s-.8,1.2-1.5.8c-1.9-.8-4,1.5-1.9,3.3,2.3,1.9,7.9-1.2,6-6.2-1.3-3.5-5.6-5.2-9.6-3.8-2.5.8-4.4,3.1-5,3.8-.8,1-1.2,1.3-1.7,1.3-1.2,0-9-1-14.4,5.2-3.7,4-4,7.7-4.2,10.4,0,1-.4,1.7-.8,2.1-3.1,3.8-15,6-20-1.7-4.8-7.3,1.9-12.5,5.2-12.9,3.1-.4,6.9,2.5,3.7,5.6-.6.6-1.3.2-1-.4.8-1.9-3.1-2.7-3.7,0-1,4,6.2,6.2,10,2.3,4-4,.8-10.6-3.8-12.1-2.7-1-2.3-9.4,4-10.8,6.7-1.5,9.4,3.8,6,7.1-1.2,1-2.5,1.2-1.7-.8,1.2-2.7-3.8-4.4-5-.4-1.2,3.8,6.3,8.3,11.2,2.1,4-5.4,0-11.3-5-12.7-2.7-.8-2.3-9,3.8-9.8,6.5-.8,7.9,5,4.6,7.3-1.2.8-2.1,0-1.3-.8,2.1-2.1-2.5-4.6-4-1-1.2,3.1,3.8,7.5,9.6,3.8,4.4-2.7,4-8.5,1.9-10.4-1.5-1.5,1.5-6,6.3-6.2,4.4,0,7.1,3.3,7.3,5.2,0,2.3-1.5,3.8-3.1,4.2-1,.2-1.3-.6-.8-1.3,1.5-1.3.4-3.7-2.3-3.1-2.3.6-3.8,5.8,1.7,6.7,6.2,1.2,14.6-8.8,4.2-15.6-10.4-6.9-18.3.2-20,2.1-1.2,1.3-2.9,1.3-4.8,1.3s-9.4-1.2-15.8,8.5c-1,1.5-1.5,1.3-3.3,1.5-4.2.6-13.5,3.7-14.6,15.6,0,1.3-.8,2.3-1.9,2.9-8.5,5.2-17.5,27.1,0,46.7,19.6,22.1,49.4,27.1,63.1,25.6,21.5-2.1,31.7-10.4,39.8-13.8h-.4ZM-11.5,129.5v4.2c1.5-1,2.7-1.5,3.7-1.9,2.5-1.2,2.1-4-1.5-3.1-.8.2-1.3.4-2.1.8ZM150.8,128.5c-2.7,0-4,2.7-1,2.9s7.7,1.5,9.6,3.1c1.9,1.5,3.3-1.3,1.2-2.9-3.3-2.3-6.9-3.1-9.8-3.1ZM381.3,128.5c-2.7,0-4,2.7-1,2.9s7.7,1.5,9.6,3.1c1.9,1.5,3.3-1.3,1.2-2.9-3.3-2.3-6.9-3.1-9.8-3.1ZM137.3,135.8c-1.5-.2-2.5-1.2-2.3-1.9.2-.8,1.5-1.5,4.2-1.3,5.6.4,3.7,4.2-1.9,3.3ZM367.9,135.8c-1.5-.2-2.5-1.2-2.3-1.9s1.5-1.5,4.2-1.3c5.6.4,3.7,4.2-1.9,3.3ZM74.8,140.4c2.1,1.2,1,3.7-2.5,2.3-3.5-1.3-8.8-6-10-9s3.1-3.8,4-1.5,3.7,6,8.3,8.3h.2ZM305.4,140.4c2.1,1.2,1,3.7-2.5,2.3-3.5-1.3-8.8-6-10-9-1.2-3.1,3.1-3.8,4-1.5s3.7,6,8.3,8.3h.2ZM41,143.1c1.2,1,2.1.8,2.7,0,.6-.6.6-1.7-.6-2.7-2.5-2.1-4.8.6-2.3,2.7h.2ZM271.5,143.1c1.2,1,2.1.8,2.7,0,.6-.6.6-1.7-.6-2.7-2.5-2.1-4.8.6-2.3,2.7h.2ZM449.4,133.9v-4.2c-6.7,2.7-12.5,8.8-13.8,12.1-1.3,3.5,1.3,4.8,2.7,2.7,3.3-5,7.7-8.5,11-10.4l.2-.2ZM207.9,144.3c-1.3,2.1-4.2,1-2.7-2.7s8.3-10.8,15.8-12.9c3.8-1.2,4.2,1.7,1.5,3.1-2.9,1.3-10,5-14.6,12.5ZM-11.5,139.8v5.8c2.7-2.9,6-5.8,10.2-7.9,3.5-1.7,2.9-5-.8-3.8-2.5.8-6,2.9-9.4,5.8v.2ZM219,125.4c2.9-.6,2.5-3.3-1.3-2.9-3.7.4-8.8,3.1-13.3,7.5-5,5.2-5.4,10.2-9.2,13.1-2.1,1.5-1.2,5,2.5,2.7,3.7-2.3,5.4-9.4,9.2-13.5,3.3-3.5,7.7-6.2,12.1-7.1v.2ZM449.4,125.4v-2.9h-1.2c-3.7.4-8.8,3.1-13.3,7.5-5,5.2-5.4,10.2-9.2,13.1-2.1,1.5-1.2,5,2.5,2.7s5.4-9.4,9.2-13.5c3.3-3.5,7.7-6.2,12.1-6.9h-.2ZM227.5,149.8c-1.9,1.7-4.2.4-2.1-2.1,5.8-6.5,14.2-10.8,21.3-10.8s5,3.7,1.3,3.8c-6,.2-14,3.5-20.8,9.2l.2-.2ZM-3.1,149.8c-1.9,1.7-4.2.4-2.1-2.1,5.8-6.5,14.2-10.8,21.3-10.8s5,3.7,1.3,3.8c-6,.2-14,3.5-20.8,9.2l.2-.2ZM343.5,143.9c-3.3-1.3-5,.8-1.3,2.7,7.9,4.2,19,5.8,22.9,5.2s3.1-4,0-3.8c-5.4.4-10.2.4-21.5-4ZM112.9,143.9c-3.3-1.3-5,.8-1.3,2.7,7.9,4.2,19,5.8,22.9,5.2s3.1-4,0-3.8c-5.4.4-10.2.4-21.5-4ZM195.6,154.6c-4,.8-4.4-1.9-.6-2.7s4.6-2.9,6-4.6c1.3-1.7,3.1-.2,1.9,2.1-1.3,2.3-4.4,4.6-7.3,5.2ZM426.1,154.6c-4,.8-4.4-1.9-.6-2.7s4.8-2.9,6-4.6c1.3-1.7,3.1-.2,1.9,2.1-1.3,2.3-4.4,4.6-7.3,5.2h0ZM-11.5,153.5v3.5c.6,0,1.2-.4,1.5-.8,2.3-2.5.6-4-1.5-2.7ZM220.4,156.2c-.8.8-1.9,1.2-2.7.8-.8-.2-1-1,0-2.5,2.3-2.9,5.4-1.3,2.5,1.5l.2.2ZM449.4,157v-3.5c-.4.2-.8.6-1,1-1.2,1.3-.8,2.3,0,2.5h1.2-.2ZM383.6,161.6c0,1.2-.8,1.7-1.3,1.7s-1.2-.8-1-2.1c0-1.9,2.7-2.3,2.3.4ZM153.1,161.6c0,1.2-.8,1.7-1.3,1.7s-1.2-.8-1-2.1c0-1.9,2.7-2.3,2.3.4ZM449.4,145.8v-5.8c-2.7,2.3-5.4,5.4-7.7,8.7-5.8,8.5-11.3,11.2-16.2,11.5-3.7.2-3.8,4.2,0,4,8.3-.2,14.8-6.5,18.8-12.3,1.3-1.7,2.9-4,4.8-6.2h.2ZM195.2,164.3c-4,0-3.7-3.8,0-4,5-.4,10.6-3.1,16.2-11.5,5.2-7.7,12.3-13.1,16.9-14.6,3.7-1.2,4.2,2.1.8,3.8-7.3,3.7-11.9,9.8-15,14-4,5.8-10.6,12.1-18.8,12.3h0ZM236.9,124.1c1,1.2-1.2,2.1-2.7.8-4-3.3-1.7-8.3,3.7-9.6,7.7-1.7,15.4,6.7,22.9,21.3,8.3,16.2,23.3,26.3,35.8,30.4,4,1.3,7.1-1.3,1.9-3.8-4.4-2.3-15.2-7.5-19.8-12.7-2.9-3.3.4-5.8,3.1-2.7,2.9,3.1,21.5,14.4,36,18.5,4.2,1.2,6.2-1.9,1.9-3.3-8.5-2.7-25.4-12.1-28.7-15.4s0-6,4.6-2.1,26.3,15.4,37.5,16.9c3.3.4,5.4-2.1,1-3.1-6.7-1.5-18.5-7.1-22.3-9.8s-1.2-6,3.1-2.9c4.8,3.5,29.8,14.2,51.9,13.1,3.8-.2,4.2-3.5-.8-3.5-12.3,0-57.9-8.8-71-41.5-1.3-3.5,3.5-5.4,4.6-1.7,1.3,5.2,12.5,21.7,31.3,29.6,3.5,1.5,7.1-.8,2.5-2.9-11.9-5.6-19.6-13.8-21.2-17.7s1.9-4.4,3.7-2.1c6.3,8.7,28.1,22.9,46.5,23.3,4.4,0,4.4-3.8.6-4-6.5-.2-16.3-3.1-23.3-8.3-3.3-2.3.4-5,2.5-3.3,2.3,1.7,10.4,4.6,13.3,5.4,5.2,1.3,5.4-2.7,2.1-3.8-8.1-2.9-22.5-12.7-28.3-22.5-2.5-4.2,2.1-4.6,3.7-1.7,2.3,4.2,21.9,22.1,37.9,23.8,4.4.6,5.8-2.5,1.2-3.5-9.8-1.9-28.1-13.5-35.4-26.5-6.3-11.2-7.1-22.7-20-22.3-6.5.2-9.2,7.9-5.4,10.4,4.6,3.1,7.9-2.3,3.8-3.8-2.1-.8-1.2-3.1,1.5-2.5,2.7.6,6,2.7,5,7.3-1.3,6.5-12.1,8.1-16.5-.6s1.2-17.7-6-25.8c-1.7-1.9.4-3.3,2.7-1.2,2.3,2.1,3.5,6.7,4,8.1s2.7,1.5,2.1-1.7c-.8-4.6-.6-8.1,5.6-14.8,5.8-6.2,4.4-13.1-1.9-14.6-6.7-1.9-10.4,3.3-9,6.7,1.3,3.3,6.7,3.5,6.7,0s2.5-1.9,2.5-.2c.4,3.8-3.5,8.3-8.8,4.8-6.5-4.2-4.8-14.6-16.5-16-7.9-1-14,5.6-11.7,10.4,2.3,5.2,7.3,4.6,9.6,2.7,2.5-2.1,1.5-5.6-1.7-5.4-2.7,0-2.3-2.3-.2-2.9,6-1.3,10.4,5.2,5.8,10.6-5.6,6.3-14.6-1.2-25.2,6-6.9,4.8-5,12.3-4.4,13.8s-1,2.7-2.5,3.5c-3.8,1.9-6,10.2,0,14.6,6.9,5.2,13.3,1.3,14.6-1.5,1.5-3.7-1-6.7-4.6-5.6-3.3,1.2-3.1,4-1.7,4.8,1.5.8-.8,2.9-4,.4-3.8-2.9-.8-8.1,3.7-8.8,4.6-1,8.3.4,11.5-.4,7.3-1.7,6.5-7.1,5-9-1.3-1.7-4.2-2.1-6.3-1.3-2.7,1.2-2.1,4.2.2,4.6,2.7.4.4,3.3-3.5,1.5-6.2-2.7-3.3-9.6,2.9-10.6,9.6-1.5,14,6.9,14.8,12.3,1.5,11.3-3.7,19.8-21.2,20.6-10.2.6-16.5-6.3-26,.8-4.6,3.5-3.3,10,.4,12.5,2.7,1.9,7.5.6,8.7-2.1,2.7-5.4-5.4-6-4.6-2.5.2,1.2-1.2,1.9-1.9.4-1-1.9,0-6.2,4.8-6.7,6.2-.6,10.6,7.3,2.7,12.7-5.2,3.7-17.7-1.5-24.4,8.5-4,6.2,1.7,12.1,7.9,12.9,5,.8,8.8-2.9,8.8-5.6,0-7.7-10.4-4-7.1,0l.2.6ZM6.4,124.1c1,1.2-1.2,2.1-2.7.8-4-3.3-1.7-8.3,3.7-9.6,7.7-1.7,15.4,6.7,22.9,21.3,8.3,16.2,23.3,26.3,35.8,30.4,4,1.3,7.1-1.3,1.9-3.8-4.4-2.3-15.2-7.5-19.8-12.7-2.9-3.3.4-5.8,3.1-2.7,2.9,3.1,21.5,14.4,36,18.5,4.2,1.2,6.2-1.9,1.9-3.3-8.5-2.7-25.4-12.1-28.7-15.4-3.3-3.3,0-6,4.6-2.1s26.3,15.4,37.5,16.9c3.3.4,5.4-2.1,1-3.1-6.7-1.5-18.5-7.1-22.3-9.8s-1.2-6,3.1-2.9c4.8,3.5,29.8,14.2,51.9,13.1,3.8-.2,4.2-3.5-.8-3.5-12.3,0-57.9-8.8-71-41.5-1.3-3.5,3.5-5.4,4.6-1.7,1.3,5.2,12.5,21.7,31.3,29.6,3.5,1.5,7.1-.8,2.5-2.9-11.9-5.6-19.6-13.8-21.2-17.7s1.9-4.4,3.7-2.1c6.3,8.7,28.1,22.9,46.5,23.3,4.4,0,4.4-3.8.6-4-6.5-.2-16.3-3.1-23.3-8.3-3.3-2.3.4-5,2.5-3.3,2.3,1.7,10.4,4.6,13.3,5.4,5.2,1.3,5.4-2.7,2.1-3.8-8.1-2.9-22.5-12.7-28.3-22.5-2.5-4.2,2.1-4.6,3.7-1.7,2.3,4.2,21.9,22.1,37.9,23.8,4.4.6,5.8-2.5,1.2-3.5-9.8-1.9-28.1-13.5-35.4-26.5-6.3-11.2-7.1-22.7-20-22.3-6.5.2-9.2,7.9-5.4,10.4,4.6,3.1,7.9-2.3,3.8-3.8-2.1-.8-1.2-3.1,1.5-2.5s6,2.7,5,7.3c-1.3,6.5-12.1,8.1-16.5-.6-4.4-8.7,1.2-17.7-6-25.8-1.7-1.9.4-3.3,2.7-1.2,2.3,2.1,3.5,6.7,4,8.1.6,1.3,2.7,1.5,2.1-1.7-.8-4.6-.6-8.1,5.6-14.8,5.8-6.2,4.4-13.1-1.9-14.6-6.7-1.9-10.4,3.3-9,6.7,1.3,3.3,6.7,3.5,6.7,0s2.5-1.9,2.5-.2c.4,3.8-3.5,8.3-8.8,4.8-6.5-4.2-4.8-14.6-16.5-16-7.9-1-14,5.6-11.7,10.4,2.3,5.2,7.3,4.6,9.6,2.7,2.5-2.1,1.5-5.6-1.7-5.4-2.7,0-2.3-2.3-.2-2.9,6-1.3,10.4,5.2,5.8,10.6-5.6,6.3-14.6-1.2-25.2,6-6.9,4.8-5,12.3-4.4,13.8s-1,2.7-2.5,3.5c-3.8,1.9-6,10.2,0,14.6,6.9,5.2,13.3,1.3,14.6-1.5,1.5-3.7-1-6.7-4.6-5.6-3.3,1.2-3.1,4-1.7,4.8,1.5.8-.8,2.9-4,.4-3.8-2.9-.8-8.1,3.7-8.8,4.6-1,8.3.4,11.5-.4,7.3-1.7,6.5-7.1,5-9-1.3-1.7-4.2-2.1-6.3-1.3-2.7,1.2-2.1,4.2.2,4.6,2.7.4.4,3.3-3.5,1.5-6.2-2.7-3.3-9.6,2.9-10.6,9.6-1.5,14,6.9,14.8,12.3,1.5,11.3-3.7,19.8-21.2,20.6-10.2.6-16.5-6.3-26,.8-4.6,3.5-3.3,10,.4,12.5,2.7,1.9,7.5.6,8.7-2.1,2.7-5.4-5.4-6-4.6-2.5.2,1.2-1.2,1.9-1.9.4s0-6.2,4.8-6.7c6.2-.6,10.6,7.3,2.7,12.7-5.2,3.7-17.7-1.5-24.4,8.5-4,6.2,1.7,12.1,7.9,12.9,5,.8,8.8-2.9,8.8-5.6,0-7.7-10.4-4-7.1,0l.2.6ZM-11.5,168.1c1.5-1.3,2.9-2.7,4.4-4.2,10.6-11.3,24-16,30.4-16s3.5-3.7-.6-3.5c-4,0-17.9,1.2-31.7,16-.8.8-1.5,1.5-2.5,2.5v5.6-.4ZM343.1,165c-3.7-1-2.3-3.8,1.2-3.3,10.6,2.3,18.5,2.9,23.1,2.3,3.3-.4,4.6,3.5.4,3.8-3.3.4-14.2,0-24.4-2.9h-.2ZM112.5,165c-3.7-1-2.3-3.8,1.2-3.3,10.6,2.3,18.5,2.9,23.1,2.3,3.3-.4,4.6,3.5.4,3.8-3.3.4-14.2,0-24.4-2.9h-.2ZM36.6,168.3c-2.5,0-2.3-2.7.8-2.7s6.3,2.3,7.3,3.8c.8,1.5-.2,2.9-1.5,1.5-1.5-1.3-3.1-2.7-6.3-2.7h-.2ZM267.1,168.3c-2.5,0-2.3-2.7.8-2.7s6.3,2.3,7.3,3.8c.8,1.5-.2,2.9-1.5,1.5-1.5-1.3-3.1-2.7-6.3-2.7h-.2ZM327.7,169.6c-2.5-1.3-1.3-3.8.8-3.1,2.9,1,8.7,4,22.7,5.2,3.5.2,2.9,3.3-.6,3.5-5.4,0-16-2.1-22.7-5.6h-.2ZM97.1,169.6c-2.5-1.3-1.3-3.8.8-3.1,2.9,1,8.7,4,22.7,5.2,3.5.2,2.9,3.3-.6,3.5-5.4,0-16-2.1-22.7-5.6h-.2ZM359.8,175c-2.7-.4-2.3-2.9.6-2.7,2.7,0,7.7-.4,9.6-.8,2.7-.8,3.7,1.7.4,2.9-2.5.8-7.1,1.2-10.6.6ZM129.2,175c-2.7-.4-2.3-2.9.6-2.7,2.7,0,7.7-.4,9.6-.8,2.7-.8,3.7,1.7.4,2.9-2.5.8-7.1,1.2-10.6.6ZM-11.5,172.9v4.4c3.8-2.7,7.7-6.3,12.1-10.6,10.2-9.8,23.5-11.9,29.8-10.2,4.2,1.2,6.2-2.1,1.2-3.8-6.7-2.3-23.8.6-34,11.7-3.1,3.5-6.2,6.2-9.2,8.5h.2ZM80.2,168.7c-1.7-1-4.2,1.7-1.3,3.7s17.9,6.9,21.2,7.1,5-2.9,1.3-3.5-16.3-4.8-21.2-7.3ZM310.8,168.7c-1.7-1-4.2,1.7-1.3,3.7s17.9,6.9,21.2,7.1,5-2.9,1.3-3.5c-3.7-.6-16.3-4.8-21.2-7.3ZM449.4,177.3v-4.4c-4.6,3.7-9,6.2-12.7,7.9-3.3,1.7-2.1,3.7,1.7,2.3,3.8-1.3,7.3-3.3,11-6v.2ZM206.2,181c-3.3,1.7-2.1,3.7,1.7,2.3,7.9-2.7,14.2-8.1,22.9-16.5,10.2-9.8,23.5-11.9,29.8-10.2,4.2,1.2,6.2-2.1,1.2-3.8-6.7-2.3-23.8.6-34,11.7-7.9,8.7-16,13.5-21.9,16.5h.4ZM372.9,178.7c2.7-.8,4,2.3-.2,3.7-5.8,1.7-20,3.1-33.1-.8-2.1-.6-2.5-4.4,1.3-3.3,5,1.5,19.8,3.7,31.9.2v.2ZM142.3,178.7c2.7-.8,4,2.3-.2,3.7-5.8,1.7-20,3.1-33.1-.8-2.1-.6-2.5-4.4,1.3-3.3,5,1.5,19.8,3.7,31.9.2v.2ZM404,182.3c3.1.4,2.3,3.5-1,3.1-13.3-1.7-20.4-12.3-21.2-16.3-.4-2.3,1.9-2.9,2.7-1,1,2.7,7.3,13.1,19.2,14.2h.2ZM173.5,182.3c3.1.4,2.3,3.5-1,3.1-13.3-1.7-20.4-12.3-21.2-16.3-.4-2.3,1.9-2.9,2.7-1,1,2.7,7.3,13.1,19.2,14.2h.2ZM37.9,183.3c3.5-4-6.5-6.2-5.2,1,1,5.2,9.4,5.6,13.1-.4,1.9-3.1,1.7-6.2,4.4-8.1,3.5-2.5,11.9-1.7,12.3,3.8,0,1.7-1.7,2.3-2.5.8-1.2-2.7-4.8-2.3-6,1.2-.8,2.5,1.2,4.8,5.2,4.6,2.7,0,7.1-3.1,7.3-8.3.4-6-6.7-10.4-15.2-8.7-2.3.6-2.9-.6-3.3-1.2-2.7-3.8-7.5-7.1-16-6.7-10.8.6-15.8,6.2-17.5,8.5-1.9,2.5.6,3.5,1.7,2.3,5.8-5.6,11.7-6,13.3-5.8,2.3,0,1.9,1.9.4,2.3-2.1.4-5.4,2.1-6.9,3.7-2.1,2.1,0,3.3,1.2,2.1,1.5-1.3,5-3.1,6.9-3.1s2.7,1.3.8,1.9c-1.5.4-3.5,1.9-4.2,3.1-.8,1,0,2.7,1.7,1.3,3.1-2.3,8.3-3.3,11.2,0,2.3,2.5.4,5.8-1.5,6.5-1.2.6-2.1.2-1.3-.8l.2-.2ZM268.3,183.3c3.5-4-6.5-6.2-5.2,1,1,5.2,9.4,5.6,13.1-.4,1.9-3.1,1.7-6.2,4.4-8.1,3.5-2.5,11.9-1.7,12.3,3.8,0,1.7-1.7,2.3-2.5.8-1.2-2.7-4.8-2.3-6,1.2-.8,2.5,1.2,4.8,5.2,4.6,2.7,0,7.1-3.1,7.3-8.3.4-6-6.7-10.4-15.2-8.7-2.3.6-2.9-.6-3.3-1.2-2.7-3.8-7.5-7.1-16-6.7-10.8.6-15.8,6.2-17.5,8.5-1.9,2.5.6,3.5,1.7,2.3,5.8-5.6,11.7-6,13.3-5.8,2.3,0,1.9,1.9.4,2.3-2.1.4-5.4,2.1-6.9,3.7-2.1,2.1,0,3.3,1.2,2.1,1.5-1.3,5-3.1,6.9-3.1s2.7,1.3.8,1.9c-1.5.4-3.5,1.9-4.2,3.1-.8,1,0,2.7,1.7,1.3,3.1-2.3,8.3-3.3,11.2,0,2.3,2.5.4,5.8-1.5,6.5-1.2.6-2.1.2-1.3-.8l.2-.2ZM449.4,168.1v-5.6c-7.7,7.1-18.8,13.5-27.5,14.6-3.1.4-2.7-2.3,0-2.9,3.8-.6,16-5,21.9-11.7,1.7-1.9-.4-3.8-2.7-1.7-4.6,4.4-14.8,9.2-25.8,10.2-7.3.6-14.8-3.3-12.7-10.6,1.5-5.4,7.9-5.2,10.2-3.5,2.7,1.9,2.1,4.2,1.7,5-.6,1.3-2.7,1.7-2.1,0,.8-2.7-2.3-3.7-4.4-2.3-2.1,1.3-1.7,4.8.8,6,4.4,2.1,9.8-1,10.2-5.6.4-3.8-3.1-9.2-11.2-8.3-3.3.4-6-.6-7.1-2.7-1.5-2.7-2.9-10.6,6.5-13.8,6-2.1,10,3.1,9.8,5.4,0,1.7-1.7,1.7-2.3.6-.4-1.2-5.4-3.3-7.7,1-1.9,3.7,3.8,7.9,9.8,4.6,4.6-2.5,6.5-9,1.2-14.4-5.2-5-17.7-5.4-24.2,4.6-3.7,5.6-2.5,9.2-3.1,11-.2.6-.4,1.2-1.2,1.5-3.1,1.5-7.9,1.5-10.2-1.3-1.5-1.9-1.7-4.6.6-6.3,1.5-1.2,2.7,0,2.1.8-1.5,2.5,1.7,4,4,3.1,1.5-.8,3.5-3.1,1-5.8-4-4.4-11.9-1.2-13.7,4.4-1.3,4.6,1.2,8.3,4,9.8.8.4,1.3.6.6,2.3-3.8,8.1-3.1,20.8,13.5,29.2,15,7.7,32.9,2.7,37.1.8,3.1-1.5,2.5-3.8-1.3-2.5-6.9,2.1-11.5,2.3-14,1.9-3.5-.6-2.7-3.3,1.2-3.5,7.1-.2,21-2.3,34.8-14.6l.2.4ZM151.9,142.7c-1.5,2.5,1.7,4,4,3.1,1.5-.8,3.5-3.1,1-5.8-4-4.4-11.9-1.2-13.7,4.4-1.3,4.6,1.2,8.3,4,9.8.8.4,1.3.6.6,2.3-3.8,8.1-3.1,20.8,13.5,29.2,15,7.7,32.9,2.7,37.1.8,3.1-1.5,2.5-3.8-1.3-2.5-6.9,2.1-11.5,2.3-14,1.9-3.5-.6-2.7-3.3,1.2-3.5,7.9-.2,23.8-2.7,39-18.8,10.6-11.3,24-16,30.4-16s3.5-3.7-.6-3.5c-4,0-17.9,1.2-31.7,16-7.7,8.1-20.2,15.8-29.8,16.9-3.1.4-2.7-2.3,0-2.9,3.8-.6,16-5,21.9-11.7,1.7-1.9-.4-3.8-2.7-1.7-4.6,4.4-14.8,9.2-25.8,10.2-7.3.6-14.8-3.3-12.7-10.6,1.5-5.4,7.9-5.2,10.2-3.5,2.7,1.9,2.1,4.2,1.7,5-.6,1.3-2.7,1.7-2.1,0,.8-2.7-2.3-3.7-4.6-2.3-2.1,1.3-1.7,4.8,1,6,4.4,2.1,9.8-1,10.2-5.6.4-3.8-3.1-9.2-11.2-8.3-3.3.4-6-.6-7.1-2.7-1.5-2.7-2.9-10.6,6.5-13.8,6-2.1,10,3.1,9.8,5.4,0,1.7-1.7,1.7-2.3.6-.4-1.2-5.4-3.3-7.7,1-1.9,3.7,3.8,7.9,9.8,4.6,4.6-2.5,6.5-9,1.2-14.4-5.2-5-17.7-5.4-24.2,4.6-3.7,5.6-2.5,9.2-3.1,11-.2.6-.4,1.2-1.2,1.5-3.1,1.5-7.9,1.5-10-1.3-1.5-1.9-1.7-4.6.6-6.3,1.5-1.2,2.7,0,2.1.8v.2ZM64.2,196.6c-1.9,2.1-4,0-1.9-2.7,6.3-8.1,18.7-12.1,24.4-11.9,3.1,0,3.3,2.5.8,2.5-7.9,0-16.9,5.2-23.3,12.1ZM294.8,196.6c-1.9,2.1-4,0-1.9-2.7,6.3-8.1,18.7-12.1,24.4-11.9,3.1,0,3.3,2.5.8,2.5-7.9,0-16.9,5.2-23.3,12.1h0ZM103.5,191.9c-1.9-.6-1.9-2.5,1.3-2.3,3.1.2,9.8,3.3,12.3,7.3,1.2,1.9-.8,3.1-2.1,1.5-1.3-1.7-5.4-5-11.5-6.5ZM334,191.9c-1.9-.6-1.9-2.5,1.3-2.3,3.1.2,9.8,3.3,12.3,7.3,1.2,1.9-.8,3.1-2.1,1.5-1.3-1.7-5.4-5-11.5-6.5h0ZM12.5,203.9c.2,1.5,1.7,1.2,1.7-.6s1-4.6,1.7-6-1.2-2.7-2.5-.2-1.3,5.8-1.2,6.7h.2ZM242.9,203.9c.2,1.5,1.7,1.2,1.7-.6s1-4.6,1.7-6-1.2-2.7-2.5-.2-1.3,5.8-1.2,6.7h.2ZM18.1,206.6c.4,1.5,2.1,1.3,1.9-.4,0-2.9.8-6.5,2.1-8.7,1.3-2.3-1.2-3.1-2.7,0-1.3,2.3-1.9,6.7-1.3,9ZM248.7,206.6c.4,1.5,2.1,1.3,1.9-.4,0-2.9.8-6.5,2.1-8.7,1.3-2.3-1.2-3.1-2.7,0-1.3,2.3-1.9,6.7-1.3,9h0ZM102.9,207.3c-1-1-1.2-2.1-.6-2.7.6-.6,1.7-.8,3.7.6,3.8,2.7.8,5.4-3.1,2.1h0ZM333.5,207.3c-1-1-1.2-2.1-.6-2.7.6-.6,1.7-.8,3.7.6,3.8,2.7.8,5.4-3.1,2.1h0ZM13.3,209.4c.4.8,1,1.2,1.5,1,.6,0,.8-.8.6-1.9-.6-2.1-2.9-1.2-1.9,1h-.2ZM243.8,209.4c.4.8,1,1.2,1.5,1,.6,0,.8-.8.6-1.9-.6-2.1-2.9-1.2-1.9,1h-.2ZM57.5,208.3c2.1-1.2,3.3.4,1.3,1.7-5.2,3.8-12.9,3.8-15.6.8-1.3-1.5,0-2.7,1.3-1.5,2.3,1.7,7.7,2.1,12.7-.8l.2-.2ZM288.1,208.3c2.1-1.2,3.3.4,1.3,1.7-5.2,3.8-12.9,3.8-15.6.8-1.3-1.5,0-2.7,1.3-1.5,2.3,1.7,7.7,2.1,12.7-.8l.2-.2ZM9.2,202.7c0-1.7-2.7-1.9-2.9.8s1.3,7.3,2.3,8.7c1.2,1.7,2.7.6,2.1-.8-.8-1.5-1.7-5-1.5-8.7h0ZM239.8,202.7c0-1.7-2.7-1.9-2.9.8s1.3,7.3,2.3,8.7c1.2,1.7,2.7.6,2.1-.8-.8-1.5-1.7-5-1.5-8.7h0ZM-11.5,183.5v20.2c.6-.2,1-.4,1.5-.6,6.7-1.5,9.4,3.8,6,7.1-1.2,1-2.5,1.2-1.7-.8,1.2-2.7-3.8-4.4-5-.4-1.2,3.8,6.3,8.3,11.2,2.1,4-5.4,0-11.3-5-12.7-2.7-.8-2.3-9,3.8-9.8,6.5-.8,7.9,5,4.6,7.3-1.2.8-2.1,0-1.3-.8,2.1-2.1-2.5-4.6-4-1-1.2,3.1,3.8,7.5,9.6,3.8,4.4-2.7,4-8.5,1.9-10.4-1.5-1.5,1.5-6,6.3-6.2,4.4,0,7.1,3.3,7.3,5.2,0,2.3-1.5,3.8-3.1,4.2-1,.2-1.3-.6-.8-1.3,1.5-1.3.4-3.7-2.3-3.1-2.3.6-3.8,5.8,1.7,6.7,6,1.2,14.6-8.8,4.2-15.6-10.4-6.9-18.3.2-20,2.1-1.2,1.3-2.9,1.3-4.8,1.3s-5.6-.6-10,2.5l-.2-.2ZM4.4,213.9c.6.6,1.3.8,1.7.4s.6-1,0-1.9c-1.3-1.7-3.1-.2-1.5,1.5h-.2ZM235,213.9c.6.6,1.3.8,1.7.4s.6-1,0-1.9c-1.3-1.7-3.1-.2-1.5,1.5h-.2ZM48.3,198.3c.4-.8-.2-2.1-2.5-1.2-4.4,1.7-5.4,7.5-.8,9.4,5.2,2.1,11.3,1,20.2-7.1,11-10.2,22.3-13.3,30.8-11.5,3.1.8,2.5,2.9,0,2.7-2.1,0-6.9-.8-10.6.8-2.3,1-1.3,2.7.6,2.3,14-2.9,24.4,4,26.7,7.1,1.9,2.5,0,4-2.1,2.3-16.3-14-37.5-2.3-45.2,1.7-2.1,1.2-1.5,3.1,1,2.1,3.3-1.3,21-11.3,31.9-5.8,2.7,1.3,1.7,3.8-1.2,2.9-5.6-2.1-13.5-1-17.3,1-3.3,1.7-2.3,3.5.2,2.5,8.7-3.3,17.3-.4,19.8,2.1,2.3,2.1,0,4.2-2.1,2.7-10.4-6.7-31.7,3.5-39.8,5.6-9.8,2.7-21.5-1-23.7-10.2-2.3-10.6,10-19,17.7-15.4,6.2,2.9,4.6,8.8,1.2,10-3.1,1.2-6.5-.6-4.8-4h0ZM278.8,198.3c.4-.8-.2-2.1-2.5-1.2-4.4,1.7-5.4,7.5-.8,9.4,5.2,2.1,11.3,1,20.2-7.1,11-10.2,22.3-13.3,30.8-11.5,3.1.8,2.5,2.9,0,2.7-2.1,0-6.9-.8-10.6.8-2.3,1-1.3,2.7.6,2.3,14-2.9,24.4,4,26.7,7.1,1.9,2.5,0,4-2.1,2.3-16.3-14-37.5-2.3-45.2,1.7-2.1,1.2-1.5,3.1,1,2.1,3.3-1.3,21-11.3,31.9-5.8,2.7,1.3,1.7,3.8-1.2,2.9-5.6-2.1-13.5-1-17.3,1-3.3,1.7-2.3,3.5.2,2.5,8.7-3.3,17.3-.4,19.8,2.1,2.3,2.1,0,4.2-2.1,2.7-10.4-6.7-31.7,3.5-39.8,5.6-9.8,2.7-21.5-1-23.7-10.2-2.3-10.6,10-19,17.7-15.4,6.2,2.9,4.6,8.8,1.2,10-3.1,1.2-6.5-.6-4.8-4h0ZM83.3,220.6c-2.1,0-2.5-3.3,1.3-3.7,5-.6,11,.2,14,1.9,3.7,2.1,1,4.8-1,3.7-4.2-2.3-9.8-2.3-14.4-1.9ZM313.8,220.6c-2.1,0-2.5-3.3,1.3-3.7,5-.6,11,.2,14,1.9,3.7,2.1,1,4.8-1,3.7-4.2-2.3-9.8-2.3-14.4-1.9ZM260.2,226c-2.5.6-3.5-2.1-1.2-2.5,2.7-.4,5.2-3.3,7.5-4,2.5-.8,2.7,1.5.6,2.3-1.3.4-4.4,3.7-6.9,4.2h0ZM29.6,226c-2.5.6-3.5-2.1-1.2-2.5,2.7-.4,5.2-3.3,7.5-4,2.5-.8,2.7,1.5.6,2.3-1.3.4-4.4,3.7-6.9,4.2h0ZM-11.5,215.2v12.1c.6-.4,1.2-.8,1.5-1.2,3.3-3.3,1.7-8.3-1.5-11ZM399,227.1c1.2,1.3,3.7,1,2.3-1.3-1.7-2.9-4-10.4,2.3-17.1,1.7-1.9,3.7-.6,1.9,1.5-2.1,2.3-3.5,6.2-3.1,8.1s2.7,2.1,2.7,0c0-3.1,1.9-6.3,5-8.3,2.3-1.3,2.5-2.3,0-4.4-2.9-2.5-2.3-6.7,1.5-8.5,3.3-1.5,5.2-.2,6,.6,1.3,1.3-.2,2.5-1.3,1.7-1-.8-3.7,0-4.2,1.9s1.7,4.2,5.2,3.8c3.8-.4,6.5-4.6,3.7-8.8-2.7-3.8-11.7-3.7-17.5,1.7-7.9,7.5-10.8,21.2-4.4,28.8v.2ZM168.5,227.1c1.2,1.3,3.7,1,2.3-1.3-1.7-2.9-4-10.4,2.3-17.1,1.7-1.9,3.7-.6,1.9,1.5-2.1,2.3-3.5,6.2-3.1,8.1s2.7,2.1,2.7,0c0-3.1,1.9-6.3,5-8.3,2.3-1.3,2.5-2.3,0-4.4-2.9-2.5-2.3-6.7,1.5-8.5,3.3-1.5,5.2-.2,6,.6,1.3,1.3-.2,2.5-1.3,1.7-1-.8-3.7,0-4.2,1.9s1.7,4.2,5.2,3.8c3.8-.4,6.5-4.6,3.7-8.8-2.7-3.8-11.5-3.7-17.5,1.7-7.9,7.5-10.8,21.2-4.4,28.8v.2ZM-7.3,226.9c1,0,1.5,0,1.3.6,0,.4-.6.8-1.5,1-1.3.2-1.9-1.2,0-1.5h.2ZM223.3,226.9c1,0,1.5,0,1.3.6s-.6.8-1.5,1c-1.3.2-1.9-1.2,0-1.5h.2ZM391.5,227.7c1.7,2.3,5.6,1.3,3.3-1-2.7-2.9-2.9-8.1-2.3-11.5.4-2.9-1.3-2.9-2.5-.4-1.5,3.5-1.2,9.6,1.5,13.1v-.2ZM161,227.7c1.7,2.3,5.6,1.3,3.3-1-2.7-2.9-2.9-8.1-2.3-11.5.4-2.9-1.3-2.9-2.5-.4-1.5,3.5-1.2,9.6,1.5,13.1v-.2ZM71.7,230.6c-3.8,1.3-4.6-2.3-1.3-3.7,4.4-1.7,15.2-3.8,23.3-.8,3.7,1.3,2.1,4-1,3.3-4.4-1-12.1-1.7-21,1.2h0ZM302.3,230.6c-3.8,1.3-4.6-2.3-1.3-3.7,4.4-1.7,15.2-3.8,23.3-.8,3.7,1.3,2.1,4-1,3.3-4.4-1-12.1-1.7-21,1.2h0ZM387.3,227.5c-.6-.8-1.3-.8-1.7-.6s-.6,1.2,0,2.3c1.5,2.9,4.4,1.3,1.7-1.7ZM156.7,227.5c-.6-.8-1.3-.8-1.7-.6-.4.4-.6,1.2,0,2.3,1.5,2.9,4.4,1.3,1.7-1.7ZM371.3,229.4c0,1.7,2.5,2.9,3.1-.8,1.3-8.7-6.5-14.4-9.6-15.6-2.1-.8-2.3,1.2-.4,2.3,1.9,1.2,7.3,5.2,7.1,14h-.2ZM140.8,229.4c0,1.7,2.5,2.9,3.1-.8,1.3-8.7-6.5-14.4-9.6-15.6-2.1-.8-2.3,1.2-.4,2.3,1.9,1.2,7.3,5.2,7.1,14h-.2ZM-11.5,231.6v2.1c1.2,0,2.3-.4,3.5-.8,2.3-.8,2.5-3.1,0-1.9-1,.4-2.3.6-3.5.8v-.2ZM449.4,233.5v-2.1c-1.5,0-3.3,0-4.2-1-1.3-1.2-3.1,0-1.3,1.5,1.3,1.2,3.3,1.7,5.6,1.5h0ZM222.3,230.8c2.7-1,2.5,1.2,0,1.9-3.8,1.3-7.1,1.2-9-.8-1.7-1.5,0-2.7,1.3-1.5,1.7,1.3,5.4,1.2,7.7.4ZM273.5,225.8c2.1-1,1.3-3.3-1.7-2.5-5.8,1.3-10,8.1-16,6.5-2.3-.6-3.7,2.5-1,3.3,6.7,2.3,11.7-4.2,18.8-7.3h-.2ZM42.9,225.8c2.1-1,1.3-3.3-1.7-2.5-5.8,1.3-10,8.1-16,6.5-2.3-.6-3.7,2.5-1,3.3,6.7,2.3,11.7-4.2,18.8-7.3h-.2ZM318.5,236.9c-1.9-.4-2.9-1.3-2.7-2.3s1.5-1.5,4.2-1.3c4.6.6,4,4.4-1.5,3.5v.2ZM87.9,236.9c-1.9-.4-2.9-1.3-2.7-2.3s1.5-1.5,4.2-1.3c4.6.6,4,4.4-1.5,3.5v.2ZM144,239.1c0-1.3-.8-1.9-1.7-1.9s-1.9.8-1.9,2.1c-.2,3.3,3.3,2.9,3.7-.2ZM374.4,239.1c0-1.3-.8-1.9-1.7-1.9s-1.9.8-1.9,2.1c-.2,3.3,3.3,2.9,3.7-.2ZM171.5,255.2c.6,1.2,1.7,1.3,2.5,1,.8-.4,1.2-1.5.6-2.7-1.5-2.9-4.6-1-3.1,1.7ZM402.1,255.2c.6,1.2,1.7,1.3,2.5,1,.8-.4,1.2-1.5.6-2.7-1.5-2.9-4.6-1-3.1,1.7ZM271,262.1c-2.3.6-4.2-2.1,0-3.3,6.3-1.7,27.9-21.2,47.9-17.9,4.2.6,3.3,4.6-.8,4.4-22.1-1.3-33.1,12.9-46.9,16.7h-.2ZM40.4,262.1c-2.3.6-4.2-2.1,0-3.3,6.3-1.7,27.9-21.2,47.9-17.9,4.2.6,3.3,4.6-.8,4.4-22.1-1.3-33.1,12.9-46.9,16.7h-.2ZM308.1,263.7c-1.7,0-2.7-.6-2.9-1.5s.8-1.9,2.9-2.1c3.8-.6,4.8,3.3,0,3.7h0ZM77.7,263.7c-1.7,0-2.7-.6-2.9-1.5,0-1,.8-1.9,2.9-2.1,3.8-.6,4.8,3.3,0,3.7h0ZM233.1,259.8c1.9,1.3,2.7,2.9,2.3,3.7s-1.9,1-4.6-.4c-6.2-3.5-3.1-6.7,2.1-3.3h.2ZM2.5,259.8c1.9,1.3,2.7,2.9,2.3,3.7s-1.9,1-4.6-.4c-6.2-3.5-3.1-6.7,2.1-3.3h.2ZM387.5,268.5c1,1.7-1.7,3.8-3.5,1.3-3.1-4.2-5-11-4.8-15.8,0-3.3,3.8-4.2,4-1,.4,5.4,1.7,10.6,4.2,15.4ZM156.9,268.5c1,1.7-1.7,3.8-3.5,1.3-3.1-4.2-5-11-4.8-15.8,0-3.3,3.8-4.2,4-1,.4,5.4,1.7,10.6,4.2,15.4ZM449.4,274.8v-38.3c-4.4.6-9.6-.6-12.3-5-4.8-7.3,1.9-12.5,5.2-12.9,3.1-.4,6.9,2.5,3.7,5.6-.6.6-1.3.2-1-.4.8-1.9-3.1-2.7-3.7,0-.8,3.5,4.4,5.6,8.5,3.5v-12.1c-.8-.6-1.5-1-2.3-1.3-2.5-1-2.5-7.9,2.3-10.2v-20.2c-1.9,1.3-3.8,3.3-5.6,6-1,1.5-1.5,1.3-3.3,1.5-4,.6-13.5,3.7-14.6,15.6,0,1.3-.8,2.1-1.9,2.9-8.5,5.2-17.5,27.1,0,46.7,7.5,8.5,16.5,14.4,25.6,18.5l-.6.2ZM255.8,273.9c2.9-.2,4,2.3-.8,3.3-3.7.8-15.8.2-23.3-3.8-2.9-1.5-1.3-4.2,1.2-3.1,6,2.7,12.7,4.4,22.7,3.7h.2ZM25.2,273.9c2.9-.2,4,2.3-.8,3.3-3.7.8-15.8.2-23.3-3.8-2.9-1.5-1.3-4.2,1.2-3.1,6,2.7,12.7,4.4,22.7,3.7h.2ZM165.8,256.8c-1.2-3.3-5.4-2.1-4.2,2.3,2.9,9.6,11,18.1,16.7,21.7,2.5,1.5,5.6-1,1.9-3.5-3.1-2.1-10.6-9.4-14.4-20.6ZM396.3,256.8c-1.2-3.3-5.4-2.1-4.2,2.3,2.9,9.6,11,18.1,16.7,21.7,2.5,1.5,5.6-1,1.9-3.5-3.1-2.1-10.6-9.4-14.4-20.6ZM-11.5,236.6v38.3c14.6,6.5,29,8.1,37.5,7.1,24.4-2.5,34.4-12.7,42.9-15.2,3.8-1.2,3.5-5-1-4-6,1.3-16.7,10.4-30.8,12.7-3.8.6-5.2-2.1-1-3.3,19.8-5,26.5-14.6,41.5-17.3,5.8-1.2,5.2-4.8-.6-4-13.8,1.7-23.7,11.3-36.7,15-9.6,2.7-17.1,5.4-28.5,1.5-2.5-.8-1.3-4.4,1.5-3.5,3.5,1.3,10.2,1.9,16.3.2,3.8-1,2.7-4-.2-3.3-7.3,1.7-18.8-.4-23.1-4.2-4-3.3,0-5,2.5-3.1s17.1,8.5,32.9-.2c9.8-5.2,22.9-14.2,34-16,4.6-.8,4.4-4.8-.2-4.4-7.3.6-19.6,7.3-34.2,16-8.5,5-18.5,6-27.5,2.3-3.8-1.5-1.2-4.4,1.5-3.5,5.6,1.9,14.6,2.3,24.6-2.9,7.1-3.8,14.4-8.5,22.3-11.9,4.2-1.9,2.9-4.8-.6-3.7-6.9,2.1-13.1,7.1-20.8,10.4-2.9,1.2-4.4-1.2-2.1-2.7,9-5.6,21-13.5,34.4-15.6,4.2-.8,4-4,0-3.8-8.1.4-23.1,6.7-35.6,15.2-5.2,3.7-11.7,6.5-18.8,2.7-1.7-1-4.4,1-1.9,2.9,3.1,2.3,8.5,2.9,12.7,2.1,4-.8,4,2.1,0,2.9-7.3,1.7-16.5-1.3-21-6.9-4.2-5.8-.4-13.8,4.4-14.4,5.2-.6,6.3,2.9,5,4.6-.6.8-1.3.6-1.5,0-.8-1.7-4.6-1.5-4.4,1.9.4,2.9,5.2,3.8,8.5.2,3.5-3.7.8-7.9,0-9.2-1-1.3-.8-4.2,2.7-5.8,2.7-1.2,5.2.8,5.2,2.5s-.8,1.2-1.5.8c-1.9-.8-4,1.5-1.9,3.3,2.3,1.9,7.9-1.2,6-6.2-1.3-3.5-5.6-5.2-9.6-3.8-2.5.8-4.4,3.1-5,3.8-.8,1-1.2,1.3-1.7,1.3-1.2,0-9-1-14.4,5.2-3.7,4-4,7.7-4.2,10.4,0,1-.4,1.7-.8,2.1-1.3,1.7-4.2,2.9-7.5,3.3l.6.2ZM250.4,189.4c1.5-1.3.4-3.7-2.3-3.1-2.3.6-3.8,5.8,1.7,6.7,6.2,1.2,14.6-8.8,4.2-15.6-10.4-6.9-18.3.2-20,2.1-1.2,1.3-2.9,1.3-4.8,1.3s-9.4-1.2-15.8,8.5c-1,1.5-1.5,1.3-3.3,1.5-4,.6-13.5,3.7-14.6,15.6,0,1.3-.8,2.1-1.9,2.9-8.5,5.2-17.5,27.1,0,46.7,19.6,22.1,49.4,27.1,63.1,25.6,24.4-2.5,34.4-12.7,42.9-15.2,3.8-1.2,3.5-5-1-4-6,1.3-16.7,10.4-30.8,12.7-3.8.6-5.2-2.1-1-3.3,19.8-5,26.5-14.6,41.5-17.3,5.8-1.2,5.2-4.8-.6-4-13.8,1.7-23.7,11.3-36.7,15-9.6,2.7-17.1,5.4-28.5,1.5-2.5-.8-1.3-4.4,1.5-3.5,3.5,1.3,10.2,1.9,16.3.2,3.8-1,2.7-4-.2-3.3-7.3,1.7-18.8-.4-23.1-4.2-4-3.3,0-5,2.5-3.1s17.1,8.5,32.9-.2c9.8-5.2,22.9-14.2,34-16,4.6-.8,4.4-4.8-.2-4.4-7.3.6-19.6,7.3-34.2,16-8.5,5-18.5,6-27.5,2.3-3.8-1.5-1.2-4.4,1.5-3.5,5.6,1.9,14.6,2.3,24.6-2.9,7.1-3.8,14.4-8.5,22.3-11.9,4.2-1.9,2.9-4.8-.6-3.7-6.9,2.1-13.1,7.1-20.8,10.4-2.9,1.2-4.4-1.2-2.1-2.7,9-5.6,21-13.5,34.4-15.6,4.2-.8,4-4,0-3.8-8.1.4-23.1,6.7-35.6,15.2-5.2,3.7-11.7,6.5-18.8,2.7-1.7-1-4.4,1-1.9,2.9,3.1,2.3,8.5,2.9,12.7,2.1,4-.8,4,2.1,0,2.9-7.3,1.7-16.5-1.3-21-6.9-4.2-5.8-.4-13.8,4.4-14.4,5.2-.6,6.3,2.9,5,4.6-.6.8-1.3.6-1.5,0-.8-1.7-4.6-1.5-4.4,1.9.4,2.9,5.2,3.8,8.5.2,3.5-3.7.8-7.9,0-9.2-1-1.3-.8-4.2,2.7-5.8,2.7-1.2,5.2.8,5.2,2.5s-.8,1.2-1.5.8c-1.9-.8-4,1.5-1.9,3.3,2.3,1.9,7.9-1.2,6-6.2-1.3-3.5-5.6-5.2-9.6-3.8-2.5.8-4.4,3.1-5,3.8-.8,1-1.2,1.3-1.7,1.3-1.2,0-9-1-14.4,5.2-3.7,4-4,7.7-4.2,10.4,0,1-.4,1.7-.8,2.1-3.1,3.8-15,6-20-1.7-4.8-7.3,1.9-12.5,5.2-12.9,3.1-.4,6.9,2.5,3.7,5.6-.6.6-1.3.2-1-.4.8-1.9-3.1-2.7-3.7,0-1,4,6.2,6.2,10,2.3s.8-10.6-3.8-12.1c-2.7-1-2.3-9.4,4-10.8,6.7-1.5,9.4,3.8,6,7.1-1.2,1-2.5,1.2-1.7-.8,1.2-2.7-3.8-4.4-5-.4-1.2,3.8,6.3,8.3,11.2,2.1,4-5.4,0-11.3-5-12.7-2.7-.8-2.3-9,3.8-9.8,6.5-.8,7.9,5,4.6,7.3-1.2.8-2.1,0-1.3-.8,2.1-2.1-2.5-4.6-4-1-1.2,3.1,3.8,7.5,9.6,3.8,4.4-2.7,4-8.5,1.9-10.4-1.5-1.5,1.5-6,6.3-6.2,4.4,0,7.1,3.3,7.3,5.2,0,2.3-1.5,3.8-3.1,4.2-1,.2-1.3-.6-.8-1.3h0ZM-11.5,281.4v3.5c3.7,0,4.2-2.7,0-3.5ZM228.1,284.4c-2.7,0-4,2.7-1,2.9s7.7,1.5,9.6,3.1,3.3-1.3,1.2-2.9c-3.3-2.3-6.9-3.1-9.8-3.1ZM-2.5,284.4c-2.7,0-4,2.7-1,2.9s7.7,1.5,9.6,3.1,3.3-1.3,1.2-2.9c-3.3-2.3-6.9-3.1-9.8-3.1ZM-11.5,289.1v2.5c1.3-.6,1.5-1.7,0-2.5ZM214.6,291.8c-1.5-.2-2.5-1.2-2.3-1.9s1.5-1.5,4.2-1.3c5.6.4,3.7,4.2-1.9,3.3ZM449.4,291.6v-2.5c-.6-.2-1.3-.4-2.3-.6-2.7-.2-4,.4-4.2,1.3-.2.8.6,1.7,2.3,1.9,1.9.4,3.5,0,4.2-.4v.2ZM152.1,296.4c2.1,1.2,1,3.7-2.5,2.3s-8.8-6-10-9c-1.2-3.1,3.1-3.8,4-1.5s3.7,6,8.3,8.3h.2ZM382.7,296.4c2.1,1.2,1,3.7-2.5,2.3s-8.8-6-10-9c-1.2-3.1,3.1-3.8,4-1.5s3.7,6,8.3,8.3h.2ZM118.5,299.1c1.2,1,2.1.8,2.7,0s.6-1.7-.6-2.7c-2.5-2.1-4.8.6-2.3,2.7h.2ZM348.8,299.1c1.2,1,2.1.8,2.7,0,.6-.8.6-1.7-.6-2.7-2.5-2.1-4.8.6-2.3,2.7h.2ZM285.4,300.2c-1.3,2.1-4.2,1-2.7-2.7s8.3-10.8,15.8-12.9c3.8-1.2,4.2,1.7,1.5,3.1-2.9,1.3-10,5-14.6,12.5h0ZM54.8,300.2c-1.3,2.1-4.2,1-2.7-2.7,1.5-3.7,8.3-10.8,15.8-12.9,3.8-1.2,4.2,1.7,1.5,3.1-2.9,1.3-10,5-14.6,12.5h0ZM296.3,281.4c2.9-.6,2.5-3.3-1.3-2.9-3.7.4-8.8,3.1-13.3,7.5-5,5.2-5.4,10.2-9.2,13.1-2.1,1.5-1.2,5,2.5,2.7,3.7-2.3,5.4-9.4,9.2-13.5,3.3-3.5,7.7-6.2,12.1-7.1v.2ZM66,281.4c2.9-.6,2.5-3.3-1.3-2.9-3.7.4-8.8,3.1-13.3,7.5-5,5.2-5.4,10.2-9.2,13.1-2.1,1.5-1.2,5,2.5,2.7,3.7-2.3,5.4-9.4,9.2-13.5,3.3-3.5,7.7-6.2,12.1-7.1v.2ZM304.8,306c-1.9,1.7-4.2.4-2.1-2.1,5.8-6.5,14.2-10.8,21.3-10.8s5,3.7,1.3,3.8c-6,.2-14,3.5-20.8,9.2l.2-.2ZM74.2,306c-1.9,1.7-4.2.4-2.1-2.1,5.8-6.5,14.2-10.8,21.3-10.8s5,3.7,1.3,3.8c-6,.2-14,3.5-20.8,9.2l.2-.2ZM190.2,299.8c-3.3-1.3-5,.8-1.3,2.7,7.9,4.2,19,5.8,22.9,5.2s3.1-4,0-3.8c-5.4.4-10.2.4-21.5-4h0ZM420.8,299.8c-3.3-1.3-5,.8-1.3,2.7,7.9,4.2,19,5.8,22.9,5.2s3.1-4,0-3.8c-5.4.4-10.2.4-21.5-4h0ZM272.9,310.6c-4,.8-4.4-1.9-.6-2.7s4.6-2.9,6-4.6c1.3-1.7,3.1-.2,1.9,2.1-1.3,2.3-4.4,4.6-7.3,5.2h0ZM42.3,310.6c-4,.8-4.4-1.9-.6-2.7s4.6-2.9,6-4.6,3.1-.2,1.9,2.1c-1.3,2.3-4.4,4.6-7.3,5.2h0ZM297.7,312.1c-.8.8-1.9,1.2-2.7.8s-1-1,0-2.5c2.3-2.9,5.4-1.3,2.5,1.5l.2.2ZM67.3,312.1c-.8.8-1.9,1.2-2.7.8-.8-.2-1-1,0-2.5,2.3-2.9,5.4-1.3,2.5,1.5l.2.2ZM230.6,317.7c0,1.2-.8,1.7-1.3,1.7s-1.2-.8-1-2.1c0-1.9,2.7-2.3,2.3.4h0ZM0,317.7c0,1.2-.8,1.7-1.3,1.7s-1.2-.8-1-2.1c0-1.9,2.7-2.3,2.3.4H0ZM272.5,320.2c-4,0-3.7-3.8,0-4,5-.4,10.6-3.1,16.2-11.5,5.2-7.7,12.3-13.1,16.9-14.6,3.7-1.2,4.2,2.1.8,3.8-7.3,3.7-11.9,9.8-15,14-4,5.8-10.6,12.1-18.8,12.3h0ZM41.9,320.2c-4,0-3.7-3.8,0-4,5-.4,10.6-3.1,16.2-11.5,5.2-7.7,12.3-13.1,16.9-14.6,3.7-1.2,4.2,2.1.8,3.8-7.3,3.7-11.9,9.8-15,14-4,5.8-10.6,12.1-18.8,12.3h0ZM449.4,285v-3.5c-9.8-1.9-28.1-13.5-35.4-26.5-6.3-11.2-7.1-22.7-20-22.3-6.5.2-9.2,7.9-5.4,10.4,4.6,3.1,7.9-2.3,3.8-3.8-2.1-.8-1.2-3.1,1.5-2.5,2.7.6,6,2.7,5,7.3-1.3,6.5-12.1,8.1-16.5-.6s1.2-17.7-6-25.8c-1.7-1.9.4-3.3,2.7-1.2,2.3,2.1,3.5,6.7,4,8.1s2.7,1.5,2.1-1.7c-.8-4.6-.6-8.1,5.6-14.8,5.8-6.2,4.4-13.1-1.9-14.6-6.7-1.9-10.4,3.3-9,6.7,1.3,3.3,6.7,3.5,6.7,0s2.5-1.9,2.5-.2c.4,3.8-3.5,8.3-8.8,4.8-6.5-4.2-4.8-14.6-16.5-16-7.9-1-14,5.6-11.7,10.4,2.3,5.2,7.3,4.6,9.6,2.7,2.5-2.1,1.5-5.6-1.7-5.4-2.7,0-2.3-2.3-.2-2.9,6-1.3,10.4,5.2,5.8,10.6-5.6,6.3-14.6-1.2-25.2,6-6.9,4.8-5,12.3-4.4,13.8s-1,2.7-2.5,3.5c-3.8,1.9-6,10.2,0,14.6,6.9,5.2,13.3,1.3,14.6-1.5,1.5-3.7-1-6.7-4.6-5.6-3.3,1.2-3.1,4-1.7,4.8,1.5.8-.8,2.9-4,.4-3.8-2.9-.8-8.1,3.7-8.8,4.6-1,8.3.4,11.5-.4,7.3-1.7,6.5-7.1,5-9-1.3-1.7-4.2-2.1-6.3-1.3-2.7,1.2-2.1,4.2.2,4.6,2.7.4.4,3.3-3.5,1.5-6.2-2.7-3.3-9.6,2.9-10.6,9.6-1.5,14,6.9,14.8,12.3,1.5,11.3-3.7,19.8-21.2,20.6-10.2.6-16.5-6.3-26,.8-4.6,3.5-3.3,10,.4,12.5,2.7,1.9,7.5.6,8.7-2.1,2.7-5.4-5.4-6-4.6-2.5.2,1.2-1.2,1.9-1.9.4-1-1.9,0-6.2,4.8-6.7,6.2-.6,10.6,7.3,2.7,12.7-5.2,3.7-17.7-1.5-24.4,8.5-4,6.2,1.7,12.1,7.9,12.9,5,.8,8.8-2.9,8.8-5.6,0-7.7-10.4-4-7.1,0,1,1.2-1.2,2.1-2.7.8-4-3.3-1.7-8.3,3.7-9.6,7.7-1.7,15.4,6.7,22.9,21.3,8.3,16.2,23.3,26.3,35.8,30.4,4,1.3,7.1-1.3,1.9-3.8-4.4-2.3-15.2-7.5-19.8-12.7-2.9-3.3.4-5.8,3.1-2.7,2.9,3.1,21.5,14.4,36,18.5,4.2,1.2,6.2-1.9,1.9-3.3-8.5-2.7-25.4-12.1-28.7-15.4s0-6,4.6-2.1,26.3,15.4,37.5,16.9c3.3.4,5.4-2.1,1-3.1-6.7-1.5-18.5-7.1-22.3-9.8-3.8-2.7-1.2-6,3.1-2.9,4.8,3.5,29.8,14.2,51.9,13.1,3.8-.2,4.2-3.5-.8-3.5-12.3,0-57.9-8.8-71-41.5-1.3-3.5,3.5-5.4,4.6-1.7,1.3,5.2,12.5,21.7,31.3,29.6,3.5,1.5,7.1-.8,2.5-2.9-11.9-5.6-19.6-13.8-21.2-17.7s1.9-4.4,3.7-2.1c6.3,8.7,28.1,22.9,46.5,23.3,4.4,0,4.4-3.8.6-4-6.5-.2-16.3-3.1-23.3-8.3-3.3-2.3.4-5,2.5-3.3,2.3,1.7,10.4,4.6,13.3,5.4,5.2,1.3,5.4-2.7,2.1-3.8-8.1-2.9-22.5-12.7-28.3-22.5-2.5-4.2,2.1-4.6,3.7-1.7,2.3,4.2,21.9,22.1,37.9,23.8h1.2l.2.6ZM83.7,280.2c1,1.2-1.2,2.1-2.7.8-4-3.3-1.7-8.3,3.7-9.6,7.7-1.7,15.4,6.7,22.9,21.3,8.3,16.2,23.3,26.3,35.8,30.4,4,1.3,7.1-1.3,1.9-3.8-4.4-2.3-15.2-7.5-19.8-12.7-2.9-3.3.4-5.8,3.1-2.7,2.9,3.1,21.5,14.4,36,18.5,4.2,1.2,6.2-1.9,1.9-3.3-8.5-2.7-25.4-12.1-28.7-15.4-3.3-3.3,0-6,4.6-2.1s26.3,15.4,37.5,16.9c3.3.4,5.4-2.1,1-3.1-6.7-1.5-18.5-7.1-22.3-9.8-3.8-2.7-1.2-6,3.1-2.9,4.8,3.5,29.8,14.2,51.9,13.1,3.8-.2,4.2-3.5-.8-3.5-12.3,0-57.9-8.8-71-41.5-1.3-3.5,3.5-5.4,4.6-1.7,1.3,5.2,12.5,21.7,31.3,29.6,3.5,1.5,7.1-.8,2.5-2.9-11.9-5.6-19.6-13.8-21.2-17.7s1.9-4.4,3.7-2.1c6.3,8.7,28.1,22.9,46.5,23.3,4.4,0,4.4-3.8.6-4-6.5-.2-16.3-3.1-23.3-8.3-3.3-2.3.4-5,2.5-3.3,2.3,1.7,10.4,4.6,13.3,5.4,5.2,1.3,5.4-2.7,2.1-3.8-8.1-2.9-22.5-12.7-28.3-22.5-2.5-4.2,2.1-4.6,3.7-1.7,2.3,4.2,21.9,22.1,37.9,23.8,4.4.6,5.8-2.5,1.2-3.5-9.8-1.9-28.1-13.5-35.4-26.5-6.3-11.2-7.1-22.7-20-22.3-6.5.2-9.2,7.9-5.4,10.4,4.6,3.1,7.9-2.3,3.8-3.8-2.1-.8-1.2-3.1,1.5-2.5s6,2.7,5,7.3c-1.3,6.5-12.1,8.1-16.5-.6-4.4-8.7,1.2-17.7-6-25.8-1.7-1.9.4-3.3,2.7-1.2,2.3,2.1,3.5,6.7,4,8.1.6,1.3,2.7,1.5,2.1-1.7-.8-4.6-.6-8.1,5.6-14.8,5.8-6.2,4.4-13.1-1.9-14.6-6.7-1.9-10.4,3.3-9,6.7,1.3,3.3,6.7,3.5,6.7,0s2.5-1.9,2.5-.2c.4,3.8-3.5,8.3-8.8,4.8-6.5-4.2-4.8-14.6-16.5-16-7.9-1-14,5.6-11.7,10.4,2.3,5.2,7.3,4.6,9.6,2.7,2.5-2.1,1.5-5.6-1.7-5.4-2.7,0-2.3-2.3-.2-2.9,6-1.3,10.4,5.2,5.8,10.6-5.6,6.3-14.6-1.2-25.2,6-6.9,4.8-5,12.3-4.4,13.8.6,1.5-1,2.7-2.5,3.5-3.8,1.9-6,10.2,0,14.6,6.9,5.2,13.3,1.3,14.6-1.5,1.5-3.7-1-6.7-4.6-5.6-3.3,1.2-3.1,4-1.7,4.8,1.5.8-.8,2.9-4,.4-3.8-2.9-.8-8.1,3.7-8.8,4.6-1,8.3.4,11.5-.4,7.3-1.7,6.5-7.1,5-9-1.3-1.7-4.2-2.1-6.3-1.3-2.7,1.2-2.1,4.2.2,4.6,2.7.4.4,3.3-3.5,1.5-6.2-2.7-3.3-9.6,2.9-10.6,9.6-1.5,14,6.9,14.8,12.3,1.5,11.3-3.7,19.8-21.2,20.6-10.2.6-16.5-6.3-26,.8-4.6,3.5-3.3,10,.4,12.5,2.7,1.9,7.5.6,8.7-2.1,2.7-5.4-5.4-6-4.6-2.5.2,1.2-1.2,1.9-1.9.4s0-6.2,4.8-6.7c6.2-.6,10.6,7.3,2.7,12.7-5.2,3.7-17.7-1.5-24.4,8.5-4,6.2,1.7,12.1,7.9,12.9,5,.8,8.8-2.9,8.8-5.6,0-7.7-10.4-4-7.1,0l.2.6ZM420.4,321.2c-3.7-1-2.3-3.8,1.2-3.3,10.6,2.3,18.5,2.9,23.1,2.3,3.3-.4,4.6,3.5.4,3.8-3.3.4-14.2,0-24.4-2.9h-.2ZM189.8,321.2c-3.7-1-2.3-3.8,1.2-3.3,10.6,2.3,18.5,2.9,23.1,2.3,3.3-.4,4.6,3.5.4,3.8-3.3.4-14.2,0-24.4-2.9h-.2ZM344.4,324.2c-2.5,0-2.3-2.7.8-2.7s6.3,2.3,7.3,3.8c.8,1.5-.2,2.9-1.5,1.5-1.5-1.3-3.1-2.7-6.3-2.7h-.2ZM113.9,324.2c-2.5,0-2.3-2.7.8-2.7s6.3,2.3,7.3,3.8c.8,1.5-.2,2.9-1.5,1.5-1.5-1.3-3.1-2.7-6.3-2.7h-.2ZM-11.5,327.9v1.7c.6-.6.4-1.3,0-1.7ZM405.2,325.6c-2.5-1.3-1.3-3.8.8-3.1,2.9,1,8.7,4,22.7,5.2,3.5.2,2.9,3.3-.6,3.5-5.4,0-16-2.1-22.7-5.6h-.2ZM174.6,325.6c-2.5-1.3-1.3-3.8.8-3.1,2.9,1,8.7,4,22.7,5.2,3.5.2,2.9,3.3-.6,3.5-5.4,0-16-2.1-22.7-5.6h-.2ZM449.4,329.4v-1.7c-.4-.4-1.2-.6-2.1-.2-2.1.6-6.9,1-9.6.8-2.7,0-3.1,2.3-.6,2.7,3.5.6,8.1.2,10.6-.6.8-.4,1.3-.6,1.7-1h0ZM206.5,331.2c-2.7-.4-2.3-2.9.6-2.7,2.7,0,7.7-.4,9.6-.8,2.7-.8,3.7,1.7.4,2.9-2.5.8-7.1,1.2-10.6.6h0ZM388.3,324.6c-1.7-1-4.2,1.7-1.3,3.7s17.9,6.9,21.2,7.1c3.3.2,5-2.9,1.3-3.5-3.7-.6-16.3-4.8-21.2-7.3h0ZM157.7,324.6c-1.7-1-4.2,1.7-1.3,3.7s17.9,6.9,21.2,7.1c3.3.2,5-2.9,1.3-3.5-3.7-.6-16.3-4.8-21.2-7.3h0ZM-11.5,334.8v3.7h.4c4.2-1.3,2.9-4.4.2-3.7h-.8.2ZM283.7,336.9c-3.3,1.7-2.1,3.7,1.7,2.3,7.9-2.7,14.2-8.1,22.9-16.5,10.2-9.8,23.5-11.9,29.8-10.2,4.2,1.2,6.2-2.1,1.2-3.8-6.7-2.3-23.8.6-34,11.7-7.9,8.7-16,13.5-21.9,16.5h.4ZM53.1,336.9c-3.3,1.7-2.1,3.7,1.7,2.3,7.9-2.7,14.2-8.1,22.9-16.5,10.2-9.8,23.5-11.9,29.8-10.2,4.2,1.2,6.2-2.1,1.2-3.8-6.7-2.3-23.8.6-34,11.7-7.9,8.7-16,13.5-21.9,16.5h.4ZM449.4,338.5v-3.7c-11.9,3.1-26.3,1.2-31.2-.4-3.8-1.2-3.5,2.5-1.3,3.3,12.7,3.8,26.5,2.7,32.5,1v-.2ZM219.6,334.6c2.7-.8,4,2.3-.2,3.7-5.8,1.7-20,3.1-33.1-.8-2.1-.6-2.5-4.4,1.3-3.3,5,1.5,19.8,3.7,31.9.2v.2ZM20.2,338.3c3.1.4,2.3,3.5-1,3.1-13.3-1.7-20.4-12.3-21.2-16.3-.4-2.3,1.9-2.9,2.7-1,1,2.7,7.3,13.1,19.2,14.2h.2ZM250.8,338.3c3.1.4,2.3,3.5-1,3.1-13.3-1.7-20.4-12.3-21.2-16.3-.4-2.3,1.9-2.9,2.7-1,1,2.7,7.3,13.1,19.2,14.2h.2ZM115.2,339.2c3.5-4-6.5-6.2-5.2,1,1,5.2,9.4,5.6,13.1-.4,1.9-3.1,1.7-6.2,4.4-8.1,3.5-2.5,11.9-1.7,12.3,3.8,0,1.7-1.7,2.3-2.5.8-1.2-2.7-4.8-2.3-6,1.2-.8,2.5,1.2,4.8,5.2,4.6,2.7,0,7.1-3.1,7.3-8.3.4-6-6.7-10.4-15.2-8.7-2.3.6-2.9-.6-3.3-1.2-2.7-3.8-7.5-7.1-16-6.7-10.8.6-15.8,6.2-17.5,8.5-1.9,2.5.6,3.5,1.7,2.3,5.8-5.6,11.7-6,13.3-5.8,2.3,0,1.9,1.9.4,2.3-2.1.4-5.4,2.1-6.9,3.7-2.1,2.1,0,3.3,1.2,2.1,1.5-1.3,5-3.1,6.9-3.1s2.7,1.3.8,1.9c-1.5.4-3.5,1.9-4.2,3.1-.8,1,0,2.7,1.7,1.3,3.1-2.3,8.3-3.3,11.2,0,2.3,2.5.4,5.8-1.5,6.5-1.2.6-2.1.2-1.3-.8l.2-.2ZM345.8,339.2c3.5-4-6.5-6.2-5.2,1,1,5.2,9.4,5.6,13.1-.4,1.9-3.1,1.7-6.2,4.4-8.1,3.5-2.5,11.9-1.7,12.3,3.8,0,1.7-1.7,2.3-2.5.8-1.2-2.7-4.8-2.3-6,1.2-.8,2.5,1.2,4.8,5.2,4.6,2.7,0,7.1-3.1,7.3-8.3.4-6-6.7-10.4-15.2-8.7-2.3.6-2.9-.6-3.3-1.2-2.7-3.8-7.5-7.1-16-6.7-10.8.6-15.8,6.2-17.5,8.5-1.9,2.5.6,3.5,1.7,2.3,5.8-5.6,11.7-6,13.3-5.8,2.3,0,1.9,1.9.4,2.3-2.1.4-5.4,2.1-6.9,3.7-2.1,2.1,0,3.3,1.2,2.1,1.5-1.3,5-3.1,6.9-3.1s2.7,1.3.8,1.9c-1.5.4-3.5,1.9-4.2,3.1-.8,1,0,2.7,1.7,1.3,3.1-2.3,8.3-3.3,11.2,0,2.3,2.5.4,5.8-1.5,6.5-1.2.6-2.1.2-1.3-.8l.2-.2ZM-1.3,298.7c-1.5,2.5,1.7,4,4,3.1,1.5-.8,3.5-3.1,1-5.8-4-4.4-11.9-1.2-13.7,4.4-1.3,4.6,1.2,8.3,4,9.8.8.4,1.3.6.6,2.3-3.8,8.1-3.1,20.8,13.5,29.2,15,7.7,32.9,2.7,37.1.8,3.1-1.5,2.5-3.8-1.3-2.5-6.9,2.1-11.5,2.3-14,1.9-3.5-.6-2.7-3.3,1.2-3.5,7.9-.2,23.8-2.7,39-18.8,10.6-11.3,24-16,30.4-16s3.5-3.7-.6-3.5c-4,0-17.9,1.2-31.7,16-7.7,8.1-20.2,15.8-29.8,16.9-3.1.4-2.7-2.3,0-2.9,3.8-.6,16-5,21.9-11.7,1.7-1.9-.4-3.8-2.7-1.7-4.6,4.4-14.8,9.2-25.8,10.2-7.3.6-14.8-3.3-12.7-10.6,1.5-5.4,7.9-5.2,10.2-3.5,2.7,1.9,2.1,4.2,1.7,5-.6,1.3-2.7,1.7-2.1,0,.8-2.7-2.3-3.7-4.4-2.3s-1.7,4.8,1,6c4.4,2.1,9.8-1,10.2-5.6.4-3.8-3.1-9.2-11.2-8.3-3.3.4-6-.8-7.1-2.7-1.5-2.7-2.9-10.6,6.5-13.8,6-2.1,10,3.1,9.8,5.4,0,1.7-1.7,1.7-2.3.6-.4-1.2-5.4-3.3-7.7,1-1.9,3.7,3.8,7.9,9.8,4.6,4.6-2.5,6.5-9,1.2-14.4-5.2-5-17.7-5.4-24.2,4.6-3.7,5.6-2.5,9.2-3.1,11-.2.6-.4,1.2-1.2,1.5-3.1,1.5-7.9,1.5-10-1.3-1.5-1.9-1.7-4.6.6-6.3,1.5-1.2,2.7,0,2.1.8l-.2.2ZM229.2,298.7c-1.5,2.5,1.7,4,4,3.1,1.5-.8,3.5-3.1,1-5.8-4-4.4-11.9-1.2-13.7,4.4-1.3,4.6,1.2,8.3,4,9.8.8.4,1.3.6.6,2.3-3.8,8.1-3.1,20.8,13.5,29.2,15,7.7,32.9,2.7,37.1.8,3.1-1.5,2.5-3.8-1.3-2.5-6.9,2.1-11.5,2.3-14,1.9-3.5-.6-2.7-3.3,1.2-3.5,7.9-.2,23.8-2.7,39-18.8,10.6-11.3,24-16,30.4-16s3.5-3.7-.6-3.5c-4,0-17.9,1.2-31.7,16-7.7,8.1-20.2,15.8-29.8,16.9-3.1.4-2.7-2.3,0-2.9,3.8-.6,16-5,21.9-11.7,1.7-1.9-.4-3.8-2.7-1.7-4.6,4.4-14.8,9.2-25.8,10.2-7.3.6-14.8-3.3-12.7-10.6,1.5-5.4,7.9-5.2,10.2-3.5,2.7,1.9,2.1,4.2,1.7,5-.6,1.3-2.7,1.7-2.1,0,.8-2.7-2.3-3.7-4.4-2.3s-1.7,4.8.8,6c4.4,2.1,9.8-1,10.2-5.6.4-3.8-3.1-9.2-11.2-8.3-3.3.4-6-.8-7.1-2.7-1.5-2.7-2.9-10.6,6.5-13.8,6-2.1,10,3.1,9.8,5.4,0,1.7-1.7,1.7-2.3.6-.4-1.2-5.4-3.3-7.7,1-1.9,3.7,3.8,7.9,9.8,4.6,4.6-2.5,6.5-9,1.2-14.4-5.2-5-17.7-5.4-24.2,4.6-3.7,5.6-2.5,9.2-3.1,11-.2.6-.4,1.2-1.2,1.5-3.1,1.5-7.9,1.5-10.2-1.3-1.5-1.9-1.7-4.6.6-6.3,1.5-1.2,2.7,0,2.1.8l.2.2ZM372.1,352.5c-1.9,2.1-4,0-1.9-2.7,6.3-8.1,18.7-12.1,24.4-11.9,3.1,0,3.3,2.5.8,2.5-7.9,0-16.9,5.2-23.3,12.1h0ZM141.5,352.5c-1.9,2.1-4,0-1.9-2.7,6.3-8.1,18.7-12.1,24.4-11.9,3.1,0,3.3,2.5.8,2.5-7.9,0-16.9,5.2-23.3,12.1h0ZM180.8,347.9c-1.9-.6-1.9-2.5,1.3-2.3,3.1.2,9.8,3.3,12.3,7.3,1.2,1.9-.8,3.1-2.1,1.5-1.3-1.7-5.4-5-11.5-6.5h0ZM411.3,347.9c-1.9-.6-1.9-2.5,1.3-2.3,3.1.2,9.8,3.3,12.3,7.3,1.2,1.9-.8,3.1-2.1,1.5-1.3-1.7-5.4-5-11.5-6.5h0ZM320.4,359.8c.2,1.5,1.7,1.2,1.7-.6s1-4.6,1.7-6c.8-1.3-1.2-2.7-2.5-.2-1.3,2.5-1.3,5.8-1.2,6.7h.2ZM89.8,359.8c.2,1.5,1.7,1.2,1.7-.6s1-4.6,1.7-6c.8-1.3-1.2-2.7-2.5-.2-1.3,2.5-1.3,5.8-1.2,6.7h.2ZM326,362.7c.4,1.5,2.1,1.3,1.9-.4,0-2.9.8-6.5,2.1-8.7,1.3-2.3-1.2-3.1-2.7,0-1.3,2.3-1.9,6.7-1.3,9h0ZM95.4,362.7c.4,1.5,2.1,1.3,1.9-.4,0-2.9.8-6.5,2.1-8.7,1.3-2.3-1.2-3.1-2.7,0-1.3,2.3-1.9,6.7-1.3,9ZM180.2,363.3c-1-1-1.2-2.1-.6-2.7.6-.6,1.7-.8,3.7.6,3.8,2.7.8,5.4-3.1,2.1h0ZM410.8,363.3c-1-1-1.2-2.1-.6-2.7.6-.6,1.7-.8,3.7.6,3.8,2.7.8,5.4-3.1,2.1h0ZM90.8,365.4c.4.8,1,1.2,1.5,1,.6,0,.8-.8.6-1.9-.6-2.1-2.9-1.2-1.9,1h-.2ZM321.3,365.4c.4.8,1,1.2,1.5,1,.6,0,.8-.8.6-1.9-.6-2.1-2.9-1.2-1.9,1h-.2ZM134.8,364.4c2.1-1.2,3.3.4,1.3,1.7-5.2,3.8-12.9,3.8-15.6.8-1.3-1.5,0-2.7,1.3-1.5,2.3,1.7,7.7,2.1,12.7-.8l.2-.2ZM365.4,364.4c2.1-1.2,3.3.4,1.3,1.7-5.2,3.8-12.9,3.8-15.6.8-1.3-1.5,0-2.7,1.3-1.5,2.3,1.7,7.7,2.1,12.7-.8l.2-.2ZM86.6,358.9c0-1.7-2.7-1.9-2.9.8s1.3,7.3,2.3,8.7c1.2,1.7,2.7.6,2.1-.8-.8-1.5-1.7-5-1.5-8.7ZM317.1,358.9c0-1.7-2.7-1.9-2.9.8s1.3,7.3,2.3,8.7c1.2,1.7,2.7.6,2.1-.8-.8-1.5-1.7-5-1.5-8.7ZM81.7,369.8c.6.6,1.3.8,1.7.4.4-.4.6-1,0-1.9-1.3-1.7-3.1-.2-1.5,1.5h-.2ZM312.3,369.8c.6.6,1.3.8,1.7.4s.6-1,0-1.9c-1.3-1.7-3.1-.2-1.5,1.5h-.2ZM125.8,354.4c.4-.8-.2-2.1-2.5-1.2-4.4,1.7-5.4,7.5-.8,9.4,5.2,2.1,11.3,1,20.2-7.1,11-10.2,22.3-13.3,30.8-11.5,3.1.8,2.5,2.9,0,2.7-2.1,0-6.9-.8-10.6.8-2.3,1-1.3,2.7.6,2.3,14-2.9,24.4,4,26.7,7.1,1.9,2.5,0,4-2.1,2.3-16.3-14-37.5-2.3-45.2,1.7-2.1,1.2-1.5,3.1,1,2.1,3.3-1.3,21-11.3,31.9-5.8,2.7,1.3,1.7,3.8-1.2,2.9-5.6-2.1-13.5-1-17.3,1-3.3,1.7-2.3,3.5.2,2.5,8.7-3.3,17.3-.4,19.8,2.1,2.3,2.1,0,4.2-2.1,2.7-10.4-6.7-31.7,3.5-39.8,5.6-9.8,2.7-21.5-1-23.7-10.2-2.3-10.6,10-19,17.7-15.4,6.2,2.9,4.6,8.8,1.2,10-3.1,1.2-6.5-.6-4.8-4h0ZM356.2,354.4c.4-.8-.2-2.1-2.5-1.2-4.4,1.7-5.4,7.5-.8,9.4,5.2,2.1,11.3,1,20.2-7.1,11-10.2,22.3-13.3,30.8-11.5,3.1.8,2.5,2.9,0,2.7-2.1,0-6.9-.8-10.6.8-2.3,1-1.3,2.7.6,2.3,14-2.9,24.4,4,26.7,7.1,1.9,2.5,0,4-2.1,2.3-16.3-14-37.5-2.3-45.2,1.7-2.1,1.2-1.5,3.1,1,2.1,3.3-1.3,21-11.3,31.9-5.8,2.7,1.3,1.7,3.8-1.2,2.9-5.6-2.1-13.5-1-17.3,1-3.3,1.7-2.3,3.5.2,2.5,8.7-3.3,17.3-.4,19.8,2.1,2.3,2.1,0,4.2-2.1,2.7-10.4-6.7-31.7,3.5-39.8,5.6-9.8,2.7-21.5-1-23.7-10.2-2.3-10.6,10-19,17.7-15.4,6.2,2.9,4.6,8.8,1.2,10-3.1,1.2-6.5-.6-4.8-4h0ZM391.3,376.6c-2.1,0-2.5-3.3,1.3-3.7,5-.6,11,.2,14,1.9,3.7,2.1,1,4.8-1,3.7-4.2-2.3-9.8-2.3-14.4-1.9ZM160.8,376.6c-2.1,0-2.5-3.3,1.3-3.7,5-.6,11,.2,14,1.9,3.7,2.1,1,4.8-1,3.7-4.2-2.3-9.8-2.3-14.4-1.9ZM337.7,381.9c-2.5.6-3.5-2.1-1.2-2.5,2.7-.4,5.2-3.3,7.5-4,2.5-.8,2.7,1.5.6,2.3-1.3.4-4.4,3.7-6.9,4.2h0ZM107.1,381.9c-2.5.6-3.5-2.1-1.2-2.5,2.7-.4,5.2-3.3,7.5-4,2.5-.8,2.7,1.5.6,2.3-1.3.4-4.4,3.7-6.9,4.2h0ZM15.2,383.1c1.2,1.3,3.7,1,2.3-1.3-1.7-2.9-4-10.4,2.3-17.1,1.7-1.9,3.7-.6,1.9,1.5-2.1,2.3-3.5,6.2-3.1,8.1s2.7,2.1,2.7,0c0-3.1,1.9-6.3,5-8.3,2.3-1.3,2.5-2.3,0-4.4-2.9-2.5-2.3-6.7,1.5-8.5,3.3-1.5,5.2-.2,6,.6,1.3,1.3-.2,2.5-1.3,1.7-1-.8-3.7,0-4.2,1.9s1.7,4.2,5.2,3.8c3.8-.4,6.5-4.6,3.7-8.8-2.7-3.8-11.7-3.7-17.5,1.7-7.9,7.5-10.8,21.2-4.4,28.8v.2ZM245.8,383.1c1.2,1.3,3.7,1,2.3-1.3-1.7-2.9-4-10.4,2.3-17.1,1.7-1.9,3.7-.6,1.9,1.5-2.1,2.3-3.5,6.2-3.1,8.1s2.7,2.1,2.7,0c0-3.1,1.9-6.3,5-8.3,2.3-1.3,2.5-2.3,0-4.4-2.9-2.5-2.3-6.7,1.5-8.5,3.3-1.5,5.2-.2,6,.6,1.3,1.3-.2,2.5-1.3,1.7-1-.8-3.7,0-4.2,1.9s1.7,4.2,5.2,3.8c3.8-.4,6.5-4.6,3.7-8.8-2.7-3.8-11.7-3.7-17.5,1.7-7.9,7.5-10.8,21.2-4.4,28.8v.2ZM300.6,382.9c1,0,1.5,0,1.3.6,0,.4-.6.8-1.5,1-1.3.2-1.9-1.2,0-1.5h.2ZM70,382.9c1,0,1.5,0,1.3.6,0,.4-.6.8-1.5,1-1.3.2-1.9-1.2,0-1.5h.2ZM238.3,383.7c1.7,2.3,5.6,1.3,3.3-1-2.7-2.9-2.9-8.1-2.3-11.5.4-2.9-1.3-2.9-2.5-.4-1.5,3.5-1.2,9.6,1.5,13.1v-.2ZM7.7,383.7c1.7,2.3,5.6,1.3,3.3-1-2.7-2.9-2.9-8.1-2.3-11.5.4-2.9-1.3-2.9-2.5-.4-1.5,3.5-1.2,9.6,1.5,13.1v-.2ZM149.2,386.6c-3.8,1.3-4.6-2.3-1.3-3.7,4.4-1.7,15.2-3.8,23.3-.8,3.7,1.3,2.1,4-1,3.3-4.4-1-12.1-1.7-21,1.2h0ZM379.8,386.6c-3.8,1.3-4.6-2.3-1.3-3.7,4.4-1.7,15.2-3.8,23.3-.8,3.7,1.3,2.1,4-1,3.3-4.4-1-12.1-1.7-21,1.2h0ZM3.7,383.7c-.6-.8-1.3-.8-1.7-.6-.4.4-.6,1.2,0,2.3,1.5,2.9,4.4,1.3,1.7-1.7ZM234.2,383.7c-.6-.8-1.3-.8-1.7-.6-.4.4-.6,1.2,0,2.3,1.5,2.9,4.4,1.3,1.7-1.7ZM218.3,385.4c0,1.7,2.5,2.9,3.1-.8,1.3-8.7-6.5-14.4-9.6-15.6-2.1-.8-2.3,1.2-.4,2.3,1.9,1.2,7.3,5.2,7.1,14h-.2ZM299.8,386.7c2.7-1,2.5,1.2,0,1.9-3.8,1.3-7.1,1.2-9-.8-1.7-1.5,0-2.7,1.3-1.5,1.7,1.3,5.4,1.2,7.7.4ZM69.2,386.7c2.7-1,2.5,1.2,0,1.9-3.8,1.3-7.1,1.2-9-.8-1.7-1.5,0-2.7,1.3-1.5,1.7,1.3,5.4,1.2,7.7.4ZM120.2,381.9c2.1-1,1.3-3.3-1.7-2.5-5.8,1.3-10,8.1-16,6.5-2.3-.6-3.7,2.3-1,3.3,6.7,2.3,11.7-4.2,18.8-7.3h-.2ZM350.8,381.9c2.1-1,1.3-3.3-1.7-2.5-5.8,1.3-10,8.1-16,6.5-2.3-.6-3.7,2.3-1,3.3,6.7,2.3,11.7-4.2,18.8-7.3h-.2ZM395.8,392.9c-1.9-.4-2.9-1.3-2.7-2.3s1.5-1.5,4.2-1.3c4.6.6,4,4.4-1.5,3.5v.2ZM165.2,392.9c-1.9-.4-2.9-1.3-2.7-2.3s1.5-1.5,4.2-1.3c4.6.6,4,4.4-1.5,3.5v.2ZM221.4,395c0-1.3-.8-1.9-1.7-1.9s-1.9.8-1.9,2.1c-.2,3.3,3.3,2.9,3.7-.2ZM18.3,411.2c.6,1.2,1.7,1.3,2.5,1,.8-.4,1.2-1.5.6-2.7-1.5-2.9-4.6-1-3.1,1.7ZM248.8,411.2c.6,1.2,1.7,1.3,2.5,1,.8-.4,1.2-1.5.6-2.7-1.5-2.9-4.6-1-3.1,1.7ZM117.7,418.1c-2.3.6-4.2-2.1,0-3.3,6.3-1.7,27.9-21.2,47.9-17.9,4.2.6,3.3,4.6-.8,4.4-22.1-1.3-33.1,12.9-46.9,16.7h-.2ZM348.3,418.1c-2.3.6-4.2-2.1,0-3.3,6.3-1.7,27.9-21.2,47.9-17.9,4.2.6,3.3,4.6-.8,4.4-22.1-1.3-33.1,12.9-46.9,16.7h-.2ZM155,419.6c-1.7,0-2.7-.6-2.9-1.5,0-1,.8-1.9,2.9-2.1,3.8-.6,4.8,3.3,0,3.7h0ZM385.6,419.6c-1.7,0-2.7-.6-2.9-1.5,0-1,.8-1.9,2.9-2.1,3.8-.6,4.8,3.3,0,3.7h0ZM79.8,416c1.9,1.3,2.7,2.9,2.3,3.7-.4.8-1.9,1-4.6-.4-6.2-3.5-3.1-6.7,2.1-3.3h.2ZM310.4,416c1.9,1.3,2.7,2.9,2.3,3.7s-1.9,1-4.6-.4c-6.2-3.5-3.1-6.7,2.1-3.3h.2ZM234.2,424.4c1,1.7-1.7,3.8-3.5,1.3-3.1-4.2-5-11-4.8-16,0-3.3,3.8-4.2,4-1,.4,5.4,1.7,10.6,4.2,15.4v.2ZM3.9,424.4c1,1.7-1.7,3.8-3.5,1.3-3.1-4.2-5-11-4.8-16,0-3.3,3.8-4.2,4-1,.4,5.4,1.7,10.6,4.2,15.4v.2ZM333.1,429.8c2.9-.2,4,2.3-.8,3.3-3.7.8-15.8.2-23.3-3.8-2.9-1.5-1.3-4.2,1.2-3.1,6,2.7,12.7,4.4,22.7,3.7h.2ZM102.5,429.8c2.9-.2,4,2.3-.8,3.3-3.7.8-15.8.2-23.3-3.8-2.9-1.5-1.3-4.2,1.2-3.1,6,2.7,12.7,4.4,22.7,3.7h.2ZM12.5,412.9c-1.2-3.3-5.4-2.1-4.2,2.3,2.9,9.6,11,18.1,16.7,21.7,2.5,1.5,5.6-1,1.9-3.5-3.1-2.1-10.6-9.4-14.4-20.6ZM243.1,412.9c-1.2-3.3-5.4-2.1-4.2,2.3,2.9,9.6,11,18.1,16.7,21.7,2.5,1.5,5.6-1,1.9-3.5-3.1-2.1-10.6-9.4-14.4-20.6ZM327.7,345.4c1.5-1.3.4-3.7-2.3-3.1-2.3.6-3.8,5.8,1.7,6.7,6.2,1.2,14.6-8.8,4.2-15.6-10.4-6.9-18.3.2-20,2.1-1.2,1.3-2.9,1.3-4.8,1.3s-9.4-1.2-15.8,8.5c-1,1.5-1.5,1.3-3.3,1.5-4,.6-13.5,3.7-14.6,15.6,0,1.3-.8,2.3-1.9,2.9-8.5,5.2-17.5,27.1,0,46.7,19.6,22.1,49.4,27.1,63.1,25.6,24.4-2.5,34.4-12.7,42.9-15.2,3.8-1.2,3.5-5-1-4-6,1.3-16.7,10.4-30.8,12.7-3.8.6-5.2-2.1-1-3.3,19.8-5,26.5-14.6,41.5-17.3,5.8-1.2,5.2-4.8-.6-4-13.8,1.7-23.7,11.3-36.7,15-9.6,2.7-17.1,5.4-28.5,1.5-2.5-.8-1.3-4.4,1.5-3.5,3.5,1.3,10.2,1.9,16.3.2,3.8-1,2.7-4-.2-3.3-7.3,1.7-18.8-.4-23.1-4.2-4-3.3,0-5,2.5-3.1s17.1,8.5,32.9-.2c9.8-5.2,22.9-14.2,34-16,4.6-.8,4.4-4.8-.2-4.4-7.3.6-19.6,7.3-34.2,16-8.5,5-18.5,6-27.5,2.3-3.8-1.5-1.2-4.4,1.5-3.5,5.6,1.9,14.6,2.3,24.6-2.9,7.1-3.8,14.4-8.5,22.3-11.9,4.2-1.9,2.9-4.8-.6-3.7-6.9,2.1-13.1,7.1-20.8,10.4-2.9,1.2-4.4-1.2-2.1-2.7,9-5.6,21-13.5,34.4-15.6,4.2-.8,4-4,0-3.8-8.1.4-23.1,6.7-35.6,15.2-5.2,3.7-11.7,6.5-18.8,2.7-1.7-1-4.4,1-1.9,2.9,3.1,2.3,8.5,2.9,12.7,2.1,4-.8,4,2.1,0,2.9-7.3,1.7-16.5-1.3-21-6.9-4.2-5.8-.4-13.8,4.4-14.4,5.2-.6,6.3,2.9,5,4.6-.6.8-1.3.6-1.5,0-.8-1.7-4.6-1.5-4.4,1.9.4,2.9,5.2,3.8,8.5.2,3.5-3.7.8-7.9,0-9.2s-.8-4.2,2.7-5.8c2.7-1.2,5.2.8,5.2,2.5s-.8,1.2-1.5.8c-1.9-.8-4,1.5-1.9,3.3,2.3,1.9,7.9-1.2,6-6.2-1.3-3.5-5.6-5.2-9.6-3.8-2.5.8-4.4,3.1-5,3.8-.8,1-1.2,1.3-1.7,1.3-1.2,0-9-1-14.4,5.2-3.7,4-4,7.7-4.2,10.4,0,1-.4,1.7-.8,2.1-3.1,3.8-15,6-20-1.7-4.8-7.3,1.9-12.5,5.2-12.9,3.1-.4,6.9,2.5,3.7,5.6-.6.6-1.3.2-1-.4.8-1.9-3.1-2.7-3.7,0-1,4,6.2,6.2,10,2.3,4-4,.8-10.6-3.8-12.1-2.7-1-2.3-9.4,4-10.8,6.7-1.5,9.4,3.8,6,7.1-1.2,1-2.5,1.2-1.7-.8,1.2-2.7-3.8-4.4-5-.4-1.2,3.8,6.3,8.3,11.2,2.1,4-5.4,0-11.3-5-12.7-2.7-.8-2.3-9,3.8-9.8,6.5-.8,7.9,5,4.6,7.3-1.2.8-2.1,0-1.3-.8,2.1-2.1-2.5-4.6-4-1-1.2,3.1,3.8,7.5,9.6,3.8,4.4-2.7,4-8.5,1.9-10.4-1.5-1.5,1.5-6,6.3-6.2,4.4,0,7.1,3.3,7.3,5.2,0,2.3-1.5,3.8-3.1,4.2-1,.2-1.3-.6-.8-1.3h0ZM97.1,345.4c1.5-1.3.4-3.7-2.3-3.1-2.3.6-3.8,5.8,1.7,6.7,6,1.2,14.6-8.8,4.2-15.6-10.4-6.9-18.3.2-20,2.1-1.2,1.3-2.9,1.3-4.8,1.3s-9.4-1.2-15.8,8.5c-1,1.5-1.5,1.3-3.3,1.5-4.2.6-13.5,3.7-14.6,15.6,0,1.3-.8,2.3-1.9,2.9-8.5,5.2-17.5,27.1,0,46.7,19.6,22.1,49.4,27.1,63.1,25.6,24.4-2.5,34.4-12.7,42.9-15.2,3.8-1.2,3.5-5-1-4-6,1.3-16.7,10.4-30.8,12.7-3.8.6-5.2-2.1-1-3.3,19.8-5,26.5-14.6,41.5-17.3,5.8-1.2,5.2-4.8-.6-4-13.8,1.7-23.7,11.3-36.7,15-9.6,2.7-17.1,5.4-28.5,1.5-2.5-.8-1.3-4.4,1.5-3.5,3.5,1.3,10.2,1.9,16.3.2,3.8-1,2.7-4-.2-3.3-7.3,1.7-18.8-.4-23.1-4.2-4-3.3,0-5,2.5-3.1s17.1,8.5,32.9-.2c9.8-5.2,22.9-14.2,34-16,4.6-.8,4.4-4.8-.2-4.4-7.3.6-19.6,7.3-34.2,16-8.5,5-18.5,6-27.5,2.3-3.8-1.5-1.2-4.4,1.5-3.5,5.6,1.9,14.6,2.3,24.6-2.9,7.1-3.8,14.4-8.5,22.3-11.9,4.2-1.9,2.9-4.8-.6-3.7-6.9,2.1-13.1,7.1-20.8,10.4-2.9,1.2-4.4-1.2-2.1-2.7,9-5.6,21-13.5,34.4-15.6,4.2-.8,4-4,0-3.8-8.1.4-23.1,6.7-35.6,15.2-5.2,3.7-11.7,6.5-18.8,2.7-1.7-1-4.4,1-1.9,2.9,3.1,2.3,8.5,2.9,12.7,2.1,4-.8,4,2.1,0,2.9-7.3,1.7-16.5-1.3-21-6.9-4.2-5.8-.4-13.8,4.4-14.4,5.2-.6,6.3,2.9,5,4.6-.6.8-1.3.6-1.5,0-.8-1.7-4.6-1.5-4.4,1.9.4,2.9,5.2,3.8,8.5.2,3.5-3.7.8-7.9,0-9.2-1-1.3-.8-4.2,2.7-5.8,2.7-1.2,5.2.8,5.2,2.5s-.8,1.2-1.5.8c-1.9-.8-4,1.5-1.9,3.3,2.3,1.9,7.9-1.2,6-6.2-1.3-3.5-5.6-5.2-9.6-3.8-2.5.8-4.4,3.1-5,3.8-.8,1-1.2,1.3-1.7,1.3-1.2,0-9-1-14.4,5.2-3.7,4-4,7.7-4.2,10.4,0,1-.4,1.7-.8,2.1-3.1,3.8-15,6-20-1.7-4.8-7.3,1.9-12.5,5.2-12.9,3.1-.4,6.9,2.5,3.7,5.6-.6.6-1.3.2-1-.4.8-1.9-3.1-2.7-3.7,0-1,4,6.2,6.2,10,2.3,4-4,.8-10.6-3.8-12.1-2.7-1-2.3-9.4,4-10.8,6.7-1.5,9.4,3.8,6,7.1-1.2,1-2.5,1.2-1.7-.8,1.2-2.7-3.8-4.4-5-.4-1.2,3.8,6.3,8.3,11.2,2.1,4-5.4,0-11.3-5-12.7-2.7-.8-2.3-9,3.8-9.8,6.5-.8,7.9,5,4.6,7.3-1.2.8-2.1,0-1.3-.8,2.1-2.1-2.5-4.6-4-1-1.2,3.1,3.8,7.5,9.6,3.8,4.4-2.7,4-8.5,1.9-10.4-1.5-1.5,1.5-6,6.3-6.2,4.4,0,7.1,3.3,7.3,5.2,0,2.3-1.5,3.8-3.1,4.2-1,.2-1.3-.6-.8-1.3h0ZM305.4,440.6c-2.7,0-4,2.7-1,2.9s7.7,1.5,9.6,3.1,3.3-1.3,1.2-2.9c-3.3-2.3-6.9-3.1-9.8-3.1ZM75,440.6c-2.7,0-4,2.7-1,2.9s7.7,1.5,9.6,3.1,3.3-1.3,1.2-2.9c-3.3-2.3-6.9-3.1-9.8-3.1ZM61.4,447.9c-1.5-.2-2.5-1.2-2.3-1.9.2-.8,1.5-1.5,4.2-1.3,5.6.4,3.7,4.2-1.9,3.3ZM291.9,447.9c-1.5-.2-2.5-1.2-2.3-1.9s1.5-1.5,4.2-1.3c5.6.4,3.7,4.2-1.9,3.3ZM229.4,452.5c2.1,1.2,1,3.7-2.5,2.3s-8.8-6-10-9,3.1-3.8,4-1.5,3.7,6,8.3,8.3h.2ZM195.8,455.2c1.2,1,2.1.8,2.7,0,.6-.8.6-1.7-.6-2.7-2.5-2.1-4.8.6-2.3,2.7h.2ZM426.3,455.2c1.2,1,2.1.8,2.7,0s.6-1.7-.6-2.7c-2.5-2.1-4.8.6-2.3,2.7h.2ZM132.1,456.4c-1.3,2.1-4.2,1-2.7-2.7,1.5-3.7,8.3-10.8,15.8-12.9,3.8-1.2,4.2,1.7,1.5,3.1-2.9,1.3-10,5-14.6,12.5h0ZM362.7,456.4c-1.3,2.1-4.2,1-2.7-2.7s8.3-10.8,15.8-12.9c3.8-1.2,4.2,1.7,1.5,3.1-2.9,1.3-10,5-14.6,12.5h0ZM143.3,437.5c2.9-.6,2.5-3.3-1.3-2.9-3.7.4-8.8,3.1-13.3,7.5-5,5.2-5.4,10.2-9.2,13.1-2.1,1.5-1.2,5,2.5,2.7s5.4-9.4,9.2-13.5c3.3-3.5,7.7-6.2,12.1-7.1v.2ZM373.8,437.5c2.9-.6,2.5-3.3-1.3-2.9-3.7.4-8.8,3.1-13.3,7.5-5,5.2-5.4,10.2-9.2,13.1-2.1,1.5-1.2,5,2.5,2.7,3.7-2.3,5.4-9.4,9.2-13.5,3.3-3.5,7.7-6.2,12.1-7.1v.2ZM159.4,461.4h10.4c3.1-1,6-1.5,8.1-1.5,3.5,0,3.5-3.7-.6-3.5-2.7,0-9.6.6-17.9,5h0ZM314.4,461.4h10.8c-1.5-2.7-2.9-10.6,6.5-13.8,6-2.1,10,3.1,9.8,5.4,0,1.7-1.7,1.7-2.3.6-.4-1.2-5.4-3.3-7.7,1-1.9,3.7,3.8,7.9,9.8,4.6,4.6-2.5,6.5-9,1.2-14.4-5.2-5-17.7-5.4-24.2,4.6-3.7,5.6-2.5,9.2-3.1,11,0,.6-.2,1-.8,1.3v-.2ZM83.9,461.4h10.8c-1.5-2.7-2.9-10.6,6.5-13.8,6-2.1,10,3.1,9.8,5.4,0,1.7-1.7,1.7-2.3.6-.4-1.2-5.4-3.3-7.7,1-1.9,3.7,3.8,7.9,9.8,4.6,4.6-2.5,6.5-9,1.2-14.4-5.2-5-17.7-5.4-24.2,4.6-3.7,5.6-2.5,9.2-3.1,11,0,.6-.2,1-.8,1.3v-.2ZM123.5,461.4h3.5c1.2-2.3-.6-3.8-1.9-2.1-.6.6-1,1.3-1.7,2.1h.2ZM148.7,461.4h3.7c6.5-5.4,14.4-8.5,20-8.7,3.5,0,4.2-3.8-1.3-3.8s-15.6,4.2-21.3,10.8c-.6.6-.8,1.2-1,1.5v.2ZM297.9,461.4h7.1c-.4-.4-.8-.8-1.2-1.2-1.5-1.9-1.7-4.6.6-6.3,1.5-1.2,2.7,0,2.1.8-1.5,2.5,1.7,4,4,3.1,1.5-.8,3.5-3.1,1-5.8-4-4.4-11.9-1.2-13.7,4.4-.6,1.7-.6,3.5,0,4.8v.2ZM354,461.4h3.5c1.2-2.3-.6-3.8-1.9-2.1-.6.6-1,1.3-1.7,2.1h.2ZM379.2,461.4h3.7c6.5-5.4,14.4-8.5,20-8.7,3.5,0,4.2-3.8-1.3-3.8s-15.6,4.2-21.3,10.8c-.6.6-.8,1.2-1,1.5v.2ZM42.1,461.4h18.8c0-.8-1-1.5-2.5-1.5-5.4.4-10.2.4-21.5-4-3.3-1.3-5,.8-1.3,2.7,2.1,1.2,4.2,2.1,6.5,2.7v.2ZM135,461.4h5.2c2.9-3.8,7.1-8.5,13.1-11.5,3.5-1.7,2.9-5-.8-3.8-4.6,1.3-11.7,6.9-16.9,14.6,0,.2-.4.6-.6.8ZM272.7,461.4h18.8c0-.8-1-1.5-2.5-1.5-5.4.4-10.2.4-21.5-4-3.3-1.3-5,.8-1.3,2.7,2.1,1.2,4.2,2.1,6.5,2.7v.2ZM193.7,461.4h8.3c-1.2-2.5,1.5-4,4-1.3.4.4.8.8,1.5,1.3h9.6c-.8-.6-1.5-1.2-1.9-1.5-3.3-3.3,0-6,4.6-2.1,1,1,2.9,2.1,5.4,3.7h10.4c-3.5-2.7-.6-5.6,3.5-2.7,1,.6,2.5,1.5,4.8,2.7h15.4c-16-6-32.9-16.7-40-34.6-1.3-3.5,3.5-5.4,4.6-1.7,1.3,5.2,12.5,21.7,31.3,29.6,3.5,1.5,7.1-.8,2.5-2.9-11.9-5.6-19.6-13.8-21.2-17.7s1.9-4.4,3.7-2.1c6.3,8.7,28.1,22.9,46.5,23.3,4.4,0,4.4-3.8.6-4-6.5-.2-16.3-3.1-23.3-8.3-3.3-2.3.4-5,2.5-3.3,2.3,1.7,10.4,4.6,13.3,5.4,5.2,1.3,5.4-2.7,2.1-3.8-8.1-2.9-22.5-12.7-28.3-22.5-2.5-4.2,2.1-4.6,3.7-1.7,2.3,4.2,21.9,22.1,37.9,23.8,4.4.6,5.8-2.5,1.2-3.5-9.8-1.9-28.1-13.5-35.4-26.5-6.3-11.2-7.1-22.7-20-22.3-6.5.2-9.2,7.9-5.4,10.4,4.6,3.1,7.9-2.3,3.8-3.8-2.1-.8-1.2-3.1,1.5-2.5,2.7.6,6,2.7,5,7.3-1.3,6.5-12.1,8.1-16.5-.6s1.2-17.7-6-25.8c-1.7-1.9.4-3.3,2.7-1.2,2.3,2.1,3.5,6.7,4,8.1s2.7,1.5,2.1-1.7c-.8-4.6-.6-8.1,5.6-14.8,5.8-6.2,4.4-13.1-1.9-14.6-6.7-1.9-10.4,3.3-9,6.7,1.3,3.3,6.7,3.5,6.7,0s2.5-1.9,2.5-.2c.4,3.8-3.5,8.3-8.8,4.8-6.5-4.2-4.8-14.6-16.5-16-7.9-1-14,5.6-11.7,10.4,2.3,5.2,7.3,4.6,9.6,2.7,2.5-2.1,1.5-5.6-1.7-5.4-2.7,0-2.3-2.3-.2-2.9,6-1.3,10.4,5.2,5.8,10.6-5.6,6.3-14.6-1.2-25.2,6-6.9,4.8-5,12.3-4.4,13.8s-1,2.7-2.5,3.5c-3.8,1.9-6,10.2,0,14.6,6.9,5.2,13.3,1.3,14.6-1.5,1.5-3.7-1-6.7-4.6-5.6-3.3,1.2-3.1,3.8-1.7,4.8,1.5.8-.8,2.9-4,.4-3.8-2.9-.8-8.1,3.7-8.8,4.6-1,8.3.4,11.5-.4,7.3-1.7,6.5-7.1,5-9-1.3-1.7-4.2-2.1-6.3-1.3-2.7,1.2-2.1,4.2.2,4.6,2.7.4.4,3.3-3.5,1.5-6.2-2.7-3.3-9.6,2.9-10.6,9.6-1.5,14,6.9,14.8,12.3,1.5,11.3-3.7,19.8-21.2,20.6-10.2.6-16.5-6.3-26,.8-4.6,3.5-3.3,10,.4,12.5,2.7,1.9,7.5.6,8.7-2.1,2.7-5.4-5.4-6-4.6-2.5.2,1.2-1.2,1.9-1.9.4s0-6.2,4.8-6.7c6.2-.6,10.6,7.3,2.7,12.7-5.2,3.7-17.7-1.5-24.4,8.5-4,6.2,1.7,12.1,7.9,12.9,5,.8,8.8-2.9,8.8-5.6,0-7.7-10.4-4-7.1,0,1,1.2-1.2,2.1-2.7.8-4-3.3-1.7-8.3,3.7-9.6,7.7-1.7,15.4,6.7,22.9,21.3,2.5,4.6,5.4,8.8,8.7,12.5l.2.8ZM390,461.4h10.4c3.1-1,6-1.5,8.1-1.5,3.5,0,3.5-3.7-.6-3.5-2.7,0-9.6.6-17.9,5h0ZM365.6,461.4h5.2c2.9-3.8,7.1-8.5,13.1-11.5,3.5-1.7,2.9-5-.8-3.8-4.6,1.3-11.7,6.9-16.9,14.6,0,.2-.4.6-.6.8ZM424.2,461.4h8.3c-1.2-2.5,1.5-4,4-1.3.4.4.8.8,1.5,1.3h9.6c-.8-.6-1.5-1.2-1.9-1.5-3.1-2.9-.4-5.6,3.7-2.7v-8.5c-1-1-1.5-2.1-1.9-2.9-.8-1.9.6-2.9,1.9-2.9v-45.2c-.8,0-1.3-1-1.2-2.3,0-1,.6-1.7,1.2-1.9v-6.5c-.4-.2-.8-.8-.8-1.3.2-8.7-5.2-12.7-7.1-14-1.9-1.2-1.7-3.1.4-2.3,1.7.6,5,2.7,7.3,6v-26.5c-1.7-1.9-4-3.5-8.1-3.8-7.9-1-14,5.6-11.7,10.4,2.3,5.2,7.3,4.6,9.6,2.7,2.5-2.1,1.5-5.6-1.7-5.4-2.7,0-2.3-2.3-.2-2.9,6-1.3,10.4,5.2,5.8,10.6-5.6,6.3-14.6-1.2-25.2,6-6.9,4.8-5,12.3-4.4,13.8s-1,2.7-2.5,3.5c-3.8,1.9-6,10.2,0,14.6,6.9,5.2,13.3,1.3,14.6-1.5,1.5-3.7-1-6.7-4.6-5.6-3.3,1.2-3.1,3.8-1.7,4.8,1.5.8-.8,2.9-4,.4-3.8-2.9-.8-8.1,3.7-8.8,4.6-1,8.3.4,11.5-.4,7.3-1.7,6.5-7.1,5-9-1.3-1.7-4.2-2.1-6.3-1.3-2.7,1.2-2.1,4.2.2,4.6,2.7.4.4,3.3-3.5,1.5-6.2-2.7-3.3-9.6,2.9-10.6,9.6-1.5,14,6.9,14.8,12.3,1.5,11.3-3.7,19.8-21.2,20.6-10.2.6-16.5-6.3-26,.8-4.6,3.5-3.3,10,.4,12.5,2.7,1.9,7.5.6,8.7-2.1,2.7-5.4-5.4-6-4.6-2.5.2,1.2-1.2,1.9-1.9.4-1-1.9,0-6.2,4.8-6.7,6.2-.6,10.6,7.3,2.7,12.7-5.2,3.7-17.7-1.5-24.4,8.5-4,6.2,1.7,12.1,7.9,12.9,5,.8,8.8-2.9,8.8-5.6,0-7.7-10.4-4-7.1,0,1,1.2-1.2,2.1-2.7.8-4-3.3-1.7-8.3,3.7-9.6,7.7-1.7,15.4,6.7,22.9,21.3,2.5,4.6,5.4,8.8,8.7,12.5l.4.6ZM67.3,461.4h7.1c-.4-.4-.8-.8-1.2-1.2-1.5-1.9-1.7-4.6.6-6.3,1.5-1.2,2.7,0,2.1.8-1.5,2.5,1.7,4,4,3.1,1.5-.8,3.5-3.1,1-5.8-4-4.4-11.9-1.2-13.7,4.4-.6,1.7-.6,3.5,0,4.8v.2ZM-11.5,457.1c.4.2.6.4,1,.8,1,1,2.9,2.1,5.4,3.7H5.2c-3.5-2.7-.6-5.6,3.5-2.7,1,.6,2.5,1.5,4.8,2.7h15.4c-16-6-32.9-16.7-40-34.6-1.3-3.5,3.5-5.4,4.6-1.7,1.3,5.2,12.5,21.7,31.3,29.6,3.5,1.5,7.1-.8,2.5-2.9-11.9-5.6-19.6-13.8-21.2-17.7s1.9-4.4,3.7-2.1c6.3,8.7,28.1,22.9,46.5,23.3,4.4,0,4.4-3.8.6-4-6.5-.2-16.3-3.1-23.3-8.3-3.3-2.3.4-5,2.5-3.3,2.3,1.7,10.4,4.6,13.3,5.4,5.2,1.3,5.4-2.7,2.1-3.8-8.1-2.9-22.5-12.7-28.3-22.5-2.5-4.2,2.1-4.6,3.7-1.7,2.3,4.2,21.9,22.1,37.9,23.8,4.4.6,5.8-2.5,1.2-3.5-9.8-1.9-28.1-13.5-35.4-26.5-6.3-11.2-7.1-22.7-20-22.3-6.5.2-9.2,7.9-5.4,10.4,4.6,3.1,7.9-2.3,3.8-3.8-2.1-.8-1.2-3.1,1.5-2.5,2.7.6,6,2.7,5,7.3-1.3,6.5-12.1,8.1-16.5-.6s1.2-17.7-6-25.8c-1.7-1.9.4-3.3,2.7-1.2,2.3,2.1,3.5,6.7,4,8.1s2.7,1.5,2.1-1.7c-.8-4.6-.6-8.1,5.6-14.8,5.8-6.2,4.4-13.1-1.9-14.6-6.7-1.9-10.4,3.3-9,6.7,1.3,3.3,6.7,3.5,6.7,0s2.5-1.9,2.5-.2c.4,3.8-3.5,8.3-8.8,4.8-4.4-2.7-5-8.3-8.5-12.1v26.5c1.7,2.5,2.9,5.8,2.3,9.6-.4,2.5-1.5,2.7-2.3,2.3v6.5c.2,0,.6,0,.8-.2,1,0,1.7.6,1.7,1.9,0,1.9-1.3,2.7-2.3,2.5v45.2c1,0,1.7.4,2.1,1.3,1,2.3,3.7,6,8.3,8.3,2.1,1.2,1,3.7-2.5,2.3-2.5-1-6-3.7-8.1-6.2v8.5-.2Z"/>
  </g>
  <g>
    <path class="st0" d="M120,101.2s-.2,28.7-.2,63.5,0,65.2.4,68.3c0,2.7.6,7.1.8,10,.4,2.9,1,7.3,1.3,10s1.3,6.9,1.7,9.2c.6,2.3,1.3,5.8,1.9,7.5.4,1.7,1.5,5.2,2.3,7.7.8,2.5,2.3,6.7,3.3,9.4s2.7,6.5,3.7,8.8c1,2.1,2.5,5.6,3.5,7.5s2.7,5.2,3.8,7.3,3.1,5.4,4.2,7.3,3.1,4.8,4.2,6.5,3.5,4.8,5,6.9c1.5,2.1,4.2,5.4,6,7.3,1.5,1.9,4.6,5.4,6.7,7.5,2.1,2.1,5.2,5.4,7.1,7.1,1.7,1.7,4.6,4.2,6.2,5.6s3.8,3.3,5,4.2,3.7,2.7,5.4,4c1.7,1.3,5,3.7,7.1,5,2.1,1.3,5.4,3.5,7.3,4.6,1.9,1.2,5.6,3.3,8.1,4.6s6,3.1,7.7,3.8l3.3,1.5c5-2.3,8.3-4,10.6-5.4s6.2-3.5,8.5-4.8,5.8-3.7,7.7-5c1.9-1.3,5.2-3.7,7.3-5.2s5.2-4,7.1-5.8c1.9-1.5,5.6-4.8,7.9-7.1,2.5-2.3,6-5.8,8.1-8.1,1.9-2.1,5-5.6,6.5-7.5,1.5-1.9,4.4-5.4,6.2-7.7s4-5.6,5.2-7.3c1.2-1.7,2.9-4.2,3.8-6,1-1.7,2.7-4.6,3.8-6.7s3.1-5.8,4.4-8.5,3.1-6.5,4-8.8c1-2.1,2.5-6.2,3.5-8.8,1-2.7,2.3-6.7,3.1-8.8.6-2.1,1.7-6,2.3-8.3s1.5-6.2,1.9-8.5,1.2-6.3,1.5-8.8,1-6.7,1.2-9c.2-2.5.6-7.5.8-11.2.2-4.4.2-28.7.2-67.7v-60.8H119.6l.4.4Z"/>
    <path d="M225.8,391.9l-5.3-2.5c-1.8-.8-5.3-2.5-7.9-4-2.6-1.4-6.4-3.6-8.3-4.7s-3.9-2.4-5.8-3.7l-1.6-1c-2.2-1.4-5.6-3.8-7.5-5.3-.7-.6-1.6-1.2-2.5-1.9-1.2-.9-2.3-1.7-3-2.3-1.2-1-3.5-2.9-5.1-4.3l-.4-.4c-1.7-1.5-4.2-3.7-5.9-5.3-1.4-1.3-3.2-3.1-5-5-.8-.8-1.5-1.6-2.2-2.3-2.3-2.3-5.4-5.8-7-7.8-1.7-1.9-4.5-5.3-6.2-7.6l-1.4-1.9c-1.4-1.9-2.8-3.9-3.8-5.2-1.2-1.8-3.1-4.7-4.4-6.7-1.3-2.1-3.2-5.4-4.3-7.5-1.1-2.1-2.9-5.4-3.9-7.5-.8-1.6-2-4.2-2.9-6.2l-.7-1.4c-.3-.8-.7-1.5-1-2.4-1-2.2-2.1-4.8-2.8-6.9l-.5-1.3c-1-2.7-2.2-6.1-2.9-8.4l-.7-2.1c-.7-2.1-1.3-4.3-1.7-5.7-.5-1.5-1-3.5-1.5-5.6-.2-.7-.3-1.4-.5-2v-.4c-.2-.9-.5-2.1-.7-3.5-.4-2.1-.8-4.2-1.1-5.9-.3-2-.7-5.1-1-7.7l-.3-2.7c0-1-.2-2.2-.3-3.5-.2-2.3-.5-4.7-.5-6.6-.4-4.1-.4-24.5-.4-68.5s.1-54.4.2-61.5l-7.2-7.2h228.1v65.6c0,39.5,0,63.4-.2,67.9-.2,3.8-.6,8.9-.8,11.3-.2,2.6-.8,7.1-1.2,9.4-.2,1.5-.6,3.6-1,5.5-.2,1.3-.4,2.5-.6,3.4-.4,2.5-1.4,6.5-2,8.8-.4,1.5-1,3.6-1.5,5.5-.3,1.1-.6,2.1-.8,2.9v.4c-.5,1.1-1.1,2.7-1.6,4.3-.5,1.6-1.1,3.2-1.6,4.5-1,2.9-2.6,7-3.6,9.2-.9,2.2-2.7,6.2-4.1,9-1.4,2.8-3.4,6.5-4.5,8.6-.7,1.2-1.5,2.7-2.3,4.1-.6,1-1.1,1.9-1.5,2.7-.9,1.6-2.2,3.5-3.4,5.3l-.7,1c-1.1,1.7-3.5,5.1-5.3,7.5-1.3,1.7-3,3.8-4.6,5.7-.6.8-1.2,1.5-1.7,2.1-1.6,2-4.6,5.4-6.7,7.7-2.2,2.4-5.7,5.9-8.3,8.3-2.5,2.5-6.1,5.7-8.1,7.3-2.1,1.9-5.2,4.4-7.4,6-2.1,1.6-5.4,3.9-7.4,5.2-1.8,1.3-5.5,3.7-8,5.2-1.2.7-2.8,1.6-4.3,2.5-1.5.8-3,1.7-4.1,2.3-2.9,1.7-6.5,3.5-11,5.6l-2,.9ZM128.8,261.2c.1.6.3,1.3.5,2,.4,1.8.9,4,1.3,5v.5c.4,1.1,1.1,3.2,1.7,5.2l.7,2.2c.6,2,1.8,5.4,2.7,7.9l.5,1.3c.6,1.8,1.7,4.3,2.6,6.3.4.9.7,1.6,1,2.3l.6,1.3c.9,2,2,4.4,2.7,5.9.9,1.9,2.7,5.1,3.8,7.2,1,1.9,2.8,4.9,4.1,7.1,1.1,1.8,3,4.6,4.1,6.3.8,1.2,2.2,3.2,3.5,4.9l1.4,1.9c1.5,2.1,4.1,5.2,5.6,6.9l.2.2c1.4,1.7,4.3,5.1,6.4,7.1.7.7,1.5,1.5,2.3,2.3,1.6,1.7,3.4,3.5,4.6,4.6l.2.2c1.5,1.5,4,3.7,5.5,5l.4.4c1.5,1.3,3.8,3.2,4.9,4.2.6.5,1.5,1.2,2.5,1.9.9.7,1.9,1.4,2.7,2,1.7,1.3,4.8,3.5,6.7,4.7l1.6,1c1.9,1.2,4.1,2.7,5.6,3.5,1.8,1.1,5.4,3.2,7.9,4.5,2.4,1.3,5.8,3,7.4,3.7l1.3.6c3.3-1.6,5.9-2.9,8.1-4.2,1.2-.7,2.7-1.5,4.3-2.4,1.5-.9,3.1-1.7,4.2-2.4,2-1.2,5.3-3.3,7.4-4.8,1.9-1.3,5.1-3.6,7.2-5.1,1.9-1.4,4.9-3.8,6.7-5.5l.2-.2c1.7-1.4,5.2-4.5,7.5-6.8h.1c2.4-2.4,5.8-5.7,7.8-7.9,2.2-2.4,5-5.6,6.3-7.3.5-.6,1.1-1.3,1.7-2.1,1.4-1.7,3.2-3.9,4.3-5.4,1.7-2.3,4-5.5,5-7.1l.7-1.1c1-1.5,2.2-3.3,2.9-4.6.4-.8,1-1.8,1.6-2.8.8-1.3,1.6-2.7,2.2-3.9,1.1-2,3-5.6,4.3-8.3,1.3-2.7,3-6.4,3.9-8.5.9-2,2.4-5.9,3.4-8.6.5-1.3,1-2.9,1.5-4.4.6-1.6,1.1-3.2,1.5-4.3.2-.8.5-1.8.8-2.8.5-1.8,1.1-3.8,1.4-5.2.5-2.1,1.5-6,1.8-8.1.2-1,.4-2.2.6-3.5.3-1.8.7-3.8.9-5.3.4-2.7.9-6.6,1.1-8.7.2-2.4.6-7.4.8-11,.2-4.3.2-29.4.2-67.4v-56H124.8c0,9.3-.2,32.5-.2,59,0,37.6,0,64.8.3,67.7v.6c0,1.5.3,3.8.5,5.9.1,1.3.2,2.5.3,3.6l.3,2.2c.3,2.6.7,5.6,1,7.6.2,1.4.6,3.5,1,5.3.3,1.3.5,2.6.7,3.6Z"/>
  </g>
  <path class="st2" d="M215.8,66c-1.9,0-5.4.4-7.7.8-2.1.2-6,.8-8.3,1.2-2.5.4-6.3,1.2-8.8,1.7-2.5.6-6.2,1.5-8.3,2.1s-5.8,1.7-8.1,2.5c-2.3.8-6.2,2.3-8.7,3.3s-7.1,3.1-10.4,4.6c-3.3,1.5-7.5,3.8-9.6,5s-5.4,3.3-7.5,4.6l-3.7,2.5h7.1c6.3-3.7,10.6-6,13.7-7.5,2.9-1.5,7.3-3.5,9.4-4.4,2.3-1,5.6-2.3,7.3-2.9s4.8-1.7,6.7-2.3,5.4-1.5,7.9-2.3c2.3-.6,6.2-1.5,8.5-1.9s6.2-1.2,8.3-1.3c2.3-.4,5.8-.8,7.7-1,2.3-.2,7.5-.4,14.2-.4s11.9,0,14.2.4c1.9.2,5.2.6,7.5,1s6,1,8.3,1.3,6.2,1.3,8.7,1.9,6.3,1.7,8.8,2.5c2.5.8,6.7,2.3,9.2,3.3s6.5,2.7,8.8,3.8c2.3,1,5.8,2.7,7.7,3.8,1.9,1,5.2,2.9,6.9,4l3.5,2.1h7.1c-6.2-4.2-9.4-6.2-11.5-7.3-1.9-1.2-6.2-3.3-9.4-5-3.3-1.5-7.9-3.7-10.2-4.6s-6.2-2.3-8.5-3.1c-2.3-.8-6.3-1.9-8.8-2.7s-6.3-1.5-8.5-2.1c-2.1-.4-5.4-1.2-7.3-1.3-1.7-.4-5.4-.8-8.1-1.2-2.7-.4-6.9-.8-9.6-.8s-7.1-.2-10-.2-6.9,0-8.8.2l.2-.4Z"/>
  <path class="st1" d="M224.8,80.6c-.6.4-1.3,1.2-1.7,1.5l-.8.8c1.9,2.1,2.5,2.9,2.7,3.1,0,0,.8-.2,1.7-1.2,1-.8,1.7-1.7,1.9-2.1v-1.5c0-.4-.6-.8-.8-1-.4,0-1-.2-1.2-.2s-1.2.4-1.7.8l-.2-.2Z"/>
  <path class="st2" d="M119.8,101.2s-.2,28.7-.2,63.5,0,65.2.4,68.3c0,2.7.6,7.1.8,10,.4,2.9,1,7.3,1.3,10s1.3,6.9,1.7,9.2c.6,2.3,1.3,5.8,1.9,7.5.4,1.7,1.5,5.2,2.3,7.7.8,2.5,2.3,6.7,3.3,9.4s2.7,6.5,3.7,8.8c1,2.1,2.5,5.6,3.5,7.5s2.7,5.2,3.8,7.3,3.1,5.4,4.2,7.3,3.1,4.8,4.2,6.5,3.5,4.8,5,6.9c1.5,2.1,4.2,5.4,6,7.3,1.5,1.9,4.6,5.4,6.7,7.5,2.1,2.1,5.2,5.4,7.1,7.1,1.7,1.7,4.6,4.2,6.2,5.6s3.8,3.3,5,4.2,3.7,2.7,5.4,4c1.7,1.3,5,3.7,7.1,5,2.1,1.3,5.4,3.5,7.3,4.6,1.9,1.2,5.6,3.3,8.1,4.6s6,3.1,7.7,3.8l3.3,1.5c5-2.3,8.3-4,10.6-5.4s6.2-3.5,8.5-4.8,5.8-3.7,7.9-5c1.9-1.3,5.2-3.7,7.3-5.2s5.2-4,7.3-5.8c1.9-1.5,5.6-4.8,7.9-7.1,2.5-2.3,6-5.8,8.1-8.1,1.9-2.1,5-5.6,6.5-7.5,1.5-1.9,4.4-5.4,6.2-7.7s4-5.6,5.2-7.3c1.2-1.7,2.9-4.2,3.8-6,1-1.7,2.7-4.6,3.8-6.7s3.1-5.8,4.4-8.5,3.1-6.5,4-8.8c1-2.1,2.5-6.2,3.5-8.8,1-2.7,2.3-6.7,3.1-8.8.6-2.1,1.7-6,2.3-8.3s1.5-6.2,1.9-8.5,1.2-6.3,1.5-8.8,1-6.7,1.2-9c.2-2.5.6-7.5.8-11.2.2-4.4.2-28.7.2-67.7v-60.8H119.6l.2.4Z"/>
  <path class="st1" d="M123.9,167.9c0,40.8,0,64.2.2,66.9,0,2.3.6,6.3.8,8.8.4,2.5,1,6.5,1.3,8.8.4,2.3,1.2,6.2,1.7,8.5s1.3,6,1.9,8.1c.6,2.1,1.7,6,2.7,8.8,1,2.7,2.5,7.1,3.5,9.6s2.7,6.7,3.8,9c1.2,2.5,3.1,6.3,4.2,8.7,1.3,2.3,3.3,5.8,4.4,7.7,1.2,1.9,3.1,5,4.4,6.9,1.3,1.9,3.1,4.6,4,6,1,1.3,3.3,4.4,5,6.5,1.7,2.1,4.4,5.2,5.8,6.9,1.5,1.5,3.8,4.2,5.6,6,1.5,1.5,4.4,4.4,6.3,6.2s5,4.6,6.9,6.2,5.2,4.2,7.3,5.8,5.8,4.2,8.1,5.6c2.3,1.5,6,3.8,8.3,5.2s6.7,3.7,9.6,5.2l5.4,2.7c8.1-4,12.1-6.3,14.2-7.5,2.1-1.3,6.2-3.8,8.8-5.6,2.7-1.7,6.3-4.2,8.3-5.8,1.9-1.3,5.4-4.2,7.9-6.2s6.7-6,9.4-8.7,6.5-6.5,8.3-8.7c1.7-1.9,4.2-5,5.6-6.5,1.3-1.5,3.5-4.2,4.6-6.2,1.3-1.7,3.7-5.2,5.2-7.5s3.7-5.6,4.6-7.3c1-1.7,2.9-5,4-7.3,1.3-2.3,3.1-6,4-7.9,1-2.1,2.5-5.6,3.5-7.9,1-2.3,2.1-5.6,2.9-7.3.6-1.7,1.7-4.8,2.3-6.9.6-1.9,1.7-5.6,2.3-7.9.6-2.3,1.5-6.7,2.3-10,.6-3.1,1.3-6.9,1.5-8.7s.6-4.8.8-6.9c.2-2.1.6-6,.8-8.5,0-2.9.2-27.9.2-66.3v-61.7H123.1v62.7h0l.8.4Z"/>
  <path class="st2" d="M109.8,115.6c-1.5,1.7-4.2,4.6-5.8,6.5s-4.2,5.2-6,7.5c-1.7,2.3-4.2,5.8-5.6,7.7-1.3,1.9-3.5,5.4-4.8,7.7-1.3,2.1-3.7,6.7-5.4,10.2s-3.7,7.9-4.4,9.8-1.9,5.2-2.7,7.1-1.9,6-2.9,8.8c-.8,2.9-1.9,7.1-2.3,9.2-.6,2.1-1.2,5.8-1.5,8.1-.4,2.3-1,6.3-1.3,9-.4,2.7-.8,7.9-.8,11.3-.2,4.4-.2,8.5,0,13.1,0,3.7.6,8.8.8,11.3.4,2.5.8,6.3,1.2,8.3.4,2.1,1,5.8,1.5,8.3s1.7,6.9,2.5,9.8,2.1,6.9,2.9,8.8,1.9,5.2,2.7,7.1,2.7,6.3,4.4,9.8,4,8.1,5.4,10.2c1.3,2.1,3.5,5.6,4.8,7.7,1.3,1.9,3.8,5.6,5.6,7.9,1.7,2.3,4.4,5.8,6.2,7.7,1.7,1.9,5,5.6,7.3,8.1,2.5,2.5,5.8,5.8,7.5,7.3s4.2,3.7,5.4,4.6c1.2,1,3.8,3.1,5.6,4.4,1.9,1.3,5.4,3.8,7.9,5.4,2.5,1.5,6.2,4,8.5,5.2,2.3,1.3,6.7,3.7,10,5.2s8.1,3.7,10.6,4.8c2.5,1,6.3,2.3,8.3,3.1,1.9.6,5.4,1.7,7.5,2.3,2.1.6,6,1.5,8.3,2.1,2.5.6,6,1.2,7.9,1.5s3.8.6,4.2.8h.8s-1.7-1.3-3.8-2.7l-3.8-2.5c-6.5-1.5-10-2.3-12.1-2.9-1.9-.6-5.4-1.5-7.5-2.3-2.1-.8-5.4-1.9-7.1-2.5-1.7-.6-4.8-1.9-7.1-2.9-2.1-1-6-2.7-8.3-4-2.3-1.2-5.8-3.1-7.5-4.2-1.7-1-5-3.1-7.1-4.4s-5.2-3.7-7.1-5c-1.7-1.3-4.4-3.5-6-4.6-1.5-1.2-4.4-3.8-6.5-5.6-2.1-1.9-5.4-5.2-7.5-7.5-2.1-2.1-5-5.4-6.3-7.3-1.5-1.7-3.8-4.8-5.4-6.7s-3.5-4.8-4.6-6.5c-1.2-1.5-2.9-4.4-3.8-6.2s-2.9-4.8-4-7.1c-1.2-2.1-3.1-6.2-4.4-8.8s-3.1-7.1-4-9.8c-1-2.7-2.3-6.5-2.9-8.3-.6-1.9-1.5-5.4-2.1-7.7-.6-2.3-1.5-6.2-1.9-8.7s-1-5.8-1.3-7.5c-.2-1.7-.6-4.2-.8-5.8,0-1.5-.4-4.6-.6-6.9,0-2.3-.2-6.5-.2-9.4s0-7.1.2-9.6c0-2.5.6-6.2.8-8.3.2-1.9.8-5.2,1-7.1.4-1.9,1-5.2,1.3-7.5.4-2.3,1.3-6,1.9-8.3.6-2.3,1.9-6.3,2.7-8.8.8-2.5,2.3-6.3,3.1-8.3.8-2.1,2.3-5.4,3.3-7.5s2.7-5.6,3.8-7.7,3.1-5.4,4-7.1c1-1.7,2.7-4.4,3.8-6.2,1.2-1.7,3.3-4.6,4.6-6.5,1.5-1.9,3.8-5,5.4-6.7s3.7-4.2,4.6-5.2l1.9-1.9v-6l-3.1,3.1h0l.6-.4ZM338.7,115.6v2.9c3.5,3.7,5.4,6,6.7,7.5s3.5,4.2,5,6.2c1.3,1.9,3.5,5,4.8,6.7,1.2,1.7,2.9,4.4,3.8,6.2,1,1.5,2.7,4.8,4,7.1,1.3,2.3,3.1,6.2,4.2,8.3,1,2.3,2.5,5.8,3.3,7.7s2.1,5.6,2.9,8.1c.8,2.5,1.9,6,2.5,7.9.6,1.7,1.2,4.8,1.7,6.7.4,1.9,1.2,5.4,1.5,7.7s1,6.3,1.3,9c.4,2.7.8,7.9,1,11.3.2,4.8.2,8.1,0,12.9,0,3.7-.6,8.8-1,11.5s-1,6.7-1.3,9-1.2,5.8-1.5,7.7-1.2,5-1.7,6.7c-.6,1.7-1.5,5.2-2.5,7.9-.8,2.5-2.1,6.2-2.9,8.1s-2.3,5.4-3.3,7.7-3.1,6.2-4.2,8.7c-1.3,2.5-3.3,6-4.2,7.5-1,1.7-2.7,4.2-3.7,5.8s-3.1,4.4-4.4,6.2c-1.3,1.9-3.8,5-5.6,6.9-1.5,1.9-5.8,6.3-9.2,10-3.5,3.5-7.9,7.5-9.6,9s-4.8,3.8-6.7,5.4-5.4,3.8-7.7,5.4-6.2,3.8-8.7,5.4c-2.5,1.3-6.5,3.5-8.8,4.6-2.3,1.2-6.3,2.9-8.8,4-2.5,1-7.1,2.7-10.4,3.8s-8.1,2.5-11,3.3-5.8,1.3-6.7,1.5c-1.2.2-2.5,1-5.2,2.5-1.9,1.2-3.8,2.5-4,2.7-.4.2-.6.4-.4.6,0,0,2.1-.2,4.6-.6,2.5-.4,6-1.2,7.9-1.5s5.4-1.3,7.9-1.9c2.5-.8,6.5-1.9,8.8-2.7,2.3-.8,6.2-2.3,8.5-3.1,2.3-1,6.9-3.1,10.2-4.6,3.3-1.5,7.5-3.8,9.4-5s5.6-3.5,8.1-5c2.5-1.7,6-4,7.9-5.6,1.9-1.3,4.8-3.8,6.7-5.2,1.7-1.5,5-4.2,7.1-6.3,2.1-1.9,5.4-5.2,7.3-7.3s4.8-5.4,6.3-7.1c1.5-1.9,4-5,5.4-6.7,1.3-1.9,3.7-5,4.8-6.9,1.3-1.9,3.3-5,4.4-6.9s3.3-6,5-9.2c1.5-3.3,3.8-7.9,4.8-10.4,1-2.5,2.5-6.3,3.3-8.5.8-2.1,1.9-5.8,2.7-8.3.8-2.3,1.5-6,2.1-7.9.4-1.9,1.2-5.2,1.5-7.3s1-5.6,1.3-7.9c.4-2.3.8-5.8,1-7.9.2-2.3.4-7.7.4-14s0-11.7-.4-14c-.2-1.9-.6-5.6-1-7.9-.4-2.3-1-5.8-1.3-7.9s-1.3-6-1.9-8.8c-.8-2.7-1.7-6.7-2.5-8.8-.6-2.1-1.7-5.6-2.5-7.7-.8-2.1-2.1-5.6-3.1-7.7s-2.9-6.5-4.4-9.4c-1.5-3.1-3.7-7.1-4.8-8.8-1.2-1.9-3.1-5-4.4-6.9s-3.5-5-4.8-6.9-3.8-5-5.4-6.7c-1.5-1.9-4.4-5-6.3-7.1s-3.5-3.7-3.7-3.7,0,1.3,0,2.9l-.2-.6Z"/>
  <g class="st8">
    <g class="st8">
      <path class="st5" d="M157.9,129.1c-2.3-2.3-4.9-3.4-7.9-3.4-5.6,0-9.1,4-9.1,10.3s3.1,9.4,8.4,9.4,6.3-1.8,7.1-4.9h-5.9c0,0-.4,0-.4,0-1.9.1-2.9.2-3.1.2v-8c.3,0,1.6,0,4.1.1h14.6c0,1.6,0,2.5,0,2.7,0,11-6.7,17.9-17.4,17.9s-16.9-7-16.9-17.3,2.2-10.8,6.3-14.2c3.5-2.8,7.8-4.4,12.2-4.4s10.6,2.3,13.3,5.7l-5.5,6Z"/>
      <path class="st5" d="M204.8,152.5h-10.2l-1.3-3.9h-11.3l-1.3,3.9h-9.7l13.8-34.5h6.2l13.8,34.5ZM184.6,141h6.1l-3.1-9.1-2.9,9.1Z"/>
      <path class="st5" d="M213.9,123.3c-.2-2.6-.3-4.1-.4-4.4,4.4-1,8.3-1.4,11.4-1.4,9,0,16,5.3,16,12.2s-1.9,7.3-5.7,10.4l7.4,8.2-7.5,5.2-11.6-14.6c1.1-.3,2.5-.9,3.8-1.7,3-1.9,4.3-3.8,4.3-6.4s-2.5-5.4-5.9-5.4-1.3,0-2.4.3c-.1.9-.2,3.5-.3,6.3v14.7c0,3.7.1,4.2.3,5.8h-9.8c.2-2,.2-2,.4-6.6v-22.2c0,0,0-.4,0-.4Z"/>
      <path class="st5" d="M268.5,118.3c1.2,0,2.1,0,4.9-.1,1.3,0,1.7,0,2.5,0l-13,26.5h6.6c.9,0,3-.1,5.3-.3l-.7,8.2h-25l12.8-26.3h-4.9c-.9,0-4.6.2-6.5.3l.8-8.2h17.3Z"/>
      <path class="st5" d="M316.2,152.5h-10.2l-1.3-3.9h-11.3l-1.3,3.9h-9.7l13.8-34.5h6.2l13.8,34.5ZM295.9,141h6.1l-3.1-9.1-2.9,9.1Z"/>
    </g>
  </g>
  <g>
    <path class="st9" d="M227.9,327.7l11.7.4c.8,0,1.2.6,1.2,1.3v1.9c0,.8-.6,1.3-1.3,1.3h-11.7c-.6,0-1,.4-1,1l-.4,26.2c0,.4-.4.8-.8.8h-1.9c-.4,0-1.7,0-1.7-.6l-1-26.3c0-.6-.4-1-1-1h-21.7c-.6,0-1-.4-1.2-.8l-1.2-3.5v-1.2l17.3-26.9c.2-.4.2-.6,0-1,0-.4-.6-.6-.8-.4l-10.8.4c-1.9,0-3.5-1.5-3.7-3.5s1.5-3.5,3.5-3.7l24.8-.8c3.7,0,7.7-.8,11.9-2.1,6.5-2.1,13.3-5.6,18.1-11,4.8-5.4,7.9-12.5,7.7-21.7,0-4-1-8.3-2.3-13.3l-9.4-30.4c-2.7-8.8-2.9-16.9,0-23.7,1.5-3.7,4-6.7,7.5-9.4,3.1-2.3-1.5-5.6-7.1-5.6-15.6,0-20,23.3-14.4,37.5,0,.4,0,.8-.4,1h-1c-6.9-8.8-8.8-17.3-7.9-23.5,0-.4,0-.6-.4-.8h-.8l-7.7,7.1c-.2.2-.6.2-1,0-.2-.2-.4-.6-.2-1,14.2-27.1,28.7-30.6,37.9-29h0c3.7.4,6.9,1.5,9.6,3.8h.6l25.4-2.9c1.5-.2,3.3.8,3.8,2.3.6,1.9-.4,3.8-2.1,4.4l-23.1,7.9c-6.7,2.3-10.8,6-12.9,10.6-2.3,5-2.1,11.5.2,18.7l9.4,30.4c1.7,5.4,2.5,10.4,2.7,15.2.4,11.3-3.5,20.2-9.4,26.7-7.5,8.3-19.8,14-31,15.2h0l-3.5,15h0v13.5c-.2.6,0,1,.8,1h0l.4.2ZM217.7,309.8l-5.4,4.6h0l-8.7,12.1h0l16.2.6c.2,0,.6,0,.8-.2,0,0,.2-.4.2-.8l-.4-13.1v-.2l-1-3.1c0-.4-.4-.6-.6-.6-.4,0-.6,0-.8.2h0l-.4.4Z"/>
    <path class="st9" d="M248.3,242.3c-.6-2.5-1.9-4.6-3.8-6.5-2.9-2.7-6.9-4.8-10.4-5.6-16.3-4.4-33.3-.4-47.5,8.3-15.2,9.2-27.3,24-32.1,40.2-.6,1.9.6,3.8,2.3,4.4h1.5c.8,0,1.5-.2,2.1-.4.2,0,.6,0,.6.2s.2.4,0,.8c-.6,1.3-1.2,2.9-1.5,4.4-1.3,4-2.5,8.8-3.3,14.2-.2,1.9,1.2,3.7,3.1,4,1,0,1.9,0,2.7-.8h0c.2,0,.6-.2.8,0,.2,0,.4.4.4.6v4.4c.2,4.4,1,9.4,1.9,14.4.4,1.9,2.3,3.1,4.2,2.7s1.7-.8,2.3-1.7h0l34.8-54.6h0s.2-.2.4-.2c10.2-3.5,20.2-7.7,29.8-12.7,5-2.5,8.1-5.2,9.8-7.7,1.9-2.9,2.3-5.6,1.7-8.3l.2-.2ZM166.7,293.1c-.2,0-.6.2-.8,0-.2,0-.4-.6-.2-.8.2-.8.4-1.3.6-1.9,1.2-3.3,2.3-6,3.3-7.9h0c.2-.4.4-.8.6-1h0s.2-.4.4-.4c4.6-1,9.2-1.9,14-3.3h0c.4,0,.6,0,.8.4,0,.4,0,.6-.2,1l-12.1,9.2h0l-6.3,4.8v-.2ZM187.9,287.5l-16.2,25.4c0,.2-.4.4-.8.4s-.6-.4-.6-.6v-2.3c-.2-4,0-7.7,0-10.8h0c0-.2,0-.4.2-.6l16.2-12.3c.2-.2.6-.2,1,0,.2.2.4.6,0,1l.2-.2ZM236,250.6c-.8.4-1.5,1-2.5,1.3-2.7,1.3-5.4,2.7-8.1,3.8-.6.2-1.2.6-1.7.8-2.7,1.2-5.4,2.3-8.1,3.5-.4,0-.6.2-1,.4-1.3.6-2.9,1.2-4.2,1.7h0c-4.4,1.7-9,3.3-13.5,4.8-11.2,3.5-22.3,6.2-32.7,8.1-.2,0-.6,0-.8-.2,0-.2-.2-.4,0-.8,5.4-11.9,15-22.5,26.5-29.6,12.7-7.7,27.7-11.3,42.1-7.5h0c.8.2,1.7.6,2.7,1,.4,0,.6.6.6,1s-.4.8-1,.8c-6.3.4-25.8,4.4-41.7,13.8-.4.2-.6.8-.4,1.2,0,.4.8.6,1.2.6.6,0,1.3-.4,2.1-.6h.4c.4,0,.8-.2,1.3-.4h.4c.4,0,1-.2,1.5-.4h0c1.7-.4,3.7-1,5.8-1.3h.6c.6,0,1-.2,1.5-.4.4,0,.6,0,1-.2.4,0,1-.2,1.5-.4.4,0,.8,0,1.2-.2.4,0,1,0,1.3-.2.4,0,.8,0,1.3-.2.4,0,1,0,1.5-.2.4,0,1,0,1.3-.2.6,0,1,0,1.5-.2h17.9c.4,0,.8.4,1,.8,0,.4,0,.8-.4,1l-.4-1.5Z"/>
    <path class="st9" d="M224.6,352.7c11.5,0,22.1,2.1,30.6,5.8.4,0,.6.6.6,1s-.4.8-1,.8l-30.2,16.9-30.2-16.9c-.4,0-.8-.4-1-.8,0-.4,0-1,.6-1,8.5-3.7,19-5.8,30.6-5.8h0Z"/>
  </g>
  <path class="st9" d="M252.1,175.8c-1,0-1.9.6-2.5,1.2.4,0,.8.6.8,1.2s-.6,1.2-1.2,1.2-.2,0-.4,0c0,1.7,1.5,3.1,3.1,3.1s3.3-1.3,3.3-3.3-1.3-3.3-3.3-3.3h.2Z"/>
  <g>
    <circle class="st7" cx="92.2" cy="355.6" r="15"/>
    <circle class="st7" cx="49.8" cy="293.3" r="15"/>
    <circle class="st7" cx="160.6" cy="401.5" r="15"/>
  </g>
  <path class="st4" d="M224.3,411.9c-.6,2.9-1.2,5.2-1.3,5.4,0,0-2.3.6-4.8,1.2s-4.8,1.2-5.2,1.2-.6.2-.6.4c0,0,2.3.8,5,1.3,2.7.6,5.2,1.2,5.4,1.3,0,0,.8,2.5,1.3,5.4s1.2,5,1.3,5c0,0,.8-2.3,1.3-5.2.6-2.7,1.2-5.2,1.3-5.2,0,0,2.5-.6,5.4-1.3,2.9-.6,5.2-1.2,5.2-1.3s-.4-.2-.6-.4c-.4,0-2.7-.6-5.2-1.2-2.5-.6-4.6-1.2-4.8-1.2,0,0-.6-2.1-1.2-4.2-.6-2.3-1-4.6-1.2-5.2,0-.6-.4-1-.6-1s-.8,2.3-1.3,5.2l.4-.2Z"/>
  <path class="st4" d="M224.3,30.1c-.6,2.9-1.2,5.2-1.3,5.4,0,0-2.3.6-4.8,1.2s-4.8,1.2-5.2,1.2-.6.2-.6.4c0,0,2.3.8,5,1.3,2.7.6,5.2,1.2,5.4,1.3,0,0,.8,2.5,1.3,5.4s1.2,5,1.3,5c0,0,.8-2.3,1.3-5.2.6-2.7,1.2-5.2,1.3-5.2,0,0,2.5-.6,5.4-1.3,2.9-.6,5.2-1.2,5.2-1.3s-.4-.2-.6-.4c-.4,0-2.7-.6-5.2-1.2-2.5-.6-4.6-1.2-4.8-1.2,0,0-.6-2.1-1.2-4.2-.6-2.3-1-4.6-1.2-5.2,0-.6-.4-1-.6-1s-.8,2.3-1.3,5.2l.4-.2Z"/>
  <path class="st4" d="M38.7,216.9c-.6,2.9-1.2,5.2-1.3,5.4,0,0-2.3.6-4.8,1.2s-4.8,1.2-5.2,1.2-.6.2-.6.4c0,0,2.3.8,5,1.3,2.7.6,5.2,1.2,5.4,1.3,0,0,.8,2.5,1.3,5.4s1.2,5,1.3,5c0,0,.8-2.3,1.3-5.2.6-2.7,1.2-5.2,1.3-5.2,0,0,2.5-.6,5.4-1.3,2.9-.6,5.2-1.2,5.2-1.3s-.4-.2-.6-.4c-.4,0-2.7-.6-5.2-1.2-2.5-.6-4.6-1.2-4.8-1.2,0,0-.6-2.1-1.2-4.2-.6-2.3-1-4.6-1.2-5.2,0-.6-.4-1-.6-1s-.8,2.3-1.3,5.2l.4-.2Z"/>
  <g>
    <path class="st5" d="M268.8,52.1l-11.9-2.6-2.8,3.5c-.4.4-.4.4-.9.3l-2.3-.5c-.2,0-.3-.2-.3-.3,0-.1.2-.3.3-.4l15-18.5,1.3.3,6,23c0,.2.1.4,0,.5,0,.1-.2.2-.4.2l-2.3-.5c-.4,0-.5-.1-.6-.6l-1.1-4.4ZM258.9,47.1l9.2,2-1.6-6.3c-.3-1.2-.8-4.3-.8-4.3h-.2s-1.7,2.6-2.5,3.5l-4.1,5.1Z"/>
    <path class="st5" d="M281.1,52.6c.4.1.4.3.3.7-.9,2.5.2,4.8,4.9,6.6,4.3,1.6,6.4.3,7.2-1.8.5-1.2.2-2.8-2.5-4l-5.6-2.5c-4-1.9-5.2-4.4-4.1-7.3,1.1-3.1,5.1-5.5,11.1-3.3,6.4,2.3,7.6,6.1,6.3,9.6,0,.2-.3.3-.6.2l-2-.7c-.3-.1-.4-.3-.3-.8.5-1.8-.3-4.2-4.3-5.7-3.5-1.3-6.3-.4-7.1,1.8-.5,1.2,0,2.6,2.4,3.7l5.5,2.5c4.6,2.1,5.4,5,4.4,7.7-1,2.8-4.7,5.7-11.2,3.3-6.3-2.3-8.4-6.4-7.1-10v-.3c.2-.2.4-.3.7-.2l2.1.8Z"/>
    <path class="st5" d="M302.6,68.9c0,.2-.4.3-.6.2l-2.1-1c-.2,0-.3-.4-.2-.6l9.2-18.9c0-.2.4-.3.6-.2l2.1,1c.2,0,.3.4.2.6l-9.2,18.9ZM318.1,44.1c.1.3.1.7,0,.9-.1.3-.4.6-1.1.7l-5.5,1.4c-.2,0-.3,0-.6,0l-1.1-.5c-.2,0-.2-.2-.2-.4,0,0,0-.2.4-.3l5.5-2.9c.6-.3,1-.4,1.5-.2.3.2.5.4.7.7l.3.6Z"/>
    <path class="st5" d="M322.1,71.8c.3.2.3.4.1.7-1.5,2.2-1,4.7,3.1,7.6,3.7,2.6,6.1,1.9,7.4,0,.7-1.1.9-2.7-1.4-4.5l-4.8-3.8c-3.4-2.8-3.9-5.6-2.2-8.1,1.9-2.7,6.3-4,11.6-.4,5.6,3.9,5.8,7.8,3.7,10.9-.1.2-.3.2-.7,0l-1.8-1.2c-.3-.2-.4-.4,0-.8.9-1.7.8-4.1-2.8-6.6-3.1-2.1-6-2-7.3,0-.7,1.1-.7,2.5,1.4,4.1l4.7,3.8c3.9,3.2,3.9,6.2,2.3,8.5-1.7,2.4-6,4.3-11.7.4-5.5-3.8-6.5-8.3-4.3-11.5l.2-.3c.1-.2.3-.3.6,0l1.9,1.3Z"/>
    <path class="st5" d="M345.1,85.9l-4.8,5.3,10.3,9.3c.2.1.2.6,0,.7l-1.2,1.3c-.1.2-.6.2-.7,0l-12.3-11.2c-.2-.1-.2-.5,0-.6l14.2-15.6c.1-.2.5-.2.6,0l12.1,11c.2.1.2.6,0,.7l-1.2,1.3c-.1.2-.6.2-.7,0l-10-9.1-4.3,4.8,9.2,8.4c.2.1.2.6,0,.7l-1.2,1.3c-.1.2-.6.2-.7,0l-9.2-8.4Z"/>
    <path class="st5" d="M370.1,114.2c-.5,1.1-1.9,3.3-1.9,3.3v.2c.1,0,2.6-.7,3.8-.9l14-2.5c.5,0,.6,0,.8.3l1.5,2c.1.2,0,.3,0,.4s-.3.1-.5.1l-23.4,4.1-.8-1.1,10.5-21.3c0-.1.2-.4.3-.4,0,0,.2,0,.4.1l1.5,2c.3.3.3.4,0,.9l-6.3,12.7Z"/>
    <path class="st5" d="M382.9,141.9l-6-10.6-4.5.3c-.5,0-.6,0-.8-.4l-1.2-2.1c-.1-.2,0-.4,0-.4s.3,0,.5,0l23.8-1.2.7,1.1-13.1,19.9c0,.1-.2.3-.3.4,0,0-.3,0-.4-.2l-1.2-2.1c-.2-.4-.3-.4,0-.9l2.5-3.8ZM380,131.1l4.7,8.2,3.6-5.4c.7-1,2.7-3.4,2.7-3.4v-.2c-.1,0-3.2.5-4.4.6l-6.5.3Z"/>
    <path class="st5" d="M396,173.8l-3.9-11.5-4.5-.6c-.5,0-.6-.2-.7-.6l-.8-2.3c0-.2,0-.4.1-.4.1,0,.3,0,.5,0l23.6,3.4.4,1.2-16.7,17c-.1.1-.3.3-.4.3-.1,0-.3,0-.3-.2l-.8-2.3c-.1-.4-.2-.5.2-.9l3.2-3.2ZM395.2,162.7l3,8.9,4.6-4.6c.9-.9,3.3-2.8,3.3-2.8v-.2c0,0-3.2-.1-4.4-.3l-6.5-.9Z"/>
    <path class="st5" d="M399.4,196.5l1.7,11.9c0,.2-.2.5-.4.6l-1.7.2c-.2,0-.5-.2-.6-.4l-2.1-14.7c0-.2.2-.5.4-.5l20.8-3c.2,0,.5.2.5.4l.3,2.3c0,.2-.2.5-.4.5l-18.5,2.6Z"/>
    <path class="st5" d="M403.5,228.8v-12.2c-.1,0-4.2-2-4.2-2-.5-.3-.5-.3-.5-.8v-2.4c0-.2.1-.3.2-.3.1,0,.3.1.4.2l21.4,10.5v1.3s-21.1,11-21.1,11c-.1,0-.3.2-.4.2-.1,0-.3-.1-.3-.3v-2.4c0-.4,0-.5.4-.8l4-2.1ZM406.1,218v9.4c.1,0,5.9-3,5.9-3,1.1-.6,4-1.7,4-1.7v-.2s-2.9-1.1-4-1.6l-5.9-2.9Z"/>
    <path class="st5" d="M405.7,240.8c0,.4-.2.5-.6.4-2.7-.3-4.7,1.3-5.3,6.3-.6,4.5,1.1,6.3,3.4,6.6,1.3.2,2.8-.4,3.4-3.3l1.2-6c.9-4.3,3.1-6,6.2-5.7,3.3.4,6.5,3.7,5.7,10.1-.9,6.7-4.2,8.8-8,8.3-.2,0-.3-.2-.3-.6l.3-2.1c0-.4.2-.5.7-.5,1.9,0,4-1.2,4.6-5.5.5-3.7-1-6.2-3.3-6.5-1.3-.2-2.5.6-3,3.1l-1.2,5.9c-1,4.9-3.7,6.3-6.5,6-2.9-.4-6.6-3.3-5.7-10.2.8-6.6,4.4-9.6,8.2-9.1h.4c.3,0,.4.2.3.5l-.3,2.2Z"/>
    <path class="st5" d="M401.3,277.1l-6.8-2.2-4.3,13.2c0,.2-.4.4-.6.3l-1.7-.5c-.2,0-.4-.4-.3-.6l5.1-15.9c0-.2.3-.4.6-.3l20,6.5c.2,0,.3.3.3.6l-5,15.5c0,.2-.4.4-.6.3l-1.7-.5c-.2,0-.4-.4-.3-.6l4.2-12.9-6.1-2-3.8,11.8c0,.2-.4.4-.6.3l-1.7-.5c-.2,0-.4-.4-.3-.6l3.8-11.8Z"/>
    <path class="st5" d="M391.5,297.1c-.2.4-.4.4-.7.2-2.4-1.2-4.8-.2-7,4.3-2,4.1-.9,6.4,1.1,7.3,1.2.6,2.8.5,4.2-2.1l3-5.3c2.2-3.8,4.9-4.8,7.6-3.4,3,1.4,5,5.6,2.2,11.3-2.9,6.1-6.8,7-10.2,5.4-.2,0-.3-.3,0-.7l.9-1.9c.2-.3.3-.4.8-.2,1.8.7,4.2.1,6-3.7,1.6-3.4,1-6.2-1.1-7.3-1.2-.6-2.6-.3-3.9,2l-3,5.2c-2.5,4.3-5.5,4.9-8.1,3.6-2.7-1.3-5.2-5.3-2.2-11.4,2.9-6,7.2-7.7,10.6-6.1l.3.2c.2.1.3.3.2.6l-1,2Z"/>
    <path class="st5" d="M393,321.7l1.5,1c.2.1.3.5.1.7l-11.2,17.2c-.1.2-.5.3-.7.1l-1.5-1c-.2-.1-.3-.5-.1-.7l4.7-7.3-15.7-10.2c-.2-.1-.2-.4-.1-.6l1.3-2c.1-.2.4-.2.6-.1l15.7,10.2,4.7-7.2c.1-.2.5-.3.7-.2Z"/>
    <path class="st5" d="M378.1,346.6c.2.1.2.5,0,.6l-6.1,7c-3.4,3.9-7.8,5-11.3,2-2.7-2.3-2.9-5.5-1.3-8.6h0s-1,0-2.1,0l-7.1-.7c-.4,0-.5,0-.5-.1-.1,0-.1-.2,0-.4l2-2.3c.1-.1.3-.2.5-.2l9.2.8,4.2-4.9-5.5-4.8c-.2-.1-.2-.5,0-.6l1.5-1.8c.1-.2.5-.2.6,0l15.9,13.8ZM374.2,347.5l-6.6-5.8-4.3,4.9c-2.2,2.5-2.6,5.4-.5,7.2,2.2,1.9,4.9,1.1,7.1-1.4l4.3-4.9Z"/>
    <path class="st5" d="M349.6,360.1l-4.7-5.4-10.5,9.1c-.2.1-.6.1-.7,0l-1.2-1.3c-.1-.2-.1-.6,0-.7l12.6-11c.2-.1.5-.1.6,0l13.8,15.9c.1.2.1.5,0,.6l-12.3,10.7c-.2.1-.6.1-.7,0l-1.2-1.3c-.1-.2-.1-.6,0-.7l10.2-8.9-4.2-4.8-9.4,8.2c-.2.1-.6.1-.7,0l-1.2-1.3c-.1-.2-.1-.6,0-.7l9.4-8.2Z"/>
    <path class="st5" d="M326.7,369.4l-10,6.8c-.2.1-.6,0-.7-.1l-1-1.5c-.1-.2,0-.6.1-.7l12.3-8.3c.2-.1.5,0,.6.1l11.8,17.4c.1.2,0,.5-.1.6l-1.9,1.3c-.2.1-.5,0-.6-.1l-10.5-15.5Z"/>
    <path class="st5" d="M309.1,380.3l-10.7,5.5c-.2.1-.6,0-.7-.2l-.8-1.6c-.1-.2,0-.6.2-.7l13.2-6.8c.2-.1.5,0,.6.2l9.7,18.7c.1.2,0,.5-.2.6l-2.1,1.1c-.2.1-.5,0-.6-.2l-8.6-16.6Z"/>
    <path class="st5" d="M280,394.8l11.4-4.1.5-4.5c0-.5.1-.6.6-.7l2.2-.8c.2,0,.4,0,.4.1,0,.1,0,.3,0,.5l-2.9,23.6-1.2.4-17.3-16.3c-.1-.1-.3-.2-.3-.3s0-.3.2-.4l2.2-.8c.4-.2.5-.2.9.2l3.3,3.1ZM291.1,393.7l-8.8,3.2,4.7,4.5c.9.8,2.9,3.2,2.9,3.2h.2c0,0,0-3.2.2-4.4l.8-6.5Z"/>
    <path class="st5" d="M269.3,400.8c-.4,0-.5,0-.6-.4-.6-2.6-2.8-4-7.6-2.9-4.4.9-5.6,3.1-5.1,5.4.3,1.3,1.3,2.5,4.3,2.1l6.1-.8c4.4-.6,6.7,1,7.4,4,.7,3.3-1.4,7.4-7.7,8.7-6.7,1.4-9.7-1.1-10.5-4.8,0-.2,0-.4.5-.5l2.1-.4c.4,0,.5,0,.7.5.6,1.8,2.5,3.4,6.7,2.5,3.7-.8,5.6-3,5.1-5.3-.3-1.3-1.4-2.2-3.9-1.9l-6,.8c-5,.6-7.2-1.4-7.8-4.2-.6-2.9,1-7.3,7.7-8.8,6.5-1.4,10.5,1,11.3,4.7v.4c.1.2,0,.4-.3.5l-2.2.5Z"/>
  </g>
  <g>
    <circle class="st7" cx="95.7" cy="91.9" r="15"/>
    <circle class="st7" cx="158.1" cy="49.5" r="15"/>
    <circle class="st7" cx="49.8" cy="160.2" r="15"/>
  </g>
</svg>