<?xml version="1.0" encoding="UTF-8"?>
<svg id="Capa_2" xmlns="http://www.w3.org/2000/svg" version="1.1" xmlns:xlink="http://www.w3.org/1999/xlink" viewBox="0 0 232.2 232.1">
  <!-- Generator: Adobe Illustrator 30.3.0, SVG Export Plug-In . SVG Version: 2.1.3 Build 157)  -->
  <defs>
    <style>
      .st0 {
        fill: url(#Degradado_sin_nombre_6);
      }

      .st1 {
        fill: #b64ab6;
      }

      .st2 {
        fill: url(#Degradado_sin_nombre_5);
      }

      .st3 {
        fill: url(#Degradado_sin_nombre_16);
      }

      .st4 {
        fill: url(#Degradado_sin_nombre_11);
      }

      .st5 {
        fill: #931f93;
      }

      .st6 {
        fill: #6a6a6b;
      }

      .st7 {
        fill: url(#Degradado_sin_nombre_4);
      }

      .st8 {
        fill: #be9232;
      }

      .st9 {
        fill: url(#Degradado_sin_nombre_2);
      }

      .st10 {
        fill: #d1d1d0;
      }

      .st11 {
        fill: #fcfcfb;
      }

      .st12 {
        fill: url(#Degradado_sin_nombre_9);
      }

      .st13 {
        fill: #878887;
      }

      .st14 {
        fill: url(#Degradado_sin_nombre_17);
      }

      .st15 {
        fill: #dab159;
      }

      .st16 {
        fill: url(#Degradado_sin_nombre_13);
      }

      .st17 {
        fill: url(#Degradado_sin_nombre_7);
      }

      .st18 {
        fill: url(#Degradado_sin_nombre_3);
      }

      .st19 {
        fill: url(#Degradado_sin_nombre_10);
      }

      .st20 {
        fill: url(#Degradado_sin_nombre_18);
      }

      .st21 {
        fill: url(#Degradado_sin_nombre_14);
      }

      .st22 {
        fill: #a5a5a5;
      }

      .st23 {
        fill: #011321;
      }

      .st24 {
        fill: url(#Degradado_sin_nombre_15);
      }

      .st25 {
        fill: url(#Degradado_sin_nombre_8);
      }

      .st26 {
        fill: #7e197d;
      }

      .st27 {
        fill: url(#Degradado_sin_nombre_12);
      }

      .st28 {
        fill: #5e5e5f;
      }
    </style>
    <linearGradient id="Degradado_sin_nombre_2" data-name="Degradado sin nombre 2" x1="787.6" y1="-254.9" x2="587.9" y2="-96.2" gradientTransform="translate(-283 -16.5) scale(.5 -.5)" gradientUnits="userSpaceOnUse">
      <stop offset="0" stop-color="#a09f9f"/>
      <stop offset="1" stop-color="#fefefd"/>
    </linearGradient>
    <linearGradient id="Degradado_sin_nombre_3" data-name="Degradado sin nombre 3" x1="815.2" y1="-345.3" x2="735.7" y2="-286.6" gradientTransform="translate(-283 -16.5) scale(.5 -.5)" gradientUnits="userSpaceOnUse">
      <stop offset="0" stop-color="#605f60"/>
      <stop offset="1" stop-color="#9a9a9a"/>
    </linearGradient>
    <linearGradient id="Degradado_sin_nombre_4" data-name="Degradado sin nombre 4" x1="802.1" y1="-290.1" x2="669.3" y2="-157.5" gradientTransform="translate(-283 -16.5) scale(.5 -.5)" gradientUnits="userSpaceOnUse">
      <stop offset="0" stop-color="#681367"/>
      <stop offset="1" stop-color="#972196"/>
    </linearGradient>
    <linearGradient id="Degradado_sin_nombre_5" data-name="Degradado sin nombre 5" x1="724.4" y1="-402.8" x2="690.5" y2="-310.6" gradientTransform="translate(-283 -16.5) scale(.5 -.5)" gradientUnits="userSpaceOnUse">
      <stop offset="0" stop-color="#646464"/>
      <stop offset="1" stop-color="#a3a4a4"/>
    </linearGradient>
    <linearGradient id="Degradado_sin_nombre_6" data-name="Degradado sin nombre 6" x1="781.8" y1="-421.6" x2="739.8" y2="-361.2" gradientTransform="translate(-283 -16.5) scale(.5 -.5)" gradientUnits="userSpaceOnUse">
      <stop offset="0" stop-color="#565657"/>
      <stop offset="1" stop-color="#6f6f6f"/>
    </linearGradient>
    <linearGradient id="Degradado_sin_nombre_7" data-name="Degradado sin nombre 7" x1="757.9" y1="-502.3" x2="722.4" y2="-388.4" gradientTransform="translate(-283 -16.5) scale(.5 -.5)" gradientUnits="userSpaceOnUse">
      <stop offset="0" stop-color="#333335"/>
      <stop offset="1" stop-color="#646566"/>
    </linearGradient>
    <linearGradient id="Degradado_sin_nombre_8" data-name="Degradado sin nombre 8" x1="633.4" y1="-152.4" x2="541.8" y2="-95.4" gradientTransform="translate(-283 -16.5) scale(.5 -.5)" gradientUnits="userSpaceOnUse">
      <stop offset="0" stop-color="#2e2d2e"/>
      <stop offset="1" stop-color="#5f5f5f"/>
    </linearGradient>
    <linearGradient id="Degradado_sin_nombre_9" data-name="Degradado sin nombre 9" x1="990.7" y1="-331.5" x2="831.6" y2="-203.7" gradientTransform="translate(-283 -16.5) scale(.5 -.5)" gradientUnits="userSpaceOnUse">
      <stop offset="0" stop-color="#2d2d2e"/>
      <stop offset="1" stop-color="#6b6c6d"/>
    </linearGradient>
    <linearGradient id="Degradado_sin_nombre_10" data-name="Degradado sin nombre 10" x1="908.7" y1="-195.7" x2="761.2" y2="-121.3" gradientTransform="translate(-283 -16.5) scale(.5 -.5)" gradientUnits="userSpaceOnUse">
      <stop offset="0" stop-color="#6a6b6c"/>
      <stop offset="1" stop-color="#c6c5c5"/>
    </linearGradient>
    <linearGradient id="Degradado_sin_nombre_11" data-name="Degradado sin nombre 11" x1="876.7" y1="-280.2" x2="876.9" y2="-278.9" gradientTransform="translate(-283 -16.5) scale(.5 -.5)" gradientUnits="userSpaceOnUse">
      <stop offset="0" stop-color="#616162"/>
      <stop offset="1" stop-color="#777"/>
    </linearGradient>
    <linearGradient id="Degradado_sin_nombre_12" data-name="Degradado sin nombre 12" x1="890.9" y1="-264.2" x2="826.4" y2="-228.7" gradientTransform="translate(-283 -16.5) scale(.5 -.5)" gradientUnits="userSpaceOnUse">
      <stop offset="0" stop-color="#818181"/>
      <stop offset="1" stop-color="#b3b2b2"/>
    </linearGradient>
    <linearGradient id="Degradado_sin_nombre_13" data-name="Degradado sin nombre 13" x1="829.6" y1="-236.7" x2="827.5" y2="-234" gradientTransform="translate(-283 -16.5) scale(.5 -.5)" gradientUnits="userSpaceOnUse">
      <stop offset="0" stop-color="#a6a5a5"/>
      <stop offset="1" stop-color="#d0d0d0"/>
    </linearGradient>
    <linearGradient id="Degradado_sin_nombre_14" data-name="Degradado sin nombre 14" x1="896.2" y1="-121.3" x2="818.6" y2="-109.3" gradientTransform="translate(-283 -16.5) scale(.5 -.5)" gradientUnits="userSpaceOnUse">
      <stop offset="0" stop-color="#9e9e9d"/>
      <stop offset="1" stop-color="#d3d2d2"/>
    </linearGradient>
    <linearGradient id="Degradado_sin_nombre_15" data-name="Degradado sin nombre 15" x1="912.7" y1="-48.8" x2="909.1" y2="-47.5" gradientTransform="translate(-283 -16.5) scale(.5 -.5)" gradientUnits="userSpaceOnUse">
      <stop offset="0" stop-color="#737977"/>
      <stop offset="1" stop-color="#88878a"/>
    </linearGradient>
    <linearGradient id="Degradado_sin_nombre_16" data-name="Degradado sin nombre 16" x1="891.9" y1="-390.2" x2="825.2" y2="-357" gradientTransform="translate(-283 -16.5) scale(.5 -.5)" gradientUnits="userSpaceOnUse">
      <stop offset="0" stop-color="#6b6b6a"/>
      <stop offset="1" stop-color="#8d8d8d"/>
    </linearGradient>
    <linearGradient id="Degradado_sin_nombre_17" data-name="Degradado sin nombre 17" x1="978.9" y1="-61.5" x2="917.2" y2="-83.1" gradientTransform="translate(-283 -16.5) scale(.5 -.5)" gradientUnits="userSpaceOnUse">
      <stop offset="0" stop-color="#656668"/>
      <stop offset="1" stop-color="#7a7c7d"/>
    </linearGradient>
    <linearGradient id="Degradado_sin_nombre_18" data-name="Degradado sin nombre 18" x1="932.8" y1="-50.1" x2="941" y2="-48.8" gradientTransform="translate(-283 -16.5) scale(.5 -.5)" gradientUnits="userSpaceOnUse">
      <stop offset="0" stop-color="#6e7072"/>
      <stop offset="1" stop-color="#86868a"/>
    </linearGradient>
  </defs>
  <path class="st23" d="M116.1,232.1C12.3,195,6.9,106.6,6.9,106.6V.1h218.3v106.4s-7.3,87.6-109.2,125.5Z"/>
  <path class="st23" d="M69.9,1.7c4.5-.2,9.7,0,14.2,0h31.2c-.2,2.5-.1,5.4-.1,7.9v11.9s0,18.8,0,18.8c0,3.2,0,6.7,0,9.8-.1,8.9,0,17.7,0,26.6,0,1.1,0,2.4,0,3.4.2,6.5,0,13.9,0,20.4,0,2,0,3.9,0,5.9v37.4s0,10.8,0,10.8c0,1.5,0,4.6,0,6h0c0,.1,0,1.2,0,1.2,0,1.3,0,2.7,0,4v.2c0,1.5,0,3.5,0,5-.3.4-.2.6-.2,1.1-2,.3-4.5.5-6.5.1-.3.2-1.4,1-1.6,1-2.4,0-4.2-1.3-6.8-1.3h-.2s0-.4,0-.4c-.7-.4-1.1.1-1.4,0-1.7-.4-3.2-.6-4.8-1.4-.6-.3-1.6-.4-2.1,0,1.4.8,4.5,1.5,6.1,1.8,1,.2,1.1,1,1.6,1.1.8.2,3.2.3,3.9.7-.2.1-.3.2-.4.4,1.2,1,7,1,7.4,1.6l-.2.2c-.7.1-4.5-.5-5.4-.6-5-.8-9.8-2.1-14.4-4.2-2.7-1.2-5.4-2.8-8.1-4.1-.6-.6-.6,0-1-.8-.2.2-.2.3-.5.4-.4,0-.8,0-1.1-.3-1.9-1.1-1.4-3.5-1.9-5-.5-.2-1.1,0-1.6,0-1.3-.2-2-1.7-3.2-.4-.6.5-1,.8-1.4,1.5-.4,0-.4,0-.7-.1-2.3-2.6,1.7-5.8,2.2-8,0-.1-.2-.3-.3-.4-1.2-.3-2.4.2-3.6.5.3-4.3,2.7-4.7,6-5.8,2.7-1,2.7,1.1,5.4,1.3,3,.1,4.6-8.2,3-9.1-1.8-1-4.2-1.9-6.3-3.5h-.1c-.6,1.3-1,2-1.9,3-.2.2-.9.9-1,1-.8.3-1.6.7-2.4.5-.8-.8.5-2.5.5-4,0-1.6-.1-1.8-.7-3.3,0,.7,0,.9.3,1.6-.3.9-1.9,1.1-2.8,1.7-1.5,1.1-3,2.7-4.6,3.6-.9.5-1.6-.4-2.6,1.1-.7,1-1.3,2.3-2.3,3-2,1.5-4.3,2-6.5,3.2-1.4.8-2.6,2.9-3.7,3-2.3.2-4.6,0-6.8,0-.8,0-2.1.8-2.9.8.1,0-.8.3-.9.3-.5.5-.2.8,0,1.4h-.1c-.9-1.3-2-2.7-3.8-1.7-.3.8.9,1.6.8,2.6-.4-.3-1.7-.2-2.4-1.4-.2-.3-1.2-1.7-1.5-1.9-1-.2-1.1-.1-1.5-1.1h-.2c0,0-.3.1-.3.1-.6-.3-1.3-1.7-1.6-2.3h-.1c1,2.4,3.3,6,4.6,8.5v.2c-1.4,0-2.7-4.6-3.6-5.5-.9,1.8,3.6,6.8,3.8,8.2-1-.4-1.9-3.6-2.7-3.8l-.2.2c0,.5.1.6.3,1-.5.2-.9.2-1.3.5v.2c0,0,0,.1,0,.1-1.1-1.5-7.1-12.3-7.4-13.7-.6-1-1.8-3.7-2.2-4.7-4.1-9.4-6.9-19.3-8.6-29.4-.2-1.4-.8-4.9-.8-6.2.3-1.4-.3-3.3-.3-4.7,0-1.8.4-3.3.3-5.1,0-1.6-.7-2.2-.8-3.4-.2-2.3.2-5,.1-7.3,0-.8.4-1.8.6-2.6.9-3.8.9-7.7,1.1-11.6,0-1.4.4-2.9.4-4.3,0-1.4.5-2.7.1-4.1-.3-1.3.5-2.6.6-4.2.4-3.7,1.1-7.4,1.6-11.1.2-1.2.5-1.3.4-2.8,0-1.4,0-2-.3-3.3-.3-.2-.5-.3-.6-.6.2-.2,1-1.1,1-1.3.6-2.1.7-3.9,1.7-5.9,1.5-3,3.9-3.6,5.8-6.1,1.7-2.2,1.1-3.7,1.7-6.2.5-1.4,1.5-2.2,2.2-3.6,1.3-2.6,2.1-6.1,4.7-7.8.5-.4,2.1-.4,2.8-.7,1.4-.7,2.5-1.9,4-2.2,1.9-.5,3.7-.8,5.7-1.2,2.5-.4,5,0,7.4-.3,3.8-.4,7.6-.8,11.4-1.2.9,0,1.9-.5,2.8-.7,1.8-.2,4.1.2,5.8-.2Z"/>
  <path class="st9" d="M69.9,1.7c4.5-.2,9.7,0,14.2,0h31.2c-.2,2.5-.1,5.4-.1,7.9v11.9s0,18.8,0,18.8c0,3.2,0,6.7,0,9.8-.1,8.9,0,17.7,0,26.6,0,1.1,0,2.4,0,3.4.2,6.5,0,13.9,0,20.4,0,2,0,3.9,0,5.9l-1.6.3c-.6-.6-.1-.7-.7-.9-.6.5-.2.9-.8,1.4h-.2c-.2-.6-.2-.8-.3-1.3-.3.6-.4.7-.6,1.4v-.2c0-.5,0-.7-.3-1.1-.9-.5-1.4,0-2.3.4-3.1,1.3-2.5,1.4-2.7,4.3h-.1c0,0-.1,0-.1,0,.2-4.7-.9-8.4-.8-13,0-1.8.9-4.5,2.1-5.9.4-.4,1-.9,1.5-1.3,0-1-1-1.4-1.9-1.2-2.9.8-4.6,2.2-6.2,4.7-1.8-7.1,4.3-6.7,6.1-12.3.3-.8.3-3.6-.8-3.9-.7.3-1.2,1.4-2.1,2.2-3.3,2.5-5.3,2.5-7.8,6,1.2-8.2,9.2-7.5,10.8-14.8.3-1.3,0-4.9-1.6-5.1-.2.2-.9,2.4-1.4,3.2-.4.7-.9,1.4-1.5,2-2.5,2.4-5.9,3.3-8.9,6.2,2.7-8.4,7.8-10.8,13-17.6,4.1-5.3,5.5-15.2-.7-19.7-2.5-1.6-6.3-2.1-8.9-.7-3.8,2.1-7.7,4.3-7.2,9.2.6,5.6,1.7,6.6-1.5,11.6v.3c1.5.9,4.6-.1,5.9-1.1,2-1.4,2.9-3.4,3.2-5.8,3.2,0,4.6-.4,5.9-3.5-1.7,0-3.3,0-4-2-.6-1.5-.2-3.2,1.5-3.7.7-.2,1.5,0,2.1.4.9.6,1.5,1.8,1.6,2.8,1,8.1-8.2,14.1-12.5,20.3-5.3,7.3-5.4,14.5-1.4,22.4,2.5,4.9,9.2,11.9,9.7,17,0,.7-.2,1.6-.2,2.3-.2.2,0,.1-.3.2-2,.4-4.7,3.3-6,4-.5-.3-1.1-.9-1.6-.9-1.2-1-2.5-4.2-3.5-5.7-1.7-2.6-3.6-4.6-5.5-7-3.1-3.9-4.3-9-5.4-13.8,1.1.3,2.6.7,3.7.4,0,0,.2-.1.3-.2-.2-1.1-1.7-2.9-2-4-.5-2.3.4-4.9.8-7.2,1,.7,3.4,1.8,4.5.9,0-.1.1-.2.2-.4-.4-.9-1.3-2.1-1.4-3-.3-1.8-.1-3.8,0-5.6.9,0,3.6.2,3.6-1.1-3.4-3.8-1.4-7.2-1.5-11.7,0-2.1-.4-3.4-1.2-5.3,1.1-.7,3.4-2.2,2.5-3.8-.5-.3-1-.2-1.6-.2-3.2-1.8-2.8-4.3-5.6-6.3,0-.4,0-.8,0-1.1-.1-2.5-1.4-3-3.6-2.8,0-.4-.2-.9-.2-1.3-.1-.7-.3-1.8-.9-2.2-1,.2-3,1.9-3.9,2.1-3.2.6-6.6.2-9.9,1.2-2.1.6-2.7,1.4-3.7,3.2-2,.6-5.9,1.4-7.4,3.1-.7.8.3,2.1.4,2.9.2,1.3-.3,2.9.8,4.1.7,1,2.3,1.7,2.6,2.6-1,.9-4.5.3-5.6-.4-1.7-1.1-2-2.7-2.5-4.5-.5.4-.8.6-1.1,1.1-.8,1.3-1.1,2.8-.8,4.3.3,1.4,1.2,2.5,2.4,3.2,2.8,1.6,5.9.7,8.8,0-.3.4-.7.9-.8,1.3-.3.8.1,3.9.5,4.5,1.9,2.8,6.2-1.2,8-.7v.3c-.9,4.1-7.7,5.7-10.9,3.3-.8-.6-1-1.6-2.1-1.4-1.2,1.2-.3,4.6.3,5.9-4-3.1-11.7-11.6-14.3-16.1-1-1.8-.5-3.8.3-5.6,1.1-2.1-.2-3.3-.6-5-.5-1.8-3.8-4.5-5.4-3.7-.7,1.1,1.2,2.8.2,4.1-.7.2-1-.2-1.7-.5-1-.4-2-.7-3-1-2.1-.5-3-.1-4.8.9-.4.2-.7.5-.8,1,.5,1.2,1.1.5,2.3,1.3v.3c0,0,0,.1,0,.1v.2c-.9.2-1.9.1-2.4.9-.7,1.2.2,2.2.3,3.3-.2.1-.4.3-.6.4v.2c-1.2,1.1-2.5,3-2.6,4.7.2.5,0,.3.5.5,1.2-.4,1.9-.7,3.1-1,1.2,2.5,2.4,2.1,4.9,2.3.7.8.8.9,1.3,1.9-1.4,1.1-1.3,1.3-1.8,2.8,0,.3-2.3,0-2.8.4,0,.7.6,1.5,1,2,1.5,2,5.1,2.2,7.2,1.1.6,1.3,1.2,3.2.7,4.6-.4,1-1.4,1.8-1.7,3,.6,1.1,3.6.6,4.6.3.2,1.1.2,1.4.2,2.6,0,1.4-1.2,2.7-.6,3.8,1.2.7,3.3-.3,4.3-.9.8,1.2,1.7,2.4,2.5,3.6-1.5.8-3.4.9-3.8,1.7.2,1.7,3.7,2.4,5.2,2.7-3.2,2.2-6.4,4.6-9.8,6.5-3.3,1.8-4.4-2.6-6.9-2.8-1.1,0-4.7.2-5.6.9-.7.6-2.4,1.8-1.9,2.9,1,.6,2.9,0,3.7.8,0,.6,0,.3-.1.9-2.4,1.4-5.5,6.1-3.7,8.9.9.5,2-1.2,3-1.9,1,.8,1,.9,2.2,1.1.6,2.8.1,5.4,2.8,7.3.4.3.8.4,1.3.4,1-.8-.2-2.5.7-3.5,1.4-.4,2.1-.4,2.9-1.8.5-.8,1.2-3.3,2.6-2.6.3.9.5,1.1,1.3,1.7v.2c-.2.9-.8,2.2-.9,2.8.9,1,3.6-.7,4.2-1.6,1.2-1.7,1.9-3.1,1.7-5.2.7-.2,1.3-.5,2-.5.9.5.9,1.9,1.1,3,2.5-1,2.8-2,3.8-4.3.6.7,1.4,1.7,2.3,2,.3,0,.6,0,.8-.4,1-2.3.9-3.1,3.1-4.6,3.2,6.9,9.2,8.7,15.6,12.2-1.2-.2-2.3-.7-2.4.9-.4.2-2.6-.2-3.2-.3-6-.9-11.7-.3-15.2,5.2-1.7,2.7-3.6,2.8-6.5,2.4-1-.1-.1,1.6.1,2,1.5,2.4,4.3,2.7,6.9,2.1.4,4.9,2.8,5.6,3.7,9.3h-.2c-1.4,1.1-5.1,3.1-6.9,2.7-2.1-.4-2.7-3.4-4.8-4-.8-.2-1.7-.1-2.6-.3-1.3-.2-2.5-.2-3.7.6-.7.4-1.8,1.3-1.7,2.2.9,1,3.1.2,3.4,1.8-.2.3-.3.2-.6.4-2.5,1.5-5.7,4.7-4.4,7.9,0,.2.2.2.4.3,1.6-.5,1.7-2.3,3.7-.9,1.2.8,2.1.1,1.6,2.4-.6,2.7.2,5.1,2.9,6.1.7-3.3.2-3.4,3.4-4.1,1-.2,1.2-2.7,2.9-2.3.6,1.3.5,1.4,1.6,2.4-.2.6-.9,2.4-.9,2.6.9,1,3.1,0,3.9-.8,1.4-1.4,1.8-2.9,2.2-4.7.7-.3,1.5-.5,2.2-.8.9,1.1,3.4,3.2,4.9,2.5l.2-.3c-.3-.9-.6-1.8-.7-2.8,1,.7,3.3,1.9,4.4,1.2.4-.9-.7-2.6-1-3.7,2.7-.5,4.4-1.2,5.2-4-1.1-.4-2.1-1.1-2.6-2.1-3.6-6.5.5-8.5,6-8.5-.7,3.5-.5,5.9.6,9.4.2.7,1,2.4,1.1,3,0,.7,0,.9.3,1.6-.3.9-1.9,1.1-2.8,1.7-1.5,1.1-3,2.7-4.6,3.6-.9.5-1.6-.4-2.6,1.1-.7,1-1.3,2.3-2.3,3-2,1.5-4.3,2-6.5,3.2-1.4.8-2.6,2.9-3.7,3-2.3.2-4.6,0-6.8,0-.8,0-2.1.8-2.9.8.1,0-.8.3-.9.3-.5.5-.2.8,0,1.4h-.1c-.9-1.3-2-2.7-3.8-1.7-.3.8.9,1.6.8,2.6-.4-.3-1.7-.2-2.4-1.4-.2-.3-1.2-1.7-1.5-1.9-1-.2-1.1-.1-1.5-1.1h-.2c0,0-.3.1-.3.1-.6-.3-1.3-1.7-1.6-2.3h-.1c1,2.4,3.3,6,4.6,8.5v.2c-1.4,0-2.7-4.6-3.6-5.5-.9,1.8,3.6,6.8,3.8,8.2-1-.4-1.9-3.6-2.7-3.8l-.2.2c0,.5.1.6.3,1-.5.2-.9.2-1.3.5v.2c0,0,0,.1,0,.1-1.1-1.5-7.1-12.3-7.4-13.7-.6-1-1.8-3.7-2.2-4.7-4.1-9.4-6.9-19.3-8.6-29.4-.2-1.4-.8-4.9-.8-6.2.3-1.4-.3-3.3-.3-4.7,0-1.8.4-3.3.3-5.1,0-1.6-.7-2.2-.8-3.4-.2-2.3.2-5,.1-7.3,0-.8.4-1.8.6-2.6.9-3.8.9-7.7,1.1-11.6,0-1.4.4-2.9.4-4.3,0-1.4.5-2.7.1-4.1-.3-1.3.5-2.6.6-4.2.4-3.7,1.1-7.4,1.6-11.1.2-1.2.5-1.3.4-2.8,0-1.4,0-2-.3-3.3-.3-.2-.5-.3-.6-.6.2-.2,1-1.1,1-1.3.6-2.1.7-3.9,1.7-5.9,1.5-3,3.9-3.6,5.8-6.1,1.7-2.2,1.1-3.7,1.7-6.2.5-1.4,1.5-2.2,2.2-3.6,1.3-2.6,2.1-6.1,4.7-7.8.5-.4,2.1-.4,2.8-.7,1.4-.7,2.5-1.9,4-2.2,1.9-.5,3.7-.8,5.7-1.2,2.5-.4,5,0,7.4-.3,3.8-.4,7.6-.8,11.4-1.2.9,0,1.9-.5,2.8-.7,1.8-.2,4.1.2,5.8-.2Z"/>
  <path class="st22" d="M115.3,100.6c-1-1.2-1.4-5.3-1.7-7-.1-.6,0-3.5.2-4.2.2-1,1.3-2.6,1.3-3.8,0-1.4-.2-4.1.1-5.5.2,6.5,0,13.9,0,20.4Z"/>
  <path class="st22" d="M21,144.7c.4.1.3,0,.5.5,1.4,3.2,3.2,6.3,5,9.4,3.6.7.9,1.6,2.1,3.5v.2c0,0,0,.1,0,.1-1.1-1.5-7.1-12.3-7.4-13.7Z"/>
  <path class="st22" d="M52,143.4c.7.5,1.8,1.8,1.5,2.7-.8-.2-1.6-1.9-1.5-2.7Z"/>
  <path class="st18" d="M105.6,110.9h.1s.1,0,.1,0c.2-2.9-.4-3,2.7-4.3.8-.3,1.4-.8,2.3-.4.3.4.2.6.3,1.1v.2c.2-.6.3-.8.6-1.4,0,.6,0,.7.3,1.3h.2c.6-.4.2-.8.8-1.4.5.2.1.3.7.9l1.6-.3v37.4s0,10.8,0,10.8c0,1.5,0,4.6,0,6h0c0,.1,0,1.2,0,1.2,0,1.3,0,2.7,0,4v.2c0,1.5,0,3.5,0,5-.3.4-.2.6-.2,1.1-2,.3-4.5.5-6.5.1-.3.2-1.4,1-1.6,1-2.4,0-4.2-1.3-6.8-1.3h-.2s0-.4,0-.4c-.7-.4-1.1.1-1.4,0-1.7-.4-3.2-.6-4.8-1.4-.6-.3-1.6-.4-2.1,0,1.4.8,4.5,1.5,6.1,1.8,1,.2,1.1,1,1.6,1.1.8.2,3.2.3,3.9.7-.2.1-.3.2-.4.4,1.2,1,7,1,7.4,1.6l-.2.2c-.7.1-4.5-.5-5.4-.6-5-.8-9.8-2.1-14.4-4.2-2.7-1.2-5.4-2.8-8.1-4.1-.6-.6-.6,0-1-.8.7-3,.6-2.3,3-2.8,1.8-.4,2.4-3.6,3.3-5.2v-.2c1,.4,1.2.5,2.1.7.3,1.1.2,2.7.9,3.2,2.8-1.6,2.6-3,2.9-5.9.3-2,0-2.6-1.1-4.3.3-.7.7-1.4,1.1-2.1.8,1.1.8,1.6,2,2.5.5,0,.3,0,.6-.2.5-.9.7-2.6.7-3.7.4-.1,1.5-.8,1.8-1.2.4-.2.6-.2.9-.6.1-.8-1.3-2.2-1.9-3.1,1.4,0,3.7.1,4-1.7-.4-.6-1.1-.9-1.6-1.4-.8-.9-1.5-2.7-2.1-3.8.3-1.2.9-1.6,1.3-3.5-.2-1.1-.1-1.7-.6-2.7-.9-.6-2.1,1.3-4.2,1.1-6.4-.8-4.6-7.9-4.1-12.6,3.5,1.8,5.6,2.1,9.4.9,4-2.1,5.2-4.8,6.2-9.1v-.2Z"/>
  <path class="st28" d="M108.5,172.5c-1.6-.2-8-1.2-9.1-2,.3-.5,2.5.3,3.1.3.9.1,2.3-.5,3,0v-.2c-.9-1-8-1.4-9.2-3v-.2c3.5,1.1,11.8,3.6,14.9,2.4,0,0-3.2-.4-3.6-.5,1.4-.2,3.6.3,4.5-.2,0,0-.5-.2-.6-.2-1.6-1-11.3-1.8-12.4-2.9.3-.1,3.7.7,4.4.9,2.6.6,5.4,1.1,8.1,1.3.8,0,1.7-.2,2.5-.2h.3s0-.2,0-.2c-.2,0-.5-.1-.6-.2-1.5-.5-7.3-.2-8.4-1.1v-.3s.2-.1.2-.1c1.5.5,7.8,1.2,9.4,1,0-.3.2-.6.2-1,0,1.5,0,3.5,0,5-.3.4-.2.6-.2,1.1-2,.3-4.5.5-6.5.1Z"/>
  <path class="st28" d="M115.3,166c-.5-.4-1.7-.3-2.5-.4-1.7-.1-3.3-.3-5-.6-.4,0-4-.9-4.2-1l.2-.3c.5,0,1.7.3,2.3.4,2.3.5,4.8,1.2,7.2.9.6,0,1-.4,1.3-.9.3,0,.2,0,.4-.2v-.2c-1,0-3-.8-3.6-.5-1.3.4-3.3,1-4.5,0h0c.8-.4,6.4,0,7.9,0,.2-.3.2-.7.3-1.2,0,1.3,0,2.7,0,4Z"/>
  <path class="st10" d="M105.6,111c1.1,2.4-3.2,8.8-6,9.2v-.2c3.9-2.1,5.1-4.8,6-9.1Z"/>
  <path class="st22" d="M93.2,156.3c.7,2.2-.4,5.4-2.7,6.2h-.2c0,0,0-.3,0-.3,2.8-1.6,2.6-3,2.9-5.9Z"/>
  <path class="st10" d="M98.9,133.3c.6.9-.5,3-1.3,3.5.3-1.2.9-1.6,1.3-3.5Z"/>
  <path class="st28" d="M115.3,160.9c-1.1,0-3,0-4-.2,1.3-.1,2.7,0,4.1,0h0Z"/>
  <path class="st28" d="M104.8,168.2c.6,0,.7,0,1.1.3h-.1c.4.3.5.3.7.7-.4.2-.8,0-1.3-.1-.8-.2-1.5.3-2.3-.5,1-.4,1.2.1,1.9-.4Z"/>
  <path class="st28" d="M95,168.9c.5,0,2.2.4,2.5.8v.4c-1-.2-2.1-.3-2.5-1.1Z"/>
  <path class="st28" d="M98.2,173.9v-.2c0,0,.3,0,.3,0,.7.2,1.2.2,1.9.4-.7.2-1.4,0-2.1,0v-.2Z"/>
  <path class="st28" d="M107.7,161.7c.5-.1,2.5.3,3,.5-.6,0-2.6-.2-3-.5Z"/>
  <path class="st6" d="M100.4,174.1l.2-.2h.3c.1.3,0,.2.1.3h-.3c-.3,0-.2,0-.3-.1Z"/>
  <path class="st22" d="M99.8,107.6c.6,2.9-.6,6.7-3.9,7.3-1.4.3-3.5-.7-4.3-1.8.5,0,1.1.6,1.6.9,1.3-.7,4-3.6,6-4,.3,0,.2,0,.3-.2,0-.7.1-1.5.2-2.3Z"/>
  <path class="st11" d="M21.7,43.2c1.4.8.6,2.1.8,3.8-.6.2-3.1,1.5-3.3,1.5v-.2c0-.1.3-.2.5-.4,0-1.1-1-2.1-.3-3.3.4-.8,1.5-.7,2.4-.9v-.2s-.2-.1-.2-.1v-.3Z"/>
  <path class="st10" d="M80.5,166.9c.2-.6.6-2.6,1-3,.7-.7,2.1,0,3.1-1.1,1.4-1.4,1.1-3.5,2.7-4.6v.2c-1,1.6-1.5,4.9-3.4,5.2-2.3.5-2.3-.3-3,2.8-.2.2-.2.3-.5.4Z"/>
  <path class="st10" d="M101.3,142c-.3,1.8-2.7,1.8-4,1.7v-.5c2.4-.2,1.6.7,4-1.2Z"/>
  <path class="st22" d="M96.4,148.6c0-.4-.1-.4,0-.9l.3-.2c.6,0,1,0,1.5-.2-.3.4-1.4,1.1-1.8,1.2Z"/>
  <path class="st7" d="M98.7,40.6c1.6-.5,3.8-.1,5.2.7,5.6,3.2,5,11.2,2.1,16.1-5.1,8.6-16.6,13.9-14.1,25.7.2-.6.4-1.2.7-1.8.7-1.8,1.6-2.9,3.1-3.9.4-.5,2.7-1.7,3.3-2.1l2.5-1.6c2.3-1.9,1.7-1.4,3.4-3.6h.1c-.1,4.7-4.3,6.2-7.2,8.9-3.4,3.2-4.5,6.9-2.4,11.3,1.2-4.4,2.7-5.3,6.6-7.4,1.2-.6,2-1.3,3.1-2-2,6.6-10.2,6.1-5,16.2.2.4.5.8.7,1.3,0-.3.2-1.5.3-1.7.2-1.4.4-1.8,1.2-3,.9-1.2,1.8-1.7,3.2-2.3-1.1,2.1-1.8,3.5-2.1,6-.4,3.5.6,6.8.8,10.2.2,4.4-1.3,9.7-5.9,11.2-2.3.7-4.2.7-6.4-.4-1.4-.7-2.6-1.8-3.7-2.8.1,1.6.2,3.1,0,4.7-.3,4-1.5,8.7,1.9,11.7,2,1.7,4.6,1.6,6.9.6-.3,2.1-.4,2.6-1.8,4.2,1.3,1.4,1.7,3.4,3,5.1-2-.5-2.1-.5-3.8-1.9.3,2.5.7,4,2.2,6.1-1.4-.3-1.9-.4-3.1-1.1.4,1.7.9,3.1,1.2,4.8-.9-.6-1.7-1.2-2.7-1.7-.7,1.3-1.5,2.9-1.9,4.3.4.7,1.5,2.3,1.4,3-.4.1-1.8.3-1.9.4-1.5,1.5-.7,2.6-2.9-.1-.5.7-1,1.4-1.5,2.2-1,1.4-1.2,3-2.6,4h-.3c-.7-.6-1.6-1.8-2.3-1.9-.4,0-1.2-.3-1.4-.5.2-1.3,2.5-2.3,3.1-3.4,0-.1.2-.2.2-.3-1.3.5-2.8,1.1-4,1.8-.6,1.1-.5,1.9-1.6,2.5-1.6.2-2.1-2.9-2.3-4.2,0-.2,0-.3.5-.4,2-.8,3.1,0,4.9-1.6-1.9,0-3.6-.4-5.5-.3,1.3-7.2,2.6-.4,7.5-2.5.2,0,.4-.2.7-.3,1.2-1,1.6-1.8,2.3-3.1,2.9-12-3.8-6.4-9.1-14.3,0,2.7,0,4.6-2.3,6.5.8-6-2.5-8.2-2.5-13.4-.1-2.2.4-4.2,1.2-6.3.6-2.4,2.3-4.2,1.7-7.4-.1-.8-.2-2.5-.9-3v.8c-.4-.2-1.2-2.2-1.6-2.6-6.1-6.2-13.8-5.6-17.9-14.2.8-.2,2.8-.5,3.2-1l-.2-.2c-4.3-.8-7.2,1-8.6,5.1-.7-.9-1.5-2.6-1.9-2.9-1,.3-2.1,3.3-2.8,4.4-.4-1-.7-1.5-1.4-2.3-1.7.3-3.3.9-4.8,1.6.3.7.7,1.3.5,2-.6.6-2.5.6-3.5.8,0-.6-.2-1.2-.2-1.8-5.7.5-3.9,3.6-5.7,4.5-.6,0-2.7-1.4-3.7-1.7-.2-.4-.2-1,0-1.4.4-.5,2-1.9,2.6-2.5.2-.4.2-.4.3-.8h-.2c-1.6,0-4.1,2.8-5.2,2.3-.5-.9-.4-2.1-.6-3,0-.3-.4-.7-.5-1.2v-.2c1.7-.9,5.4.4,6.2-1.2-1.1-.8-7.7.6-2.6-4.8.8-.3,2.5,1.7,2.8,2,3.7,3,6.6-.2,9.7-2,1.5-1.2,6.8-4.8,8.3-5.3,1-.5,3.8-1.4,5.2-2-.5,2.8-2,4.8-3.6,7.1,3.6,0,6.8-1.3,9.7-3.3.4,3.9,1.7,6.9,5.1,8.9,0-4.1.5-5.5,3-8.8,1.4,4.1,2.8,6.3,7.4,7-1.5-5.1-.9-6.1,1.4-10.7.9,1.5,1.2,2,2.4,3.2.7,4.3,1.9,9,4,13,1.7,3.1,4.3,5.5,6.4,8.3,2.3,3.2,3.8,8.3,8,9.4,1.6.4,3.2.2,4.6-.7,1.4-.9,2.5-2.9,2.8-4.5,1.3-6.8-3.9-12-7.3-17.2-2.5-3.9-5-8-5.2-12.7,0-.9-.1-1.9,0-2.7.6-9.1,10.1-15.1,14.6-22.2,1.8-3.5,3.8-10.4-.7-12.7-1-.5-2.1-.6-3.1-.2-2.5.9-3.2,3.6-2.2,5.9.6,1.3,1.8,2,3,2.7-2.1.7-2.9,1-4.9-.3-.2,4-.7,6.1-4.7,7.8h-.3c0-.4.5-1.7.7-2.2,1.3-4.2-2.4-10.6,1.8-13.6.4-.3.8-.3,1.4-.4,1.2-1.4,2.6-2.2,4.4-2.6Z"/>
  <path class="st1" d="M103.5,56.3c.4,1.4-3.5,5-4.5,6.1-4,4.4-8.4,8.9-9.6,14.9,0,.4,0,1.2-.4,1.3h0c.6-9.1,10.1-15.2,14.6-22.2Z"/>
  <path class="st1" d="M92.9,43.6v.2s0,.2,0,.2c-3.7,4.6.5,10-2,15.5h-.3c0-.4.5-1.7.7-2.2,1.3-4.2-2.4-10.6,1.8-13.6Z"/>
  <path class="st1" d="M36.6,89.5c1.5-1.2,6.8-4.8,8.3-5.3-.2.3-1.2,1-1.5,1.2-1.5.7-5.5,4.2-6.7,4.1Z"/>
  <path class="st1" d="M94.3,43.2c1.2-1.4,2.6-2.2,4.4-2.6v.2c-.6.3-2,.8-2.4,1.1-.7.4-2.2,2.1-2.8,2.7l.8-1.4Z"/>
  <path class="st5" d="M71.9,120.3c.2.7-.6,3-.7,3.9-.1.7-.2,1.7-.3,2.4h-.2c-.1-2.3.4-4.3,1.2-6.3Z"/>
  <path class="st1" d="M95.8,77.4c0,0-2.5,3.2-2.9,3.9h-.2c.7-1.7,1.6-2.8,3.1-3.9Z"/>
  <path class="st5" d="M84.6,147.7l.2.2c-.2,1.1-1.3,2.7-2.3,3h-.1c1.2-1,1.6-1.9,2.3-3.2Z"/>
  <path class="st5" d="M101.5,73.8c0,.8-1.2,1.4-1.9,1.6h-.6c0,0,2.5-1.6,2.5-1.6Z"/>
  <path class="st5" d="M26.7,98.5c0,.8-1.8,2.3-2.6,2.5.4-.5,2-1.9,2.6-2.5Z"/>
  <path class="st5" d="M102.3,93.7c.2.6-.7,2.5-1.2,3,.2-1.4.4-1.8,1.2-3Z"/>
  <path class="st5" d="M73.9,33.8c0,.5.2,1.3.2,1.8-1,1.1-1.9,2-2.1,3.6l.3.3c.8-.5,1.1-1.5,1.9-2,2.8-1.9,4.1-.6,3.5,2.5-.3,1.9-3.4,2.6-3.2,3.3,2,.8,3.5-1,4.3-2.7,2.8,2.8,1.9,4.6,6.2,6.6-.9.5-1.2.6-2.2.9-.8-.2-1.6-.4-2.3-.7,1.4,1.6,2.6,3,3.1,5.2.7,3.4-.6,6.8-.2,10.1,0,1,.9,2.2.9,3.2-1.7.6-2.9-2.2-3.5-2.6-.2.3-.2.6-.1.9,1.5,3.6.6,7.1,1.6,10.9-2.3-1.1-2.5-2.1-3.8-4.2.2,1.3.4,2.9.2,4.2-.7,4.5-1.9,6,.1,10.4-4.3-1.4-5-5.2-5.7-9.2-.2,1.5-.4,3.3-1,4.7-1.9,4.6-3,5.2-2.5,10.2-3.8-2.8-4.3-5.2-3.7-9.6-2.6,3.2-5.5,6.5-6,10.5-2.2-3.5-2.6-5.7-2.1-9.9-2.8,3-4,4.1-7.9,5.3,0,0,0-.2,0-.3,1-2.3,2.3-6.7,3.3-8.8v-.2c-.5.2-2.1,1.5-2.6,1.9-3.3,2.3-7.5,3.3-11.5,2.2l1.2-.6c3.8-2.6,6.4-7.1,10.3-8.6-1.4-.3-3.6.7-5.2,0-.4-.2-1.1-.6-1.3-1l.4-.2c3-.8,3.9-2.6,7.4-3.5l.2-.2c-1.1-1.3-1.7-2-2-3.8,3.1,1.9,5,1.7,8.4,1,.5-.2,1-.3,1.5-.6,2.1-.9,3.1-2.3,3.8-4.3,0-.5,0-.5.2-.9.5-.3,2.1-.5,2.9-.7,2.3-.7,3.7-2.9,3.6-5.3,0-.6,0-1.6-.7-1.8-.4.7-.3,3.3-1.4,4.6-1.8,2.5-5.9,1.2-8.1,2-4,1.4-4.8,3.4-5.1-2.5,2.8.2,4,.4,6.8-.2,1.1-.7,1.3-1.3,1.7-2.4,0-2-.4-5-2.3-6-3.1-1.5-8.1,4.6-9.7-1.1-.5-1.7.4-1.8,1.2-3.1h-.2c-.3,0-.6.2-1,0-.4-.4-.4-.4-.5-.9.2-.5,0-.3.5-.6,1.7-.8,4.4-1.2,6.1-2.2,1.4-.8.9-1.7,2.7-2.6,4.1-2.1,9.2.1,13.4-3.1Z"/>
  <path class="st1" d="M40.2,81.6c3.8-2.6,6.4-7.1,10.3-8.6v.2c-1.6,1-2.3,1.4-3.7,2.7-1.2,1.1-5.3,5.6-6.4,6.1h-.2c0-.1,0-.5,0-.5Z"/>
  <path class="st1" d="M60.5,36.9c0-.1-1.9,2.7-1.9,2.7-.5.6-6.4,2.2-6.8,2,1.7-.8,4.4-1.2,6.1-2.2,1.4-.8.9-1.7,2.7-2.6Z"/>
  <path class="st1" d="M44.5,71.9c3-.8,3.9-2.6,7.4-3.5v.2c0,.2-1.4.8-1.7.9-1.2.5-4.6,3.1-5.7,2.7v-.2Z"/>
  <path class="st1" d="M53.2,78.4c.1.9-2.5,8.2-3.2,9.1,0,0,0-.2,0-.3,1-2.3,2.3-6.7,3.3-8.8Z"/>
  <path class="st1" d="M63.8,60.6c.8,1.9-3.5,5.5-5.3,4.9.5-.2,1-.3,1.5-.6,2.1-.9,3.1-2.3,3.8-4.3Z"/>
  <path class="st1" d="M63.8,53.2h.2c0,1.2-.9,2.3-1.9,2.6v-.2c1-.7,1.3-1.3,1.6-2.4Z"/>
  <path class="st23" d="M60.5,39.2c1.2.3,5.5.6,6,1.5v.2c-.7.3-1.3,0-2,.2-1.1,1.8-3.1,2.2-4.4.1-.5-.7,0-1.3.4-2.1Z"/>
  <path class="st26" d="M55.8,108.7c2.8-.3,9.2.2,11.7,1.7,1.9,1.1,2.8,4.6,4.2,6.3-.6,1.3-1.2,2.8-1.8,4.1-5.6,0-10.8,1.2-8.7,8.6.5,1.6,1.6,3.1,2.8,4.3-1.6,1.6-2.3,1.5-4.5,1.8.1,1.2.2,2.4.4,3.5-.9-.6-2.5-2-2.9-2.2h-.3c-.4,1-.5,2.8-.5,3.8-1.3-1-1.5-1.2-2.3-2.6-1.3.4-3.2,1-4.6,1.5v1.7c-1.3,0-2-.1-3.4.4l-.2-.6c-.5-1.9-1.8-2.3-3.3-1.1-.8.6-1.8,2.4-2.7,2.5-.9-.5-1-1.9-2.1-2-.7,0-.9.1-1.1-.6.3-1.6,2.4-2.5,3.4-3.8-2.4.4-2.9.8-5,1.8-.2,0-.3-.1-.5-.2,0-.2-.7-4-.6-4.1,1.3-.5,5,.8,5.6,0-1-.7-2.3-1.1-3.5-1.8.4-.8,1.4-2.4,2.1-2.9,1.9-.2,2.2,3.5,5.3,4,2.5.4,5.8-1.3,7.8-2.6,3.3-2-1.7-6.6-2.3-9.4-.4-2-.4-1.7-.1-4-2.6,1.6-4.2,1.6-6.8.2,7.4-.6,5.1-6.8,13.9-8.2Z"/>
  <path class="st5" d="M22.1,48.5c1.2,0,1.3,0,2.5.3.9.2,2.7,1.7,3.1,1.7.1-1.6-1.5-2.5-2.6-3.2-.6-.4-1.4-.9-1.4-1.7.1-1.4,2.2-1.9,3-2.9.1-.1.3-.2.4-.3,1.5.4,1.9,4.8,3.2,6.3h.3c1.1-.9-1.6-4.1-.5-5.7.9-.5,1.2-.2,2.2,0,.8.1,1.4,0,2,.7.6,1.9-2.8,5.5-.2,9.4,3.5,5.2,8.8,11.7,13.8,15.4-3.1,2-3.3,2.2-7,2.2,1,2.1,2.3,3.3,4.4,4.1-1.3,1.3-2.9,3.1-4.2,4.3-1.4-1.8-2.3-3.3-3.6-5.3-.5.7-1.6,2.2-2.5,2.2l-.2-.2c0-.5,0-.5.2-.9.5-2,0-4.6-.3-6.6-.9.8-1.9,1.4-3.1,1.8-.2-.4,0-.8.2-1.2.3-1,.5-1.9.6-3v-.2c-.7-2.1-.3-2.3-1.8-4.4-.9.5-1.3.8-2.2,1.2-.7-1.6-.7-2.1-2-3.2,1.2-1.2,2.4-2.8.8-4.4-.7-.7-1.6-1-2.5-1.2-3.9-.4-2.4-1.8-2.5-5Z"/>
  <path class="st1" d="M32.4,65.8c.4,1.5,0,2.9-.8,4.2-.2-.4,0-.8.2-1.2.3-1,.5-1.9.6-3Z"/>
  <path class="st5" d="M44.8,49.5c5.3,6.8,10.7.6,16.9,2.3.6.2.6.3.8.7v.3c-.1,0-.4,0-.4,0-4.5-1.7-7.8,1.2-12.2,1.3-3.2,0-5.1-1.2-5-4.5Z"/>
  <path class="st26" d="M67.8,108.6c3.3,0,4.6,3.3,4.5,6.2-.4,0-.6-.7-.8-1.1-.9-2.1-2.2-3.4-3.7-5.1Z"/>
  <path class="st11" d="M59.2,48.6c1.9-.2,2.2.5,3,2-1.7-.6-2.7-.6-4.5-.5-.8.1-2,.7-2.7.3.4-.5,3.5-1.6,4.2-1.9Z"/>
  <path class="st11" d="M58.9,53.6c1-.1,2,.2,3,.4-1,.3-1.6.5-2.7.7-.2,0-.3,0-.5,0-.7,0-1.8,0-2.3-.4.5-.6,1.7-.6,2.5-.7Z"/>
  <path class="st5" d="M22.6,41.3c.8,0,2.8-.2,2.9.9-.2.4-.4.5-.8.7-.2,0-.4,0-.7,0-.6-.2-1.9-.7-1.9-1.4l.5-.3Z"/>
  <path class="st26" d="M79.3,160.9c.7,0,1.3.4,1.5,1.1-.1.7-.5,1-1,1.5-.2.3-.2.3-.4.6-.7-.4-.4-2.5-.1-3.2Z"/>
  <path class="st26" d="M19.4,97.1c.4.4.5.8.6,1.3-.3.9-1,1.2-1.8,1.6h-.3c0,0-.1-.1-.1-.1.1-1.1.8-2.1,1.7-2.8Z"/>
  <path class="st26" d="M36.6,141.6c.6.1,1,.3,1.3.7,0,.6-.5,1.4-.9,2l-.2.4c-.8-.6-.7-2.3-.2-3.1Z"/>
  <path class="st26" d="M23.9,103.7c.7.2,1.2.5,1.8.8-.5.8-.6,1.2-.7,2.2v.3c0,0-.3,0-.3,0-.8-.9-.9-2.1-.9-3.2Z"/>
  <path class="st26" d="M32.4,134.9h.3c.3.7.4,1.2.2,1.9-.3.3-1.3.5-1.8.7h-.3c0,0,0-.2,0-.2.3-1,.9-1.6,1.6-2.3Z"/>
  <path class="st26" d="M73,157.3c.5.1.6.3.8.7.2,1.2-.4,1.2-1.3,1.4-.4.2-.4.2-.8.2v-.2c0-.8.7-1.5,1.3-2Z"/>
  <path class="st5" d="M20.6,49.4c.7.5.6,1.2.3,1.9-.5.4-1,.1-1.7,0h-.3s-.2-.1-.2-.1c.3-.8,1.2-1.4,1.8-1.8Z"/>
  <path class="st5" d="M31.5,39.3c1.1.5,1.6,1.4,2,2.4-.6,0-1.3,0-1.9-.1,0-.8,0-1.5-.1-2.3Z"/>
  <path class="st5" d="M25.8,60.7c.6,0,1.1.8.9,1.5-.5.3-.5.2-1.1.1-.8-.3-1-.5-1.6-1,.7-.2,1.1-.4,1.8-.6Z"/>
  <path class="st26" d="M90.2,156.8c.7,0,.9-.1,1.4.3.3.7,0,1.6-.2,2.4h-.2c-.4-.8-1-1.8-1-2.6Z"/>
  <path class="st26" d="M73.1,150.8h.4c.1.2.2.2.2.5-.2,1.2-.7,1.1-1.5,1.1-.4,0-.5,0-.9,0v-.2c.2-.6,1.2-1.1,1.8-1.3Z"/>
  <path class="st5" d="M21.1,89.6c.4,0,.6,0,.9,0,.2.7-.5,1.3-1,1.4-.6-.2-1.1-.5-1.7-.7.7-.4,1.1-.5,1.8-.8Z"/>
  <path class="st5" d="M34.7,128.3c.6,0,1.1-.2,1.5.3,0,.5-.5.9-.8,1.3-.6-.5-1.2-.6-1.6-1.2.3-.4.3-.3.9-.4Z"/>
  <path class="st26" d="M47.3,142.5c.6,0,1-.1,1.4.3,0,.5-.5,1-.8,1.4l-.6.4h-.2c-.2-.5,0-1.6.2-2.2Z"/>
  <path class="st26" d="M34.9,102.4c.6,0,1.1-.1,1.5.2,0,.4-.3.8-.5,1.1-.3.3-.7.6-1.1.9,0-.7,0-1.5,0-2.2Z"/>
  <path class="st2" d="M71.2,134.7c.6,1.5.6,1.7.7,3.3,0,1.5-1.3,3.2-.5,4,.9.2,1.6-.2,2.4-.5,0,0,.8-.8,1-1,.9-1,1.3-1.7,1.9-2.9h.1c2.2,1.6,4.5,2.4,6.3,3.4,1.6.9,0,9.2-3,9.1-2.7-.1-2.7-2.3-5.4-1.3-3.3,1.1-5.7,1.5-6,5.8,1.2-.3,2.5-.8,3.6-.5.1,0,.4.2.3.4-.5,2.2-4.5,5.4-2.2,8,.3.1.3.2.7.1.4-.7.8-1,1.4-1.5,1.2-1.2,1.9.2,3.2.4.5,0,1.1-.2,1.6,0,.4,1.5,0,4,1.9,5,.4.2.7.4,1.1.3.3-.1.3-.2.5-.4.5.7.5.3,1,.8,2.7,1.4,5.4,2.9,8.1,4.1,4.6,2.1,9.4,3.4,14.4,4.2.8.1,4.6.7,5.4.6l.2-.2c-.4-.6-6.2-.5-7.4-1.6.1-.1.3-.2.4-.4-.7-.4-3.1-.5-3.9-.7-.4,0-.6-.9-1.6-1.1-1.6-.4-4.7-1.1-6.1-1.8.5-.3,1.5-.2,2.1,0,1.5.8,3.1.9,4.8,1.4.3,0,.6-.5,1.4,0v.4s.2,0,.2,0c2.6,0,4.4,1.3,6.8,1.3.2,0,1.3-.8,1.6-1,1.9.4,4.5.1,6.5-.1,0-.6,0-.7.2-1.1,0,3.2,0,6.4,0,9.7,0,1,0,3.9.1,4.7v.2s0,.7,0,.7v.4c0,1.7,0,3.4,0,5.1v.2c-1.5.4-4.2,0-5.9,0-11.4-.7-22.5-4-32.4-9.7-.6,0-.4,0-.7.3,0,.4,0,.5.1.9-.5,0-1.8-1-2.7-1.1,0,.6.8.9,1.1,1.5.4.3,1.8,1,1.9,1.2h-.2c0,.1.2.3.2.3v.2c-2.2-.8-4.9-2.7-7-4-.6-.6-4.2-3.1-5-3.6l1.4,1.4c-.4.5-3,.1-3.5-.2-.7,1-1.5-.3-2.5,1-.7-.2-1.2-.9-1.8-.9h-.1c.3.5.7.8.8,1.2-.2,0-.6,0-.7.2.2.6,2.2,1.8,2.6,2.6-.3,0-3.7-2.3-4.4-2.6.5.6,2,2,2.2,2.4-.6,0-2.1-1-2.7-1.3.2.3.6.8.9,1.3,0,.4-.7.6-1.1.7-1.1-.3-1.3-1.8-2.2-1.5.6,1,1.4.9,1.3,2-.3.3-.4.3-.8.5v.5c.1,0,0,.1,0,.1-.5-.3-.4-.4-.9-.4-.2.2-.5.3-.7.5-2.2-.7-2.4-2.3-5-2.9-1.4-.9-6.7-7.8-8.3-9.4-.9-1.3-2.2-2.8-3.1-4-2.5-3.4-5.3-7.2-7.3-10.9h.1c0-.1,0-.3,0-.3.4-.3.9-.3,1.3-.5-.2-.5-.2-.5-.3-1l.2-.2c.8.1,1.8,3.3,2.7,3.8-.2-1.4-4.6-6.4-3.8-8.2.8.9,2.2,5.4,3.5,5.5v-.2c-1.2-2.6-3.6-6.2-4.5-8.4h.1c.3.5,1,1.8,1.6,2.2l.3-.2h.2c.4,1,.6,1,1.5,1.2.3.1,1.3,1.6,1.5,1.9.7,1.2,2.1,1.1,2.4,1.4.1-1-1.1-1.8-.8-2.6,1.8-1,2.9.4,3.8,1.8h.1c-.3-.6-.6-1,0-1.5.1,0,1-.3.9-.3.8,0,2.2-.8,2.9-.8,2.3,0,4.6.2,6.8,0,1.2,0,2.3-2.2,3.7-3,2.2-1.2,4.5-1.6,6.5-3.2.9-.8,1.6-2,2.3-3,1.1-1.5,1.7-.6,2.6-1.1,1.6-.9,3.1-2.5,4.6-3.6.9-.6,2.5-.8,2.8-1.7-.3-.7-.3-.9-.3-1.6Z"/>
  <path class="st0" d="M82,167.3c2.7,1.4,5.4,2.9,8.1,4.1,4.6,2.1,9.4,3.4,14.4,4.2.8.1,4.6.7,5.4.6l.2-.2c-.4-.6-6.2-.5-7.4-1.6.1-.1.3-.2.4-.4-.7-.4-3.1-.5-3.9-.7-.4,0-.6-.9-1.6-1.1-1.6-.4-4.7-1.1-6.1-1.8.5-.3,1.5-.2,2.1,0,1.5.8,3.1.9,4.8,1.4.3,0,.6-.5,1.4,0v.4s.2,0,.2,0c2.6,0,4.4,1.3,6.8,1.3.2,0,1.3-.8,1.6-1,1.9.4,4.5.1,6.5-.1,0-.6,0-.7.2-1.1,0,3.2,0,6.4,0,9.7,0,1,0,3.9.1,4.7v.2s0,.7,0,.7v.4c0,1.7,0,3.4,0,5.1v.2c-1.5.4-4.2,0-5.9,0-11.4-.7-22.5-4-32.4-9.7h0c0,0,0-.4,0-.4-.5-.6-1.3-.6-1.9-1.2.2-.4.2-.3.1-.7-.5-.6-.6-.4-1.1-.8.3-.3.5-.4.8-.6.6.9,4.5,2.7,5.6,2.9.5,0,.5,0,.9-.2-1.2-1.2-4.4-1.9-5.6-2.6-.2-.7-.3-1.3-1.2-1.3-.8,0-2.1-1.1-2-1.9.9,0,5.2,3.4,6.3,3.4v-.3c-.9-.8-2-1.4-3-1.9h0c1.2.1,2.3,1.7,3.4,1.3-.5-.9-3.7-2-4.4-3.1-.1-.2-1.2-1.1-1.4-1.4,1.8,1.3,13.8,8.3,15.7,7.5-.3-.1-.4-.2-.7-.4.2-.1,0,0,.2-.2-1.8,0-13-5.2-12.7-7.2.9-.1,4.4,2.9,5.3,2.8v-.2c-.8-.5-1.5-1-2.1-1.8v-.2c1.2-.6,3,.5,4,1.2v.3c-.8-.1-.8-.2-1.5-.1v.2c.6.7,2.6.7,3-.4-.5-.2-1.4-.4-1.8-.6-.8-.4-1.2-.8-2.1-1.1v-.2c.9-.2,2,.9,2.4-.4-.8-.4-2.7-1.3-3.3-1.9h0c1.3.2,3.7,1.8,4.9,1.8-.6-1-2.6-1.1-3.4-2.1v-.2c.9,0,3.2,1.9,4.1,1.7-.3-.5-3.3-1.5-3.8-2.6h0c1.1.2,1.9,1.1,3,1.5.2-.4.1-.4.1-.8-.4-.6-.9-.4-1.4-.8v-.3c-.3-.5-.9-.8-1.4-1.1-.2-.4-.2-.2,0-.6Z"/>
  <path class="st28" d="M77,182.3v-.3c-.5-.6-1.3-.6-1.9-1.2.2-.4.2-.3.1-.7-.5-.6-.6-.4-1.1-.8.3-.3.5-.4.8-.6.6.9,4.5,2.7,5.6,2.9.5,0,.5,0,.9-.2,1.2.1,6.6,3.1,8.1,3.7,2.9,1.2,4.4,1.4,7.3,2.1,3.7.9,8.7,2.1,12.5,2.2.9,0,5.1.3,5.6.5v1.7c-.6.2-2.5-.3-3.3-.1-1.6.3-5.2-.7-6.5-.4,1.2.5,6.4.5,7.9.6.6,0,1.5,0,2.1.2v.2c-1.5.4-4.2,0-5.9,0-11.4-.7-22.5-4-32.4-9.7h0Z"/>
  <path class="st6" d="M81.5,181.5c1.2.1,6.6,3.1,8.1,3.7,2.9,1.2,4.4,1.4,7.3,2.1,3.7.9,8.7,2.1,12.5,2.2-4.7,1.6-24.7-4.4-28.8-7.8.5,0,.5,0,.9-.2Z"/>
  <path class="st28" d="M115.3,185.7c-.8.1-2.2,0-3-.2,1.2-.1,1.8-.3,3,0v.2Z"/>
  <path class="st28" d="M115.3,186.9c-1.2.1-1.3-.3-2.8-.5h-.2c.2,0,2.5,0,3,0v.4Z"/>
  <path class="st28" d="M103.7,184.4c.7,0,3.8.4,4.1.8h-.3c-1.4-.1-2.9-.3-4.3-.6l.4-.2Z"/>
  <path class="st6" d="M74.8,184h-.4c-2.1-.9-4-2.5-5.9-3.8-.7-.5-4.8-3.1-4.8-3.6h.2l.6.4c1,.6,2,.6,2.7,1.1,1.9,1.2,3.9,2.7,5.8,3.8h.1c-1.2-1.6-2.5-1.8-3.7-3,.9-.2,4.7,1.9,5.6,2.6.9.6,1,.5,1.9.8h0c-.6.2-.4,0-.7.4,0,.4,0,.5.1.9-.5,0-1.8-1-2.7-1.1,0,.6.8.9,1.1,1.5Z"/>
  <path class="st10" d="M76.8,137.5c.4,1.4-1.6,3.3-2.7,4h-.2c0-.2.8-.9,1-1.1.9-1,1.3-1.7,1.9-2.9Z"/>
  <path class="st22" d="M71.2,162.6c.4-.7.8-1,1.4-1.5,0,.6-.8,1.7-1.4,1.5Z"/>
  <path class="st6" d="M64,175c.9.3.7.2.9,1.1-.2,0-.5-.2-.7-.3-.3-.5-.3-.2-.2-.8Z"/>
  <path class="st6" d="M50.9,182.4c.5,0,.6.1.8.6-.4.1-.6-.3-.8-.6Z"/>
  <path class="st17" d="M56.2,180.9c.7.4,4.1,2.6,4.4,2.6-.4-.9-2.4-2-2.6-2.6.1-.1.5-.1.7-.2,0-.4-.5-.8-.8-1.1h.1c.6,0,1.1.6,1.8.8,1-1.2,1.8,0,2.5-1,.6.3,3.1.7,3.5.2l-1.4-1.4c.8.5,4.4,3,5,3.6,2.1,1.2,4.7,3.1,6.9,4v-.2c.1,0,0-.2,0-.2h.2c0-.3-1.4-1-1.9-1.3-.3-.6-1.1-1-1.1-1.5.9,0,2.2,1.1,2.7,1.1-.1-.4-.1-.5-.1-.9.3-.4.1-.2.7-.3,9.9,5.6,21,8.9,32.4,9.7,1.7.1,4.4.5,5.9,0v1.7s0,.4,0,.4c-.1,1.1,0,3.3,0,4.6,0,3,0,5.9,0,8.9,0,7.2,0,14.3,0,21.5-.7-.3-1.4-.6-2.1-.9-4.2-1.8-8.5-3.7-12.5-5.7-12.9-6.6-25.1-14.5-36.3-23.7-3.9-3.2-8.8-7.4-12.2-11.1-.8-.6-4.2-4.2-4.9-5,2.6.6,2.8,2.2,5,2.9.2-.2.5-.3.7-.5.5,0,.4,0,.9.4h.2c0-.1-.1-.6-.1-.6.4-.2.5-.2.8-.5,0-1-.7-1-1.3-2,1-.3,1.1,1.2,2.2,1.5.4,0,1-.3,1.1-.7-.3-.5-.7-1-.9-1.3.5.4,2.1,1.4,2.7,1.3-.2-.4-1.7-1.7-2.2-2.4Z"/>
  <path class="st6" d="M56.2,180.9c.7.4,4.1,2.6,4.4,2.6-.4-.9-2.4-2-2.6-2.6.1-.1.5-.1.7-.2,0-.4-.5-.8-.8-1.1h.1c.6,0,1.1.6,1.8.8,1-1.2,1.8,0,2.5-1,.6.3,3.1.7,3.5.2l-1.4-1.4c.8.5,4.4,3,5,3.6v.4c1.3,1.6,7.6,3.9,7.6,4.9-.8,0-3.6-2.2-4.7-2.1-.8,1.1,1.1,2.1,1.8,2.9-2.5-1.4-4.3-2.4-7.3-2.7.8.7,2.3,1.7,2.8,2.4h-.2c-1.9-1.1-4.1-2.7-5.9-3.7-.5-.3-1.3-.7-1.8-1h-.3c0,0-.1.3-.1.3,1.1,1.5,4,1.8,4.5,4.5-.9-.5-4-2.7-4.5-2.7.3,1.2,5.7,3.8,6.7,4.9,0,0,0,.2-.1.2-1.1,0-5.7-3.7-7.2-4.5.4.6.7.9,1.2,1.4-.4,0-.6-.3-1.2-.2-.1,0-.3,0-.5,0l-.3.3h-.2c0,0-.2-.2-.2-.2-.4-.2-.5-.2-1-.2,0,.5.9,1.2,1.3,1.5-.2.7-.5.2-.7,1,.1.2.6.5.5.7-1,5-5.7-1.8-7.9-2.2-.8-.6-4.2-4.2-4.9-5,2.6.6,2.8,2.2,5,2.9.2-.2.5-.3.7-.5.5,0,.4,0,.9.4h.2c0-.1-.1-.6-.1-.6.4-.2.5-.2.8-.5,0-1-.7-1-1.3-2,1-.3,1.1,1.2,2.2,1.5.4,0,1-.3,1.1-.7-.3-.5-.7-1-.9-1.3.5.4,2.1,1.4,2.7,1.3-.2-.4-1.7-1.7-2.2-2.4Z"/>
  <path class="st6" d="M76.5,185.7v-.2c.1,0,0-.2,0-.2h.2c.6.2,4.8,2.2,4.9,2.5-1.3-.2-3.8-1.5-5.1-2.1Z"/>
  <path class="st28" d="M115.3,194.2c-2.1-.1-4,0-6.1-.3,1.6-.2,4.3,0,6.1,0v.4Z"/>
  <path class="st6" d="M69.9,187.6c.7.1,2.9,1.3,3.3,2-.5-.2-3.1-1.6-3.3-2Z"/>
  <path class="st28" d="M76.8,188.9c2.1-.2,5.3,2.5,7.6,3h0c-2.6-.4-5.2-1.6-7.6-2.8v-.2Z"/>
  <path class="st6" d="M60.4,193.9c.4.2,1.3,1.1,1.7,1.5.9.8,3.1,1.9,3.5,2.8-1.6-.9-3.7-1.9-5-3.2-.4-.4-.3-.6-.3-1Z"/>
  <path class="st6" d="M60.4,192.4c1.2,1.2,4.1,2.2,4.4,3.2-1.1-.7-4.2-1.7-4.5-2.8l.2-.3Z"/>
  <path class="st6" d="M96.9,191c1.2.2,2.5.4,3.7.6v.2c-.6.3-2.9-.3-3.7-.5v-.3Z"/>
  <path class="st6" d="M73.8,189.6c.9.2,2,.5,2.4,1.4-.7-.3-2.3-.7-2.4-1.4Z"/>
  <path class="st11" d="M10.4,1.7c5.2.1,10.7,0,15.9,0h28.8c4.6,0,10.1-.1,14.7,0-1.7.4-4,0-5.8.2-.9.1-1.9.6-2.8.7-3.8.4-7.6.8-11.4,1.2-2.4.3-4.9,0-7.4.3-1.9.3-3.7.7-5.7,1.2-1.5.3-2.6,1.6-4,2.2-.7.3-2.3.3-2.8.7-2.5,1.7-3.4,5.2-4.7,7.8-.7,1.3-1.7,2.2-2.2,3.6-.6,2.4,0,3.9-1.7,6.2-1.9,2.5-4.3,3.1-5.8,6.1-1,2.1-1.1,3.8-1.7,5.9,0,.1-.9,1.1-1,1.3.2.3.3.4.6.6.3,1.4.3,1.9.3,3.3,0,1.6-.3,1.6-.4,2.8-.5,3.7-1.2,7.4-1.6,11.1-.1,1.6-.9,2.9-.6,4.2.3,1.4-.1,2.7-.1,4.1,0,1.4-.4,2.9-.4,4.3-.2,3.9-.3,7.8-1.1,11.6-.2.8-.5,1.7-.6,2.6,0,2.4-.3,5-.1,7.3,0,1.2.7,1.8.8,3.4,0,1.8-.4,3.3-.3,5.1,0,1.4.6,3.3.3,4.7-1-6.8-.9-14.4-.9-21.3,0-8.8.1-17.8,0-26.6.2-6.1,0-13,0-19.1V1.7s1.9,0,1.9,0Z"/>
  <path class="st25" d="M6.9.1h97.8c0-.1.2,0,.2,0,1.6.2,9.6-.1,10.4.1-.8.2-4,.1-5,.1h-9.5s-35,0-35,0v.2c1.4,0,3.4-.2,4.3.7,0,0,.3.2.3.2,2.9,0,6.4,0,9.3,0h23.1c3.5,0,9.2-.2,12.5.1.2.8,0,5.7,0,6.9v12.8s0,32.7,0,32.7c0,5.5.2,11.8,0,17.3,0-2.2,0-20.6-.2-20.9,0-3.1,0-6.6,0-9.8v-18.8s0-11.9,0-11.9c0-2.5,0-5.5.1-8h-31.2c-4.5,0-9.8,0-14.2,0-4.6-.2-10.1,0-14.7,0h-28.8c-5.2,0-10.7.1-15.9,0h-1.9s0,35.7,0,35.7c0,6.1.2,13,0,19.1.1,8.8,0,17.8,0,26.6,0,6.8-.1,14.5.9,21.3,0,1.3.6,4.9.8,6.2,1.6,10.1,4.5,20,8.6,29.4.4,1,1.6,3.8,2.2,4.7.3,1.5,6.3,12.3,7.4,13.7,2.1,3.7,4.8,7.4,7.3,10.9.9,1.3,2.3,2.8,3.1,4-1-.3-6.5-8.3-7.4-9.6-11.1-16.1-18.5-34.4-21.7-53.7-.5-3.3-.9-6.7-1.2-10-.1-1.3-.1-2.8-.2-4.1,0-.2-.9-3-1-3.2h-.2c-.4.7.2,5.4,0,6.8-.4-2.5-.3-8.5-.3-11.1v-17.9s0-70.5,0-70.5Z"/>
  <path class="st28" d="M8.5,56.5c-.2-1.1-.1-8.5-.1-10.1l-.2-25.1c0-4.4-.6-8.8-.4-13.2,0-1.8-.3-3.8,0-5.6.2-1.2,1.9-.9,2.7-.7h-1.9s0,35.7,0,35.7c0,6.1.2,13,0,19.1Z"/>
  <path class="st12" d="M187,1.7h15.1c3,0,6.5,0,9.5,0,1.6,0,6.8.1,8.2,0h.2c1.2,0,2.4,0,3.6.1-.3,2.7-.1,4.2-.1,6.9,0,3.3,0,6.6.1,9.9.1,6.5,0,13.2,0,19.7v36.7c0,9,.3,18.5-.6,27.4-.7,7.3-2,14.6-3.9,21.7-12.8,46.6-52.7,83.1-95.8,102.4-2.1.9-4.2,1.7-6.3,2.6,0-6.3,0-12.6,0-18.9v-43.3s0-21.7,0-21.7c0-2.4-.2-8.4,0-10.6-.1-4-.1-10.2,0-14.2v-41.9c0,0,0-15.1,0-15.1,0-2.6,0-6,0-8.5,0-1,0-1.9,0-2.9-.1-1.3,0-3.7,0-5v-9s0-32.5,0-32.5V1.7c6.3,0,12.9-.1,19.2,0,15.3-.4,30.9.3,46.2,0h1s3.7,0,3.7,0Z"/>
  <path class="st19" d="M136,1.7c15.3-.4,30.9.3,46.2,0,0,.6,0,.7-.3,1.1h-.3c.3-.3.4-.3.6-.6-.4-.3-.9-.4-1.4-.4-1.1,0-1.3,1.6-1.3,2.4-.2,9.7.5,19.4,0,29.1,0,1.3,0,2.7,0,4,0,.2-.5.4-.8.5h0c-1.3.6-2.3,1-3.3,2-4.7,4.5-2.9,12.4,3,14.9,1.4.6,2.4.8,3.9,1,.3-.2.2,0,.3-.4h.2c.2.5,0,.4,0,1,.1,1.4-1.2,2.2-1.8,3.3-.2.4-.1,2.1-.4,2.8v-.3c-.5.4-.5.7-.7,1.1,0,.3,0,.4,0,.6-.6.3-.5-.5-1.4.8-.1.2,0,.1-.3.3h0c0-.8.1-2.7-.2-3.3h-.2c-.5.4-.5.4-.9.9-.3-.3-.4-.5-.7-.9h-.2c-.1.4-.2.8-.3,1.1h-.1c-.2-1-.3-1.9-.3-2.9l-.2.2c-.2-.1-.2,0-.3-.2-.3.6,0,4.4-.3,5.3,0-.9-.3-1.6-.4-2.5-.1-1,.1-3.1-.2-4-.1,1-.2,7.1,0,7.8h0c-.5-.2-.3-.2-.7-.1-.4.8,0,1.3-.5,1.9-.7.1-1.7-1-1.7-1.7,0-1.1.2-2.8-.2-3.8-.2,1.3,0,2.7-.2,3.8h-.2c0,0-.3,0-.3,0-.5.8,0,5.7-.6,6.8,0,0-.1.4-.1.5v-1.4c.2-1.5,0-3.2,0-4.7-.3.6,0,1.6-.6,2.4-.6-.3-.4-.9-.8-.8-.4,1.6,0,5.2-.2,6.1-.2-.3-.3-.6-.4-1v-.8s-.3,0-.3,0c0,1.1,0,2.1,0,3.2-.8-2.5-.2-10.2-.7-12.9-.3,2.5-.2,8.7-.1,11.2-.3-.6-.3-1.7-.3-2.3,0-1.9-.1-3.8-.5-5.7v4.1c0,4.2,0,10.7-.2,15-.3-.4-.3-.6-.5-1-.7-1.3.6-5.8-.5-6.7l-.2.2c-.5-.1-.5-.1-.9-.4,0,1.1-.3,2.4-.3,3.4,0,1.7.3,4.1.1,5.8-.2,1.9.6,10.8,0,12.1h-.2c0,.1-.2,0-.2,0-.4-1.2-.1-9.5-.3-9.7,0,2.8,0,5.6,0,8.4,0,.9-.3,1.8-.1,2.1l.9.5v.3c1,.7,2.1,1.2,2.7,2.2.3.5.6,1.3.8,1.6,0,.6,0,1.4,0,2-.4,1.5-.7,1.8-1.6,3.1.6,3.6-.4,5.9-3.9,7.3-.5,1.9-1.2,3.4-3,4.4-.7.4-1.5.7-2.3.7v.3c-.3.3-.4.5-.8.6-.3,0-.5,0-.8-.2h-.1c-.9,1-3,3-4.6,2.2-1.7-.3-2.8.3-4.5-1.2-.3,1.5-2.3.8-2.1,2.2.3.2.3.2.6.5-.4.7-.7,1.3-1,2.1.3-.1.5-.2.8-.3h.2c.2.6.1,2.6,0,3-.9.3-2,2.3-2.8,3-.4.3-1.2.8-1.7,1v.3c1.2,0,2.7-2.3,3.9-2.3v.2c-.6,1.4-3.3,3.6-4.6,4.2v.3c.6.3,1.9-1.4,2.9-1.7,0,.4,0,.2.2.6h.3c0-.1.2.3.2.3-.6,2.1-11,7-13.6,7.1h0c.8-.2,4.1-2.3,4.3-3.3l-.2-.2c-.9.1-2.9.9-4.1,1.1h0c1.3-.8,2.5-1.1,3.7-1.8v-.3c-.1-.1-.2-.2-.3-.4-1.2.2-4.9,2.1-6,2v-.2c.6-.6,1.5-.4,2.1-.9.3-.4,1.7-.4,2-.7,1.1-.9,3.2-1.9,4.2-2.7-.8-.6-6.5,3.8-7.6,1.6-.5-1.1-1.9.3-2.7-.5.3-.6.9-.3,1.1-.8-.2-.3-.3-.4-.6-.6.5-.4.9-.5,1.1-1h.1c-.8-.1-1.3.4-2.4.3.3-.2,1.8-.6,2.3-.8v-.2c0,0-.1-.2-.1-.2-.8,0-1.4.2-2.3.4.3,0-.8,0-.7,0,0-.7,1.6-.4,2.1-1.6-.4-.2-2.1.3-2.7.5.2-.5.7-.4,1-1-.4-.3-.9-.2-1.3,0h0c.9-.4,1.9-.7,2.6-1.2l-.2-.3h0c-.9,0-1.4,0-2.3,0,.9,0,1.1-.2,1.9-.6h-.1c-.4,0-.2,0-.6,0l-.2-.4c-.3,0-.5.1-.8.2.4-.3.5-.3,1-.4h.2s.1-.3.1-.3l.4-.2c-.9-.4-3,.5-3.7.3.8-.5,1.8-.1,2.5-.8v-.2c-.9,0-1.8,0-2-.8.9-.5,1.3-.3,2.1-.7v-.4c0,0,.6,0,.6,0h0c-1.3-.2-3.4,0-4.7.4-.7.3-.9.8-1.2,1.5-.6-1.9.5-7.9-.2-9.7v-41.9c0,0,0-15.1,0-15.1,0-2.6,0-6,0-8.5,0-1,0-1.9,0-2.9-.1-1.3,0-3.7,0-5v-9s0-32.5,0-32.5V1.7c6.3,0,12.9-.1,19.2,0Z"/>
  <path class="st23" d="M140.5,86.9c3.1-4.3,6.4-4.5,9.6,0,2.5,0,5,0,7.4,0,1.6,0,2.2,0,2.9,1.4h0c-1,1.7-4.2,6-4.7,7.1.2,1.3,6.4,5.5,7.8,6.3.9.7,2,1.2,2.7,2.2.3.5.6,1.3.8,1.6,0,.6,0,1.4,0,2-.4,1.5-.7,1.8-1.6,3.1.6,3.6-.4,5.9-3.9,7.3-.5,1.9-1.2,3.4-3,4.4-.7.4-1.5.7-2.3.7v.3c-.3.3-.4.5-.8.6-.3,0-.5,0-.8-.2h-.1c-.9,1-3,3-4.6,2.2-1.7-.3-2.8.3-4.5-1.2-.5.1-.9.4-1.4.6-2.1.8-4.6.9-6.4-.7-.6-.6-1-1.1-1.5-1.7-3.9.3-6.1-1.2-7.1-4.9-3.6-1.5-4.6-3.6-4-7.3-4.5-4.8.5-8.4,4.3-10.6,1.3-.7,4.6-3.5,5.4-4.6-6.6-9.6-7.4-8.7,5.6-8.4Z"/>
  <path class="st10" d="M154.5,122.9c0,.4.1.2,0,.6-.9,1-3,3.1-4.6,2.3,2.3-.4,3.1-1.2,4.5-2.9Z"/>
  <path class="st4" d="M154.5,122.9h0c0-.1,1.7,0,1.7,0v.3c-.3.3-.4.5-.8.6-.3,0-.5,0-.8-.2h-.1c.1-.4,0-.2,0-.7Z"/>
  <path class="st27" d="M144.9,85.3c.7-.1,1.4,0,2,.5,2,1.4,3.3,5.5,4.9,7.4,2.5,3.1,5.1,6.1,8.5,8.2,2.4,1.5,7.4,3.9,4.5,7.4-.1.2-.3.3-.5.5-2.8-1.7-5.7-4.9-7.8-7.3-.9-1-2.1-2.5-3.1-3.2,1.4,3.3,4.7,6.8,7.3,9.3,1.5,1.5,4.3,2.9,3.2,5.5-.5,1.2-1.4,1.9-2.5,2.3-.2,0-.3.1-.5.2-2.9-4.1-5.2-8-7.6-12.4-.4-.7-1.4-3.2-2-3.5-.3.7.4,2.1.7,2.8,1.3,3.2,3,6.3,4.7,9.3,1,1.6,2.3,3.2,3,4.9.2.5,0,1-.1,1.4-.4.9-1.3,2-2.3,2.3-.7.2-1.8.4-2.4.1-1-.5-4.1-12.4-4.6-14.2-.4-1.6-.8-4.1-1.7-5.3-.9,1.5,3.7,17.3,4.6,20.1-1.5,2.9-4.6,3.5-7,1.3,0-4.2,0-8.4-.2-12.7,0-2.7-.1-6.5-.6-9.1-1,5.5-.5,15.8-.6,21.7-1.1,1-2.1,1.4-3.5,1.3-1.2,0-2.2-.6-3-1.5-.2-.2-.3-.3-.4-.5-.2-1,1.4-5.9,1.8-7.2,1-3.5,1.8-7.1,2.4-10.7.1-1,.3-2.3.3-3.3v.2c-1.4,2.9-5.1,19-6.3,20.1-2.2.7-4.5-1.1-5.1-3.2,0-1.2,2.1-4.1,2.8-5.2,1.3-2.2,2.6-4.5,3.7-6.8.7-1.7,1.9-4.3,2.2-6.1-1.2,1.5-2,3.4-3,5-2,3.4-4.6,8.5-7,11.5-1.8-.8-3.6-2.1-3.1-4.3.3-1.8,2.1-2.4,3.3-3.6,2.4-2.3,4.4-4.7,6.3-7.4.4-.7.8-1.4,1.2-2-1.9,1.3-2.5,2.3-4,3.9-1.8,2-4.8,5.2-7.1,6.5-.8-1.1-1.5-2.1-1.1-3.6.5-2,4-3.5,5.7-4.7,2.5-1.7,4.2-3.4,6.2-5.5l.8-.9c1.1-1.5,2-2.8,2.9-4.4,1.1-1.9,1.9-4.3,4.2-4.8Z"/>
  <path class="st16" d="M137.1,95.5l.2.7c0,.5-.8,1.7-1.2,2.1-.8.8-2.5,1.2-3.3,1.9-.6.5-.4,1.7-1.5,2-.9.2-1.7,0-2.5.7-.8.7-.5,1.6-1.5,2.3-.4.3-1.1.8-1.6,1.1-.3.2.3.5-.4.4,0-.4,0-.5-.2-.9.5-2,4-3.5,5.7-4.7,2.5-1.7,4.2-3.4,6.2-5.5Z"/>
  <path class="st22" d="M137.8,94.6c1.1-1.5,2-2.8,2.9-4.4,1.1-1.9,1.9-4.3,4.2-4.8-.4.8-1.1.7-1.4,1.3-.5.9-.7,2.3-1.3,3.2-.4.6-1.3,1.1-1.8,1.7-.8,1.1-1.5,2.3-2.3,3.4l-.3-.4Z"/>
  <path class="st10" d="M142,104.2c.6,1.3-3.4,16.8-4.2,17.9-.2-1,1.4-5.9,1.8-7.2,1-3.5,1.8-7.1,2.4-10.7Z"/>
  <path class="st10" d="M136.2,101h.2c-.3,1.4-4.6,6.1-5.8,7.2-1.2,1.2-2.6,2.1-3.8,3.6h0c0,.1-.2.2-.2.2.3-1.8,2.1-2.4,3.3-3.6,2.4-2.3,4.4-4.7,6.3-7.4Z"/>
  <path class="st10" d="M137.5,105.9c.3,1.1-6,11.9-6.5,12.1,0-1.2,2.1-4.1,2.8-5.2,1.3-2.2,2.6-4.5,3.7-6.8Z"/>
  <path class="st10" d="M137.8,94.6l.3.4c-.3.4-.6.9-.8,1.2l-.2-.7.8-.9Z"/>
  <path class="st22" d="M132,88.6c2.2-.2,5.6,0,7.9,0h0c-.6,1.3-1.3,2.4-2,3.5-.5.7-1.1,1.4-1.6,2.1-1.4-1.9-2.6-3.8-4.1-5.6Z"/>
  <path class="st13" d="M150.9,88.5c2.6,0,5.1,0,7.7,0-.5.8-1.6,2.2-2.3,3.1l-1.8,2.5c-1.4-1.8-2.5-3.6-3.7-5.6Z"/>
  <path class="st6" d="M150.1,86.8c1.5-.7,2.4,0,2.9-.5,0-.3,0-.5.2-.8.7-.2,2.4.7,2.6,0,.5-1.5-.5-9.2.1-10,0,.4,0,.8.1,1.2.9,2.3.2,5.3.6,7.7.4-1.7-.3-6.3.6-8.2,0,0,0-.2,0-.3.3,1.2.2,5.5.2,7,.8-.4,0-2.9.3-3.9.3-.2.4-.3.7-.5,0-.2.2-.6,0-.9-.2-.8.4-1.2.4-1.3.4-2.2.2-5,.5-7.3.1-.8.1-.9.2-1.5.4,1.1,0,8.8.5,9.6,0-1.2,0-4.8.3-5.8h.1c.4,1.7,0,5.1.4,6.8h.2c0-1.1,0-5.4.4-6h.2c0,2.9.1,5.4.2,8.1h.1c.5-1-.2-8.5.2-10.1h.2c.2.7.1,1.9.2,2.8.2,2.7,0,6.5.2,9.1h0c.4-1.7,0-9.8.3-10.5.2.3.1.4.2.7.3,0,.5-.6.8-.9.2.3,0,1.1.3,1.8h.2c0,0,.2-.8.2-.8.4-.3.5-.4.9-.8,0-.4,0-.5,0-.9.1,3.8.3,11.3,0,14.8-.7-1.3.6-5.8-.5-6.7l-.2.2c-.5-.1-.5-.1-.9-.4,0,1.1-.3,2.4-.3,3.4,0,1.7.3,4.1.1,5.8-.2,1.9.6,10.8,0,12.1h-.2c0,.1-.2,0-.2,0-.4-1.2-.1-9.5-.3-9.7,0,2.8,0,5.6,0,8.4,0,.9-.3,1.8-.1,2.1l.9.5v.3c-1.4-.8-7.6-5-7.8-6.3.5-1.1,3.8-5.3,4.7-6.9h0c-.7-1.6-1.3-1.5-2.9-1.6-2.5,0-5,0-7.4,0Z"/>
  <path class="st11" d="M160.5,88.4h.1c-.1,1.1-4,6.7-4.8,6.9.5-1.1,3.8-5.3,4.7-6.9Z"/>
  <path class="st10" d="M116.9,51.8v-.2c.2-1.6,0-4.3,0-6v-10.3c0-1.3,0-3.6,0-4.9,0,1.5,0,3,0,4.5,0,.4,1.6,1.6,1.9,2,.4.4.4.7.6,1.3h.2c0-.4,0-.5,0-.9h.1c0,1.1,0,2,0,3,0,2.3.5,4.1,0,6.3-.4,1.7-1.3,3-1.6,4.6,0,.5-.1,1-.2,1.5-.2.7-1,1.6-1,2.3,0,1.5,0,2.9,0,4.4-.1,1.2,0,2.6,0,3.9,0-2.2,0-6.6-.1-8.5,0-1,0-1.9,0-2.9Z"/>
  <path class="st10" d="M116.9,1.7c6.3,0,12.9-.1,19.2,0-.6.5-8.6-.3-9.2.3-3.2,2.9-5.5-.9-8.4,1.8-.2.9-.4,1.2-1.3,1.6l-.2-.2V1.7Z"/>
  <path class="st6" d="M167.5,73.7c0-1.9,0-3.8,0-5.7,0-.9.2.5,0-.5v.3s0,0,0,0c.1,1.8.1,4,0,5.8h-.3Z"/>
  <path class="st23" d="M140.6,23c2.8-4.4,6.7-4.3,9.5,0,2.4,0,4.8,0,7.2,0,1.1,0,2.1-.1,2.9.7.2.5.2.6,0,1.1.2.7-.3,1.1-.6,1.6.1,1.2.3,7.8,0,8.8.4.3.6.5,1.1.8,2.3,1.6,4.8,2.7,6.1,5.1,0,.4.2,1.9.2,2.1.6,1.7-1.2,2.9-1.2,4.5,0,.2,0,.3-.2.4,0,.5,0,.4,0,.8,1.1,2.1-2,4.6-3.9,5.2-.4,1.4-1.6,4.3-3.4,4.5-.2-.1-.2,0-.2-.2-.9.3-1.2.4-2.1.4-.6,0-1.5,0-1.9.3l-.3.5c-.1.9-.7,1.4-1.6,1.7h-.3c-2.7.9-4.4.8-6.7-.8-3.4,2.5-6.6,1.5-9-1.7-3.7.5-6.1-1.3-7.1-4.9-3.4-1.4-4.9-3.7-4-7.3-5.1-5.5,1.6-8.8,5.5-11.4,1.5-1,3.1-2.5,4.3-3.8-1-1.6-4.5-5.6-4.7-7.1,0-.3,0-.6.2-.9,1-1,8.2-.5,10-.5Z"/>
  <path class="st22" d="M155.7,31.6c1-.5,3.2-4,4-5.2.1,1.2.3,7.8,0,8.8-1.7-1.2-2.6-2.1-4.1-3.6Z"/>
  <path class="st10" d="M165.7,48.8c1.1,2.1-2,4.6-3.9,5.2-.4,1.4-1.6,4.3-3.4,4.5-.2-.1-.2,0-.2-.2,2-1.4,2.6-2.2,3.2-4.6,2.5-.8,3.8-2.4,4.2-5Z"/>
  <path class="st11" d="M160.3,24.7c.2.7-.3,1.1-.6,1.6-.8,1.2-3,4.6-4,5.2,0-.5,4-5.9,4.7-6.8Z"/>
  <path class="st11" d="M167.2,43.1c.6,1.7-1.2,2.9-1.2,4.5,0,.2,0,.3-.2.4,0-.5-.2-1-.3-1.5,1.1-1.3,1.3-1.8,1.7-3.4Z"/>
  <path class="st10" d="M152,61.2c.9-.5,1.2-.8,1.9-1.5-.1.9-.7,1.4-1.6,1.7h-.3Z"/>
  <path class="st21" d="M133.6,35.1c2.4-2.3,4.2-4.1,6-6.9,1-1.6,2.2-4.6,3.4-5.8,2.5-2.5,5-.1,6.1,2.4,2.6,5.9,7.7,10.7,13.1,14,1.6,1,3.6,2.1,3.3,4.3,0,.6-.2,1.4-.7,1.8-.9.7-1.8-.4-2.5-1-1.5-1.3-3.1-2.7-4.4-4.3-1.4-1.5-2.8-3.5-4.5-4.7,1.4,3.4,4.6,6.6,7.2,9.2,1.6,1.6,4.4,2.9,3.2,5.6-.6,1.3-1.7,2-3,2.4-2.3-3.4-4.5-6.7-6.4-10.4-.5-.9-2.6-5-3-5.4h-.2c-.2,2.1,5.7,12.4,7.2,14.6,1.3,1.9,2.2,3.4-.1,5.4-4,2.7-4.4-1.1-5.1-3.5-.9-3.1-1.8-6.3-2.7-9.4-.4-1.6-1.4-5.5-2.1-6.8.2,4.7,1.9,10.5,3.1,15,.4,1.6,1.2,4.4,1.8,5.9-.6,1-1.3,2-2.5,2.3-1.5.4-3.6.3-4.4-1.2-.2-1.7,0-4.1-.1-5.9,0-3.5-.1-6.9-.3-10.4,0-1.6-.2-3.7-.5-5.3-.6,3.5-.5,6.9-.6,10.5v11.2c-3,2.8-7.4.3-7.1-1.2,1.5-6.6,4.3-13.9,4.6-20.8v.2c-.8,1.6-1.7,5.2-2.2,7-.8,2.8-1.6,5.7-2.4,8.5-.4,1.4-.8,2.9-1.3,4.2-.4,1-2.1.7-2.8.3-1.4-.9-1.9-1.4-2.6-2.9-.1-1.1.4-1.6,1.1-2.6.6-1.2,1.5-2.3,2.2-3.5,2.1-3.9,4.4-7.9,5.5-12.2-1.1,1.4-2.1,3.5-3,5.1-1.5,2.7-3.1,5.4-4.7,8.1-.3.5-2,3.3-2.5,3.2-1.9-.5-2.9-2.2-2.9-4.1.2-1.6,2.2-2.9,3.5-3.9,2.5-2.5,5.7-6.2,7.4-9.3-2.4,1.5-8.4,9.6-11.1,10.2-.3-.1-.5-.2-.6-.6-1.2-1.9-.6-3.6,1-4.9,1.5-.9,2.8-1.7,4.2-2.7l2.6-2Z"/>
  <path class="st10" d="M126.8,39.8c.5,2.9-1.6,2.1-1,4.9-1.2-1.9-.6-3.6,1-4.9Z"/>
  <path class="st10" d="M130.1,44.3v.2c-.2.4-.2.4-.4.8-.5,1.2-2.1,1.9-3.1,2.8.2-1.6,2.2-2.9,3.5-3.9Z"/>
  <path class="st10" d="M131,37.1l2.6-2v.2c-.2.9,0,1.1-.7,1.8-1.3.5-.9,0-1.9,0Z"/>
  <path class="st10" d="M132,51.7c.2.5.2.5-.1,1.1-.2.5-.6,1-1,1.5-.1-1.1.4-1.6,1.1-2.6Z"/>
  <path class="st10" d="M132.4,24.6c2.3,0,5.2,0,7.5,0-.7,1.3-1.4,2.4-2.2,3.6-.4.6-1,1.3-1.5,2-1.2-1.6-2.8-3.7-3.9-5.4v-.2Z"/>
  <path class="st22" d="M150.8,24.7c2.1-.1,5.4,0,7.7,0-.6,1-1.6,2.3-2.3,3.2-.6.8-1.1,1.6-1.7,2.4-1.1-1.2-2.7-4-3.6-5.6Z"/>
  <path class="st6" d="M178.1,1.9c.2.3.1.4.5.7h.5c.4,1.3.3,4.6.3,6.3,0,.2-.5,1.1-.5,1.7.1,3.7.4,7.8.1,11.5-.2-.3,0-5-.3-5.8-.2.7-.2.8-.1,1.6,0,0,0,.1,0,.2-.5,1.8.2,3.7-.1,5.5,0,.3,0,.2,0,.5v-.3c-.3-.4-.6-20.2-.3-21.8Z"/>
  <path class="st22" d="M161.8,19.3h.1c.3,2.5.1,4.7,0,7.2,0,2,0,4,0,6,0,1,0,2.9.2,3.8.3-.7-.1-3.7.1-4.3.3.9,0,4.3.3,4.7.7,1,4.5,2.3,4.3,4.2-1.3-2.4-3.8-3.5-6.1-5.1h.4c0,0,.6-15.1.5-15.4h-.3s.4-1.2.4-1.2Z"/>
  <path class="st6" d="M152,66.3h0c.9,4.6.2,11.5.4,16.2,0,.6-.3,1.2-.3,1.8h0c0,.1,0,.1,0,.1-.3-.4-.2-16.4-.1-18.2Z"/>
  <path class="st6" d="M175.6,4.5h.2c0,.3.1.6,0,.8,0,2,0,21.4-.3,21.7-.2-.4-.2-1.1-.2-1.6-.2-1.7-.1-5.1-.2-6.8,0,0,.4-.7.4-.7,0-.9-.5-3.3-.3-4l.3.5c.2-.3,0-1.5,0-1.9l-.3.2h-.2c0-2.5,1-6,.4-8.1Z"/>
  <path class="st24" d="M173.6,2.4c.6,1.1,0,9.5-.3,11-.1-.8,0-1.4.1-2.2,0-.3-.4-.5-.6-1l.4.4h.2c0-.9,0-1.8,0-2.6-.2-.3-.5-.2-1-.2h0c0-.3,0-.4.1-.5.6-1.3-.2-2.6.2-4.4.3.1.1,0,.4.1l.5-.6Z"/>
  <path class="st13" d="M168.7,3.5h.1c.4.9.3,6.3.2,7.4-.1,1.2-.5,1.2-.4,2.8h-.2c0-2.1-.2-8.3.2-10.2Z"/>
  <path class="st6" d="M177.1,2.1h.1c.6,1.8,0,9.4.1,11.4,0,1.7,0,4.4,0,6.1-.1-.2,0-.9,0-1.2,0-1.8,0-3.7,0-5.5,0-1.3.7-6.1,0-7-.3.2-.2.2-.2.7-.1-1.5-.1-3.1.3-4.5Z"/>
  <path class="st6" d="M149.5,73.1h.2c.4,3.8.6,7.7.3,11.4h0c0-1-.3-1.5-.3-2.3-.2-3-.2-6.1-.2-9.2Z"/>
  <path class="st6" d="M155.1,70.9c.2.9.2,7.6.2,8.7-.3,0-.2,0-.4,0v.5c-.1,0-.2,0-.2,0,.1-1.9,0-3.3,0-5.2,0-1.5.4-2.5.4-4.1Z"/>
  <path class="st22" d="M140.5,8.8c.3,0,.1,0,.4.1h0c0,0,.6.6.6.6h0c0,.1-.5.1-.5.1l-.2.3c.2,1.1-.1,2.8-.1,4,0,1.4,0,2.9,0,4.3,0,.4,0,.8,0,1.2,0,0-.1-.2-.1-.3.3-1.8-.8-9.2,0-10.4Z"/>
  <path class="st13" d="M139.3,70.5c.3.1.2,0,.4.3-.2,2.7.3,5.9.1,8.9h-.1c0-.3-.1-.5,0-.9,0-1.1,0-1.7-.2-2.8v.7c-.3-1.7-.1-4.5,0-6.3Z"/>
  <path class="st6" d="M154.1,71.9c.3,1,.4,8.1.3,9.5h-.1c-.3-.4-.3-.4-.5-1,.6-.8.4-4.1.4-5.2-.4-.2-.2,0-.4-.4,0-.6-.1-.8.1-1.2l.2.8c.2-.4,0-2,0-2.6Z"/>
  <path class="st13" d="M123.7,82c1.7.2,1.2,1.4,1.1,2.8-.6,0-.6-.1-1-.5-.3-.7-.1-1.5,0-2.3Z"/>
  <path class="st6" d="M151.5,76.5c.6.8.2,6.5.3,8v.2s-.1,0-.1,0c0-1.8.3-2.7-.5-4.4-.3-.5.4-2.9.3-3.9Z"/>
  <path class="st13" d="M144.2,69.2c.6,2.5,0,5.2,0,7.8,0,0-.2.2-.2.3-.2-.4,0-7,.2-8.1Z"/>
  <path class="st22" d="M149.3,2.2c0,.2.3.7.2,1-.3,2.3-.2,4.5-.3,6.8-.3-2-.3-5.8,0-7.8Z"/>
  <path class="st13" d="M161.8,5.3l.2.3h0c.6.7.1,2.6-.1,3.5-.5-.5-.1-2.2-.2-2.9,0-.3-.2.1-.5-.4h.5c0-.1.1-.6.1-.6Z"/>
  <path class="st6" d="M158,72.5c.6,1.6-.3,3.4,0,4.8.2.6.2.3.2,1.2-1.3-1.4-.2-4.4-.2-6Z"/>
  <path class="st13" d="M161.4,20.5v.3c-.5-.5,0-3.9.2-4.4.2.2,0,2,.2,2.7v.2s-.3,1.2-.3,1.2Z"/>
  <path class="st13" d="M131.2,127.9c.1,0,.3.3.4.4-.3.6-.3.5-.9,1h-.2c-.1-.5-.1-.4-.4-.8.5-.1.5-.2,1-.4h.1Z"/>
  <path class="st13" d="M122.2,77.6l.4.2c.3.6.2.6.2,1.4-.3,0-.1,0-.5,0-.2-.4-.1-1-.1-1.5Z"/>
  <path class="st13" d="M123.4,81c.4,0,.6,0,1,0,.4.4.3.2.4.8-.7,0-1.1-.3-1.4-.9Z"/>
  <path class="st23" d="M143.4,148c3.3-1.1,4.9,0,6.7,2.8,1.6,0,9-.4,9.9.5.3.3.4.9.5,1.3-.8,1.1-4.7,6.2-4.6,7,1.4,1.5,2.5,2.4,4.2,3.7,2,1.5,4.5,2.7,6.2,4.5.5.5.6,1.8.7,2.5v.8c0,2.2-1.3,2.7-1.4,3.6,0,.5,0,1,.3,1.4-.2,3-1.3,4.7-4.3,5.6-.7,2.4-1.2,3.7-3.6,4.9v.3c-1.3.4-2.5,0-3.2.3-.8,1.5-1.9,2.2-3.5,2.8-.8.3-3.7.6-4-.3-.6-.3-1.6-1-2-1-1.1.6-1.7.9-3,1.1-2.9-.2-4.3-.3-5.8-3-3.7.3-6.4-1-7.2-4.9-3.6-1.3-4.6-3.8-4.1-7.4-.9-.9-1.5-2.2-1.6-3.5-.2-4,4.1-5.5,6.8-7.5,1.9-1.5,3.1-2.3,4.7-4.2-7.1-9.1-6.6-8.5,4.2-8.5,2,.2,1.8-.8,3.1-2,.3-.3.8-.5,1.1-.8Z"/>
  <path class="st10" d="M154.6,186.7v.3c-.7,1.5-1.8,2.2-3.4,2.8-.8.3-3.7.6-4-.3,3.4.7,5.3-.2,7.4-2.9Z"/>
  <path class="st13" d="M154.6,186.7c1.5-.1,1.6.2,3.4-.3v.3c-1.3.4-2.5,0-3.2.3v-.3Z"/>
  <path class="st3" d="M144.7,149.4c2.8-1.3,5,4.4,6,6,1.6,2.5,3.6,4.8,5.7,6.9,1.5,1.3,3.2,2.5,4.9,3.7,1.4,1,3.3,1.8,4.1,3.5.7,1.5.1,2.7-.9,3.8-2.3-1.4-3.3-2.6-5.2-4.4-1.2-1.1-4.3-5.1-5.4-5.6h0c.8,2.6,5,6.8,6.7,8.6.9.9,3.1,2.4,3.5,3.5,1,2.5-1.2,4.1-3,4.8-3.4-4.6-6.1-9.7-8.8-14.8-.2-.4-.5-.8-.8-1-.2.3,0,.7,0,1.1.8,3,3.8,8.3,5.5,11.1.6,1,2.8,4,3,5,0,.4-.1,1-.3,1.3-.6,1.1-1.4,1.9-2.6,2.2-.6.2-1.5.3-2.1,0-.9-.5-3.8-11.6-4.3-13.4-.4-1.7-.9-4.8-1.9-6.1-.4.7.5,4.9.8,5.9,1.1,4.8,2.4,9.5,3.9,14.1-1.4,3-4.5,3.4-7,1.2-.5-6.7.2-14.6-.8-21.4-.6,3-.6,6.4-.6,9.5,0,4,0,7.9,0,11.9-2.2,1.9-5.4,2-6.9-.8,0-1.2,1.7-6.5,2-8,.8-3.1,1.5-6.3,2.1-9.4.2-1.4.3-2.3.3-3.7v.2c-1.4,3-5.1,19.2-6.2,20.1-2,.6-5.3-1.3-5-3.5.4-1.3,2.7-4.6,3.5-6,1.8-3.3,3.5-6.4,4.8-9.9.1-.5.3-.9.2-1.4-.6,0-3.2,5.2-3.7,6.2-1.9,3.3-3.9,6.6-6,9.8-1.6-.7-3.8-2.1-3.2-4.2.3-1.7,1.8-2.5,3.1-3.5,3-2.3,4.8-5.8,7.2-8.5.1-.4.3-.6.1-.9-.7.2-7.9,8.7-10.8,10.1-.5-.8-1.3-2-1-2.9.5-2.7,3.5-3.8,5.6-5.2,1-.7,1.9-1.4,2.8-2.2,2.4-2.1,4.4-4.4,6.1-7.1,1.6-2.5,2.3-5.6,4.9-6.5Z"/>
  <path class="st11" d="M144.7,149.4c-.1.4-.2.3-.5.5-1.9,1.5-2.8,4.2-4.2,6.4-1.1,1.6-2.3,3.1-3.6,4.5-1.4,1.5-2.8,2.9-4.5,4.1-2.4,1.8-5.2,2.5-6.4,5l-.2.5h-.2c.5-2.8,3.5-3.8,5.6-5.3,1-.7,1.9-1.4,2.8-2.2,2.4-2.1,4.4-4.4,6.1-7.1,1.6-2.5,2.3-5.6,4.9-6.5Z"/>
  <path class="st10" d="M139.3,165.7h.2c0,.9-.5,1.6-.8,2.3-1.3,2.9-2.7,5.6-4.3,8.3-1,1.7-2.3,3.7-3.2,5.4h-.2s-.1-.2-.1-.2c.4-1.3,2.7-4.6,3.5-6,1.8-3.3,3.5-6.4,4.8-9.9Z"/>
  <path class="st11" d="M136.9,164.1v.2c-1.2,2.7-4.6,6.3-6.8,8.4-1.2,1.1-2.5,2-3.4,3.3h-.2c.3-1.6,1.8-2.4,3.1-3.4,3-2.3,4.8-5.8,7.2-8.5Z"/>
  <path class="st10" d="M142,168.6c.7,1.8-3.2,14.4-4,17.1,0,.1-.1.2-.2.3,0-1.2,1.7-6.5,2-8,.8-3.1,1.5-6.3,2.1-9.4Z"/>
  <path class="st13" d="M132.3,152.9v-.3c.8-.2,6.8-.2,7.4,0,0,.1,0,.2,0,.3-1.1,1.8-2.3,3.6-3.5,5.3-1.2-1.4-2.4-3.6-3.9-5.3Z"/>
  <path class="st10" d="M132.3,152.9v-.3c.8-.2,6.8-.2,7.4,0,0,.1,0,.2,0,.3-1.4.1-6,0-7.4,0Z"/>
  <path class="st13" d="M151.1,152.8v-.2c.5-.2,6.3-.1,7.1,0v.2c-1.1,1.7-2.4,3.7-3.7,5.3-1.3-1.6-2.3-3.5-3.4-5.2Z"/>
  <path class="st22" d="M151.1,152.8v-.2c.5-.2,6.3-.1,7.1,0v.2c-1.2.2-5.8.2-7.1,0Z"/>
  <path class="st23" d="M195.8,16c.8.9,1.6,1.8,2.4,2.7,1.2,1.6,2.1,2.9,3,4.7.3.6.6,1.3.9,1.9.2.5.5,1.3.7,1.7.3.3.3.3.5.7.8,3.4.9,5.1.4,8.6.3,1.2,0,1.8,1.4,2.5,4.5-2.2,9.5-2.2,12.4,2.6.4.6.5,1.6.9,2.2l.2,1.8c-.2,5.1-2.9,8.4-7.9,9.8-.5,0-1.8.4-2.4.5.5-1.6,1.7-4.6.7-6.2-.5-.9-2-.9-2.8-.3v.2c-1.3,1.3-1.9,1.9-2.6,3.7-.1.4-.5,1.3-.8,1.6,1.6,0,2.6-.3,3.5,1.1,0,1.8.3,2.4-.4,4.1-1,.3-2.5.2-3.6.2.9,1.7,1.6,2.9,3,4.3.8.8,2.7,1.6,3,2.4-1,.5-1.6.8-2.6,1.1-2.2.3-3.4.2-5.4-.6-.4.3-.8,3.1-1.4,4.4-.9,1.9-2.4,3.2-3,4.2-2.2-1.4-3.5-4.2-4.3-6.5,0-.5-.2-1.6-.2-2.2-1.4.6-1.9.8-3.4.9-1.3,0-2,0-3.3-.4-.6-.3-1.1-.6-1.6-1,2.9-2.1,4.5-3.2,5.9-6.5-.7,0-2.8,0-3.2-.3-1-.9-.9-3.9-.1-4.9.8-.5,2-.4,3.1-.3-.6-1.8-1.4-4.4-3.1-5.4-.7-.4-1.6-.5-2.4-.3-.2.5-.4.8-.7,1.2-.1,1.6,0,2.9.4,4.4,0,0,0,.2,0,.3h-.2c-.1.5,0,.4-.3.5-1.5-.3-2.5-.4-3.9-1-5.9-2.5-7.7-10.4-3-14.9,1-1,2-1.4,3.3-1.8.8-.2,1.7-.2,2.5-.2,3.7,0,5.8,1.7,8.3,4.1-.8-2.7-1.9-6-1.9-8.8,0-6.5,3.5-12.3,7.9-16.9Z"/>
  <path class="st10" d="M202.9,27c.3.3.3.3.5.7.8,3.4.9,5.1.4,8.6.3,1.2,0,1.8,1.4,2.5l-2.6,2-.4.5c-.3-.3,1-3.7,1.1-4.5.7-4,.5-6.1-.4-9.9Z"/>
  <path class="st6" d="M203.8,36.4c.3,1.2,0,1.8,1.4,2.5l-2.6,2c.5-1.5.8-3,1.2-4.5Z"/>
  <path class="st10" d="M206.3,49.3v.2c-1.3,1.3-1.9,1.9-2.6,3.7-.1.4-.5,1.3-.8,1.6-.4-1.6,2-4.7,3.3-5.5Z"/>
  <path class="st10" d="M183.5,49.1c-.2.5-.4.8-.7,1.2-.1,1.6,0,2.9.4,4.4,0,0,0,.2,0,.3h-.2c-.4-1.8-1.8-4.8.5-5.9Z"/>
  <path class="st8" d="M195.5,18.7l.3-.3c.7.1,2.3,2.6,2.7,3.2,2.9,4.6,4.6,9.4,3.3,14.9-.7,3-1.8,5.9-2.6,8.8-1,3.1-1.6,6.3-1.9,9.6h-2.7c-.5-3.7-.9-6.5-2-10.1-.5-1.5-1.9-5.3-2.1-6.7-2.5-6.9.5-14.2,5-19.4Z"/>
  <path class="st15" d="M195.5,18.7l.2.4c-3.8,4.6-6.4,10.5-5.6,16.5.1.7.6,1.8.3,2.5-2.5-6.9.5-14.2,5-19.4Z"/>
  <path class="st8" d="M180.5,39c2.4-.2,4.7.6,6.5,2.1,3.9,3.3,5.5,8.8,5.9,13.8h-2.4c-.6-2.6-1.4-4.5-3.2-6.4-1.8-1.4-4.4-2.1-5.9.2-1.1,1.6-.8,3.1-.4,4.9-5.2-1.6-8-6.3-5.2-11.7.9-1.6,3-2.5,4.8-2.9Z"/>
  <path class="st8" d="M208.4,39.3c1.6-.5,3.6-.4,5.1.4,1.5.8,2.7,2.1,3.2,3.8.6,1.9.4,4.4-.6,6.2-1.3,2.3-2.9,3.2-5.3,3.9.3-1.7.6-3.5-.5-5.1-1.3-1.9-4.1-1.3-5.6,0-2.1,1.7-2.9,4-3.5,6.5h-2c-.3-.6-.1-1.3,0-1.9.7-5.5,3.5-12,9.3-13.7Z"/>
  <path class="st15" d="M199.1,54.9c-.3-.5-.1-1.3,0-1.9.7-5.5,3.5-12,9.3-13.7v.3c-4.1,1.9-5.8,4-7.6,8.3-1,2.5-1,5-1.7,7Z"/>
  <path class="st8" d="M191.1,60.2c3.1.1,6.5,0,9.6,0,1.3,2.7,2.4,4.3,4.7,6.3-3,.2-4.4-.4-6.8-2.2,0,4-.2,6.3-2.7,9.6-2.4-3.2-2.6-5.5-2.9-9.3-1.6,1-4.4,2.5-6.3,1.9v-.2s.4-.3.4-.3c2.5-2.3,2.4-3.2,4.1-5.7Z"/>
  <path class="st15" d="M191.1,60.2c.4,1.5-2.5,5.1-3.8,5.8h-.3c2.5-2.3,2.4-3.3,4.1-5.8Z"/>
  <path class="st8" d="M186.8,56.4h18c0,.9,0,1.4,0,2.3h-18.1s0-2.3,0-2.3Z"/>
  <path class="st14" d="M187,1.7h15.1s.2.5.2.5h.1c.2,1.4,0,3.5.2,4.1h0c-.4-.5-.6-1-.9-1.7h-.3c-.4.6.2,2.3.1,3-.2,2.9-.3,5.9-.5,8.8-.4-1.4-.3-7,0-8.6,0-.2,0-.2,0-.5-.3.3-.2.2-.4.6,0-.8.4-3.7.2-4.1h-.5c-.4-.3-.2-.9-.6-1.4-2.2,1.2-.9,11.7-.4,13.8.1.6.1,1.5.3,2h.2c.7-1.4,0-9.2.3-9.4,0,1.5.4,10.6-.2,11.2-.8-.1-1-1-1.7-1.2-.8-.9-1.6-1.8-2.4-2.7-4.4,4.5-7.9,10.3-7.9,16.9,0,2.8,1,6.1,1.9,8.8-2.5-2.5-4.7-4.1-8.3-4.1-.9,0-1.7,0-2.5.2h0c.2-.2.8-.3.8-.6,0-1.3-.1-2.7,0-4,.5-9.7-.2-19.4,0-29.1,0-.8.1-2.5,1.3-2.4.5,0,1,0,1.4.4-.2.3-.3.3-.6.6h.3c.3-.3.2-.5.3-1h1s3.7,0,3.7,0Z"/>
  <path class="st20" d="M183.3,1.7h3.7s-.2.8-.2.8c-.3.1-.4,0-.7.1-.9.8-.4,4-.5,5.4-.5-1.1.3-3.2-.2-4.3-.3.4-.2,8.4-.2,9.5-.3.7.1,1.5-.2,2.1-.2-.2-.3-.3-.5-.5h0c.1-1.2,0-2.3,0-3.4.2-3.4.3-6.5-.2-9.9-.1.7,0,1.5-.2,2.2-.3-.3.2-1.2-.3-1.9l-.2.8h0s0-1,0-1Z"/>
  <path class="st13" d="M184.4,14.8c.2.2.3.3.5.5.3-.6,0-1.4.2-2.1,0,1.2.1,7.3,0,8.2h0c0-.9,0-1.5-.2-2.3-.2.4-.2,1.2-.3,1.3-.2-1.3,0-4.1,0-5.6Z"/>
  <path class="st6" d="M117,120.3c.7,1.8-.4,7.8.2,9.7.2-.7.4-1.2,1.2-1.5,1.2-.5,3.4-.6,4.7-.5h0c0,.1-.5.2-.5.2v.4c-.9.4-1.3.1-2.2.7.2.8,1.1.7,1.9.8v.2c-.6.7-1.6.3-2.4.8.7.2,2.9-.8,3.7-.3l-.4.2v.3c-.1,0-.3,0-.3,0-.5.1-.6.1-1,.4.3,0,.5-.1.8-.2l.2.4c.3,0,.2,0,.6,0h.1c-.8.5-1,.6-1.9.7.9,0,1.4,0,2.3,0h0s.2.3.2.3c-.8.5-1.8.8-2.6,1.1h0c.5,0,.9-.1,1.3.2-.4.6-.8.5-1,1,.6-.2,2.3-.7,2.7-.5-.5,1.1-2,.8-2.1,1.6,0,0,1,0,.7,0,.8-.1,1.4-.5,2.3-.4l.2.2v.2c-.6.2-2.1.5-2.4.8,1.1.1,1.6-.4,2.4-.2h-.1c-.1.5-.6.6-1.1.9.3.2.4.3.6.6-.2.5-.8.2-1.1.8.8.8,2.1-.6,2.7.5,1.1,2.2,6.7-2.1,7.6-1.6-1,.8-3.1,1.7-4.2,2.7-.3.2-1.7.3-2,.7-.6.5-1.5.4-2.2.9v.2c1.2,0,4.9-1.9,6.1-2,.1.1.2.2.3.4v.3c-1.3.8-2.5,1-3.8,1.8h0c1.2-.2,3.2-.9,4.1-1.1l.2.2c-.1,1-3.4,3-4.3,3.2h0c2.6,0,13-5,13.6-7l-.2-.4h-.3c-.2-.2-.2,0-.2-.5-.9.3-2.3,2-3,1.7v-.3c1.4-.6,4.1-2.8,4.8-4.2v-.2c-1.3,0-2.8,2.4-4.1,2.3v-.3c.5-.2,1.4-.7,1.8-1,.7-.7,1.9-2.7,2.8-3,.2-.5.3-2.5,0-2.9h-.2c-.3,0-.5.1-.8.2.2-.8.6-1.4,1-2.1-.2-.3-.2-.2-.6-.5-.2-1.4,1.8-.7,2.1-2.2,1.7,1.5,2.7.9,4.5,1.2,1.5.8,3.6-1.3,4.6-2.3h.1c-.2.7-2.2,3-2.7,3.7h-.2s0-.3,0-.3c-.2,0-1,.2-1.1.3-.9,1-2.3,2.4-2.9,3.5h.2c-.2,1.3-1.8,2.2-2.5,3.4,1.2-.1,2.1-2.7,3.1-2.9.1,1.1-1.6,2.4-2.2,3.4.9,0,.6.1,1.4.4-.1.5-.5.9-.8,1.3h.1c1.1-1,3.7-3.3,4-4.8.2,0,.1,0,.3.2h.2c.2.1,0,.6,0,1-.3.3-5.5,5.7-5.5,5.7.6,0,.3-.2.7.1v.4c-.3.2-.4.3-.8.5-.2.3-.2.3-.1.8,1.6-.6,5-5.6,6-6h.2c-.3,1-3.3,4.4-3.3,4.7.6-.2.4-.2.8-.1v.4c-2.1,3.9-6.6,5.1-9.3,7.3h.1c0,0-.2,0-.2,0,.7.2.8,0,1.4-.5.5,0,.9.2,1.2.7-.4.6-.7.4-1,1,.4.8,1.1.5,1.6.1.1.2,0,.2.1.2-.4.2-.8.5-1.1.8-1.3,1.2-1.1,2.2-3.1,2-.4-.2-6.5-.1-7.5-.2.4-.2,1.2,0,1.7,0,.3-.6-.7-.9-.5-2,.2-.8,2.6-1,3.4-1.7.4-.3.8-.2,1.4-.8-.1-.2-.2-.4-.3-.6.5-.6,5.5-2.4,6.2-3.6.2-.4,1.3-.8,1.7-1.3h-.8c0,.1-.3-.2-.3-.2h-.2c-.7.7-.2,1.4-1.1,1.7l-.3-.4h-.3c.2.4.1.3,0,.6h-.2c0,.1-.4-.1-.4-.1v.2c0,0,.2.3.2.3v.2c-.5-.1-.5-.2-.9-.2-.6,1.6-2.2,1.7-3.5,2.6-.5.3-1.1,1-1.5,1.3-.7.5-3.1,1.3-4,1.1-.3-.5-.4-.2-.6-.7.3-.4.4-.5.8-.8h.1c-.5-.2-3.1,1-3.9.8,0-.2,0-.8.2-.9.8-.6,3.3-.8,3.8-1.7-1.7.4-5.1,1.9-7.1,1.7.3-.8,3.2-1.2,3.5-1.7h-.3c-1.2.1-1,0-2.1-.4-.5-1.3,1.8-1.6,2.7-2-1.3,0-3.3.7-4.6,1-.9.2-1.6.2-2.5.3h0c.6-1.2,7-2.1,7.5-3.2-.7.4-1.7.3-2.7.8-.6.3-3.8,1.2-3.9.2.4-.5,1.1-.5,1.8-1-.6-.7-1.9.4-2.5-.1-.9-.7-1.7-2.4-1-3.3h-.1c-.5-.3-.9-.3-1.3-.6v-.2c.4-.2.8-.2,1.2-.3-.5,0-.7-.1-1.1-.5-.2-.5-.1-.5,0-1.1.4-.5,1.8-.8,2.4-1h.1c-.4-.3-2.2,0-2.7-.5-.4-.2-1-.6-1.5-.3-1,.5-.7,1.4-1.3,2.3-.1-4-.1-10.2,0-14.2Z"/>
  <path class="st6" d="M183.5,49.1c.8-.2,1.6,0,2.4.3,1.7,1,2.5,3.6,3.1,5.4-1,0-2.2-.2-3.1.3-.8,1-.9,3.9.1,4.9.4.4,2.5.3,3.2.3-1.4,3.3-3,4.4-5.9,6.5.6.4,1,.7,1.6,1-.4.4-.5-.4-1.3-.3-.3.3-.3.5-.7.6h-.1c-.2-.7-.2-1.1-.9-1.2v.4c-.1-.5,0-1-.4-1.2-.4,1.2.3,4.1-.2,5.3h0s-.4,0-.4,0c-.4.5-.6,10.5-.5,11.6,0-.5,0-2.3,0-2.9-.1.4-.1.3-.3.7-.2-.4-.1-7.8-.2-8.9-.7.6-.7,3.8-.7,4.8,0-3.9-.2-7.8-.3-11.7.2-.1.2,0,.3-.3.9-1.3.7-.5,1.4-.8,0-.3,0-.4,0-.6.2-.5.2-.8.6-1.1v.3c.4-.6.4-2.3.6-2.8.6-1.1,1.9-1.9,1.8-3.3,0-.7.2-.5,0-1.2,0,0,0-.2,0-.3-.5-1.5-.5-2.9-.4-4.4.3-.4.5-.7.7-1.2Z"/>
  <path class="st6" d="M169.8,73.9c0,0,.1-.5.1-.5.6-1.1.1-6,.6-6.8h.3c0,.1.2,0,.2,0,.3-1.1,0-2.5.2-3.8.4,1,.2,2.8.2,3.8,0,.7,1,1.9,1.7,1.7.4-.6,0-1.1.5-1.9.4,0,.2,0,.7.2,0,1.3,0,5.5-.3,6.6h-.2c-.5-.3,0-1.4-.3-2.3h-.1c-.2,1.4,0,2.6-.2,4.1-.2.1-.4.2-.5.3,0,.5,0,.4.1.9.4,0,.2.1.6-.1,0,.7.2,2.7,0,3.3-.6-.4,0-1.4-.4-2.1-.3.5-.2,8.2,0,8.9,0-.4,0-.4-.2-.6-.2.5-.2.9-.3,1.4-.4-3.1.2-10.7-.4-13-.2.7,0,.9-.3,1.3-.6-.3-.3-2.8-.3-3.4-.1.1-1,4.6-.9,5,.3,4.4,0,8.7,0,13.1l-.3-1.6c-.1.4-.1.8-.1,1.3-.3-3,0-7.4-.2-10.6,0-.7,0-4.5,0-5.1Z"/>
  <path class="st6" d="M174.4,66.6c-.2-.8,0-6.8,0-7.8.3.9,0,3,.2,4,.1.9.4,1.5.4,2.5.2-1,0-4.7.3-5.3.1.1,0,0,.3.2l.2-.2c0,1,.2,1.8.3,2.9h.1c0-.3.2-.7.3-1.1h.2c.2.4.4.6.7.9.4-.5.4-.5.9-.9h.2c.3.6.2,2.5.2,3.2l-.2-.3c0,2.4-.1,4.8-.1,7.2,0,.6,0,3.2,0,3.6,0-1,.2-3.8-.2-4.6-.4-.9-1.4-1.4-1.7-2.8l-.4.8c-.4-.4.2-3.8-.7-4.2-.1.7-.1,1.6-.2,2.3-.2,1.6.4,3.6.2,5.2-.2-.2-.2-.6-.3-1-.2.2-.1,0-.3.3-.6-.7.1-4.2-.4-4.8Z"/>
  <path class="st6" d="M167.8,74.5c0,.4.1.7.4,1,.3-.9-.2-4.5.2-6.1.4-.1.1.6.8.8.6-.8.2-1.8.6-2.4,0,1.5.2,3.2,0,4.7-.5.8-.4,12.5-.4,14.4-.1-.2-.1-.3-.2-.6-.4-.2-.7-.3-1,0-.2,1.1,0,7.9-.2,8.1,0-4.1,0-8.3,0-12.4v-5.3c-.2-.9-.3-1.4-.2-2.2Z"/>
  <path class="st6" d="M165.9,67.2c.4,1.9.6,3.8.5,5.7,0,.7,0,1.8.3,2.3-.1-2.5-.1-8.8.1-11.2.5,2.7-.1,10.4.7,12.9,0,.7,0,5.3,0,6.1,0,2.5,0,5.5,0,7.9-.3-1.6.3-6.9-.3-7.7-.1.3,0,1.5,0,2.1-.2-.6,0-1.1,0-1.6-.2-1.4.2-6.4,0-7.4-.6,1.2,0,5.5-.4,7.1h-.1c-.4-2,.1-11.6-.4-12.3l-.2.3v-4.1Z"/>
  <path class="st6" d="M202.1,1.7c3,0,6.5,0,9.5,0v.3c-.6.4-.8.6-.9,1.4,0,1.2.3,11.2,0,11.7h0s-.1-.2-.1-.2h.1s0,.2,0,.2v-.3c0,0,0,0,0,0h-.2c-.2-3.3,0-6.7-.2-9.9,0-.7,0-2.3,0-2.8-.7,0,0,.3-.5.2-.5,0-.9-.3-1.4,0-.5.7,0,1.9-.4,2.2-.5-.7,0-1.8-.5-2.5-.9,0-1.9-.3-2.7.3-.1.2-.2.3-.3.5-.2-.4-.3-.6-.8-.8-.6,0-.8-.1-1.2.2v.3c0,0-.2,0-.2,0l-.2-.5Z"/>
  <path class="st10" d="M167.2,107.3v-.6c.2.3.2.5.3.8-.2.8-1.5,3.2-1.5,3.1.3,3.4,0,5.4-4,7.3-.9,3.1-2.2,4.7-5.6,5.2v-.3c.8,0,1.6-.3,2.3-.7,1.8-1,2.5-2.6,3-4.4,3.6-1.4,4.6-3.7,3.9-7.3,1-1.3,1.2-1.6,1.6-3.1Z"/>
  <path class="st6" d="M188.2,68.2c1.5-.1,2-.3,3.4-.9,0,.6.2,1.7.2,2.2h0c-.4-.5,0-.7-.4-1.3h-.2c0,.2,0,7.4,0,8.1-.2-.6-.2-2.5-.2-3.2-.4.6-.2,2.5-.3,3.5-.2-.6-.2-7.7,0-8.3h-.3c-.7.2-3.3.3-4,0,.5,0,1.4,0,1.8-.1Z"/>
  <path class="st10" d="M165.9,176c1,1.7-1.1,4.5-2.6,5.2-.4.2-.9.4-1.4.6-.7,2.7-1.3,3.7-3.9,4.9v-.3c2.4-1.1,2.9-2.5,3.6-4.9,2.9-.9,4.1-2.6,4.3-5.6Z"/>
  <path class="st10" d="M218.7,45.5h.3c0,2.7-.7,5.1-2.7,7.1-1.2,1.3-3.6,2.8-5.5,2.6,5-1.4,7.6-4.6,7.9-9.8Z"/>
  <path class="st11" d="M196.1,76c.6-1,2.1-2.3,3-4.2.6-1.3,1-4.1,1.4-4.4-.2,3.1-1.4,6.1-3.7,8.3-.3.2-.3.2-.6.3Z"/>
  <path class="st10" d="M160.5,152.6c0,.4,0,.7-.3,1-.6.8-3.8,5.6-4.3,6,0-.8,3.9-5.9,4.6-7Z"/>
  <path class="st28" d="M219.8,1.6h.2c.3,2.2,0,2.5-.2,4.5,0,1.4,0,2.9,0,4.3-.1-1.2-.2-7.6,0-8.8Z"/>
  <path class="st6" d="M165.2,85.4c.2.4.2.7.5,1,0,.7,0,3,0,3.7,0-.3,0-1.1-.2-1.3-.6-.5-.2-2.4-.2-3.4Z"/>
  <path class="st13" d="M206.5,56c.7.8.7,4-.4,4.1.7-1.7.4-2.3.4-4.1Z"/>
  <path class="st10" d="M167.4,171.1c0,.9-.9,3.6-1.8,3.5,0-.9,1.3-1.4,1.6-3.6h.2Z"/>
  <path class="st13" d="M145.3,188.6v.3c-.7.8-2.7,1.2-3.8,1.2h0c0-.1,0-.1,0-.1.3,0,.6-.1,1-.2,1.3-.2,1.8-.5,3-1.1Z"/>
  <path class="st22" d="M208.5,67v.2c-.5.5-1.8,1.1-2.6,1v-.2c1-.3,1.6-.6,2.6-1.1Z"/>
  <path class="st6" d="M201.3,23.4h.3c.6.3.6,1,.7,1.7l-.2.2c-.3-.6-.6-1.3-.9-1.9Z"/>
  <path class="st13" d="M202.4,25.1c.5,1,.9,1.5,1,2.7-.2-.4-.2-.4-.5-.7-.2-.4-.5-1.3-.7-1.7l.2-.2Z"/>
  <path class="st28" d="M167,170.3c.3-.6,0-.4.6-.7h.2c-.1.6-.3.9-.4,1.5h-.2c0,0-.1-.8-.1-.8Z"/>
  <path class="st13" d="M167.1,105.3c.4.7.6,1.5.3,2.2,0-.3,0-.5-.1-.8v.6c-.2-.6-.2-1.4-.2-2Z"/>
  <path class="st13" d="M218.5,43.7h.1c.3.4.4,1.2.3,1.7h-.3c0,0-.2-1.7-.2-1.7Z"/>
  <path class="st6" d="M158.9,134.3h.1c0,0,0,.3,0,.3-.4.4-1,1.3-.8,1.8.4.1,1-1,1.5-1.2l-.4.5c-.5.7-2.2,2.7-3,2.9-.5.1-.4,0-.8.5.4,0,.8.3,1.2.4v.2c-.9,0-.7-.1-1.3.5-.5.7-1.8,2.6-2.7,2.5v-.4c0-.4,1.1-1.4,1.6-1.9,1.6-1.9,3.1-4.3,4.7-6.2Z"/>
  <path class="st6" d="M146.7,144.9c0-.1,0-.2.1-.4,1.1-.8,5.8-5.8,6.5-6.1h.2c0,.1-.2.3-.2.3-.3.3-.2.3-.3.5-.9,1.3-4.8,4.9-5.9,5.8h-.3Z"/>
  <path class="st6" d="M143.3,147c-.1,0,0,0-.2-.1.5-.5,2.8-2.1,3.5-2v.4c-.6.9-2.3,2.2-3.3,1.8Z"/>
  <path class="st6" d="M154.6,130.5l.3.4c0,.6-1.8,2.8-2.2,3.4-.3,0-.1,0-.4-.3,0-.6,1.8-2.9,2.3-3.5Z"/>
  <path class="st28" d="M220,10.3h.1c.3,1.4-.1,19.6-.1,19.6V10.3Z"/>
  <path class="st6" d="M184.7,68.1c.3.7.2.9.3,1.6v-.2c.2,1-.2,2.3-.3,3.3,0,.6,0,1.2,0,1.8v.4s0,0,0,0c0-1.4-.4-5.9.1-6.9Z"/>
  <path class="st28" d="M220.2,58.3c.5.8.3,5.3.2,6.4v-.8c-.2.5-.1,1-.1,1.6,0,.4,0,.8,0,1.2-.2-.4,0-7.4,0-8.4Z"/>
  <path class="st28" d="M178.1,96.3c.5.4.3,3.8.3,4.6l-.2-.2c-.2-.6,0-3.6,0-4.4Z"/>
  <path class="st28" d="M218,20.5c.3.7.2,2.2,0,2.9-.5-1-.4-1.9,0-2.9Z"/>
  <path class="st6" d="M149.8,134.8c.3.2.2.1.4.4v.3c-.4.3-.5.3-.7.7-.2,0,0,0-.4,0,0-.6.3-1,.7-1.5Z"/>
</svg>