<?xml version="1.0" encoding="UTF-8"?>
<svg id="Capa_2" xmlns="http://www.w3.org/2000/svg" version="1.1" xmlns:xlink="http://www.w3.org/1999/xlink" viewBox="0 0 232.2 232.1">
  <!-- Generator: Adobe Illustrator 30.3.0, SVG Export Plug-In . SVG Version: 2.1.3 Build 157)  -->
  <defs>
    <style>
      .st0 {
        fill: url(#Degradado_sin_nombre_6);
      }

      .st1 {
        fill: #0f334c;
      }

      .st2 {
        fill: url(#Degradado_sin_nombre_5);
      }

      .st3 {
        fill: #f2cd72;
      }

      .st4 {
        fill: #cc9b4c;
      }

      .st5 {
        fill: #d3ae58;
      }

      .st6 {
        fill: #f97f29;
      }

      .st7 {
        fill: #608290;
      }

      .st8 {
        fill: url(#Degradado_sin_nombre_4);
      }

      .st9 {
        fill: url(#Degradado_sin_nombre_2);
      }

      .st10 {
        fill: url(#Degradado_sin_nombre_7);
      }

      .st11 {
        fill: url(#Degradado_sin_nombre_3);
      }

      .st12 {
        fill: #d12726;
      }

      .st13 {
        fill: url(#Degradado_sin_nombre_8);
      }
    </style>
    <linearGradient id="Degradado_sin_nombre_8" data-name="Degradado sin nombre 8" x1="972.9" y1="-326.5" x2="942.2" y2="-338" gradientTransform="translate(-283 -16.5) scale(.5 -.5)" gradientUnits="userSpaceOnUse">
      <stop offset="0" stop-color="#cd9c4f"/>
      <stop offset="1" stop-color="#eec86d"/>
    </linearGradient>
    <linearGradient id="Degradado_sin_nombre_2" data-name="Degradado sin nombre 2" x1="888.5" y1="-67" x2="851.9" y2="-71.9" gradientTransform="translate(-283 -16.5) scale(.5 -.5)" gradientUnits="userSpaceOnUse">
      <stop offset="0" stop-color="#dcac59"/>
      <stop offset="1" stop-color="#f1cd70"/>
    </linearGradient>
    <linearGradient id="Degradado_sin_nombre_3" data-name="Degradado sin nombre 3" x1="901.5" y1="-438.6" x2="888.5" y2="-400.4" gradientTransform="translate(-283 -16.5) scale(.5 -.5)" gradientUnits="userSpaceOnUse">
      <stop offset="0" stop-color="#c79a4a"/>
      <stop offset="1" stop-color="#e3b862"/>
    </linearGradient>
    <linearGradient id="Degradado_sin_nombre_4" data-name="Degradado sin nombre 4" x1="645.8" y1="-312.1" x2="643.4" y2="-343.6" gradientTransform="translate(-283 -16.5) scale(.5 -.5)" gradientUnits="userSpaceOnUse">
      <stop offset="0" stop-color="#d89f52"/>
      <stop offset="1" stop-color="#e2bd64"/>
    </linearGradient>
    <linearGradient id="Degradado_sin_nombre_5" data-name="Degradado sin nombre 5" x1="954.1" y1="-375.8" x2="928.2" y2="-354.9" gradientTransform="translate(-283 -16.5) scale(.5 -.5)" gradientUnits="userSpaceOnUse">
      <stop offset="0" stop-color="#d6a657"/>
      <stop offset="1" stop-color="#efc86e"/>
    </linearGradient>
    <linearGradient id="Degradado_sin_nombre_6" data-name="Degradado sin nombre 6" x1="626.6" y1="-149.7" x2="643" y2="-150.3" gradientTransform="translate(-283 -16.5) scale(.5 -.5)" gradientUnits="userSpaceOnUse">
      <stop offset="0" stop-color="#cb984e"/>
      <stop offset="1" stop-color="#f4d372"/>
    </linearGradient>
    <linearGradient id="Degradado_sin_nombre_7" data-name="Degradado sin nombre 7" x1="657.2" y1="-149.8" x2="642.7" y2="-149.3" gradientTransform="translate(-283 -16.5) scale(.5 -.5)" gradientUnits="userSpaceOnUse">
      <stop offset="0" stop-color="#cb9546"/>
      <stop offset="1" stop-color="#edca6d"/>
    </linearGradient>
  </defs>
  <path class="st1" d="M22,0h191.7s0,89.5,0,89.5v28.7c0,5.4.2,11.7-.2,17-1.3,19.6-9.9,37.3-22.8,51.8-3.3,3.7-7.1,7.8-10.8,11-17.5,16.3-38.8,27.9-62,34-1.6-.5-3.4-.9-5-1.4-3.7-1.1-7.3-2.4-10.9-3.7-19.3-7.5-36.8-19-51.3-33.8-11.7-11.8-20.6-24.7-25.4-40.8-4.1-13.7-3.3-25.5-3.3-39.5v-31.7S22,0,22,0Z"/>
  <path class="st12" d="M26,4.1c6.3.2,13.6,0,19.9,0h38.3s125.3,0,125.3,0v84.7s0,27.8,0,27.8c0,5.4.1,11.2-.1,16.6-1.1,25-14.3,45.4-32.4,61.9-14.5,13.4-31.6,23.6-50.3,29.9-1.4.5-7.9,2.7-9,2.6-1.8-.1-8-2.3-9.9-2.9-20.4-7.1-38.9-18.8-54-34.1-10.8-10.7-20.1-23.9-24.5-38.6-1.6-5.4-2.7-11-3.1-16.6-.3-3.5-.2-6.9-.2-10.3v-11.8s0-28.7,0-28.7V4.1Z"/>
  <path class="st1" d="M49.9,29.4c14.6.2,29.6,0,44.2,0h91.6s0,66.8,0,66.8v23c0,3.9.1,8.7,0,12.5-.6,12.8-4.8,25.7-12.2,36.2-3.5,4.9-7.1,8.6-11.5,12.7-12.1,10.7-25.5,17.3-40.7,22-3.3,1-3.3,1.1-6.6,0-16.9-5.2-33-13.4-45.3-26.2-8.2-8.3-14-18.6-17-29.8-1.2-4.3-1.9-8.7-2.3-13.1-.4-5.5-.2-13.2-.2-18.9v-25.5s0-38.3,0-38.3c0-7,0-14.3,0-21.4Z"/>
  <path class="st5" d="M54,33.5h127.7s0,65.3,0,65.3v20.5c0,10.6.3,18.5-3,28.8-3.8,12.1-9.8,20.6-19,29.2-12.4,11.1-26.1,17.4-41.8,22.2-3.3-1.1-6.5-2.1-9.7-3.2-23.6-8.7-45.3-25.2-51.9-50.5-2.7-10.3-2.3-17.9-2.3-28.4V33.5Z"/>
  <path class="st1" d="M115.7,37.3c5.3,1.8,9.3,5.3,10.1,11.1.4,3.4-.4,6.1-1.4,9.3,3.2-2.6,3-4.7,3.5-8.6,5.4,5.2,5.8,7.1,3,14,5.1-3.2,2.2-5.1,4.3-9.8,1.5-3.2,4.4-4.1,7.5-5.2-.7,1.3-1.5,2.9-1.8,4.3-.9,3.5,1.4,6.5,2,9.9.3,1.6.2,2.7,0,4.3,2,0,4.2,0,6.3,0v19.3c-1.6,2.2-4.5,5.4-6.3,7.6.4,4.9.7,10.6.9,15.5,3.5-5,1.5-9.7,4.9-14.4,2.3-3.2,5.9-4,9.6-4.6-.9,1.1-2.3,2.7-2.9,3.8-2.4,4.4.2,9.5-.2,14.2-.5,5.3-3,8.4-6.8,11.7,3.5-.9,5-2.1,7.8-4.2-.7,7.3-3.7,12.3-11.1,14.5.2,2.6.3,5.3.5,7.9.8.9,1.9,1.9,2.8,2.7,2,2,4.1,3.9,6,5.9.1,10.2,0,20.8,0,31.1-7.8.1-15.8,0-23.6,0h-49.3s0-31,0-31c2.4-2.6,6.2-6,8.8-8.5l.8-13.5c-5.7-.4-10.2-3.8-11.7-9.3-.6-2.1-.7-3.9-.8-6.1,2.6,2.1,3.2,3.5,6.7,4.7-.5-.6-1-1.2-1.5-1.8-4-4.9-3.7-8.3-2.7-14.2.6-4.1-1-6.3-3.5-9.3,15.3,2.6,7.6,11.4,14.7,16.8.2-3.9.5-7.9.7-11.9-1.7-2.1-4.9-5.6-6.3-7.6,0-6.3,0-12.9,0-19.2h6.4c0-4.1,1.3-5.6,3.4-9,1.7-2.8,1.2-5.2.4-8.2,4.5,2.4,6.2,4,6.2,9.2,3.9-5.7,6.3-6.9,4.8-14.1,4.2,1.8,5.8,3.2,6.6,7.9,4.5-5.8,3.8-8.8,1.4-15.2Z"/>
  <path class="st12" d="M119.6,41.8c3.5,3.1,4.8,7.3,3.6,11.8-1.2,4.5-2.4,6.4-.8,11,.9-2.3,1.8-3.8,3.7-5.4,1.8-1.5,2.7-3,3.5-5.1,2.7,5.8-3.1,7.2,0,14.1.5-.9.8-1.6,1.6-2.3,1.4-1.4,3.6-2.4,4.4-4.2,1.6-3.5,0-5.7,2.8-9,0,1.3,0,2.9.3,4.1,1.2,4.1,2.5,5.3,1.9,9.7-2.1,0-4.4,0-6.5,0v7.7c-2.5.1-5.7,0-8.3,0,0-2.5,0-5.2,0-7.8-5.3,0-10.8,0-16.1,0v2.4s0,5.4,0,5.4h-1.6s-6.7,0-6.7,0v-7.8c-2.1,0-4.1,0-6.2,0-.2-5.4,3.6-6.4,4.5-12.2,2.8,5.2-2,7.9,4.2,13.7-1.5-11.1,5.9-10.4,6.5-19.3,3.8,4.8-1,8.4.9,12.9h.2c.5-.9.7-2,1.1-3,.7-1.6,2.2-3.1,3.3-4.5,3.5-4.6,4.3-6.8,3.7-12.3Z"/>
  <path class="st6" d="M108.2,74.4c-.2,0-.4,0-.6,0-.7-.8-.8-2.6-.9-3.6-.1-2,.3-3.9,1.2-5.7.5,1.7.8,2.5,1.9,3.9v5.4s-1.6,0-1.6,0Z"/>
  <path class="st6" d="M118.4,57.8c.2.3-.6,3.3-.3,4.4.4,1.8.8,2.7,1.6,4.3h-3.6s-1.8,0-1.8,0c.2-3.9,1.3-6.1,4.1-8.7Z"/>
  <path class="st6" d="M132.3,69c0,.2-.4,2.5-.5,2.9-.1.9-.1,1.4-.1,2.4h-3.6c0-1.7,3-4.3,4.2-5.3Z"/>
  <path class="st7" d="M89.9,69.9c2.7,0,5.5,0,8.2,0,0,2.6,0,5.2,0,7.8h15c0-2.6,0-5.2,0-7.8h9.4s0,7.8,0,7.8h15s0-7.8,0-7.8h5.9s2.3,0,2.3,0v13.4s-55.9,0-55.9,0v-13.4Z"/>
  <path class="st12" d="M152.5,94.1v.2c-1.7,4.6,1.2,10.9,0,15.5-1.5,5.7-5.7,8.4-10.2,11.2,4.2,1.6,6.3,1.4,10.3-.2-1.1,2.4-2.1,3.7-4.2,5.2-5.4,4-13.4,1-18.9,4.4-.6-1.4-1-2.6-1.5-4-1.5-5-1.6-10,2.3-13.9,3.3-3.2,4.3-3.6,6.3-7.9,1.8,5-.4,8.1-3.3,11.9,3.1-.4,6.7-1.5,9.2-3.3,4.7-3.3,5.6-7.3,6.3-12.7.4-2.8,1.4-4.9,3.7-6.5Z"/>
  <path class="st6" d="M141.5,116.8h0c0,.2,0,.4,0,.5-1.1,3.9-3.4,4.5-6.4,6.3,2.3.5,2.8,1.3,5.6,1.3-2.3,1.3-4.5,1.4-7,1.8-1.3.3-2.5.6-3.7,1.1-2.3-6.7,3.1-7.7,7.9-8.8,1.1-.2,2.8-1.5,3.7-2.2Z"/>
  <path class="st12" d="M82.8,92.6c2.8,1.4,3.3,5.9,3.9,8.5,1.2,5.2,5.9,7.9,10.9,8.6-1.5-3.3-2-5-.3-8.5.4,1,.7,2.1,1.3,3,1.9,2.9,5,4.2,6.7,7.3,2.6,4.6,2.1,12.1.8,17.1-.7-.8-1.3-2.6-2.4-3.5-8.4-6.3-17.4,1.9-22.2-10.6,3.3,2,5.3,2.1,8.7.6-5-4.3-8.7-7.7-7.4-14.7.5-2.9.6-5.1,0-8Z"/>
  <path class="st6" d="M91.3,110.2c.6.3,1.6,1.4,2.2,1.8,1.7,1.4,3.8,1.3,5.8,2,.5.2,1.8,1,2.1,1,0-.3,0-.5,0-.7,3.3,2.2,4,6.2,3.6,9.8-.8-1-1.4-1.7-2.4-2.5-1.9-1.1-4-1.8-6.2-1.8-2.6,0-3.1,0-5.4-1.2,3,.2,3.7-1.2,6.5-1.4-3.3-1.4-5.7-3.1-6.2-7Z"/>
  <path class="st7" d="M117.4,145c3.4,0,6.6,1.1,9,3.5,1.6,1.6,2.8,3.6,3.3,5.9.6,2.5.4,7.2.4,9.9,0,3.3,0,6.6,0,9.9-1.2,0-2.3,0-3.5,0v-11.7c0-2.1.2-5.2-.2-7.2-.8-3.8-4.3-6.6-8.2-6.9-2.6,0-5,.9-6.8,2.7-1.1,1.1-1.9,2.5-2.3,4-.5,1.8-.3,6-.3,8.1v10.9s-3.4,0-3.4,0v-11.4c0-2.3-.2-6,.3-8.1.5-2,1.4-3.9,2.8-5.4,2.3-2.6,5.4-4,8.9-4.2Z"/>
  <path class="st7" d="M105.4,94.4h24.9c0,1.2,0,5.3,0,6.3-.3.2-.8.1-1.1.1-2,0-5.4.1-7.3,0-.3-.3-.2-.4-.2-.9l-.2-.2c-.9,0-7.1-.2-7.4.2,0,.3,0,.6-.1.9-1.9.2-6.4,0-8.5,0,0-2.1,0-4.3,0-6.4Z"/>
  <path class="st7" d="M111.6,121.1h12.4c0,2.6,0,5.2,0,7.7h-12.4c0-2.6,0-5.2,0-7.7Z"/>
  <path class="st7" d="M84.7,157.5c3.9.1,8.1,0,12.1,0,0,2.4,0,5.1,0,7.6-4,0-8,0-12,0,0-2.5,0-5.1,0-7.6Z"/>
  <path class="st7" d="M138.9,157.5c3.9.1,8.1,0,12,0,0,2.5,0,5.1,0,7.6h-12s0-7.6,0-7.6Z"/>
  <path class="st7" d="M142.2,148.8h2.1s0,7,0,7h-8c-.8,0-3,0-3.7,0v-.2c-.7-2.9-1.1-4.2-2.7-6.7,4,0,8.2,0,12.2,0Z"/>
  <path class="st7" d="M91.4,148.8c4.7.1,9.6,0,14.3,0-1.1,1.8-1.7,2.9-2.2,4.9-.1.6-.2,1.4-.3,2h-11.8c0-2.3,0-4.8,0-7Z"/>
  <path class="st7" d="M91.6,166.9h11.5c0,1.2,0,6.3,0,7.2h-.2c0,0-11.5,0-11.5,0,0-1.5-.1-5.8,0-7.1h.2Z"/>
  <path class="st7" d="M132.6,166.9h11.7c0,2.4,0,4.9,0,7.3h-11.6c0-2.4,0-4.9,0-7.3Z"/>
  <path class="st7" d="M118.7,140.4h15.5s2.7,5.1,2.7,5.1h-10.1c-2.8-1.8-4.7-2.6-8.1-2.9v-2.2Z"/>
  <path class="st7" d="M101.5,140.4h15.4s0,2.2,0,2.2c-1.7.2-2.5.3-4.1.9-1.6.6-2.3,1.1-3.8,2h-10.2c.9-1.7,1.8-3.4,2.7-5.2Z"/>
  <path class="st7" d="M108.1,111.9c1.1,0,5.4-.3,5.9.3,0,.3,0,.2,0,.5.6.4,2.2.3,3,.3v6.5c-2.3,0-5.1,0-7.4,0,0-3.1-.3-4.7-1.4-7.6Z"/>
  <path class="st7" d="M93.9,130.6c2.1,0,4.9,0,7,0v3.8s2.7,0,2.7,0c0,.5,0,2.5-.1,2.8h-9.9c0-2.2.2-4.4.3-6.6Z"/>
  <path class="st7" d="M140.5,130.7c.4,0,.8-.1,1.2,0,.2.6.4,5.5.4,6.5h-8.9s-1.2,0-1.2,0v-2.8s2.8,0,2.8,0v-3.3c1.5-.2,4-.3,5.8-.4Z"/>
  <path class="st7" d="M111.6,130.6c1.8,0,3.6,0,5.3,0,0,2.2,0,4.5,0,6.6h-6.4s-5.2,0-5.2,0v-2.8s6.2,0,6.2,0v-3.8Z"/>
  <path class="st7" d="M118.7,130.6c1.8,0,3.6,0,5.4,0v3.8s6.2,0,6.2,0v2.8s-11.6,0-11.6,0v-6.6Z"/>
  <path class="st7" d="M121.7,111.9c2,0,4,0,6,0-2,2.9-2.6,4.2-3,7.6h-6s0-6.5,0-6.5c1,0,1.8.2,2.7-.1.3-.4.2-.3.2-.9Z"/>
  <path class="st7" d="M126.3,102.4c2.8,0,5.6,0,8.4,0-.5,2.3-1,3.3-2.6,5.1-.8.8-1.8,1.7-2.7,2.5-1,0-2.1,0-3.1,0,0-2.5,0-5.2,0-7.7Z"/>
  <path class="st7" d="M132,94.4c2.5,0,5,0,7.6,0,.2,1.8.3,4.5.4,6.4h-2.3c-.9,0-1.1-.1-1.6-1-.3-.5-.6-.9-1-1.4l-.2,2.3h-2.8c0-2.1,0-4.3,0-6.4Z"/>
  <path class="st7" d="M100.3,102.4c3,0,6.1,0,9.1,0v7.7s-2.2,0-2.2,0c-.7-1.2-1-1.5-1.9-2.5-1.2-1.2-4.6-3.7-5-5.2Z"/>
  <path class="st7" d="M92.3,140.5h7.2s-2.7,5.1-2.7,5.1h-2.7s-7.2,0-7.2,0c1.6-1.3,3.8-3.6,5.4-5.1Z"/>
  <path class="st7" d="M136.2,140.5h7.1c1.6,1.4,3.8,3.6,5.3,5.1-3.2,0-6.5,0-9.7,0-.9-1.6-1.9-3.5-2.7-5.1Z"/>
  <path class="st7" d="M96.1,94.4c2.5,0,5,0,7.6,0v6.4s-3.1,0-3.1,0h-1c-.3-1.4-.3-2.9-.3-4.2-1.4,1-2.3,1.6-3.5,2.8,0-1.6.2-3.3.3-5Z"/>
  <path class="st7" d="M146,166.9h5v7.3s-5,0-5,0c0-2.4,0-4.9,0-7.3Z"/>
  <path class="st7" d="M84.7,166.9c1.6,0,3.4,0,5,0,0,2.4,0,4.9,0,7.3h-5c0-2.4,0-4.9,0-7.3Z"/>
  <path class="st7" d="M98.5,157.5c1.5,0,3.1,0,4.6,0v7.6s-4.6,0-4.6,0c0-2.5,0-5.1,0-7.6Z"/>
  <path class="st7" d="M132.6,157.5c1.5,0,3.1,0,4.6,0v7.6s-4.6,0-4.6,0v-7.6Z"/>
  <path class="st7" d="M84.7,148.8h4.9s0,7,0,7h-5c0-2.3,0-4.6,0-7Z"/>
  <path class="st7" d="M146,148.8c1.6,0,3.3,0,4.9,0,0,2.3,0,4.6,0,6.9-1.6,0-3.3,0-4.9,0v-7Z"/>
  <path class="st7" d="M135.7,86.8c2.8,0,5.6,0,8.4,0-.8,1-1.7,2.1-2.6,3.1l-1,1.2h-5.9c.4-1.4.8-2.8,1.2-4.3Z"/>
  <path class="st7" d="M91.6,86.8h8.3c.4,1.4.8,2.9,1.2,4.3-1.9,0-3.9,0-5.9,0l-3.6-4.3Z"/>
  <path class="st7" d="M114.2,86.8h7.4c0,1.3-.2,2.7-.4,4h0c-.4.4-5.6.3-6.6.3l-.4-4.3Z"/>
  <path class="st7" d="M103.4,86.8h7.3c.2,1.4.3,2.9.4,4.3h-6.5c-.4-1.4-.8-2.8-1.2-4.3Z"/>
  <path class="st7" d="M124.9,86.8h7.3c-.3,1.2-.7,2.5-1.1,3.8l-.2.4c-.6.3-5.4.2-6.5.2,0-1.3.3-3,.4-4.3Z"/>
  <path class="st7" d="M111.1,102.4h2.9c0,2.6,0,5.2,0,7.7-.9,0-1.9,0-2.9,0,0-2.6,0-5.2,0-7.7Z"/>
  <path class="st7" d="M121.8,102.4c.9,0,1.8,0,2.7,0,0,1,.1,7.3-.1,7.7-.9,0-1.8,0-2.7,0,0-1-.2-7.2.1-7.7Z"/>
  <path class="st7" d="M94.3,124.7c.9,0,1.6,0,2.5.1,0,.9,0,3.2,0,4h-2.5c0-1.3.1-2.8.2-4.1Z"/>
  <path class="st7" d="M138.2,102.4c.6,0,1.2,0,1.8,0,.1,2.4.3,5,.4,7.4,0,.4,0,.3-.3.5h-.6c0-.2-.1-.3-.2-.3,0-1.1,0-2.3,0-3.4,0-1.5-1-2.9-1.3-4h.2Z"/>
  <path class="st7" d="M98.5,125.1c.8.1,1.8.6,2.5.9,0,.9,0,1.9,0,2.8h-2.5c0-1.2,0-2.5,0-3.7Z"/>
  <path class="st5" d="M204.4,53.5c.2,0,.5,0,.6.2.4.8,0,2.7,0,3.4.3,2.2,1.2,3.6.7,5.9-.5,2.6-2.2,4.8-5.1,4-1.8-.5-2.8-1.8-3.7-3.3-.3.9-.5,1.6-1.2,2.3-2.5,2.2-5.2,1-6.8,4.5,0,.4.3,1.3,0,1.6-2.1-1,0-3.7.9-4.9,3-3.4,5.5-2.7,6.9-8.4-1.6,0-4.1-.3-5.5.4-.9.4-.2,1.7-1,1.9l-.2-.2c-.1-.6,0-6.8,0-7.1h.4c.3.2.2.4.3.7,0,.3.1.6.3.8.1.2.4.3.6.4,1.5.3,11.4.6,12.3-.3.4-.4.4-1.4.4-1.9Z"/>
  <path class="st12" d="M197.5,58.7c1.7,0,6-.4,7.1.8,1,1.1.3,2.9-.7,3.8-1.2.7-2.4,1-3.7.7-2.9-.6-3.2-2.8-2.6-5.3Z"/>
  <path class="st13" d="M188.8,141.7c1.1.4.3,1.5.9,2.3.8,1.2,10.6,3.6,12.6,4,.4-.7.5-1.5,1.2-1.8h.3c.1.6-.5,1.8-.6,2.4-.9,4.1,0,7.5-4.1,10.2-5.7,2.8-10.3-5.3-5.8-10.2-1.2-.4-2.9-1.1-4.1-1.2-1.6-.1-1.3,1.3-2,2h-.3c0,0-.2-.4-.2-.4,0-.2,1.9-6.6,2.1-7.4Z"/>
  <path class="st12" d="M194.3,149c1.6.4,5.9,1.3,7.2,2.4.3.2.2,1.2.2,1.5-.3,1.5-.6,2.1-1.9,3.1-3.9,1.9-10.3-2.3-5.5-7Z"/>
  <path class="st5" d="M46.5,62.3c.9,0,1.2.8,1.1,1.6-.5,3.7-5,5.4-7.2,8-.9,1-1.2,2.3-1.6,3.6,1.4,0,4.9.1,6-.3.3-.3.3-1.2.5-1.8h.2c.5.4.5,7,0,7.3-.6-.2-.5-1.5-1-1.8-1.4-.8-6.6-.6-8.1-.6-1.3,0-3.5,0-4.7.4-.5.2-.2,1.4-.7,1.9-.3,0-.2,0-.4,0-.2-.7,0-2,0-2.9-.3-2.6-1.1-4.2-.6-6.9.6-2.8,2.3-4,5.2-3.5,1.7.3,2.6,2,3.4,3.4,1.8-4.5,5.1-2.8,7.8-6,.6-.8,0-1.5.1-2.3Z"/>
  <path class="st12" d="M33.3,70.2c1.5-.2,3.3,0,4.3,1.3.9,1.2.6,2.6.4,4-.5,0-1.5,0-2.1,0-1.4,0-4.9.2-5.3-1.4-.5-2,1.2-3.3,2.6-3.9Z"/>
  <path class="st5" d="M36.3,100c2-.3,4.1.2,5.9,1.2,1.1.7,4.2,3.5,3.5,4.8h-.2c-.7-.3-1-1.2-1.7-1.7-2.3-1.5-7.1-1.5-9.7-.9-1.1.3-2.3.8-2.8,1.8-.3.5-.4,1.1-.2,1.6.2.7,1,1.2,1.6,1.5,1.9.9,10,1.2,11.8.4.5-.2.5-.8.7-1.2h.2c0-.1.3,0,.3,0,.2.7,0,4.5,0,5.5,0,.3,0,.3-.2.5-.6-.3-.6-1.2-1.2-1.3-2.4-.6-9.6-.6-11.7.2h-.2c-1.7,1-2.1,2.7-.4,3.9,3.1,2.3,8.5,1.9,11.8.2.5-.3,1-1.4,1.5-1.6h.3c.5,1.2-1.2,3.3-2,4.1-4.9,4.5-13.9,1.6-13.6-5.6,0-1.3.8-2.3,1.8-3.2-4.3-4.2-.7-9.5,4.5-10.4Z"/>
  <path class="st9" d="M151,8.8c.7,0,1.2,0,1.8,0,3.8.4,5.2,4.1,2.5,6.9-.7.8-1.4,1.1-2.3,1.7,5.5,1.6,2.7,4.6,6.5,7.8.7.6,2.1.3,3,.2v.2c-.4.7-1.5,1.1-2.2.9-2.8-.5-5.1-3.7-6.7-5.8-1.6-2-2.6-2.5-5.1-2.8,0,.9,0,4.7.2,5.5.7.5,1.7.1,2,.8-.6.6-3.6,0-4.6.2-.4,0-2.5.2-2.7,0,.4-.4,1.2-.7,1.7-1,.3-.2.4-.4.5-.8.2-1.6.5-10.7-.2-11.5-.5-.7-1.5-.5-2-1l.2-.2c.7-.2,2.1,0,3.1-.1,1.5-.2,2.7-.8,4.2-.9Z"/>
  <path class="st12" d="M150.7,9.7c3.8.5,4.2,6,.7,7.5-.5.1-2.8.4-2.8-.4,0-2.3-.9-6.4,2.1-7.2Z"/>
  <path class="st3" d="M113.6,9.2c1.8-.2,3,.2,4.4,1.3,1.4-1,2.6-1.5,4.4-1.2,1.7.2,3.2,1.1,4.1,2.5,2.4,3.4,1.1,9.6-2.3,11.9-.6.4-1.9,1.1-2.7.9-.3,0-.4-.1-.5-.4l.2-.2c.6-.2,1.1-.4,1.6-.8,2.3-2.3,2.6-10,.3-12.2-.5-.5-1.2-.8-1.9-.7-3.6.3-2.6,10.1-2.4,12.7.5,1.3,1,.8,1.1,1.5-.3.2-4.8.2-5.6.3.4-.3,1.1-.8,1.2-1.3.5-2.3.5-4.7.5-7.1,0-1.4-.1-5.9-2.1-6.1-4.3-.5-4.4,7.3-3.5,9.9.5,1.6,1,3.4,2.8,3.7.3,0,.4.2.4.4-.2.4,0,.2-.4.4-7.2.3-9.2-14,.1-15.4Z"/>
  <path class="st11" d="M165.4,182c.3.2.2,0,.4.4,0,.4-.7,1.1-1,1.5.8,2.4,4.4,6,6.1,8.2.9,1.1,1.7,2.3,3.1,1.8.3-.1.9-.3,1.2-.2v.2c-.1.5-3,2.6-3.7,3.2-.3-.4-.4-.7-.8-.7-.2.2-.3,1.4-.5,1.9-3-.5-9.9-2.7-12.8-3.6,1.3,2,4,5.7,6.1,7,.6.4,1.3-.8,2.1-.5v.3c-.4.8-3.1,2.7-4,3.4-.4.3-.6.6-1,.7l-.3-.3c0-.5.5-.7.8-1.4.1-1.5-2.1-4.2-3-5.5-1.6-2.3-3.3-4.5-4.9-6.7.6-.6.9-.9,1.6-1.4,2.5,1.7,11.6,4,14.9,4.8-1.4-2.8-3.7-5.4-5.7-7.8-2.2-2.6-2.6-.4-3.8-.7v-.2c.3-.8,3.9-3.4,5-4.3Z"/>
  <path class="st5" d="M150.6,193.6l.3.3c0,.5-.5,1-.8,1.4,0,1.3.4,3.4.6,4.7.4,3.1,1,6.2,1.3,9.3.6-.3,3.4-1.6,3.9-1.6.4.2.2,0,.4.5,0,0,0,.2-.1.3-1.4.8-3.4,1.5-4.7,2.2-2,1.1-4,2.7-5.9,3.8h-.2c-.2-.4-.3-.5-.2-.9.3-.3,2-1.3,2.5-1.7-1-1.4-2.1-2.7-3.2-4-1.7-2-3.6-4.2-5.5-6-.5-.5-1.4-.3-2.1-.3l-.2-.2c0-.2,0-.3,0-.4.8-.6,3.9-2.4,4.8-2.4v.2c.1,0,0,.6,0,.6,0,.7,3,4,3.5,4.5,1.5-.9,3-1.7,4.6-2.5-.2-1.1-.6-3.2-1.1-4.1-.8-1.3-1.7-.3-2.5-.5v-.4c.3-.6,4-2.4,4.9-2.8Z"/>
  <path class="st12" d="M149.4,202.7h.2c.3,1.1,1.3,6.7.9,7.4h-.2c-.6-.3-1.2-1.1-1.7-1.6-1-1.2-2-2.3-3-3.5,1-.7,2.6-1.6,3.7-2.2Z"/>
  <path class="st4" d="M80,189.5c1.3.8,3,1.8,4.2,2.7-1.2,1.5-1.9,4.2-2.5,6,1.5.9,2.9,1.8,4.4,2.6,1.1-1,2.2-1.9,3-3.1.8-1.3-1.2-1.7-.5-2.5.9,0,3.3,1.9,4.2,2.4.3.2.4.3.4.6-.3.6-1.6.3-2.3.8-2.4,1.6-4.6,3.6-6.7,5.4-1.1.9-2.3,1.8-3.5,2.7.6.4,1.2.9,1.8,1.3.6.5,1.8,1.1,1.1,2-.3,0-2.4-1.5-2.6-1.8-1.4-1.6-6.7-3.5-7.7-4.5-.2-.5-.2-.2,0-.7h.3c.5,0,2.2.9,2.8,1.2,1.3-2.6,3.3-9.9,4.1-13,.1-.4-.4-.9-.7-1.3,0-.5,0-.3.2-.9Z"/>
  <path class="st12" d="M81.3,199.5c1.3.7,2.6,1.4,3.9,2.2-1.2,1-2.4,2.1-3.6,3.1-.5.4-1.4,1.4-2,1.4-.3-.8,1.4-5.6,1.8-6.7Z"/>
  <path class="st5" d="M196.5,117c-1.2-.3-4.4-1.4-5.3-.4-.3.4-.3,1.1-.8,1.4h-.2c-.4-.9-.4-5,0-5.7h.3c.4.3.4.5.6.9v.2c1.3.9,3.8,1.5,5.3,1.9,2.6.8,4.8,1.3,7.3,2.4.4.2.4.3.8.2.4-1.2-.2-2.7.6-3.4.8.1.6,1.1.5,1.8-.6,2.8,0,5.5,0,8.2,0,.7.3,1-.3,1.5-.7-.5-.7-2.3-.7-3.1-4,.8-8.8,2-12.6,3.4-1.1.4-1,1.2-1.5,2.1h-.2c0,0-.2-.2-.2-.3,0-1-.6-5.7.4-6,.4.2.4.5.6.9v.2c1.7-.2,3.9-.8,5.5-1.3,0-1.7-.1-3.1,0-4.8Z"/>
  <path class="st4" d="M203.7,117.7c.4.2.4.3.8.2.4-1.2-.2-2.7.6-3.4.8.1.6,1.1.5,1.8-.6,2.8,0,5.5,0,8.2-1-1.2.2-5.9-.7-6.4-.5,0-.7.1-1.1-.1v-.2Z"/>
  <path class="st12" d="M197.8,117.4c1.2.3,6.2,1.3,6.3,2.5-.3.4-.4.3-.9.5-1.8.4-3.5.8-5.3,1.1,0-1.4,0-2.8-.1-4.2Z"/>
  <path class="st5" d="M190,70.7h.4c.6.8,1.4,1.7,2.2,2,3.7,1.4,8.3,2.1,11.8,3.9.1-.8,0-3,.5-3.5.5,0,.2,0,.6.2,0,.7-.1,1.9-.2,2.7-.1,1.2-.1,2.4-.1,3.5,0,1.5.3,3.4.3,4.8,0,.1-.1.2-.3.2h-.2c-.4-.7-.4-2.3-.5-3.1-1.6.2-4.1.9-5.8,1.3-2.3.5-4.6,1-6.8,1.9-1.5.6-1,1.9-1.7,2-.4-.5-.5-5.9.3-6.2.4.3.4.5.6,1,1.7-.2,3.8-.9,5.5-1.3-.1-1.7,0-3.2,0-4.8-1.3-.3-3.8-1.2-5.1-.6-.8.4-.1,1.3-1,1.7l-.2-.2c-.4-1-.3-4.5-.2-5.7Z"/>
  <path class="st12" d="M197.8,75.8c.4,0,1.5.3,1.9.5,1.1.4,4.3.9,4.5,2.1-.3.3-.3.2-.8.4-1.8.4-3.7.8-5.5,1.2,0-1.5-.1-2.7-.1-4.2Z"/>
  <path class="st5" d="M45.1,82.1c.2,0,.2,0,.5.1.3.8.3,5.5-.2,6.2h-.2c-.3-.3-.3-.7-.3-1.2-1.9.1-3.7.6-5.5,1,0,1.7,0,3.2-.1,4.9,1.2.4,2.6.8,3.9,1,2.3.4,1.5-1.2,2.2-1.8h.2c.4.8.4,5.4,0,6h-.2c-.4-.3-.4-.5-.5-.9v-.2c-1.6-1.5-5.1-2.4-7.2-3-2.3-.7-4.2-1.2-6.3-2.3-.2,1,0,3.5-.9,3.9h-.2c-.3-.9.2-3.9.3-4.9.2-1.1-.6-6-.3-6.5h.4c.4.4.5,2.2.5,2.9,3.4-.8,10.1-2.1,13.4-3.6.4-.2.5-1.1.6-1.6Z"/>
  <path class="st12" d="M37.7,88.6c.3.4.2,3.5.2,4.2-1.5-.4-3-.9-4.5-1.3-.7-.2-1.5-.3-1.8-1.1v-.3c1-.6,4.8-1.2,6.1-1.5Z"/>
  <path class="st5" d="M45.3,36.6h.3c.4.8.3,5.6-.2,6.2h-.2c-.3-.3-.3-.7-.4-1.1-1.8.2-3.6.6-5.4,1,0,1.5-.1,3.5-.2,4.9,1.3.4,3.2,1,4.6,1.1,1.1,0,1.1-1.2,1.6-1.8h.2c.3.8.4,5.2,0,5.8-.5,0-.9-1.4-1.5-1.7-1.9-1-4.4-1.7-6.4-2.3-2.4-.7-4.2-1.2-6.4-2.3-.1.9-.1,3.6-.7,4-.4-.1-.3,0-.5-.3,0-.7.2-1.6.3-2.4.1-1,.2-2,.2-2.9,0-1.2-.4-5-.3-5.7l.2-.2h.2c.5.6.5,2.2.6,3,3.8-.8,9.4-2.1,13.1-3.5.6-.2.8-1.1,1-1.7Z"/>
  <path class="st12" d="M37.1,43.2c.2,0,.2,0,.5,0,.4.7.3,3.2.3,4.1-1.5-.4-3-.9-4.5-1.4-.6-.2-1.9-.5-1.8-1.2.7-.7,4.4-1.2,5.5-1.4Z"/>
  <path class="st4" d="M54.8,9c2.6.1,5.1.8,7.8.6.8,0,3.2-.7,3.3.3-.3.4-2.1.4-2.7.5.2,2.4,2.1,11.2,3.1,13.3.5.2,1,.3,1.3.7l-.2.2c-.8.2-4.9.5-5.3-.2.2-.3.3-.3.7-.4.4-.7-.6-4.4-.8-5.3v-.3c-.8-.2-3.8,0-4.7,0-2.2,7,.8,4.4,1.3,5.7-1,1.3-4.4.7-6,.6,3.8-3,3.3-9.7,5.6-13.5.1-.2,1-.6,1.3-.7-1.2,0-3.7,0-4.6-.5-.2-.4-.1-.3,0-.8Z"/>
  <path class="st12" d="M60.1,10.4c.5.5,1.4,5.2,1.6,6.2-.9,0-1.8.1-2.7.2h-1.4c.6-2.1,1.2-4.6,2.5-6.4Z"/>
  <path class="st4" d="M169.5,9c1.5,0,3.8.6,5.7.6,1,0,4.7-.3,5.3-.2.2.3.1.2,0,.6-.3.2-2,.3-2.5.4.5,3,2,10.8,3.2,13.4.5.1.9.2,1.2.6v.2c-.9.2-5,.5-5.5-.2.4-.7.2,0,.8-.6,0-1.4-.5-3.5-.8-5,0-.3,0-.3-.2-.5-.6-.2-3.6,0-4.4,0-.3,1.1-1.1,3.5-.7,4.7.2.6,1.2.7,1.9,1v.2c-1,.8-4.8.8-5.7.3.2-.3,1.1-1.2,1.2-1.5,1.9-3.6,2.3-8.4,3.8-12,.5-.2,1-.4,1.5-.6-1.3,0-3.7,0-4.7-.4-.3-.4-.2-.3-.2-.9Z"/>
  <path class="st12" d="M174.9,10.4c.6.7,1.4,5,1.6,6.2l-2.6.2h-1.4c.8-2,1.1-4.6,2.5-6.4Z"/>
  <path class="st3" d="M130,8.9c1.3.1,3.3.4,4.6.6,1.5.2,5.4-.4,6.4,0,0,.3,0,.2,0,.4-.6.2-1.8.3-2.6.4,0,0,0,0,0,.1.2,1.7,2.3,12.2,3.1,13.1.4.4,1,.2,1.5.6,0,.3,0,.2-.1.4-1.1.1-5,0-6.1,0,.3-.2,1.2-.7,1.3-.8.2-.9-.5-3.8-.7-4.6,0-.4,0-.6-.3-.9-.6,0-3.6,0-4.5,0-.3,1.2-1,3.4-.6,4.5.2.8,1.3.8,2,1.1-.8,1.3-2.8.8-4,.8-.6,0-1.3.3-1.7-.2.2-.4.8-.8,1-1.2,2.2-3.6,2.4-8.3,4-12.1.4-.3,1-.6,1.4-.8-1,0-4,0-4.7-.5,0-.5,0-.2.1-.8Z"/>
  <path class="st12" d="M135.2,10.4c.6.6,1.3,5.1,1.6,6.2-.9,0-1.8.1-2.6.2h-1.4c.5-1.7,1.4-5,2.5-6.4Z"/>
  <path class="st5" d="M196.7,36.3c5.1-.5,8.8,3.5,9,8.4,0,1.6-.3,3.2-.7,4.7.6.3,1.7.9,1.8,1.6-.6.2-1.9-.5-2.6-.7-1-.3-2-.6-3-1h0c.5-.7,1.5-.8,2.1-1.4.9-.8,1.4-2.3,1.4-3.5,0-6-9.5-6.3-12.7-2.8-1.3,1.4-1.4,2.2-1.4,4,.4,1.3.8,2.4,2.2,2.9,1.7.7,4,0,4.7-1.8.4-.9,0-1.8-.9-2.1-.8,0-1.2.8-1.8,1.4-.3-1.2-.9-3.8.8-4,3.4-.4,3.6,6.7,2.1,8.5-1,1.7-3.8,1.4-5.2.1-5.4-4.9-3.1-13.4,4.1-14.5Z"/>
  <path class="st8" d="M47.3,139.9c.3,0,.4.1.5.4-.4.8-1.7.6-1.1,1.7,1.1,2.1,1.6,3.8,1.6,6.1.2,7.3-8.8,10.1-13.6,5.3-2.6-2.6-2.6-5.7-2.5-9.1-.8,0-1.4,0-1.9-.7v-.2c.6-.3,3.6.4,4.8.4-1.5,1.6-2.1,2.6-1.7,4.8.8,3.1,3.6,3.9,6.5,3.8,0-2-.7-5.4-1.5-7.3-.2-.5-1-1.1-1.1-1.6.6-.4,3.4-.6,4.2-.6-.6.8-1.1,1.5-1.1,2.6,0,2.1.7,4.5,1.1,6.5,3.9-.9,7.2-4.3,4.6-8.5-.7-1.1-1.7-1.4-2.6-2.3h0c.8-.6,2.7-1.1,3.6-1.4Z"/>
  <path class="st5" d="M57,166.4c.4.2.3,0,.5.4,0,.5-.4,1-.6,1.5,2.3,1.4,4,3.1,5.3,5.5,3.2,6.2-4.1,12.7-10.1,10.3-3.1-1.2-4.5-3.4-5.9-6.3-.5.1-1.1.4-1.6.3-.2-.3-.3-.3-.4-.7,2.4-.9,2.8-1.1,5-2.3-1.2,2.2-1.4,3.4-.1,5.7,2,2.6,5.1,1.7,7.4.1-1.2-2.3-3.7-5.1-6.1-6.2,1.4-.9,1.9-1.2,3.1-2.4,0,.4.1,1.2.3,1.7.6,1.7,2.9,4.5,4.2,5.8,2-1.9,3.4-4.4,2-7.1-.8-1.6-2.6-2.9-4.4-2.8-.7,0-1,.4-1.7.2v-.3c.4-.7,2.2-2.3,3-3.3v-.2Z"/>
  <path class="st5" d="M177.1,172.9c2.7-.1,5.2,1.5,6.7,3.7,1.2,1.8,1.6,3.9,1.2,6-.7,3.5-2.7,4.7-5.3,6.4.2.6.4,1.2.2,1.9h-.2c-.4-.5-2.1-3.5-2.6-4.3.5.2,1.1.4,1.7.5,1.3,0,2.5-.4,3.5-1.2,2.4-2.2,1-5.3-1-7.2-1.5,1-2.9,2.8-4,4.2-.8,1-.8,1.4-1.2,2.6-.8-.7-2-2-2.6-2.8,2.7-.3,4.8-3.1,6.5-5.1-1.9-1.6-4.3-2.6-6.7-1.4-1.9.9-3,2.9-2.8,5,0,.5.6,1.3.4,1.9-.5,0-3.7-2.7-3.7-3.4h.3c.4-.1.8.2,1.2.4.8-1,1.5-2.5,2.4-3.6,1.7-2,3.5-3.2,6.1-3.5Z"/>
  <path class="st4" d="M73.3,183.6c.7.5,1,.8,1.5,1.4-.7,2.4-1.5,4.9-2.3,7.3-.7,2.2-1.8,5.5-2.1,7.8.3.5.9,1.1.5,1.6-.4-.2-5.2-4.2-5.5-4.6,0-.3,0-.3.3-.6.3,0,1.2.6,1.7.8h.1c1-1.8,3-8.3,3.7-10.5l.3-1.1c-2.7,1-5.6,2.6-8.1,4.1-3.6,2.1-1.1,3.4-1.2,4.1l-.3.2c-.5-.1-4.6-3.6-4.8-4,.2-.4,0-.2.4-.4,1.1.3,1.7,0,2.7-.6,4.3-2,8.5-4,12.9-5.6Z"/>
  <path class="st5" d="M95.8,7.6c.4.1.4.1.6.4,0,.5-.6,1-.7,1.5-.3,1.1-.6,2.1-1,3.2-2.2-2.8-5.5-3.9-7.5,0-.5.9-.6,2-.7,3.1,2.5,0,5.7.2,8-.9-.2,1.2-.4,2.4-.7,3.6-.4-.4-.7-.7-1.1-1-2-.3-4.2-.2-6.2-.2.2,3.4,1.3,6.4,5.3,6.3,2.8-.5,3.1-2,3.9-2.2l.2.2c0,.8,0,3.4-.2,4h-.2c-.4-.3-.4-.7-.6-1.2-3.6.3-8.1,1-10.5-2.7-2.3-3.5-1.4-9,2.2-11.2,2.7-1.7,5.2-1.5,8.2-.8.4-.8.6-1.3,1-2.1Z"/>
  <path class="st5" d="M201.6,86.5c.8,0,4.2.7,4.7,1.2v.2c-.4.1-.6.2-.8.5-.7,2-.3,10.2-.1,12.5.4.3.7.4.8.9v.2c-.3,0-.5,0-.7,0-.8-.4-3.5,0-3.9-.8l.2-.3c.2,0,.4-.1.6-.2,1.4-.1,1.1-4.1,1.1-4.9-1.8-.2-3.8-.2-5.6-.2-1.1,0-5.7-.2-6.5.4-.4.3-.5,1.6-.9,1.9h-.2c-.4-.7-.3-6.2-.1-7h.2c.5.2.4,1,.9,1.5.2.2.4.3.7.4.6,0,3.1,0,3.8,0,2.6,0,5.3,0,7.9,0,0-1.2,0-2.9-.2-4-.3-1.2-1.4-.9-1.6-2.2Z"/>
  <path class="st5" d="M75.9,21.2c1-1.7,3.9-8.8,3.7-10.5-.5-.8-.9-.5-1.9-.8v-.2c-.1,0,0-.2,0-.2.6-.1,5.2-.2,5.6,0,0,.5-1,1.2-1.3,1.6-.4.5-.6,1.2-.9,1.8-.9,2-4.9,11.2-6.3,11.8-.1,0-.2,0-.3,0-.8-.4-4.7-12.3-5.8-13.8-.5-.6-1.2-.7-1.7-1.2h0c1.4-.3,4.4-.2,6.2-.3.2,0,.3,0,.6,0l.2.3v.2c-.5.3-1.4.3-2,.4,1,3.5,2.7,7.5,4,10.9Z"/>
  <path class="st2" d="M183.9,157.1c.3,0,.3.1.5.3.2.6-.2,1.3-.1,1.9.1.5.6.9,1,1.2,1.2.8,9.8,5.2,10.7,5,.6-.2.9-1.1,1.5-1.2l.2.2c-.2,1-2.6,5.4-3.1,6.7,0,.2-.2.2-.4.2-.8-.7,1-2-.6-3.2-1.2-.9-2.4-1.4-3.7-2-1.8-1-4-2.3-5.9-2.9-2.2-.8-3.2,4.2-3.4,5.6.5,1,.6.7.7,1.9h-.2c-.5-.2-2.9-2.2-3.6-2.7-.2-.1-.1-.2-.1-.4l.2-.2c.5,0,1.3,0,1.5-.5,1.3-3.4,3.3-6.5,4.8-9.8Z"/>
  <path class="st5" d="M51.8,157.6c.3.2,3.1,5.7,3.5,6.6,0,.4,0,.2-.3.5-.4,0-1.3-1.6-2-1.4-3.7,1.3-7.6,3.4-11,5.5-.9.6,0,2.1-.1,2.9h-.4c-.5-.4-1.7-3.8-2.3-4.5-.3-.3-1-1.8-1.2-2.3v-.2c.5.2,1.9,1.4,2.4,1.1,2.7-1.4,9.7-4,11.4-6.3-.2-.9-.7-1.4,0-2.1Z"/>
  <path class="st5" d="M204.8,103.4c.2,0,.4.1.6.2,0,.1.1,7.4,0,7.6-.4,0-.2.1-.6-.1v-.6c-.2-.3-.2-.7-.3-1-.2-.3-.4-.4-.8-.5-1.5-.3-11.7-.5-12.5.2-.4.4-.4,1.3-.4,1.9-.2.2-.1.1-.5.2-.2-.2-.3-.3-.3-.6,0-2.3,0-4.7,0-7,.3-.2.1-.1.5-.1.5.4.3,1,.5,1.5,0,.3.3.6.6.7,2.2.3,11.2.4,12.8-.1.6-.6.5-1.4.5-2.2Z"/>
  <path class="st3" d="M197.7,106.6c.3.5.4,1.1-.2,1.5-.2-.3-.1-.2-.2-.5,0-.5.2-.6.4-1Z"/>
  <path class="st5" d="M159.8,9.4c1.9,0,5.2,0,7.1,0,.2.2.1,0,.2.4-.4.5-1.4.2-1.9.7-.6,1.6-.7,10.5-.2,12.6.2,1.1,1.3.6,1.9,1,.2,0,.1.4.2.6-1.1,0-6.7,0-7.3-.2.2-.5,1.4-.7,1.8-1.3.8-1.1.5-10.8.3-12.6v-.2c-1.1-.2-1.9.2-2.1-.9Z"/>
  <path class="st0" d="M38.6,59.7c-2.2,0-4.5,0-6.6.2-1.4.2-.5,2.2-1.6,2.4-.4-.6,0-3.2,0-4.1,0-1-.2-2.4,0-3.4h.2c0-.1.3,0,.3,0,.4.4.2.9.6,1.7.7.7,5.3.6,6.5.6h.6c.6,1.1,0,2.1.2,2.8Z"/>
  <path class="st10" d="M37.8,56.9c1.5,0,5.6.2,6.8-.4.9-.9-.2-1.8,1-2,.3.5.3,7.4-.2,7.7-.9-.4-.1-1.8-1-2.1-1.6-.6-4-.5-5.8-.5-.2-.7.4-1.7-.2-2.6h-.6Z"/>
</svg>