<?xml version="1.0" encoding="UTF-8"?>
<svg id="Capa_2" xmlns="http://www.w3.org/2000/svg" version="1.1" viewBox="0 0 232.2 232.1">
  <!-- Generator: Adobe Illustrator 30.3.0, SVG Export Plug-In . SVG Version: 2.1.3 Build 157)  -->
  <defs>
    <style>
      .st0 {
        fill: #484846;
      }

      .st1 {
        fill: #5f84f2;
      }

      .st2 {
        fill: #d42525;
      }

      .st3 {
        fill: #f4ea60;
      }

      .st4 {
        fill: #565555;
      }

      .st5 {
        fill: #305cdd;
      }

      .st6 {
        fill: #fbf273;
      }

      .st7 {
        fill: #3871c8;
      }

      .st8 {
        fill: #3d3d3b;
      }

      .st9 {
        fill: #e8dd46;
      }

      .st10 {
        fill: #222221;
      }

      .st11 {
        fill: #2e2f2d;
      }

      .st12 {
        fill: #426ae3;
      }

      .st13 {
        fill: #2551d2;
      }

      .st14 {
        fill: #f0e559;
      }

      .st15 {
        fill: #e5da40;
      }
    </style>
  </defs>
  <g>
    <path class="st7" d="M11.4,43.3v54.8c.2,5.5.8,10.7,1.6,15.9,2.2,13.2,6.6,25.9,12.7,37.9,4.7,9.2,10.4,17.7,16.9,25.7s8.7,10,13.5,14.6c4.3,4.2,8.8,8.1,13.6,11.8,4.4,3.5,8.9,6.7,13.7,9.8,10.5,6.8,21.5,12.6,33.1,17.6,25.1-10.7,48.1-25.7,66.8-45.7,17-18.3,29.6-40.2,35.2-64.5l.9-4.3c1-6.1,2.1-12.3,2.1-18.6V0s-29.6,0-29.6,0h-11.3s-11.8,0-11.8,0h-12.8s-21.2,0-21.2,0h-16s-64.5,0-64.5,0H11.4s0,43.3,0,43.3Z"/>
    <path d="M118.9,5h0,16s21.2,0,21.2,0h12.8s11.8,0,11.8,0h11.3s24.7,0,24.7,0v93.2c0,5.8-1.1,11.7-2.1,17.5h0c0,0-.9,4.3-.9,4.3-5.1,22.3-16.9,43.8-34,62.2-16.8,18.1-38.1,32.7-63.1,43.7-10.8-4.7-21-10.2-30.4-16.3-4.7-3-9-6.2-13.3-9.5-4.7-3.7-9-7.5-13.2-11.5-4.8-4.7-9.1-9.3-13.1-14.2-6.4-7.9-11.9-16.2-16.3-24.8-6-11.7-10.2-24-12.3-36.4-.9-5.2-1.4-10.1-1.6-15.2v-54.7s0-38.3,0-38.3h37.9s64.5,0,64.5,0M118.9,0H54.3S11.4,0,11.4,0v43.3s0,54.8,0,54.8c.2,5.5.8,10.7,1.6,15.9,2.2,13.2,6.6,25.9,12.7,37.9,4.7,9.2,10.4,17.7,16.9,25.7,4.2,5.2,8.7,10,13.5,14.6,4.3,4.2,8.8,8.1,13.6,11.8,4.4,3.5,8.9,6.7,13.7,9.8,10.5,6.8,21.5,12.6,33.1,17.6,25.1-10.7,48.1-25.7,66.8-45.7,17-18.3,29.6-40.2,35.2-64.5l.9-4.3c1-6.1,2.1-12.3,2.1-18.6V0s-29.6,0-29.6,0h-11.3s-11.8,0-11.8,0h-12.8s-21.2,0-21.2,0h-16Z"/>
  </g>
  <g>
    <path class="st10" d="M160.6,24.2c2.7,0,5.3.5,7.9,1.6,4.9,2.2,7.9,7.1,7.6,12.5-.4,6.1-4.3,12.1-8.7,16.3l-8.6,8.2c2.4-1.4,4.5-2.7,7-3.3l3.6-.9c1.6-.4,2.9-1.2,4.1-2.4s1.7-1.5,2.3-2.6c1.3-2.4-.2-5.7-1.3-8.5l2.3.6c2.7,1,4.4,3.5,4.5,6.4s-1.7,8.9-4.7,11.5c1.6,1,2.9,2,3.8,3.5,1.8,2.7.9,5.7-1.3,8s-3,2.6-4.7,3.4l-2.7,1.2c-4.8,2.2-6.9,5-6.5,10.5.9-2.4,2.7-4.2,5.1-5.3s2.7-1.1,4.1-.9c3.8.4,6.4,4.3,8,7.8,0,.2-.6.8-.8.6-1.5-1.3-3.1-2.3-4.9-2.8-2.6-.7-5.1.4-6.4,2.8s-1.3,3.5-1.3,5.4v14.7c-.5,2.2-1.3,4.1-2.5,5.9-3.9,5.6-10.5,5.9-16.7,3.7l1.1,7.6c.2,1.3,1.4,2.3,2.1,3.3,1.3,1.5,2.3,2.9,3.3,4.6l1.8-.2c1.1,0,2,.2,2.5,1.3.8-1.9,2.7-3.1,4.9-2.8s3.5.2,5-.9l4.2-3.1c.3-.2.7-.3.9,0s0,.5-.2.8c-.7,1-1,2.2-1.3,3.3l-1.4,4.3c-1.2,2.7-3.8,4.1-6.9,3.5,0,1.4,1.1,2.5,2.6,2.4s3.1-.4,4.7-.8,2-.5,2.8-.2c2,1.1,3.1,3.3,2.6,5.6s-1.9,2.6-3.5,2.6l-.9-2.4c-.2-.4-.8-.6-1.2-.3l-2.4,1.6c-1.6,1.1-3.4,1.2-5.4.7l2,3.3c1.3,2.2,4.1.6,6.4-.6-1,3.4-5.3,4-8.9,3.7,1.2.9,2.5,1.5,4,1.9-1,1.6-2.5,2.3-4.4,2.5.5,1.4,1.5,2.8,3,3.3l2.9,1-2.1,1c-1.5.7-3.3.5-4.7-.4.1,1.9,0,3.4-1.8,4l-1.6.6.3,3-1.6-.4c-.4,1.6-.4,3.2.2,4.9-2.8.9-5.6-.6-6.4-3.7-.9,1.4-.1,3.2-1.6,5.1l-.5-.5c-1.9,1.6-1.3,3.7-.4,6.1-3-.2-5.7-2-5.5-5v-1.5c0-1.8.4-3.2,1.4-4.8l-3.1,1.9c0,1.2-.7,2.3-1.8,2.8l-2.3,1.3c-.2-.7-.3-1-.2-1.4l.6.3v-.5c1.4,0,2.9-1.3,2.8-3l6.4-4.1c.3.1.6.5.7.7l-1.8,2.1c-.6.7-1.1,1.4-1.4,2.4,2.1-1.1,3.4-.2,5.1,1.4l.3-2.4c.1-.9.5-1.6,1.2-2.2l.6-1.7c.3-1,.9-1.7,1.8-2.3l.6.8c-.9.7-1.3,1.4-1.4,2.5.8-.4,1.7-.7,2.5-.5l2.8.5-.3-2.3,2.1-.9c.8-.4,1.5-1,1.4-2l-.4-3.4,2.1,1.5c1,.7,2.3.7,3.4.2-1.6-.6-2.8-1.6-3.6-3l-1.1-2.1,2-.3c.8-.1,1.7-.5,2.3-1-1.8-.9-5.3-2.8-5.2-3.8s.6-.4.8-.3c1.8.8,3.7,1.1,5.7.7-.7-.3-1.4-.7-1.9-1.3l-1.6-2.7c-.7-1.2-1.6-2.2-2.7-3.2,0-.2.4-.6.6-.7,2.4,1.8,5,2.7,7.4,1l2.3-1.6c.7-.5,1.8-.4,2.3.4s.7,1.3,1,2.1c1,0,1.8-1,1.9-2.1s-.4-2.6-1.3-3.5-1.5-.7-2.4-.5c-3.5,1-7.9,2.1-8.9-1.4s-.6-1-1.2-1.4c0-.2.1-.7.2-.9,3.1.9,6.1.7,7.6-2.2s.9-2,1.2-3l1-3.6-3.5,2.3c-2.6,1.7-5.6-.5-7.8,1.5s-1.2,1.9-1.2,3.2c-.2.1-.7.2-1,.1-.1-.9-.2-1.7-.8-2.4s-2.7.5-3.8-.5l-2.5-3.7-2.6-3.4c-.6-.7-.6-1.9-.8-2.8l-1.4-11-2.1-2.4c-1.1-1.2-2-2.5-2.8-3.9l.9-.4.8,1.2c.5.8,1.1,1.7,1.9,2.3,3.6,2.7,8.6,3.7,12.6,1.5s3.9-4,3.8-6.9c-.2-3.9-2.8-7.5-5.4-10.4l-4.3-4.5c-1.8-1.8-3.2-4-4.5-6.2l.8-.5c1.7,2.9,3.8,5.5,6.1,7.9l3.2,3.4c2.8,2.9,5.4,7.5,5.1,11.4v.5c-.3,3.3-2.7,6-5.9,7.1s-5.9.6-8.6-.4h-.5c0,0,.6,4,.6,4,.8.6,1.8.9,2.8,1.1,2.4.5,4.7.7,7.1.2s4.7-1.9,6.2-4.1,2.2-3.6,2.3-5.6v-7c.1,0,.2-8.1.2-8.1,0-2.5.9-4.7,2.2-6.6l.7-.7c.8-.5,1.7-1.1,2.6-1.3,2.4-.6,4.6.3,6.9,1.6-1.2-2.6-4.2-5.5-6.6-5.3h-1c0,0-.7.3-.7.3-2.1.5-3.9,1.8-5.2,3.6-2.5,3.7-.8,7.7-1.3,7.9s-.6,0-.8,0l-.5-5.2c-.4-4.2.2-7.9,3.6-10.5s2.1-1.4,3.2-1.9c3.2-1.4,6.7-3,8.6-6.3s.5-5.3-2.1-7.2c1,4.7-2.8,6.9-6.9,8s-6.7,2-9.5,4.1-1.4,1.2-1.6,2c0,0-.3-.2-.4-.3l-.3-.4.3-.7c.1,0,.4,0,.4-.1v-.4s1-.9,1-.9c2.8-2.1,5.9-3.3,9.3-4.2s3.4-1,4.9-2c2.4-1.6,2.6-4.1,1.4-6.6-1.9,1.4-3.7,2.6-5.7,3.4l-6.3,2.6c-1,.4-2.1.8-2.8,1.5l-1.6,1.8-.6-.7c.6-.7,1.2-1.7,2.1-2.2,1.5-.9,3.1-1.5,4.7-2.1l4.6-2c1.9-.8,3.7-1.9,5.3-3.3s2.7-3.1,3.5-5.2c1.7-4.6,2.1-9.4-2.8-11.3l-.2.2c1.1,2.8,1.7,6.5-.6,8.6l-2.8,2.5c-1,.9-2.4,1.3-3.6,1.6-1.8.4-3.7.8-5.5,1.5s-4.6,2.5-6.4,4.3h-.2c-.2.1-.6-.4-.5-.6l.7-.8-.7.2c-.1,0-.3-.5-.3-.6l.4-.4,8.6-8,2.2-2.1c3.7-3.6,7.3-9.4,7.6-14.8.3-5.2-2.6-9.8-7.3-11.8s-7.5-1.8-11.3-1-3,1-4.4,1.8c-3.1,1.9-5.5,4.9-5.8,8.6l-.9-.2c.2-2.8,1.6-5.4,3.7-7.3,3.2-2.9,7.2-4.4,11.5-4.3ZM176.1,46.9v-.2c.1,0,0,.2,0,.2ZM157.7,63.8c0-.1,0-.2-.2-.2s-.2,0-.2.2,0,.2.2.2.2,0,.2-.2ZM157.2,180.4c-.3-1.4-.2-2.8,0-4.1-1.2-1-3.3-.7-4.2.8.2,2,2.1,3.6,4.2,3.3ZM147.8,184.5c0-1.3.5-2.2,1.4-3.1-.5-.7-1-1.3-1.7-1.6s-1.7.2-2,.8c-.4.9-.5,2.1-.4,3.1.1,1.7,1.4,2.9,3.1,3.2l-.3-2.4Z"/>
    <path class="st10" d="M127.1,126.5l-.4,4.3c-.1,1.1.6,2.1,1.4,2.6l2.2,1.2-3.2.8c-2.9.7-2.4,4-1.8,6.9s-2,5.5-5.5,6.6c2.3,1.4,5.1,1.6,6.7-.6s1.5-2.4,1.7-3.8l.8-5.4,1.7,3.2c.8,1.6,2.3,2.6,3.8,3.2l2.2.9c6,2.5,9.4,6,13.4,10.9-.2.7-.4,1.4-.4,2.2v2.8c.1,2.4-1.2,4.2-3.1,5.4-4,2.7-5.5-1.3-9-.4-.2-.3-.7-.4-1.2-.5,1.7-1,3.7-.7,5.4.3s2.9.8,4.2-.1c4-2.6,2.3-5.5,2.9-9.5-1.7-2.1-3.5-4.1-5.6-5.9s-5.3-3.7-8.4-4.8c-2.3-.9-4.2-2.3-5.4-4.5-.6,4-2.3,8.5-6.3,8.6s-4.2-1.1-6-2.5c3.7-.8,7.8-2,7-6s-.5-2.8-.4-4.1c0-2.1,1.4-3.6,3.7-4-1.6-1-2.3-2.8-1.8-4.8l-4.1.9.3-.7.2-.4,3.8-.8.2-1.4c0-.4.6-.6,1-.6Z"/>
    <path class="st10" d="M109.3,139.1c-1.8,3.1-.6,6,2.3,8s1.7,1.4,1.6,2.6-.9,1.4-1.6,1.8c.2,1.3.4,2.7-.4,3.8s-1.5,1.3-2.5,1.7l.3,3.4-1.4,3.1c-.4.8,0,1.7.9,2l3.8,1.4-6.3.7c-1,.1-2.2,0-3.1-.5l-1.9-.9c-.9-.5-1.1-1.5-1.4-2.5l-1.4,2.4c-1.1,1.5-2.9,2.2-4.8,2.1l-4.5-.7c.2,2.7,2.7,2.6,2.5,4.6l-.2,1.4-1.2-.3c0-.2-.2-.6-.2-.8-.8-.3-1.7-.3-2.6-.4l-.8-.2c.5-.2,1.5-.2,2.2,0l1.9.4c.3-1.4-2.1-1.6-2.4-4.3l-.2-1.6,5.1.8c2.1.3,4-.6,5-2.4s1.2-2.9,1.5-4.5h.5c.1,0,.5.2.5.4l.4,3.5c.3.9.7,1.3,1.6,1.3.7.6,1.6,1.1,2.5,1.1l3.5-.2c-1.3-.6-2-1.6-1.7-3s.8-2.1,1.3-3.2,0-1.2,0-1.6l-.3-2.4c1.2-.3,2.2-.6,2.8-1.6s.3-2.4,0-3.6c.7-.3,1.3-.6,1.7-1.1s0-1.1-.3-1.4l-2.3-1.9c-1.8-1.9-2.4-4.2-1.8-6.5,0,0,.1-.1.2-.2l.4-.9h1Z"/>
    <path class="st11" d="M136.6,166.8c.5,0,1,.1,1.2.5v1.4c0,1.3-.2,2.5-.7,3.6l-.2,1-.2.4-.9-.9c-.3-.3-.9-.4-1.3-.1l-1.7,1.2c-.5.4-1.1.6-1.8.6-1.1-1.4-1.2-3.2-.2-4.7s3.6-3,5.8-2.9ZM133.8,171.9c.7-.5,1.5-.5,2.3-.2l.6-4c-2-.2-4.1.7-5.2,2.4s-.8,2.1,0,3.3l2.3-1.6Z"/>
    <path class="st11" d="M136.9,175.4c1.3,1.8,2.1,3.7,1.9,5.9v.5c-.1,0-.7-.3-.7-.3-.2-.3-.8-.7-1.2-.7-1.2.1-1.5,2.1-3,3.1-1.3-1.5-2.3-3.3-2-5.1s1.8-2.8,3.4-3.4,1.3-.4,1.6,0ZM133.9,182.6l1.4-1.9c.6-.7,1.5-1,2.5-.5,0-1.6-.7-2.8-1.7-4-2.2.8-3.7,2-3.3,4.3l1.1,2.2Z"/>
    <path class="st11" d="M72.1,167l1.2,1c1.1,1.1,1.5,2.5,1.2,3.9l-.3.7c0,.1-.4.1-.5,0-.4,0-1,0-1.4.1s-.8.5-.9.8l-1.2,3.1c-1.1-1.6-2-3.1-2.4-4.8s.3-3,1.6-3.9,1-.6,1.4-.7l1.2-.3ZM70.8,172.9c.5-1,1.6-1.3,2.7-1.2.6-1.6-1.3-3.6-1.8-3.6-.9,0-3,1.1-3,2.9s.5,2.4,1.2,3.5l.9-1.6Z"/>
    <path class="st11" d="M86.4,171.9l.8.2c.9,0,1.8,0,2.6.4,0,.2.2.6.2.8,0,.7-.1,2-.4,2.8-.7,2-2.7,3-4.7,2.6s-1.9-.8-2.8-1.5l1.1-.5c1-.5,1.3-1.8.9-2.6s0-.7,0-.9l2-1.1.4-.2ZM88,176.7c.9-1,1.1-2.4.9-3.6-1.4-.5-2.7-.3-4,.5.4,1.3.2,2.7-1,3.6,1.3.8,3,.7,4.1-.5Z"/>
    <path class="st10" d="M86,172.1l-2,1.1c0,.2,0,.7,0,.9l-.7.5-.4-.3-.2-.6c-.4-.9-.3-2.1.4-2.9s.3-.9,0-1c-.3-.2-.9-.2-1.2-.2-.5.9-1.1,1.3-2.1,1.5l-1.3.2c-.4.9-.8,1.8-1.5,2.4s-1.8.7-2.7,0l-.6-.5-.2-.4c.1,0,.4,0,.5,0l.3-.7c0,.6.8,1.5,1.6,1.2s1.2-1.2,1.5-2c.6-1.9,3.1,0,3.9-2.9l1.7.4c.9.3,1.6,1.5,1,2.3s-.9,1.3-.5,2.1c.8-.5,1.6-.9,2.4-1.1Z"/>
    <path class="st10" d="M136.9,175.4c-.3-.4-1.1-.3-1.6,0l.2-1h2.6c0,0-2.9-.5-2.9-.5l.6-1.1.9.9.2-.4,2.3.2c2.4.2,4.5-.5,6.5-1.7l.5.8c-2.8,1.9-6,3-9.4,2.9Z"/>
    <path class="st5" d="M73.7,172.7l.2.4c0,0-.4.2-.5.2l-1.1-.5c.4-.2,1-.2,1.4-.1Z"/>
    <path class="st11" d="M128.1,15.8c-1.3,1.1-2.6,2.2-1.7,3.5s2.8,1.3,3.6.5.7-1.3,1.1-1.9l.6,1.7c.8,1.5,2.5,2.3,4.2,1.9s1-3.3.6-5.1l5.4-1.8,2.8-.9-3.8,6.3-4,6.6-.3,3.1c.8,0,1.8-.2,2.6-.2s.5,1.4,0,1.8c-1,1-2.2,1.6-3.6,2.2,1.2.3,2,1.3,2.1,2.5l.2,2.7c0,.3.6.8.8,1,1.2,1.6,2.8-.1,4.4-1.6l.7.5-.7,2.7c-.4,1.7-1.4,3.1-3.2,3.4,2.1,2.4,1.7,4.6,2.1,6.9s3.2,4.6,4.2,4,.6-.5.8-.8c1.8-4.3.8-9.1-.7-13.5s-.9-3.7-.7-5.5l.9.2c0,1.5,0,3,.6,4.6,2,6.3,3,11.7-.7,17.6h1.3s0,.9,0,.9c-1,.1-1.9,0-3,0l.8-1.4c-1,.5-1.9.8-2.8.8h-.9c1.7,2.4,1.4,5.3.6,8l-1.2,4.8h-.4c0,0,0-.4,0-.5l-.4-.3,1.2-4.7c.7-2.7.8-5.8-1.4-7.4l-1.3-1v-.3s3.3.4,3.3.4c1.1.1,2.2-.2,3-.9-2-1-3.9-2.8-4.2-5.1s-.1-3.4-.9-4.9-1-1.5-2-1.7c0-.2,0-.8.1-1,1.1,0,2.3-.2,3.1-.9s1-1.8,1.1-3c-.8.5-1.6,1.2-2.6,1.2s-2.7-1.8-2.8-2.8v-2.1c-.2-1-.6-1.9-1.7-2.1s-1.9-.1-3,0l-.2-.9,2.9-.7c1.3-.3,2.6-1,3.7-2.1h-5.1c-2.1.2-4.5.2-5.2,2.2h-.9c0-1.6.9-2.8,2.4-3l1.7-.3-.6-.2-.4-1,5.1,1.1.2-2.5c-3.4-.9-6.8-1.6-10.3-1.9l-.4-1c3.7.3,7.4,1,11,2l6.4-10.5-5,1.6c.3,2.5.2,5.4-2.1,5.5s-3.5-.7-4.4-2.3c-1.5,1.7-4.9.9-5.5-.9s-.2-2,.5-2.7l1.6-1.6-2.5-2.5-3.1,2.1c.5.9,1.2,1.7,1.5,2.6s-.4,2.6-1.3,3.2c-1.3,1-3.3.6-4.3-.4s-.5-.2-.6-.2l-.4-.8c.2-.2.4-.8.6-1.3l.6,1c.7,1.2,2.3,1.7,3.5.9s.8-1,.9-1.5,0-.8-.2-1.1l-1.7-2.7,4.2-3c.2,0,.5.2.7.3l3.4,3.4-.6.7ZM141.6,58.5h0c0,0,0,.2,0,.2h.1c0-.1-.1-.2-.1-.2Z"/>
    <path class="st10" d="M85.3,140.5c.2-.1.8,0,.9.3-1.4,1.2-3,1.9-5,2.4,1.7,1.6,4.8,1.5,6.9.6s1.9-1.8,2-3.1h1.2s0,1.4,0,1.4c0,.3.6.7.8,1l2.5,2.9c.7.8.5,2.3.4,3.3-.1,1.8-1.7,3-3.4,3s-3.8.9-5.2,2.5l-2.2,2.7-3.1.6c-.9.2-1.9,0-2.4-.7-1.1-1.7.3-3-.5-3.2s-.8-.2-.9,0l-.6-1c.6,0,1.5,0,2,.2,1.4.6,0,2.4.8,3.5s.9.4,1.3.4l3-.6,2-2.5c.8-1,1.9-1.8,3-2.2,2.1-.8,4.9.2,5.2-2.5s0-2-.2-2.8l-3.3-3.7c-.6.9-1.3,1.4-2.1,1.9-2.5,1-5.3,1-7.6-.3l-.2-.2-.5-.5-.4-1.1c1.7-.4,3.2-.8,4.5-1.6l.8-.5Z"/>
    <path class="st11" d="M77,153.1l.6,1-2.4,2.1-1.7,1.3-.9,1c-.2,0-.4,0-.4,0l-.3-1.2c.1-.3.3-.8.1-1.1s-.7-.6-1.1-.6l-2.1.5c-.8.2-1.6.3-2.6.2.4-1.7,1.2-3.2,2.7-4.3,2.6-1.9,5.9-1.3,8,1ZM73.1,156.7l3.2-2.8c-1.3-1.6-3.1-2.2-5.1-1.8s-3,1.5-3.6,3.3l3-.7c.5-.1,1.3,0,1.7.4s.6.9.8,1.6Z"/>
    <path class="st11" d="M70.6,158.3l.3,1.5c.4,1.3,0,2.8-.4,4.2l-.4,1.6c-.2,0-.5-.3-.6-.4l-.6-.6c-.3-.3-.8-.7-1.3-.8s-1,.4-1.2.7l-1.2,2.1c-.7-1.3-1.4-2.7-1.5-4.2s.6-3,2.1-3.5,1.3-.4,1.9-.4h1.8c0-.1-.3-1.3-.3-1.3l1.5,1.2ZM67,162.8c1.1-.3,1.8.3,2.6.9.5-1.5.7-2.9.3-4.4-2.6-.3-5.5.2-5.3,2.7s.3,1.7.6,2.4c.6-.7,1-1.4,1.8-1.6Z"/>
    <path class="st10" d="M73.5,157.6c0,.3.1.9.3,1.1l1.3,1.2c1.2.9,2.6,1,4.3.7l.2,1c-2.2.6-4.4.6-6.4-.5l-2.4-1.3-.3-1.5,2.7,1.8.3.2c0,0,.1-.2,0-.3h-.1c0-.1-1-1.3-1-1.3l.9-1ZM73.9,160.2h0c0,0,0,.2,0,.2h0c0,0,0-.2,0-.2Z"/>
    <path class="st13" d="M73.3,160l.2-.2h.1c0,.2,0,.4,0,.4l-.3-.2Z"/>
    <path class="st10" d="M72.1,167l-1.2.3c-.1-.3-.6-.8-.9-.9l-1.9-.7.8-1.3.6.6c.1.1.4.4.6.4,1.4.2,3.2,0,4.6-.3l4.3-.9.2,1-7.1,1.7Z"/>
    <path class="st11" d="M155.1,58.2l-3.7,3.8c-1.7,1.7-2.9,3.6-3.9,5.8-3.1,6.7-1.6,13.5,2,19.5l-.8.5c-1.5-2.4-2.6-5-3.3-7.7s-.7-5.8-.3-8.7c.8-3.3,2.3-6.3,4.4-8.9l4.3-4.5.7-.6.5.7Z"/>
    <path class="st11" d="M157,65.6l-2.7,3c-1.1,1.3-1.5,2.9-1.4,4.6v3.6c0,0-.9,0-.9,0v-5c-.2-1.7,0-3.3,1.2-4.6l3.2-3.4c0,0,.1.7.3.6l.7-.2-.7.8c-.1.2.3.7.5.6Z"/>
    <path class="st2" d="M147.8,184.5l.3,2.4c-1.6-.3-2.9-1.5-3.1-3.2s0-2.2.4-3.1,1.4-1.1,2-.8,1.2,1,1.7,1.6c-.8.9-1.4,1.8-1.4,3.1Z"/>
    <path class="st11" d="M159.5,73.7l-.9,1.5c-.9,1.5-1,3.2-.2,4.7l.3-.7.3.4c0,.1.3.3.4.3-.6,2.4,2.1,4,2.5,7h-.9c0,.1-1.5-3-1.5-3l-1-1.7-.6-1c-1.2-1.9-1.3-4.1-.2-6.2l.5-1,.7-.9.6.7Z"/>
    <path class="st2" d="M157.2,180.4c-2.1.3-3.9-1.3-4.2-3.3.9-1.5,3-1.8,4.2-.8-.2,1.3-.3,2.6,0,4.1Z"/>
    <path class="st11" d="M137.4,99.6l1.7,2.5,2.9,3.1c.4,2,1.1,4,2.1,5.7l-.9.4c-1-1.7-1.7-3.5-2.1-5.5l-2.2-2.4-2.1-3.2.7-.6Z"/>
    <path class="st15" d="M163.9,110.4v-.5s.3,0,.3,0c0,0,.2.4,0,.4h-.4Z"/>
    <path class="st11" d="M159.1,78.5c0-.2.3-.4.4-.5v.4c0,0-.3.1-.4.1Z"/>
    <circle class="st11" cx="157.5" cy="63.8" r=".2"/>
    <path class="st15" d="M149.4,117h-.5c0,0,.5,0,.5,0Z"/>
    <path class="st11" d="M122.1,129.3l-.2.4-.3.7c-4.5,1.6-10,4.5-12.4,8.7h-1c2.5-4.9,8.7-8.3,13.8-9.8Z"/>
    <path class="st11" d="M123.4,112.6l-.6.7c0,0,.3.4.2.3l.8-.5c1.1,1.2,1.9,2.5,2.8,3.9v-1c0,0,1,0,1,0v1.5s-.1,1-.1,1v1.1c.1,0-.4,6.9-.4,6.9-.4,0-1,.3-1,.6-.6,0-1.3,0-1.9-.2-1.2-.4-1.7-1.6-1.7-2.8s.4-2,1.5-2.5l-.3-1.9-.6-2.1c-.5-1.7-1-3.3-1-5.1l.8-.5.5.5ZM126.5,121.3v-2.1c-.9-1.9-1.9-3.7-3.4-5.4,0,1.4.6,2.6.9,3.8l.9,3.5,1.6.2ZM126.2,126.2l.3-3.8c-.9,0-1.9-.1-2.5.5s-.7,2-.1,2.7,1.5.7,2.3.6Z"/>
    <path class="st11" d="M107.7,140.1l.2-.2c0,0-.1.2-.2.2Z"/>
    <path class="st2" d="M133.8,171.9l-2.3,1.6c-.7-1.2-.5-2.3,0-3.3,1.1-1.8,3.1-2.6,5.2-2.4l-.6,4c-.8-.4-1.6-.3-2.3.2Z"/>
    <path class="st2" d="M133.9,182.6l-1.1-2.2c-.4-2.3,1.1-3.5,3.3-4.3,1,1.2,1.6,2.5,1.7,4-.9-.4-1.8-.1-2.5.5l-1.4,1.9Z"/>
    <path class="st2" d="M70.8,172.9l-.9,1.6c-.7-1.1-1.2-2.3-1.2-3.5,0-1.7,2.1-2.9,3-2.9s2.3,2,1.8,3.6c-1.1,0-2.2.2-2.7,1.2Z"/>
    <path class="st2" d="M88,176.7c-1,1.2-2.8,1.3-4.1.5,1.2-1,1.5-2.3,1-3.6,1.2-.8,2.6-1,4-.5.1,1.2,0,2.5-.9,3.6Z"/>
    <path class="st11" d="M81,144.4l-.2-.2.2.2Z"/>
    <path class="st2" d="M125,23.8c-4.6-.4-9.1-.3-13.9.2l-3.5-10.4h0c0-.1.1-.3.1-.3h.2c0,.1,3.6,2.2,3.6,2.2-.5,2.1-.9,5.7.6,5.9s3.8-.5,5.1-1.7c.1,0,.5,0,.6.2,1,1,3,1.4,4.3.4s1.6-2.1,1.3-3.2-1-1.7-1.5-2.6l3.1-2.1,2.5,2.5-1.6,1.6c-.7.7-.8,1.7-.5,2.7.6,1.8,4,2.6,5.5.9,1,1.5,2.7,2.3,4.4,2.3s2.5-3,2.1-5.5l5-1.6-6.4,10.5c-3.7-1-7.3-1.7-11-2Z"/>
    <path class="st8" d="M141,71.4c-.6,2.3-.6,5.3,1.5,6.4l1.9,1-3.3.8c-.9.2-1.7.2-2.8-.2.7,1.7.6,3.3-.2,4.8s-2.1,4-1.2,4.8.9.5,1.2.5l4.1-.4c0,.2-.2.9-.4,1.1-1.6,2-4.4,3.5-7.1,2.9.7,2.3,1.5,4.4,2.5,6.3l-.7.6c-1.5-2.2-2.2-4.9-2.9-7.5-.8-.8-1.3-1.6-1.9-2.7-.2,2.8-1.1,5.3-3.1,7.1l-2.1,1.9c-.9.8-.7,2.1.2,2.9l2,1.8h.3c0,0,0,.3,0,.3s-.1,0-.3,0c-1.9-.3-3.7-.6-5.4-1.3s-3.1-2-3.8-3.7l.9-.4c.5,1.3,1.4,2.4,2.8,2.9l2.2.8.2-.2c-1.2-2.2-.4-3.8,1.7-5.3s2.8-3,3.2-5.2l.3-4.3.3-5.4h1c0,.1,0,4.3,0,4.3,0,1.4.4,2.9,1,4.3s2.1,2.1,3.7,1.7,2.6-1,3.7-2h-2.9c-1.4,0-2.2-1.2-2-2.6.5-3.3,3.4-5.1,1.5-8.5l-1.5-2.5.9-.5c1.5,2,2.8,3.1,5.1,2.1-2.5-2-2.2-5-1.4-7.9l.4.3c0,.2-.1.5,0,.5h.4ZM125.8,102.5h.3s-.3,0-.3,0Z"/>
    <path class="st10" d="M165.5,48c-.1,0-.4.3-.6.5l-5.6,5.7-4.1,3.9h-.2c0,0-.5-.6-.5-.6l4.8-4.6,4.6-4.8c1.4-1.5,2.6-3.2,3.6-5,1.1-2.1,1.8-4.3,2-6.7-.7-4.1-4.6-6.5-8.6-5.4s-3.5,1.8-4.2,3.7-.5,2.7-.2,4.1c.6,3.5,2,10.5.3,12.7l-3.9,4.9c-1.3,1.7-3.5,2.6-5.6,2.8v-.9c2.1-.2,4-1.4,5.4-3.1l2.3-2.9c1.1-1.4,1.7-2.7,1.7-4.5-.1-3.1-.6-6-1.2-9.1s-.2-4,.9-5.7c1.8-2.7,5-3.8,8.2-3.1s5.2,3.1,5.8,6.3c-.1,2.5-.9,4.8-2,7.1l-2.6,4-.4.7Z"/>
    <path class="st2" d="M125.4,24.8c3.6.3,6.9,1,10.3,1.9l-.2,2.5-5.1-1.1c-6.4-1.1-12.8-1.2-19.5-.7l.2-2.5c4.8-.4,9.4-.6,14.2-.1Z"/>
    <path class="st9" d="M134.8,32.7l-1.1-1.5c-.1-.1-.3-.5-.2-.6h5.1c-1.1,1-2.4,1.7-3.7,2Z"/>
    <path class="st8" d="M138.7,57.2v.3s-.3-.2-.3-.2c0,0,0,0,.2-.2h.1Z"/>
    <polygon class="st12" points="141.6 58.5 141.7 58.5 141.6 58.7 141.5 58.5 141.6 58.5"/>
    <path class="st11" d="M90.7,128.5c-.3.3-.7,1-1.2,1.1-1.3.3-2.1,1.4-1.8,2.6l.6,3.1c.2,2.1-.5,4.1-2,5.5-.2-.3-.7-.5-.9-.3,2.6-2.3,2.2-4.8,1.4-8s.3-2.6,1.3-3.3,1-.5,1.4-.6h1.2Z"/>
    <polygon class="st11" points="91.5 140.8 90.2 140.7 91 134.9 92 135 91.5 140.8"/>
    <path class="st2" d="M73.1,156.7c-.2-.6-.4-1.2-.8-1.6s-1.2-.5-1.7-.4l-3,.7c.6-1.8,2.1-3,3.6-3.3s3.8.2,5.1,1.8l-3.2,2.8Z"/>
    <path class="st2" d="M67,162.8c-.8.2-1.2.9-1.8,1.6-.3-.7-.6-1.6-.6-2.4-.2-2.4,2.8-2.9,5.3-2.7.3,1.5.1,2.9-.3,4.4-.7-.6-1.5-1.2-2.6-.9Z"/>
    <rect class="st13" x="73.9" y="160.2" width=".1" height=".1" transform="translate(-91.6 99.2) rotate(-45)"/>
    <path class="st8" d="M118.8,108.5c1.5,1.1,2.9,2.3,4.1,3.6l-.8.5-1.9-1.8c-1.7.8-3.1,1.6-4.4,2.8l-3.4,2.9c-2.9,2.4-6.2,4-10,4.4s-8.3,3.9-11.7,7.6h-1.2c2.4-2.7,5.2-5.7,8.5-7.3s3.3-1.1,5-1.3c3.2-.5,6.2-1.9,8.7-4l3.6-3.1c1.3-1.1,2.7-1.9,4.2-2.7l-5.4-4,.5-.8,4.4,3.2Z"/>
    <path class="st8" d="M123.8,113.2l-.8.5c0,.1-.3-.2-.2-.3l.6-.7.5.5Z"/>
    <path class="st0" d="M107.9,45.1c.1.7.8,1.1,1.5,1.3v.5c0,0-.1,1.1-.1,1.1l-3.2,1.6v-1c-.1,0-.1-.6-.1-.6,0-.5.2-1.4-.5-1.7l-2-.9c-.4-.2-.8-.8-1.1-1.2l-.4-3.4-1.3-1.7.9-.3,1.4,1.6.4,3.4c.1.9,2.4,1.6,4.5,1.2ZM108.3,47.3v-1c0,0-1.5,0-1.5,0v1.6c.1,0,1.5-.7,1.5-.7Z"/>
    <path class="st14" d="M114.3,34.3c-.5.4-1.6.6-2.2.3s-.5-1.3-.4-2c1.1,0,2.2.5,2.5,1.8Z"/>
    <path class="st8" d="M116.5,41.6h1.8c.4,0,1.3.3,1.4.7l.5,2.7c.3,1.4.3,3,0,4.4s-1.6,2.8-2.7,3.8-.8,1.1-1.4,1.4-1.4.3-2.1.4v-.9s1.6-.2,1.6-.2l2.6-2.7c.5-.5.9-1.3,1.1-1.9s.1-.7.1-1v-2.5c0,0-.1-1-.1-1l-.4-2.3c-2.1-.3-4.4,0-6.1,1.3s-2,1.4-3.2,1.7v.7c-.8-.2-1.5-.6-1.6-1.3,1.4-.3,2.8-.7,3.9-1.6s3.1-1.6,4.8-1.8Z"/>
    <path class="st8" d="M107.9,12.4l4.7,2.8c-.4,1.8-.9,3.8-.4,5.5,1.6,0,3.4-.4,4.5-1.6l.4.8c-1.3,1.2-3.2,1.9-5.1,1.7s-1.1-3.8-.6-5.9l-3.6-2.1-.2.2,3.5,10.4c4.8-.4,9.3-.6,13.9-.2l.4,1c-4.8-.4-9.4-.3-14.2.1l-.2,2.5c6.7-.4,13-.3,19.5.7l.4,1c-5.9-1-11.9-1.2-17.9-.9s-.6.2-.8.3l-4,1.3v2.2c1.3,0,1.5-1.9,3.9-1.9,1.9-.2,3.7.8,4.4,2.6.2.3.6,1.1,1,1.2l2.5.4v.8c0,.2-2.2.7-3.9,0l.3.7s0,0,.1.1c0,0-.1.1-.1.1h-.1c0-.1-1.6-.5-1.6-.5-.8.3-1.8.6-2.6.3-1.1-.4-1.5-1.5-1.4-2.7-1.3.7-2.2,1.1-3.6.8l-2,.7c-1,.4-2.2.5-3.1,1.1s-1,2.5-.4,3.2l-.9.3c-.7-1.2-.2-2.9.4-4,.2-.2.6-.4.9-.5l5-1.8v-3.6c0,0,2.8-.9,2.8-.9l.2-2.8c0-.4,0-.9,0-1.4l-2.9-8.8-1.4-4c.2,0,.6.1.7.2l1.4.8ZM107.6,13.5v-.2c.1,0,0,.2,0,.2ZM114.3,34.3c-.3-1.3-1.5-1.8-2.5-1.8-.1.7-.3,1.6.4,2s1.6.2,2.2-.3Z"/>
    <path class="st0" d="M120.3,96.3c0,.8,0,1.7.4,2.5l-.9.4c-.5-1.3-.5-2.5-.5-4.2-1.1,1.6-2.7,2.5-4.4,3.2s-3.2,3.5-2.3,5.7l1.9,1.4-.5.8-.5-.4-.2.2,1.9,3.2c-2.3,1.5-5.8-1-7.6-3.2-.5.7-1,1.4-1.3,2.2s0,1.9,1,2.2l2.5.8c.3,0,.1.8-.1,1-1.9,1.7-4.5,3-6.6,1.5v2c-2.7-.3-4.2-1.2-5.6-3.9-.8.8-1.7,1.5-2.8,1.4h-1c0,0-1.3-1.5-1.3-1.5h.3c0,0,1.9.5,1.9.5,1.1.3,2.1-.7,2.5-1.6l.6-.7.3.4c.9,2,1.9,3.9,4.2,4.2v-2.9c0,0,.9,0,.9,0,.3,1.4,1.3,2.1,2.6,1.8s2.1-.8,3-1.5c-1.3-.3-2.4-.7-3.1-1.8s-.5-1.9,0-2.5l1.5-2.4c-.8-1.4-1.5-3-1.5-4.6l.9-.2c.2,2.3,1.2,4.4,2.9,6s2.7,2.2,4.5,2.3c-.9-1.5-1.6-2.8-2.1-4.3s-.6-3.1,0-4.4,1.8-2.3,3.1-2.8c4.3-1.5,5.4-5.6,6-9.9h1c0,0-.9,4.6-.9,4.6-.3,1.5-.6,3-.7,4.5ZM113.2,105.8v-.2c0,0,0,.2,0,.2Z"/>
    <path class="st8" d="M57.6,110.6c0,.4.4.8.9.9l4.8,1v.9c0,0-2.1,0-2.1,0h-2.2c-1.4,0-2.6-.4-4.1-.8.3.8.8,1.3,1.1,1.9.7,1.4.2,2.9-.3,4.2.4.3,1.1.5,1.6.3s.7-.7.9-1.3l3.5-.7v1c-1.5.6-2.9,1.4-4.1,2.6,1.3,1.7,1.9,3.8,1,5.9.7.2,1.5,0,2.2-.5s.7-1.2,1-2c.6-1.3,3.2-3.6,4.2-3.4l1.9.3c.8.1,1.2.9.9,1.7-1,2.3-2.5,2.5-2.6,3.5s.8,1,1.2.9l2.3-1.1c1.1-.5,2.4-.2,3.5.4.5,0,1.1-.4,1.3-.8s.5-1.3.2-1.8l-1.6-3.6h2.3c.9.1,1.9-.3,2.5-.9l1.8-1.5c0,1.6,0,2.9-.3,4.5l2.4-.4c1.2-.2,2-1.4,1.9-2.7s.3-.8.6-.7.4.3.6.7l1.5.2c.2-.8.3-1.4.2-2.1l-.4-2.3h1c0,1.5.4,2.8,1.3,3.9l2.9-.4c1-.1,2,0,3,.2-.3-1.1-.9-2.3-.9-3.4s.3-1.7,0-2.5h1c0,0-.1,2.5-.1,2.5l1.6,5.4c-1.3-1-2.8-1.5-4.5-1.2l-3.3.5-.7-.8-.8,1.3-2.2-.3c-.7,2.7-2.6,2.8-4.8,3.2l-2.3.4c.6-1.2,1.4-2.2,1.2-3.7-1.2,1-2.5,1.5-4,1.3l1,2.7c.3.9,0,2.2-.8,2.6l-1.8,1c-.4,1.1-.8,2.1-1.6,2.9-2.1,2.5-5.9,2-8-.6.5-.4,1.1-.8,1.8-1l2.2-.6-1.3-.7c-.5-.3-.9-.9-.9-1.4,0-1.7,2.3-2.2,2.8-4.3l-2.4-.4c-1.1.7-2.5,1.6-2.9,2.8-.6,1.8-1.7,3.1-3.9,3h-1.9c0,0,.2-.9.2-.9-.1-.2-.9-.4-1.1-.3s-.5.6-.5.9l.5,2.4c-1.1-.3-2.2-.8-3.1-1.5-1.6-1.3-2.1-3.4-1.1-5.3s2.2-2.5,3.9-3l-1.3-.5v-.9c-2.3-1.3-3.9-.1-5.6,1.9-.4-1.4-.7-2.8-.5-4.2.3-2.8,2.7-3.7,5.6-3.7l.7-1.2c1,.5,1.8.8,2.9,1-.3-.3-.7-.6-.7-.8l-.4-1.1,1.1.3ZM55.1,117.8c.7-1.7.2-3.2-1-4.3-.8,0-1.9,0-2.6.3-1.9.6-2.3,2.6-1.9,4.7,1.7-1.6,3.7-1.9,5.6-.8ZM58,125.9c.6-1.9-.3-3.5-1.4-5.1-2.7.6-4.7,2.8-3.9,5.2s1.2,1.8,2.2,2.2c-.2-1,0-2,.8-2.5s1.5-.1,2.3.2ZM65.1,130.3c.8.6,1.3.8,2,1,2.8.6,4.4-1.1,5.3-3.9-1.2-.4-2.3-.4-3.5.2.4.8-.1,1.5-.9,1.8l-2.9.9Z"/>
    <path class="st0" d="M67.1,25.9c1.9.9,2.8,3.1,3.3,5.2l.9.9c.5-.4,1-.7,1.6-.9.4-1.6-1.8-2.3-1.7-2.5l.3-.8,4.4.5c1.6.2,2.7,1.5,3,3s0,1.8,0,2.6c.2,1.4.8,2.9,1.1,4.4-1.5.5-2.6,1.4-2.8,2.9-.1,1.5.6,2.8,1.5,3.9,1.1,2,2.4,4,3.9,5.7v.6c0,.1-.4.2-.6.2l-2-2.4-2.3-3.6c-.7-1.1-1.4-2.2-1.6-3.4-.2-1.9.8-3.6,2.7-4.4l-.6-2.1c-1.4.7-2.8.4-3.8-.5l-2-1.9.3-1.1c-.8.2-1.1,1.2-.7,1.8.6.9,1,1.9,1,3,0,1.9.4,3.6,1,5.5l-.9.3-1.3-3.4c-.4-1-1.1-1.9-1.7-2.6s-.3-.7-.1-1.2c.7-1.5,1-3.3-.2-3.6-.9.7-1.8,1.4-3,1.2s-1.4-.8-2.1-1.2v-.9c0-.3,0-1.1-.3-1.3-1.1-.6-3.1.6-5,.3.3-.7.6-1.3.9-1.8,1.6-2.1,4.5-3.6,6.8-2.4ZM68.2,32.1l1.2-.9c-.7-2.9-2.4-5.4-5.2-4.5s-2.4,1.2-3.3,2.5l2.7-.4c.5,0,1.3.3,1.6.7s.3,1.1.4,1.7c0,1.1,1.8,1.6,2.6.9ZM77.5,35c1-2.5.5-5.5-1.9-5.8l-2.4-.2c.7.9.9,1.8.7,2.7l-.3,1.4,2.1,1.8c.4.3,1.5.5,1.9.1ZM72,37.7c0-1,0-1.9-.7-2.9l-.5,1.3,1.2,1.6Z"/>
    <path class="st4" d="M96.2,44.6c.9,1.3,1.7,2.8,3,3.9s3.4,1.7,5.2.9l1.6-.7v1c-3.8,2.3-7,1-9.5-2.7,0,4.4,3.1,8.6,7.6,7.6,1.8-.4,3.2-1.4,4.6-2.6v1.5c0,0-.3,0-.4.1-3,2.1-6.1,3-9.3.7l-2,2.9c-.7,1-1.1,2.2-1.2,3.4s.6,2,1.6,2.3c2.8.7,6.6-.5,9.4-1.7,1.8-.2,3.6,0,5.3.6.7.8,1.6.8,2.5.5l.4.8c-1.1.6-2.4.6-3.3-.4-1.4-.3-3-.9-4.4-.5l-3.6,1.2-1.4.3c-1.5.4-3.1.5-4.6.2s-2.9-1.9-2.6-3.7,1-2.8,1.8-4.3c-1.2.3-2.1.9-2.9,1.6-2.6,2.2-2.5,6,.1,8.2s4.3,2.1,6.8,2v.9c0,0-4.8.5-4.8.5-3.8.4-7.4.4-11.1-.4-.2,3.4.8,6.1,4,7.2s3.4.8,5.2.8h6.5s0,.9,0,.9c-5.2-.1-9.4,2.4-13.5,5.4l-3.4,2.6c-.8.6-1.8,1.2-2.8,1.5-1.5.5-2.9-.3-3.5-1.8s-.7-3.1-1-5c-1,1.5-1.6,3.1-1.9,4.9-.4,2.9,1,5.6,3.6,6.9s4.7,1.8,7.2,2.1,4.9-.6,6.6-2.3l3.3-3.3c2.3-2.3,5.2-3.5,8.5-3.8l.2.9-2.7.7c-3.6.9-4.3,5.4-4.3,8.8s-2.5,6.8-6.2,7.2-1.7,0-2.2-.6c-.8-.7-.5-1.7-.3-2.7-1.3.7-2.3,1.8-2.4,3.3s.7,2.7,1.8,3.6c1.7,1.3,3.9,1.8,6,1.8,5.6,0,7.7-4.4,10.1-8.8s2.6-4.7,4.2-6.9c.3.1.7.3.8.6-1.5,2.5-2.5,5.2-2.3,8l-.9.2v-3.1s-2.3,4.1-2.3,4.1c-2.3,4.2-5.2,7.1-10.3,6.9s-5.3-1-7-3-1.4-4.3.2-6,2.2-1.8,3.6-2.4c.2,0,.6.6.5.8l-1.2,2.1c-.1.2,0,.8,0,.9s.6.4.9.4c3.4,0,6-2.8,6-6.2s.3-4.7,1.4-7.1c-3.3,2.4-4.9,5.9-9.1,6.9-2.7,2.1-5.5,4-8.5,5.7l-.7-.6c2.5-1.5,4.9-3,7.3-4.9-3-.2-6.1-.9-8.8-2.4s-4.5-4.9-3.9-8.3,1.7-4.8,3.3-6.8l.4,2.1,2.2-1.1c.8-.4,1.1-1.2.7-2-1.1-2.1-3.1-3.7-4.2-6.1-.2,3.6-.9,8.3-4.6,8.8s-6.4-2.4-6.3-5.8c1.7,1,4.2,2.5,5.2,1.7s.3-2.5-.2-3.8l-1.2-3.1c-.7-1.9-.1-3.8,1.3-5.1s1.2-1.4.9-2.4l-1.1-3.4c-.5.8-1,1.3-1.5,1.5-1,0-1.6,0-2.4-.3-1.2.5-2.5.8-3.8.7-2-.2-3.6-1.6-4.1-3.5s-.2-2.5,0-3.8c1.6,1.1,3.8,3.1,4.6,2.1l.6-.8c.9.1,2,.4,2.6,1.1s.7,2.1.5,3.2c.2.3.8.4,1.1.4,1.2-.2,1.7-1.7,1.4-3.3s.4-.5.5-.5l.5.4c.2,1.1.7,2.2,1,3.4l.8,2.7c.4,1.2-.3,2.3-1.1,3.1s-1.7,2.7-1.1,4.2l1.3,3.5c.4,1,.5,2.1.4,3.1s-1,1.9-2.1,1.8-2-.5-3.1-.9c.8,1.9,2.7,3.2,4.7,3s2.6-1.3,3.1-2.7c1.2-3.5.5-6.9,1.6-10.4.3,0,.7.2.9.3-1.6,5.1,2.8,7.4,4.3,10.7s.1,2.7-1.4,3.4l1.5.6c.5.2.8.8.9,1.4,1,.5,2.2,1,3.3,1.3l3.2-2.3c1.8-1.3,3.7-2.2,5.7-3.1-2.1,0-4-.2-5.9-.9-4-1.4-5.1-5.2-4.4-9.2,4.1.9,7.9,1.1,12,.5-3.4-1.4-5.7-4.2-4.9-8l-4.1-3.6c-1.7-1.5-3.4-2.9-4.8-4.6.2,0,.5,0,.5-.2v-.6c1.5,1.7,3.3,3.1,5,4.7l3.8,3.3c1.5-3.1,4.2-4.1,7.5-4.8-3.1-2.4-3.7-6.4-3.4-10.1v-.5s.7,1,.7,1ZM65.4,55.2c-.2-.5-1.1-1.2-1.5-.8-1.8,1.5-2.8.6-4.9-.8-.2,1.6.4,3.5,2.1,4.2s3.1.4,4.6-.3c0-.8,0-1.5-.3-2.3ZM84.3,83.6l-3.4-1.5c.2-.7-.1-1.1-.7-1.3l-3-.8c.3,2.9.7,7,3.5,5.9s2.5-1.4,3.6-2.3Z"/>
    <path class="st2" d="M119.4,45.9v2.5c0,0-1-.2-1-.2-2.5-.6-5-.3-7,1.4l-2.8,2.3c-1.3,1.1-2.8,2.2-4.6,2.6-4.5.9-7.6-3.2-7.6-7.6,2.6,3.7,5.7,5,9.6,2.7l3.2-1.6c3.2-1.6,6.7-3.1,10.1-2.1Z"/>
    <path class="st4" d="M119.3,44.9v1c-3.4-1.1-6.9.5-10,2.1v-1.1c3.3-1.5,6.5-2.9,10-1.9Z"/>
    <polygon class="st3" points="108.3 47.3 106.9 48 106.8 46.4 108.4 46.3 108.3 47.3"/>
    <path class="st0" d="M119.4,48.3c0,.3,0,.8-.1,1l-1.1-.3c-2.4-.7-4.9-.1-6.7,1.6l1.7,3.5h.8s0,.9,0,.9c-1.4.2-2.8,0-4.4-.3-.4,1.9.7,4.6,1.8,4.7l2.5.2c1,0,1.9,0,2.8-.6s2.1-1.7,2.9-2.7l2.4-2.8c.2.2.5,1,.4,1.4-.5,1-.9,1.9-1.6,2.6l-2.6,2.8c-1,1-2.1,1.8-3.4,2.3l-.4-.8c.9-.5,1.8-1.1,2.7-1.9-1.3.3-2.1.6-3.2.4s-1.8,0-2.6,0c-1.7-.8-2.6-2.6-2.6-4.4v-2.8s0-1.5,0-1.5l2.8-2.3c2-1.7,4.5-2,7-1.4l1.1.2ZM111.7,53.3l-.9-1.8-1.3.9v1s2.2,0,2.2,0ZM117.1,60h0c0,0,0,.2,0,.2h0c0,0,0-.2,0-.2Z"/>
    <path class="st3" d="M109.2,106.3l1.2-.7c.5-.3.9-.8,1.3-1.2.5,1.5,1.2,2.8,2.1,4.3-1.8-.1-3.3-1.2-4.5-2.3Z"/>
    <path class="st3" d="M96.9,110.6c-.4.8-1.4,1.9-2.5,1.6l-1.9-.6c.1,0,.5-.3.7-.4l3.7-.6Z"/>
    <path class="st0" d="M62.7,34.5l-.3,1.1-.7,1.7c-.5,1.2-1.7,1.4-2.9,1.3-.7.5-1.1,2.1-.3,2.8s1.5.8,2.1.7,1.1-1.1,1.5-1.7c.3,0,.7.1,1,.4l-.5,1.3,2.9,2.3c.8.7,1.5,1.7,1.7,2.6s-.2,2.7-.7,4c-1.8-.3-3.9,0-3.9,1.2s.2,1,.7,1.1l-.6.8c-.4-.1-.7-.4-.9-.9-.5-1.3,0-2.6,1.4-3.1s1.6-.3,2.7-.3c.7-1.7.6-3.6-.9-4.8l-3.3-2.6c-1,.9-3.2.1-3.8-.5-1.2-1.1-.9-2.7-.2-4-.4-2-2.9-.2-5.5-.5.7-1.5,1.5-2.8,2.6-3.9,2.5-2.3,5.5-1.5,7.7.8ZM58.7,37.4c.8.3,1.8.1,2.2-.7l.8-2c-.7-.5-1.3-1-2.1-1.3-2.4-1-4.4.9-5.7,3.1l2.2-.4c1.1-.2,2.1.3,2.6,1.3Z"/>
    <path class="st0" d="M78.8,99.9l.7.6c-.4.2-.6.9-.9,1.4-1.5,2.3-3.5,4-5.8,5.5-3.5,2.3-9.5,4.1-10.7-.2s-.3-.9-.5-1.2-1-.1-1.2,0c-.8.6-.7,3.1-2.8,4.5l-1.1-.3c-.4-1.2-3.6-1.8-5.9-.2-.2-1.6,0-3.4,1.2-4.6,1.8-2,4.9-1.4,7.4.1.8-.4,1.7-.9,2.5-.5,1.5.6.7,3.3,3.3,3.7s2.1,0,3-.3c3.9-1.2,8.4-4.3,10.2-8.1s.4-.4.5-.5ZM57.5,109.5c.8-1,1.2-1.9,1.5-3-1.1-.7-2.2-1.2-3.5-1.4-2.2-.3-3.9,1.2-3.9,3.4,2.1-.8,4-.4,5.8.9Z"/>
    <path class="st8" d="M64.6,31.1v.9c-1,.4-1.1,1.4-.8,2.5s.7,1.9,2.1,1.9c-.1,1-.1,1.9.5,2.5l.9.8,2,1.7c-.2.3-.5.6-.7.8l-3.4-2.7-1.6-1.3c.5-1.2,0-2.2-1.1-2.7l.3-1.1v.2s.2,0,.2,0c-.3-.8-.3-1.5,0-2.3s.9-1,1.6-1.1Z"/>
    <path class="st0" d="M62.7,34.6h.2s-.2,0-.2,0Z"/>
    <path class="st14" d="M105.5,109.9c-.4-.7-.5-1.9,0-2.5l1.5-2.4c-.8-1.4-1.5-3-1.5-4.6v-3.1s-2.3,4.1-2.3,4.1c-2.3,4.2-5.2,7.1-10.3,6.9-2.7-.1-5.3-1-7-3-1.5-1.9-1.4-4.3.2-6,1-1.1,2.2-1.8,3.6-2.4.2,0,.6.6.5.8l-1.2,2.1c-.1.2,0,.8,0,.9.1.2.6.4.9.4,3.4,0,6-2.8,6-6.2,0-2.5.3-4.7,1.4-7.1-3.3,2.4-4.9,5.9-9.1,6.9-2.7,2.1-5.5,4-8.5,5.7-.4.2-.6.9-.9,1.4-1.5,2.3-3.5,4-5.8,5.5-3.5,2.3-9.5,4.1-10.7-.2,0-.3-.3-.9-.5-1.2-.2-.2-1-.1-1.2,0-.8.6-.7,3.1-2.8,4.5,0,.4.4.8.9.9l4.8,1v.9c0,0-2.1,0-2.1,0h-2.2c-1.4,0-2.6-.4-4.1-.8.3.8.8,1.3,1.1,1.9.7,1.4.2,2.9-.3,4.2.4.3,1.1.5,1.6.3.4-.2.7-.7.9-1.3l3.5-.7v1c-1.5.6-2.9,1.4-4.1,2.6,1.3,1.7,1.9,3.8,1,5.9.7.2,1.5,0,2.2-.5.6-.4.7-1.2,1-2,.6-1.3,3.2-3.6,4.2-3.4l1.9.3c.8.1,1.2.9.9,1.7-1,2.3-2.5,2.5-2.6,3.5,0,.4.8,1,1.2.9l2.3-1.1c1.1-.5,2.4-.2,3.5.4.5,0,1.1-.4,1.3-.8.3-.4.5-1.3.2-1.8l-1.6-3.6h2.3c.9.1,1.9-.3,2.5-.9l1.8-1.5c0,1.6,0,2.9-.3,4.5l2.4-.4c1.2-.2,2-1.4,1.9-2.7,0-.4.3-.8.6-.7.2,0,.4.3.6.7l1.5.2c.2-.8.3-1.4.2-2.1l-.4-2.3h1c0,1.5.4,2.8,1.3,3.9l2.9-.4c1-.1,2,0,3,.2-.3-1.1-.9-2.3-.9-3.4,0-.8.3-1.7,0-2.5l-1.3-1.4h.3c.1-.2.5-.4.7-.4l3.7-.6.6-.7.3.4c.9,2,1.9,3.9,4.2,4.2v-2.9c0,0,.9,0,.9,0,.3,1.4,1.3,2.1,2.6,1.8,1.1-.3,2.1-.8,3-1.5-1.3-.3-2.4-.7-3.1-1.8Z"/>
    <path class="st2" d="M58,125.9c-.8-.4-1.6-.6-2.3-.2s-1,1.6-.8,2.5c-1-.4-1.9-1.4-2.2-2.2-.7-2.4,1.2-4.6,3.9-5.2,1.1,1.6,2,3.2,1.4,5.1Z"/>
    <path class="st2" d="M55.1,117.8c-1.9-1.2-3.9-.8-5.6.8-.5-2.1,0-4.1,1.9-4.7s1.8-.4,2.6-.3c1.3,1.1,1.7,2.6,1,4.3Z"/>
    <path class="st2" d="M65.1,130.3l2.9-.9c.8-.2,1.2-1,.9-1.8,1.1-.6,2.2-.6,3.5-.2-.9,2.7-2.5,4.5-5.3,3.9-.7-.3-1.1-.5-2-1Z"/>
    <path class="st2" d="M68.2,32.1c-.8.6-2.5.1-2.6-.9s0-1.3-.4-1.7-1.1-.7-1.6-.7l-2.7.4c.8-1.2,1.9-2,3.3-2.5,2.9-.9,4.6,1.6,5.2,4.5l-1.2.9Z"/>
    <path class="st2" d="M77.5,35c-.4.4-1.5.2-1.9-.1l-2.1-1.8.3-1.4c.2-1,0-1.8-.7-2.7l2.4.2c2.4.2,2.9,3.3,1.9,5.8Z"/>
    <g>
      <path class="st6" d="M165.9,47.3l-.4.7c-.1,0-.4.3-.6.5l-5.6,5.7-4.1,3.9h-.2c0,0-3.7,3.9-3.7,3.9-1.7,1.7-2.9,3.6-3.9,5.8-3.1,6.7-1.6,13.5,2,19.5,1.7,2.9,3.8,5.5,6.1,7.9l3.2,3.4c2.8,2.9,5.4,7.5,5.1,11.4h.2c0,0,.2.4,0,.4h-.4c-.3,3.4-2.7,6-5.9,7.1-2.9,1-5.9.6-8.6-.4h-.5c0,0,.6,4,.6,4,.8.6,1.8.9,2.8,1.1,2.4.5,4.7.7,7.1.2,2.5-.6,4.7-1.9,6.2-4.1,1.1-1.7,2.2-3.6,2.3-5.6v-7c.1,0,.2-8.1.2-8.1,0-2.5.9-4.7,2.2-6.6l.7-.7c.8-.5,1.7-1.1,2.6-1.3,2.4-.6,4.6.3,6.9,1.6-1.2-2.6-4.2-5.5-6.6-5.3h-1c0,0-.7.3-.7.3-2.1.5-3.9,1.8-5.2,3.6-2.5,3.7-.8,7.7-1.3,7.9-.2,0-.6,0-.8,0l-.5-5.2c-.4-4.2.2-7.9,3.6-10.5,1-.8,2.1-1.4,3.2-1.9,3.2-1.4,6.7-3,8.6-6.3,1.6-2.7.5-5.3-2.1-7.2,1,4.7-2.8,6.9-6.9,8-3.4.9-6.7,2-9.5,4.1-.7.5-1.4,1.2-1.6,2-.6,2.4,2.1,4,2.5,7h-.9c0,.1-1.5-3-1.5-3l-1-1.7-.6-1c-1.2-1.9-1.3-4.1-.2-6.2l.5-1,.7-.9c.6-.7,1.2-1.7,2.1-2.2,1.5-.9,3.1-1.5,4.7-2.1l4.6-2c1.9-.8,3.7-1.9,5.3-3.3,1.6-1.4,2.7-3.1,3.5-5.2,1.7-4.6,2.1-9.4-2.8-11.3h-.1c0-.1-.1,0-.1,0h0c1.1,2.9,1.7,6.6-.6,8.7l-2.8,2.5c-1,.9-2.4,1.3-3.6,1.6-1.8.4-3.7.8-5.5,1.5-2.5,1-4.6,2.5-6.4,4.3h-.2c0,0-2.7,3.1-2.7,3.1-1.1,1.3-1.5,2.9-1.4,4.6v3.6c0,0-.9,0-.9,0v-5c-.2-1.7,0-3.3,1.2-4.6l3.2-3.4.4-.4,8.6-8,2.2-2.1c3.7-3.6,7.3-9.4,7.6-14.8.3-5.2-2.6-9.8-7.3-11.8-3.6-1.5-7.5-1.8-11.3-1-1.6.4-3,1-4.4,1.8-3.1,1.9-5.5,4.9-5.8,8.6,0,1.5,0,3,.6,4.6,2,6.3,3,11.7-.7,17.6h1.3c2.1-.3,4-1.4,5.4-3.1l2.3-2.9c1.1-1.4,1.7-2.7,1.7-4.5-.1-3.1-.6-6-1.2-9.1-.4-2-.2-4,.9-5.7,1.8-2.7,5-3.8,8.2-3.1,2.9.7,5.2,3.1,5.8,6.3-.1,2.5-.9,4.8-2,7.1l-2.6,4Z"/>
      <path class="st6" d="M111.8,148.6l-2.3-1.9c-1.8-1.9-2.4-4.2-1.8-6.5l.2-.2.4-.9c2.5-4.8,8.7-8.2,13.8-9.7l3.8-.8.2-1.4c-.6,0-1.3,0-1.9-.2-1.2-.4-1.7-1.6-1.7-2.8,0-1.1.4-2,1.5-2.5l-.3-1.9-.6-2.1c-.5-1.7-1-3.3-1-5.1l-1.9-1.8c-1.7.8-3.1,1.6-4.4,2.8l-3.4,2.9c-2.9,2.4-6.2,4-10,4.4-5.2.7-8.3,3.9-11.7,7.6-.3.3-.7,1-1.2,1.1-1.3.3-2.1,1.4-1.8,2.6l.6,3.1c.2,2.1-.5,4.1-2,5.5-1.4,1.2-3,1.9-5,2.4,1.7,1.6,4.8,1.5,6.9.6,1.4-.6,1.9-1.8,2-3.1l.8-5.8h1s-.5,5.8-.5,5.8v1.3c0,.3.6.7.8,1l2.5,2.9c.7.8.5,2.3.4,3.3-.1,1.8-1.7,3-3.4,3-2.1,0-3.8.9-5.2,2.5l-2.2,2.7-3.1.6c-.9.2-1.9,0-2.4-.7-1.1-1.7.3-3-.5-3.2-.2,0-.8-.2-.9,0l-2.4,2.1-1.7,1.3c0,.3.1.9.3,1.1l1.3,1.2c1.2.9,2.6,1,4.3.7l.2,1c-2.2.6-4.4.6-6.4-.5l-2.4-1.3c.4,1.3,0,2.8-.4,4.2l-.4,1.6c1.4.2,3.2,0,4.6-.3l4.3-.9.2,1-7.1,1.7,1.2,1c1.1,1.1,1.5,2.5,1.2,3.9,0,.6.8,1.5,1.6,1.2.7-.3,1.2-1.2,1.5-2,.6-1.9,3.1,0,3.9-2.9l1.7.4c.9.3,1.6,1.5,1,2.3-.5.6-.9,1.3-.5,2.1.8-.5,1.6-.9,2.4-1.1l.4-.2c.5-.2,1.5-.2,2.2,0l1.9.4c.3-1.4-2.1-1.6-2.4-4.3l-.2-1.6,5.1.8c2.1.3,4-.6,5-2.4.8-1.4,1.2-2.9,1.5-4.5h.5c.1,0,.5.2.5.4l.4,3.5c.3.9.7,1.3,1.6,1.3.7.6,1.6,1.1,2.5,1.1l3.5-.2c-1.3-.6-2-1.6-1.7-3,.2-1.1.8-2.1,1.3-3.2.2-.4,0-1.2,0-1.6l-.3-2.4c1.2-.3,2.2-.6,2.8-1.6.7-1.1.3-2.4,0-3.6.7-.3,1.3-.6,1.7-1.1.3-.3,0-1.1-.3-1.4Z"/>
      <path class="st6" d="M126.6,119.2c-1-1.9-2-3.7-3.5-5.4,0,1.4.6,2.6.9,3.8l.9,3.5,1.6.2v-2.1Z"/>
      <path class="st6" d="M123.8,125.6c.5.7,1.5.7,2.3.6l.3-3.8c-.9,0-1.9-.1-2.5.5-.7.6-.7,2-.1,2.7Z"/>
      <path class="st6" d="M173.5,146.5c-3.5,1-7.9,2.1-8.9-1.4-.2-.6-.6-1-1.2-1.4,0-.2.1-.7.2-.9,3.1.9,6.1.7,7.6-2.2.5-.9.9-2,1.2-3l1-3.6-3.5,2.3c-2.6,1.7-5.6-.5-7.8,1.5-.8.7-1.2,1.9-1.2,3.2-.2.1-.7.2-1,.1-.1-.9-.2-1.7-.8-2.4-.6-.7-2.7.5-3.8-.5l-2.5-3.7-2.6-3.4c-.6-.7-.6-1.9-.8-2.8l-1.4-11-2.1-2.4c-1.1-1.2-2-2.5-2.8-3.9-1-1.7-1.7-3.5-2.1-5.5l-2.2-2.4-2.1-3.2c-1.5-2.2-2.2-4.9-2.9-7.5-.8-.8-1.3-1.6-1.9-2.7-.2,2.8-1.1,5.3-3.1,7.1l-2.1,1.9c-.9.8-.7,2.1.2,2.9l2,1.8h.3c0,0,0,.3,0,.3,0,0-.1,0-.3,0-1.9-.3-3.7-.6-5.4-1.3-1.7-.7-3.1-2-3.8-3.7-.5-1.3-.5-2.5-.5-4.2-1.1,1.6-2.7,2.5-4.4,3.2-2.3,1-3.2,3.5-2.3,5.7l1.9,1.4,4.4,3.2c1.5,1.1,2.9,2.3,4.1,3.6l.5.5.5.5c1.1,1.2,1.9,2.5,2.8,3.9v-1c0,0,1,0,1,0v1.5s-.1,1-.1,1v1.1c.1,0-.4,6.9-.4,6.9l-.4,4.3c-.1,1.1.6,2.1,1.4,2.6l2.2,1.2-3.2.8c-2.9.7-2.4,4-1.8,6.9.7,3.7-2,5.5-5.5,6.6,2.3,1.4,5.1,1.6,6.7-.6.8-1.1,1.5-2.4,1.7-3.8l.8-5.4,1.7,3.2c.8,1.6,2.3,2.6,3.8,3.2l2.2.9c6,2.5,9.4,6,13.4,10.9-.2.7-.4,1.4-.4,2.2v2.8c.1,2.4-1.2,4.2-3.1,5.4-4,2.7-5.5-1.3-9-.4v1.4c0,1.3-.2,2.5-.7,3.6l-.2,1,2.3.2c2.4.2,4.5-.5,6.5-1.7l.5.8c-2.8,1.9-6,3-9.4,2.9,1.3,1.8,2.1,3.7,1.9,5.9,1.3,0,2.8-1.3,2.7-3l6.4-4.1c.3.1.6.5.7.7l-1.8,2.1c-.6.7-1.1,1.4-1.4,2.4,2.1-1.1,3.4-.2,5.1,1.4l.3-2.4c.1-.9.5-1.6,1.2-2.2l.6-1.7c.3-1,.9-1.7,1.8-2.3l.6.8c-.9.7-1.3,1.4-1.4,2.5.8-.4,1.7-.7,2.5-.5l2.8.5-.3-2.3,2.1-.9c.8-.4,1.5-1,1.4-2l-.4-3.4,2.1,1.5c1,.7,2.3.7,3.4.2-1.6-.6-2.8-1.6-3.6-3l-1.1-2.1,2-.3c.8-.1,1.7-.5,2.3-1-1.8-.9-5.3-2.8-5.2-3.8,0-.2.6-.4.8-.3,1.8.8,3.7,1.1,5.7.7-.7-.3-1.4-.7-1.9-1.3l-1.6-2.7c-.7-1.2-1.6-2.2-2.7-3.2,0-.2.4-.6.6-.7,2.4,1.8,5,2.7,7.4,1l2.3-1.6c.7-.5,1.8-.4,2.3.4.4.6.7,1.3,1,2.1,1,0,1.8-1,1.9-2.1.2-1.3-.4-2.6-1.3-3.5-.7-.7-1.5-.7-2.4-.5Z"/>
      <path class="st6" d="M77.9,91.9c2.2,1.1,4.7,1.8,7.2,2.1,2.5.3,4.9-.6,6.6-2.3l3.3-3.3c2.3-2.3,5.2-3.5,8.5-3.8l.2.9-2.7.7c-3.6.9-4.3,5.4-4.3,8.8,0,3.6-2.5,6.8-6.2,7.2-.7,0-1.7,0-2.2-.6-.8-.7-.5-1.7-.3-2.7-1.3.7-2.3,1.8-2.4,3.3-.2,1.4.7,2.7,1.8,3.6,1.7,1.3,3.9,1.8,6,1.8,5.6,0,7.7-4.4,10.1-8.8,1.3-2.4,2.6-4.7,4.2-6.9.3.1.7.3.8.6-1.5,2.5-2.5,5.2-2.3,8,.2,2.3,1.2,4.4,2.9,6l1.2-.7c.5-.3.9-.8,1.3-1.2-.4-1.4-.6-3.1,0-4.4.6-1.3,1.8-2.3,3.1-2.8,4.3-1.5,5.4-5.6,6-9.9h1c0,0-.9,4.6-.9,4.6-.3,1.5-.6,3-.7,4.5,0,.8,0,1.7.4,2.5.5,1.3,1.4,2.4,2.8,2.9l2.2.8h.1s.3,0,.3,0c-.1,0-.2-.1-.3-.2-1.2-2.2-.4-3.8,1.7-5.3,1.7-1.3,2.8-3,3.2-5.2l.3-4.3.3-5.4h1c0,.1,0,4.3,0,4.3,0,1.4.4,2.9,1,4.3.7,1.4,2.1,2.1,3.7,1.7,1.4-.3,2.6-1,3.7-2h-2.9c-1.4,0-2.2-1.2-2-2.6.5-3.3,3.4-5.1,1.5-8.5l-1.5-2.5.9-.5c1.5,2,2.8,3.1,5.1,2.1-2.5-2-2.2-5-1.4-7.9l1.2-4.7c.7-2.7.8-5.8-1.4-7.4l-1.3-1-.3-.2c0,0,0,0,.2-.2h.1c0,.1,3.3.5,3.3.5,1.1.1,2.2-.2,3-.9-2-1-3.9-2.8-4.2-5.1-.2-1.7-.1-3.4-.9-4.9-.4-.8-1-1.5-2-1.7,0-.2,0-.8.1-1,1.1,0,2.3-.2,3.1-.9.8-.7,1-1.8,1.1-3-.8.5-1.6,1.2-2.6,1.2-1.1,0-2.7-1.8-2.8-2.8v-2.1c-.2-1-.6-1.9-1.7-2.1-1-.2-1.9-.1-3,0l-.2-.9,2.9-.7-1.1-1.5c-.1-.1-.3-.5-.2-.6-2.1,0-4.5,0-5.2,2.1h-.9c0-1.6.9-2.8,2.4-3l1.7-.3-.6-.2c-5.9-1-11.9-1.2-17.9-.9-.2,0-.6.2-.8.3l-4,1.3v2.2c1.3,0,1.5-1.9,3.9-1.9,1.9-.2,3.7.8,4.4,2.6.2.3.6,1.1,1,1.2l2.5.4v.8c0,.2-2.2.7-3.9,0l.3.7h-.1c0,.1-1.6-.3-1.6-.3-.8.3-1.8.6-2.6.3-1.1-.4-1.5-1.5-1.4-2.7-1.3.7-2.2,1.1-3.6.8l-2,.7c-1,.4-2.2.5-3.1,1.1-.9.6-1,2.5-.4,3.2l1.4,1.6.4,3.4c.1.9,2.4,1.6,4.5,1.2,1.4-.3,2.8-.7,3.9-1.6,1.4-1.1,3.1-1.6,4.8-1.8h1.8c.4,0,1.3.3,1.4.7l.5,2.7c.3,1.4.3,3,0,4.4-.3,1.6-1.6,2.8-2.7,3.8-.4.4-.8,1.1-1.4,1.4-.7.3-1.4.3-2.1.4-1.4.2-2.8,0-4.4-.3-.4,1.9.7,4.6,1.8,4.7l2.5.2c1,0,1.9,0,2.8-.6,1.1-.8,2.1-1.7,2.9-2.7l2.4-2.8c.2.2.5,1,.4,1.4-.5,1-.9,1.9-1.6,2.6l-2.6,2.8c-1,1-2.1,1.8-3.4,2.3-1.1.6-2.4.6-3.3-.4-1.4-.3-3-.9-4.4-.5l-3.6,1.2-1.4.3c-1.5.4-3.1.5-4.6.2-1.8-.3-2.9-1.9-2.6-3.7.3-1.5,1-2.8,1.8-4.3-1.2.3-2.1.9-2.9,1.6-2.6,2.2-2.5,6,.1,8.2,1.9,1.6,4.3,2.1,6.8,2v.9c0,0-4.8.5-4.8.5-3.8.4-7.4.4-11.1-.4-.2,3.4.8,6.1,4,7.2,1.7.5,3.4.8,5.2.8h6.5s0,.9,0,.9c-5.2-.1-9.4,2.4-13.5,5.4l-3.4,2.6c-.8.6-1.8,1.2-2.8,1.5-1.5.5-2.9-.3-3.5-1.8-.6-1.5-.7-3.1-1-5-1,1.5-1.6,3.1-1.9,4.9-.4,2.9,1,5.6,3.6,6.9ZM116.3,35.9h.1c0-.1-.1,0-.1,0Z"/>
    </g>
    <path class="st2" d="M65.4,55.2c.3.8.3,1.5.3,2.3-1.5.7-3.1.9-4.6.3s-2.2-2.6-2.1-4.2c2.1,1.4,3.1,2.2,4.9.8s1.3.3,1.5.8Z"/>
    <polygon class="st3" points="111.7 53.3 109.5 53.3 109.5 52.3 110.8 51.5 111.7 53.3"/>
    <rect class="st1" x="117" y="60" width=".1" height=".1" transform="translate(-8.2 100.4) rotate(-45)"/>
    <path class="st14" d="M83.9,67.4c4.1.9,7.9,1.1,12,.5-3.4-1.4-5.7-4.2-4.9-8l-4.1-3.6c-1.7-1.5-3.4-2.9-4.8-4.6l-2-2.4-2.3-3.6c-.7-1.1-1.4-2.2-1.6-3.4-.2-1.9.8-3.6,2.7-4.4l-.6-2.1c-1.4.7-2.8.4-3.8-.5l-2-1.9.3-1.1c-.8.2-1.1,1.2-.7,1.8.6.9,1,1.9,1,3,0,1.9.4,3.6,1,5.5l-.9.3-1.3-3.4c-.4-1-1.1-1.9-1.7-2.6-.4-.3-.3-.7-.1-1.2.7-1.5,1-3.3-.2-3.6-.9.7-1.8,1.4-3,1.2-.8-.2-1.4-.8-2.1-1.2-1.1.4-1.1,1.4-.8,2.5.3,1,.7,1.9,2.1,1.9-.1,1-.1,1.9.5,2.5l.9.8,2,1.7c-.2.3-.5.6-.7.8l-3.4-2.7-1.6-1.3c.5-1.2,0-2.2-1.1-2.7l-.7,1.7c-.5,1.2-1.7,1.4-2.9,1.3-.7.5-1.1,2.1-.3,2.8.5.4,1.5.8,2.1.7.8-.1,1.1-1.1,1.5-1.7.3,0,.7.1,1,.4l-.5,1.3,2.9,2.3c.8.7,1.5,1.7,1.7,2.6.3,1.3-.2,2.7-.7,4-1.8-.3-3.9,0-3.9,1.2,0,.5.2,1,.7,1.1.9.1,2,.4,2.6,1.1.8.9.7,2.1.5,3.2.2.3.8.4,1.1.4,1.2-.2,1.7-1.7,1.4-3.3,0-.2.4-.5.5-.5l.5.4c.2,1.1.7,2.2,1,3.4l.8,2.7c.4,1.2-.3,2.3-1.1,3.1-1.2,1.1-1.7,2.7-1.1,4.2l1.3,3.5c.4,1,.5,2.1.4,3.1,0,1.1-1,1.9-2.1,1.8-1,0-2-.5-3.1-.9.8,1.9,2.7,3.2,4.7,3,1.5-.1,2.6-1.3,3.1-2.7,1.2-3.5.5-6.9,1.6-10.4.3,0,.7.2.9.3-1.6,5.1,2.8,7.4,4.3,10.7.6,1.4.1,2.7-1.4,3.4l1.5.6c.5.2.8.8.9,1.4,1,.5,2.2,1,3.3,1.3l3.2-2.3c1.8-1.3,3.7-2.2,5.7-3.1-2.1,0-4-.2-5.9-.9-4-1.4-5.1-5.2-4.4-9.2Z"/>
    <path class="st2" d="M58.7,37.4c-.5-1-1.5-1.5-2.6-1.3l-2.2.4c1.3-2.2,3.3-4.1,5.7-3.1s1.4.8,2.1,1.3l-.8,2c-.3.9-1.4,1.1-2.2.7Z"/>
    <path class="st2" d="M57.5,109.5c-1.8-1.3-3.8-1.7-5.8-.9,0-2.2,1.8-3.7,3.9-3.4s2.4.7,3.5,1.4c-.3,1.1-.7,2-1.5,3Z"/>
  </g>
</svg>