<?xml version="1.0" encoding="UTF-8"?>
<svg id="Capa_2" xmlns="http://www.w3.org/2000/svg" version="1.1" viewBox="0 0 232.2 232.1">
  <!-- Generator: Adobe Illustrator 30.4.0, SVG Export Plug-In . SVG Version: 2.1.3 Build 87)  -->
  <defs>
    <style>
      .st0 {
        fill: #989b9a;
      }

      .st1 {
        fill: #c65111;
      }

      .st2 {
        fill: #aab2b5;
      }

      .st3 {
        fill: #9b3733;
      }

      .st4 {
        fill: #666766;
      }

      .st5 {
        fill: #6d7274;
      }

      .st6 {
        fill: #cfd4d7;
      }

      .st7 {
        fill: #e1641e;
      }

      .st8 {
        fill: #a7852a;
      }

      .st9 {
        fill: #ba2620;
      }

      .st10 {
        fill: #776d4b;
      }

      .st11 {
        fill: #d25119;
      }

      .st12 {
        fill: #bc2520;
      }

      .st13 {
        fill: #d9b459;
      }

      .st14 {
        fill: #222424;
      }

      .st15 {
        fill: #ed7d36;
      }

      .st16 {
        fill: #acb4b8;
      }

      .st17 {
        fill: #eab538;
      }

      .st18 {
        fill: #cb5216;
      }

      .st19 {
        fill: #aeb6b8;
      }

      .st20 {
        fill: #e9b739;
      }

      .st21 {
        fill: #8f1506;
      }

      .st22 {
        fill: #fbfcfc;
      }

      .st23 {
        fill: #81888b;
      }

      .st24 {
        fill: #999c9b;
      }

      .st25 {
        fill: #d2d6d9;
      }

      .st26 {
        fill: #f6ac44;
      }

      .st27 {
        fill: #646b6e;
      }
    </style>
  </defs>
  <path class="st5" d="M161.3,14.6c13.1,3.1,26.2,5.8,39.8,8.3l1.2,27.5c1.1,25-.4,57.6-5.7,80.4-.4-.2-.7-.2-.8,0-.6.5-1.3.7-2.2.5l.2.7c.8.3,1.4,0,2.7-.9-1.7,8-4.3,15.7-7.3,23.8l-.6-.7h-.7c0-.1,0,.9,0,.9.1,0,.8.2.6.4l-.3.6c0,.6-.2,1.5-.5,2.3-6.6,15.2-15.8,29-27.2,41-5.5,5.7-11.2,10.7-17.3,15.6l-1.5.4-.3.3.3.5c-8,5.9-16.1,11.1-25.4,15-15.5-6.8-30.4-17.4-42.1-29.3-12.8-12.6-23-27.6-30.2-44.3s-.3-1.4-.1-1.8c-.2-.1-.4-.3-.7-.5-9.5-23-12.5-48.1-13.3-73.1s-.4-26.6.3-40.1l.9-18.9,10.5-2.1c9.4-1.8,27.4-5.1,38.7-8.6l-.5-.7c-11.8,2.8-37.3,8.3-49.5,10.6l-1.5,40c-.1,15.5.4,30.4,2,45.8,3.7,34.6,15.1,65,38.9,90.5s28.6,25.5,46.4,33.5c7.2-3,13.8-6.8,20.3-11.1,23.7-16.1,42.7-38.2,53.4-64.9,6.1-15.2,9.7-30.9,11.5-47.2,1.7-15.9,2.2-31.3,2.1-47.3l-1.4-39.4c-11.5-1.9-22.6-4.2-33.8-6.8l-14.1-3.2v.7s7.7,1.9,7.7,1.9"/>
  <path class="st16" d="M153.9,12.8l2.5.6,3.6.9,1.2.3c13.1,3.1,26.2,5.8,39.8,8.3l1.2,27.5c1.1,25-.4,57.6-5.7,80.4-.1-1.3-.5-2.4-1.5-2.6s-2.1.2-2.5,1.4.1,2,1.2,2.3,1.4,0,2.7-.9c-1.7,8-4.3,15.7-7.3,23.8l-.6-.7c0-.6-.7-1.6-1.2-1.7s-1.9.3-2.4.7c0-.4,0-1.3.3-1.9,4.9-12.6,8-25.4,9.7-38.9,2-15.3,2.6-30.4,2.5-45.9l-.8-30.2-.3-8c0-.2-.8-.6-.7-.5h-.4c0,0,0-.6,0-.6,0-.2-.3-.2-.7-.3-26.5-5.1-53-10.4-78.4-20.1-25.7,9.8-52.2,15-79.2,20.2-.7.2-1.1.6-1.1,1.1l-.4,4.8v.8c0,.1,0,.5,0,.5l.7.2v.8c-.1,0-.5-.2-.6,0,0,.2-.2.8-.3,1l-.3,4.2v1c0,0-.3,8.1-.3,8.1v.7s0,1.1,0,1.1l-.5.2c-.7-.7-2-1.1-2.8-.8-1.2.6-1.4,2-.6,3.4s2.9.5,3.2-.6h.6s0,24.4,0,24.4h-.5c-.4-.9-1.7-1.4-2.7-.9s-1.2,1.8-1.1,2.7.3.8.7,1.4c0-.1.1.9-.1.8h-1.1c-.4-13.3-.4-26.6.3-40.2l.9-18.9,10.5-2.1c9.4-1.8,18.5-3.7,27.5-5.9h.8s6.7-1.8,6.7-1.8l3.2-.7c8.5-2,16.9-4.3,25.2-7.4l11.3-4.1c12.5,5,24.9,8.7,37.6,11.8ZM115.3,2.6c-1.2.7-1.3,2.1-.7,2.9s1.7,1,2.4.6c1-.6,1.3-1.8,1-2.6s-1.7-1.5-2.6-.9ZM87.4,11.4c-1.4.3-2,1.3-1.7,2.6s1.3,1.4,2.2,1.2,1.7-1.2,1.6-2.2-1.3-1.7-2.1-1.6ZM144.2,11.4c-1.2.4-1.6,1.7-1.1,2.8s1.5,1.2,2.4.9,1.3-1.5,1.1-2.5-1.4-1.5-2.4-1.2ZM59.3,18.1c-1.1.3-1.8,1.5-1.5,2.4s1.5,1.6,2.5,1.3,1.6-1.4,1.3-2.4-1.3-1.5-2.2-1.3ZM172.2,18.1c-1.2.3-1.9,1.4-1.6,2.5s1.4,1.6,2.5,1.2,1.5-1.4,1.3-2.4-1.3-1.5-2.2-1.3ZM33.5,23.6c-1.4.2-1.9,1.3-1.7,2.5.3,1,1.2,1.7,2.6,1.3.7-.3,1.4-1.3,1.2-2.4s-1.2-1.6-2.1-1.4ZM198.2,23.7c-1.2.3-1.9,1.7-1.7,2.4s1.4,1.6,2.2,1.5c1.2-.2,1.8-1.2,1.7-2.4s-1.1-1.7-2.2-1.5ZM199.1,50.9c-1.1.4-1.5,1.7-1.1,2.7s1.6,1.3,2.6.8,1.3-1.7.9-2.5-1.5-1.4-2.5-1.1ZM199.1,77.1c-1.1.4-1.5,1.8-1,2.8s1.7,1.1,2.4.9c1.1-.4,1.4-1.5,1.1-2.5s-1.3-1.5-2.5-1.1ZM197.5,103c-.9.5-1.2,2.2-.7,2.8s1.9,1,2.5.7c1-.5,1.3-1.9.9-2.7s-1.6-1.4-2.8-.8Z"/>
  <path class="st16" d="M188.3,156.1c0,.6-.2,1.5-.5,2.3-6.6,15.2-15.8,29-27.2,41-5.5,5.7-11.2,10.7-17.3,15.6l-1.5.4c.2-.7.2-2-.2-2.7s-2.2-.8-2.8-.3-.8,2.2-.1,3,2.1.7,2.8.1l.3.5c-8,5.9-16.1,11.1-25.4,15-15.5-6.8-30.4-17.4-42.1-29.3v-2.6c.9-.8,1.1-1.5,1.5-3.4,11.8,11.9,25.1,21.8,40.3,28.9,1.3-.3,2.4-.7,3.6-1.3,14.1-7.3,26.7-16.8,37.7-28.3,11.5-11.9,20.7-25.6,26.9-40.9l.8-.8c0,.6,0,1.8.3,2.4.4,1.2,2.3,1,3.1.5ZM174.3,174.9c-1.2.7-1.4,2.1-.8,3s1.7,1.1,2.6.6,1.2-1.8.9-2.7-1.7-1.5-2.6-.9ZM158.5,195.2c-1,.3-1.6,1.7-1.4,2.4.4,1.1,1.5,1.6,2.5,1.3s1.6-1.5,1.3-2.6-1.3-1.5-2.4-1.2ZM91.4,212.1c-1.1.6-1.3,2-.7,3s1.8,1,2.9.4,1-1.9.6-2.7-1.8-1.2-2.7-.7ZM115.7,225.4c-1.6.5-1.9,1.9-1.4,3.1s1.6,1.4,2.8,1,1.6-1.5,1.2-2.8-1.5-1.7-2.6-1.4Z"/>
  <path class="st5" d="M154,12.1v.7c-12.8-3.1-25.2-6.8-37.7-11.8l-11.3,4.1c-8.3,3-16.7,5.4-25.2,7.4v-.8s7.5-2,7.5-2c9.9-2.7,19.3-5.9,28.9-9.6,8.8,3.5,17.2,6.4,26.1,8.8l11.6,3.2Z"/>
  <path class="st2" d="M40.2,129.6c-.5-.6-1.7-1.5-2.5-1.5s-2.1,1-2,2.1.7,2,2.1,1.9,2-.8,2.3-2.6c3.9,16,9.8,31.5,18.8,45.4-.8-.3-2.5-.4-3.1,0s-1,2-.5,2.9,1.9,1,2.8.5,1-2,.8-3.4c4.3,6.7,9.4,12.8,14.7,18.8l-.3,1.3c-.5,0-1.4.5-1.8,1s-.4,2,0,2.4,1.8.6,2.5.6v2.6c-12.9-12.6-23.1-27.6-30.3-44.3s-.3-1.4-.1-1.8c.6.7,1.7,1,2.3.7,1.1-.5,1.4-1.8,1-2.7s-1.5-1.4-2.5-1-1.3,1.6-1.5,2.6c-9.5-23-12.5-48.1-13.3-73.1h1.1c.2,0,.1-1,.1-.8-.4-.5-.6-1-.7-1.4.8.7,1.8,1.2,2.8.8s1.3-1.7.9-2.5h.5c0-.1.4,8.3.4,8.3l1.2,17.7c.6,8.7,2,17.1,4,25.3ZM32.6,103.1c-.8.5-1.1,2.1-.5,2.8s1.8.9,2.4.5c1.1-.6,1.2-1.7.8-2.6s-1.6-1.4-2.7-.7Z"/>
  <path class="st27" d="M43.8,155.6c-.2-.1-.4-.3-.7-.5.2-1,.8-2.3,1.5-2.6s2.2,0,2.5,1,0,2.2-1,2.7-1.8,0-2.3-.7ZM44.9,153.2c-.5.4-.7,1.6-.5,2s1.4.6,1.8.2.4-1.2.2-1.7-1.2-.8-1.5-.5Z"/>
  <path class="st27" d="M141.7,215.3l-.3.3c-.8.6-2.3.6-2.8-.1s-.6-2.3.1-3,2.3-.6,2.8.3.4,2,.2,2.7ZM139.6,212.7c-.6.2-1,1.4-.8,1.9s1.2.8,1.6.6.7-1.1.7-1.6-1-1.1-1.6-.9Z"/>
  <path class="st27" d="M59,174.9c.2,1.4,0,3-.8,3.4s-2.4.3-2.8-.5-.2-2.4.5-2.9,2.4-.3,3.1,0ZM57.1,175.4c-.8.1-1.3,1.3-1,1.9s1,.7,1.5.6.7-.9.7-1.4-.8-1.1-1.3-1.1Z"/>
  <path class="st27" d="M40.2,129.6c-.3,1.8-1.5,2.6-2.3,2.6-1.4,0-2-.8-2.1-1.9s1-2.1,2-2.1,2,.9,2.5,1.5ZM37.5,128.9c-.7.3-1.1,1.4-.8,1.9s1.1.8,1.5.5.9-1.1.9-1.6-1.2-1.1-1.6-.9Z"/>
  <path class="st27" d="M184.9,153.2l-.8.8c-6.2,15.3-15.3,29-26.9,40.9-11,11.4-23.6,21-37.7,28.3s-2.3,1-3.6,1.3c-15.3-7.1-28.6-17-40.3-28.9-.4,1.9-.6,2.6-1.4,3.4-.7,0-2-.2-2.5-.6s-.5-1.9,0-2.4,1.3-.9,1.8-1l2,.6-1.8-2c-5.3-6-10.4-12.1-14.7-18.8-9-13.8-14.9-29.3-18.8-45.4-2-8.2-3.4-16.6-4-25.3l-1.2-17.7-.4-8.5v-24.4s.1-2.2.1-2.2v-1.1c0,0,.5,0,.5,0l.2.7v.9s-.1,7.2-.1,7.2v4.8s.5,18.8.5,18.8l-.2.7.7,12.9.5,5.2,1,9.6c1.4,13,4.6,25.7,9.3,38.1s15.7,31.5,28,44.3,25.6,22.8,41.1,29.9l7.1-3.5c15.1-8.5,28.4-19.6,39.7-32.9s17.9-26,23.1-41l3.5-11.1,2.1-9,.2-.7v-.7c.1,0,.3-.7.3-.7l1.4-8.2.4-2.5v-.9c.1,0,.5-3.5.5-3.5,2.7-25.1,2.6-46.3,1.5-71.6l-.3-9.2c-.1-.1.7.3.7.5l.3,8,.8,30.2c0,15.5-.6,30.5-2.5,45.9-1.7,13.5-4.8,26.3-9.7,38.9s-.4,1.4-.3,1.9ZM72.8,196c-.6.4-.8,1.5-.4,2s1.3.6,1.8.2.4-1.2.2-1.6-1.2-.8-1.6-.6Z"/>
  <path class="st27" d="M188.6,154.2h-.7c-.2-.4-.7-.8-1-.8s-1.1.6-1.2,1,.3,1.3.7,1.2l1.6-.5c.1,0,.8.2.6.4l-.3.6c-.8.5-2.6.7-3.1-.5s-.3-1.8-.3-2.4c.5-.5,1.7-.8,2.4-.7s1.3,1,1.2,1.7Z"/>
  <path class="st27" d="M196.6,130.8c-.4-.2-.7-.2-.8,0,.1-.6-.2-1.7-.7-1.9s-1.7.2-1.8.6.1,1.4.3,1.8l.2.7c-1.1-.3-1.5-1.4-1.2-2.3s1.5-1.7,2.5-1.4,1.4,1.3,1.5,2.6Z"/>
  <path class="st23" d="M195.7,130.8c-.6.5-1.3.7-2.2.5-.2-.4-.5-1.3-.3-1.8s1.4-.8,1.8-.6.8,1.3.7,1.9Z"/>
  <path class="st0" d="M187.9,154v1c0,0-1.5.5-1.5.5-.3,0-.7-.9-.7-1.2s.7-1,1.2-1,.8.5,1,.7Z"/>
  <path class="st25" d="M195.3,28h.4c0,0,.3,9.1.3,9.1,1.1,25.3,1.2,46.6-1.5,71.6l-2-1.2c-1.8,1.4-3.5-.4-5.5,1.5l-.6,3.1-.9-3.9-2,5.5.9-.3c.1,0,.3.5.3.6v.8c.2.2.7-.2.7-.3l.2-.9c0-.2.6.2,1.1.6,0,.1.2-.8,0-1.1l1.9-.2,3.4,4.1,1.7-1.4-1.4,8.2h-1.1c-.3.1-.4.6-.7,1l-.9,1.6,2.2-.5-2.1,9c-2.1-.3-2.7,3.1-3.9,2.1s-2.2-2.5-2.9-3.8l-1.2-.2-.3-2-.5-1.7,1.4-.2-.6-2c-.4,1.5-1.8,2-2.6,2.5l-.7.5c-.2.1-.4-.2-.6-.5l1.7-7.7,3.1.4c.4-1.2.4-2.6,0-3.7l-.5-1.2c-.1-.3-1.2-.3-1.6-.3,3.9-25.1,3.4-51.3,2.1-77l-31.3-6.1c-9.1-1.8-17.7-4.2-26.3-6.9l-8.6-3.1c-8.7,3.1-17.2,6-26.3,8l-16.4,3.6-1.1.2-3.4.8h-.4s-3.2.8-3.2.8h-.5s-3.6.7-3.6.7h-.4s-7.4,1.5-7.4,1.5h-.4c0,0-3.2.5-3.2.5l-.3,4v6.1c-.1,0-.2.5-.2.5l-.3,1.4-.4,18.8-1.3-.3c-.3,0-.5.9-.6,1.2l-1.8-5.1-1.4,4.2-2.7-.4c-.6,0-1.4,1.2-1.4,1.7,0,.4,1.1,1.1,1.6,1.3l.6,3.2-1-.5c-.1,0-.4.4-.4.4l-.5-1.9-1.5,2.2-1-.4c-.8-.3.3,2.4,0,2.8l-1,1-.4,2.2-.6-18.8c.7.3,2.4-.3,2.6-1.1.4,0,1-.2,1.1,0l.7,1.4.4-1.2c0-.3.8,0,1.3,0l-1.8-5.8c-.1-.4-.3-.8-.6-1s-1.3.1-1.8.4c.4.4,1.3.8,1.8.7.2.7,0,1.7-.1,2.4l-1.7-1.7-1.9,1v-7.2c.1,0,1.2,1.1,1.2,1.1l3.2-1.1,3.5-1.5c.3-.1,1.2-.7,1.3-.4l.4,1.4,1.9-1.4-1.6-5.3-1.1,3-.4-.5c0-.1,0-.4.2-.8-1.4-.6-2.7-1.1-4.5-1.4l-.5,4.1c-1.6.5-2.4,1.1-3.4,2l-.2-.7c0-.1-.5-.1-.5,0v-.7s.5,0,.5,0c.1,0,.2-.5.2-.6l.4-4.9c.5,0,1.4-.6,1.6-1s-.5-.9-.7-.9h-.6s-.3-.7-.3-.7c0-.2-.7,0-.8,0v-1c.3.2.9-.6.9-.9l.2-4.3v-.8c0-.2,0-.6-.2-.7h-.6c0,0,0-.9,0-.9h.6c.1,0,.2-.4.2-.6l.2-4.1,1.9-.5c26.3-5,52.5-10.3,77.7-19.8l20.1,6.7,14.9,4.1c14.8,3.6,29.5,6.7,44.3,9.4ZM117.1,20.7l1.3.6-2.2-6.9-2.4,6.8,1.6-.4c.2,0,.2,1,.3,1.1l.4.6c.3.5.4-2,1-1.8ZM135.2,20.4l-2,6.4h1.3c.2,0,.3.5.4,1,.2.2.7.7.6.6l.5-1.6c.1-.4,1.3.3,1.7.5l-2.2-6.4,1.6-2.2h-3.4c0,0,1.5,1.8,1.5,1.8ZM100.2,19.8l-1.8-.7c-.3-.1-.8.3-1,.5s.1,1.1.4,1.1c.6,0,1.6-.4,2.4-.9ZM97.7,26.7l1.4.2-2.3-6.6-2.3,6.8,1.3-.5c.2,0,.5.7.5.9l.2.8c.2.8.7-1.6,1.1-1.6ZM77.9,32.4c.3-.8.5-1.2.8-1.2l1.2.3-2.2-6.6-2.1,6.7,1.4-.4c.3,0,.4.9.5,1.3.2.6.4.5.4-.1ZM155.2,31.5h1.4c0,0-2.2-6.4-2.2-6.4l-2.1,6.5,1.4-.4c.2,0,.2.8.3,1v.8c.3.9.9-1.5,1.2-1.5ZM188,39.2c1.6.7,2,.3,3.2-.3s2.8-1.8,3.1-3.6c.6-3.4-1.4-5.8-4.9-6.6l-3.8,1.4c-.7,1-2,3.4-1.6,4.5l.9,2.7c.3.9,2.2,1.5,3.1,1.9ZM41.5,39.2c2.8,1.2,6-1.1,6.5-3.8s-.1-4-1.8-5.2-3.8-1.7-5.9-.4-3,3.5-2.2,6,1.4,2.5,3.3,3.3ZM173.7,35.2l1.5.4-2.1-6.7-2.1,6.2c.5,0,1.3,0,1.4.3l.6,1.4.7-1.6ZM60,35.1l1.5.5-2.3-6.5-2.3,6.5,1.4-.6c.2,0,.5.7.5.9l.2.7c.3.9.7-1.7,1-1.6ZM44.6,44.5l-.2.2.2.2.2-.2-.2-.2ZM187.3,50.9c0-.2.4-.5.6-.4l.8.3-1.8-5.8-1.8,5.8,1.2-.4c.2,0,.4,2,.6,1.5l.4-.9ZM41,56.5l-1.5-1.9c-.6,1,.9,2.9.7,2.9h.8c.1,0,0-.9,0-1ZM192.7,64.3c0-.4.2-1.2.4-1.1l1.1.5-1.7-5.9-1.7,5.8,1-.2c.2,0,.3.9.3,1.1s.7,0,.7-.1ZM45,65.9c.3-.5.6-1.1.7-1.5s-.5-.8-.7-1l-1.1,3.1c0,.2.6.3.7.2l.5-.8ZM42.9,68.2v-2.3s-.9.8-.9.8c-.6-.6-1.7-1.5-2.2-1.3s-1,.7-2,1.6l2,.3c.9.5,1.8.9,3.1,1ZM187.6,72.7l1.2.2-1.8-5.7-1.8,5.5c.5,0,1.1-.3,1.2,0l.5,1.4.6-1.4ZM37.6,72c.4.4,1.5-.2,1.6-.8s-.5-1.7-1.1-1.6c-1.1,0-1.4,1.7-.5,2.4ZM39.1,74.2c.2.3.6.7.6.5l.2-.6c0-.2-.4,0-.8.1ZM192.9,83.5l1.2.4-1.6-5.8-1.8,5.6,1-.2c.1,0,.6,1.7.8,1.1l.5-1.2ZM186.5,94.6l.8-1.3c.2-.3,1,.3,1.2.5l-1.6-5.9-2,5.4c.3,0,1-.3,1.1,0l.5,1.2ZM192.5,98.7v.2s0,.2,0,.2v.2s0-.2,0-.2v-.5ZM191.3,105.6c.3-.5.5-1.1.7-1l.9.3-1.4-5.7-2.1,5.5,1.2-.3c.1,0,.2.5.3,1,0,.5,0,.7.3.1ZM188.6,120.3c-.9,0-.8,0,.2,0,.4,0,.2,0-.2,0ZM186.9,125.9l-.8,1.9c.5-.2,1.1-.5,1.2-.3l.4,1.6.7-1.1c.1-.2.6,0,1.2,0l-.9-5.9-1,1.9-1.4-1.9,2.3-1.2-4-.2-.8,3.2,3.1,1.8ZM190.9,121.8c0-.1-1-.6-1.3-.5l-.9.4,1.2.8c.2.1.7-.4,1-.7ZM182.1,129.9c-.2-.1-.5.8-.2.9l.7.4.2-.9-.6-.3ZM183.3,129.7l-.2.2.2.2.2-.2-.2-.2ZM183.6,130.4l-.2.2.2.2.2-.2-.2-.2Z"/>
  <path class="st5" d="M195.3,28c-14.8-2.7-29.5-5.8-44.3-9.4l-14.9-4.1-20.1-6.7c-25.2,9.5-51.4,14.8-77.7,19.8l-1.9.5h-.6c0-.5.4-.9,1.1-1.2,27-5.2,53.5-10.4,79.2-20.2,25.5,9.7,51.9,15,78.4,20.1.3,0,.6.2.7.3v.7Z"/>
  <path class="st5" d="M115.3,2.6c1-.5,2.2,0,2.6.9s0,2.1-1,2.6-1.9,0-2.4-.6-.5-2.2.7-2.9ZM115.7,3.1c-.5.4-.7,1.6-.4,2s1.3.5,1.6.2.5-1.2.4-1.6-1.2-.8-1.6-.6Z"/>
  <path class="st27" d="M34.3,51.7l-.3,2c-.3,1.1-2.7,1.4-3.2.6-.7-1.4-.6-2.8.6-3.4s2,0,2.8.8ZM32,51.5c-.7.3-1,1.4-.7,1.8s1.1.8,1.6.6.8-1.2.8-1.7-1.2-1-1.6-.8Z"/>
  <path class="st27" d="M197.5,103c1.2-.6,2.3-.1,2.8.8s0,2.2-.9,2.7-1.9,0-2.5-.7-.2-2.3.7-2.8ZM197.9,103.6c-.5.1-.9,1.5-.6,1.9s1.5.5,2,.2.5-1.3.2-1.8-1.1-.5-1.6-.3Z"/>
  <path class="st27" d="M59.3,18.1c.9-.2,2,.5,2.2,1.3s-.3,2.1-1.3,2.4-2.2-.3-2.5-1.3.4-2.1,1.5-2.4ZM58.8,19.1c-.5.4-.5,1.5-.1,1.8s1.3.5,1.7.2.5-1.6.2-1.9-1.4-.4-1.8-.1Z"/>
  <path class="st27" d="M199.1,77.1c1.2-.4,2.2,0,2.5,1.1s0,2.1-1.1,2.5-2,0-2.4-.9,0-2.4,1-2.8ZM199.5,77.8c-.6.2-1.1,1.2-.9,1.6s1.2.9,1.7.6.8-1.3.6-1.7-1.1-.7-1.4-.5Z"/>
  <path class="st27" d="M199.1,50.9c1-.4,2.1.1,2.5,1.1s0,2.1-.9,2.5-2.2,0-2.6-.8,0-2.3,1.1-2.7ZM199.3,51.6c-.6.4-.9,1.5-.6,1.8s1.4.6,1.8.4.6-1.1.5-1.6-1.3-1-1.7-.7Z"/>
  <path class="st4" d="M33.5,23.6c.9-.2,1.9.7,2.1,1.4.3,1.2-.5,2.2-1.2,2.4-1.5.3-2.4-.3-2.6-1.3-.2-1.2.3-2.3,1.7-2.5ZM33.4,24.3c-.8.4-.9,1.6-.6,2s1.1.5,1.6.4.7-1.2.5-1.6-1.2-.9-1.6-.7Z"/>
  <path class="st27" d="M144.2,11.4c1-.3,2.2.4,2.4,1.2s-.2,2.1-1.1,2.5-2-.1-2.4-.9c-.5-1.1,0-2.4,1.1-2.8ZM144.2,12.1c-.5,0-.9,1.5-.6,1.9s1.1.5,1.6.4.8-1.1.7-1.7-.8-.6-1.7-.5Z"/>
  <path class="st27" d="M34.1,78.2c.3.8-.2,2.2-.9,2.5-1,.4-2.1-.1-2.8-.8-.1-.9.2-2.4,1.1-2.7s2.3,0,2.7,1.1ZM32,77.7c-.7.3-1.1,1.3-.8,1.8s1.2.8,1.7.6.9-1.2.7-1.7-1.2-.8-1.6-.7Z"/>
  <path class="st27" d="M198.2,23.7c1.1-.3,2.1.8,2.2,1.5.1,1.2-.5,2.2-1.7,2.4s-1.9-.5-2.2-1.5.5-2.1,1.7-2.4ZM197.6,24.6c-.6.7-.5,1.7,0,1.9s1.6.4,1.8,0,.3-1.4.1-1.8-1.6-.5-2-.1Z"/>
  <path class="st27" d="M172.2,18.1c.9-.2,2,.6,2.2,1.3s-.5,2.1-1.3,2.4-2.2-.3-2.5-1.2.4-2.2,1.6-2.5ZM172.2,18.7c-.7.3-1,1.3-.8,1.8s1.3.9,1.8.6.8-1.3.6-1.7-1.2-.8-1.6-.7Z"/>
  <path class="st27" d="M36.2,42.2l-.2,1.9-.4,4.9c0,.1,0,.6-.2.6h-.5s.3-8.1.3-8.1c0,0,.7-.2.8,0l.3.7Z"/>
  <path class="st27" d="M87.4,11.4c.8-.2,2,.8,2.1,1.6s-.6,2-1.6,2.2-2-.5-2.2-1.2c-.4-1.2.2-2.3,1.7-2.6ZM87,12.2c-.5.1-.9,1.5-.5,1.8s1.2.4,1.6.4.7-1.2.6-1.8-.8-.6-1.7-.3Z"/>
  <path class="st27" d="M36.3,35.3l-.2,4.3c0,.3-.7,1.1-.9.9l.3-4.2c0-.2.2-.8.3-1s.4,0,.5,0Z"/>
  <path class="st27" d="M35.5,33l.4-4.8h.6c0,0-.2,4.1-.2,4.1,0,.2,0,.6-.2.7h-.6Z"/>
  <polygon class="st24" points="34.7 53.7 34 53.7 34.3 51.7 34.8 51.5 34.7 53.7"/>
  <path class="st27" d="M36.3,34.5l-.7-.2c-.1,0-.1-.4-.1-.5h.6c.2.1.2.5.2.7Z"/>
  <path class="st27" d="M115.7,225.4c1-.3,2.3.6,2.6,1.4.4,1.2-.4,2.5-1.2,2.8-1.2.4-2.5-.2-2.8-1-.5-1.3-.2-2.7,1.4-3.1ZM115.5,226.4c-.7.4-.8,1.7-.3,2s1.3.5,1.7.4.9-1.5.6-2-1.2-.8-2-.4Z"/>
  <path class="st27" d="M174.3,174.9c.9-.5,2.3,0,2.6.9s0,2.3-.9,2.7-2.1,0-2.6-.6-.3-2.3.8-3ZM174.6,175.6c-.4.1-.5,1.6-.2,1.9s1.1.5,1.5.2.6-1.2.4-1.6-1.2-.8-1.8-.6Z"/>
  <path class="st27" d="M91.4,212.1c.9-.5,2.2-.1,2.7.7s.2,2.3-.6,2.7-2.4.4-2.9-.4-.4-2.4.7-3ZM92.1,212.7c-.6.2-1.1,1.4-.8,1.9s1.2.8,1.6.5.8-1.1.8-1.6-1-1-1.6-.9Z"/>
  <path class="st4" d="M158.5,195.2c1.1-.3,2.2.4,2.4,1.2s-.2,2.2-1.3,2.6-2.1-.2-2.5-1.3.4-2.2,1.4-2.4ZM158.8,195.8c-.6.1-1.2,1.3-.9,1.9s1.2.7,1.6.6.8-1.1.8-1.6-.9-1-1.5-.9Z"/>
  <path class="st4" d="M32.6,103.1c1.1-.7,2.4-.2,2.7.7s.2,2-.8,2.6-1.9.1-2.4-.5-.3-2.3.5-2.8ZM33.5,103.5c-.8.3-1.2,1.5-.8,1.9s1.2.8,1.6.6.8-1.2.8-1.6-1.1-1.1-1.5-.9Z"/>
  <polygon class="st16" points="73.5 195 73.8 193.7 75.5 195.7 73.5 195"/>
  <path class="st0" d="M44.9,153.2c.3-.3,1.4.2,1.5.5s.2,1.4-.2,1.7-1.6.2-1.8-.2,0-1.6.5-2Z"/>
  <path class="st23" d="M139.6,212.7c.6-.2,1.5.4,1.6.9s-.3,1.5-.7,1.6-1.5-.1-1.6-.6.2-1.7.8-1.9Z"/>
  <path class="st6" d="M50.5,106.4c2.1,18.4,6,34.2,14.6,50.9l4.3,7.2c.7,1.1,1.5,2.6,2.4,3.5l5.8,7.9,8.8,9.3,6,5.6,10.7,8.3,13.3,8.6,12.2-7.8c8.4-5.4,15.8-12.3,22.7-19.8s14.2-18,19-28.6,6-14.3,7.6-21.8c.2.3.5.6.6.5l.7-.5c.8-.5,2.2-1.1,2.6-2.5l.6,2-1.4.2.5,1.7-2.4,5.2c.4,0,1-.4,1.1-.2l.3,1.4.7-1.1c.2-.3,1,.1,1.2.3l-.6-3.7,1.2.2c.7,1.3,1.8,2.8,2.9,3.8s1.7-2.4,3.9-2.1l-3.5,11.1c-5.2,15-12.8,28.9-23.1,41s-24.5,24.4-39.7,32.9l-7.1,3.5c-15.5-7.1-29.3-17.6-41.1-29.9s-21.7-27.7-28-44.3-7.8-25.1-9.3-38.1l1.9-.8c.2-.1.9.4,1.1.6s1.1-.6,1-.9c-.2-.6-.6-1.7-.5-2.3s.9-1.1,1.5-1.4l2.7-1.3c.2,0,.7-.6.8-.5l.8.7,1-.8c.2-.2,1.3,0,1.3.3v1.3c.1.2.7.3.9.3ZM46.4,105.3l-.2.2.2.2.2-.2-.2-.2ZM46,111.3l-.5,2.5.9-.2c.2,0,.3.5.5,1,.2.3.3.2.4-.1.3-.6.4-.9.6-.9h1.1c0,.1-2.3-5.2-2.3-5.2-.8-.2-1.6-.4-2.2-.4l-.7-.3c-.1,0-.6,0-.5.2l.3,1c.5,1.4,1,2.5,2.4,2.5ZM44.6,129c.2-.8.3-1.6.6-1.5l1,.2-2.6-5.6-.8,6c.5-.1,1-.3,1.1-.1l.6,1ZM52.5,136l.9.2-2.4-5.4-.9,5.9c.6-.3,1.2-.5,1.3-.2l.3.9c.3.8.4-1.4.8-1.3ZM50.8,150.3l.2-1.5c0-.2.6-.3,1.1-.5l-2.6-4.8-.6,5.7c.3-.2,1-.5,1.2-.2l.6,1.3ZM181.5,150.2c.3-.7.6-1.4.8-1.3l1.1.4-.8-5.9-2.8,5.3,1.5-.3.2,1.8ZM58.9,158.3c.3-1,.4-1.4,1.4-2l-2.4-4.7-.8,5.9c.6-.3,1.3-.5,1.4-.3l.5,1.2ZM174,156.8l1.3.9-.9-6.1-2.6,5c.8.3,1.1.4,1.2.6l.2,1.4.8-1.8ZM61.2,170.1c0-.3.2-.9.5-.9h.9c0,.1-2.6-5.3-2.6-5.3l-.8,6c.6-.2,1-.4,1.1-.2l.2.8c0,.2.4.3.6.4s0-.4,0-.8ZM171.2,170.8l1-1.1c.1-.1.7.2,1.1.3l-1-6-2.5,5.5c.5,0,1.2-.3,1.2,0l.2,1.4ZM69.4,179.9c0-.5.2-1.3.5-1.2l1,.3-1.9-6.5-1.8,6.5,1.3-.3c.2,0,.2.9.2,1.3,0,0,.6,0,.6,0ZM163.3,179.9c.4-.8.7-1.4,1-1.3l.9.5-1.8-6.5-1.9,5.9c.9.6,1.3.9,1.7,1.5ZM78.2,190.5c0-.2.6-.4.8-.4l.8.3-1.9-6.5-1.9,6.5c.3-.2,1.3-.7,1.4-.4v1.3c.1.1.6.4.7.3l.2-1.1ZM156.3,189.8l-1.8-5.6-1.8,6.3,1.2-.4c.2,0,.4.7.5,1.1.1.6.3.6.3,0,.1-.5.3-1.2.6-1.1l.7.3.3-.4ZM156.2,190.5l.2-.4s-.3.4-.2.4ZM144.2,201.3c.2-.7.3-1,.6-1l1.1.4-2-6.4-2,6.4,1.2-.5c.2,0,.4.8.5,1.5-.3.3.3-.3.6-.5ZM89.2,200.5l1.3.4-2-6.1-2,6,1.2-.5c.2,0,.3.9.4,1.1l.3.6c.3.6.5-1.5.7-1.5ZM131.2,211.6c.1-.6.3-1.2.6-1.1l1.2.5-2.1-6.5-2.1,6.7,1.3-.8c.2-.1.4,1,.5,1.3.2.8.5.4.6-.2ZM102.2,210.5l1.5.6-2.2-6.4-1.9,6.1c.7-.2,1.4-.4,1.4,0l.4,1.7.7-2ZM118.2,219l-1.7-6c0-.1-.4-.8-.4-.7s0,.8,0,1l-1.8,6.1c.4-.2,1.3-.5,1.4-.3l.5,1.4c-.3.4.1,0,.5-.5,0-.5.3-1.2.5-1.1l.8.4.2-.4ZM118.4,219.3l-.2.3c0,0,.1-.3.2-.3Z"/>
  <path class="st4" d="M61.4,56.3c-.4-.3-1.6-1.5-2.2-1.5h-9.1s-.2,7.1-.2,7.1l11.5-.3v-4.3c.4,0,.8.3.8.6v1.4c0,.7.3,1.9.8,2.2s1.8.3,2-.1c.7-1.1,1-2.8.8-4.2l2-2c-.8,1.2-1.6,2.7-1.6,4.3l-.2,7.9c0,.7.9,1.9,1.7,1.9,3.7,0,7.2,1,10.7.6l13.2-1.5c.4-.6.7-1.8.7-2.4l-.4-5.1-.3-4.3h.6c.6,0-.2,4,.4,7.2s.4,5.1,1.1,5.6,3.5-.5,4.8,3.2h1.9c0,0-.8,2.6-.8,2.6l.5,6.8,11.6-.4v-6.1c-.1,0,.3,0,.3,0,.1,0,.3.4.4.8l.3,39.1c-.2,15.6-.6,30.6-1.9,46.1s-1.8,20-4.3,29.7c0-.6-.4-2.5-1.1-2.6l1.1-.8,2.2-13.5c-6.8-.7-13-.7-19.6.1l-1.1,1.2c0-.6-.6-1.9-1.2-1.9h-9c0-.1-.3,1.8-.3,1.8l-5.8-7.9,1.8,1.6c.3,0,1.2-1.4,1.2-2.1v-4.5c-.1,0-4,0-4,0-.5,0-1.2,1.2-1.4,1.5l-4.3-7.2c-8.6-16.7-12.5-32.5-14.6-50.9s-1.6-20.2-1.6-30.3v-1.4s0-.7,0-.7v-.7s0-.7,0-.7v-1.5s.4-18.8.4-18.8l.3-1.4c0,1,.5,2.6,1,3.7h8.7c.4,0,1.3.1,1.5.4s.6,1.1.6,1.5ZM62.3,70l2.6-.2c.2-2.2.3-4.7-.5-6.6-.9-1.4-3.2-.6-4.4-.5l-10.3.4v7.8c-.1,0,3.4-.2,3.4-.2,3-.5,5.8-.4,9.1-.7ZM78.5,82.1c4.5-.3,8.5-.1,12.8.2s4.8.1,7.3-.3c.7-3.6.5-7.9-1.9-10.8-2.4-1.6-6-1.4-8.7-1.1l-10.4,1c-.6,0-1.6,1.2-1.6,1.8v8.2c0,.6,1.7,1.1,2.5,1.1ZM67.5,81.9c2.6-.3,4.9,0,7.5,0v-10.3c-1.6-.7-2.9-1-4.4-1l-11.7.5c-.5,0-1.5.3-1.8.6s-.6,1.4-.6,1.8l.3,8.5c3.8,1,6.9.3,10.7-.2ZM54.8,72.6c-1.5-.9-3.1-.8-5-.4v10.3c2.1,0,4.4.3,5.6-1.3s.5-8-.6-8.6ZM92.1,92.6l.4-6.5c.3-4.4-7.6-2.9-12.3-3.1l-9.6-.4c-1.5,0-3.1.2-4.4,1l.3,6.9c.1,2.6-.4,4.9,0,7.7l12.7.7,10.2.3c2.3-1.2,3.2-4,2.6-6.7ZM64.9,88.4c.4-1.7.5-3.3.4-4.9l-9.8-.3-5.6.2.2,4.9h14.7ZM103,98.1h9s-.3-15.2-.3-15.2l-17.2.8c-1.1,1.1-1.3,2.7-1.3,4.2,0,3.2-.4,6.7.8,9.6,2.8,1.2,6,1,9,.5ZM64.3,98.5l.9-4.1c.3-1.6.7-3.1.7-5.1-5.5,1.1-10.1,1.5-15.8.3l.5,9.7,13.7-.8ZM112,112.5v-13.1c-1.6-.2-3.6-.7-4.8.2s-1.9,2.9-1.8,4l.6,8.6,6,.3ZM76.1,113c.9,0,1.8-1.4,1.8-2.1l-.2-8.9c0-1.1-.8-2.2-2.1-2.2l-16.6-.2c-1,0-1.7,1.1-1.6,2l.4,9.8c2.5,1.6,5.4,1.8,8.3,1.8l10-.2ZM88.3,112.7h4.7c0-.1,5.6-.4,5.6-.4.8,0,2.3-.9,2.3-1.7l-.4-8.6c0-.6-.6-1.6-1-2s-1.7-.3-2.4-.2l-3.4.4-13.4-.2c-.6,0-1.9.7-1.9,1.3v8.1c.1,1.1.7,3.1,1.9,3.3,2.6.5,5.1,0,7.7,0ZM56.6,112.1c.6-4,.4-7.5-.3-11.2-1.9-.7-3.6-.8-5.6-.7l1.5,12.6c1.6.1,3.1,0,4.5-.6ZM104.6,119.2c.5,0,1.4-1,1.3-1.5v-4.3c-.1,0-6.2-.2-6.2-.2-2.5,0-4.7,0-7.3.6v6.2c2.3.3,4,.2,6.2,0l6-.8ZM111.9,120.2v-6.6c0,0-5.1-.2-5.1-.2l.2,6.4,4.9.4ZM67,116.8c.5-1.6-1.4-2.6-2.7-2.7l-12-.5.8,6.3,10.5-.3c1.3,0,2.9-1.5,3.3-2.8ZM91.5,120.5l-.5-5.8c0-.5-1.5-1-2.1-1h-7c0,0-11.4.2-11.4.2l-.2,5.6h6.2c2.8-.2,5.5.2,8.4.4l6.6.4ZM86,131.8v-10.2c-2.8-1.3-5.6-.7-8.5-.8l-12.4-.3c-3.4,0-1.9,6.9-.6,11.3l12.3.5c3.1.1,6.2.3,9.2-.5ZM95,131.8l9.1.2,7.5-.5.2-10.2c-3.9-.3-7.6-1.2-11.3-.4s-5.2.9-8.2.7-4.1,0-5.3,1.4v7.5c2.5,1.7,5,1.3,8,1.3ZM61.4,123.5c.1-1.4-.9-2.9-2.2-2.8h-5.7c0,.1,2.7,11.5,2.7,11.5,1.9,0,3.2-.2,4.9-.8v-4c.1,0,.4-3.9.4-3.9ZM72.7,146.8c1,0,3.3-1,3.4-2l.7-8.5c.1-1.2-.8-2.3-1.8-2.7-3.1-1.3-6-.8-9.3-.7l-9.4.2,4.6,13.6h11.7ZM100.6,147.1l10.4-.3.6-14.2c-4.4.4-8.4.5-12.6.3s-2.5.9-2.4,2.4c-.3,3.2-.2,6.3.3,9.4.6,1.6,1.7,2.6,3.7,2.5ZM95.5,145.8c.1-.4.2-1.3.2-1.7v-10.1c.1-.6-.5-1.2-1-1.2l-7.9.2-8.5.8-1.3,11.1c-.1,1,1.3,1.9,2.3,2,4.9.5,15.6.7,16.1-1.1ZM64.8,147.9h-3.1s3.4,7.2,3.4,7.2l-.3-7.2ZM78.6,162.2c1.3,0,3.8-1,3.7-2.2l-.3-9.3c-.4-2.1-3.8-2.7-5.5-2.7l-10.3-.2c-.3,3.4-.7,6.6,0,9.7s1.9,3.4,3,4.9l9.3-.2ZM95.9,162.2l8.5-.9v-12c-4.1-1.9-8.3-1.7-12.5-1.5l-8,.4-.3,10.9c0,.7.3,2,.8,2.4s1.5.6,2.1.6l9.4.2ZM110.1,161.4l.9-12.7-5.2.6-.4,8.9c1.4,1.4,2.9,2.5,4.7,3.2ZM97.4,171.8l11.3,1.8,1.1-10.9h-6.2c0-.1-5.8.5-5.8.5-.9,2.9-1.2,5.6-.4,8.6ZM96.1,172.8l-.2-8.4c-.9-.7-2.4-1.3-3.5-1.3h-5.2c0,0-12.1.3-12.1.3v7c-.2,1,1.2,2.8,2.1,2.9l5.6.3,5.2.2,8.2-.9Z"/>
  <path class="st10" d="M180.3,117.1l-.2,1.1v.7s0,.7,0,.7l-.4,1.2-.3,1.1-1.7,7.7c-1.6,7.5-4.3,14.6-7.6,21.8-4.8,10.6-11.1,20-19,28.6s-14.3,14.4-22.7,19.8l-.9-1.2c-2.6-9.6-4.3-19.3-5.4-29.5-2.3-21.1-2.6-41.9-2.6-63.1,0-26.4.3-52.4,4.5-78.2l.7-.8c8.6,2.7,17.2,5.1,26.3,6.9l31.3,6.1c1.3,25.6,1.8,51.9-2.1,77ZM133.6,194.4c2.9-1.6,3.3-3.5,5.4-4.1l8.2-8,1.5-1.5,4.4-4.7c.9-.9,1.4-1.9,2.3-2.9l2-2.1c6.9-8.9,12-18.9,15.8-29.6,3-8.7,5.4-17.2,6.5-26.3l1.9-15.4.3-4.8.4-10.3v-30.2s-.3-4.8-.3-4.8l-.5-8.7c-14.3-2.5-28-5.3-41.9-8.7l-14.6-4.1c-1.6,9.7-2.7,19.3-3.3,29.3l-.7,13.6-.3,10-.2,3.7v39.9c0,0,.4,10.9.4,10.9l.4,9.5.4,6.6.8,11.2,1.6,14.1c.8,7.4,2.5,14.5,4.4,21.9l5.1-4.4Z"/>
  <path class="st3" d="M111.6,60.3v5.2c0,1.3-.1,2.6-.6,3.7h-7.6c0,0,.1,1,.1,1-.1,0-.5,0-.6,0-.4-1-1.8.4-2.4,2.2,0,0-.1.3-.2.4h-1.9c-1.3-3.8-4.1-2.8-4.8-3.3s-.4-2.2-1.1-5.6.1-7.1-.4-7.3h-.6s0-.4,0-.4c.1-.7-.8-1.8-1.5-1.8h-.8s0-.6,0-.6c0-.1-.5-.2-.7-.2h-17.6s-.1.8-.1.8h-1.4s-1,0-1,0c-.3,0-.5.4-.5.8h-.3s-2,2-2,2c.3,1.4,0,3.1-.8,4.2s-1.6.4-2,.1-.8-1.5-.8-2.2v-1.4c0-.3-.3-.6-.7-.6v-1c0-.4-.3-1.2-.6-1.5s-1.2-.4-1.5-.4h-8.7c-.5-1-1-2.7-1-3.6v-.5s.8-.2.8-.2v-9.6s2.2,0,2.2,0c.2,0,.7,0,.7-.2v-.6c0,0,.4,0,.4,0h3.5c1.7-1.3,3.8-.4,3.8-.9v-.6s.4,0,.4,0h3c.2,0,.7,0,.7-.2v-.6c0,0,.4,0,.4,0h3.2s0-.8,0-.8h.4s3.3,0,3.3,0v-.9c0,0,1.2-.2,1.2-.2,1.5.6,3.2.2,4.8-.2l2.7-.7,4.7-.9,5.8-1.5,6.7-1.6,7.3-2.2c.4-.1,1.6-.1,1.8.2s.3,1,.3,1.6l.6,5.2.8,5.3.8,6.2.9,10.7c0,1,.3,2.2.9,2.6ZM74.3,52.7c.6-.2,1.8-.4,2.5-.4l11.8.2,2.7.7,2.4,3.9v10.3c.1,1,2,1,2.6,1.3l3.1,1.9c1-.9,2.4-2,3.5-2h7.2c0-.1,0-11.5,0-11.5l-.8-2.2v-5.8c-.2-1.5-.7-2.6-.7-4.1s-.4-2.7-.5-4.1l-.5-5.4c0-1.2-.6-2.1-.5-3.4s-.3-2.3-1-2.4l-3.2.7-5.2,1.6-9.4,2.3-6.4,1.7-3.9.3-2.2.6c-2.7.8-5,1.3-7.8,1.7l-3.3.5-2.6.5-2.9.7-3.8.7c-1.5.3-3.1.6-4.4,1.2v10.8s8.4.2,8.4.2c1.3,0,3.1,1.6,3.3,2.7s.4,2,.7,2.8c-.1.1-.7.7-.5.8l.5.2c.1,0,.8-.2.9-.2-.2-2.3,1.4-5.2,3.7-6.4,2.6.4,3.9-1.4,6.3-.3Z"/>
  <path class="st6" d="M43.8,71.1c-.2.5-.3,1.3-.2,1.8l.5,4c.3,2-1.1,3.3-.1,4.6s1.5.8,2.6,1l.7,2.9h-1c-.2-.2-.6.3-.7.5l-1.4,2c-3.3-2.2-5.1,2.4-6-.8l3.2-1.7c.3-.1,1.1-.2,1.3,0l.8,1.3v-4.5c.4,0-.4-.2-.5-.2l-1.4.9-1.8-5.1-1.6,5.3-2.4.4.2-.7.4-2.2,1-1c.3-.4-.8-3.1,0-2.8l1,.4,1.5-2.2.5,1.9s.3-.5.4-.4l1,.5-.6-3.2c-.5-.2-1.6-.9-1.6-1.3,0-.6.8-1.8,1.4-1.7l2.7.4Z"/>
  <path class="st4" d="M124.8,27.1l-.7.8-7.8-2.9-8.2,2.8c1.7,11.1,3,21.7,3.4,32.5-.6-.4-.8-1.6-.9-2.6l-.9-10.7-.8-6.2-.8-5.3-.6-5.2c0-.6-.1-1.3-.3-1.6s-1.4-.3-1.8-.2l-7.3,2.2-6.7,1.6-5.8,1.5-4.7.9-2.7.7c-1.7.4-3.3.8-4.8.2l16.4-3.6c9.1-2,17.6-4.9,26.3-8l8.6,3.1Z"/>
  <path class="st8" d="M188,39.2c-.9-.4-2.8-1-3.1-1.9l-.9-2.7c-.4-1.1.9-3.5,1.6-4.5l3.8-1.4c3.5.8,5.5,3.3,4.9,6.6s-1.5,2.8-3.1,3.6-1.6,1-3.2.3ZM189.1,32.4c.5.1,1.1-1,1-1.6s-1.1-1.1-1.5-.8c-.7.5-.6,2.1.5,2.4ZM192.3,31.2c0-.4-1.4-.2-1.5.2l-.5,1.7c1.1.4,2.3-.6,2-1.9ZM188.1,35.9c.1-.3,1-.5,1.7-.6s.8-1.3.5-1.8-1.4-.6-1.9-.1-.4,1.1-.3,1.6l-2.5,1.6c.6.6,1.3,1.2,1.7.9s.6-1,.9-1.6ZM187.6,34.3c-.5-1.3-2.5-1.2-2.7-.1s.9,1,1.3.8l1.4-.7ZM193.7,34.1c-.4-.9-2.5-1.2-2.9.1.2.3,1.2.8,1.7.8s1.2-.6,1.3-1ZM192,37.4c.7-.4.4-1.7-.3-1.8s-1.2-.2-1.5-.2c-.2,1.2.7,2.6,1.7,2ZM189.4,38.6c.5,0,.8-1.1.7-1.6s-.8-1.3-1.1-1.1c-.4.3-.8,1.2-.8,1.7s.8,1,1.1,1Z"/>
  <path class="st8" d="M41.5,39.2c-1.9-.8-2.7-1.6-3.3-3.3s0-4.6,2.2-6,3.9-1,5.9.4,2.2,3,1.8,5.2-3.8,5-6.5,3.8ZM43.1,32.3c.5,0,.8-1.2.7-1.6s-.8-.9-1.2-.8c-1,.3-.6,2.5.5,2.4ZM41.8,33.4c0-1.6-.3-2-1-2.7l-1.4,1.1,2.4,1.6ZM46.2,31.8c0-.4-.5-1.2-.9-1s-1,.8-1,1.2v1c-.1.2,1.8,0,1.9-1.1ZM44.1,35c0-.6.1-1.4-.3-1.7s-1.5-.4-1.8,0-.5,1.8,0,1.8l1.8.3.3-.3ZM41.9,33.8l-3.5-.2.8,2.1,2.7-1.9ZM39.4,36.6c.6.8,1.6,1.1,1.9.6s.6-1.5.5-1.9c-.9,0-2.1.7-2.4,1.3ZM44.3,35.2l-.3.4.9,1.9c.4.4,1.9-.7,1.7-1.2l-2.3-1ZM43.5,38.4c.4-.7.2-2.2-.2-2.5-.8-.1-1.3,1-1.3,1.7s1.2,1.2,1.5.8Z"/>
  <path class="st6" d="M194.5,108.8l-.4,3.5h-.5c-.1.1-.3.6-.2.6l.6.2-.4,2.5-1.7,1.4-3.4-4.1-1.9.2-.3-1.1.6-3.1c2-1.9,3.7,0,5.5-1.5l2,1.2Z"/>
  <path class="st6" d="M44.2,47.8l-.9,2.6-3.5,1.5-3.2,1.1-1.1-1.1v-.9c1-.9,1.8-1.5,3.4-2l.5-4.1c1.8.3,3.1.8,4.5,1.4-.1.5-.2.7-.2.8l.4.5Z"/>
  <path class="st14" d="M117.1,20.7c-.6-.2-.7,2.2-1,1.8l-.4-.6c-.1-.2,0-1.2-.3-1.1l-1.6.4,2.4-6.8,2.2,6.9-1.3-.6Z"/>
  <path class="st14" d="M97.7,26.7c-.4,0-.9,2.4-1.1,1.6l-.2-.8c0-.2-.3-1-.5-.9l-1.3.5,2.3-6.8,2.3,6.6-1.4-.2Z"/>
  <path class="st14" d="M135.6,20.8l2.2,6.4c-.4-.2-1.6-.8-1.7-.5l-.5,1.6c0,0-.4-.4-.6-.6,0-.5-.1-1.1-.4-1.1h-1.3c0,0,2-6.3,2-6.3l.4.4Z"/>
  <path class="st14" d="M60,35.1c-.3-.1-.7,2.5-1,1.6l-.2-.7c0-.2-.3-1-.5-.9l-1.4.6,2.3-6.5,2.3,6.5-1.5-.5Z"/>
  <path class="st14" d="M77.9,32.4c0,.6-.2.8-.4.1,0-.4-.2-1.4-.5-1.3l-1.4.4,2.1-6.7,2.2,6.6-1.2-.3c-.3,0-.5.4-.8,1.2Z"/>
  <path class="st14" d="M155.2,31.5c-.3,0-.9,2.4-1.1,1.5v-.8c-.2-.2-.2-1.1-.4-1l-1.4.4,2.1-6.5,2.2,6.5h-1.4Z"/>
  <path class="st14" d="M173.7,35.2l-.7,1.6-.6-1.4c-.1-.3-.9-.3-1.4-.3l2.1-6.2,2.1,6.7-1.5-.4Z"/>
  <path class="st6" d="M38.9,59.9l-1,3c-.2.7-1.9,1.4-2.6,1.1v-4.8s1.9-1,1.9-1l1.7,1.7Z"/>
  <polygon class="st6" points="187.6 124.1 186.9 125.9 183.8 124 184.6 120.8 188.6 121 186.3 122.2 187.6 124.1"/>
  <path class="st14" d="M187.3,50.9l-.4.9c-.3.5-.5-1.5-.6-1.5l-1.2.4,1.8-5.8,1.8,5.8-.8-.3c-.2,0-.5.2-.6.4Z"/>
  <path class="st14" d="M43.3,50.5l.9-2.6,1.1-3,1.6,5.3-1.9,1.4-.4-1.4c0-.3-1,.3-1.3.4Z"/>
  <path class="st14" d="M46.9,71.9c-.2.4-.7.6-1.3.7l-.2.9v.4c.1,0-.9-1.9-.9-1.9l-1,.8c0-.5,0-1.3.2-1.8l1.4-4.2,1.8,5.1Z"/>
  <path class="st14" d="M186.5,94.6l-.5-1.2c-.1-.3-.9,0-1.1,0l2-5.4,1.6,5.9c-.2-.1-1-.7-1.2-.5l-.8,1.3Z"/>
  <path class="st14" d="M38,62.9l1-3c.2-.7.3-1.7.1-2.4h.6c0-.1,1.8,5.7,1.8,5.7-.5-.1-1.2-.3-1.3,0l-.4,1.2-.7-1.4c-.1-.2-.7,0-1.1,0Z"/>
  <path class="st14" d="M192.7,64.3c0,.2-.7.3-.7.1s0-1.2-.3-1.1l-1,.2,1.7-5.8,1.7,5.9-1.1-.5c-.2,0-.3.7-.4,1.1Z"/>
  <path class="st14" d="M187.6,72.7l-.6,1.4-.5-1.4c0-.2-.7,0-1.2,0l1.8-5.5,1.8,5.7-1.2-.2Z"/>
  <path class="st14" d="M191.3,105.6c-.3.5-.4.4-.3-.1,0-.4-.2-1-.3-1l-1.2.3,2.1-5.5,1.4,5.7-.9-.3c-.2,0-.5.5-.7,1Z"/>
  <path class="st14" d="M186.9,125.9l.7-1.7,1-1.9.9,5.9c-.6-.1-1-.3-1.2,0l-.7,1.1-.4-1.6c0-.2-.7.1-1.2.3l.8-1.9Z"/>
  <path class="st14" d="M192.9,83.5l-.5,1.2c-.2.6-.6-1.2-.8-1.1l-1,.2,1.8-5.6,1.6,5.8-1.2-.4Z"/>
  <path class="st14" d="M181.6,133l.6,3.7c-.2-.2-1-.6-1.2-.3l-.7,1.1-.3-1.4c0-.2-.7,0-1.1.2l2.4-5.2.3,2Z"/>
  <path class="st14" d="M186.4,112.1l.3,1.1c0,.3,0,1.2,0,1.1-.4-.4-1-.8-1.1-.6l-.2.9c0,.1-.6.4-.6.3v-.8c-.2-.1-.3-.7-.4-.6l-.9.3,2-5.5.9,3.9Z"/>
  <path class="st6" d="M179.4,121.9l.3-1.1h1c.2,0,.2-.7,0-.8l-.7-.3v-.7s.8-.2.8-.2c.1,0,0-.6-.2-.6h-.5s.2-1.2.2-1.2c.4,0,1.4,0,1.6.3l.5,1.2c.5,1.2.5,2.5,0,3.7l-3.1-.4Z"/>
  <path class="st4" d="M53.2,39.6v.6c0,.1-.5.2-.6.2h-2.3s0,9.7,0,9.7l-.8.2v-6.1c.1,0,.4-4,.4-4l3.2-.6Z"/>
  <path class="st6" d="M42.9,68.2c-1.3-.1-2.1-.5-3.1-1l-2-.3c1-.9,1.5-1.4,2-1.6s1.6.7,2.2,1.3l.9-.8v2.3Z"/>
  <path class="st6" d="M37.6,72c-.8-.8-.5-2.4.5-2.4s1.1,1.1,1.1,1.6-1.2,1.2-1.6.8Z"/>
  <path class="st6" d="M45,65.9l-.5.8c0,.2-.7,0-.7-.2l1.1-3.1c.3.2.8.7.7,1s-.4,1-.7,1.5Z"/>
  <polygon class="st22" points="135.6 20.8 135.2 20.4 133.7 18.7 137.2 18.6 135.6 20.8"/>
  <path class="st14" d="M100.2,19.8c-.8.4-1.8.9-2.4.9s-.5-.9-.4-1.1.8-.6,1-.5l1.8.7Z"/>
  <path class="st6" d="M192.2,123.8v.7c-.1,0-1.2.2-1.2.2-.1,0,.3.5.4.5h.5s-.2.8-.2.8l-2.2.5.9-1.6c.2-.4.4-.9.7-.9h1.1Z"/>
  <path class="st6" d="M48.8,71v1.5s-2,.2-2,.2l2,.5v.7s-.8.2-.8.2c-.1,0,0,.6.2.6h.6s0,1.4,0,1.4l-3.1.3v-2.5c-.1,0-.3-.4-.3-.4l.2-.9c.6-.2,1.1-.4,1.3-.7s.3-1.2.6-1.2l1.3.3Z"/>
  <path class="st6" d="M41,56.5c0,.1.2,1,0,1h-.8c.2,0-1.3-1.9-.7-2.9l1.5,1.9Z"/>
  <path class="st4" d="M61,38.1v.6c0,.5-2.2-.4-3.8.8h-3.5c0,0,7.4-1.4,7.4-1.4Z"/>
  <path class="st6" d="M39.6,57.5h-.6c-.6.1-1.4-.2-1.8-.6.6-.3,1.5-.6,1.8-.4s.5.6.6,1Z"/>
  <path class="st6" d="M35.9,44.1l.2-1.9h.6c.2,0,.8.6.7.9-.3.4-1.2,1-1.6,1Z"/>
  <path class="st4" d="M65,37.4v.6c0,.1-.5.2-.6.2h-3c0,0,3.6-.8,3.6-.8Z"/>
  <polygon class="st4" points="72.4 35.9 72.3 36.7 69 36.7 72.4 35.9"/>
  <polygon class="st4" points="68.6 36.7 68.6 37.5 65.4 37.4 68.6 36.7"/>
  <path class="st6" d="M190.9,121.8c-.3.4-.8.8-1,.7l-1.2-.8.9-.4c.3-.1,1.3.4,1.3.5Z"/>
  <path class="st6" d="M182.1,129.9l.6.3-.2.9-.7-.4c-.2-.1,0-1,.2-.9Z"/>
  <path class="st6" d="M39.1,74.2c.4-.1.9-.3.8-.1l-.2.6c0,.2-.4-.2-.6-.5Z"/>
  <path class="st6" d="M188.7,120.3c.4,0,.2,0-.2,0-.9,0-.8,0,.2,0Z"/>
  <polygon class="st14" points="192.5 98.7 192.5 98.9 192.5 99.2 192.5 99.4 192.5 99.2 192.5 98.9 192.5 98.7"/>
  <rect class="st6" x="183.1" y="129.7" width=".3" height=".3" transform="translate(-38.1 167.6) rotate(-45)"/>
  <rect class="st6" x="44.4" y="44.5" width=".3" height=".3" transform="translate(-18.5 44.6) rotate(-45)"/>
  <rect class="st6" x="183.5" y="130.5" width=".3" height=".3" transform="translate(-38.6 168.1) rotate(-45)"/>
  <path class="st25" d="M45.6,74v2.5c.1,0,3.3-.3,3.3-.3,0,10.1.5,20.2,1.6,30.3-.2,0-.7,0-.7-.3v-1.3c-.2-.3-1.2-.5-1.4-.3l-1,.8-.8-.7c-.1-.1-.6.4-.8.5l-2.7,1.3c-.6.3-1.4.9-1.5,1.4s.3,1.7.5,2.3-.7,1.1-1,.9-.9-.7-1.1-.6l-1.9.8-1-9.6c2,.3,2.7-1.5,2.9-1.2l.5.5-1,4,.8-.6c.2-.1.3.3.5,1,.2.2.5.2.6,0,.1-.7.2-1.1.4-1l.9.3-1.2-4,1.2-1.8h2.6s-1.9-5.1-1.9-5.1l-1.7,1c-1.8-.4-3.6.4-5.1,1.7l-.7-12.9,2.4-.4c.4,0,.8,0,1,.2l.7,1,.6-1.2.9.2c.2,0,.3-.5.3-.5l1.4-.9c.1,0,.9.3.6.2v4.5c-.1,0-.9-1.3-.9-1.3-.1-.2-1-.2-1.3,0l-3.2,1.7c.9,3.1,2.7-1.4,6,.8l1.4-2c.2-.2.5-.7.7-.6h1c0,.1-.7-2.8-.7-2.8-1.1-.2-2.2-.5-2.6-1-1-1.3.4-2.6.1-4.6l-.5-4,1-.8,1,1.9ZM47.4,86.6c-.6-.2-1.9,0-1.7.3.2.4.8.8,1.1.8s.9-.9.6-1ZM45.4,94.6c0,.5.2,1.7.6,1.8.7.2,1.8.1,2.8,0l-.2-4.7-1.6.6-1.7-4.9-1.7,6,1.5-.7.2,1.7Z"/>
  <path class="st6" d="M41.3,100.7l-.6-1.4-.4,1.7-.5-.5c-.2-.3-.9,1.5-2.9,1.2l-.5-5.2c1.5-1.3,3.3-2,5.1-1.7l1.7-1,1.9,5h-2.6s-1.2,1.8-1.2,1.8Z"/>
  <path class="st23" d="M72.8,196c.4-.2,1.4.2,1.6.6s.2,1.4-.2,1.6-1.5.1-1.8-.2-.1-1.6.4-2Z"/>
  <path class="st25" d="M192,124.5v.7c-.1,0-.6,0-.6,0-.1,0-.5-.5-.4-.5l1-.2Z"/>
  <path class="st25" d="M194.1,112.3v.9c-.1,0-.7-.2-.7-.2-.1,0,0-.5.2-.5h.5Z"/>
  <path class="st0" d="M115.7,3.1c.3-.3,1.5.1,1.6.6s-.1,1.3-.4,1.6-1.3.1-1.6-.2,0-1.6.4-2Z"/>
  <path class="st23" d="M32,51.5c.5-.2,1.5.4,1.6.8s-.3,1.5-.8,1.7-1.2-.2-1.6-.6,0-1.6.7-1.8Z"/>
  <path class="st23" d="M197.9,103.6c.6-.2,1.5,0,1.6.3.3.6.3,1.6-.2,1.8s-1.7.1-2-.2,0-1.8.6-1.9Z"/>
  <path class="st23" d="M58.8,19.1c.4-.2,1.4-.1,1.8.1s.3,1.5-.2,1.9-1.2.1-1.7-.2-.4-1.4.1-1.8Z"/>
  <path class="st0" d="M199.5,77.8c.4-.2,1.3.2,1.4.5s-.2,1.5-.6,1.7-1.4-.2-1.7-.6.3-1.3.9-1.6Z"/>
  <path class="st0" d="M199.3,51.6c.4-.3,1.6.2,1.7.7s-.1,1.3-.5,1.6-1.6,0-1.8-.4,0-1.4.6-1.8Z"/>
  <path class="st23" d="M33.4,24.3c.4-.2,1.4.3,1.6.7s0,1.5-.5,1.6-1.3,0-1.6-.4-.3-1.5.6-2Z"/>
  <path class="st23" d="M144.2,12.1c.9-.1,1.7.1,1.7.5,0,.6-.2,1.6-.7,1.7s-1.3,0-1.6-.4,0-1.8.6-1.9Z"/>
  <path class="st23" d="M32,77.7c.4-.1,1.4.3,1.6.7s-.1,1.5-.7,1.7-1.4,0-1.7-.6,0-1.5.8-1.8Z"/>
  <path class="st23" d="M197.6,24.6c.3-.4,1.7-.3,2,.1s.2,1.3-.1,1.8-1.2.3-1.8,0-.6-1.3,0-1.9Z"/>
  <path class="st23" d="M172.2,18.7c.4-.2,1.4.3,1.6.7s-.2,1.5-.6,1.7-1.5-.1-1.8-.6.1-1.5.8-1.8Z"/>
  <path class="st0" d="M87,12.2c.9-.2,1.6,0,1.7.3.1.6-.1,1.7-.6,1.8s-1.3-.1-1.6-.4,0-1.6.5-1.8Z"/>
  <path class="st23" d="M115.5,226.4c.8-.4,1.7,0,2,.4s0,1.8-.6,2-1.2,0-1.7-.4-.4-1.7.3-2Z"/>
  <path class="st0" d="M174.6,175.6c.6-.2,1.6.2,1.8.6s0,1.4-.4,1.6-1.2,0-1.5-.2-.2-1.8.2-1.9Z"/>
  <path class="st23" d="M92.1,212.7c.6-.1,1.6.4,1.6.9s-.5,1.3-.8,1.6-1.4-.1-1.6-.5.2-1.7.8-1.9Z"/>
  <path class="st23" d="M158.8,195.8c.6,0,1.4.4,1.5.9s-.3,1.5-.8,1.6-1.4-.2-1.6-.6.3-1.8.9-1.9Z"/>
  <path class="st23" d="M37.5,128.9c.4-.2,1.6.4,1.6.9s-.5,1.3-.9,1.6-1.3-.1-1.5-.5,0-1.6.8-1.9Z"/>
  <path class="st23" d="M57.1,175.4c.4,0,1.3.6,1.3,1.1s-.3,1.3-.7,1.4-1.4-.2-1.5-.6c-.3-.6.2-1.7,1-1.9Z"/>
  <path class="st23" d="M33.5,103.5c.4-.2,1.4.5,1.5.9s-.3,1.5-.8,1.6-1.3-.2-1.6-.6,0-1.6.8-1.9Z"/>
  <path class="st10" d="M93.4,188.5h8.9c0,.1,3.1.3,3.1.3.7,0,1.1,2,1.1,2.6l-1.8,7-1.8.6-10.7-8.3v-2.3s1.2,0,1.2,0ZM104.7,193.7c.2-.9.2-2.8,0-3.5l-3.6-.6h-7.4c.1,1.8,1.6,2.1,2.6,2.9l3.3,2.6c1.3,1,2.9,2.2,4.3,2.7l.8-4.1Z"/>
  <path class="st10" d="M88,175.9v3.2s0,4.2,0,4.2c0,.7-.9,1.6-1.6,1.8l-8.8-9.3.3-1.9h9c.6.1,1.2,1.5,1.2,2ZM87.1,176.8c0-.4-.6-1.6-.8-2h-7.6c2.1,3.9,8.5,10.7,8.5,8.4v-6.4Z"/>
  <path class="st27" d="M104.8,198.4c0,.3.3,1.2.7,1.5l10.9,6.9,10.2-6.6c.4-.3,1-1.1,1-1.5l.9,1.2-12.2,7.8-13.3-8.6,1.8-.6Z"/>
  <path class="st10" d="M71.7,167.9c-.9-.8-1.7-2.3-2.4-3.5.1-.4.9-1.5,1.4-1.5h3.9s.1,4.5.1,4.5c0,.7-.8,2-1.2,2.1l-1.8-1.6ZM73.4,164.1c-.9-.8-2-.6-3.3-.5l2.2,3.5c.2.4,1.1,1.1,1.4.7.5-.8.5-3.1-.2-3.7Z"/>
  <path class="st14" d="M131.2,211.6c0,.6-.4,1-.6.2,0-.3-.3-1.5-.5-1.3l-1.3.8,2.1-6.7,2.1,6.5-1.2-.5c-.3-.1-.5.5-.6,1.1Z"/>
  <path class="st14" d="M102.2,210.5l-.7,2-.4-1.7c0-.3-.7-.1-1.4,0l1.9-6.1,2.2,6.4-1.5-.6Z"/>
  <path class="st14" d="M144.2,201.3c-.3.3-.9.8-.6.5-.2-.7-.3-1.6-.5-1.5l-1.2.5,2-6.4,2,6.4-1.1-.4c-.2,0-.4.3-.6,1Z"/>
  <path class="st14" d="M89.2,200.5c-.2,0-.4,2.1-.7,1.5l-.3-.6c-.1-.2-.2-1.2-.4-1.1l-1.2.5,2-6,2,6.1-1.3-.4Z"/>
  <path class="st14" d="M78.2,190.5l-.2,1.1c0,.1-.6-.2-.6-.3v-1.3c-.1-.3-1.1.2-1.5.4l1.9-6.5,1.9,6.5-.8-.3c-.2,0-.8.1-.8.4Z"/>
  <path class="st14" d="M156,190.2l-.7-.3c-.2,0-.4.7-.6,1.1,0,.6-.2.7-.3,0-.1-.4-.3-1.1-.5-1.1l-1.2.4,1.8-6.3,1.8,5.6.2.4s-.3.4-.2.4l-.3-.3Z"/>
  <path class="st14" d="M163.3,179.9c-.4-.6-.8-.9-1.7-1.5l1.9-5.9,1.8,6.5-.9-.5c-.3-.1-.6.5-1,1.3Z"/>
  <path class="st14" d="M69.4,179.9s-.6,0-.6,0c0-.5,0-1.4-.2-1.3l-1.3.3,1.8-6.5,1.9,6.5-1-.3c-.3,0-.4.7-.5,1.2Z"/>
  <path class="st14" d="M61.2,170.1c0,.4,0,.8,0,.8-.2,0-.5-.2-.6-.4l-.2-.8c0-.2-.5,0-1.1.2l.8-6,2.6,5.5h-.9c-.3-.2-.5.5-.5.8Z"/>
  <path class="st14" d="M171.2,170.8l-.2-1.4c0-.3-.7,0-1.2,0l2.5-5.5,1,6c-.3-.1-.9-.5-1.1-.3l-1,1.1Z"/>
  <path class="st14" d="M181.5,150.2l-.2-1.8-1.5.3,2.8-5.3.8,5.9-1.1-.4c-.2,0-.4.6-.8,1.3Z"/>
  <path class="st14" d="M46,111.3l.7-3,2.3,5.4h-1.1c-.2-.2-.3.2-.6.8,0,.3-.2.4-.4.1-.2-.5-.3-1-.5-1l-.9.2.5-2.5Z"/>
  <path class="st14" d="M44.6,129l-.6-1c-.1-.2-.7,0-1.1.1l.8-6,2.6,5.6-1-.2c-.3,0-.4.7-.6,1.5Z"/>
  <path class="st14" d="M174,156.8l-.8,1.8-.2-1.4c0-.2-.4-.3-1.2-.6l2.6-5,.9,6.1-1.3-.9Z"/>
  <path class="st14" d="M58.9,158.3l-.5-1.2c0-.2-.8,0-1.4.3l.8-5.9,2.4,4.7c-.9.6-1.1,1.1-1.4,2Z"/>
  <path class="st14" d="M52.5,136c-.4,0-.5,2.2-.8,1.3l-.3-.9c0-.3-.7,0-1.3.2l.9-5.9,2.4,5.4-.9-.2Z"/>
  <path class="st14" d="M50.8,150.3l-.6-1.3c-.1-.3-.9,0-1.2.2l.6-5.7,2.6,4.8c-.5.1-1.1.2-1.1.5l-.2,1.5Z"/>
  <path class="st4" d="M92.3,188.4v2.3s-6-5.6-6-5.6c.8-.2,1.6-1.2,1.6-1.8v-4.2c0,0,.3.3.3.4l.2,6.2c0,1.4,2.7,2.8,3.8,2.7Z"/>
  <path class="st25" d="M46.7,108.3l-.7,3c-1.4,0-1.9-1.2-2.4-2.5l-.3-1c0-.1.4-.2.5-.2l.7.3c.6,0,1.4.2,2.2.4Z"/>
  <rect class="st25" x="46.3" y="105.4" width=".3" height=".3" transform="translate(-61 63.7) rotate(-45)"/>
  <path class="st14" d="M118,219.3l-.8-.4c-.3-.1-.5.7-.5,1.1-.3.4-.7.9-.5.5l-.5-1.4c0-.3-1,0-1.4.3l1.8-6.1c0-.1,0-.8,0-1s.4.6.4.7l1.7,6,.2.3c0,0-.2.4-.2.3l-.3-.3Z"/>
  <path class="st19" d="M124.1,27.9c-4.2,25.8-4.5,51.7-4.5,78.2,0,21.2.3,42,2.6,63.1s2.7,19.9,5.4,29.5c0,.4-.6,1.2-1,1.5l-10.2,6.6-10.9-6.9c-.4-.3-.8-1.1-.7-1.5l1.8-7c2.5-9.6,3.4-19.5,4.3-29.7,1.3-15.5,1.7-30.5,1.9-46.1l-.3-39.1c-.1-.3-.2-.7-.4-.8h-.4s0-.7,0-.7c.3,0,.7-.3.7-.5v-1.3s0-.7,0-.7l-.4-6.3c0-.2-.3-1-.4-.8v-5.2c-.4-10.8-1.7-21.5-3.4-32.5l8.2-2.8,7.8,2.9ZM115.5,38.3c3,.3,5-1.3,5.7-4.1s.3-2.1-.1-3.4c-.8-2-2.7-3.1-4.7-3.2s-4,.7-4.8,2.4-1,3.7-.1,5.7,2.3,2.4,4,2.6ZM116,55.8c-1.7.2-2.3,1.6-2.2,2.9s1.4,2.1,2.6,2,2.2-1.3,2.1-2.6-1.3-2.4-2.6-2.2ZM115.3,79c-1.5.7-1.8,2.2-1.2,3.3s2,1.5,2.9,1.1,1.8-1.9,1.3-3.2-1.8-1.8-3-1.2ZM115.4,103.6c-1.3.5-1.9,2.1-1.4,3.2s2,1.7,3.1,1.3,1.8-2,1.3-3.1-1.8-1.8-3-1.3ZM115,127.7c-1.4.9-1.4,2.5-.7,3.5s2.1,1.2,2.9.7c1.3-.8,1.6-2.2,1-3.3s-2.2-1.6-3.3-.9ZM115.3,150.6c-1.5.6-2,2.1-1.4,3.4s1.9,1.6,3,1.2,1.9-1.8,1.5-3.1-1.7-2.1-3.1-1.5ZM115.2,173.8c-1.4.5-1.8,2.2-1.2,3.4s2,1.7,3,1.2,1.9-1.9,1.5-3.1-1.7-2.1-3.3-1.5ZM114.9,192.6c-3.2.9-4.5,4.1-3.7,6.7s3.7,4.3,6.4,3.6,4.6-3.6,3.8-6.5-3.4-4.6-6.5-3.8Z"/>
  <path class="st0" d="M92.1,92.6c.6,2.7-.3,5.4-2.6,6.7l-10.2-.3-12.7-.7c-.4-2.8,0-5.1,0-7.7l-.3-6.9c1.3-.8,2.8-1.1,4.4-1l9.6.4c4.7.2,12.6-1.3,12.3,3.1l-.4,6.5Z"/>
  <path class="st0" d="M89.4,54.4h.8s1.5,1.8,1.5,1.8v.4c0,0,.2,4.3.2,4.3l.4,5.1c0,.6-.3,1.8-.7,2.4l-13.2,1.5c-3.6.4-7.1-.5-10.7-.6s-1.7-1.2-1.7-1.9l.2-7.9c0-1.6.9-3.1,1.6-4.3h.3s1.5-.8,1.5-.8h1.4s6.8-.2,6.8-.2h8.3c0,0,3.3.2,3.3.2Z"/>
  <path class="st24" d="M95.9,162.2l-9.4-.2c-.6,0-1.7-.3-2.1-.6s-.8-1.7-.8-2.4l.3-10.9,8-.4c4.2-.2,8.4-.4,12.6,1.5v12c0,0-8.6.9-8.6.9Z"/>
  <path class="st0" d="M88.3,112.7c-2.6,0-5.1.4-7.7,0s-1.8-2.2-1.8-3.3v-8.1c-.1-.6,1.2-1.4,1.7-1.3l13.4.2,3.4-.4c.6,0,2-.1,2.4.2s.9,1.4,1,2l.4,8.6c0,.8-1.5,1.7-2.3,1.7l-5.6.3h-4.7Z"/>
  <path class="st24" d="M103,98.1c-3,.4-6.2.6-9-.5-1.2-2.9-.9-6.4-.8-9.6s.2-3.1,1.3-4.2l17.2-.8.3,15.2h-9Z"/>
  <path class="st24" d="M105.4,188.9l-3.1-.2-4.3-.6-4.6.4h-1.2c-1.1,0-3.7-1.4-3.8-2.8l-.2-6.2c0,0-.3-.4-.3-.4v-3.2s1.1-1.2,1.1-1.2c6.6-.8,12.9-.8,19.6-.1l-2.2,13.5-1.1.8Z"/>
  <path class="st0" d="M76.1,113l-10,.2c-2.9,0-5.8-.2-8.3-1.8l-.4-9.8c0-.9.6-2.1,1.6-2l16.6.2c1.3,0,2,1.1,2.1,2.2l.2,8.9c0,.7-1,2.1-1.8,2.1Z"/>
  <path class="st0" d="M95,131.8c-3,0-5.5.4-8-1.3v-7.5c1.2-1.5,3.6-1.6,5.3-1.4,3,.2,5.4-.1,8.2-.7s7.5.1,11.3.4l-.2,10.2-7.5.5-9.1-.2Z"/>
  <path class="st0" d="M78.5,82.1c-.8,0-2.4-.4-2.4-1.1v-8.2c0-.6.9-1.7,1.5-1.8l10.4-1c2.7-.3,6.3-.5,8.7,1.1,2.4,2.8,2.6,7.1,1.9,10.8-2.6.4-4.8.5-7.3.3-4.3-.3-8.2-.4-12.8-.2Z"/>
  <path class="st0" d="M86,131.8c-3,.8-6.1.7-9.2.5l-12.3-.5c-1.4-4.4-2.8-11.4.6-11.3l12.4.3c2.9,0,5.6-.5,8.5.8v10.2Z"/>
  <path class="st24" d="M95.5,145.8c-.6,1.7-11.2,1.6-16.1,1.1s-2.4-1-2.3-2l1.3-11.1,8.5-.8,7.9-.2c.5,0,1.1.6,1.1,1.2v10.1c-.1.4-.2,1.3-.3,1.7Z"/>
  <path class="st0" d="M72.7,146.8h-11.7s-4.6-13.6-4.6-13.6l9.4-.2c3.3,0,6.2-.6,9.3.7s1.9,1.4,1.8,2.7l-.7,8.5c0,1-2.4,2-3.4,2Z"/>
  <path class="st24" d="M78.6,162.2l-9.3.2c-1-1.5-2.6-3.2-3-4.9-.7-3.2-.3-6.3,0-9.7l10.3.2c1.6,0,5.1.6,5.5,2.7l.3,9.3c0,1.1-2.5,2.2-3.7,2.2Z"/>
  <path class="st24" d="M96.1,172.8l-8.2.9-5.2-.2-5.6-.3c-1,0-2.3-1.9-2.2-2.9v-7c.1,0,12.3-.2,12.3-.2h5.2c1.2,0,2.7.5,3.5,1.2l.2,8.4Z"/>
  <path class="st24" d="M67.5,81.9c-3.8.5-6.9,1.1-10.7.2l-.3-8.5c0-.5.3-1.5.6-1.8s1.2-.6,1.8-.6l11.7-.5c1.5,0,2.9.3,4.3,1v10.3c-2.5,0-4.9-.3-7.4,0Z"/>
  <path class="st24" d="M100.6,147.1c-2,0-3.2-.9-3.7-2.5-.5-3.1-.6-6.2-.3-9.4-.1-1.4.9-2.5,2.4-2.4,4.2.3,8.2.1,12.6-.3l-.6,14.2-10.4.3Z"/>
  <path class="st24" d="M103.6,70.2h7.4c.8.5.1,2,.6,2.2l.8.2v.7c-.3,0-.8.3-.8.6v1.3s.1.7.1.7v6.1c.1,0-11.4.4-11.4.4l-.5-6.8.8-2.6c0-.1.1-.3.2-.4.5-.7,1.7-1.8,2.4-2.2s.5,0,.6,0Z"/>
  <path class="st0" d="M64.3,98.5l-13.7.8-.5-9.7c5.6,1.2,10.2.8,15.8-.3,0,2-.4,3.5-.7,5.1l-.9,4.1Z"/>
  <path class="st0" d="M91.5,120.5l-6.6-.4c-2.8-.2-5.5-.6-8.4-.5h-6.2c0,.1.2-5.5.2-5.5l11.4-.2h7c.5,0,2,.4,2.1.9l.5,5.8Z"/>
  <path class="st24" d="M97.4,171.8c-.8-3-.5-5.7.4-8.6l5.8-.6h6.2c0,.1-1.1,11-1.1,11l-11.3-1.8Z"/>
  <path class="st24" d="M62.3,70c-3.3.3-6.1.1-9.1.7l-3.5.2v-7.8c.1,0,10.4-.4,10.4-.4,1.2,0,3.5-.8,4.4.5.8,1.9.7,4.4.5,6.6l-2.6.2Z"/>
  <path class="st24" d="M104.6,119.2l-6,.8c-2.2.3-3.9.4-6.1,0v-6.2c2.7-.5,4.8-.7,7.3-.6l6.1.2v4.3c.1.4-.7,1.4-1.2,1.5Z"/>
  <path class="st24" d="M112,112.5l-6-.3-.6-8.6c0-1.1.9-3.4,1.8-4s3.2-.4,4.8-.2v13.1Z"/>
  <path class="st0" d="M61.4,56.3v1s0,4.3,0,4.3l-11.5.3.2-7.1h9.1c.6,0,1.8,1.2,2.2,1.5Z"/>
  <path class="st0" d="M67,116.8c-.4,1.3-2,2.8-3.3,2.8l-10.5.3-.8-6.3,12,.5c1.3,0,3.2,1.1,2.7,2.7Z"/>
  <path class="st0" d="M64.9,88.4h-14.7s-.2-5-.2-5l5.6-.2,9.8.3c.2,1.6,0,3.2-.4,4.9Z"/>
  <path class="st24" d="M61.4,123.5l-.3,3.9v4c-1.8.5-3.1.7-5,.8l-2.7-11.4h5.7c1.4-.1,2.3,1.3,2.2,2.7Z"/>
  <path class="st0" d="M56.6,112.1c-1.4.7-2.9.8-4.5.6l-1.5-12.6c2.1,0,3.7,0,5.6.7.8,3.7.9,7.3.3,11.2Z"/>
  <path class="st0" d="M54.8,72.6c1.1.7,1.5,7.4.6,8.6s-3.6,1.2-5.5,1.3v-10.3c1.8-.3,3.5-.5,5,.4Z"/>
  <path class="st24" d="M110.1,161.4c-1.8-.8-3.3-1.8-4.7-3.2l.4-8.9,5.2-.6-.9,12.7Z"/>
  <polygon class="st0" points="111.9 120.2 107 119.8 106.8 113.3 111.9 113.6 111.9 120.2"/>
  <polygon class="st0" points="64.8 147.9 65.1 155.1 61.7 147.9 64.8 147.9"/>
  <polygon class="st25" points="48.8 72.5 48.8 73.2 46.8 72.7 48.8 72.5"/>
  <path class="st25" d="M48.8,74v.7s-.6,0-.6,0c-.1,0-.4-.5-.2-.6l.8-.2Z"/>
  <path class="st20" d="M139.6,116.8v.3c-.2,0-.7,0-.7.2v1c-.3,2,2.8,3.3,1.1,4.7s-1.1.6-1.5.5l-1.8-.5c-1.1-1.6-1.1-3.6-.4-5.7-1.7,1.7-2.5,3.8-2.5,6v2.3s4.6,3.5,4.6,3.5l-4.6,4.5v5.9s5.1,5.1,5.1,5.1l-1.2,3.4c1.7,2.9-1,4.6,2.7,7.2s3,1.8,4.7,1.9,1.1.7,1.4.5l1-.8c2.2-1.9,4.3,1.3,6.7-.5l2.7-.2.6.2v.4c0,.8,7.9.4,8-5.6v-4.3c3.1-2.2,3.9-5.7,2-8.8s0-4.2-.3-4.3l-.9-.3v-.4c0,0-1.3-.5-1.3-.5,0,0-1.2-2.7-.7-3.3,1.1-1.3,4.7-2,4.1-7.9h1.4c.2.1.6-.7.8-.8,1.6-1.1,2-3,1.4-5.3,1.4-.3,1.3,2.1,5.3,1.1l1.3-1.5c-.2.9,0,2.5-.1,3.3l-.6,3.6-1.3,4.6-.7,3.4-.7,3c-.3,1.2-.6,2.1-1,3.2l-2,5.7-1.2,3.6-2.3,5.4-1.7,3.2c-.6,1.2-1.2,2.4-2,3.4-.8,2.8-2.2,5.6-4.6,7.4l-.3,1.8-1.8,2.3c-.6.8-1,1.5-.9,2.4l-2,2.1c-.9,1-1.4,2-2.3,2.9l-4.4,4.7-1.5,1.5-8.2,8c-2.1.6-2.5,2.5-5.4,4.1l-2.2,1.2-2.3,1.5-.8-2.5-.8-3.3-.7-3.3-.7-3.4-.8-5.2-.6-4.1-.5-2.3-.3-4.6c-.1-1.8-.6-3.3-.6-5.2,0-1.5-.1-3-.6-4.4.6-1,.8-2.1-.1-3.1v-6.8c-.1,0-.8-2.6-.8-2.6v-17.7c-.3-.5-.7-1.7-.7-2.2v-8.5s.8-1.5.8-1.5c0-.3.2-1.1.5-1s1,.3.8.2l-.5,1.1c0,.2.4.5.5.5s.7-.5.8-.7l.9-.8c1,.8,3,1,4.2.4l4.1-2.2c.9-.5,2.8-.3,3.8-.3l5.2-1.8c.4-.6,1-1.4,1.5-1.9l.9,1.8-1.4,2.5c-1.8.2-3.5,1.3-3.6,2.8Z"/>
  <path class="st13" d="M157.4,171.1c-.1-.9.3-1.7.9-2.4l1.8-2.3.3-1.8c2.5-1.8,3.8-4.6,4.6-7.4.8-1,1.4-2.2,2-3.4l1.7-3.2,2.3-5.4,1.2-3.6,2-5.7c.4-1.1.7-2,1-3.2l.7-3,.7-3.4,1.3-4.6.6-3.6c.2-.9,0-2.5.1-3.3l.7-2.7c.4-1.8.2-3,.8-4.6v-3.5c.8-1.5.9-2.7.6-4.2s-.2-2.3-.2-3.4c0-1.6.3-3,.9-4.7s.1-3,.2-4.5v-1.8c.1,0,.1-7.4.1-7.4v-8s0-7,0-7v-1.5s-.2-9.9-.2-9.9c0-2.9-.7-6.1-.5-8.8s-.6-1.3-1.1-1.3l-2.5-.4c0,0-.7-.5-1-.5l-4.2-.2-3-.7-.5-.2-3.3-.3c-.5-.8-1.9-.6-2.8-.8l-5.1-.8c-.1-.2-.7-.6-1.1-.6l-2.4-.3-2.3-.5-1.4-.2-1.7-.6c-1.2-.4-2.5-.6-3.7-.7l-4.4-.6v-.6c0-.1-.6-.2-.7-.2h-1.8s-.4,0-.4,0v-.5c-.1-.2-.6,0-.8-.1l-2.1-.6c-.6-.2-1.6-.2-2.2-.2,0,0-.2-.5-.4-.6l-1-.3-3.2-.9-1.9-.6v3c-.4.1-.8.7-.8,1.1v3c-.6,1.7-.8,2.9-.8,4.5v2.6c0,0-.7,0-.7,0v5.1c0,2.8-.2,5.5-.7,8.5v3.7c0,1.4-.5,2.6-.5,4.1l-.3,5.8v4.8c0,0,0,3.7,0,3.7h-.5c-.1.1-.2.6-.2.7v4.8s0,33.2,0,33.2v8.5c0,.5.5,1.7.7,2.2v17.7s.7,2.6.7,2.6v6.8c1,1,.8,2.2.2,3.1.5,1.4.7,2.8.6,4.4,0,1.9.5,3.4.6,5.2l.3,4.6.5,2.3.6,4.1.8,5.2.7,3.4.7,3.3.8,3.3.8,2.5,2.3-1.5,2.2-1.2-5.1,4.4c-2-7.4-3.6-14.4-4.4-21.9l-1.6-14.1-.8-11.2-.4-6.6-.4-9.5-.3-10.9v-39.9c0,0,.2-3.7.2-3.7l.3-10,.7-13.6c.5-9.9,1.7-19.6,3.3-29.3l14.6,4.1c13.9,3.4,27.6,6.1,41.9,8.7l.5,8.7.3,4.8v30.2s-.4,10.3-.4,10.3l-.3,4.8-1.9,15.4c-1.1,9.1-3.4,17.7-6.5,26.3-3.8,10.8-8.9,20.7-15.8,29.6Z"/>
  <path class="st25" d="M179.7,120.8l.4-1.2.7.3c.2.1.1.8,0,.8h-1Z"/>
  <path class="st25" d="M180.1,119v-.7s.6,0,.6,0c.1,0,.3.5.2.6l-.8.2Z"/>
  <path class="st12" d="M74.3,52.7c-2.4-1.1-3.8.7-6.3.3-2.2,1.2-3.8,4.1-3.7,6.4-.1,0-.8.3-.9.2l-.5-.2c-.2,0,.4-.7.5-.8-.3-.8-.5-1.7-.7-2.8s-2-2.6-3.3-2.7l-8.4-.2v-10.8c1.4-.6,2.9-.9,4.4-1.2l3.8-.7,2.9-.7,2.6-.5,3.3-.5c2.8-.4,5.1-.9,7.8-1.7l2.2-.6,3.9-.3,6.4-1.7,9.4-2.3,5.2-1.6,3.2-.7c.6,0,1,1.5,1,2.4-.1,1.3.4,2.2.5,3.4l.5,5.4c.1,1.4.5,2.6.5,4.1s.5,2.7.6,4.1v5.8c.1,0,.9,2.2.9,2.2v11.4c0,0-7.2.1-7.2.1-1.1,0-2.5,1.1-3.5,2l-3.1-1.9c-.6-.3-2.4-.4-2.5-1.3v-10.3c-.1,0-2.6-3.9-2.6-3.9l-2.7-.7-11.8-.2c-.7,0-1.9.3-2.5.4Z"/>
  <path class="st4" d="M89.4,54.4l-3.3-.3h-8.3c0,0-6.8.3-6.8.3v-.8c.1,0,17.7,0,17.7,0,.2,0,.7,0,.7.2v.5Z"/>
  <polygon class="st10" points="111 69.1 111 70.2 103.6 70.2 103.4 69.2 111 69.1"/>
  <path class="st4" d="M112.3,72.6l-.8-.2c-.4-.2.3-1.7-.6-2.2v-1c.5-1.1.5-2.4.6-3.7,0-.2.4.6.4.8l.4,6.3Z"/>
  <path class="st4" d="M69.5,54.4l-1.5.8c0-.4.2-.8.5-.8h1Z"/>
  <path class="st4" d="M102.9,70.3c-.7.4-1.9,1.6-2.4,2.2.6-1.8,2.1-3.2,2.4-2.2Z"/>
  <path class="st4" d="M91.6,56.2l-1.5-1.8c.7,0,1.6,1.1,1.5,1.8Z"/>
  <path class="st14" d="M41.5,82.9s-.1.5-.3.5l-.9-.2-.6,1.2-.7-1c-.1-.2-.6-.2-1-.2l1.6-5.3,1.8,5.1Z"/>
  <path class="st20" d="M188.1,35.9c-.2.6-.6,1.4-.9,1.6s-1.1-.3-1.7-.9l2.5-1.6c0-.5,0-1.3.3-1.6.5-.4,1.6-.3,1.9.1s0,1.7-.5,1.8c-.7.1-1.6.3-1.7.6Z"/>
  <path class="st13" d="M189.1,32.4c-1.1-.3-1.2-1.9-.5-2.4s1.4.3,1.5.8-.5,1.8-1,1.6Z"/>
  <path class="st13" d="M193.7,34.1c0,.4-.9,1-1.3,1s-1.5-.6-1.7-.8c.5-1.4,2.5-1.1,2.9-.1Z"/>
  <path class="st13" d="M189.4,38.6c-.3,0-1.1-.7-1.1-1s.3-1.3.8-1.7,1,.7,1.1,1.1-.3,1.5-.7,1.6Z"/>
  <path class="st13" d="M192,37.4c-1,.5-2-.8-1.7-2,.3,0,1.1.1,1.5.2.6.2.9,1.5.3,1.8Z"/>
  <path class="st20" d="M187.6,34.3l-1.4.7c-.3.2-1.3-.5-1.3-.8.2-1,2.1-1.2,2.7.1Z"/>
  <path class="st20" d="M192.3,31.2c.3,1.3-.9,2.3-2,1.9l.5-1.7c.1-.4,1.4-.6,1.5-.2Z"/>
  <path class="st20" d="M43.8,35.3l-1.8-.3c-.4,0-.2-1.5,0-1.8s1.4-.3,1.8,0,.4,1.1.3,1.7l.2.2,2.3,1c.3.5-1.2,1.6-1.7,1.2l-.9-1.9-.2-.2Z"/>
  <polygon class="st20" points="41.9 33.8 39.2 35.6 38.4 33.6 41.9 33.8"/>
  <path class="st13" d="M43.5,38.4c-.2.4-1.5-.3-1.5-.8,0-.7.5-1.8,1.3-1.7.4.2.6,1.8.2,2.5Z"/>
  <path class="st13" d="M43.1,32.3c-1.1,0-1.5-2.2-.5-2.4s1.1.4,1.2.8-.3,1.6-.7,1.6Z"/>
  <path class="st13" d="M39.4,36.6c.3-.6,1.5-1.3,2.4-1.3,0,.4-.2,1.5-.5,1.9s-1.3.2-1.9-.6Z"/>
  <path class="st13" d="M46.2,31.8c0,1.2-2,1.3-2,1.1v-1c.1-.3.8-1,1.1-1.2s.9.7.9,1Z"/>
  <path class="st13" d="M41.8,33.4l-2.4-1.6,1.4-1.1c.7.7.9,1.1,1,2.7Z"/>
  <path class="st25" d="M45.4,73.6l.2-.9-.2.9Z"/>
  <path class="st6" d="M45.4,94.6l1.6-2.2,1.6-.6.2,4.7c-1,0-2.2,0-2.8,0s-.6-1.3-.6-1.8Z"/>
  <polygon class="st14" points="47 92.4 45.4 94.6 45.2 92.9 43.7 93.5 45.4 87.5 47 92.4"/>
  <path class="st14" d="M41.3,100.7l1.2,4-.9-.3c-.2,0-.2.4-.4,1-.1.1-.5.1-.6,0-.2-.7-.3-1.1-.5-1l-.8.6,1-4,.4-1.7.6,1.4Z"/>
  <path class="st14" d="M47.4,86.6c.3.1-.3,1-.6,1s-.9-.4-1.1-.8,1.1-.5,1.7-.3Z"/>
  <path class="st9" d="M104.7,193.7l-.8,4.1c-1.4-.5-3-1.6-4.3-2.7l-3.3-2.6c-1-.8-2.5-1.1-2.6-3h7.4c0,.1,3.6.7,3.6.7.1.7.1,2.6,0,3.5Z"/>
  <polygon class="st4" points="102.3 188.7 93.4 188.5 98 188.1 102.3 188.7"/>
  <path class="st9" d="M87.1,176.8v6.4c.2,2.3-6.2-4.4-8.4-8.3h7.6c.2.3.8,1.5.8,1.9Z"/>
  <path class="st3" d="M73.4,164.1c.7.6.8,3,.2,3.7s-1.1-.3-1.4-.7l-2.2-3.5c1.3-.2,2.4-.3,3.3.5Z"/>
  <path class="st8" d="M115.5,38.3c-1.8-.2-3.4-1-4-2.6s-1-3.6.1-5.7,2.9-2.5,4.8-2.4,3.9,1.2,4.7,3.2.5,2.2.1,3.4c-.7,2.7-2.7,4.4-5.7,4.1ZM115.7,31c.8.3,1.3-.4,1.3-1.2s-.6-1.3-1.4-1.1-.5,2.1,0,2.3ZM114.7,31.4c.3-.9-.8-2.1-1.6-1.9-.2.4-.3,1.2,0,1.6s1.6.7,1.7.3ZM117.7,31.6c.8.5,2.1-1.2,1.5-1.8-.3-.3-1.2-.1-1.5.2s-.3,1.5,0,1.7ZM115.7,31.6c-.6.3-1.1,1.4-.8,1.8s1.4.9,1.8.6.8-1.3.6-1.8-1.2-.9-1.6-.7ZM114.3,32.9c-1-1.4-2.4-1.2-2.7-.2s.9,1.3,1.3,1.1,1.4-.8,1.5-.9ZM121,32.6c-.6-.3-1.3-.7-1.8-.7s-1.2.8-1.1,1.1c.5.7,2,1.2,2.9-.4ZM114.6,35.5c.3-.2.4-1.4,0-1.4s-.9,0-1.1.2l-1,1.1c-.2.2.6,1,.9.8l1.1-.7ZM119.5,36c.4-.3-.2-1.6-.6-1.6h-1.5c0,1.1,1.3,2.2,2.1,1.6ZM116.3,37.5c.8-.6.7-2.5.1-2.9-.9.3-1.3.9-1.3,1.7s.7,1.5,1.1,1.3Z"/>
  <path class="st27" d="M114.9,192.6c3-.8,5.7,1.2,6.5,3.8s-.9,5.8-3.8,6.5-5.6-.8-6.4-3.6.6-5.9,3.7-6.7ZM114.1,193.7c-2.4,1.1-3,4.2-1.9,6.3s4,2.9,6.2,1.8,2.9-3.7,1.9-5.8-3.6-3.5-6.3-2.2Z"/>
  <path class="st4" d="M115.3,150.6c1.4-.6,2.8.3,3.1,1.5s-.2,2.5-1.5,3.1-2.5-.2-3-1.2-.1-2.7,1.4-3.4ZM115.7,151.4c-1,.5-1.4,1.7-1.1,2.3s1.6,1.1,2.2.8,1.2-1.3.9-2-1.4-1.3-2.1-1Z"/>
  <path class="st27" d="M115.2,173.8c1.6-.6,2.9.2,3.3,1.5s-.2,2.5-1.5,3.1-2.4-.2-3-1.2-.2-2.8,1.2-3.4ZM116.1,174.3c-1,.2-1.8,1.2-1.6,2s1.2,1.6,2,1.5,1.5-1.3,1.4-2.1-1.1-1.4-1.8-1.3Z"/>
  <path class="st27" d="M115,127.7c1.1-.7,2.7-.2,3.3.9s.3,2.5-1,3.3-2.2.3-2.9-.7-.8-2.6.7-3.5ZM115.7,128.2c-1,.2-1.3,1.5-.9,2.3s1.5.9,2.3.6,1-1.5.7-2.1-1.4-.9-2-.8Z"/>
  <path class="st4" d="M115.3,79c1.3-.6,2.6.2,3,1.2s0,2.6-1.3,3.2-2.4,0-2.9-1.1-.3-2.7,1.2-3.3ZM116.1,79.6c-.9.1-1.6,1.2-1.5,1.9s1.3,1.4,1.9,1.3,1.5-1.1,1.4-2-1.1-1.3-1.8-1.2Z"/>
  <path class="st4" d="M116,55.8c1.3-.2,2.5,1.2,2.6,2.2s-.9,2.5-2.1,2.6-2.5-.8-2.6-2,.5-2.6,2.2-2.9ZM115.7,56.6c-1,.4-1.5,1.6-1.1,2.3s1.5,1.2,2.1,1c1-.4,1.3-1.4,1-2.2s-1.2-1.4-2.1-1.1Z"/>
  <path class="st27" d="M115.4,103.6c1.3-.5,2.5.2,3,1.3s0,2.5-1.3,3.1-2.5,0-3.1-1.3,0-2.6,1.4-3.2ZM115.7,104.3c-1,.3-1.4,1.4-1.1,2.2s1.4,1.2,2.1.9c.9-.3,1.3-1.3,1-2.2s-1.3-1.1-2-.9Z"/>
  <path class="st4" d="M112.3,73.2v1.3c0,.3-.4.6-.8.5v-1.3c0-.3.4-.6.8-.6Z"/>
  <path class="st17" d="M132.2,31.6c.6,0,1.6,0,2.2.2l2.1.6.3.6c0,.1.4,0,.5,0h.4s-.3,2.1-.3,2.1c.8-.8.9-1.2,1.2-1.3s1.3,0,1.6,0l4.4.6c0,.6.2,1.8.6,2.3s1.7.6,2.4.7c.3.5.7,1.5,1.2,1.7s1.5.1,1.8,0c-.2-.8-.4-1.4-.8-1.5l-1.3-.4c-.3,0-.3-1.2,0-1.3l1.5-.2,1.4.2-.5,1.5,2.8-.3.3,1.6c0,.4,1.2-.2,1.6-.4l1.5-1.1,5.1.8c1,.2,2.4,0,2.8.8.7,1.1,2.1.8,3.3.3l.5.2c-.2.4,0,1.9.6,2.1,1.2.5,3.3,0,4.4-.5l1.1.7,2.1-.9,2.5.4c.5,0,1.1.9,1.1,1.3-1-.3-1.9.3-2.3,1.4l-3.6,1,2,.8.3,3.1c2.2.1,3.6,1.9,3.6,4v8.4s.7,0,.7,0v1.5s-1.4,1-1.4,1l-3,.2c-1.1,1.8,0,3.7,1.6,4.5l2.8,1.3v8s-2,.4-2,.4l-.9-3.3-.9.3-.5-.3-1.5,3.1c-.4.9-1,2.1-1,3v1c0,.2.4,0,.6,0l1.1.9c-.5.5-1.6,1.6-2.2,1.3-1.7-1-3-2-3-3.8v-3.7c-.1-.4.4-1,.6-1.3,2-.4,3.4-2.6,2.3-4.7l-1.3-2.6-.8,1.6-.3,4.3-1.5.2c-.4,0-.5.9-.7,1.2-.5.8-1.1,2.1-1.4,3.2l-.6,2.7-1.8,1.6c-.3.3-.8,1-.7,1.4.6,1.7,1.8,1.8,2.3,3s-1.8,2.3-2.2,4.6l-.7,1.1c-.2.3-1.2.3-1.7.2l.7-2.6c0-.3-.4-1-.4-1.3l-.3-4.7-1.3-.5c-.3-.1.2-1.3.5-1.5l2.1-1.4c.9-.6,1.1-2.8,1.4-4l.4-1.8c0-.4-.8-1.1-1.2-1.6-.8-1,.5-2.4,1.2-3.2v-7.6c0,0-2.1-3.3-2.1-3.3-1.2-.6-1.8-1.2-1.5-2.2,2.3-1.2,3.1-4.1,1.5-6.4s-1.2-2.7-1.3-4.3l-.6.7h-.9c-.4,0-.6,3.1.6,5.8h-2.8c0-1.8-.5-4.1-2-5.1l-2.5-1.8c-.6-.8-1.3-2.6-1.6-3.7l-.8-3.1c-1.6,1.1-2.1,1.8-2.5,4,0,1.7.6,3.3,1.9,4.3.6.9,1,1.6,1,2.3.2,1.8-3.1,2.2-4,4.8l-.8.7c-.5-2.9,1.9-5.1-.2-7.2-.4,3.8-3.2,3.6-3.6,6.4l-1.8.2-.6.2.2,3.3-2.4,3c-1.5,1.9-2.6,4.5-1.6,6.9l1.8,2.9c-1.8-.6-3.1-1.8-3.5-3.7-.8,3.1.5,5.6,3.1,7.1l1.9,1.4v.6s-.7,1.5-.7,1.5c-.2.3-1.1-.8-1.4-1.3-1.1,2-.1,4.4,2.3,5.1s1.6,1.3,1.7,2-1,1.1-1.4.9l-2-1,.6,1.9.9,1.4.7,1.1c.3.5-4.2,1.3-4.5-1s-.6-1.9-1.5-2.3-1.4-1.8-1.2-2.8v-.7c-.3,0-1-.2-1,0v1s-.4.2-.4.2c-.5.2-1,1.2-1.1,1.9l-.2,1c0,.1-.4,0-.4-.1v-4.9c0-2.5,3-2.1,2-3.8l-1.6-2.8-.6.4-.3.4c-1.5,3.5-4.3,2.5-5.4,6.7h-1.4c-.3-.1-.3-1.1-.3-1.7,0-.2-1.1.2-1.2.6s.3,1.2.6,1.4l2.3,1.6c0,.9-.2,1.7-.9,2.4-1.5,1.5-1.5,3.7-1.3,5.6l-.7.8-.3.4-.4.2c-.1,0,.1.4.3.4h.6c0,0,0,.4,0,.4l.7,2.3v7.2c.1,0,.9,1.8.9,1.8l-1.8.5c-.8.2-1.2,5,1.6,7.5.2.8.5,2.1,1,2.5l-.9.8c-.2.2-.6.6-.8.7s-.6-.3-.5-.5l.5-1.1c.1,0-.6-.2-.8-.2s-.4.7-.5,1l-.8,1.5v-33.2c0,.2.7-.3.7-.5v-5.1s-.2-3.7-.2-3.7v-4.8c.6-.2,1.1-.9,1.5-1.6l.6-1c.2-.3,1.3,0,1.3.2l-.3,2.9,1.2-1,1.2,1.6c-.4,1.5-.4,3.1,1.2,4.3,1.5-1.4-.2-3.5,1.2-6.6l-2.5,2,.8-2.1-1.7-3.8c-2.1,0-3.2-1.9-2.9-3.9s0-1-.2-1h-.5s0-3.7,0-3.7c.5-3,.8-5.7.8-8.5h.5c.1-.1.2-.6.2-.7v-4.5c0,0,0-2.6,0-2.6,1.1-.2,2.2-1.6,2-2.9l-.5-3.2,2.6-.5-3.3-.8c0-.4.4-.9.8-1.1,2-.7,4.5-1.1,6.6-.7ZM138.2,58.6c.9-.5,1.5-1.7,1.4-2.6l-.2-3c-.4.4-1.6,1.6-1.5,2.3l.3,3.4Z"/>
  <path class="st1" d="M176.8,114.2h.8c-.3,1-2.1,1.7-3.1,1l-3.2-2.4c-4.7,3.9-5.5-4-10.8-2.6s-1.3,2-.8,2.5l3.9.4-1.9.9c-1,1.4-1.8,3.5-1.9,5.3s1.7,3.4,3.2,3.2-1.7-5.1,2.9-6.7c-1.5,2.3-.4,3.6,1,5s.5,4.9-1.5,6.3-2.5,2-2.1,3.1c.8,2.6.9,4.5-.7,6.6s-1.6,3.1-.7,4.7l1.1-2.9.8,2.1c1.3-1-.2-4.4,2.3-7.1,0,5.1,3.9,7.7.2,11.2s-1.7,3.1-1.6,5.1c.3,4-3.9,7-7.4,6.3l-.6-.2-2-1.4c-1.6,2.6-3.9.8-5.5.5-2.2.4-3.8,1.8-6.4.5l-3.4-1.7-.6-2.7c0-.2,0-.9.1-.9h.5s0,2.1,0,2.1l1.2.2c0,.2.2.6.5.7l.8.2c1,.7,3.3,2,4.8,1.6s3.1-1,5.1-.2l3.4-.8c2.4,1,5.2,1,7.1-.5l.5-.7c.4-.3.7-1.1.7-1.8.1-2,.2-4.4.9-6.3s1.4-2.4,1.2-4l-2.5,2.8c-.4.5-1.7.9-2.3.8-1.2-2.9-1.4-5.9.5-8.7s0-1.8,0-2.4l-.3-3.7,1.7-2.5c1.6-.3,3-2.2,2.5-4.1-1.1.6-2.3,1.3-3.4,1.2s-2.2-1-2.8-1.7l-.8-.8c-.9-4.4,2-4.7,0-7.6s-.4-3.1.2-3.8c3.6-4.2,8.4,1.3,8.7,1.2l1.3-.5c4.2-.8,6.1,3.4,8.4,3.3Z"/>
  <path class="st1" d="M166.3,133.4s-.1.4-.2.3v-.7c.1,0,.2.4.2.4Z"/>
  <path class="st26" d="M157.3,156.3c3.5.7,7.7-2.3,7.4-6.3s.1-3.7,1.6-5.1c3.7-3.5-.3-6.1-.2-11.2,0,0,.2-.3.2-.3l.9.3c.4.1-.9,2.3.3,4.3,1.9,3.1,1.1,6.6-2,8.8v4.3c-.2,6-8,6.5-8.1,5.6v-.4Z"/>
  <path class="st26" d="M178.6,114.7l-1.3,1.5c-4,1-3.9-1.4-5.3-1.1.5,2.3.2,4.2-1.4,5.3s-.6,1-.8.9h-1.4c.6,5.8-3,6.5-4.1,7.8s.6,3.3.7,3.3l1.2.5v.7c-2.6,2.7-1.1,6.1-2.4,7.1l-.8-2.1-1.1,2.9c-.9-1.7-.2-3.5.7-4.7,1.6-2.1,1.5-4.1.7-6.6s1.2-2.4,2.1-3.1c2-1.4,3.2-4.5,1.5-6.3s-2.4-2.7-1-5c-4.6,1.6-1.2,6.5-2.9,6.7s-3.4-1.3-3.2-3.2.9-3.9,1.9-5.3l1.9-.9-3.9-.4c-.5-.5,0-2.3.8-2.5,5.2-1.4,6,6.5,10.8,2.6l3.2,2.4c1,.8,2.8,0,3.1-1l.5-1.8,1.3-7c.2-1.2,0-2.2.4-3.3l.9-2.3c.3,1.4.2,2.6-.5,4.2v3.5c-.7,1.6-.5,2.8-.9,4.6l-.7,2.7ZM169.2,120.9l2.2-3.1c.8-1.1.3-2.9-1-3.3l-.4,2.3c-.3,1.5-.7,2.7-.7,4.1Z"/>
  <path class="st26" d="M128.9,115.1c2.8-.1,3.9-3.4,5.7-2.8s2.6.4,4,0c3.8-1.3,3.6-3,5.1-3.2s1.1.5,1.2.8c.4,1.1.1,3.3-.7,4l-2.2,1.8c-1.1,0-1.8.4-2.4,1.1,0-1.5,1.8-2.6,3.6-2.8l1.4-2.5-.9-1.8c-.5.5-1.1,1.3-1.5,1.9l-5.2,1.8c-1,0-3-.1-3.8.3l-4.1,2.2c-1.2.6-3.2.4-4.2-.4s-.8-1.8-1-2.5c-2.8-2.5-2.4-7.3-1.6-7.5l1.8-.5-.8-1.8v-7.2c-.1,0-.8-2.3-.8-2.3l1.9,3.1c-.8,2.1-1.2,4.5-.2,6.4s1,2.5,0,3.8l-1.2-1.5c-1.1,2.5-.3,4.8,1.5,6.6l.5,2.4c1.1,1,2.9,1.1,4,.5Z"/>
  <path class="st26" d="M138.9,146.6c-.2.3-.4.9-.5,1.3s.5,1,.9.9v.4s.3.5.3.5c0,.1,0,.4,0,.6h-.5c-.2,0-.2.7-.1,1l.6,2.7,3.4,1.7c2.5,1.3,4.2-.1,6.4-.5,1.6.2,3.9,2.1,5.5-.5l2,1.4-2.7.2c-2.5,1.8-4.5-1.4-6.7.5l-1,.8c-.2.2-1-.5-1.4-.5-1.7,0-3.3-.9-4.7-1.9-3.8-2.6-1.1-4.3-2.7-7.2l1.2-3.4-5.1-5.1v-5.9s4.6-4.5,4.6-4.5l-4.6-3.5v-2.3c.8,2.7,2.7,4.3,5.6,5.2-.2.8-.8,1.6-1.5,2-3.4,2-4.9,6.1-2.7,9.6l3.9,3.1c.4.3,1.1,1.5.9,1.9l-.8,1.4Z"/>
  <path class="st26" d="M139.6,117.2c-.7,1.2-.4,2.6.8,3.4s2.3.4,3.6-.2c.7.8,0,2.7-.9,2.5l-1.7-.3c-.4,0-.8.8-1,1.1-1.1,1.1-3,.4-3.7-.7l1.8.5c.4.2,1.2-.2,1.5-.5,1.7-1.4-1.4-2.8-1.2-4.7v-1c.1-.2.6-.2.9-.2Z"/>
  <path class="st18" d="M144.3,107.5c.6,0,1.7.4,2.2.9.2,4.4,1.1,6.2-1.9,7.7l-.5.3c-.1,0-.2.6,0,.6h.6c0,0,.4.3.4.3l.5,1.1-.2,3.7v1.1c-.3.5-1.2,1.7-1.9,1.7-1.3,0-3.1.7-3.8,1.9,2.6,1.6,2.8,5.8,2.7,9.3s-1.7,1.4-2.5,1.1l-1.1-2.3.2,4.6c0,.8,0,1.7.5,2.5,1,1.6,1.6,3.5,1.5,5.1v2.6c-.1.2-.8.3-1.3.3l1.3,2.1-.3.8-1.2-.2v-2.2c0-.2,0-.5,0-.6l-.3-.5v-.4s-.4-2.2-.4-2.2l.8-1.4c.2-.4-.5-1.6-.9-1.9l-3.9-3.1c-2.2-3.5-.7-7.6,2.7-9.6s1.3-1.2,1.5-2c-2.9-.9-4.8-2.5-5.5-5.2,0-2.2.9-4.3,2.5-6-.7,2.1-.7,4,.4,5.7s2.6,1.7,3.7.7.7-1.2,1-1.1l1.7.3c1,.2,1.7-1.7.9-2.5-1.2.6-2.6.9-3.6.2s-1.5-2.2-.8-3.4v-.3c.6-.7,1.3-1,2.4-1.1l2.2-1.8c.9-.7,1.1-2.9.7-4s-.8-.9-1.2-.8c-1.6.2-1.3,1.9-5.1,3.2s-2.5.6-4,0-3,2.7-5.7,2.8l-1.6-.6c-.2,0-.9,0-1.2,0s-.6-.4-.6-.6h.7c0,0,1-.1,1-.1,1.9-.1,4.9-3.5,7.6-3s3.2.3,4.2-1.4l3.3-1.6h1.9ZM141.2,135.1l-.4-5.2c-.7,1.6-1.3,3.7.4,5.2Z"/>
  <path class="st1" d="M152,39.9c-2.1,5.5,4.1,8,5.6,11.1s-.2,5.1-1.3,7.2-1,4.1.7,5.3,2.2.3,2.6-.2c1.2-1.5-1.5-3.6-.4-5.6l2-3.5-.2,3.7c0,.8,1,1.8,1.8,2.4,2.8,2.2,3.6,6.1,2.4,9.5l-2.4,4.9c-.1.2-.4,1-.2,1.1l1,.3.8-2c1.3,2.7.6,6-2,7.5s-2,2.1-1.4,3.7l1.4-.4-.3,4.1c-.1,1.4-.9,2.7-1.6,4.2l3.2-2.5-.7,2.6c.5.1,1.6,0,1.7-.2l.7-1.1,2.5-2.6c.4-.4.7-1.5.7-2-.1-1.6-3.2-1.6-2.7-4.4l1.8-1.6.6-2.7c.2-1.1.9-2.4,1.4-3.2.3-.1,1-.4,1-.4-1.6,1.9,0,6.9.8,7.8l3.1,3.3c1.1-2,2.8-3,5-3.5-.2.6-.6,1.3-1,1.8-.9,1-.9,2.7,0,3.9,3.1,4.5-.4,6.4.8,8.7l1.1-.9c0,1.1,0,2.4.2,3.4l-.9,2.3c-.4,1.1-.2,2-.4,3.3l-1.3,7c-.4,0-.9-.8-.9-1.2.7-1.7.7-3.8.5-5.8l-.2-1.5,1.7-2.7c0,0,.1-.6.1-.7s-.2-.2-.2,0l-.5.6-.9-1.9v-1.8c.7,0,.9-.2.5-.3s-.6-.2-.5-.1l-.5-1.8v-.7c.1,0,.4,0,.4,0l.5-1.7.2-.7c0-.2-.6-.2-.7-.2v-.4s0-.8,0-.8l-.6-2.2c0-.9.1-2.3-.3-2.9-1.1.3-1,1.3-1,2.2l-2.7-2c-.7-1.4-1.6-1.8-3.2-1.9v-1c0-.1-.5-.2-.6,0l-.5.8-2.1.8c1,1,1.9,1.7,2.3,2.3.6,1-.2,2.7-.3,3.6s-.2,1.6-.6,2.1l-1.1,1.7-1.4.8c-1,.5-2.2.4-3.4,0l-2.6,1.3c-.3.1-1.2,0-1.3-.3s-.2-1.2,0-1.5l1.2-2.2c.7-.7,1.2-1.7,1.3-2.9s-1-2-1.9-2.4c-.1-1.7.3-3.5,1.1-5.1l2.8-2.1c.3-.2.4-1.5,0-1.6l-1.2-.5c-1-1.6-.5-3.8.7-5.2l.9.8c1.1-1.6,1.5-3.2,1.4-5.1l-.2-4.7c-2.8,2.3-5.5,3.5-8.4,1.8s-1.9-2.7-2.1-4.1l1.1-.3c.3-.1.3-1.1.5-1.5l1.1-2.8c.7-.6,1-1.1,1.2-1.9.7-4.9-3.4-5.5-4.4-7.5l-2.1-3.9c-1.4,3.7,2.1,4.3,2.1,7.9s-.9,1.8-1.8,2.5l-2.7,1.9c.9-2.6,4.2-3,4-4.8s-.5-1.4-1-2.3c-1.3-1-2-2.6-1.9-4.3.4-2.3.8-2.9,2.5-4Z"/>
  <path class="st20" d="M181,42.7c-.2,2.8.4,5.9.5,8.8l.2,9.9h-.8c0,0,0-8.5,0-8.5,0-2.1-1.3-3.8-3.6-4l-.3-3.1-2-.8,3.6-1c.4-1.1,1.3-1.7,2.3-1.4Z"/>
  <path class="st20" d="M181.6,78v7.4c-1.9-1.4-2.6,0-3-.8.4-.5.8-1.1,1-1.8-.9-.6-2.4-.3-3.1.4l-1.1-.9c.4-2.8,3.3-3.2,2.4-6.8l.9-.3.9,3.3,1.9-.4Z"/>
  <path class="st20" d="M127.1,71.5v.3c.1,0-1.1-1.6-1.1-1.6l-1.2,1,.3-2.9c0-.3-1.1-.5-1.3-.2l-.6,1c-.4.6-.9,1.4-1.4,1.6l.3-5.8c0-1.5.5-2.7.5-4.1h.5c.2,0,.2.8.2,1.1-.3,2,.8,3.9,2.9,3.9l1.7,3.8-.8,2.1Z"/>
  <path class="st17" d="M181.6,85.4v1.8c-.2,1.5,0,3.2-.3,4.5s-.8,3.1-.9,4.7l-1.1.9c-1.2-2.4,2.2-4.2-.8-8.7s-.8-3,0-3.9c.4.9,1.1-.6,3,.8Z"/>
  <path class="st20" d="M181.6,62.9v7s-2.8-1.3-2.8-1.3c-1.7-.9-2.6-2.8-1.6-4.5l3-.2,1.4-1Z"/>
  <path class="st20" d="M150.1,35.8l-1.5.2c-.3,0-.3,1.2,0,1.3l1.3.4c.3.1.5.7.8,1.5-.3,0-1.4.2-1.8,0s-.8-1.2-1.2-1.7c-.7-.2-2.1-.3-2.4-.7s-.6-1.7-.6-2.3c1.3.2,2.5.3,3.7.7l1.7.6Z"/>
  <path class="st20" d="M177.4,40.9l-2.1.9-1.1-.7c-1.2.5-3.2,1-4.4.5s-.8-1.7-.6-2.1l3,.7,4.2.2c.3,0,1,.5,1,.5Z"/>
  <path class="st20" d="M124.1,40.8c0-1.5.2-2.8.7-4.5v-3c0,0,3.4.8,3.4.8l-2.6.5.5,3.2c.2,1.3-.9,2.7-2,2.9Z"/>
  <path class="st20" d="M132.2,31.6c-2.1-.4-4.6,0-6.6.7v-3s1.9.6,1.9.6l3.2.9,1,.3c.2,0,.4.5.4.6Z"/>
  <path class="st20" d="M157.3,37.3l-1.5,1.1c-.4.2-1.5.7-1.6.4l-.3-1.6-2.8.3.5-1.5,2.3.5,2.4.3c.4,0,1,.4,1.1.6Z"/>
  <path class="st20" d="M121.8,79.1v5.1c0,.2-.7.7-.7.5v-4.8c0-.1,0-.6.2-.6h.5Z"/>
  <path class="st20" d="M124.1,43.4v4.5c0,.1-.1.6-.3.6h-.5c0,0,0-5,0-5h.8Z"/>
  <path class="st20" d="M140.3,33.8c-.4,0-1.3-.1-1.6,0s-.5.5-1.2,1.3l.3-2.1h1.8c.2,0,.7,0,.7.2v.6Z"/>
  <path class="st20" d="M168.6,39.3c-1.2.5-2.7.8-3.3-.3l3.3.3Z"/>
  <path class="st20" d="M137.4,33c-.1,0-.5,0-.5,0l-.3-.6c.2,0,.7,0,.7.1v.5Z"/>
  <path class="st20" d="M115.7,31.6c.4-.2,1.4.3,1.6.7s-.2,1.5-.6,1.8-1.6-.2-1.8-.6.2-1.5.8-1.8Z"/>
  <path class="st20" d="M116.3,37.5c-.4.2-1.1-.8-1.1-1.3,0-.7.3-1.4,1.3-1.7.6.5.7,2.3-.1,2.9Z"/>
  <path class="st20" d="M115.7,31c-.6-.2-.6-2.1,0-2.3s1.4.5,1.4,1.1c0,.9-.5,1.5-1.3,1.2Z"/>
  <path class="st20" d="M114.3,32.9c0,0-1,.7-1.5.9s-1.4-.7-1.3-1.1c.3-1,1.8-1.2,2.7.2Z"/>
  <path class="st13" d="M121,32.6c-.9,1.7-2.4,1.1-2.9.4,0-.3.7-1.1,1.1-1.1s1.2.3,1.8.7Z"/>
  <path class="st20" d="M114.7,31.4c-.1.4-1.6.2-1.7-.3s-.1-1.2,0-1.6c.8-.2,1.9.9,1.6,1.9Z"/>
  <path class="st17" d="M114.6,35.5l-1.1.7c-.3.2-1.1-.6-.9-.8l1-1.1c.2-.2.8-.2,1.1-.2s.2,1.2,0,1.4Z"/>
  <path class="st20" d="M119.5,36c-.8.6-2.2-.5-2.1-1.6h1.5c.4,0,1,1.4.6,1.6Z"/>
  <path class="st13" d="M117.7,31.6c-.3-.2-.3-1.4,0-1.7s1.2-.5,1.5-.2c.6.7-.7,2.3-1.5,1.8Z"/>
  <path class="st23" d="M114.1,193.7c2.6-1.3,5.2-.1,6.3,2.2s.1,4.8-1.9,5.8-5.1.3-6.2-1.8-.4-5.2,1.9-6.3Z"/>
  <path class="st23" d="M115.7,151.4c.6-.3,1.9.4,2.1,1s-.2,1.7-.9,2-1.7,0-2.2-.8,0-1.8,1.1-2.3Z"/>
  <path class="st23" d="M116.1,174.3c.7-.1,1.7.7,1.8,1.3s-.6,2-1.4,2.1-1.8-.6-2-1.5.6-1.8,1.6-2Z"/>
  <path class="st23" d="M115.7,128.2c.6-.1,1.7.3,2,.8s0,1.9-.7,2.1-2,0-2.3-.6,0-2.1.9-2.3Z"/>
  <path class="st23" d="M116.1,79.6c.7-.1,1.7.7,1.8,1.2,0,.9-.5,1.8-1.4,2s-1.8-.6-1.9-1.3.6-1.8,1.5-1.9Z"/>
  <path class="st23" d="M115.7,56.6c.8-.3,1.8.3,2.1,1.1s0,1.8-1,2.2-1.8-.3-2.1-1,.1-1.9,1.1-2.3Z"/>
  <path class="st23" d="M115.7,104.3c.7-.2,1.8.4,2,.9.3.9,0,1.9-1,2.2s-1.8-.2-2.1-.9,0-1.9,1.1-2.2Z"/>
  <path class="st11" d="M153.6,61c-.4-2.3-1-2.8-3.5-3.3l-1.5,3.2c-.4-.5-1.1-1.6-1.4-1.3l-1,1-4.2,4.4c-.5.3-1.6-.7-2-1.6-1.3,1.8-.1,3.4.3,4.6l3.9,9.5c.3.6-.2,2.1-.8,2.2s-1.5.2-1.8.4-.9.7-1.1.5-.7-1-.6-1.1l2-1.7c.2-.1.3-.9,0-.9h-.5s0-.6,0-.6v-1.1c-.2-.4-3.2-.9-4.3-3.9l1.8.5.7.2c.1,0,.2-.2.3-.4l-1.8-2.9c-1-2.4.1-5,1.6-6.9l2.4-3c.2-.2.7-.6,1.4-1l.2,2.5.4.9c1-1.3,1.4-2.4,1.7-3.6l-.7-2c-.4-.9,1-2.7,2-3.2l.2,3.4h.7c0,.1.8-.6.8-.6l2.7-1.9c.9-.7,1.8-1.6,1.8-2.5,0-3.5-3.5-4.2-2.1-7.9l2.1,3.9c1,2,5.1,2.6,4.4,7.5s-.4,1.3-1.2,1.9l-1.1,2.8c-.1.3-.1,1.4-.5,1.5l-1.1.3Z"/>
  <path class="st26" d="M162.1,47.8c-1.5,3.7,1.6,6,.4,10s.3,1.6,1.5,2.2l2.1,3.3v7.6c-.9.8-2.1,2.2-1.3,3.2s1.3,1.1,1.2,1.6l-.4,1.8c-.2,1.2-.4,3.3-1.4,4l-2.1,1.4c-.3.2-.8,1.4-.5,1.5l1.3.5.3,4.7c0,.3.5,1,.4,1.3l-3.2,2.5c.7-1.5,1.5-2.8,1.6-4.2l.3-4.1-1.4.4c-.6-1.6,0-3,1.4-3.7,2.6-1.5,3.3-4.8,2-7.5l-.8,2-1-.3c-.2,0,0-.9.2-1.1l2.4-4.9c1.1-3.4.4-7.3-2.4-9.5s-1.8-1.6-1.8-2.4l.2-3.7-2,3.5c-1.1,2,1.5,4.1.4,5.6s-2,.6-2.6.2c-1.7-1.1-1.7-3.5-.7-5.3s2.5-4.7,1.3-7.2-7.7-5.5-5.6-11.1l.8,3.1c.3,1,1,2.9,1.6,3.7l2.5,1.8c1.5,1.1,2,3.3,2,5.1h2.8c-1.2-2.7-1-5.7-.6-5.7h.9Z"/>
  <path class="st1" d="M141.5,80.3l2.9,2.7v2.8c-1.3,1.6-.8,4.3.9,5.6l.2,1.9-2.9.7c-1.2.7-2.3.9-3.5.5l-1.3-.3v-.7c0,0,1.2-2,1.2-2l-3-1.7v-.8c-.2-.2-.5-.3-.8-.2,0,0,0-.4.1-.5.3-.9.3-2.8-1.5-3.4v3.1c-.7-1.5-.7-3.3-.5-4.9l.4-.2.9-1.1v.7c-.1,1,.4,2.5,1.3,2.8l.5,3c2.3,1.7,3.5.9,4.4,4.8l.2-3.4,1.6,1.7c1-1.9-.4-4.4-2.4-5.2l-.6-1.9,2,1c.3.2,1.4-.5,1.4-.9-.1-.7-1.1-1.8-1.7-2-2.4-.7-3.4-3.1-2.3-5.1.3.5,1.2,1.7,1.4,1.3l.7-1.5h.5c.2,0,0,.7,0,.9l-2,1.7c0,.2.4,1,.6,1.1s.8-.3,1.1-.5Z"/>
  <path class="st1" d="M123.9,93.9c1.9,1.1.4,4,.8,5.8v1.1c0,0-.4.5-.3.6l.8.3c.6,1.8,1.4,3.6.4,5.4l-2.4.5c-.2,1.3.2,2.6,1,3.7l1.4,1.3v1.2c0,.3.3.6.6.6s.9-.1,1.2,0l1.6.6c-1.2.6-3,.4-4-.5l-.5-2.4c-1.8-1.9-2.5-4.1-1.5-6.6l1.2,1.5c1.1-1.2.8-2.4,0-3.8-1-1.9-.6-4.3.2-6.4l-1.9-3.1v-.3c0,0-.3-.7-.3-.7l.3-.4c.3.6.8,1.3,1.3,1.5Z"/>
  <path class="st26" d="M172,75.6c-.2.3-.7.9-.7,1.3v3.7c.2,1.8,1.4,2.9,3.1,3.8s1.7-.8,2.2-1.3,2.2-1,3.1-.4c-2.2.4-3.9,1.5-5,3.5l-3.1-3.3c-.9-.9-2.4-5.9-.8-7.8,0,0-.7.3-1,.4.2-.3.3-1.1.7-1.2l1.5-.2.3-4.3c1.2,1.5.6,4.4-.3,5.7Z"/>
  <path class="st1" d="M133.5,88.6h.7c0-.1,0,.5,0,.5l-1,.5c-2.3-.6-4-2.3-3.6-4.7s.4-2,.4-2.7c-.1-1.2,0-2.2.6-3.7-5.6,1.7-3.3,7.8-3.9,8.1l-.9.4c-1.4,1.3-1.7,3.4-1.3,5.1,0,.3.2.9.4,1.1l-1,.3-.2-3c-.1-1.8.8-4.6,2.7-4.8-1.1-4.7.7-5.8,4.1-8.5s.6-1.7.4-2.1l.3-.4,2,3.1c-2.2,1-3.1,2.2-2.5,4.5s-1,3.2.4,5.2,1.5,1.3,2.3,1.1Z"/>
  <path class="st1" d="M162.5,57.8c1.2-4-1.9-6.3-.4-10l.6-.7c0,1.6.4,3,1.3,4.3,1.6,2.3.8,5.3-1.5,6.4Z"/>
  <path class="st26" d="M133.3,83.1c-.2,1.6-.2,3.4.4,4.9v.6c-.9.1-1.9-.5-2.4-1.1-1.4-2,0-3.4-.4-5.2s.3-3.5,2.5-4.5l-2-3.1.6-.4,1.6,2.8c1,1.7-2.1,1.4-2.1,3.8v4.9c.1,0,.5.2.5.1l.2-1c.1-.6.6-1.6,1.1-1.9Z"/>
  <path class="st1" d="M147.7,56h-.7c0-.1-.2-3.5-.2-3.5-1,.5-2.4,2.2-2,3.2l.7,2-1.5-2.5c.4-2.8,3.1-2.6,3.6-6.4,2.1,2.1-.3,4.3.2,7.2Z"/>
  <path class="st26" d="M124,93.4c0,0,0,.4-.2.5-.5-.3-1-.9-1.3-1.5l.7-.8c-.1-1.9-.1-4.2,1.3-5.6s.9-1.5.9-2.4,0-1.4.1-1.9c1.1-4.2,3.9-3.2,5.4-6.7.2.5,0,1.8-.4,2.1-3.4,2.7-5.2,3.8-4.1,8.5-2,.3-2.8,3-2.7,4.8l.2,3Z"/>
  <path class="st1" d="M127.2,71.8v-.3c-.1,0,2.3-2,2.3-2-1.4,3.1.4,5.2-1.2,6.6-1.5-1.2-1.6-2.8-1.2-4.3Z"/>
  <path class="st1" d="M172,75.6c.9-1.3,1.5-4.1.3-5.7l.8-1.6,1.3,2.6c1,2.1-.3,4.3-2.3,4.7Z"/>
  <path class="st26" d="M140.2,86.1c2,.9,3.4,3.3,2.4,5.2l-1.6-1.7-.2,3.4c-.9-3.8-2.2-3.1-4.4-4.8l-.5-3c1,.4,1.4,1.1,1.5,2.3.3,2.3,4.8,1.5,4.5,1l-.7-1.1-.9-1.4Z"/>
  <path class="st26" d="M144,55.2l1.5,2.5c-.3,1.3-.7,2.4-1.7,3.6l-.4-.9c.4-.5.5-2.1.2-2.8l-1.3-2.2,1.8-.2Z"/>
  <path class="st1" d="M177.9,75.4c.9,3.6-2,4-2.4,6.8-.2,0-.6.2-.6,0v-1c0-1,.6-2.1,1-3l1.5-3.1.5.3Z"/>
  <path class="st1" d="M139.6,71.7c-.1.2-.2.4-.3.4l-.7-.2-1.8-.5c1.1,3,4.1,3.5,4.1,3.9v1.1c.1,0-1.8-1.4-1.8-1.4-2.6-1.5-3.9-4-3.1-7.1.4,1.9,1.7,3.1,3.5,3.7Z"/>
  <path class="st26" d="M166,83.1c-.5,2.8,2.6,2.8,2.7,4.4s-.3,1.6-.7,2l-2.5,2.6c.4-2.4,2.8-3.1,2.2-4.6s-1.7-1.3-2.3-3,.3-1.1.7-1.4Z"/>
  <path class="st1" d="M138.2,58.6l-.3-3.4c0-.7,1.1-1.9,1.5-2.3l.2,3c0,1-.5,2.1-1.4,2.6Z"/>
  <path class="st20" d="M125.7,81.7c-.1.5-.2,1.4-.1,1.9l-2.3-1.6c-.3-.2-.7-1.1-.6-1.4s1.2-.8,1.2-.6c0,.7,0,1.6.3,1.6h1.4Z"/>
  <path class="st1" d="M142.2,55.4l1.3,2.2c.4.6.3,2.2-.2,2.8l-.2-2.5c-.6.5-1.2.8-1.4,1l-.2-3.3.6-.2Z"/>
  <path class="st26" d="M134.6,81.8l-.9,1.1v-1c0-.2.6-.1.9,0Z"/>
  <path class="st26" d="M122.6,93.5h-.6c-.1-.1-.4-.5-.3-.5l.4-.2.4.7Z"/>
  <path class="st21" d="M141.7,66.5c5.6,1,11.4,1.3,17,.6l3.7-.5c.2,0,.7,0,.7.2v.6c-2.4,4.6-4.3,9.5-4.9,14.9l-1.7,15c7.4-.3,14.2-1.6,20.1-6h.2s.7,0,.7,0v.4s0,1.8,0,1.8l-.3.7v.7c-.1,0-.5,6.7-.5,6.7l.4,9.5c0,.4.5,1.1.9,1.2l-.5,1.8h-.8c-5-4.6-13.1-6.9-20.3-7.1,0,10.6.7,20.8,2.2,31s2.1,10.1,4.1,14.8l-.5.7-1.7-.3h-17.4s-1.2.1-1.2.1l-.8-.2c-.2,0-.4-.5-.5-.7l.3-.8c1.1-1.8,1.8-3.9,2.4-6.2,2-8.1,2.9-16.3,3.4-24.6l.5-7.6v-6.3c.1,0-3.1.3-3.1.3h-1.9c-4.6.9-9.1,2-13.2,4.6l-2,1.7h-1c.4-4.3,1.3-8.8.9-13.3l-1-9.3,5.8,2.9c4.7,2.4,9.9,3,15.4,3.2-.8-10.6-2.1-21.1-6.8-30.4,0-.1.2-.4.3-.4h.8ZM161.6,152.5l-3.1-11.2-2.1-16.7-.8-18.5c6.8,0,13.4,1.8,19.2,5.2l1.5,1-.3-4.1c-.4-5.2-.4-10.3.7-15.5l-7.2,3.5-2.9.8-10.9,1.4.3-6.4,1.9-12.8c.6-4,2.4-7.5,4-11.5-6.9.8-12.9,1.1-19.7,0,1.5,4.7,3.4,9,4,13.8l1.7,12.8v4c-7.4-.3-14.3-1.8-20.7-5.7l.4,4.6c.4,5,.2,9.7-.4,14.9l5.7-3.1c.8-.4,1.5-.7,2.4-.9,4.4-1,8.3-1.8,13-2.1v7c0,0-.4,5.5-.4,5.5l-.7,9c-.9,6.8-1.4,13.6-3.5,20.1l-1.6,4.9h19.4Z"/>
  <path class="st15" d="M126.3,113.8h-.7c0,0,0-1.2,0-1.2,0-1-.5-2.2-1.1-3.3l1.1-2.1c.9-1.8.2-3.6-.4-5.4l-.4-.8v-1.1c0,0,1.5,0,1.5,0,.2-2.1-.3-5-1.2-6.6s-.3-.8-.4-1.1l.5-1.1c.2-.5.9-1.5,1.1-1.4,1.2,1.1,1.7,1.5,3.2,2.2l.7-2.2c.1,0,.9.5,1.1.7l1.5,1.6c.5.5,1,1.9,2.1,2.1.6,0,.8-1.4.9-2.4l1.2,1.3.8.6v.7c.6,1.7,2.8,2,4.6,1.2l4,1.2c.2-1.4,0-2.6-.8-3.4l-.2-1.9-.3-3.6c0-.8-.1-1.5-.6-1.9v-2.8c-.1,0-3-2.7-3-2.7.4-.2,1.2-.3,1.8-.4s1.1-1.6.8-2.2l-3.9-9.5.4-1.3c4.7,9.3,6,19.8,6.8,30.4-5.5-.2-10.6-.9-15.4-3.2l-5.8-2.9,1,9.3c.5,4.5-.5,9-.9,13.4Z"/>
  <path class="st15" d="M141.1,151.9l-1.3-2.1c.5,0,1.1-.1,1.1-.3v-2.6c.1,0,.9-.1.9-.1,1.2-.3-.1-6.1-2.8-7.5l-.2-4.6,1.1,2.3c.3.6.5,1.1,1.1,1.5l2.6,1.7-.2-5.3.2-3.3,1.4,1c.2-2.2-.3-4.5-1.6-6.3,1-.3,2-.6,2.3-1,.6-.7.6-2-.4-2.1v-1.1c.3,0,.7,0,.7-.3v-1.3c.1-.9,0-1.9-.5-2.2l-.5-1.1-.4-.4h-.6c-.1.1,0-.4,0-.5l.5-.3c2.9-1.5,2-3.2,1.9-7.7-.6-.5-1.6-.9-2.2-.9l3.2-.3v6.3c-.1,0-.6,7.6-.6,7.6-.6,8.3-1.4,16.5-3.4,24.6s-1.3,4.4-2.4,6.2Z"/>
  <path class="st7" d="M139.9,136.9c.8.3,2.5,0,2.5-1.1.2-3.5,0-7.7-2.7-9.3.6-1.2,2.5-1.8,3.8-1.9.7,0,1.6-1.2,1.9-1.7,1,0,.9,1.4.4,2.1s-1.4.7-2.3,1c1.2,1.8,1.8,4.2,1.6,6.3l-1.4-1-.2,3.3.2,5.3-2.6-1.7c-.6-.4-.8-.9-1.1-1.5Z"/>
  <path class="st15" d="M142.5,107.6l-3.3,1.6c-1.1,1.7-2.3,1.7-4.2,1.4-2.7-.4-5.6,2.9-7.6,3l2-1.7c4.1-2.5,8.6-3.6,13.2-4.4Z"/>
  <path class="st7" d="M141.1,146.9c0-1.7-.5-3.6-1.5-5.1s-.5-1.7-.5-2.5c2.6,1.5,3.9,7.2,2.8,7.5h-.7Z"/>
  <path class="st26" d="M141.2,135.1c-1.7-1.5-1.2-3.6-.4-5.2l.4,5.2Z"/>
  <path class="st7" d="M145.4,121.9l.2-3.7c.5.3.7,1.3.6,2.2v1.3c0,.2-.6.3-.8.3Z"/>
  <path class="st1" d="M139.2,148.8c-.4.1-1-.5-.9-.9s.4-1,.5-1.3l.4,2.2Z"/>
  <path class="st7" d="M145.2,117.1l-.4-.4.4.4Z"/>
  <path class="st1" d="M139.5,149.7l-.3-.5.3.5Z"/>
  <path class="st15" d="M176.8,114.2c-2.3,0-4.2-4.1-8.4-3.3l-1.3.5c-.3,0-5.1-5.5-8.7-1.2s-.8,3.1-.2,3.8c2.1,2.9-.8,3.2,0,7.6-.1.4-.3,1.5-.2,1.9s1,1.1,1.7,1.5l.3,2.6c1.2-.5,2.1-.8,2.8-.6l-1.7,2.5c-1,1.5-1.6,3.1-1.6,5.4l1.9-1.7c0,.6.4,1.8,0,2.4-1.9,2.8-1.7,5.8-.5,8.7,0,.8,0,1.3.5,2.7l1.5-2.7c-.1,0,.5,0,.5.1l-.2,1c-.5,2-1.7,4.5.3,5.7,0,.7-.3,1.5-.7,1.8-2-4.7-3.3-9.5-4.1-14.8-1.6-10.3-2.1-20.4-2.2-31,7.2.2,15.3,2.5,20.3,7.1Z"/>
  <path class="st7" d="M162.8,127c-.7-.2-1.5.2-2.8.6l-.3-2.6c-.7-.5-1.6-1-1.7-1.5s0-1.5.2-1.9l.8.8c.6.8,1.9,1.7,2.8,1.7s2.3-.5,3.4-1.2c.5,1.8-.9,3.8-2.5,4.1Z"/>
  <path class="st15" d="M143.2,153.3l.8.3h15.9s.8-.3.8-.3l1.7.3c-1.8,1.5-4.7,1.5-7.1.5l-3.4.8c-2-.8-3.1-.3-5.1.2s-3.7-.8-4.8-1.6h1.2Z"/>
  <path class="st7" d="M163.6,151.1c-2-1.2-.8-3.6-.3-5.7l.2-1c0-.1-.6-.1-.5-.1l-1.5,2.7c-.5-1.4-.5-1.8-.5-2.7.6,0,1.9-.3,2.3-.8l2.5-2.8c.2,1.6-.6,2.6-1.2,4s-.8,4.3-.9,6.3Z"/>
  <path class="st7" d="M161.5,133.3l-1.9,1.7c0-2.3.5-3.9,1.6-5.4l.3,3.7Z"/>
  <path class="st1" d="M169.2,120.9c0-1.4.5-2.5.7-4.1l.4-2.3c1.3.4,1.8,2.2,1,3.3l-2.2,3.1Z"/>
  <path class="st11" d="M177,88.4c-.2-.1-1.2,0-1.3.4l-.7,2.7c-1.1,0-2.3,1.1-3.5,2.2,0-.6.5-1.3,1.2-1.9.2-1.7,0-3.6-.9-4.4s-.5.6-.7.8l-.7,1c-.2.2.3.8.6,1.2-.9,1.7-2.5,2.8-4.1,3.7l1.1-1.7c.4-.5.5-1.3.6-2.1s.9-2.6.3-3.6-1.3-1.4-2.3-2.3l2.1-.8.5-.8c0-.1.5,0,.5,0v1c1.6.1,2.5.6,3.2,1.9l2.7,2c0-.9,0-2,1-2.2.5.6.4,2,.3,2.9Z"/>
  <path class="st15" d="M177.6,96.8v.4s0,1.8,0,1.8v3c-.1,0-.2,1.9-.2,1.9l.2,1.5c.3,2,.2,4.1-.5,5.8l-.4-9.5.4-6.7.5,1.8Z"/>
  <path class="st7" d="M177,88.4l.6,2.2h-.6c-.2.1-.2.6-.2.8h-.2s-1.7,0-1.7,0l.7-2.7c0-.3,1.1-.5,1.3-.4Z"/>
  <path class="st7" d="M177.4,103.9v-1.9s.2-3,.2-3l.9,1.9.5-.6c0,0,.2,0,.2,0s0,.7-.1.7l-1.7,2.7Z"/>
  <path class="st15" d="M177.6,94.3v-.7s0-1.8,0-1.8c0,0,.8,0,.7.2l-.2.7-.5,1.7Z"/>
  <path class="st15" d="M177.6,90.6v.8c0,0-.8,0-.8,0,0-.2,0-.7.2-.7h.6Z"/>
  <path class="st7" d="M177.6,97.2v-.4c-.1,0,.4,0,.5.1.4,0,.1.2-.5.3Z"/>
  <polygon class="st7" points="177.6 94.3 177.2 94.3 177.6 93.5 177.6 94.3"/>
  <path class="st15" d="M162.1,72.4c-1.1,1.4-1.7,3.6-.7,5.2-1.4.7-2,2.7-1.7,4.1-.8,1.5-1.2,3.3-1.1,5.1l.6,5.3-1.2,2.2c-.2.3,0,1.2,0,1.5s1,.5,1.3.3l2.6-1.3c1.1.4,2.4.5,3.4,0l1.4-.8c1.6-.8,3.2-2,4.1-3.7-.3-.4-.8-1-.6-1.2l.7-1c.2-.2.4-1,.7-.8,1,.8,1.1,2.7.9,4.4-.7.7-1.2,1.3-1.2,1.9,1.3-1.1,2.4-2.2,3.5-2.2h1.7c-5.8,4.2-12.6,5.6-20.1,5.9l1.7-15c.6-5.4,2.6-10.3,5.1-14.9.4,2.2-1.5,3.4-1.2,5Z"/>
  <path class="st7" d="M153.6,61c.3,1.4.8,3.3,2.1,4.1,2.9,1.7,5.6.4,8.4-1.8l.2,4.7c0,1.9-.3,3.5-1.4,5.1l-.9-.8c-.2-1.6,1.6-2.8,1.2-5v-.6c-.1-.1-.7-.2-.8-.2l-3.7.5-.7-.4c-3.3.6-5-1.1-6-4.5l-1.7,2.4c.4-2.3.7-3.7.7-5.8-.8,1.6-1.2,2.9-2.3,4s-1.4,1.8-2.5,3.7l-1-2-1.3,1.6-2.2.4h-.8c-.1,0-.3.2-.3.4l-.4,1.3c-.5-1.2-1.6-2.9-.3-4.6.4.9,1.5,1.9,2,1.6l4.2-4.4,1-1c.3-.3,1,.8,1.4,1.3l1.5-3.2c2.5.5,3,1,3.5,3.3Z"/>
  <path class="st7" d="M161.4,77.6l1.2.5c.3.1.2,1.4,0,1.6l-2.8,2.1c-.4-1.4.3-3.4,1.7-4.1Z"/>
  <path class="st7" d="M159.2,92.1l-.6-5.3c.9.3,1.9,1.5,1.9,2.4s-.6,2.2-1.3,2.9Z"/>
  <path class="st7" d="M135.3,88.3c0,0-.1.4-.1.5,0,.4.4.8.8,1l3,1.7-1.2,2-.8-.6-1.2-1.3c0,1-.3,2.4-.9,2.4-1-.2-1.6-1.6-2.1-2.1l1.5-1c.4-.2.2-1.4,0-1.8v-.6c0,0,.9-.2.9-.2Z"/>
  <path class="st7" d="M137.8,94.1l1.3.3c1.2.4,2.3.2,3.5-.5l2.9-.7c.7.8.9,2,.8,3.4l-4-1.2c-1.8.8-4,.5-4.5-1.2Z"/>
  <path class="st7" d="M145.3,91.3c-1.7-1.3-2.2-3.9-.8-5.6.4.5.6,1.2.6,1.9l.3,3.6Z"/>
  <path class="st11" d="M135.3,88.3l-1,.2h-.7c0,.1,0-.5,0-.5v-3.1c1.9.7,1.9,2.5,1.6,3.4Z"/>
  <path class="st11" d="M135.9,89.8c-.4-.2-.8-.6-.8-1,.3,0,.6,0,.7.2v.8Z"/>
  <path class="st11" d="M124.7,99.8c-.4-1.8,1.1-4.7-.8-5.8,0-.1.2-.4.2-.5l1-.3c.9,1.6,1.4,4.5,1.2,6.6h-1.6Z"/>
  <path class="st18" d="M125.6,107.1l-1.1,2.1c.7,1.2,1.2,2.3,1.1,3.3l-1.4-1.3c-.8-1.1-1.2-2.4-1-3.7l2.4-.5Z"/>
  <path class="st11" d="M125.2,101.7l-.8-.3c-.2,0,.3-.5.4-.6l.4.8Z"/>
  <path class="st11" d="M134.3,89.1c0,.4.3,1.6,0,1.8l-1.5,1-1.5-1.6c-.2-.2-1-.7-1.1-.7l-.7,2.2c-1.4-.6-2-1.1-3.2-2.2-.2,0-.9.9-1.1,1.4l-.5,1.1c-.4-1.7-.1-3.7,1.3-5.1l.9-.4c.6-.3-1.8-6.5,3.9-8.1-.7,1.6-.7,2.5-.6,3.7s-.2,1.9-.4,2.7c-.4,2.4,1.3,4.1,3.6,4.7l1-.5Z"/>
  <path class="st9" d="M161.6,152.5h-19.4s1.6-4.9,1.6-4.9c2.1-6.5,2.6-13.3,3.5-20.1l.7-9,.3-5.5v-7c-4.6.3-8.5,1.1-12.9,2.1s-1.6.5-2.4.9l-5.7,3.1c.7-5.3.8-9.9.4-14.9l-.4-4.6c6.4,3.9,13.3,5.4,20.8,5.7v-4c-.1,0-1.8-12.8-1.8-12.8-.6-4.7-2.5-9-4-13.8,6.7,1,12.8.7,19.7,0-1.6,4.1-3.4,7.5-4,11.5l-1.9,12.8-.3,6.4,10.9-1.4,2.9-.8,7.2-3.5c-1.1,5.2-1.1,10.3-.7,15.5l.3,4.1-1.5-1c-5.8-3.4-12.4-5.1-19.2-5.2l.8,18.5,2.1,16.7,3.1,11.2Z"/>
  <path class="st15" d="M158.7,67.1c-5.6.7-11.4.4-17-.6l2.2-.4,1.3-1.6,1,2c1-1.9,1.3-2.5,2.5-3.7s1.5-2.5,2.3-4c0,2.1-.3,3.5-.7,5.8l1.7-2.4c.9,3.4,2.7,5.1,6,4.5l.7.4Z"/>
  <polygon class="st1" points="160.6 153.3 159.9 153.7 144 153.7 143.2 153.3 160.6 153.3"/>
</svg>