<?xml version="1.0" encoding="UTF-8"?>
<svg id="Capa_2" xmlns="http://www.w3.org/2000/svg" version="1.1" viewBox="0 0 232.2 232.1">
  <!-- Generator: Adobe Illustrator 30.1.0, SVG Export Plug-In . SVG Version: 2.1.1 Build 65)  -->
  <defs>
    <style>
      .st0 {
        fill: #a06e00;
      }

      .st1 {
        fill: #fcd983;
      }

      .st2 {
        fill: #fff;
      }

      .st3 {
        fill: red;
      }

      .st4 {
        fill-rule: evenodd;
      }

      .st4, .st5 {
        fill: #900;
      }

      .st6 {
        fill: #c9992d;
      }

      .st7 {
        fill: #efb812;
      }

      .st8 {
        fill: #1d1d1b;
      }

      .st9 {
        fill: #ffb600;
      }
    </style>
  </defs>
  <circle class="st8" cx="116.2" cy="116.4" r="113.9"/>
  <path class="st4" d="M232.2,110.5c0-1.6-.3-4.2-.4-5.9-.2-1.7-.5-4.1-.7-5.5s-.6-3.7-.9-5.2c-.3-1.5-.8-3.8-1.2-5.3s-.9-3.5-1.2-4.5-.8-2.8-1.2-3.9-1.1-3.2-1.6-4.6-1.4-3.7-2-5.1-1.5-3.5-2.1-4.6-1.6-3.2-2.2-4.4c-.7-1.2-1.9-3.4-2.8-4.9-.9-1.4-2.2-3.6-3-4.8s-2-2.9-2.6-3.8c-.6-.9-1.6-2.2-2.2-3-.6-.7-1.7-2.1-2.4-3-.8-.9-2-2.3-2.6-3.1-.7-.8-1.9-2-2.6-2.8-.7-.8-1.7-1.8-2.2-2.3s-1.5-1.5-2.3-2.2-2.2-2-3.2-2.9-2.6-2.2-3.6-3-2.8-2.2-4-3.1-3.4-2.4-4.9-3.4-3.6-2.3-4.7-3c-1.1-.6-2.6-1.5-3.3-1.9s-2.6-1.4-4.1-2.1-3.6-1.8-4.8-2.3c-1.1-.5-3.3-1.4-4.9-2-1.5-.6-4-1.5-5.5-2s-4-1.3-5.6-1.7c-1.6-.4-4.2-1.1-5.8-1.5s-4.1-.9-5.5-1.1-3.6-.6-4.9-.7c-1.2-.2-3.4-.4-4.7-.5S122.4.1,120.3,0C118.2,0,116,0,115.4,0h-2.4C112.3,0,110.6,0,109.1.1c-1.5,0-3.6.2-4.8.4-1.2.1-3.3.4-4.8.6s-4.1.7-6,1c-1.8.4-4.7,1-6.4,1.5-1.7.4-4.4,1.2-6,1.7s-3.9,1.3-5.2,1.8c-1.2.5-3.2,1.2-4.4,1.7-1.2.5-3.2,1.4-4.6,2-1.3.6-3.3,1.6-4.3,2.1s-2.8,1.5-4,2.2-3.1,1.8-4.1,2.5-2.7,1.7-3.6,2.4c-.9.6-3,2.1-4.5,3.2s-3.5,2.7-4.4,3.5c-.9.7-2.1,1.8-2.7,2.3-.6.5-2,1.9-3.2,2.9-1.1,1.1-2.9,2.8-4,4-1.1,1.1-2.2,2.4-2.6,2.8-.4.4-.7.8-.7.8,0,0-.8.9-1.6,1.9-.9,1-2.2,2.7-3,3.8-.8,1-1.9,2.5-2.5,3.3s-1.8,2.6-2.8,4.1-2.5,3.9-3.3,5.3c-.8,1.4-2.2,4-3.1,5.7-.9,1.7-2,4.2-2.6,5.4-.5,1.2-1.4,3.3-1.9,4.6-.5,1.3-1.3,3.6-1.8,5-.5,1.5-1.2,3.8-1.6,5.2-.4,1.4-1,3.4-1.2,4.6-.3,1.1-.8,3.4-1.1,5-.3,1.6-.8,4.3-1,6s-.6,4.1-.7,5.4c0,1.2-.3,3.4-.4,4.8C.2,111,0,113.9,0,116.2S0,121.4.2,122.8c0,1.4.2,3.5.4,4.8.1,1.2.4,3.7.7,5.4s.7,4.4,1,6,.8,3.9,1.1,5,.8,3.2,1.2,4.6c.4,1.4,1.1,3.7,1.6,5.1.5,1.5,1.3,3.7,1.8,5s1.4,3.3,1.9,4.6c.5,1.2,1.7,3.6,2.6,5.4.9,1.7,2.3,4.3,3.1,5.7.8,1.4,2.3,3.8,3.3,5.3s2.2,3.4,2.8,4.1c.5.8,1.7,2.3,2.5,3.3.8,1.1,2.2,2.7,3,3.8s1.8,2.1,2.1,2.5c.3.4,1.1,1.1,1.6,1.8.6.6,1.4,1.5,1.9,2s1.9,1.9,3.1,3c1.2,1.1,2.7,2.5,3.3,3.1.6.5,1.8,1.6,2.7,2.3s2.9,2.3,4.4,3.4c1.5,1.2,3.6,2.6,4.5,3.2.9.6,2.5,1.7,3.6,2.3,1.1.7,2.9,1.8,4.1,2.5,1.2.7,3.1,1.7,4.2,2.3,1.1.6,3.3,1.6,4.9,2.4,1.6.7,4,1.8,5.3,2.3s3.2,1.2,4.1,1.6c.9.3,2.8,1,4.3,1.4,1.4.4,4,1.2,5.7,1.6s4.4,1.1,6,1.4c1.6.3,4,.8,5.3.9,1.3.2,3.3.5,4.4.6s2.8.3,3.8.4c.9,0,3.4.2,5.5.3,2.7.1,5,.1,7.8,0,2.2,0,5.1-.3,6.4-.4,1.3-.1,3.3-.3,4.3-.4,1-.1,3.2-.5,4.8-.7,1.6-.3,4.3-.8,6-1.2s4.3-1,5.9-1.5c1.6-.4,4.1-1.2,5.6-1.7s4-1.4,5.4-2c1.5-.6,3.6-1.5,4.7-2,1.1-.5,3.3-1.5,4.9-2.3s3.5-1.8,4.2-2.2,2.2-1.3,3.3-1.9c1.1-.6,3.2-2,4.7-3s3.7-2.5,4.9-3.4,3-2.3,4-3.1,2.6-2.2,3.6-3c1-.9,2.4-2.2,3.2-2.9.8-.8,1.8-1.8,2.3-2.2.4-.4,1.4-1.4,2.1-2.2.7-.8,1.9-2,2.6-2.8.7-.8,1.9-2.2,2.6-3.1.8-.9,1.9-2.3,2.4-3,.6-.7,1.6-2.1,2.2-2.9.6-.9,1.8-2.6,2.6-3.8s2.2-3.4,3-4.8c.9-1.4,2.1-3.6,2.8-4.9.7-1.2,1.7-3.2,2.2-4.4.6-1.2,1.4-3.1,1.9-4.3s1.3-3.1,1.7-4.3,1.1-3,1.5-4.1,1-2.9,1.3-4.1c.4-1.2.9-3.3,1.3-4.7.4-1.4.9-3.9,1.2-5.4.3-1.6.8-4.2,1-5.8s.6-4.3.8-5.9c.2-1.7.4-4.3.4-5.9s.1-4.1.1-5.6,0-4-.1-5.6h0l.6-.2ZM227.8,124.3c-.1,1.2-.3,3.4-.5,4.8-.2,1.4-.5,3.9-.8,5.5s-.7,4-1,5.4c-.3,1.3-.9,3.7-1.3,5.2-.4,1.5-1.2,4.3-1.8,6-.6,1.8-1.5,4.4-2.1,5.7-.6,1.4-1.4,3.4-1.9,4.6-.5,1.1-1.5,3.1-2.1,4.5-.7,1.3-1.7,3.3-2.3,4.4-.6,1.1-1.7,2.9-2.4,4.1-.7,1.2-1.9,2.9-2.5,3.9s-2,2.9-3.1,4.3c-1,1.4-2.5,3.2-3.2,4.1s-2.1,2.5-3,3.5-2.8,3-4.2,4.4-3.3,3.2-4.2,4.1c-.9.9-2.6,2.2-3.6,3.1-1.1.9-3,2.4-4.4,3.5-1.4,1-3.7,2.7-5.1,3.6-1.4.9-3.6,2.3-4.9,3.1-1.2.7-3.1,1.8-4.1,2.3s-2.5,1.3-3.5,1.8c-.9.5-2.9,1.4-4.4,2.1-1.5.7-3.9,1.6-5.2,2.2-1.4.5-3.8,1.4-5.4,1.9s-3.9,1.2-5.1,1.6c-1.2.3-3.2.8-4.4,1.1s-3.3.7-4.6.9-3.3.6-4.5.7c-1.2.2-3.1.4-4.2.5-1.1.1-3.1.3-4.3.4-1.2,0-3.6.2-5.2.2h-6.6c-2,0-4.7-.3-6-.4-1.3-.1-3.8-.4-5.5-.7-1.7-.2-4.3-.7-5.7-1-1.5-.3-4-.9-5.6-1.3-1.6-.4-4.2-1.1-5.7-1.6s-4-1.3-5.4-1.8-3.8-1.5-5.3-2.1-4-1.8-5.5-2.5c-1.5-.8-3.5-1.8-4.4-2.3s-2.5-1.4-3.6-2.1c-1.1-.6-3.3-2-4.9-3.1-1.6-1.1-3.9-2.7-5.2-3.6-1.2-.9-3.2-2.5-4.3-3.4s-2.9-2.5-4-3.5-3-2.9-4.2-4.1c-1.2-1.2-2.7-2.8-3.4-3.6s-2-2.3-2.9-3.4c-.9-1.1-2.4-3-3.3-4.2s-2.4-3.3-3.4-4.7c-.9-1.4-2.4-3.6-3.2-4.9-.8-1.3-1.9-3.3-2.5-4.4-.6-1.1-1.4-2.6-1.8-3.4-.4-.8-1.2-2.6-1.8-3.9s-1.5-3.5-2.1-4.9-1.3-3.5-1.8-4.9c-.5-1.3-1.1-3.4-1.5-4.6-.4-1.2-.9-3.3-1.2-4.6s-.8-3.1-1-4.1-.5-2.8-.8-4.1-.5-3.2-.7-4.4-.4-3.3-.5-4.8c-.2-2.1-.3-4.1-.3-9.6s0-7.5.3-9.6c0-1.5.4-3.6.5-4.8.2-1.2.4-3.2.7-4.4s.6-3.1.8-4.1c.2-1,.6-2.8,1-4.1.3-1.3.9-3.3,1.2-4.6.4-1.2,1-3.3,1.5-4.6.5-1.3,1.3-3.6,1.8-4.9.5-1.4,1.5-3.6,2.1-4.9s1.4-3,1.8-3.8,1.2-2.3,1.8-3.4c.6-1,1.7-3,2.5-4.3s2.2-3.5,3.2-4.9c.9-1.4,2.4-3.5,3.4-4.7.9-1.2,2.4-3.1,3.3-4.2.9-1.1,2.2-2.6,2.9-3.4s2.2-2.4,3.4-3.6c1.2-1.2,3.1-3,4.2-4.1,1.1-1,3-2.6,4-3.5,1.1-.9,3-2.4,4.3-3.4,1.2-1,3.6-2.6,5.2-3.6,1.6-1,3.8-2.4,4.9-3.1,1.1-.7,2.7-1.6,3.6-2.1.9-.5,2.9-1.5,4.4-2.3s4-1.9,5.5-2.5,3.9-1.6,5.3-2.1c1.4-.5,3.8-1.3,5.4-1.8s4-1.2,5.4-1.5c1.4-.4,4-.9,5.6-1.3,1.6-.3,4.4-.8,6-1s4.2-.5,5.6-.7c1.4,0,3.7-.3,5.2-.4h6.6c2.2,0,5.3.2,6.8.3s3.6.3,4.7.4,2.9.4,4,.5c1.1.2,3.3.6,4.9.9,1.6.3,3.8.8,4.9,1.1,1.1.3,3,.8,4.3,1.2s3.5,1.1,4.9,1.6c1.5.5,3.7,1.3,5.1,1.9s3.6,1.5,5,2.1c1.4.6,3.7,1.8,5.1,2.5,1.4.7,3.5,1.9,4.7,2.6s2.9,1.8,3.8,2.3c.9.6,2.4,1.6,3.5,2.3,1,.7,2.9,2,4.1,3,1.2,1,3.1,2.4,4.2,3.3s2.7,2.3,3.6,3.1c.9.8,2.8,2.7,4.2,4,1.4,1.4,3.3,3.4,4.2,4.4s2.3,2.6,3,3.5,2.2,2.7,3.2,4.1c1,1.4,2.4,3.3,3.1,4.3.6,1,1.8,2.7,2.5,3.9s1.8,3.1,2.5,4.2,1.8,3.3,2.6,4.9,1.9,4.1,2.6,5.7c.6,1.5,1.6,3.9,2.1,5.2.5,1.3,1.2,3.6,1.7,5,.4,1.4,1.1,3.9,1.6,5.4.4,1.6.9,3.8,1.2,5,.2,1.2.6,3.4.9,4.8.2,1.4.6,3.7.7,5.2.2,1.4.4,3.6.5,4.8.1,1.3.2,4.6.2,8.2s0,6.8-.2,8.2h0l-.2.3Z"/>
  <path class="st4" d="M110.9,33.2c-1.1,0-2.8.2-4,.3-1.1,0-3.1.4-4.3.6-1.2.2-3.3.6-4.6.9-1.2.3-3.2.8-4.3,1.1-1.1.3-3,.9-4.2,1.3-1.2.4-3.2,1.2-4.5,1.7s-3.7,1.6-5.4,2.4c-1.7.8-3.9,2-5,2.6s-2.8,1.7-3.9,2.4l-1.9,1.3h3.7c3.3-1.9,5.5-3.1,7.1-3.9,1.5-.8,3.8-1.8,4.9-2.3,1.2-.5,2.9-1.2,3.8-1.5s2.5-.9,3.5-1.2,2.8-.8,4.1-1.2c1.2-.3,3.2-.8,4.4-1,1.2-.2,3.2-.6,4.3-.7,1.2-.2,3-.4,4-.5,1.2,0,3.9-.2,7.4-.2s6.2,0,7.4.2c1,0,2.7.3,3.9.5,1.2.2,3.1.5,4.3.7s3.2.7,4.5,1c1.2.3,3.3.9,4.6,1.3s3.5,1.2,4.8,1.7,3.4,1.4,4.6,2c1.2.5,3,1.4,4,2,1,.5,2.7,1.5,3.6,2.1l1.8,1.1h3.7c-3.2-2.2-4.9-3.3-5.9-3.8-1-.6-3.2-1.8-4.9-2.6s-4.1-1.9-5.3-2.4-3.2-1.2-4.4-1.6c-1.2-.4-3.3-1-4.6-1.4-1.3-.3-3.3-.8-4.4-1.1s-2.8-.6-3.8-.7-2.8-.4-4.2-.6c-1.4-.2-3.6-.4-5-.5-1.4,0-3.7,0-5.2,0s-3.6,0-4.7,0h0Z"/>
  <path class="st4" d="M55.9,59.1c-.8.9-2.2,2.4-3,3.4s-2.2,2.7-3.1,3.9c-.9,1.2-2.2,3-2.9,4.1s-1.8,2.8-2.5,4c-.7,1.1-1.9,3.5-2.8,5.3-.9,1.8-1.9,4.1-2.3,5.1-.4,1-1,2.7-1.4,3.7s-1,3.1-1.5,4.6c-.4,1.5-1,3.7-1.2,4.8-.2,1.1-.6,3-.8,4.2s-.5,3.3-.7,4.7c-.2,1.4-.4,4.1-.5,5.9v6.8c0,1.9.3,4.6.4,5.9.2,1.3.4,3.3.6,4.3.2,1.1.5,3,.8,4.3s.9,3.6,1.3,5.1c.4,1.5,1.1,3.6,1.5,4.6s1,2.7,1.4,3.7,1.5,3.3,2.3,5.1c.9,1.8,2.1,4.2,2.8,5.3s1.8,2.9,2.5,4,2,2.9,2.9,4.1c.9,1.2,2.3,3,3.2,4,.8,1,2.6,2.9,3.8,4.2s3,3,3.9,3.8,2.2,1.9,2.8,2.4,2,1.6,2.9,2.3c1,.7,2.8,2,4.1,2.8,1.2.8,3.2,2.1,4.4,2.7,1.2.7,3.5,1.9,5.2,2.7s4.2,1.9,5.5,2.5c1.3.5,3.2,1.2,4.3,1.6,1,.3,2.8.9,3.9,1.2s3.1.8,4.3,1.1c1.2.3,3.1.6,4.1.8s2,.3,2.2.4h.4s-.9-.7-2-1.4l-2-1.3c-3.4-.8-5.2-1.2-6.2-1.5s-2.8-.8-3.9-1.2-2.8-1-3.7-1.3-2.6-1-3.7-1.5-3.1-1.4-4.3-2.1c-1.2-.6-3-1.6-3.9-2.2s-2.6-1.6-3.7-2.3-2.8-1.9-3.7-2.6c-.9-.7-2.3-1.8-3.1-2.4-.8-.6-2.3-2-3.4-2.9-1.1-1-2.8-2.7-3.9-3.9-1.1-1.1-2.6-2.8-3.3-3.8s-2-2.5-2.8-3.5-1.8-2.5-2.4-3.4-1.5-2.3-2-3.2-1.5-2.6-2.1-3.7c-.6-1.1-1.6-3.2-2.3-4.6-.7-1.4-1.6-3.7-2.1-5.1s-1.2-3.4-1.5-4.4-.8-2.8-1.1-4-.8-3.2-1-4.5c-.2-1.2-.5-3-.7-3.9,0-.9-.3-2.2-.4-3s-.2-2.4-.3-3.6c0-1.2-.2-3.4-.2-4.9s0-3.7.2-5c0-1.3.2-3.2.4-4.3s.3-2.7.5-3.7.5-2.7.7-3.9c.2-1.2.7-3.1,1-4.3.3-1.2,1-3.3,1.4-4.6.5-1.3,1.2-3.3,1.6-4.3.4-1.1,1.2-2.8,1.7-3.9s1.4-2.9,2-4,1.5-2.8,2.1-3.7c.5-.9,1.5-2.3,2-3.2.6-.9,1.7-2.4,2.4-3.4.8-1,2-2.6,2.8-3.5s1.9-2.2,2.4-2.7l1-1v-3.1l-1.6,1.6h0l.3-.2ZM174.8,59v1.5c1.8,1.9,2.8,3.2,3.5,3.9.7.7,1.8,2.2,2.6,3.2.7,1,1.9,2.6,2.5,3.5s1.5,2.3,2,3.2c.5.8,1.4,2.5,2.1,3.7.7,1.2,1.6,3.2,2.2,4.3.5,1.2,1.3,3,1.7,4s1.1,2.9,1.5,4.2c.4,1.3,1,3.1,1.2,4.1s.6,2.5.9,3.5.6,2.8.8,4,.5,3.3.7,4.7c.2,1.4.4,4.1.4,5.9.1,2.5.1,4.2,0,6.7,0,1.9-.3,4.6-.4,6-.2,1.4-.5,3.5-.7,4.7s-.6,3-.8,4-.6,2.6-.9,3.5-.8,2.8-1.2,4.1-1.1,3.2-1.5,4.2-1.2,2.8-1.7,4-1.6,3.2-2.2,4.5c-.7,1.3-1.7,3.1-2.2,3.9-.5.9-1.4,2.2-1.9,3-.6.8-1.6,2.3-2.3,3.2-.7,1-2,2.6-2.9,3.6-.8,1-3,3.3-4.9,5.2s-4.1,3.9-5,4.7-2.5,2-3.5,2.8-2.8,2-4,2.8-3.2,2-4.5,2.8c-1.3.7-3.4,1.8-4.6,2.4-1.2.6-3.3,1.5-4.6,2.1s-3.7,1.4-5.4,2c-1.6.6-4.2,1.3-5.7,1.7s-3,.7-3.5.8c-.6.1-1.3.5-2.7,1.3-1,.6-2,1.3-2.1,1.4-.2.1-.3.2-.2.3,0,0,1.1-.1,2.4-.3s3.1-.6,4.1-.8,2.8-.7,4.1-1c1.3-.4,3.4-1,4.6-1.4,1.2-.4,3.2-1.1,4.4-1.6s3.6-1.6,5.3-2.4c1.7-.8,3.9-2,4.9-2.6s2.9-1.8,4.2-2.6c1.3-.9,3.1-2.1,4.1-2.9,1-.7,2.5-2,3.5-2.7.9-.8,2.6-2.2,3.7-3.2,1.1-1,2.8-2.7,3.8-3.8s2.5-2.8,3.3-3.7c.8-1,2.1-2.6,2.8-3.5.7-1,1.9-2.6,2.5-3.6.7-1,1.7-2.6,2.3-3.6s1.8-3.1,2.6-4.8c.9-1.7,2-4.1,2.5-5.4.5-1.3,1.3-3.3,1.7-4.4.4-1.1,1-3,1.4-4.3.4-1.2.9-3.1,1.1-4.1.2-1,.6-2.7.8-3.8s.5-2.9.7-4.1c.2-1.2.4-3,.5-4.1.1-1.2.2-4,.2-7.3s0-6.1-.2-7.3c-.1-1.1-.3-2.9-.5-4.1s-.5-3-.7-4.1-.7-3.2-1-4.6c-.4-1.4-.9-3.5-1.3-4.6-.3-1.1-.9-2.9-1.4-4-.4-1.1-1.1-2.9-1.6-4s-1.5-3.3-2.3-4.9-1.9-3.7-2.5-4.6c-.6-1-1.6-2.6-2.3-3.6s-1.8-2.6-2.5-3.6-2-2.6-2.8-3.5c-.8-1-2.3-2.6-3.3-3.7-1-1.1-1.8-1.9-1.9-1.9s0,.7,0,1.5h0v-.4Z"/>
  <path class="st5" d="M116.1,199.4l-3.5-1.8c-1.5-.8-3.8-2-5.1-2.8-1.2-.7-3.1-1.9-4.4-2.8-1.2-.8-3.1-2.1-4.3-3-1.2-.9-2.9-2.3-3.9-3.1s-2.6-2.3-3.7-3.2c-1.1-1-2.6-2.5-3.4-3.3s-2.1-2.2-2.9-3.1c-.7-.8-2.1-2.5-3.1-3.7-.9-1.1-2.1-2.7-2.7-3.4-.5-.7-1.5-2.2-2.2-3.1-.7-1-1.7-2.7-2.3-3.7-.6-1.1-1.7-2.9-2.3-4.1-.7-1.3-1.7-3.3-2.3-4.6-.6-1.2-1.5-3.4-2.1-4.8-.5-1.4-1.4-3.7-1.8-5.1-.4-1.4-1.1-3.5-1.4-4.6s-.8-3-1-4.3c-.3-1.2-.7-3.2-.9-4.5-.2-1.2-.5-3.3-.7-4.7-.2-1.4-.4-3.6-.5-4.7,0-1.5-.2-14.3-.2-34.9v-34.1h108.9v37.2h0c0,12.2,0,29.2-.2,31,0,1.2-.2,3.2-.4,4.5-.1,1.2-.3,2.8-.5,3.7-.1.9-.5,3-.8,4.6s-.9,4-1.2,5.2c-.3,1.3-.9,3.2-1.2,4.2-.3,1.1-.9,2.7-1.2,3.7-.3.9-1,2.7-1.5,3.9-.5,1.3-1.3,3.1-1.8,4.1s-1.4,2.9-2.1,4.2c-.6,1.2-1.6,2.9-2.2,3.9-.6.9-1.7,2.7-2.5,3.9s-2.1,3-2.8,4c-.7.9-1.8,2.4-2.5,3.2-.7.9-2,2.4-3,3.4-1,1.2-3.1,3.2-4.4,4.6-1.5,1.5-3.7,3.5-5,4.6-1.2,1-3.1,2.5-4.1,3.3-1.1.8-3,2.1-4.3,3-1.4.9-3.5,2.2-4.6,2.9-1.4.8-3.8,2.1-7.5,4l-.7.3h.3ZM64.6,55.2v31.1c0,20.3,0,33.2,0,34.7,0,1,.3,3.1.4,4.5.2,1.3.5,3.4.7,4.6.2,1.2.6,3.1.9,4.3s.7,3.1,1,4.1.9,3,1.4,4.5c.4,1.4,1.3,3.6,1.8,4.9.5,1.4,1.4,3.5,2,4.6l2.2,4.4c.6,1.2,1.7,3,2.3,4,.6.9,1.6,2.5,2.2,3.5s1.6,2.3,2.1,3.1c.5.7,1.7,2.2,2.6,3.3s2.3,2.7,3,3.5,2,2.2,2.8,3,2.2,2.2,3.3,3.2c1,.9,2.6,2.3,3.5,3.1s2.6,2.1,3.8,3c1.1.8,3,2.1,4.1,2.9,1.1.7,3,1.9,4.3,2.7,1.2.7,3.5,1.9,5,2.7l2.2,1.1c3.2-1.6,5.5-2.8,6.7-3.5,1.1-.6,3.1-1.9,4.5-2.8,1.4-.9,3.3-2.3,4.2-2.9,1-.7,2.8-2.2,4-3.2s3.4-3,4.8-4.4c1.5-1.5,3.4-3.4,4.3-4.4.9-1,2.2-2.5,2.9-3.3.6-.8,1.7-2.2,2.4-3.1.7-.9,1.9-2.6,2.7-3.8s1.9-2.9,2.4-3.8c.5-.8,1.4-2.5,2.1-3.8.7-1.2,1.6-3.1,2-4,.5-1,1.2-2.8,1.7-4s1.1-2.9,1.5-3.8c.3-.9.8-2.5,1.2-3.5.3-1,.8-2.8,1.2-4,.3-1.2.8-3.5,1.1-5.1.3-1.7.7-3.7.8-4.4.1-.8.3-2.4.4-3.6.1-1.2.3-3.1.4-4.3,0-1.4.1-13.9.1-34.4v-3.6h0v-27h-103.1Z"/>
  <g>
    <path class="st3" d="M151.3,142.7c2.3-.2,5-2.7,5-2.7,0,2.2-.8,3.9-1.8,5.2-1.2,1.5-2.7,2.5-4,3-2.4,1.1-5.3,3.5-3,5.3,1.9,1.5,6.1-.5,6.1-.5,0,3.8-2.3,7.8-5.7,9.5-3.2,1.6-4.7,3-4.8,3.1h0c2.4,1.1,3.5,2.1,3.5,2.1-5.6.9-10.5,4.7-10.5,4.7,1.3-5.8,3.7-8.9,3.7-8.9-9.8,3.4-11.5,15.3-14.7,20.9v.2c-2,3.3-5.5,5-9,5s-6.9-1.7-9-5v-.2c-3.3-5.5-5-17.5-14.7-20.9,0,0,2.4,3.1,3.7,8.9,0,0-4.9-3.8-10.5-4.7,0,0,1.1-1,3.5-2.1,0,0-1.4-1.4-4.8-3.1-3.3-1.7-5.6-5.7-5.7-9.5,0,0,4.2,2,6.1.5,2.3-1.8-.6-4.2-2.9-5.3-2.4-1.1-5.8-3.5-5.8-8.3,0,0,2.7,2.5,5,2.7s3.7-1.2,3.7-2.6c0,0,2.8,1.1,5.1,4.8,2.2,3.6,3.1,5.2,6,8,0,0-.5-2.8,0-5,0,0,2,1.7,4.3,3.8s3.1,3.8,3.5,5c0,0-1.5.3-4.2-.4,0,.1,2.5,1.9,5,3.4,2.2,1.4,4.2,6,4.2,6,0,0,2.6-10.4-6.5-18.4s-12.4-11-12.3-16.1c0,0,2,2.4,5.1,4.3,0,0,1.4-9.1-3.3-15.4-4.7-6.2-8-10.7-10.6-16,0,0-2,10.9,3.6,23.1l-6-.5s.6,2.8,2.2,5.7c-.2-.1-5.8-4.2-7.1-10.4l4.2.3s-6.4-12.9-.7-31.4c0,0,15.9,14.7,24.3,23.9,0,0-.8-4.2,0-5.2.5-.6,5.9-2.3,5.9-2.3,0,0,5.1,2.4,8.6,2.4s8.6-2.4,8.6-2.4c0,0,5.4,1.7,5.9,2.3.8,1.1,0,5.2,0,5.2h0c8.4-9.2,24.3-23.9,24.3-23.9,5.7,18.5-.7,31.4-.7,31.4l4.3-.3c-1.2,6.2-6.9,10.3-7.1,10.4,1.6-2.9,2.2-5.7,2.2-5.7l-6,.5c5.7-12.3,3.6-23.1,3.6-23.1-2.6,5.3-5.9,9.8-10.6,16-4.7,6.2-3.3,15.4-3.3,15.4,3.1-1.9,5.1-4.3,5.1-4.3.1,5.1-3.2,8.1-12.3,16.1-9.1,8-6.5,18.4-6.5,18.4h0c0-.3,2-4.7,4.2-6,2.5-1.5,4.8-3.3,5-3.4-2.8.7-4.2.4-4.2.4.4-1.1,1.2-2.9,3.5-5s4.3-3.8,4.3-3.8c.5,2.2,0,5,0,5,2.3-2.2,3.3-3.7,4.8-6,.3-.6.7-1.2,1.1-1.9h0c2.2-3.6,5.1-4.8,5.1-4.8,0,1.4,1.5,2.8,3.7,2.6h.3Z"/>
    <path class="st8" d="M116.1,157.8c-3.5-1-5.5-2.4-5.5-2.4,1.5,2.6,3.3,4.2,3.3,4.2l2.1,7.7,2.1-7.7s1.8-1.7,3.3-4.2c0,0-2,1.4-5.5,2.4h.2Z"/>
    <path class="st8" d="M122.3,182.1s-2.6-.5-2.7,2.4c0,0-1.9,1.9-3.6,1.9s-3.6-1.9-3.6-1.9c0-2.9-2.7-2.4-2.7-2.4,0,0-1.2-1.9.2-3.4s1.9-.9,3.1-1.1c2-.3,4-.3,5.9,0,1.2.2,2.5.6,3.1,1.1s.2.2.2.3c1,1.4,0,3.1,0,3.1h0Z"/>
    <path class="st2" d="M143.2,165.6s.6-1.6,1.8-3.1c1.8-2.1,2.1-3.7,2.1-3.7,0,0-4.6,1-9-1.6,0,0,3.4-5.4,3.1-10.5-1.5,2.4-2.5,3.8-4.8,6,0,0,.5-2.8,0-5,0,0-2,1.7-4.3,3.8s-3.1,3.8-3.5,5c0,0,1.5.3,4.2-.4h0c-.3.2-2.6,1.9-5,3.4-2.2,1.3-4,5.7-4.2,6h0s-.9,3.6-.2,6.6c.6,2.5.3,4.9-1.2,6.9,1,1.4,0,3.1,0,3.1,0,0-2.6-.5-2.7,2.4,0,0-1.9,1.9-3.6,1.9s-3.6-1.9-3.6-1.9c0-2.9-2.7-2.4-2.7-2.4,0,0-1.1-1.7,0-3.1-1.4-2-1.8-4.4-1.2-6.9.8-3-.2-6.6-.2-6.6h0c0-.3-2-4.7-4.2-6-2.4-1.5-4.7-3.2-5-3.4h0c2.8.7,4.2.4,4.2.4-.4-1.1-1.2-2.9-3.5-5s-4.3-3.8-4.3-3.8c-.5,2.2,0,5,0,5-2.3-2.2-3.3-3.7-4.8-6-.3,5.1,3.1,10.5,3.1,10.5-4.4,2.6-9,1.6-9,1.6,0,0,.4,1.6,2.1,3.7,1.3,1.5,1.8,3,1.8,3.1h0c-2.4,1.1-3.5,2.1-3.5,2.1,5.6.9,10.5,4.7,10.5,4.7-1.3-5.8-3.7-8.9-3.7-8.9,9.8,3.4,11.5,15.3,14.7,20.9v.2c2,3.3,5.5,5,9,5s6.9-1.7,9-5v-.2c3.3-5.5,5-17.5,14.7-20.9,0,0-2.4,3.1-3.7,8.9,0,0,4.9-3.8,10.5-4.7,0,0-1.1-1-3.5-2.1h.6Z"/>
    <path class="st8" d="M136.1,118.9c-3.6,2.6-4.5,4.8-6.2,10-1.7,5.2-6,7.8-6,7.8,2.3-3.4,3.4-7.6,3.4-7.6-.6.4-1.2.7-1.9,1-5.9,2.7-12.7,2.7-18.6,0-.6-.3-1.3-.6-1.9-1,0,0,1.2,4.2,3.4,7.6,0,0-4.3-2.6-6-7.8s-2.7-7.4-6.2-10c0,0,5,8.8,3.4,19.8,0,0,3.5,3.7,7.6,6.5,4.5,3.1,8.9,8.6,8.9,8.6,0,0,4.4-5.5,8.9-8.6,4.1-2.8,7.6-6.5,7.6-6.5-1.6-11,3.4-19.8,3.4-19.8h.2Z"/>
  </g>
  <g>
    <path class="st2" d="M70.5,77.9v-11.6c0-1.6.8-2.4,2.2-2.4h.7c1.5,0,2.3.8,2.3,2.4v9.9h5c1.6,0,2.4.7,2.4,2.2h0c0,1.6-.8,2.3-2.4,2.3h-7.5c-1.7,0-2.7-1-2.7-2.8Z"/>
    <path class="st2" d="M86.4,72.4c0-5.1,3.7-8.7,8.8-8.7s8.8,3.6,8.8,8.7-3.7,8.7-8.8,8.7-8.8-3.6-8.8-8.7ZM98.8,72.4c0-2.5-1.5-4.2-3.7-4.2s-3.7,1.6-3.7,4.1,1.5,4.1,3.7,4.1,3.7-1.6,3.7-4.1h0ZM92.4,62.2c0-1.2,1.7-4.6,4-4.6s2,.8,2,1.9c0,2.1-3.1,3.3-5.1,3.3s-.9,0-.9-.6Z"/>
    <path class="st2" d="M109.4,78.4v-11.5c0-1.9,1-2.9,2.7-2.9h4.4c4.7,0,7.4,2.1,7.4,6.1s-2.5,6-7.2,6h-2v2.4c0,1.5-.8,2.4-2.3,2.4h-.7c-1.4,0-2.2-.8-2.2-2.4h-.1ZM118.8,70.1c0-1.4-.9-2.2-2.5-2.2h-1.8v4.3h1.9c1.5,0,2.4-.8,2.4-2.1Z"/>
    <path class="st2" d="M129,77.9v-11c0-1.9,1-2.9,2.7-2.9h8.8c1.6,0,2.4.6,2.4,2h0c0,1.5-.7,2.1-2.4,2.1h-6.3v2.2h4.2c1.7,0,2.4.5,2.4,1.8h0c0,1.4-.7,2-2.4,2h-4.2v2.5h6.4c1.7,0,2.4.5,2.4,1.9h0c0,1.5-.7,2.2-2.4,2.2h-8.9c-1.7,0-2.7-1-2.7-2.8Z"/>
    <path class="st2" d="M147.8,78.4c0-1.5.5-2,1.4-3l6.3-7.1h-5.2c-1.5,0-2.3-.5-2.3-2v-.2c0-1.4.8-2,2.3-2h9.3c1.9,0,2.6,1,2.6,2v.3c0,1.5-.5,2.1-1.3,2.9l-6.4,7.2h5.7c1.5,0,2.3.5,2.3,2v.2c0,1.4-.8,2-2.3,2h-9.7c-1.9,0-2.6-1-2.6-2v-.2h-.1Z"/>
  </g>
  <path class="st7" d="M115.8,205.6c-5.3,0-9.6,4.3-9.6,9.6s4.3,9.6,9.6,9.6,9.6-4.3,9.6-9.6-4.3-9.6-9.6-9.6ZM117.1,207c0-.2.2-.3.4-.3s.3.2.3.4v.3c.2,0,.5.2.8.3v-.2c.2-.2.4-.2.5-.2.2,0,.2.3.2.4v.2c.2.1.4.3.7.4v-.2c.2-.1.5-.2.6,0,0,.1.2.3,0,.5v.2c0,.2.3.4.6.6l.2-.2c0-.1.3-.1.5,0,0,.1,0,.3,0,.5l-.2.2c.2.2.4.5.6.7h.2c0-.2.4-.2.5,0,0,.1,0,.4,0,.5h-.2c.2.4.3.7.4,1h.2c.2-.2.4,0,.4,0,0,0,0,.4-.2.4h-.2c0,.4.2.7.3,1h.3c.2,0,.3,0,.4.2,0,.2,0,.3-.3.4h-.6c0,.1,0,.1-.2.1,0,0,0-.1,0-.2-.6-2.9-2.9-5.2-5.8-5.8,0,0-.2,0-.2-.1v-1.1ZM119.6,214.3h-.4v.6c0,.2,0,.3-.3.3s-.3-.1-.3-.3v-1.4c0-.1,0-.2.2-.3h.3l.4.3.4-.3h.3c0,0,.2.2.2.3v1.4c0,.2,0,.3-.3.3s-.3-.1-.3-.3v-.7h-.2ZM119.1,212.8c0-.2.2-.3.3-.3s.3.2.3.3-.2.3-.3.3-.3-.2-.3-.3ZM114.8,207.3l.7-1.2c0-.1.2-.2.3-.2s.2,0,.3.2l.7,1.2c0,.2,0,.4,0,.4h-.2c0,0-.2,0-.3-.2l-.4-.7-.4.7c0,.2-.3.2-.4.1-.2,0-.2-.3,0-.4h0ZM107.7,213.2h.3c0-.2.2-.5.3-.8h-.2c-.2-.2-.2-.4-.2-.5,0-.2.3-.2.4-.2h.2c0-.2.3-.4.4-.7h-.2c0-.2-.2-.5,0-.6,0-.1.3-.2.5,0h.2c.2,0,.4-.3.6-.6l-.2-.2c0-.1,0-.3,0-.5s.3-.1.5,0l.2.2c.2-.2.5-.4.7-.6v-.2c-.2-.1-.2-.4,0-.5,0-.1.4,0,.5,0v.2c.4-.2.7-.3,1-.4v-.2c-.2-.2,0-.4,0-.4.2,0,.4,0,.4.2v.2c.4-.1.7-.2,1-.3v-.3c0-.2,0-.3.2-.4.2,0,.3,0,.4.3v.6c0,0,0,.2,0,.2,0,0,0,.1-.2.1-2.9.6-5.2,2.9-5.8,5.8,0,0,0,.2,0,.2h-.2c0,0,0,0,0,0h-.6c-.2-.1-.3-.3-.3-.5s.2-.3.4-.3l-.2.2ZM106.6,215.2c0-.1,0-.2.2-.3l1.2-.7c.2,0,.4,0,.4.1,0,.2,0,.4,0,.4l-.7.4.7.4c.2,0,.2.3,0,.4,0,.1-.2.2-.3.2h-.2l-1.2-.7c0,0-.2-.2-.2-.3h0ZM114.5,223.4c0,.2-.2.3-.3.3s0,0,0,0c-.2,0-.3-.2-.3-.4v-.3c-.2,0-.5-.2-.8-.3v.2c-.2.1-.3.2-.4.2h0c-.2,0-.2-.3-.2-.4v-.2c-.2-.1-.4-.3-.7-.4v.2c-.2,0-.3.1-.4.1h-.2c0-.1-.2-.3,0-.5v-.2c0-.2-.3-.4-.6-.6l-.2.2h-.4c0-.1,0-.3,0-.5l.2-.2c-.2-.2-.4-.5-.6-.7h-.2c0,.2,0,.2-.2.2s-.2,0-.3-.1c0-.1,0-.4,0-.5h.2c-.2-.4-.3-.7-.4-1h-.2q0,.1,0,.1c0,0-.2,0-.3-.2,0-.2,0-.4.2-.4h.2c0-.4-.2-.7-.3-1h-.3c-.2,0-.3,0-.4-.2,0-.2,0-.3.3-.4h.6c0-.1.2-.1.2,0,0,0,0,.1,0,.2.6,2.9,2.9,5.2,5.8,5.8,0,0,.2,0,.2.1v.8h0ZM108.8,215.2c0-3.9,3.1-7,7-7s3.2.6,4.4,1.6c0,.1.2.3,0,.5,0,.1-.3.2-.5,0-1.1-.9-2.6-1.4-4-1.4-3.5,0-6.4,2.8-6.4,6.4s2.8,6.4,6.4,6.4,6.4-2.8,6.4-6.4-.5-2.9-1.4-4c0-.1,0-.3,0-.5,0-.1.3,0,.5,0,1,1.2,1.6,2.8,1.6,4.4,0,3.9-3.1,7-7,7s-7-3.1-7-7ZM114.4,213.9h-.7c0,0-.2,0-.3-.1v-.3l1.2-2.7c0-.1.2-.2.3-.2h1.9c.2,0,.3.1.3.3v8.6c0,.2,0,.3-.3.3h-1.9c-.2,0-.3-.1-.3-.3v-5.5s0-.1,0-.1h0ZM112.6,215.2v.9l.7.4c.2.1.4.4.4.7v.8c0,.3-.3.6-.6.6h0c0,.3,0,.5-.3.5s-.3-.1-.3-.3h0c-.3-.2-.6-.4-.6-.8v-.4c0-.2,0-.3.3-.3s.3.1.3.3v.4h.5v-.9l-.7-.4c-.2-.1-.4-.4-.4-.7v-.8c0-.3.3-.6.6-.6h0c0-.3,0-.5.3-.5s.3.1.3.3h0c.3.2.6.4.6.8v.4c0,.2,0,.3-.3.3s-.3-.1-.3-.3v-.4h-.5ZM123.8,217.1h-.3c0,.2-.2.5-.3.8h.2c.2.2.2.4.2.5s-.2.2-.3.2,0,0,0,0h-.2c0,.2-.3.4-.4.7h.2c0,.2.2.5,0,.6,0,0-.2.1-.3.1h-.4c-.2,0-.4.3-.6.6l.2.2c0,.1,0,.3,0,.5h-.4l-.2-.2c-.2.2-.5.4-.7.6v.2c.2.1.2.4,0,.5h-.2c0,0-.2,0-.3-.1v-.2c-.4.2-.7.3-1,.4v.2c.2.2,0,.4,0,.4h0c0,0-.2,0-.3-.2v-.2c-.4.1-.7.2-1,.3v.3c0,.2,0,.3-.2.4h0c-.2,0-.3-.1-.3-.3v-.6c0,0,0-.2,0-.2,0,0,0-.1.2-.1,2.9-.6,5.2-2.9,5.8-5.8,0,0,0-.2,0-.2h.8c.2.1.3.3.3.5s-.2.3-.4.3v-.2ZM123.6,216.1h-.2c0,0-.2,0-.3-.2,0-.2,0-.4,0-.4l.7-.4-.7-.4c-.2,0-.2-.3,0-.4,0-.2.3-.2.4-.1l1.2.7c0,0,.2.2.2.3s0,.2-.2.3l-1.2.7h0Z"/>
  <g>
    <path class="st1" d="M107.2,222.4h0s0-.2,0-.3c-.2-.3-.4-.6-.6-.9h0c0,.1,0,.2-.2.2h-.2c0-.1,0-.3,0-.5l.2-.2c-.2-.2-.4-.5-.6-.7h-.2c0,.2,0,.2-.2.2s-.2,0-.3-.1c0-.1,0-.4,0-.5h.2c-.2-.4-.3-.7-.4-1h-.2q0,.1,0,.1c0,0-.2,0-.3-.2,0-.2,0-.4.2-.4h.2c0-.4-.2-.7-.3-1h-.3c-.2,0-.3,0-.4-.2,0-.2,0-.3.3-.4h.6c0-.1.2-.1.2,0,0,0,0,.1,0,.2v.2c0-.5,0-1.1,0-1.7s0-1.1,0-1.7v.2s0,.2,0,.2h-.2c0,0,0,0,0,0h-.6c-.2-.1-.3-.3-.3-.5s.2-.3.4-.3h.3c0-.2.2-.5.3-.8h-.2c-.2-.2-.2-.4-.2-.5,0-.2.3-.2.4-.2h.2c0-.2.3-.4.4-.7h-.2c0-.2-.2-.5,0-.6,0-.1.3-.2.5,0h.2c.2,0,.4-.3.6-.6l-.2-.2c0-.1,0-.3,0-.5s.3-.1.5,0h0c.2-.2.4-.5.6-.8,0-.1,0-.2,0-.3h0c.7-.8,1.4-1.5,2.3-2.1-4.1,1.1-7.2,4.8-7.2,9.2s3,8.2,7.2,9.2c-.8-.6-1.6-1.3-2.3-2.1v.3ZM102.7,215.2c0-.1,0-.2.2-.3l1.2-.7c.2,0,.4,0,.4.1,0,.2,0,.4,0,.4l-.7.4.7.4c.2,0,.2.3,0,.4,0,.1-.2.2-.3.2h-.2l-1.2-.7c0,0-.2-.2-.2-.3h0Z"/>
    <path class="st1" d="M122.1,205.9c.9.6,1.6,1.3,2.3,2.1h0s0,.2,0,.3c.2.3.4.6.6.9h0c0-.2.3-.2.5,0,0,.1,0,.3,0,.5l-.2.2c.2.2.4.5.6.7h.2c0-.2.4-.2.5,0,0,.1,0,.4,0,.5h-.2c.2.4.3.7.4,1h.2c.2-.2.4,0,.4,0,0,0,0,.4-.2.4h-.2c0,.4.2.7.3,1h.3c.2,0,.3,0,.4.2,0,.2,0,.3-.3.4h-.6c0,.1,0,.1-.2.1,0,0,0-.1,0-.2v-.2c0,.5,0,1.1,0,1.7s0,1.1,0,1.7v-.2s0-.2,0-.2h.8c.2.1.3.3.3.5s-.2.3-.4.3h-.3c0,.2-.2.5-.3.8h.2c.2.2.2.4.2.5s-.2.2-.3.2,0,0,0,0h-.2c0,.2-.3.4-.4.7h.2c0,.2.2.5,0,.6,0,0-.2.1-.3.1h-.4c-.2,0-.4.3-.6.6l.2.2c0,.1,0,.3,0,.5h-.4c-.2.2-.4.5-.6.8,0,.1,0,.2,0,.3h0c-.7.8-1.4,1.5-2.3,2.1,4.1-1.1,7.2-4.8,7.2-9.2s-3-8.2-7.2-9.2v-.7ZM127.5,216.1h-.2c0,0-.2,0-.3-.2,0-.2,0-.4,0-.4l.7-.4-.7-.4c-.2,0-.2-.3,0-.4,0-.2.3-.2.4-.1l1.2.7c.1,0,.2.2.2.3s0,.2-.2.3l-1.2.7h0Z"/>
  </g>
  <g>
    <path class="st6" d="M103.2,221.3h0s0-.2,0-.3c-.2-.3-.4-.6-.5-1h0c0,.1-.2.2-.2.1s-.2,0-.2-.1c0-.1,0-.3,0-.5l.2-.2c-.2-.2-.4-.5-.5-.8h-.2c0,.2,0,.2-.2.2s-.2,0-.3-.2c0-.2,0-.4,0-.4h.2c0-.4-.2-.7-.3-1h-.4c0,0-.2-.1-.3-.2,0-.2,0-.4.2-.4h.3c0-.4,0-.7-.2-1h-.3c-.2,0-.3,0-.4-.3,0-.2,0-.3.3-.4h.8s0,.1,0,.2v.2-1.7c0-.6.2-1.1.3-1.6v.2s0,.2-.2.2h-.2c0,0,0,0,0,0l-.6-.2c-.2,0-.3-.2-.2-.4,0-.2.2-.3.4-.2h.3c0-.2.2-.5.4-.8h-.2c-.2-.2-.2-.4,0-.6,0-.2.3-.2.4-.1h.2c.2-.1.3-.4.5-.6l-.2-.2c0-.1-.2-.3,0-.5,0-.1.3-.2.5,0l.2.2c.2-.2.4-.4.7-.6l-.2-.2c0-.1,0-.3,0-.5s.3,0,.5,0h0l.7-.7c0-.1,0-.2.2-.2h0c.7-.7,1.6-1.3,2.5-1.8-4.2.6-7.6,4-8.1,8.4s2.2,8.4,6.1,9.9c-.8-.7-1.5-1.4-2-2.3v.4ZM99.5,213.7c0-.1,0-.2.2-.3l1.2-.6c.2,0,.4,0,.4.2s0,.4-.2.4l-.7.3.6.5c0,.1.2.3,0,.5,0,0-.2.1-.3.1h-.2l-1.1-.8s0-.2,0-.3h.2Z"/>
    <path class="st6" d="M124.4,205.1c.9.5,1.7,1.1,2.5,1.8h0s0,.1.2.2c.3.3.5.5.7.8h0c0-.2.3-.2.5-.1.1.1.2.3,0,.5l-.2.2c.2.2.4.4.6.7l.2-.2c.1-.1.3,0,.5,0,.1.1,0,.3,0,.5l-.2.2c.2.2.4.5.5.8h.2c.2-.2.4-.1.4,0s0,.4-.1.4h-.2c.1.4.2.7.3,1h.3c.2-.1.4,0,.4.1,0,.2,0,.4-.2.4l-.6.2h-.2l-.2-.2v-.2c.1.5.2,1.1.3,1.6s0,1.1,0,1.7v-.2s0-.2.1-.2h.8c.2,0,.3.2.3.4s-.2.3-.4.3h-.3c0,.3-.1.6-.2.9h.3c.2.1.3.3.2.5,0,.1-.2.2-.3.2h-.4c-.1.2-.2.5-.4.8h.2c.2.2.2.4.1.6,0,0-.2.2-.3.2h-.4c-.2.1-.3.4-.5.6l.2.2c.1.1.2.3,0,.5,0,0-.1.1-.2.1h-.2c-.2.3-.3.6-.5.9,0,.1,0,.2-.1.3h0c-.6.8-1.3,1.6-2.1,2.3,4-1.5,6.7-5.5,6.3-9.9s-3.8-7.9-8-8.5v-.4ZM130.8,214.8h-.2c-.1,0-.2,0-.3-.1s0-.4,0-.5l.6-.5-.7-.3c-.2,0-.2-.3-.2-.4,0-.2.3-.2.4-.2l1.2.6c.1,0,.2.1.2.3s0,.2-.1.3l-1.1.8h.2Z"/>
  </g>
  <g>
    <path class="st0" d="M99.5,220.5h0v-.3c-.2-.3-.3-.6-.5-1h0c0,.1-.2.1-.2.1,0,0-.2,0-.2-.1,0-.1,0-.3,0-.5l.2-.2c-.2-.3-.3-.5-.5-.8h-.2c0,.1,0,.2-.2.1,0,0-.2,0-.2-.2s0-.4.2-.4h.2c0-.4-.2-.7-.3-1h-.4c0,0-.2-.1-.3-.2,0-.2,0-.4.2-.4h.3c0-.4,0-.7,0-1h-.3c-.2,0-.3-.1-.3-.3s0-.3.3-.3h.8s0,.1,0,.2v.2c0-.6,0-1.1,0-1.7s.2-1.1.4-1.6v.2s0,.1-.2.2h-.2c0,0,0,0,0,0l-.6-.2c-.2,0-.3-.2-.2-.4,0-.2.2-.3.4-.2h.3c0-.2.3-.5.4-.7h-.2c-.2-.2-.2-.4,0-.6,0-.2.3-.2.4-.1h.2c.2-.1.4-.4.6-.6l-.2-.2c0-.1,0-.3,0-.5,0-.1.3-.1.5,0l.2.2c.2-.2.4-.4.7-.6l-.2-.2c0-.1,0-.3,0-.5s.3,0,.5,0h0c.2-.2.5-.4.8-.7,0-.1,0-.2.2-.2h0c.8-.7,1.6-1.3,2.6-1.7-4.2.4-7.8,3.7-8.5,8.1s1.8,8.5,5.7,10.2c-.7-.7-1.4-1.5-1.9-2.4l-.3.3ZM96.1,212.7c0-.1,0-.2.2-.3l1.3-.5c.2,0,.4,0,.4.2s0,.4-.2.4l-.7.3.6.5c0,.1.2.3,0,.5,0,0-.2.1-.3.1h-.2l-1.1-.8s0-.2,0-.3h0Z"/>
    <path class="st0" d="M127.8,204.3c.9.5,1.7,1.1,2.5,1.8h0l.2.2c.3.3.5.5.7.8h0c.1-.2.3-.3.5-.1s.2.3,0,.5l-.2.2c.2.2.5.4.7.6l.2-.2c.1-.1.3,0,.5,0,.1.1,0,.3,0,.5l-.2.2c.2.2.4.5.5.8h.2c.2-.2.4-.2.4,0s0,.4-.1.4h-.2c.1.4.3.7.4,1h.3c.2-.1.4,0,.4.1,0,.2,0,.4-.2.4l-.6.2h-.2l-.2-.2v-.2c.1.5.2,1.1.3,1.6s0,1.1,0,1.7v-.2s0-.2.1-.2h.8c.2,0,.3.2.3.4s-.2.3-.4.3h-.3c0,.3-.1.6-.2.9h.3c.2.1.3.3.2.5,0,.1-.2.2-.3.2h-.4c-.1.2-.2.5-.4.8h.2c.2.2.2.4.1.6,0,.1-.2.2-.3.2h-.4c-.2.1-.3.4-.5.6l.2.2c.1.1.2.3,0,.5,0,0-.1.1-.2.1h-.2c-.2.3-.3.6-.5.9,0,.1,0,.2-.1.3h0c-.6.8-1.3,1.6-2,2.3,4-1.5,6.6-5.5,6.2-9.9s-3.9-7.8-8.1-8.5v-.3ZM134.2,213.9h-.2c-.1,0-.2,0-.3-.1s0-.4,0-.5l.6-.5-.7-.3c-.2,0-.2-.3-.2-.4,0-.2.3-.2.4-.2l1.2.6c.1,0,.2.1.2.3s0,.2-.1.3l-1.1.8h.2Z"/>
  </g>
  <g>
    <path class="st0" d="M95.4,218.3h0v-.3c0-.3-.3-.7-.4-1h0c0,.1-.2.1-.2,0s-.2,0-.2-.2,0-.4,0-.4h.2c0-.4-.3-.7-.4-1h-.3c0,.1,0,.1-.2,0,0,0-.2-.1-.2-.2,0-.2,0-.4.2-.4h.3c0-.4-.2-.7-.2-1h-.4c0,0-.2-.1-.2-.3s0-.3.3-.4h.3v-1h-.3c-.2,0-.3-.2-.3-.4s.2-.3.3-.3h.6s.2,0,.2.1v.4c0-.5,0-1.1.3-1.6s.3-1.1.6-1.6c0,0,0,.1,0,.2,0,0,0,.1-.2.2h-.2c0,0,0,0,0,0l-.5-.3c-.2,0-.2-.3,0-.4,0-.2.3-.2.4-.2h.2c0-.2.3-.4.5-.7l-.2-.2c0-.1-.2-.3,0-.5,0-.1.3-.2.5,0l.2.2c.2-.2.4-.5.6-.7l-.2-.2c0-.1,0-.3,0-.5,0-.1.3-.1.5,0l.2.2c.2-.2.5-.4.7-.5v-.2c-.2-.2-.2-.4,0-.4s.4,0,.4.1h0c.3-.1.5-.4.8-.6,0,0,0-.2.2-.2h0c.8-.6,1.8-1.1,2.7-1.4-4.2,0-8.1,2.8-9.3,7.1s.9,8.7,4.6,10.8c-.7-.8-1.2-1.6-1.7-2.6v.4ZM92.8,210.2c0-.1,0-.2.2-.2l1.3-.4c.2,0,.4,0,.4.2s0,.4-.2.4l-.8.2.6.6c0,.1,0,.3,0,.5,0,0-.2.1-.3,0s0,0,0,0l-1-1s0-.2,0-.3h0Z"/>
    <path class="st0" d="M129.3,203.3c1,.3,1.9.7,2.8,1.3h0c.1,0,.2.1.2.2.3.2.6.4.9.7h0c0-.3.3-.3.4-.2.2,0,.2.3.1.4v.2c.1.2.4.3.7.5l.2-.2c.1-.1.3-.2.5,0s.2.3,0,.5l-.2.2c.2.2.5.4.7.6l.2-.2c.1-.1.3,0,.5,0s0,.3,0,.5l-.2.2c.2.2.4.5.5.8h.2c.2-.2.4-.2.4,0s0,.4-.1.4l-.5.3h-.2s-.2,0-.2-.2c0,0,0-.1-.1-.2.2.5.5,1,.6,1.5s.3,1.1.4,1.6v-.4s.1-.1.2-.1h.6c.2,0,.3,0,.4.2,0,.2-.1.3-.3.4h-.3v1h.3c.2,0,.3.2.3.4s-.1.2-.2.3,0,0-.1,0h-.3c0,.3,0,.6-.2.9h.3c.2.1.3.3.2.5,0,.1-.1.2-.2.2h-.5c0,.2-.2.5-.3.8h.2c.2.2.2.4.1.6l-.2.2c0,0-.2,0-.2,0h-.1c0,.3-.2.6-.3,1v.3h0c-.4.9-.9,1.8-1.5,2.7,3.6-2.3,5.3-6.8,4-11s-5.4-6.8-9.6-6.6v-.3ZM137.6,211.4h-.4c-.1-.1-.1-.3,0-.5l.5-.6-.8-.2c-.2,0-.3-.2-.3-.4s.2-.3.4-.3l1.3.3c.1,0,.2.1.2.2v.3l-.9,1v.2Z"/>
  </g>
  <g>
    <path class="st2" d="M39.3,75l-1.3,2.3-14.4-8,1.3-2.3,6.2,3.4,1.4-2.6-6.2-3.4,1.3-2.3,14.4,8-1.3,2.3-6.2-3.4-1.4,2.6s6.2,3.4,6.2,3.4Z"/>
    <path class="st2" d="M32.9,54.4l1.6-2.1,13.1,10-1.6,2.1-13.1-10Z"/>
    <path class="st2" d="M50,55.8l.6-.6c.6-.6.8-1.3,0-2.2l-9-8.8,1.8-1.9,8.9,8.6c2.4,2.3,1.7,4.2.4,5.6l-.9.9-1.7-1.6h0Z"/>
    <path class="st2" d="M52.4,39.4c-1.6-2.1-1.4-4.1.6-5.7,2-1.6,4-1.2,5.7.9l5.2,6.8c1.6,2.1,1.4,4.1-.6,5.7s-4,1.2-5.7-.9l-5.2-6.8ZM59.8,44.8c.7.9,1.4,1,2.1.5.7-.5.8-1.2,0-2.1l-5.4-7.1c-.7-.9-1.4-1-2.1-.5-.7.5-.8,1.2,0,2.1l5.4,7.1Z"/>
    <path class="st2" d="M67.1,24.6c2.2-1.2,4.1-.5,5.3,1.8l.2.5-2.2,1.2-.3-.6c-.6-1-1.2-1.2-1.9-.8-.7.4-.9,1-.4,2,1.6,3,6.4,1.1,8.6,5.3,1.3,2.3.8,4.3-1.4,5.5-2.2,1.2-4.1.5-5.4-1.8l-.5-.9,2.2-1.2.6,1c.6,1,1.2,1.2,1.9.8.7-.4,1-1,.4-2-1.6-3-6.4-1.1-8.6-5.3-1.3-2.3-.8-4.3,1.4-5.5h.1Z"/>
    <path class="st2" d="M99.5,13.7l4.1-.5c2.6-.3,4,1,4.3,3.6l1,8.3c.3,2.6-.8,4.2-3.3,4.5l-4.1.5s-2-16.4-2-16.4ZM102.4,15.7l1.5,11.7,1.5-.2c.8-.1,1.3-.6,1.1-1.8l-1.1-8.5c0-1.2-.7-1.5-1.5-1.4l-1.5.2Z"/>
    <path class="st2" d="M119.1,19.4h3.6v2.5h-3.6c0-.1-.2,4.7-.2,4.7l4.5.2v2.4l-7.2-.3.6-16.5,7.1.3v2.4l-4.6-.2-.2,4.6h0Z"/>
    <path class="st2" d="M132.9,13.8l2.5.5-2.7,13.9,4.2.8-.4,2.3-6.7-1.3,3.1-16.2h0Z"/>
    <path class="st2" d="M167.4,25.9l2.2,1.3-7.4,12.1,3.6,2.2-1.2,2-5.9-3.6,8.6-14.1h0Z"/>
    <path class="st2" d="M177.7,37.5c1.7-2,3.8-2.3,5.7-.6s2,3.7.3,5.7l-5.6,6.5c-1.7,2-3.8,2.3-5.7.6s-2-3.7-.3-5.7l5.6-6.5ZM174,45.9c-.8.9-.7,1.6,0,2.1.6.5,1.3.5,2.1-.4l5.8-6.8c.8-.9.7-1.6,0-2.1-.6-.5-1.3-.5-2.1.4l-5.8,6.8Z"/>
    <path class="st2" d="M195,54.7l-.5.4c-1.3,1.1-2.5,1.4-3.6.9.5,1.4-.1,2.6-1.5,3.8l-1,.9c-1.9,1.6-3.9,1.5-5.5-.5l-2.6-3.1,12.6-10.7,2.5,3c1.7,2.1,1.5,3.7-.4,5.4h0ZM187.6,54.1l-3.9,3.3,1,1.1c.6.7,1.2.8,2.1,0l1.1-.9c1.2-1,1.2-1.7.5-2.6l-.7-.9h-.1ZM192.7,49.8l-3.3,2.8.7.8c.6.7,1.3.9,2.3,0l.7-.6c.9-.8,1-1.4.4-2.1l-.8-1h0Z"/>
    <path class="st2" d="M199.9,61.8c2.3-1.3,4.3-.9,5.6,1.3,1.3,2.2.7,4.2-1.6,5.5l-7.4,4.4c-2.3,1.3-4.3.9-5.6-1.3-1.3-2.2-.7-4.2,1.6-5.5,0,0,7.4-4.4,7.4-4.4ZM193.7,68.5c-1,.6-1.1,1.3-.7,2,.4.7,1.1.9,2.1.3l7.7-4.6c1-.6,1.1-1.3.7-2-.4-.7-1.1-.9-2.1-.3,0,0-7.7,4.6-7.7,4.6Z"/>
  </g>
  <g>
    <path class="st9" d="M24.6,105.9l-5.9,5.9-5.9-5.9c-1.2-1.2-3.1-1.2-4.3,0s-1.2,3.1,0,4.3l5.9,5.9-5.9,5.9c-1.2,1.2-1.2,3.1,0,4.3s3.1,1.2,4.3,0l5.9-5.9,5.9,5.9c1.2,1.2,3.1,1.2,4.3,0s1.2-3.1,0-4.3l-5.9-5.9,5.9-5.9c1.2-1.2,1.2-3.1,0-4.3s-3.1-1.2-4.3,0Z"/>
    <path class="st9" d="M219.3,105.9l-5.9,5.9-5.9-5.9c-1.2-1.2-3.1-1.2-4.3,0s-1.2,3.1,0,4.3l5.9,5.9-5.9,5.9c-1.2,1.2-1.2,3.1,0,4.3s3.1,1.2,4.3,0l5.9-5.9,5.9,5.9c1.2,1.2,3.1,1.2,4.3,0s1.2-3.1,0-4.3l-5.9-5.9,5.9-5.9c1.2-1.2,1.2-3.1,0-4.3s-3.1-1.2-4.3,0Z"/>
  </g>
  <g>
    <path class="st9" d="M29.5,142.3l-4.6,4.6-4.6-4.6c-.9-.9-2.5-.9-3.4,0s-.9,2.5,0,3.4l4.6,4.6-4.6,4.6c-.9.9-.9,2.5,0,3.4s2.5.9,3.4,0l4.6-4.6,4.6,4.6c.9.9,2.5.9,3.4,0s.9-2.5,0-3.4l-4.6-4.6,4.6-4.6c.9-.9.9-2.5,0-3.4s-2.5-.9-3.4,0Z"/>
    <path class="st9" d="M212,142.3l-4.6,4.6-4.6-4.6c-.9-.9-2.5-.9-3.4,0s-.9,2.5,0,3.4l4.6,4.6-4.6,4.6c-.9.9-.9,2.5,0,3.4s2.5.9,3.4,0l4.6-4.6,4.6,4.6c.9.9,2.5.9,3.4,0s.9-2.5,0-3.4l-4.6-4.6,4.6-4.6c.9-.9.9-2.5,0-3.4s-2.5-.9-3.4,0Z"/>
  </g>
  <g>
    <path class="st9" d="M41.2,169.4l-3.3,3.3-3.3-3.3c-.7-.7-1.8-.7-2.5,0s-.7,1.8,0,2.5l3.3,3.3-3.3,3.3c-.7.7-.7,1.8,0,2.5s1.8.7,2.5,0l3.3-3.3,3.3,3.3c.7.7,1.8.7,2.5,0s.7-1.8,0-2.5l-3.3-3.3,3.3-3.3c.7-.7.7-1.8,0-2.5s-1.8-.7-2.5,0Z"/>
    <path class="st9" d="M197.8,169.4l-3.3,3.3-3.3-3.3c-.7-.7-1.8-.7-2.5,0s-.7,1.8,0,2.5l3.3,3.3-3.3,3.3c-.7.7-.7,1.8,0,2.5s1.8.7,2.5,0l3.3-3.3,3.3,3.3c.7.7,1.8.7,2.5,0s.7-1.8,0-2.5l-3.3-3.3,3.3-3.3c.7-.7.7-1.8,0-2.5s-1.8-.7-2.5,0Z"/>
  </g>
  <g>
    <path class="st9" d="M58.1,188.7l-2.5,2.5-2.5-2.5c-.5-.5-1.3-.5-1.8,0s-.5,1.3,0,1.8l2.5,2.5-2.5,2.5c-.5.5-.5,1.3,0,1.8s1.3.5,1.8,0l2.5-2.5,2.5,2.5c.5.5,1.3.5,1.8,0s.5-1.3,0-1.8l-2.5-2.5,2.5-2.5c.5-.5.5-1.3,0-1.8s-1.3-.5-1.8,0Z"/>
    <path class="st9" d="M179.1,188.7l-2.5,2.5-2.5-2.5c-.5-.5-1.3-.5-1.8,0s-.5,1.3,0,1.8l2.5,2.5-2.5,2.5c-.5.5-.5,1.3,0,1.8s1.3.5,1.8,0l2.5-2.5,2.5,2.5c.5.5,1.3.5,1.8,0s.5-1.3,0-1.8l-2.5-2.5,2.5-2.5c.5-.5.5-1.3,0-1.8s-1.3-.5-1.8,0Z"/>
  </g>
</svg>