<?xml version="1.0" encoding="UTF-8"?>
<svg id="Capa_2" xmlns="http://www.w3.org/2000/svg" version="1.1" viewBox="0 0 232.2 232.1">
  <!-- Generator: Adobe Illustrator 30.3.0, SVG Export Plug-In . SVG Version: 2.1.3 Build 157)  -->
  <defs>
    <style>
      .st0 {
        fill: #fff;
      }
    </style>
  </defs>
  <path class="st0" d="M219.6,0H12.4l.2,130.5c0,57.9,49.4,103,105.9,101.6,56.4-1.4,101.3-47.9,101.2-105.2l-.2-126.8h.1ZM113,226c-51-1.6-92-42-94.6-93.1V6.1h94.6v219.9ZM196.9,183.5h-77.9c0,.1,0-44.9,0-44.9h94.1c-1.6,16.3-7,30.2-16.2,44.9ZM119.1,93.6v-45.1h94.5v45.1c.1,0-94.5,0-94.5,0Z"/>
  <path class="st0" d="M80.3,157.3c-6.5-.4-10.9,7.6-12.9,12.3.8-7.7,5.2-14.7,5.2-20s-5.7-10.3-6.7-11.1h0q0,0,0,0c-1.1.9-6.7,5.9-6.7,11.1s4.5,12.5,5.2,20.3c-2-4.6-6.4-13-13-12.6-9.1.6-13.6,6-8.8,13,2.1,3.1,8,3.9,8,3.9,0,0-4.1-6.9,2.1-9.2,6.2-2.3,10.8,7.4,8.9,10.9-1.9,3.4-4.6,3.8-6.7-1.2-2.4,4-.9,10.9,4.6,7.5,1.6-.9,2.8-1.9,3.7-2.8-.7,2.4-1.2,4.2.2,7.7,1,.7,1.6,1.5,2,2.2,0,0,.4,1.6.5,2.1,0-1.9.2-2,.2-2,.4-.7,1-1.5,2-2.3,1.4-3.4.9-5.2.3-7.5.9.9,2.1,1.7,3.6,2.6,5.5,3.3,7-3.5,4.6-7.5-2.1,5-4.7,4.6-6.7,1.2-1.9-3.4,2.6-13.2,8.9-10.9,6.2,2.3,2.1,9.2,2.1,9.2,0,0,6-.9,8-3.9,4.8-7.1.3-12.4-8.8-13h.2Z"/>
  <path class="st0" d="M80.3,95.3c-6.5-.4-10.9,7.6-12.9,12.3.8-7.7,5.2-14.7,5.2-20s-5.7-10.3-6.7-11.1h0c-1.1.9-6.7,5.9-6.7,11.1s4.5,12.5,5.2,20.3c-2-4.6-6.4-13-13-12.6-9.1.6-13.6,6-8.8,13,2.1,3.1,8,3.9,8,3.9,0,0-4.1-6.9,2.1-9.2,6.2-2.3,10.8,7.4,8.9,10.9-1.9,3.4-4.6,3.8-6.7-1.2-2.4,4-.9,10.9,4.6,7.5,1.6-.9,2.8-1.9,3.7-2.8-.7,2.4-1.2,4.2.2,7.7,1,.7,1.6,1.5,2,2.2,0,0,.4,1.6.5,2.1,0-1.9.2-2,.2-2,.4-.7,1-1.5,2-2.3,1.4-3.4.9-5.2.3-7.5.9.9,2.1,1.7,3.6,2.6,5.5,3.3,7-3.5,4.6-7.5-2.1,5-4.7,4.6-6.7,1.2-1.9-3.4,2.6-13.2,8.9-10.9,6.2,2.3,2.1,9.2,2.1,9.2,0,0,6-.9,8-3.9,4.8-7.1.3-12.4-8.8-13h.2Z"/>
  <path class="st0" d="M80.3,34.8c-6.5-.4-10.9,7.6-12.9,12.3.8-7.7,5.2-14.7,5.2-20s-5.7-10.3-6.7-11.1h0q0,0,0,0c-1.1.9-6.7,5.9-6.7,11.1s4.5,12.5,5.2,20.3c-2-4.6-6.4-13-13-12.6-9.1.6-13.6,6-8.8,13,2.1,3.1,8,3.9,8,3.9,0,0-4.1-6.9,2.1-9.2,6.2-2.3,10.8,7.4,8.9,10.9-1.9,3.4-4.6,3.8-6.7-1.2-2.4,4-.9,10.9,4.6,7.5,1.6-.9,2.8-1.9,3.7-2.8-.7,2.4-1.2,4.2.2,7.7,1,.7,1.6,1.5,2,2.2,0,0,.4,1.6.5,2.1,0-1.9.2-2,.2-2,.4-.7,1-1.5,2-2.3,1.4-3.4.9-5.2.3-7.5.9.9,2.1,1.7,3.6,2.6,5.5,3.3,7-3.5,4.6-7.5-2.1,5-4.7,4.6-6.7,1.2-1.9-3.4,2.6-13.2,8.9-10.9,6.2,2.3,2.1,9.2,2.1,9.2,0,0,6-.9,8-3.9,4.8-7.1.3-12.4-8.8-13h.2Z"/>
  <path d="M173.7-306.6c-1.6-11-6-19.2-3.8-31,1.7-8.6,9.5-18.1,16.1-7.1,5.6,9.2,2.8,22.4.3,32.4-.7,2.7-1.5,5.6-2.1,8.3,1.5-3,3.1-6,4.7-8.9.4-.3,1.8-2.1,2.2-2.6,3.9-4.5,5.3-6.4,11-8.6,13.1-5,23.3,6.4,16.7,18.7-3,5.7-8,8.1-14.3,9.9l-1-3c-4-11.3-18,7-14.8,13.5,4.2,2.6,14-3.9,16.6.7,2.3,4.2-.4,10.9-5.3,12.5-5.8,1.9-8.3,1.2-13.8-.8,4.2,21.9-18.5,22.2-12.1-.8-3.9,1.7-4.6,2-8.8,3.1-5.4-1.4-11.9-4.4-11.6-11.9.3-6.9,13.4-.2,17-2.6,3.1-4.8-1.4-11.1-4.6-14.1-6.3-6-7.1-2.6-10.1,1.6-3,4.1-12-3.6-13.9-6.5-2.2-3.2-3.5-7.8-2.5-12.1.8-3.3,2.9-6.1,5.9-7.7,3.4-1.8,7.7-1.8,11.3-.6,9,2.8,12.7,10.3,16.7,17.8l.2-.2h0Z"/>
</svg>