<?xml version="1.0" encoding="UTF-8"?>
<svg id="Capa_2" xmlns="http://www.w3.org/2000/svg" version="1.1" viewBox="0 0 232.2 232.1">
  <!-- Generator: Adobe Illustrator 30.1.0, SVG Export Plug-In . SVG Version: 2.1.1 Build 109)  -->
  <defs>
    <style>
      .st0 {
        fill: #cc9a1d;
      }

      .st1, .st2 {
        fill: #fff;
      }

      .st2, .st3 {
        fill-rule: evenodd;
      }

      .st4 {
        fill: #c63614;
      }

      .st5, .st3 {
        fill: #efb812;
      }

      .st6 {
        fill: #1d1d1b;
      }
    </style>
  </defs>
  <circle class="st6" cx="116.6" cy="116.4" r="113.9"/>
  <path class="st6" d="M142.2,111.3h0,0M142.2,111.3c4.3,17.9,2.1,18.7-.8,22.4-2.8,3.7-4.1,7.5-4.1,11.4s2.8,24.8,2.8,24.8c-13,12.8-24,15.3-24,15.3,0,0-11-2.5-24-15.3,0,0,2.8-20.9,2.8-24.8s-1.3-7.7-4.1-11.4c-2.8-3.7-5-4.5-.8-22.4h11.7v8.2h7v-8.2h14.9v8.2h7v-8.2h11.6M120.4,120.7v-4h-8.9v4h-12.4v-4h-4.8c-3.6,15-1.8,15.7.6,18.7,2.4,3.1,3.4,6.3,3.4,9.5s-2.4,20.8-2.4,20.8c1.9,1.8,3.7,3.4,5.4,4.8l.8.7,1,.7c.8.6,1.6,1.2,2.4,1.7l1.1.8,1.4.7c1.6.9,2.9,1.6,4.1,2.1l3.9-20.4,3.4,20.7c1.2-.5,2.7-1.2,4.5-2.2l1.7-.9.8-.6c.8-.5,1.6-1,2.4-1.6l.7-.5,1.2-.9c1.8-1.4,3.7-3,5.6-4.9,0,0-2.4-17.5-2.4-20.8s1.1-6.5,3.4-9.5h0c2.4-3.1,4.2-3.7.6-18.7h-5.5v4h-12M142.2,108.3h-11.7c-1.7,0-3,1.3-3,3v5.2h-1v-5.2c0-1.7-1.3-3-3-3h-14.9c-1.7,0-3,1.3-3,3v5.2h-1v-5.2c0-1.7-1.3-3-3-3h-11.7c-1.4,0-2.6,1-2.9,2.3-3.9,16.4-2.8,19.8.7,24.2.2.2.4.5.6.8,2.3,3,3.5,6.2,3.5,9.6s-1.7,16.1-2.8,24.4c-.1.9.2,1.9.9,2.5,13.5,13.3,25,16,25.5,16.1.2,0,.4,0,.7,0s.4,0,.6,0c.5-.1,12-2.8,25.5-16.1.7-.7,1-1.6.9-2.5-1.1-8.3-2.8-21.7-2.8-24.4s1.2-6.6,3.5-9.6c.2-.3.4-.5.6-.8,3.5-4.4,4.6-7.8.7-24-.2-1.4-1.5-2.5-3-2.5h0Z"/>
  <path class="st3" d="M232.1,110.5c0-1.6-.3-4.2-.4-5.9-.2-1.7-.5-4.1-.7-5.5-.2-1.4-.6-3.7-.9-5.2-.3-1.5-.8-3.8-1.2-5.3-.4-1.5-.9-3.5-1.2-4.5-.3-1-.8-2.8-1.2-3.9-.4-1.1-1.1-3.2-1.6-4.6-.5-1.4-1.4-3.7-2-5.1-.6-1.4-1.5-3.5-2.1-4.6s-1.6-3.2-2.2-4.4c-.7-1.2-1.9-3.4-2.8-4.9-.9-1.4-2.2-3.6-3-4.8-.8-1.2-2-2.9-2.6-3.8-.6-.9-1.6-2.2-2.2-3-.6-.7-1.7-2.1-2.4-3-.8-.9-2-2.3-2.6-3.1-.7-.8-1.9-2-2.6-2.8-.7-.8-1.7-1.8-2.2-2.3-.5-.5-1.5-1.5-2.3-2.2-.8-.7-2.2-2-3.2-2.9-1-.9-2.6-2.2-3.6-3-1-.8-2.8-2.2-4-3.1-1.2-.9-3.4-2.4-4.9-3.4-1.5-1-3.6-2.3-4.7-3-1.1-.6-2.6-1.5-3.3-1.9-.7-.4-2.6-1.4-4.1-2.1s-3.6-1.8-4.8-2.3c-1.1-.5-3.3-1.4-4.9-2-1.5-.6-4-1.5-5.5-2-1.5-.5-4-1.3-5.6-1.7-1.6-.4-4.2-1.1-5.8-1.5-1.6-.4-4.1-.9-5.5-1.1-1.4-.2-3.6-.6-4.9-.7-1.2-.2-3.4-.4-4.7-.5s-4.1-.3-6.2-.4c-2.1,0-4.2-.1-4.9-.1-.6,0-1.7,0-2.4,0s-2.4.1-3.9.2c-1.5,0-3.6.2-4.8.4-1.2.1-3.3.4-4.8.6-1.5.2-4.1.7-6,1-1.8.4-4.7,1-6.4,1.5-1.7.4-4.4,1.2-6,1.7-1.6.5-3.9,1.3-5.2,1.8-1.2.5-3.2,1.2-4.4,1.7-1.2.5-3.2,1.4-4.6,2-1.3.6-3.3,1.6-4.3,2.1-1,.5-2.8,1.5-4,2.2-1.2.7-3.1,1.8-4.1,2.5s-2.7,1.7-3.6,2.4c-.9.6-3,2.1-4.5,3.2s-3.5,2.7-4.4,3.5c-.9.7-2.1,1.8-2.7,2.3-.6.5-2,1.9-3.2,2.9-1.1,1.1-2.9,2.8-4,4-1.1,1.1-2.2,2.4-2.6,2.8-.4.4-.7.8-.7.8,0,0-.8.9-1.6,1.9-.9,1-2.2,2.7-3,3.8-.8,1-1.9,2.5-2.5,3.3-.6.8-1.8,2.6-2.8,4.1-1,1.5-2.5,3.9-3.3,5.3-.8,1.4-2.2,4-3.1,5.7-.9,1.7-2,4.2-2.6,5.4-.5,1.2-1.4,3.3-1.9,4.6-.5,1.3-1.3,3.6-1.8,5-.5,1.5-1.2,3.8-1.6,5.2-.4,1.4-1,3.4-1.2,4.6-.3,1.1-.8,3.4-1.1,5-.3,1.6-.8,4.3-1,6s-.6,4.1-.7,5.4c-.1,1.2-.3,3.4-.4,4.8C0,110.9,0,113.9,0,116.1s0,5.2.2,6.6c0,1.4.2,3.5.4,4.8.1,1.2.4,3.7.7,5.4s.7,4.4,1,6c.3,1.6.8,3.9,1.1,5,.3,1.1.8,3.2,1.2,4.6.4,1.4,1.1,3.7,1.6,5.1.5,1.5,1.3,3.7,1.8,5,.5,1.3,1.4,3.3,1.9,4.6.5,1.2,1.7,3.6,2.6,5.4.9,1.7,2.3,4.3,3.1,5.7.8,1.4,2.3,3.8,3.3,5.3,1,1.5,2.2,3.4,2.8,4.1.5.8,1.7,2.3,2.5,3.3.8,1.1,2.2,2.7,3,3.8s1.8,2.1,2.1,2.5c.3.4,1.1,1.1,1.6,1.8.6.6,1.4,1.5,1.9,2,.5.5,1.9,1.9,3.1,3,1.2,1.1,2.7,2.5,3.3,3.1.6.5,1.8,1.6,2.7,2.3s2.9,2.3,4.4,3.4c1.5,1.2,3.6,2.6,4.5,3.2.9.6,2.5,1.7,3.6,2.3,1.1.7,2.9,1.8,4.1,2.5,1.2.7,3.1,1.7,4.2,2.3,1.1.6,3.3,1.6,4.9,2.4,1.6.7,4,1.8,5.3,2.3,1.3.5,3.2,1.2,4.1,1.6.9.3,2.8,1,4.3,1.4,1.4.4,4,1.2,5.7,1.6s4.4,1.1,6,1.4c1.6.3,4,.8,5.3.9,1.3.2,3.3.5,4.4.6,1.1.1,2.8.3,3.8.4.9,0,3.4.2,5.5.3,2.7.1,5,.1,7.8,0,2.2,0,5.1-.3,6.4-.4,1.3-.1,3.3-.3,4.3-.4,1-.1,3.2-.5,4.8-.7,1.6-.3,4.3-.8,6-1.2,1.7-.4,4.3-1,5.9-1.5,1.6-.4,4.1-1.2,5.6-1.7,1.5-.5,4-1.4,5.4-2,1.5-.6,3.6-1.5,4.7-2,1.1-.5,3.3-1.5,4.9-2.3s3.5-1.8,4.2-2.2c.7-.4,2.2-1.3,3.3-1.9,1.1-.6,3.2-2,4.7-3,1.5-1,3.7-2.5,4.9-3.4,1.2-.9,3-2.3,4-3.1,1-.8,2.6-2.2,3.6-3,1-.9,2.4-2.2,3.2-2.9.8-.8,1.8-1.8,2.3-2.2.4-.4,1.4-1.4,2.1-2.2.7-.8,1.9-2,2.6-2.8.7-.8,1.9-2.2,2.6-3.1.8-.9,1.9-2.3,2.4-3,.6-.7,1.6-2.1,2.2-2.9.6-.9,1.8-2.6,2.6-3.8.8-1.2,2.2-3.4,3-4.8.9-1.4,2.1-3.6,2.8-4.9.7-1.2,1.7-3.2,2.2-4.4.6-1.2,1.4-3.1,1.9-4.3.5-1.2,1.3-3.1,1.7-4.3.4-1.2,1.1-3,1.5-4.1.4-1.1,1-2.9,1.3-4.1.4-1.2.9-3.3,1.3-4.7.4-1.4.9-3.9,1.2-5.4.3-1.6.8-4.2,1-5.8.2-1.6.6-4.3.8-5.9.2-1.7.4-4.3.4-5.9,0-1.6.1-4.1.1-5.6s0-4-.1-5.6h0ZM227.7,124.3c-.1,1.2-.3,3.4-.5,4.8-.2,1.4-.5,3.9-.8,5.5-.3,1.6-.7,4-1,5.4-.3,1.3-.9,3.7-1.3,5.2-.4,1.5-1.2,4.3-1.8,6-.6,1.8-1.5,4.4-2.1,5.7-.6,1.4-1.4,3.4-1.9,4.6-.5,1.1-1.5,3.1-2.1,4.5-.7,1.3-1.7,3.3-2.3,4.4-.6,1.1-1.7,2.9-2.4,4.1-.7,1.2-1.9,2.9-2.5,3.9-.6,1-2,2.9-3.1,4.3-1,1.4-2.5,3.2-3.2,4.1s-2.1,2.5-3,3.5-2.8,3-4.2,4.4c-1.4,1.4-3.3,3.2-4.2,4.1-.9.9-2.6,2.2-3.6,3.1-1.1.9-3,2.4-4.4,3.5-1.4,1-3.7,2.7-5.1,3.6-1.4.9-3.6,2.3-4.9,3.1-1.2.7-3.1,1.8-4.1,2.3-1,.5-2.5,1.3-3.5,1.8-.9.5-2.9,1.4-4.4,2.1-1.5.7-3.9,1.6-5.2,2.2-1.4.5-3.8,1.4-5.4,1.9s-3.9,1.2-5.1,1.6c-1.2.3-3.2.8-4.4,1.1-1.2.3-3.3.7-4.6.9-1.3.2-3.3.6-4.5.7-1.2.2-3.1.4-4.2.5-1.1.1-3.1.3-4.3.4-1.2,0-3.6.2-5.2.2-1.7,0-4.6,0-6.6,0-2,0-4.7-.3-6-.4-1.3-.1-3.8-.4-5.5-.7-1.7-.2-4.3-.7-5.7-1-1.5-.3-4-.9-5.6-1.3-1.6-.4-4.2-1.1-5.7-1.6-1.5-.5-4-1.3-5.4-1.8-1.4-.5-3.8-1.5-5.3-2.1-1.5-.6-4-1.8-5.5-2.5-1.5-.8-3.5-1.8-4.4-2.3-.9-.5-2.5-1.4-3.6-2.1-1.1-.6-3.3-2-4.9-3.1-1.6-1.1-3.9-2.7-5.2-3.6-1.2-.9-3.2-2.5-4.3-3.4-1.1-.9-2.9-2.5-4-3.5-1.1-1-3-2.9-4.2-4.1-1.2-1.2-2.7-2.8-3.4-3.6-.7-.8-2-2.3-2.9-3.4-.9-1.1-2.4-3-3.3-4.2-.9-1.2-2.4-3.3-3.4-4.7-.9-1.4-2.4-3.6-3.2-4.9-.8-1.3-1.9-3.3-2.5-4.4-.6-1.1-1.4-2.6-1.8-3.4-.4-.8-1.2-2.6-1.8-3.9s-1.5-3.5-2.1-4.9-1.3-3.5-1.8-4.9c-.5-1.3-1.1-3.4-1.5-4.6-.4-1.2-.9-3.3-1.2-4.6-.3-1.3-.8-3.1-1-4.1-.2-1-.5-2.8-.8-4.1s-.5-3.2-.7-4.4c-.2-1.2-.4-3.3-.5-4.8-.2-2.1-.3-4.1-.3-9.6s0-7.5.3-9.6c.1-1.5.4-3.6.5-4.8.2-1.2.4-3.2.7-4.4s.6-3.1.8-4.1c.2-1,.6-2.8,1-4.1.3-1.3.9-3.3,1.2-4.6.4-1.2,1-3.3,1.5-4.6.5-1.3,1.3-3.6,1.8-4.9.5-1.4,1.5-3.6,2.1-4.9.6-1.3,1.4-3,1.8-3.8.4-.8,1.2-2.3,1.8-3.4.6-1,1.7-3,2.5-4.3.8-1.3,2.2-3.5,3.2-4.9.9-1.4,2.4-3.5,3.4-4.7.9-1.2,2.4-3.1,3.3-4.2.9-1.1,2.2-2.6,2.9-3.4s2.2-2.4,3.4-3.6c1.2-1.2,3.1-3,4.2-4.1,1.1-1,3-2.6,4-3.5,1.1-.9,3-2.4,4.3-3.4,1.2-1,3.6-2.6,5.2-3.6,1.6-1,3.8-2.4,4.9-3.1,1.1-.7,2.7-1.6,3.6-2.1.9-.5,2.9-1.5,4.4-2.3,1.5-.8,4-1.9,5.5-2.5,1.5-.6,3.9-1.6,5.3-2.1,1.4-.5,3.8-1.3,5.4-1.8s4-1.2,5.4-1.5c1.4-.4,4-.9,5.6-1.3,1.6-.3,4.4-.8,6-1s4.2-.5,5.6-.7c1.4-.1,3.7-.3,5.2-.4,1.4,0,4.4,0,6.6,0,2.2,0,5.3.2,6.8.3s3.6.3,4.7.4,2.9.4,4,.5c1.1.2,3.3.6,4.9.9,1.6.3,3.8.8,4.9,1.1,1.1.3,3,.8,4.3,1.2s3.5,1.1,4.9,1.6c1.5.5,3.7,1.3,5.1,1.9s3.6,1.5,5,2.1c1.4.6,3.7,1.8,5.1,2.5,1.4.7,3.5,1.9,4.7,2.6,1.2.7,2.9,1.8,3.8,2.3.9.6,2.4,1.6,3.5,2.3,1,.7,2.9,2,4.1,3,1.2,1,3.1,2.4,4.2,3.3s2.7,2.3,3.6,3.1c.9.8,2.8,2.7,4.2,4,1.4,1.4,3.3,3.4,4.2,4.4s2.3,2.6,3,3.5c.7.9,2.2,2.7,3.2,4.1,1,1.4,2.4,3.3,3.1,4.3.6,1,1.8,2.7,2.5,3.9.7,1.2,1.8,3.1,2.5,4.2s1.8,3.3,2.6,4.9,1.9,4.1,2.6,5.7c.6,1.5,1.6,3.9,2.1,5.2.5,1.3,1.2,3.6,1.7,5,.4,1.4,1.1,3.9,1.6,5.4.4,1.6.9,3.8,1.2,5,.2,1.2.6,3.4.9,4.8.2,1.4.6,3.7.7,5.2.2,1.4.4,3.6.5,4.8.1,1.3.2,4.6.2,8.2s0,6.8-.2,8.2h0Z"/>
  <path class="st3" d="M55.8,59.1c-.8.9-2.2,2.4-3,3.4-.8,1-2.2,2.7-3.1,3.9-.9,1.2-2.2,3-2.9,4.1-.7,1.1-1.8,2.8-2.5,4-.7,1.1-1.9,3.5-2.8,5.3-.9,1.8-1.9,4.1-2.3,5.1-.4,1-1,2.7-1.4,3.7-.4,1-1,3.1-1.5,4.6-.4,1.5-1,3.7-1.2,4.8-.2,1.1-.6,3-.8,4.2-.2,1.2-.5,3.3-.7,4.7-.2,1.4-.4,4.1-.5,5.9,0,2.3,0,4.4,0,6.8,0,1.9.3,4.6.4,5.9.2,1.3.4,3.3.6,4.3.2,1.1.5,3,.8,4.3.3,1.3.9,3.6,1.3,5.1.4,1.5,1.1,3.6,1.5,4.6s1,2.7,1.4,3.7c.4,1,1.5,3.3,2.3,5.1.9,1.8,2.1,4.2,2.8,5.3.7,1.1,1.8,2.9,2.5,4,.7,1.1,2,2.9,2.9,4.1.9,1.2,2.3,3,3.2,4,.8,1,2.6,2.9,3.8,4.2s3,3,3.9,3.8c.9.8,2.2,1.9,2.8,2.4.6.5,2,1.6,2.9,2.3,1,.7,2.8,2,4.1,2.8,1.2.8,3.2,2.1,4.4,2.7,1.2.7,3.5,1.9,5.2,2.7,1.7.8,4.2,1.9,5.5,2.5,1.3.5,3.2,1.2,4.3,1.6,1,.3,2.8.9,3.9,1.2,1.1.3,3.1.8,4.3,1.1,1.2.3,3.1.6,4.1.8s2,.3,2.2.4c.2,0,.4,0,.4,0,0,0-.9-.7-2-1.4l-2-1.3c-3.4-.8-5.2-1.2-6.2-1.5-1-.3-2.8-.8-3.9-1.2-1.1-.4-2.8-1-3.7-1.3s-2.6-1-3.7-1.5-3.1-1.4-4.3-2.1c-1.2-.6-3-1.6-3.9-2.2s-2.6-1.6-3.7-2.3c-1.1-.7-2.8-1.9-3.7-2.6-.9-.7-2.3-1.8-3.1-2.4-.8-.6-2.3-2-3.4-2.9-1.1-1-2.8-2.7-3.9-3.9-1.1-1.1-2.6-2.8-3.3-3.8s-2-2.5-2.8-3.5c-.8-1-1.8-2.5-2.4-3.4s-1.5-2.3-2-3.2c-.5-.9-1.5-2.6-2.1-3.7-.6-1.1-1.6-3.2-2.3-4.6-.7-1.4-1.6-3.7-2.1-5.1s-1.2-3.4-1.5-4.4c-.3-1-.8-2.8-1.1-4-.3-1.2-.8-3.2-1-4.5-.2-1.2-.5-3-.7-3.9-.1-.9-.3-2.2-.4-3s-.2-2.4-.3-3.6c0-1.2-.2-3.4-.2-4.9s0-3.7.2-5c0-1.3.2-3.2.4-4.3s.3-2.7.5-3.7c.2-1,.5-2.7.7-3.9.2-1.2.7-3.1,1-4.3.3-1.2,1-3.3,1.4-4.6.5-1.3,1.2-3.3,1.6-4.3.4-1.1,1.2-2.8,1.7-3.9.5-1.1,1.4-2.9,2-4,.6-1.1,1.5-2.8,2.1-3.7.5-.9,1.5-2.3,2-3.2.6-.9,1.7-2.4,2.4-3.4.8-1,2-2.6,2.8-3.5.8-.9,1.9-2.2,2.4-2.7l1-1v-3.1c0,0-1.6,1.6-1.6,1.6h0ZM174.8,59v1.5c1.8,1.9,2.8,3.2,3.5,3.9s1.8,2.2,2.6,3.2c.7,1,1.9,2.6,2.5,3.5s1.5,2.3,2,3.2c.5.8,1.4,2.5,2.1,3.7.7,1.2,1.6,3.2,2.2,4.3.5,1.2,1.3,3,1.7,4,.4,1,1.1,2.9,1.5,4.2.4,1.3,1,3.1,1.2,4.1s.6,2.5.9,3.5.6,2.8.8,4c.2,1.2.5,3.3.7,4.7.2,1.4.4,4.1.4,5.9.1,2.5.1,4.2,0,6.7,0,1.9-.3,4.6-.4,6-.2,1.4-.5,3.5-.7,4.7-.2,1.2-.6,3-.8,4-.2,1-.6,2.6-.9,3.5s-.8,2.8-1.2,4.1c-.4,1.3-1.1,3.2-1.5,4.2-.4,1-1.2,2.8-1.7,4-.5,1.2-1.6,3.2-2.2,4.5-.7,1.3-1.7,3.1-2.2,3.9-.5.9-1.4,2.2-1.9,3-.6.8-1.6,2.3-2.3,3.2-.7,1-2,2.6-2.9,3.6-.8,1-3,3.3-4.9,5.2-1.8,1.8-4.1,3.9-5,4.7-.9.8-2.5,2-3.5,2.8-1,.8-2.8,2-4,2.8-1.2.8-3.2,2-4.5,2.8-1.3.7-3.4,1.8-4.6,2.4-1.2.6-3.3,1.5-4.6,2.1-1.3.6-3.7,1.4-5.4,2-1.6.6-4.2,1.3-5.7,1.7-1.5.4-3,.7-3.5.8-.6.1-1.3.5-2.7,1.3-1,.6-2,1.3-2.1,1.4-.2.1-.3.2-.2.3,0,0,1.1-.1,2.4-.3,1.3-.2,3.1-.6,4.1-.8,1-.2,2.8-.7,4.1-1,1.3-.4,3.4-1,4.6-1.4,1.2-.4,3.2-1.1,4.4-1.6,1.2-.5,3.6-1.6,5.3-2.4,1.7-.8,3.9-2,4.9-2.6,1-.6,2.9-1.8,4.2-2.6,1.3-.9,3.1-2.1,4.1-2.9,1-.7,2.5-2,3.5-2.7.9-.8,2.6-2.2,3.7-3.2,1.1-1,2.8-2.7,3.8-3.8,1-1.1,2.5-2.8,3.3-3.7.8-1,2.1-2.6,2.8-3.5.7-1,1.9-2.6,2.5-3.6.7-1,1.7-2.6,2.3-3.6.6-1,1.8-3.1,2.6-4.8.9-1.7,2-4.1,2.5-5.4.5-1.3,1.3-3.3,1.7-4.4.4-1.1,1-3,1.4-4.3.4-1.2.9-3.1,1.1-4.1.2-1,.6-2.7.8-3.8.2-1.1.5-2.9.7-4.1.2-1.2.4-3,.5-4.1.1-1.2.2-4,.2-7.3s0-6.1-.2-7.3c-.1-1.1-.3-2.9-.5-4.1-.2-1.2-.5-3-.7-4.1-.2-1.1-.7-3.2-1-4.6-.4-1.4-.9-3.5-1.3-4.6-.3-1.1-.9-2.9-1.4-4-.4-1.1-1.1-2.9-1.6-4-.5-1.1-1.5-3.3-2.3-4.9s-1.9-3.7-2.5-4.6c-.6-1-1.6-2.6-2.3-3.6-.7-1-1.8-2.6-2.5-3.6-.7-1-2-2.6-2.8-3.5-.8-1-2.3-2.6-3.3-3.7-1-1.1-1.8-1.9-1.9-1.9s0,.7,0,1.5h0Z"/>
  <path class="st5" d="M166.1,56.7v28.9c0,0,0,.2,0,.2,0,29.9-.1,33.8-.1,34.3,0,1.3-.3,3.3-.4,4.3-.1,1.1-.3,2.7-.4,3.5-.1.7-.4,2.6-.8,4.3-.3,1.5-.8,3.8-1.1,5-.3,1.2-.8,3-1.1,4-.4,1.1-.9,2.7-1.2,3.5-.3.9-1,2.5-1.4,3.7-.5,1.2-1.3,3-1.7,3.9-.4.9-1.3,2.8-2,4-.7,1.2-1.6,2.9-2.1,3.7-.5.9-1.6,2.6-2.4,3.7-.8,1.2-2,2.9-2.6,3.8-.7.9-1.8,2.3-2.4,3.1-.6.7-1.8,2.2-2.8,3.3-.9,1-2.7,2.9-4.2,4.3-1.4,1.4-3.6,3.4-4.7,4.3-1.3,1.1-3,2.5-3.9,3.1-.9.7-2.8,2-4.2,2.9-1.3.9-3.3,2.1-4.4,2.8-1.1.6-3.1,1.7-5.9,3.1l-1.5-.7c-1.6-.8-3.8-2-4.9-2.6-1.3-.7-3.1-1.9-4.2-2.6-1.1-.7-3-2-4-2.8-1.1-.8-2.8-2.2-3.7-2.9-.9-.8-2.5-2.2-3.5-3.1-1-1-2.5-2.4-3.2-3.1-.8-.8-2-2.1-2.7-3-.7-.8-2-2.4-2.9-3.5-.9-1.1-2-2.6-2.5-3.2-.5-.7-1.4-2-2.1-3-.7-1-1.7-2.6-2.2-3.5-.6-1-1.6-2.8-2.2-3.9-.6-1.2-1.6-3.1-2.2-4.4-.5-1.2-1.4-3.2-2-4.5-.5-1.3-1.3-3.5-1.7-4.8-.5-1.5-1.1-3.4-1.3-4.4-.3-1-.7-2.9-1-4.1-.3-1.2-.6-3.1-.8-4.2-.2-1.2-.5-3.2-.7-4.5-.2-1.4-.3-3.4-.4-4.5,0-1.2-.1-10.9-.1-34.6v-29.6h99.9M169.1,53.7H63.2v32.6c0,21.2,0,33.4.1,34.8.1,1.2.3,3.3.5,4.6.2,1.3.5,3.4.7,4.6.2,1.2.6,3.2.9,4.4.3,1.2.7,3.1,1,4.2.3,1.1.9,3.1,1.4,4.6.5,1.4,1.3,3.7,1.8,5,.5,1.3,1.4,3.5,2,4.7.6,1.3,1.6,3.3,2.2,4.5.7,1.2,1.7,3,2.3,4s1.6,2.6,2.3,3.6c.7,1,1.6,2.4,2.1,3.1.5.7,1.7,2.3,2.6,3.4.9,1.1,2.3,2.8,3,3.6.8.9,2,2.2,2.8,3.1.8.8,2.3,2.3,3.3,3.2,1,.9,2.6,2.4,3.6,3.2,1,.8,2.7,2.2,3.8,3,1.1.8,3,2.2,4.2,2.9,1.2.8,3.1,2,4.3,2.7,1.2.7,3.5,1.9,5,2.7l2.8,1.4c4.2-2.1,6.3-3.2,7.4-3.9,1.1-.7,3.2-2,4.6-2.9,1.4-.9,3.3-2.2,4.3-3,1-.7,2.8-2.2,4.1-3.2,1.2-1.1,3.5-3.1,4.9-4.5,1.5-1.4,3.4-3.4,4.4-4.5.9-1.1,2.2-2.6,2.9-3.4.7-.8,1.8-2.2,2.4-3.2.7-.9,1.9-2.7,2.7-3.9.8-1.2,1.9-2.9,2.4-3.8.5-.9,1.5-2.6,2.1-3.8.7-1.2,1.6-3.1,2.1-4.1.5-1.1,1.3-2.9,1.8-4.1.5-1.2,1.1-2.9,1.5-3.8.3-.9.9-2.5,1.2-3.6.3-1,.9-2.9,1.2-4.1.3-1.2.8-3.5,1.2-5.2.3-1.6.7-3.6.8-4.5.1-.9.3-2.5.4-3.6.1-1.1.3-3.1.4-4.4,0-1.5.1-14.5.1-34.5h0s0-32.1,0-32.1h0Z"/>
  <g>
    <path class="st1" d="M51.8,182.1c0,.2,0,.3-.2.5-.2.1-.3.2-.5.2s-.3-.1-.5-.3l-1.8-1.9-6.1,5.8c-.1.1-.3.2-.5.2-.2,0-.4,0-.5-.3-.2-.2-.2-.3-.2-.5,0-.2,0-.4.2-.5l6.1-5.8-1.8-1.9c-.1-.2-.2-.3-.2-.5,0-.2,0-.3.2-.5.1-.1.3-.2.5-.2.2,0,.3,0,.5.2l4.7,5c.1.2.2.3.2.5Z"/>
    <path class="st1" d="M58.9,188.4c0,.2,0,.4-.2.5l-3.8,4.4c-.5.6-1.1,1-1.8,1.3-.7.2-1.4.3-2.1.2-.7-.1-1.3-.5-1.9-1-.6-.5-1-1.1-1.2-1.8s-.3-1.4-.1-2.1c.1-.7.5-1.4,1-2l3.8-4.4c.1-.2.3-.2.5-.3.2,0,.4,0,.5.2.1.1.2.3.2.5,0,.2,0,.4-.2.5l-3.8,4.4c-.3.4-.6.8-.6,1.3,0,.5,0,.9,0,1.4.2.4.4.8.8,1.1.4.3.8.5,1.2.6.5,0,.9,0,1.4,0,.5-.2.9-.4,1.2-.8l3.8-4.4c.1-.2.3-.2.5-.3.2,0,.3,0,.5.2.2.1.2.3.2.5Z"/>
    <path class="st1" d="M59.5,201.2c-.2,0-.4,0-.6-.1-.2-.1-.3-.3-.3-.5,0-.2,0-.4.1-.5l5.1-7.5c.1-.2.3-.3.5-.3s.4,0,.6.1c.2.1.3.3.3.5s0,.4-.1.5l-5.1,7.5c-.1.2-.3.3-.5.3Z"/>
    <path class="st1" d="M74.3,198.3c0,.2,0,.3,0,.5l-4.5,7.9c-.1.2-.2.3-.4.4s-.4,0-.6,0c0,0-.2-.1-.3-.2,0,0-.1-.2-.1-.3l-1.3-9.6-3.6,6.3c0,.2-.2.3-.4.3-.2,0-.3,0-.5,0s-.3-.2-.3-.4c0-.2,0-.3,0-.5l4.5-7.9c.1-.2.2-.3.4-.3.2,0,.4,0,.5,0,.1,0,.2.1.3.2,0,0,.1.2.1.3l1.3,9.6,3.6-6.3c0-.2.2-.3.4-.3.2,0,.3,0,.5,0s.3.2.3.4Z"/>
    <path class="st1" d="M82.8,211.8c0,.2,0,.4,0,.5,0,.2-.2.3-.4.4-.2,0-.4,0-.6,0l-4.9-1.9c-.2,0-.3-.2-.4-.4,0-.2,0-.4,0-.6l3.3-8.5c0-.2.2-.3.4-.4.2,0,.4,0,.6,0l4.9,1.9c.2,0,.3.2.4.4,0,.2,0,.4,0,.5,0,.2-.2.3-.4.4-.2,0-.4,0-.5,0l-4.2-1.6-1.1,2.9,3.5,1.4c.2,0,.3.2.4.4,0,.2,0,.3,0,.5,0,.2-.2.3-.4.4-.2,0-.4,0-.5,0l-3.5-1.4-1.2,3.1,4.2,1.6c.2,0,.3.2.4.4Z"/>
    <path class="st1" d="M92.9,215.3c0,.2-.2.3-.3.4s-.3.1-.5,0c-.1,0-.2-.1-.3-.2s-.1-.2-.2-.4l-.3-2.4-4.5-1.3-1.5,1.9c0,.1-.2.2-.3.3-.1,0-.3,0-.4,0-.2,0-.3-.2-.4-.3,0-.1,0-.3,0-.5,0,0,0-.1,0-.2l6.2-7.9c.1-.1.2-.2.4-.3.1,0,.3,0,.4,0,.1,0,.3.1.4.2,0,.1.1.2.2.4l1.2,9.8c0,0,0,.2,0,.3ZM87.7,210.4l3.4.9-.6-4.5-2.8,3.6Z"/>
    <path class="st1" d="M105.8,216.9c.1.2.2.3.1.5,0,.2-.1.4-.3.5-.2.1-.3.1-.5.1l-5.2-.7c-.2,0-.4-.1-.5-.3-.1-.2-.2-.3-.1-.5l1.2-9c0-.2.1-.4.3-.5.2-.1.3-.2.5-.1l5.2.7c.2,0,.4.1.5.3.1.1.2.3.1.5,0,.2-.1.3-.3.5-.2.1-.3.1-.5.1l-4.4-.6-.4,3,3.7.5c.2,0,.4.1.5.3.1.1.2.3.1.5,0,.2-.1.4-.3.5-.1,0-.3.1-.5.1l-3.7-.5-.4,3.3,4.4.6c.2,0,.4.1.5.3Z"/>
    <path class="st1" d="M115.9,208.2c.1.1.2.3.2.5,0,.2,0,.4-.2.5-.1.1-.3.2-.5.2h-2.7c0,0-.2,8.3-.2,8.3,0,.2,0,.4-.2.5-.1.1-.3.2-.6.2-.2,0-.4,0-.5-.2-.1-.1-.2-.3-.2-.5l.3-8.4h-2.7c-.2,0-.4-.2-.5-.3s-.2-.3-.2-.5c0-.2,0-.4.2-.5.1-.1.3-.2.5-.2l6.9.2c.2,0,.4,0,.5.2Z"/>
    <path class="st1" d="M128.9,216.6c.1.1.2.3.2.5,0,.2,0,.4-.2.5-.1.1-.3.2-.5.2l-5.2.5c-.2,0-.4,0-.5-.2-.2-.1-.2-.3-.3-.5l-.8-9c0-.2,0-.4.2-.5.1-.2.3-.2.5-.3l5.2-.5c.2,0,.4,0,.5.1s.2.3.2.5c0,.2,0,.4-.2.5-.1.1-.3.2-.5.2l-4.4.4.3,3,3.8-.3c.2,0,.4,0,.5.1.1.1.2.3.2.5,0,.2,0,.4-.2.5-.1.1-.3.2-.5.2l-3.8.3.3,3.3,4.4-.4c.2,0,.4,0,.5.2Z"/>
    <path class="st1" d="M138.8,210.6c.2.1.3.3.3.5l.6,3.3c0,.3,0,.5-.2.7-.4.4-.8.7-1.4,1-.5.3-1,.5-1.6.6-1,.2-1.9.1-2.8-.2-.9-.3-1.7-.8-2.3-1.5-.6-.7-1-1.6-1.2-2.5-.2-1-.1-1.9.2-2.8s.8-1.7,1.6-2.3c.7-.6,1.6-1,2.6-1.2.5,0,1-.1,1.5-.1s.9.1,1.3.2c.1,0,.2.1.3.2s.1.2.2.3c0,.2,0,.4-.1.5-.1.2-.3.3-.4.3-.1,0-.3,0-.4,0-.7-.2-1.4-.2-2,0-.7.1-1.3.4-1.8.9s-.9,1-1.1,1.7c-.2.7-.3,1.4-.1,2.1.1.7.4,1.3.9,1.9.5.5,1,.9,1.7,1.1.7.2,1.3.3,2,.1.3,0,.7-.2,1-.3.4-.2.6-.3.9-.5l-.5-2.3-1.8.3c-.2,0-.4,0-.5-.1-.2-.1-.3-.3-.3-.5,0-.2,0-.4.1-.5.1-.2.3-.3.5-.3l2.6-.5c.2,0,.4,0,.5.1Z"/>
    <path class="st1" d="M150.4,210.1c-.2.9-.5,1.7-1.1,2.4-.6.7-1.3,1.2-2.3,1.5-.9.3-1.8.3-2.7.1-.9-.2-1.6-.7-2.3-1.3-.7-.7-1.1-1.5-1.4-2.4-.3-1-.4-1.9-.2-2.8s.5-1.7,1.1-2.4c.6-.7,1.3-1.2,2.3-1.5s1.8-.3,2.7-.1c.9.2,1.6.7,2.3,1.3.7.7,1.1,1.5,1.4,2.4.3,1,.4,1.9.2,2.8ZM147.7,205.9c-.5-.5-1-.8-1.6-1-.6-.2-1.2-.1-1.9,0-.6.2-1.2.5-1.6,1-.4.5-.7,1.1-.8,1.7-.1.7,0,1.4.2,2.1.2.7.6,1.3,1,1.8.5.5,1,.8,1.6,1,.6.2,1.2.2,1.9,0,.6-.2,1.2-.6,1.6-1,.4-.5.7-1.1.8-1.7.1-.7,0-1.4-.2-2.1-.2-.7-.6-1.3-1-1.8Z"/>
    <path class="st1" d="M158.9,198c.5,0,1,.2,1.5.6s.8.8,1.1,1.3c.3.5.4,1.1.4,1.6,0,.6-.2,1.1-.4,1.5-.3.5-.7.8-1.1,1l-2.5,1.2,1.5,3c0,.2.1.4,0,.5,0,.2-.2.3-.4.4-.2,0-.4.1-.5,0-.2,0-.3-.2-.4-.4l-4-8.1c0-.2,0-.4,0-.5,0-.2.2-.3.4-.4l3.1-1.5c.5-.2,1-.3,1.5-.3ZM160.2,202.3c.1-.3.2-.5.2-.9,0-.3,0-.6-.2-.9-.2-.5-.5-.8-1-1s-.8-.2-1.2,0l-2.5,1.2,1.6,3.3,2.5-1.2c.2-.1.4-.3.6-.6Z"/>
    <path class="st1" d="M173.4,200c.1,0,.2.1.2.2.1.2.1.3,0,.5,0,.2-.2.3-.3.4s-.3.2-.5.2c-.3,0-.7,0-1.1-.3-.4-.2-.7-.6-1.1-1.3-.3-.4-.6-.7-1-.7-.4,0-.8,0-1.2.3l-2.6,1.6,1.8,2.9c.1.2.2.4.1.5,0,.2-.1.3-.3.4-.2.1-.4.2-.6.1-.2,0-.4-.1-.5-.3l-4.8-7.7c-.1-.2-.1-.4,0-.5,0-.2.2-.3.3-.4l3.6-2.2c.5-.3.9-.4,1.5-.4.5,0,1,.1,1.5.4.5.3.9.6,1.2,1.1.3.5.4,1,.4,1.6,0,.6-.1,1.1-.4,1.5.4,0,.8,0,1.2.2s.7.4.9.8c.3.5.6.8.7.9.2.1.3.2.5.2.1,0,.2,0,.3,0ZM168.7,197.4c0-.3.1-.6,0-.9,0-.3-.2-.7-.4-1-.3-.4-.6-.7-1-.8-.4-.1-.8,0-1.2.1l-2.9,1.8,2,3.2,2.9-1.8c.2-.1.3-.4.4-.6Z"/>
    <path class="st1" d="M181.4,191.9c.2.9,0,1.8-.2,2.6s-.8,1.6-1.6,2.2-1.6,1-2.5,1.1c-.9.1-1.8,0-2.6-.4s-1.6-1-2.2-1.8c-.6-.8-1-1.6-1.2-2.6s0-1.8.2-2.6c.3-.9.8-1.6,1.6-2.2.8-.6,1.6-1,2.5-1.1.9-.1,1.8,0,2.6.4.8.4,1.6,1,2.2,1.8s1,1.6,1.2,2.6ZM177.4,188.9c-.6-.3-1.2-.4-1.9-.3-.6,0-1.2.3-1.8.7-.5.4-.9.9-1.1,1.5-.2.6-.2,1.2-.1,1.9.1.7.4,1.3.9,1.9.5.6,1,1,1.6,1.3s1.2.4,1.9.3c.6,0,1.2-.3,1.8-.7.5-.4.9-.9,1.1-1.5.2-.6.2-1.2.1-1.9s-.4-1.3-.9-1.9-1-1-1.6-1.3Z"/>
    <path class="st1" d="M192.1,183.1c.2,0,.4,0,.5.2.1.1.2.3.2.5,0,.2,0,.4-.2.5l-3.6,3.8c-.1.1-.3.2-.5.2-.2,0-.4,0-.5-.2l-6.6-6.2c-.1-.1-.2-.3-.2-.5,0-.2,0-.4.2-.5l3.6-3.8c.1-.2.3-.2.5-.2.2,0,.4,0,.5.2.1.1.2.3.2.5,0,.2,0,.4-.2.5l-3.1,3.2,2.2,2.1,2.6-2.7c.1-.2.3-.2.5-.2.2,0,.4,0,.5.2.2.1.2.3.2.5,0,.2,0,.3-.2.5l-2.6,2.7,2.4,2.3,3.1-3.2c.1-.2.3-.2.5-.2Z"/>
    <path class="st1" d="M199.3,175c.2.1.2.3.3.5,0,.2,0,.4-.1.5,0,.1-.2.2-.3.2-.1,0-.3,0-.4,0l-2.3-.6-2.8,3.7,1.2,2.1c0,.1.1.3.1.4,0,.1,0,.3-.1.4-.1.2-.3.3-.4.3-.2,0-.3,0-.5-.1,0,0,0,0-.2-.2l-5-8.7c0-.2-.1-.3-.1-.5,0-.2,0-.3.2-.4,0-.1.2-.2.3-.2.1,0,.3,0,.4,0l9.6,2.6c0,0,.2,0,.3.1ZM192.7,177.9l2.1-2.8-4.4-1.2,2.2,4Z"/>
  </g>
  <path class="st4" d="M115.7,67.7c-28.8-10.5-45.4,1.6-45.4,1.6v20.3s16.6-12.1,45.4-1.6c28.8,10.5,46.7-1.3,46.7-1.3v-20.3s-17.9,11.9-46.7,1.3Z"/>
  <path class="st4" d="M105.7,111.9c-.3,0-.6-.1-1-.2v4.8h1v-4.6Z"/>
  <path class="st4" d="M87.1,110.9c-10.8,1.3-16.7,5.6-16.7,5.6v7.9c0,.2,0,.3,0,.5.2,1.2.4,3.2.6,4.3.2,1.1.6,3,.8,4.1.1.6.3,1.5.5,2.3,2.4-1.3,6.9-3.2,13.3-4.2-1.6-3.5-1.4-8.5,1.4-20.5Z"/>
  <path class="st2" d="M116.3,137.9h-.1c-1.3,0-3.2.8-3.2,2.8v7h6.6v-7c0-2.1-2-2.8-3.2-2.8h0Z"/>
  <path class="st0" d="M115.7,91.7c-28.8-10.5-45.4,1.6-45.4,1.6v20.3s11-8.1,30.7-5.3h.7c.5,0,.9.1,1.3.3,1.1.2,2.3.4,3.5.7.5-.6,1.3-1,2.2-1h14.9c1.7,0,3,1.3,3,3v3.8c.3,0,.6.1,1,.2v-4c0-1.7,1.3-3,3-3h11.7c1.5,0,2.7,1.1,3,2.5.4,1.9.8,3.6,1.1,5.1,10.3-1.4,16.1-5.2,16.1-5.2v-20.3s-17.9,11.9-46.7,1.3Z"/>
  <g>
    <path class="st1" d="M51.6,46.2h-3.4v-13.9h3.9l3.7,7.5,3.7-7.5h4v13.9h-3.4v-8l-4.2,8.5-4.3-8.5v8Z"/>
    <path class="st1" d="M80.2,39.2c0,4-3.3,7.2-7.3,7.2s-7.5-3.2-7.5-7.2.8-3.9,2.3-5.3c1.3-1.3,3.2-1.9,5.2-1.9,4.1,0,7.2,3.1,7.2,7.3ZM68.9,39.2c0,2.3,1.7,4.1,3.9,4.1s3.9-1.8,3.9-4-1.7-4.2-3.9-4.2-4,1.8-4,4.1Z"/>
    <path class="st1" d="M85.6,46.2h-3.4v-13.9h3.4l5.1,7.8v-7.8h3.4v13.9h-3.4l-5.1-7.9v7.9Z"/>
    <path class="st1" d="M102,46.2h-3.4v-11.2h-3.2v-2.7h9.8v2.7h-3.2v11.2Z"/>
    <path class="st1" d="M109.7,37.8h4.6v2.7h-4.6v2.9h4.6v2.7h-8v-13.9h8v2.7h-4.6v2.8Z"/>
    <path class="st1" d="M119.9,46.2h-3.4v-13.9h3.9l3.7,7.5,3.7-7.5h4v13.9h-3.4v-8l-4.2,8.5-4.3-8.5v8Z"/>
    <path class="st1" d="M137.3,44.2l-.6,2h-3.6l4.6-13.9h4.3l4.6,13.9h-3.7l-.6-2h-4.9ZM139.8,36.2l-1.6,5.2h3.3l-1.6-5.2Z"/>
    <path class="st1" d="M153.3,46.2h-3.4v-6.1l-4.6-7.8h4l2.3,4.3,2.2-4.3h4l-4.5,7.8v6.1Z"/>
    <path class="st1" d="M172.2,39.2c0,4-3.3,7.2-7.3,7.2s-7.5-3.2-7.5-7.2.8-3.9,2.3-5.3c1.3-1.3,3.2-1.9,5.2-1.9,4.1,0,7.2,3.1,7.2,7.3ZM160.9,39.2c0,2.3,1.7,4.1,3.9,4.1s3.9-1.8,3.9-4-1.7-4.2-3.9-4.2-4,1.8-4,4.1Z"/>
    <path class="st1" d="M177.6,46.2h-3.4v-13.9h4.5c1.8,0,3.2.3,4.1,1,1,.8,1.5,2,1.5,3.5s-.9,3.5-2.7,4.2l3.1,5.1h-4l-3-5.4v5.4ZM178.7,38.9c1.4,0,2.2-.7,2.2-1.9s-.8-1.9-2-1.9h-1.3v3.9h1.1Z"/>
  </g>
  <path class="st2" d="M142.2,111.3h-11.7v8.2h-7v-8.2h-14.9v8.2h-7v-8.2h-11.7c-4.3,17.9-2.1,18.7.8,22.4,2.8,3.7,4.1,7.5,4.1,11.4s-2.8,24.8-2.8,24.8c13,12.8,24,15.3,24,15.3,0,0,11-2.4,24-15.3,0,0-2.8-20.9-2.8-24.8s1.3-7.7,4.1-11.4,5-4.4.8-22.4h0ZM137.3,135.5c-2.4,3.1-3.4,6.3-3.4,9.5s2.4,20.8,2.4,20.8c-1.9,1.9-3.8,3.5-5.6,4.9l-1.2.9-.7.5c-.8.6-1.6,1.1-2.4,1.6l-.8.6-1.7.9c-1.7,1-3.2,1.7-4.5,2.2l-3.4-20.7-3.9,20.4c-1.2-.5-2.6-1.2-4.1-2.1l-1.4-.7-1.1-.8c-.8-.5-1.6-1.1-2.4-1.7l-1-.7-.8-.7c-1.7-1.4-3.5-2.9-5.4-4.8,0,0,2.4-17.5,2.4-20.8s-1.1-6.5-3.4-9.5c-2.4-3.1-4.2-3.7-.6-18.7h4.8v4h12.4v-4h8.9v4h12v-4h5.5c3.6,15,1.8,15.7-.6,18.7h0Z"/>
  <path class="st4" d="M146.8,118.7c1.7,9.7.5,12.6-2.4,16.1-.2.2-.4.5-.6.8-1,1.3-1.7,2.6-2.3,3.9,8.8-.4,15.2-2.7,18.4-4.3.3-1.1.6-2.6.8-3.7.3-1.6.7-3.5.7-4.1.1-.8.3-2.3.4-3.4.1-1,.3-2.9.3-4.1,0-.3,0-1.5,0-6.3-.7.5-6.2,3.8-15.5,5.1Z"/>
  <path class="st0" d="M91.9,145.1c0-3.4-1.2-6.6-3.5-9.6-.2-.2-.4-.5-.6-.7-6.8.7-11.7,2.6-14.6,4,.3.8.5,1.8.8,2.6.4,1.3,1.2,3.4,1.7,4.6.5,1.3,1.4,3.3,1.9,4.3.5,1.2,1.5,3.1,2.1,4.2.3.6.7,1.2,1.1,1.9,2.8-.7,6.3-1.3,10.2-1.5.5-4.6,1-8.5,1-9.8Z"/>
  <path class="st0" d="M140.4,143.2c0,.6-.1,1.3-.1,1.9,0,2.1,1,10.7,2,18.3,1.8-.1,3.5-.3,5.1-.5.3-.5.6-.9.9-1.3.7-1.1,1.8-2.7,2.2-3.5.5-.8,1.4-2.4,2-3.6.6-1.2,1.5-2.9,1.9-3.8.4-.9,1.2-2.6,1.6-3.7.5-1.1,1.1-2.7,1.4-3.6.3-.8.8-2.3,1.1-3.4,0-.2.1-.4.2-.6-3.6,1.6-9.9,3.6-18.3,3.8Z"/>
  <path class="st3" d="M115.4,13.2c-.3,1.4-.6,2.7-.7,2.8,0,.1-1.2.4-2.5.7-1.3.3-2.5.6-2.7.6-.2,0-.3.1-.3.2s1.2.4,2.6.7c1.4.3,2.7.6,2.8.7s.4,1.3.7,2.8c.3,1.5.6,2.6.7,2.6,0,0,.4-1.2.7-2.7.3-1.4.6-2.7.7-2.7,0,0,1.3-.3,2.8-.7,1.5-.3,2.7-.6,2.7-.7s-.1-.1-.3-.2c-.2,0-1.4-.3-2.8-.6l-2.5-.6c-.8-3.9-1.1-5.1-1.2-5.3,0-.1-.1-.3-.2-.3s-.4,1.2-.7,2.6h0Z"/>
</svg>