<?xml version="1.0" encoding="UTF-8"?>
<svg id="Capa_1" xmlns="http://www.w3.org/2000/svg" version="1.1" xmlns:xlink="http://www.w3.org/1999/xlink" viewBox="0 0 232.2 232.1">
  <!-- Generator: Adobe Illustrator 30.3.0, SVG Export Plug-In . SVG Version: 2.1.1 Build 22)  -->
  <defs>
    <style>
      .st0 {
        fill: url(#Degradado_sin_nombre_28);
      }

      .st1 {
        fill: #072945;
      }

      .st2 {
        fill: #fff;
      }

      .st3 {
        fill: #a89259;
      }

      .st4 {
        fill: #002147;
      }

      .st5 {
        fill: #555959;
      }

      .st6 {
        fill: #0c263a;
      }

      .st7 {
        fill: #15252d;
      }

      .st8 {
        fill: url(#Degradado_sin_nombre_13);
      }

      .st9 {
        fill: #1c4f77;
      }

      .st10, .st11 {
        fill: #b08d55;
      }

      .st12 {
        fill: url(#Degradado_sin_nombre_15);
      }

      .st11 {
        fill-rule: evenodd;
      }
    </style>
    <linearGradient id="Degradado_sin_nombre_28" data-name="Degradado sin nombre 28" x1="-212.2" y1="-266.1" x2="153.6" y2="-45.9" gradientTransform="translate(-139.5 22.5) scale(.5 -.5)" gradientUnits="userSpaceOnUse">
      <stop offset="0" stop-color="#ae843c"/>
      <stop offset="1" stop-color="#d6b365"/>
    </linearGradient>
    <linearGradient id="Degradado_sin_nombre_13" data-name="Degradado sin nombre 13" x1="1045" y1="-69.1" x2="1042.9" y2="-70.6" gradientTransform="translate(-139.5 22.5) scale(.5 -.5)" gradientUnits="userSpaceOnUse">
      <stop offset="0" stop-color="#092738"/>
      <stop offset="1" stop-color="#012d54"/>
    </linearGradient>
    <linearGradient id="Degradado_sin_nombre_15" data-name="Degradado sin nombre 15" x1="1169.9" y1="-139.1" x2="1169" y2="-138" gradientTransform="translate(-139.5 22.5) scale(.5 -.5)" gradientUnits="userSpaceOnUse">
      <stop offset="0" stop-color="#202423"/>
      <stop offset="1" stop-color="#0d2b41"/>
    </linearGradient>
  </defs>
  <path class="st1" d="M499.9,95.3c-.4,0-.9,0-1.3,0,1-1.1,2.1-2,3.3-2.8,8.1,0,11.2-3.6,12.7-11.4-2.9,0-5.9.4-8.4,2-3.4,2.3-4,4.9-4.8,8.6-2.1,1.5-4.2,3.1-6.2,4.6-1.3,1-2.9,2.3-4.2,3.1-8.3,5.1-16.7,2.6-25.4.7.9-.6,2-1.3,2.9-1.9,3.8,2.4,6.3,1.6,9.4-1.3-3.9-2.9-6.4-2.7-9.8.7.5-1.1.9-2.1,1.4-3.3,5.3-1.8,5.4-6.1,5.4-10.8-3.9,1.2-7.5,3.3-8,7.8,0,.8-.2,2.5.2,3.2.4.1,1,0,1.5-.1-.6,1.5-1.6,3.4-2.9,4.2-2,1.3-3.4,1.1-5.6.7l1.3-.6c1.2-.5,4.2-2.3,4.7-3.5v-.2c-.9-.4-2.6.8-3.3,1.3-4.3,3.2-8.3,2.2-13,3.5-4.7,1.2-9.2,4-12,8.1-.8,1.1-1.2,2-1.8,3.1.6-2.5,1.3-5,2.5-7.2,5.5-10.4,16.8-16.7,27.9-19.3,6-1.4,9.5-3.6,13.8-7.9,0,0,.1,0,.2,0,.6.2,1.3.4,1.6,1,0,0,0,.4,0,.4-.5.4-1.8,1.1-2,1.6-.6,1.1-.6,2.5-1,3.6-.4.9-1.1,2-1.6,2.9-.9,1.5-1.2,3.3-.7,5,.4,1.4,1.3,2.6,2.6,3.3,1.5.8,2.2.7,3.9.3,5.2,1.4,8.3-3.8,6.1-8.3-.5-1-1.4-2-1.8-3-.9-2.4-.6-4.7-3.7-5.2-.3-.7-.6-1.2-1-1.9,2.5.5,3.4.5,5.5,1.9,4.1,2.8,8.4.7,11.5-2.5-2.6-2.3-6.9-3.7-10.1-2-1.3.7-2.1,1.5-3,2.6-.5-.4-1-.6-1.6-.8.2-.4,1.8-1.3,2.1-1.8,1.2-1.5.9-3.4.7-5.2-2.2,1.6-3.2,2.9-3.1,5.7-.5.5-.8.7-1.4,1-.9,0-1.4,0-2.3,0,2.1-3.4,2.3-7.2,6-9.1,1.1-.6,1.8-.5,2.7-.9.2-.3.2-.1,0-.5-1.5-.9-4.4.9-5.6,1.9-.2-.4-.2-1.3-.2-1.8.5-.2,1.3-.9,1.7-1.3,4.6-4.1,3.3-9.8.9-14.6-3.9,3.2-6.7,6.5-5.4,11.9.2.8,1,2.3,1,3,.1,2.9-1.2,6.2-2.9,8.5,0-.6,0-1.5.3-2,2.4-5.5.5-9.1-4.5-12.2-1,2-1.6,5.3-1,7.5.7,2.6,2.2,3.9,4.5,5.2-.7,3.2-3.2,3.4-6,4,1.2-3.3,1.1-6.9-.6-10-1.4-2.7-1.9-3.3-1.7-6.4.3-.2.4-.3.7-.5,1.9-.4,4-.7,5.6-1.9,3.2-2.5,4-6,4.5-9.7-5.2.4-10.5,1.8-11.5,7.7-.2,1.1-.1,2.2-.2,3.4,0,.9-.2,1.8-.3,2.8-2-3-2.7-5.3-2-8.9,5.9-2.4,6-7.1,5-12.6-5.5,2.7-8,6-5.8,12.2-.4,1.8-.4,2.5-.4,4.4-1.3-2.2-1.4-2.1-1.4-4.8,0-5.6-4.6-8.7-9.7-9.3-.1,6.3,2.1,10.8,8.6,12,.8,1.3,1.8,2.8,2.5,4.2-.7,0-1.5,0-2.2,0-2.1-4-4.5-4.2-8.4-2.9,1.6,3.2,3.8,4.7,7.5,4v.2c-.9,1.7-2.5.9-3.1,2.3-1.1,2.5-1.1,4.4-2.9,6.7-1.9,2.4-.7,6.8,2,8.1,1.3,1.2,2.8,0,3.7.3,2.4.5,4.8.2,6.2-2.7.4-.8.6-1.7.6-2.6,0-2.8-1.4-3.4-2.4-5.6-.4-.9-.5-2.3-.9-3.3-.5-1.3-1.2-1.6-2.3-2.1,1.9-2.8,3.6.2,4.5,1.6,6.1,9.1,1.7,16.4-7.7,20.2-3.5,1.4-9.1,3.6-12.3,5.5.9-3.5.2-6,1.1-9.3.4-1.3,1.6-3.3,3-3.7.7-.2,1.6-.2,2.3-.6.3-.2.3-.2.3-.5-.6-1-3.6.3-4.4.8l.6-2c5.2-4.1,5.5-7.1,3.3-13.3-3.3,2.1-6.3,5-5.6,9.3.2,1.4.8,2.5,1.2,3.8-.7,3.3-2.3,4.1-3.2,6.8-1.1,3.1-1.1,5.9-2.7,9.1-1.9,3.7-4.5,5.4-7.4,8.3-2.1,2.1-4,4.2-5.5,6.7-1.1-4.3-4.4-7.8-6.9-11.3-2.2-3.1-3-7.4-2.4-11.1.2-1.4.7-3.5,1-5,5.9-3.4,6.2-7.4,4.3-13.5-2.2,1-5,3.4-5.9,5.7-1.2,3-.6,5,.5,7.8-.2,1-.5,2-.7,3-.6-3-1.2-3.9-2.7-6.5,2.5-5.9,1-9.6-4.6-12.8-4.1,12.7,3.7,9.4,5.5,17.3.6,2.7-.3,5.1-.6,7.8-.1,1.2,0,2.3,0,3.5-5.6-3.5-12.1-5.5-17.3-9.6-2.3-1.9-3.9-4.7-4.2-7.7-.3-3.8,2.2-7.8,4.3-10.9.3-.4.9-.6,1.3-.6.5,0,.8.2,1.1.6.6.6-1.4.8-2,1.8-.7,1.3-.6,2.7-1.2,4-.6,1.3-1.7,2.5-2.2,3.8-1.3,3.9,1.9,8.4,6.1,7.2.3,0,1.4.2,1.8.2,4.2,0,6.3-4.7,4.7-8.2-.5-1.1-1.6-2.2-1.9-3.2-.9-2.6-.5-4.6-3.7-5.4-.2-.5-.4-1-.6-1.4,4.2,1.1,6.2,0,8.2-3.7-4-1.3-6.5-.9-8.6,3-.6,0-1.4,0-2-.1.5-1,1.7-3,2.3-4.1,6.9-1.5,8.6-5.3,8.8-12-6.5.8-10.3,4.7-9.6,11.3-.4.9-1,1.9-1.4,2.7,0-1.6,0-2.5-.5-4.1,2.4-6.1-.5-9.8-5.9-12.4-1.5,5.7-.6,10,4.9,12.6,0,.2.1.5.1.7.6,3.2-.3,5.6-2.1,8.1,0-.7-.2-1.5-.2-2.3,0-3.1-.2-5.8-2.4-8.2-2.3-2.5-6.2-3.3-9.5-3.4.6,4.1,1.9,8.6,6,10.5,1.4.6,2.6.9,4.1,1.2.4,0,.3,0,.6-.2,1.6,6-5.3,7.8-2.2,17.1-2.7-.8-5.2-1-6-4.1,1.3-.8,2.3-1.4,3.3-2.7,2.2-2.8,1.6-6.9.2-10-2.4,1.5-4.7,3.4-5.4,6.3-.7,3.1.8,4.9,1.3,8-1.8-2.3-3-5.6-3-8.5,0-.6.8-2.3,1-3,1.1-5-1.2-9.1-5.4-11.9-2.8,6.2-3.7,11.7,2.7,15.9l.2.3c0,.6,0,1.3-.1,1.7-1.4-1.3-4-3-5.9-2.2v.2c.2.4,2.4,1,3.1,1.3,2.9,1.7,3.6,4.8,4.8,7.7.5,1.1,1.2,2.2,2,3.2-2.5-.6-4.1-1-6.7-1-4.2-4.5-8.3-4.3-13-.6,1.9,2,4.2,3.7,7,3.8,2.6.1,4-1.1,6.1-2.3,1.2.1,2.3.3,3.5.5-.4.3-1.6,1.2-2,1.3-.7-.4-.6-.3-1.6,0-.8.2-2.9,1.4-3.3,2.1.8.4,3.6-.9,4.5-1.2l-.6,1.5c-3.3.7-2.9,2.7-3.8,5.4-.3,1-1.3,2.1-1.8,3-1.9,3.2,0,8,3.8,8.5.7,0,1.6-.2,2.3-.2,1.2,0,1.8.5,3,0,3.2-1.1,4.5-4.5,3.3-7.6-.5-1.3-1.5-2.3-2-3.6-.6-1.4-.6-3.2-1.6-4.4-.6-.7-1.1-.9-1.9-1.2,2.2-3.2,4.9-3.5,8-1.1,2.5,1.9,4.9,3.8,7.8,5,3.4,1.7,7.2,2,10.5,3.2,9.1,3.5,14.7,11.1,16.1,20.5,0,.5.1,1,.2,1.5-2.6-2.6-4.7-4.6-8.2-6-1.9-.7-4-1.4-5.6-2.5-.9-.6-1.6-1.8-2.3-2.5-.4.1-.3,0-.5.4,0,3.2,5.2,5,7.5,5.9,3.8,1.5,7.1,4.2,9.1,7.8l-.3,1.8c-.6-1.3-1.1-2.2-1.9-3.3.5,1.6,1.2,3.2,1.3,4.9,0,.4.1.8,0,1.2-.2-.2-.2-.2-.2-.5-1.5-4.8-2.9-7.9-7.3-10.6,2,2,3.2,3.7,4.6,6.2-3.2-3.6-5.2-5.1-9.7-6.8-2.6-.9-5.3-1.4-8.1-1.5-6.8-.2-15,2-21.6-1.4,4.7,1.2,8.2,1.6,13,1.1,3.2-.3,9-1.4,12.1-.7,1.7.4,6.8,2.7,8.5,3.5-1.8-1.5-2.7-1.7-4.7-2.9-1.7-.9-2.8-2.5-4-4l.2-.6c.9-1.5.8-4.3.2-5.9-1.1-3-3.8-5.1-6.6-6.4-.4,1-.6,2.1-.8,3.2-.7,4.5.6,8.4,5.1,10.1.9.4,1.2.6,1.7,1.4-2-.3-5,0-7,.3-.4-.3-.8-.8-1.2-1.2.5-7-2.2-8.6-8.1-10.8-.1,3.6-.3,7,2.8,9.5,1.6,1.3,3.5,1.4,5.1,2.5-3.8.5-7.6,1.6-10.5-1.8-.4-.5-.7-1.1-1.1-1.6-.5,0-.3-.1-.7,0v.3c.4,1.5,1.7,3,3,3.9-5-.5-9.6-1.6-13.7-4.7-2.5-1.9-4.9-4-7.5-5.8-.7-.4-1.5-1-2.1-1.5-.6-2.6-1.1-5-3-7-2.8-2.9-6.5-3.4-10.3-3.5,1.6,7.4,4.3,11.5,12.5,11.4,1.3.7,2.6,1.9,3.7,2.9-2.7,0-3.8-2.2-7-1.4-3,.8-4.4,2.8-5.9,5.3,5.7,1.8,8.3,1.6,12-3.1,2.7,0,4.1,2,6.1,3.6,3.3,2.6,6.5,4.3,10.5,5.7-1.3,0-2.4.3-3.7.6-.4-.2-1-.4-1.4-.5-1.8-.5-3.8-.3-5.5.7-2.7,1.5-4.1,4.4-4.9,7.3,6,.3,9.4-.5,11.8-6.2,1.3-.3,2.6-.6,3.9-.9-.3.3-1.6,2.5-1.5,2.4-.6.3-1.6.4-2.1,1.2-.7.9-.6,3-1.1,3.8-1.2,2-2.7,3.7-1.8,6.4.4,1.2,1.4,2.2,2.5,2.8,1.3.6,4.7.6,5.9.1,1.2-.4,2.1-1.3,2.6-2.5,1.2-2.9-.6-4.8-1.7-7.1-1-2.2,0-3.5-3.1-4.7,2.3-3.4,4.5-2.1,7.9-2.2,2.5,0,5-.2,7.5-.3-2.3,1.6-4.6.6-6.9,3.1-2.2,2.4-2.5,4.9-2.5,8,5.9-1.4,8.8-3.1,9-9.6,1.7-1.8,2.7-1.7,5.1-1.6-.7.8-1,1.3-1.5,2.2-2.6.4-2.3,2.9-3.1,4.8-.4.8-.9,1.5-1.3,2.3-1.2,2.3-.3,5.5,2.2,6.6,1.1.5,1.5.2,2.5.2,1.3,0,2.1.3,3.4-.2,1.1-.5,1.9-1.3,2.3-2.4,1.1-2.9-.4-4.3-1.5-6.4-1-2.1-.3-3.7-3-4.8.8-1.1,1.3-1.3,2.5-1.7,1.1.2,2.2.5,3.2.8,7.1,2,11.2,6.5,13.4,13.5.7,2.2,1.1,4.5,1.9,6.6.7,2,2,4.2,3,6.1-.9,3.9-.5,6.4.3,10.2-.3.8-1.4,3-1.8,3.8-2.2,4.3-2.4,6.1-2.6,10.8-1.1,1.6-2.2,3.1-2.9,4.9-.7,1.8-1.2,3.7-2,5.5-.4,1-1.4,2-2.3,2.4-2.6,1.2-5.5,1.1-8.3,2.3-3.2,1.4-5.2,3.8-8.5,4.9-1.4.5-2.5.6-4,.6-.5,0-1.6,0-2,.2v.2c.4.3,1.8.5,2.3.6,5.3,1.2,9.7-1.3,14.7-2.3,1.7-.3,3.8,0,5.5,0,3.4,0,5.1-.4,8.2-1.4-3.7,2.8-6.3,3-7.9,7.5,2.7-1.7,4.9-2.6,8.1-3,4.7-.6,7-2.7,9.8-6.3,2.1,1.7,3.1,2.9,5.7,4.3,3.1,1.6,5.7,1.8,9,2.6,1.5.4,3.5,1.4,4.9,2.2-2.2-5-5.3-4.9-8.8-8,4.3,1.9,6.3,1.4,10.8,2.3,1.9.4,4.6,1.4,6.5,1.9,2.5.7,7.8,1,10.1-.3v-.2c-.3-.1-2.7-.1-3.4-.2-1.3-.2-2.1-.3-3.4-.8-2.5-.9-4.4-2.7-6.7-4-2.3-1.3-4.6-1.8-7-2.7-2.8-1-5.5-3.1-6.7-5.9-1.1-2.6-1.7-6.1-1.4-9,.1-1.1.7-2.7,1.1-3.7.8-2.4,1.2-4.8,1.1-7.3,0-.7,0-1.4-.2-2-.4-2.6-1.3-4.5-1.9-6.9-.1-.4.1-2.3.1-2.9,0-1.6,0-3.1-.4-4.6-1.4-6.1-5.1-7.8-2.1-15.2,1.5-4.1,4.9-7.1,9-8.7,1.9-.8,3.4-1.2,4.3,1.1-2.6,1.1-1.9,2.2-2.9,4.5-.7,1.5-2,3.4-2,5.1,0,1.6.9,3.2,2.4,3.9,1.2.6,2.1.5,3.4.4,1,0,1.7.3,2.7-.2,2.1-.9,2.9-2.7,2.8-4.9,0-1.8-1.2-2.8-1.9-4.4-.4-.8-.5-2-.9-2.8-.5-1.1-1.2-1.3-2.2-1.7-.4-1-.7-1.5-1.2-2.4,2.2-.4,4-.5,5.6,1.3,0,1.8,0,3.3.7,5,1.5,3.6,4.8,4.6,8.3,5.3-.4-6.1-1.3-9.6-8-10.8l-.7-.9c1.2.1,2.4.3,3.6.4,4.2.4,9.3.7,10.9,5.5-.3,0-.5.2-.8.3-2.9,1.1-1.9,3.8-3,5.7-1.6,2.6-3.3,4.2-1.9,7.7.6,1.4,1.6,2.4,3.1,3,.8.7,2.8-.1,3.1,0,4.7,1.3,8-3,6.6-7.4-.3-1-1.8-2.6-2.2-3.8-.9-2.6-.3-4.4-3.6-5.4-.4-2.1-.7-2.5-1.9-4.2,8.5,0,12.4-1.4,19.2-6.7,1.1-.8,2.4-2.2,3.7-2.6,1.4-.4,2,1,2.9,2,.5.5,1,1,1.7,1.3,2.7,1.5,5.8.7,8.6-.2-2.3-4.6-6.5-7.4-11.4-4.1ZM481.1,70.7l.2.3c-2.3,7-9.9,10.6-16.6,12,1.8-1.3,3.6-2.7,5.4-4,2-1.2,4.7-1.7,6.5-3.2,1.8-1.5,3.3-3.1,4.5-5.2ZM385.7,70.7c.2.1.8,1.1,1,1.4,1,1.2,2.3,2.8,3.5,3.7,1.8,1.4,4.2,2,6.2,3,1.4.7,3,2.2,4.2,3.2.6.5,1.3.9,1.9,1.4-3.2-.6-6-1.9-8.9-3.4-4.5-2.4-6.5-4.4-8-9.3ZM424,98.8c-1.4-3.7-3.7-7-7.1-9.1,1.5,1.7,2.8,3,4,4.9-2.1-1.8-3.4-3.6-5.8-5.2-5.2-3.5-11.8-2.8-16.9-5.9,1.5.5,2.7.8,4.3,1.2,2.8.6,5.8.9,8.5,1.8-3-1.8-6-3-9-5.1-1.6-1.1-3.2-2.7-4.6-3.6-1.1-.7-3.3-1.1-4.8-2h-.2c1.3.3,3.2.7,4.5,1-.9-1.7-1-2.4-1.5-4.3h.3c1.5,5.3,4.9,7.5,9.5,10.1,5.1,2.8,11.5,5.3,15.8,9.2-2-3.8-2.2-6.6-1.2-10.7-.1,5.3.5,8.9,3.9,13.1,2.8,3.5,4.3,6,5.7,10.3-.6,1.2-1,2.2-1.5,3.4-.3-4.8-1.1-8.6-4.6-12.1,1.6,2.9,2.5,4.6,3.1,8l-.2.5c-.6-1.9-1.4-3.5-2.1-5.3ZM426.2,122.3c-.1-1.6,0-3.2.3-4.8,1.4-9,6.6-17.2,13.4-23.1,5.1-4.3,5.8-8.2,7-14.3,0,4.3-.5,6.3-2,10.1,2.1-.9,4.5-2.5,6.7-3.5,6.9-3.3,16.6-5.3,19.4-13.5.3-.8.4-1.7.7-2.6.4,1.5-.7,4.6-1.5,5.9,1.6-.3,3.1-.6,4.7-1-1.3.6-4.4,1.4-5.2,2.1-3.4,2.9-6.8,5-10.9,6.8-.9.4-2,1.2-3,1.7-8.1,3.9-14.5,8.8-19.2,16.5.6-1.7,1.8-4,2.7-5.7l-.2-.3c-2.2,2.6-2.9,4.8-4.1,8-.4,1-1.3,2.5-1.8,3.7-1.6,3.6-2.3,7.5-2,11.5.2,2.8.8,3.7-.2,6.4-.3-1.5-.7-2.8-1-4.3-.3-1.3-.3-2.8-.7-4.1-.2,2.3,0,4.3.3,6.6.2,1,.7,3,.3,3.9-.8-.3-1.6-4.9-1.6-5.7-.1-1.4-.2-2.8-.3-4.2-.3-1,.1-1.9-.3-2.6-.3,1-.4,2.2-.4,3.2-.4,4.5.5,7.9,1.8,12.1-1.7-2.7-2.7-5.7-2.9-8.9ZM434.6,107.9c0,.8-.9,3.8-.9,4.9-.1,3.9,0,6.5-1.4,10.3-1.1-4.3.3-11.2,2.3-15.2ZM411.9,176.1c-2,.2-3.9,1-5.9,1.5v-.2c.5-.5,1.2-.9,1.8-1.2,3.5-2.2,6.5-1.5,10.3-1.6,3.7-.1,7-1.4,9.9-3.6h0s0,.2,0,.2c-.5.8-1.2,1.5-2,2.1-4.3,3.6-9.2,2.2-14.2,2.7ZM448.8,179.6c-5.4-1.3-9-1.9-10.6-7.8-.2-.6-.5-2.6-.7-2.9-.6,2.1.2,4.8,1,6.7-.8-1.2-1.8-2.5-2.4-3.8.3-1.1.7-2.1,1.1-3.2.5-1.2,1-2.4,1.6-3.6-.6,4.4,0,8,3.4,11-2.7-4.3-3.1-7.2-2.1-12.4.2-1.2.9-2.4,1.6-3.3-1.3,4.7-1.2,9.6,1.1,14.1,1.3,2.5,3.6,3.9,6,5.2ZM445.6,173.2c-2-1.6-3-4-3.3-6.4.2.2.1.1.2.3,1.3,2.6,3.3,5,5.7,6.7.8.5,1.6.9,2.4,1.5h0c-1.7-.3-3.7-1.1-5.1-2.2ZM449.4,172.2c4.4,2.6,7.9,2.1,12.2,5.5-8.6-3.1-17.5-3-19-14.1,0-.9,0-1.4,0-2.3l.3,1.6c1.1,4,2.6,7.1,6.4,9.3ZM436,161.1c-1,2-1.8,4.1-2.5,6.2-.9,2.6-1.5,4.9-3,7.1-.2.3-.4.5-.6.8v.5c3.6-3.5,4.8-10.2,7.2-14.4,1.8-3.3,4.2-6.1,5.8-9.4.7-1.5,1.2-3,1.8-4.5-.1,2.4-.7,4.7-1.6,6.9-1.6,3.8-4.5,7.2-6.4,10.9-2.2,4.2-3.3,9.7-7.4,12.6-1.7,1.2-4.5,1.7-6.5,2.1,1.2-.8,2.2-1.3,3.3-2.2,3.5-3,4.2-7.3,5.5-11.4.4-1.2,1.6-3.1,2.3-4.2-2.5,2.4-3,3.8-4.7,6.7-1,1.8-4.5,3.7-6.4,4.3-1.2.5-5.1,1.1-6.2.7.3-.2.4-.2.8-.2,1-.3,1.9-.6,2.9-.9,4.5-1.6,7.4-4,9.5-8.4h-.4c-2.2,3-4.8,5.5-8.4,6.7,1.6-1.6,2.7-3.1,4-4.9,3.6-4.8,5.8-8.5,10.2-12.6-4.3,2.6-10.2,10.4-13.3,14.6.8-2.1,1.6-4.6,2.9-6.5,2.3-3.6,6.2-6,9.4-8.7,3.9-3.2,5.8-5.7,8.2-10.1-1,5.6-2.9,9.3-7,13.3-2.7,2.6-4.2,3.3-5.4,7,.9-1,1.8-2.2,2.7-3.1,1.2-1.2,2.6-2.3,3.9-3.5,4.9-4.8,6.5-9.1,7.2-15.7,1.7,9.7-4,13.3-7.7,20.8ZM441.6,127.1c1.1,3.2,1.4,5.6.9,9-1.2,7.8-8.1,14.2-14.2,18.6.9-1.8,1.4-2.6,2.5-4.2,2.7-3.6,4.1-4.7,6.4-9-.4.4-.7.8-1.1,1.2-3.2,3.9-7.1,7.2-9.1,11.9-.3.7-.5,1.4-.8,2h0c.1-1.4.3-3.2,1-4.6,2.4-5.5,7.7-9.1,10.1-14.7,1.1-2.6,1.9-5.3,2.2-8,.2-1.8.2-3.1.6-4.9.5.7.5,2,.6,2.8.2,3.2-.2,6.3-1.2,9.3-.5,1.4-1,2.7-1.4,4.2,3.4-4.9,3.8-7.8,3.7-13.6ZM434.9,136.5c1.7-3.1,2.9-5.4,4.2-8.7.3.3-.2,2.5-.3,3-.8,5.7-4.7,9.8-8.2,13.9h0c.3-1.3,3.6-6.7,4.4-8.3ZM439.3,116.8c.1.6-.3,2.2-.3,2.9-.8,5.8-2.2,9.5-4.9,14.7-.4-1.6,4.3-15.4,5.3-17.6ZM472.4,104l1.2,1.2v.3c-3.3-2.2-6.4-2-10.1-2.6-7.8-1.1-15.1-1.6-21.6,3.8,3.2-1.5,6.1-2.7,9.7-3.3-8,3.4-13.1,5.3-15.8,14.3-.1.8-.2,1.2-.2,2,2.1-5,3.3-8.7,8.3-11.8-4.9,5.8-6.1,10-8.1,17.1-.6,2.1-1.4,4.2-2,6.5-.6,2.6-.6,4.9-2.2,7.1,0-3.1.6-5.7,1.5-8.7h-.4c-2,4.1-2.1,7.5-2.4,11.8-2.1-8.4,3.4-14.4,5-22.4.1-.6.3-1.2.4-1.9.2-3.5,2.2-7.7,4.6-10.2,7.7-8.2,17.3-7.4,27.3-5.2,4.5,1,8.3,2,12.9,1.8.3,0,.6,0,.9.2-2.7.4-6.3.4-9-.1Z"/>
  <g id="Capa_2">
    <circle class="st4" cx="116.1" cy="116.4" r="113.9"/>
    <path class="st10" d="M168.6,85.8c0,20,0,33-.1,34.5,0,1.3-.2,3.3-.4,4.4-.1,1.1-.3,2.8-.4,3.6,0,.8-.5,2.9-.8,4.5s-.9,3.9-1.2,5.2c-.3,1.2-.9,3.1-1.2,4.1-.3,1.1-.9,2.7-1.2,3.6-.3.9-1,2.7-1.5,3.8-.5,1.2-1.3,3-1.8,4.1s-1.4,2.9-2.1,4.1c-.6,1.2-1.6,2.9-2.1,3.8-.5.9-1.6,2.6-2.4,3.8-.8,1.2-2,3-2.7,3.9s-1.8,2.4-2.4,3.2c-.6.8-2,2.3-2.9,3.4-.9,1.1-2.9,3.1-4.4,4.5-1.4,1.4-3.7,3.4-4.9,4.5-1.3,1.1-3.1,2.5-4.1,3.2s-2.9,2.1-4.3,3c-1.4.9-3.4,2.2-4.6,2.9-1.1.7-3.3,1.8-7.4,3.9l-2.8-1.4c-1.6-.8-3.8-2-5-2.7s-3.2-1.9-4.3-2.7c-1.2-.8-3.1-2.1-4.2-2.9-1.1-.9-2.8-2.2-3.8-3s-2.6-2.2-3.6-3.2c-1-.9-2.5-2.4-3.3-3.2s-2.1-2.2-2.8-3.1-2.1-2.5-3-3.6-2.1-2.7-2.6-3.4-1.5-2.1-2.1-3.1-1.7-2.6-2.3-3.6c-.6-1-1.6-2.8-2.3-4-.7-1.2-1.7-3.2-2.2-4.5-.6-1.2-1.5-3.4-2-4.7s-1.3-3.6-1.8-5-1.1-3.5-1.4-4.6-.8-3-1-4.2-.7-3.2-.9-4.4c-.2-1.2-.5-3.3-.7-4.6-.2-1.3-.3-3.4-.5-4.6,0-1.4-.2-13.6-.2-34.8v-32.6h105.9v32.1h0l-.2-.2h0Z"/>
    <path class="st11" d="M231.7,110.5c0-1.6-.3-4.2-.4-5.9-.2-1.7-.5-4.1-.7-5.5s-.6-3.7-.9-5.2c-.3-1.5-.8-3.8-1.2-5.3s-.9-3.5-1.2-4.5-.8-2.8-1.2-3.9-1.1-3.2-1.6-4.6-1.4-3.7-2-5.1-1.5-3.5-2.1-4.6-1.6-3.2-2.2-4.4c-.7-1.2-1.9-3.4-2.8-4.9-.9-1.4-2.2-3.6-3-4.8s-2-2.9-2.6-3.8c-.6-.9-1.6-2.2-2.2-3-.6-.7-1.7-2.1-2.4-3-.8-.9-2-2.3-2.6-3.1-.7-.8-1.9-2-2.6-2.8-.7-.8-1.7-1.8-2.2-2.3s-1.5-1.5-2.3-2.2-2.2-2-3.2-2.9-2.6-2.2-3.6-3-2.8-2.2-4-3.1-3.4-2.4-4.9-3.4-3.6-2.3-4.7-3c-1.1-.6-2.6-1.5-3.3-1.9s-2.6-1.4-4.1-2.1-3.6-1.8-4.8-2.3c-1.1-.5-3.3-1.4-4.9-2-1.5-.6-4-1.5-5.5-2s-4-1.3-5.6-1.7c-1.6-.4-4.2-1.1-5.8-1.5s-4.1-.9-5.5-1.1-3.6-.6-4.9-.7c-1.2-.2-3.4-.4-4.7-.5s-4.1-.3-6.2-.4h-7.3c-.7,0-2.4,0-3.9.1-1.5,0-3.6.2-4.8.4-1.2.1-3.3.4-4.8.6s-4.1.7-6,1c-1.8.4-4.7,1-6.4,1.5-1.7.4-4.4,1.2-6,1.7s-3.9,1.3-5.2,1.8c-1.2.5-3.2,1.2-4.4,1.7-1.2.5-3.2,1.4-4.6,2-1.3.6-3.3,1.6-4.3,2.1s-2.8,1.5-4,2.2-3.1,1.8-4.1,2.5-2.7,1.7-3.6,2.4c-.9.6-3,2.1-4.5,3.2s-3.5,2.7-4.4,3.5c-.9.7-2.1,1.8-2.7,2.3-.6.5-2,1.9-3.2,2.9-1.1,1.1-2.9,2.8-4,4-1.1,1.1-2.2,2.4-2.6,2.8-.4.4-.7.8-.7.8,0,0-.8.9-1.6,1.9-.9,1-2.2,2.7-3,3.8-.8,1-1.9,2.5-2.5,3.3s-1.8,2.6-2.8,4.1-2.5,3.9-3.3,5.3c-.8,1.4-2.2,4-3.1,5.7s-2,4.2-2.6,5.4c-.5,1.2-1.4,3.3-1.9,4.6-.5,1.3-1.3,3.6-1.8,5-.5,1.5-1.2,3.8-1.6,5.2-.4,1.4-1,3.4-1.2,4.6-.3,1.1-.8,3.4-1.1,5s-.8,4.3-1,6-.6,4.1-.7,5.4c-.1,1.2-.3,3.4-.4,4.8,0,1.4-.2,4.3-.2,6.6s0,5.2.2,6.6c0,1.4.2,3.5.4,4.8,0,1.2.4,3.7.7,5.4.3,1.7.7,4.4,1,6s.8,3.9,1.1,5,.8,3.2,1.2,4.6c.4,1.4,1.1,3.7,1.6,5.1.5,1.5,1.3,3.7,1.8,5s1.4,3.3,1.9,4.6c.5,1.2,1.7,3.6,2.6,5.4.9,1.7,2.3,4.3,3.1,5.7s2.3,3.8,3.3,5.3,2.2,3.4,2.8,4.1c.5.8,1.7,2.3,2.5,3.3.8,1.1,2.2,2.7,3,3.8s1.8,2.1,2.1,2.5c.3.4,1.1,1.1,1.6,1.8.6.6,1.4,1.5,1.9,2,.5.5,1.9,1.9,3.1,3,1.2,1.1,2.7,2.5,3.3,3.1.6.5,1.8,1.6,2.7,2.3s2.9,2.3,4.4,3.4c1.5,1.2,3.6,2.6,4.5,3.2.9.6,2.5,1.7,3.6,2.3,1.1.7,2.9,1.8,4.1,2.5,1.2.7,3.1,1.7,4.2,2.3,1.1.6,3.3,1.6,4.9,2.4,1.6.7,4,1.8,5.3,2.3s3.2,1.2,4.1,1.6c.9.3,2.8,1,4.3,1.4,1.4.4,4,1.2,5.7,1.6s4.4,1.1,6,1.4c1.6.3,4,.8,5.3.9,1.3.2,3.3.5,4.4.6s2.8.3,3.8.4c.9,0,3.4.2,5.5.3,2.7.1,5,.1,7.8,0,2.2,0,5.1-.3,6.4-.4,1.3-.1,3.3-.3,4.3-.4,1-.1,3.2-.5,4.8-.7,1.6-.3,4.3-.8,6-1.2s4.3-1,5.9-1.5c1.6-.4,4.1-1.2,5.6-1.7s4-1.4,5.4-2c1.5-.6,3.6-1.5,4.7-2,1.1-.5,3.3-1.5,4.9-2.3s3.5-1.8,4.2-2.2,2.2-1.3,3.3-1.9c1.1-.6,3.2-2,4.7-3s3.7-2.5,4.9-3.4,3-2.3,4-3.1,2.6-2.2,3.6-3c1-.9,2.4-2.2,3.2-2.9.8-.8,1.8-1.8,2.3-2.2.4-.4,1.4-1.4,2.1-2.2.7-.8,1.9-2,2.6-2.8.7-.8,1.9-2.2,2.6-3.1.8-.9,1.9-2.3,2.4-3,.6-.7,1.6-2.1,2.2-2.9.6-.9,1.8-2.6,2.6-3.8s2.2-3.4,3-4.8c.9-1.4,2.1-3.6,2.8-4.9.7-1.2,1.7-3.2,2.2-4.4.6-1.2,1.4-3.1,1.9-4.3s1.3-3.1,1.7-4.3,1.1-3,1.5-4.1,1-2.9,1.3-4.1c.4-1.2.9-3.3,1.3-4.7.4-1.4.9-3.9,1.2-5.4.3-1.6.8-4.2,1-5.8s.6-4.3.8-5.9c.2-1.7.4-4.3.4-5.9s.1-4.1.1-5.6,0-4-.1-5.6h0l.6-.2h0ZM227.3,124.3c-.1,1.2-.3,3.4-.5,4.8-.2,1.4-.5,3.9-.8,5.5s-.7,4-1,5.4c-.3,1.3-.9,3.7-1.3,5.2-.4,1.5-1.2,4.3-1.8,6-.6,1.8-1.5,4.4-2.1,5.7-.6,1.4-1.4,3.4-1.9,4.6-.5,1.1-1.5,3.1-2.1,4.5-.7,1.3-1.7,3.3-2.3,4.4-.6,1.1-1.7,2.9-2.4,4.1-.7,1.2-1.9,2.9-2.5,3.9s-2,2.9-3.1,4.3c-1,1.4-2.5,3.2-3.2,4.1s-2.1,2.5-3,3.5-2.8,3-4.2,4.4-3.3,3.2-4.2,4.1c-.9.9-2.6,2.2-3.6,3.1-1.1.9-3,2.4-4.4,3.5-1.4,1-3.7,2.7-5.1,3.6-1.4.9-3.6,2.3-4.9,3.1-1.2.7-3.1,1.8-4.1,2.3s-2.5,1.3-3.5,1.8c-.9.5-2.9,1.4-4.4,2.1-1.5.7-3.9,1.6-5.2,2.2-1.4.5-3.8,1.4-5.4,1.9s-3.9,1.2-5.1,1.6c-1.2.3-3.2.8-4.4,1.1s-3.3.7-4.6.9-3.3.6-4.5.7c-1.2.2-3.1.4-4.2.5-1.1.1-3.1.3-4.3.4-1.2,0-3.6.2-5.2.2h-6.6c-2,0-4.7-.3-6-.4-1.3-.1-3.8-.4-5.5-.7-1.7-.2-4.3-.7-5.7-1-1.5-.3-4-.9-5.6-1.3-1.6-.4-4.2-1.1-5.7-1.6s-4-1.3-5.4-1.8-3.8-1.5-5.3-2.1-4-1.8-5.5-2.5c-1.5-.8-3.5-1.8-4.4-2.3s-2.5-1.4-3.6-2.1c-1.1-.6-3.3-2-4.9-3.1-1.6-1.1-3.9-2.7-5.2-3.6-1.2-.9-3.2-2.5-4.3-3.4s-2.9-2.5-4-3.5-3-2.9-4.2-4.1c-1.2-1.2-2.7-2.8-3.4-3.6s-2-2.3-2.9-3.4c-.9-1.1-2.4-3-3.3-4.2s-2.4-3.3-3.4-4.7c-.9-1.4-2.4-3.6-3.2-4.9-.8-1.3-1.9-3.3-2.5-4.4-.6-1.1-1.4-2.6-1.8-3.4-.4-.8-1.2-2.6-1.8-3.9s-1.5-3.5-2.1-4.9-1.3-3.5-1.8-4.9c-.5-1.3-1.1-3.4-1.5-4.6-.4-1.2-.9-3.3-1.2-4.6-.3-1.3-.8-3.1-1-4.1s-.5-2.8-.8-4.1-.5-3.2-.7-4.4-.4-3.3-.5-4.8c-.2-2.1-.3-4.1-.3-9.6s0-7.5.3-9.6c0-1.5.4-3.6.5-4.8.2-1.2.4-3.2.7-4.4s.6-3.1.8-4.1c.2-1,.6-2.8,1-4.1.3-1.3.9-3.3,1.2-4.6.4-1.2,1-3.3,1.5-4.6.5-1.3,1.3-3.6,1.8-4.9.5-1.4,1.5-3.6,2.1-4.9s1.4-3,1.8-3.8,1.2-2.3,1.8-3.4c.6-1,1.7-3,2.5-4.3s2.2-3.5,3.2-4.9c.9-1.4,2.4-3.5,3.4-4.7.9-1.2,2.4-3.1,3.3-4.2.9-1.1,2.2-2.6,2.9-3.4s2.2-2.4,3.4-3.6c1.2-1.2,3.1-3,4.2-4.1,1.1-1,3-2.6,4-3.5,1.1-.9,3-2.4,4.3-3.4,1.2-1,3.6-2.6,5.2-3.6,1.6-1,3.8-2.4,4.9-3.1,1.1-.7,2.7-1.6,3.6-2.1.9-.5,2.9-1.5,4.4-2.3s4-1.9,5.5-2.5,3.9-1.6,5.3-2.1c1.4-.5,3.8-1.3,5.4-1.8s4-1.2,5.4-1.5c1.4-.4,4-.9,5.6-1.3,1.6-.3,4.4-.8,6-1s4.2-.5,5.6-.7c1.4,0,3.7-.3,5.2-.4h6.6c2.2,0,5.3.2,6.8.3s3.6.3,4.7.4c1.1,0,2.9.4,4,.5,1.1.2,3.3.6,4.9.9,1.6.3,3.8.8,4.9,1.1,1.1.3,3,.8,4.3,1.2s3.5,1.1,4.9,1.6c1.5.5,3.7,1.3,5.1,1.9s3.6,1.5,5,2.1c1.4.6,3.7,1.8,5.1,2.5,1.4.7,3.5,1.9,4.7,2.6s2.9,1.8,3.8,2.3c.9.6,2.4,1.6,3.5,2.3,1,.7,2.9,2,4.1,3,1.2,1,3.1,2.4,4.2,3.3s2.7,2.3,3.6,3.1c.9.8,2.8,2.7,4.2,4,1.4,1.4,3.3,3.4,4.2,4.4s2.3,2.6,3,3.5,2.2,2.7,3.2,4.1c1,1.4,2.4,3.3,3.1,4.3.6,1,1.8,2.7,2.5,3.9s1.8,3.1,2.5,4.2,1.8,3.3,2.6,4.9,1.9,4.1,2.6,5.7c.6,1.5,1.6,3.9,2.1,5.2.5,1.3,1.2,3.6,1.7,5,.4,1.4,1.1,3.9,1.6,5.4.4,1.6.9,3.8,1.2,5,.2,1.2.6,3.4.9,4.8.2,1.4.6,3.7.7,5.2.2,1.4.4,3.6.5,4.8.1,1.3.2,4.6.2,8.2s0,6.8-.2,8.2h0l-.2.3h0Z"/>
    <path class="st11" d="M110.5,33.2c-1.1,0-2.8.2-4,.3-1.1,0-3.1.4-4.3.6-1.2.2-3.3.6-4.6.9-1.2.3-3.2.8-4.3,1.1-1.1.3-3,.9-4.2,1.3-1.2.4-3.2,1.2-4.5,1.7s-3.7,1.6-5.4,2.4c-1.7.8-3.9,2-5,2.6s-2.8,1.7-3.9,2.4l-1.9,1.3h3.7c3.3-1.9,5.5-3.1,7.1-3.9,1.5-.8,3.8-1.8,4.9-2.3,1.2-.5,2.9-1.2,3.8-1.5s2.5-.9,3.5-1.2,2.8-.8,4.1-1.2c1.2-.3,3.2-.8,4.4-1,1.2-.2,3.2-.6,4.3-.7,1.2-.2,3-.4,4-.5,1.2,0,3.9-.2,7.4-.2s6.2,0,7.4.2c1,0,2.7.3,3.9.5s3.1.5,4.3.7,3.2.7,4.5,1c1.2.3,3.3.9,4.6,1.3s3.5,1.2,4.8,1.7,3.4,1.4,4.6,2c1.2.5,3,1.4,4,2,1,.5,2.7,1.5,3.6,2.1l1.8,1.1h3.7c-3.2-2.2-4.9-3.3-5.9-3.8-1-.6-3.2-1.8-4.9-2.6s-4.1-1.9-5.3-2.4-3.2-1.2-4.4-1.6c-1.2-.4-3.3-1-4.6-1.4-1.3-.3-3.3-.8-4.4-1.1s-2.8-.6-3.8-.7-2.8-.4-4.2-.6c-1.4-.2-3.6-.4-5-.5h-9.9,0Z"/>
    <path class="st11" d="M55.4,59.1c-.8.9-2.2,2.4-3,3.4s-2.2,2.7-3.1,3.9c-.9,1.2-2.2,3-2.9,4.1s-1.8,2.8-2.5,4c-.7,1.1-1.9,3.5-2.8,5.3-.9,1.8-1.9,4.1-2.3,5.1-.4,1-1,2.7-1.4,3.7s-1,3.1-1.5,4.6c-.4,1.5-1,3.7-1.2,4.8-.2,1.1-.6,3-.8,4.2s-.5,3.3-.7,4.7c-.2,1.4-.4,4.1-.5,5.9v6.8c0,1.9.3,4.6.4,5.9.2,1.3.4,3.3.6,4.3.2,1.1.5,3,.8,4.3s.9,3.6,1.3,5.1c.4,1.5,1.1,3.6,1.5,4.6s1,2.7,1.4,3.7,1.5,3.3,2.3,5.1c.9,1.8,2.1,4.2,2.8,5.3s1.8,2.9,2.5,4,2,2.9,2.9,4.1c.9,1.2,2.3,3,3.2,4,.8,1,2.6,2.9,3.8,4.2s3,3,3.9,3.8,2.2,1.9,2.8,2.4,2,1.6,2.9,2.3c1,.7,2.8,2,4.1,2.8,1.2.8,3.2,2.1,4.4,2.7,1.2.7,3.5,1.9,5.2,2.7s4.2,1.9,5.5,2.5c1.3.5,3.2,1.2,4.3,1.6,1,.3,2.8.9,3.9,1.2s3.1.8,4.3,1.1c1.2.3,3.1.6,4.1.8s2,.3,2.2.4h.4s-.9-.7-2-1.4l-2-1.3c-3.4-.8-5.2-1.2-6.2-1.5s-2.8-.8-3.9-1.2-2.8-1-3.7-1.3-2.6-1-3.7-1.5-3.1-1.4-4.3-2.1c-1.2-.6-3-1.6-3.9-2.2s-2.6-1.6-3.7-2.3-2.8-1.9-3.7-2.6c-.9-.7-2.3-1.8-3.1-2.4-.8-.6-2.3-2-3.4-2.9-1.1-1-2.8-2.7-3.9-3.9-1.1-1.1-2.6-2.8-3.3-3.8s-2-2.5-2.8-3.5-1.8-2.5-2.4-3.4-1.5-2.3-2-3.2-1.5-2.6-2.1-3.7c-.6-1.1-1.6-3.2-2.3-4.6-.7-1.4-1.6-3.7-2.1-5.1s-1.2-3.4-1.5-4.4-.8-2.8-1.1-4-.8-3.2-1-4.5c-.2-1.2-.5-3-.7-3.9,0-.9-.3-2.2-.4-3s-.2-2.4-.3-3.6c0-1.2-.2-3.4-.2-4.9s0-3.7.2-5c0-1.3.2-3.2.4-4.3s.3-2.7.5-3.7.5-2.7.7-3.9c.2-1.2.7-3.1,1-4.3.3-1.2,1-3.3,1.4-4.6.5-1.3,1.2-3.3,1.6-4.3.4-1.1,1.2-2.8,1.7-3.9s1.4-2.9,2-4,1.5-2.8,2.1-3.7c.5-.9,1.5-2.3,2-3.2.6-.9,1.7-2.4,2.4-3.4.8-1,2-2.6,2.8-3.5s1.9-2.2,2.4-2.7l1-1v-3.1l-1.6,1.6h0l.3-.2h0ZM174.4,59v1.5c1.8,1.9,2.8,3.2,3.5,3.9.7.7,1.8,2.2,2.6,3.2.7,1,1.9,2.6,2.5,3.5s1.5,2.3,2,3.2c.5.8,1.4,2.5,2.1,3.7.7,1.2,1.6,3.2,2.2,4.3.5,1.2,1.3,3,1.7,4s1.1,2.9,1.5,4.2c.4,1.3,1,3.1,1.2,4.1s.6,2.5.9,3.5.6,2.8.8,4,.5,3.3.7,4.7c.2,1.4.4,4.1.4,5.9.1,2.5.1,4.2,0,6.7,0,1.9-.3,4.6-.4,6-.2,1.4-.5,3.5-.7,4.7s-.6,3-.8,4-.6,2.6-.9,3.5-.8,2.8-1.2,4.1-1.1,3.2-1.5,4.2-1.2,2.8-1.7,4-1.6,3.2-2.2,4.5c-.7,1.3-1.7,3.1-2.2,3.9-.5.9-1.4,2.2-1.9,3-.6.8-1.6,2.3-2.3,3.2-.7,1-2,2.6-2.9,3.6-.8,1-3,3.3-4.9,5.2s-4.1,3.9-5,4.7-2.5,2-3.5,2.8-2.8,2-4,2.8-3.2,2-4.5,2.8c-1.3.7-3.4,1.8-4.6,2.4-1.2.6-3.3,1.5-4.6,2.1s-3.7,1.4-5.4,2c-1.6.6-4.2,1.3-5.7,1.7s-3,.7-3.5.8c-.6.1-1.3.5-2.7,1.3-1,.6-2,1.3-2.1,1.4-.2.1-.3.2-.2.3,0,0,1.1-.1,2.4-.3s3.1-.6,4.1-.8,2.8-.7,4.1-1c1.3-.4,3.4-1,4.6-1.4,1.2-.4,3.2-1.1,4.4-1.6s3.6-1.6,5.3-2.4c1.7-.8,3.9-2,4.9-2.6s2.9-1.8,4.2-2.6c1.3-.9,3.1-2.1,4.1-2.9,1-.7,2.5-2,3.5-2.7.9-.8,2.6-2.2,3.7-3.2,1.1-1,2.8-2.7,3.8-3.8s2.5-2.8,3.3-3.7c.8-1,2.1-2.6,2.8-3.5.7-1,1.9-2.6,2.5-3.6.7-1,1.7-2.6,2.3-3.6s1.8-3.1,2.6-4.8c.9-1.7,2-4.1,2.5-5.4.5-1.3,1.3-3.3,1.7-4.4.4-1.1,1-3,1.4-4.3.4-1.2.9-3.1,1.1-4.1.2-1,.6-2.7.8-3.8s.5-2.9.7-4.1c.2-1.2.4-3,.5-4.1.1-1.2.2-4,.2-7.3s0-6.1-.2-7.3c-.1-1.1-.3-2.9-.5-4.1s-.5-3-.7-4.1-.7-3.2-1-4.6c-.4-1.4-.9-3.5-1.3-4.6-.3-1.1-.9-2.9-1.4-4-.4-1.1-1.1-2.9-1.6-4s-1.5-3.3-2.3-4.9-1.9-3.7-2.5-4.6c-.6-1-1.6-2.6-2.3-3.6s-1.8-2.6-2.5-3.6-2-2.6-2.8-3.5c-.8-1-2.3-2.6-3.3-3.7-1-1.1-1.8-1.9-1.9-1.9s0,.7,0,1.5h0v-.4h0Z"/>
  </g>
  <path class="st0" d="M-255.9,62.3C-239,18-195.1-10.2-147.7-7.1-100.3-3.9-60.5,29.8-49.6,76c10.9,46.2-9.5,94.2-50.5,118.2-41,24-92.8,18.6-127.8-13.5-.5-.5-1-1-1.6-1.5-1.6-1.6-3.2-3.2-4.7-4.8,1.2-1,.4-1.3,1.2-2.3h.3s.2-.1.2-.1h.1c.3.4.6.7,1,1.2l1,1c.2.2.5.4.6.6.4.4.8.9,1.3,1.3,1,1.6,7.7,7,9.4,8.3,18.3,14.2,40.9,22,64.1,22.2,27.9,0,54.7-11.2,74.5-31l1.2-1.3c.1-.4.2-.3.6-.7l.9-.9c.4-.4.7-.8,1.1-1.3l1.1-1.3c1.5-1.6,3.3-4,4.7-5.8.4-.7.8-1,1.2-1.8l.2-.2.8-1.2c-.9-1.1-1.8-2.2-2.8-3.2v-1.5c1.8,1.2,2.2,2.1,3.4,3.8.3-.1.4-.4.5-.7.4-.5.7-1,1.1-1.5,8.8-14.2,13.5-26.4,15.9-43.1,0-.4.2-.9,0-1.2,0-.2.1-.3.2-.5,3.2-25.8-3.9-51.3-18.5-72.8C-84.5,17.7-108.6,2.1-135.8-3c-27.3-5.1-55.5.9-78.3,16.7-21.7,15.1-37,37.6-43,63.3-.9,3.9-1.6,7.8-2.1,11.7-.2,1.4-.3,4.3-.5,5.4v.2c-.3.3-.2.2-.3.7h-.2c-.2-.7,0-.7,0-1.2-.2-.1-.2,0-.6,0-.6-.5-1.5-3.2-1.4-4,0-.3,0-.5,0-.9h0c.2-2,.5-3.9.8-5.8.4-2.6,1-5.2,1.6-7.8.6-2.3,1.2-4.6,1.9-6.8.7-2.1,1.4-4.2,2.2-6.3Z"/>
  <path class="st1" d="M404.5,154.7c.6-.8,1-1.3,1.5-2.2-1.1-.6-1.4-1-2.3-1.8-2.5.8-5.8,2.4-8.5,3.4,1.3-3.7,1-6.2-2.4-8.5,1.7-.7,6.7-2.6,8.1-3.4.5-2.2.6-2.5,1.8-4.4-1.9-.6-2.8-.6-3.4-2.6-1,.3-2.1.8-3,1.2-6.5,3-13.2,3.4-14,11.8-1,.8-2.1,1.6-3.1,2.4-6.9-1-9.8,4-14.1,8.3-2.4,2.4-3.5,4.2-4.1,7.6-2.8,3.2-6.1,7.6-8.1,11.3-3.5,1.3-4.9,3.4-6.8,6.4.1.4.8,1.3,1.1,1.6,1.5-2.3,2.6-4.3,5.1-5.7l-.3,1.4c-1.3.7-3.7,3.7-4.1,4.9h.1c0,.5.3.6.4,1.1.3.5.3.6.8,1.1l.2.2c.2.6.7,1.2,1.1,1.7,1-1.2,1.8-2.4,2.6-3.7,1.5,2,2.6,3,5.1,3.4.3,0,.6,0,.9.1-.8,1.4-3,4.7-4.1,5.7.5.5.8.8,1.3,1.4h.1c1.5-2,5.3-7.2,5.5-9.6.3-2.8-1-3.8-2.4-5.6.2-.6.3-.8.6-1.3h0c4,.6,5.7,6.7,3.9,10-1.6,2.9-3.6,5.9-5.6,8.7.2.2.5.4.6.6.4.4.8.9,1.3,1.3,2-2.7,3.8-5.6,5.6-8.4,1-1.6,1.3-3.1,1.5-4.9,2-1.7,6-7.3,7.3-9.6,4.1-1.2,5.3-3.2,8.2-6.2,3.2-3.3,5.6-5.4,6-10.3.4-.3.9-.7,1.3-1,4.8,2.2,12.1-1.8,16.3-4.2-.6-.9-1.1-1.6-2-2.3ZM398.6,137.4c.6.4,1.1.8,1.8,1.1l-.6,2.2-.2.2c-.4-.1-.8-.5-1.1-.8,0-.9,0-1.8,0-2.7ZM385,145.1c1.5-3.2,4.7-4.3,7.8-5.4,1.6-.6,3.1-1.2,4.7-1.8-.1.3-.7,2-.6,1.9-2.2,1.5-5.6,2-7.9,3.5-.5.3-1.6,1.7-1.9,2.2-.2.3,0,.2-.5.3l-1.4.6c-.3.2-.4.3-.7.3,0-.4.4-1.3.5-1.7ZM367.1,159.6c.4-.3,1.2-.8,1.4-1.2-.1-.2-.2-.4-.3-.6.1-.2.4-.4.7-.4.5-.1.9-.7,1.3-1.1,2.7-2.9,3.6-3.5,7.4-4.1-.4.5-.7.8-1.1,1.2l-.9,1.2c-2.4,1.1-3.6,2.6-5.4,4.6l.5,1.1h-.1c-.4-.1-.5-.2-.8-.6-1.8.9-2.8,2.1-3.9,3.7-.8.3-1.7.7-2.5,1,.9-2.1,1.9-3.4,3.7-5ZM379.8,165c-1.4,1.4-2.8,2.9-4.2,4.4-.2.2,0,.1-.3.1-.1-.5-.3-1-.5-1.5-.9-2-2.4-3.3-4.4-4.1,1.4-1.3,2.7-2.7,4-4.1.4.6.5,1.7,1,2.4,1,1.6,2.6,2.4,4.4,2.8ZM360.2,174c-.5.8-.8,1.2-1.3,1.9-.7,1.1-1.6,2.3-2.4,3.3.3-.8.6-1.6.9-2.3v-.3c-2.1,2.8-3.8,7.2-.9,10.3.5.5,1,.8,1.5,1.3-2.6-1.1-4.2-3-4.2-5.9,0-2.6,1.2-4.8,2.8-6.9.4-.6.9-1.3,1.4-1.8.3,0,.5,0,.8,0v-.2c0-.3,0-.5-.1-.8.3-.5,1.2-1.7,1.7-2.2,1.5-2,2.9-4.2,5.5-4.9,3.6-1,6.7.4,7.8,4-1.5-2.4-2.8-3.4-5.7-2.8-1.2.5-1.8.8-2.9,1.5l-.5.6c-.6.7-3.2,3.9-3.4,4.6-.2.1-.6.5-.7.6ZM358.1,185.1c-.3-.2-.3-.3-.5-.7l.2-.5c.2.3.4.8.4,1.1ZM364.8,180.8c-1.1-1-2.1-1.8-3.3-2.5.9-1.2,1.8-2.4,2.8-3.6.2,0,.1,0,.2.2.9.9,1.7,1.7,2.8,2.4-.8,1.1-1.6,2.3-2.4,3.5ZM366.5,182.9c-.2-.1-.3-.2-.4-.4,0-.9,2-3.2,2.6-4.1.3.2.3.3.5.6-.3,1.3-1.8,2.8-2.6,3.9ZM382.9,166.5c-.8,1-1.8,1.8-2.7,2.8-2.1,2.2-4.2,5.1-7.6,5.3-1.9,0-3.4-.6-4.7-1.9-.3-.4-.6-.7-.7-1.3h.1c1.2-.2,2.4,1.2,3.6,1.5,1.2.3,2.8.1,3.8-.6,1.6-1,6.3-6,7.4-7.6.4-.7.8-1.4,1-2.1.3-1.5,0-2.9-.9-4.2.4-.5.8-.9,1.2-1.3.8.7,1.2,2.6,1.3,3.6.2,2.2-.5,4.2-2,5.8ZM377.9,158.4c-.2.1-.3.2-.5.4h0c0,.1,0,.3,0,.3,0,1,.5,2.6.3,2.9-.5-.2-1.1-1.1-1.2-1.6-.7-2.3.6-5.2,2.4-6.8,3.2-2.9,8.8-8.7,13.5-6.1l.3.5c-.4.1-.4-.1-.9.1.2.2.3.3.5.5-3.3-.4-4.8.9-7.3,2.9-3,2.3-5,3.7-7.1,7ZM399.2,156c-1.4.6-2.9,1.4-4.5,1.6-1.6.2-3.1-.2-4.3-1.1-.6-.5-1.8-1.6-1.8-2.5,0-.4.3-.5.5-.7.2.1.1,0,.3.2.7,1,1.3,1.9,2.5,2.4,2.4,1,5.1-.5,7.2-1.4.1.5.2.9.3,1.4h-.1ZM401.3,155.2c0,.3.2.8.4,1.1h-.5c-.8-.3-.7-1.1-1.1-2.2v-.2c1.4-.5,2.7-1.1,4.2-1.6-.8,1.3-1.5,2.2-2.9,2.8Z"/>
  <path class="st9" d="M387.8,47.8c5.3.9,8.6,2.2,9.4,8-.5-.7-.9-1.3-1.5-1.9,0,.4.2.7,0,1.1.6,1,1.1,1.9,1.5,3-.3.2-.3.2-.6.2h0c-.1-.6-.3-.8-.5-1.3-5.9-1.4-6.9-3.6-8.3-9.2Z"/>
  <path class="st6" d="M392.7,51.8c1.4.5,2,1.1,2.9,2.2,0,.4.2.7,0,1.1-1-1.3-1.8-2.2-3-3.3Z"/>
  <path class="st9" d="M381.5,50.8c2.3,2.1,3.9,4,4.1,7.3.1,1.5-.3,3.9-1.2,5.1-.4-1.9-.4-3.4-1-5.5h-.4c0,0,0,.2,0,.2,0,.4-.1.7-.2,1.1h0c0,0-.2.6-.2.6,0,1,.1,2.1.1,3.1-.5-.5-1-1.1-1.4-1.7-2-3.1-1.1-7,.3-10.2Z"/>
  <path class="st8" d="M382.5,59.6c-.2-.7-.3-3.5-.2-4.3h.2c0,0,.5,2.3.5,2.3v.3c0,.4-.1.7-.2,1.1h0c0,0-.2.6-.2.6Z"/>
  <path class="st9" d="M470,55.8c1-5.5,3.9-7.5,9.4-8-.9,3.2-1.5,6.3-4.7,8-.9.5-2.5,1.2-3.5.9,1.5-2.5,3.4-4.6,5.5-6.6-.6.4-1.2.8-1.8,1.3-1.9.5-3.9,2.9-4.9,4.5Z"/>
  <path class="st9" d="M482.7,62.8c-1.1-.6-1.2-3.2-1.2-4.3,0-3.3,1.8-5.5,4.1-7.7,1.2,2.7,1.9,5.9,1,8.8-.5,1.4-1.3,2.2-2.3,3.1,0-1,.6-7.2.5-7.5l-.2.3h-.3c-.9,2.6-1.3,4.5-1.7,7.3Z"/>
  <path class="st9" d="M401.4,89.2c2.2,1.2,4.2,3.1,5,5.6.4,1.3.4,2.7,0,4-.5-.8-1-1.6-1.4-2.4-.3-.6-1.3-2.9-1.8-3.2h-.2c-.6,1.1,1.3,5.2,2.1,6.4-4.5-1.9-4.4-6.2-3.7-10.3Z"/>
  <path class="st5" d="M439.1,96.8c.4-.4.6-.7,1-1.1l-.8,1.3-.2-.3Z"/>
  <path class="st12" d="M449.8,88.7h.1c-.1.4-1.6,1.3-2.1,1.6-2.3,1.6-4.6,3.3-6.9,5h0s0,0,0,0c1.9-2.8,6-5,8.9-6.5Z"/>
  <path class="st6" d="M434.1,102.7h0c0,.3-.5,1.3-.7,1.6-1.3,2.6-2.2,5.2-3.1,8h0c0-2.8,2-7.7,3.9-9.7Z"/>
  <path class="st3" d="M387.6,92.2c-.3-1.8-1.5-3.2-2.3-4.9-.6-1.1-.7-5-2.5-4.5h-.4c0,0-.2.2-.2.2-2.6-1.1-2.5,3.1-3.2,4.5-1.4,2.7-2.9,3.6-2.1,6.9,1.9,3.9,3.6,2,6.6,2.6,1.9.9,4.8-2.4,4.1-4.7ZM380.1,89.6c-.2.7-.4,1.5-1,1.9-.4,0-.2,0-.6-.3-.1-.8,1.5-3.3,2-4.7,0-.6.2-1.4.3-2,0,1.5.3,4.1-.7,5.2Z"/>
  <path class="st3" d="M479.4,115.2c-.4-1.1-.6-4.1-2.4-4-.2.1-.2.2-.5.2-2.8-.7-2.5,2.9-3.2,4.5-.7,1.7-2.1,3-2.3,4.8-.4,2.2,1.2,4.6,3.5,4.8.5,0,1.1,0,1.6-.2.8,0,1.5.3,2.2.2,2.3-.2,3.8-2.1,3.6-4.4-.1-2.4-1.8-3.8-2.5-5.9ZM475.1,115.3c-.2,1-1.3,4.4-1.4,4.8-.6,0-.7,0-1-.4,0-.5,1.2-2.9,1.5-3.6.5-1.3.6-2.5,1.1-3.7,0,1-.1,1.9-.3,2.9ZM480.4,122.5c-.5,1-.7,1.3-1.8,1.7-.2,0-.1,0-.4,0,1.6-1.7,1.9-2.2,1.8-4.6.9.5.8,2.3.4,3Z"/>
  <path class="st3" d="M485.8,84c-.7-1.2-.4-3.6-1.8-4.4-.4-.2-.9,0-1.3,0-1.9-.8-2.4,1.5-2.5,2.8-.7,2.5-.8,2-1.8,3.9-1.4,1.1-1.4,4.6-.1,5.9,2,2.1,2.6,1.1,4.9,1.2,1.8,0,3.1.3,4.3-1.5,2.1-3.2-.1-5.3-1.6-8ZM485,92.3h-.2c0-.1,0-.3,0-.3,1.5-1.3,1.8-2.4,1.6-4.3,1.6,1.3.2,3.8-1.4,4.7Z"/>
  <path class="st3" d="M408.4,67.2c-.8-1.3-1.1-2.5-1.5-4-.2-.9-.9-2.6-2.1-1.9-.3.2-.2.1-.5,0-.6-.5-1.2,0-1.6.5-.8,1.1-.7,2.8-1.3,4-.9,2.1-2.8,3.5-2.3,6,.2,1.2.9,2.2,1.9,2.9.6.4,1,.5,1.7.7.5-.2,1.2-.3,1.7-.5,1.2.3,2.6.8,3.6-.2.7-.4,1.4-1.1,1.6-1.9,1-2,0-3.9-1.1-5.6ZM407.3,72.8c.7-1.7.8-1.8.6-3.7l.2-.2c.3.7.3.8.4,1.6v.6c-.2.6-.5,1.5-1.2,1.7Z"/>
  <path class="st3" d="M467.3,69.6c-.4-1.3-1.5-2.4-2-3.7-.6-1.4-.7-3-1.5-4.3-.2-.3-.7-.5-1-.5-.6,0-1.1-.1-1.6-.2-1.9,1.2-1.4,2.9-2.2,4.8-.7,1.6-1.9,2.5-2.3,4.2-.2,1.2,0,2.4.6,3.3.8,1.2,1.8,1.7,3.1,1.9,1.3-.4,1.5-.6,2.7-.2,3.1.6,5-2.9,4.2-5.5ZM459.5,69.3c-.2.3-.5.3-.8.4-.7-1.2,1.4-3.5,1.9-4.9l.4-1.1c0,1.4-.7,4.4-1.5,5.6Z"/>
  <path class="st3" d="M386.5,114.1c-.6-1.1-.4-4.5-2.5-3.7-.4-.1-.4-.3-.7-.4-2.2,1.4-1.1,2.6-2,4.2-1.7,2.8-3.7,6.3.8,8,.7.3,1.7-.3,2.8,0,.9.1,1.5-.2,2.2-.7,2.8-2.2.6-5.2-.6-7.5ZM382.9,113.6c-.3,1.2-.7,3.9-1.7,4.5-.8-.8-.2-1.5.2-2.4.4-.9.8-1.6,1.2-2.5v-.2c0-.2.3-.8.3-1,.1.6,0,1.1,0,1.7Z"/>
  <path class="st3" d="M454.6,108.2c.7-.7,1-.4,1.9-.5,1.6-.1,1.5,2.4,1.9,3.5.7,1.6,2.1,3,2,4.9,0,1.4-1.4,3.3-3,3.1-.8-.1-1.3-.2-2.1,0-2.8.5-4.4-2.4-3.3-4.8.4-.9.9-1.8,1.5-2.5.4-1.1.6-2.6,1-3.5Z"/>
  <path class="st7" d="M459,114.5c1.3,1.1,0,2.9-1.2,3.6-.3,0-.2,0-.4-.2,1.1-1.2,1.4-1.8,1.5-3.4Z"/>
  <path class="st9" d="M354.1,82.4c5.2.1,8.4,2,10,7-1.1-.8-3-2.1-4.1-2.7l-.3.3c.9.8,4.1,3.3,4.6,4.3-.2,0-.1,0-.3,0-1.6.4-3.7-.4-5.1-1.2-2.9-1.6-4-4.6-4.8-7.6Z"/>
  <path class="st7" d="M358,85.5c.7,0,1.4.8,2,1.2l-.3.3-1.7-1.5Z"/>
  <path class="st9" d="M503,89.5c1.4-5.1,5.1-6.8,10.1-7.2-.7,3.1-1.9,5.8-4.7,7.7-1.4.9-3.6,1.4-5.3,1.2.2-1,5.2-5,6.3-5.9-1.3,0-5.2,3.2-6.4,4.2Z"/>
  <path class="st9" d="M411.6,42.8h.2c.2,1.1-.6,4-1.1,5-1.3,2.4-2.9,3.4-5.4,4.2,1-2,2.9-4.5,4.2-6.3h0c-1.1.1-4.2,4.3-5,5.4.2-4.7,2.9-7.2,7.3-8.3Z"/>
  <path class="st9" d="M455.4,42.8c4.9,1.2,7.1,3.3,7.5,8.3-1.2-1.8-3.2-4.6-5.3-5.6.2.3,1.2,1.5,1.4,1.9,1.1,1.6,2.1,2.9,3,4.6-4.8-1.6-6.2-4.4-6.7-9.3Z"/>
  <path class="st9" d="M425.8,63.4h.1c.5,1.2.7,3.8.4,5-.5,2.5-1.6,3.8-3.6,5.2.2-1.4.5-2.7.9-4.1.2-.8.9-2.3,1-3.1h-.2c-1.2,1.8-2.2,5-2.9,7.1-1.4-4.6.4-7.6,4.2-10.1Z"/>
  <path class="st9" d="M413.7,60.6c3.7,2.1,4.9,5.4,3.5,9.5-.7-1.8-.9-3.4-1.8-5.2l-.2-.2c-.2.5.7,4.6.9,5.5-3.5-2.2-3.3-6-2.4-9.5Z"/>
  <path class="st9" d="M376.5,106.7c1,0,1.6,0,2.6,0-2.4,1.1-3.7,2.2-5.8,3.9,1.4-.5,4.5-2.2,6.2-2.9-.4,1-.6,1.3-1.2,2.2-2.2,2.4-4.6,2.8-7.6,2.7,1-2.9,2.8-5.2,5.8-5.9Z"/>
  <path class="st9" d="M463.2,106.4c4.1.9,5.4,4.3,5.7,8-2.4-.7-3.8-1.3-5.4-3.1-1-1.3-1.3-2.9-1.4-4.5,1.8,1.8,2.9,3.1,4.4,5-1.1-2.1-1.8-3.7-3.3-5.4Z"/>
  <path class="st9" d="M453.2,60.5c1.5,4,.9,7-2.3,9.8.3-1.9,1.1-4.5,1.1-6.3h-.1c-1,1.8-1.3,4-2.1,6-1.3-4.2-.1-7,3.4-9.4Z"/>
  <path class="st9" d="M396.3,40.6c3.8,1.4,5.4,5,4.5,8.9-.7-2.1-1.2-3.1-2.3-5h0c-.1.4,1.3,4.6,1.5,5.4-4-2.8-4-4.7-3.5-9.2Z"/>
  <path class="st9" d="M470.7,40.6c.5.8.3,4.7-.1,5.7-.7,1.7-1.6,2.7-3.3,3.6.5-1.8,1.1-3.6,1.6-5.4h-.1c-1.4,1.7-1.6,3.1-2.5,4.9h0c-.5-4.6.6-6.3,4.5-8.8Z"/>
  <path class="st9" d="M391.7,92.3c3.9,1.2,5.8,3.4,5.8,7.6-.7-.7-3.3-4.5-3.9-4.7.9,2.4,1.9,3.6,3.4,5.6-4.5-1.9-5.4-3.7-5.3-8.5Z"/>
  <path class="st9" d="M397.1,108.5c.1,0,0,0,.2,0-.3.6-.8,1-1.3,1.5-1.1,1.3-1.6,2.1-2.4,3.6,1.5-1.7,3.1-3,4.7-4.6-.2,1.7-.2,2.2-1,3.7-1.8,2.2-3.2,2.7-5.8,3.6.4-4.2,1.6-6.2,5.5-7.8Z"/>
  <path class="st9" d="M475.1,60.1c1.4.7,2.5,1.8,3.2,3.1,1,1.9,1,3.8.5,5.8-.8-2-1.4-3.7-2.3-5.7l-.2.4c.5,1.3,1.3,4.6,1.5,5.9-3.7-2.3-3.4-5.7-2.7-9.4Z"/>
  <path class="st6" d="M476.2,63.6c-.1-.5-.1-.5-.1-1h.1s.3.7.3.7l-.2.4Z"/>
  <path class="st9" d="M374.3,74c2.1-.2,3.5.7,5,1.9-2.1-.3-4.1-.2-6.2,0,1.9.4,3.8.7,5.7,1,.2,0,0,0,.2.2-.4.5-1.8,1-2.5,1.1-2.7.4-4.6-.8-6.7-2.4,1.3-1,2.9-1.6,4.5-1.8Z"/>
  <path class="st9" d="M391.9,60.2c.6.6.8,4,.5,5.1-.4,2.1-1.4,3.2-3.1,4.3.3-1.7,1.5-5.2,1.6-6.5-1.1,1.6-1.9,4.2-2.6,6.1-1-3.9.3-6.7,3.6-8.9Z"/>
  <path class="st9" d="M492.4,74c2.2,0,3.3.6,5,1.8-2.6,2.4-5.9,3.3-9.1,1.3h-.1c.2-.3,5.3-.9,6.1-1.2-2.4-.3-3.9-.3-6.3-.2,1.2-1.2,2.7-1.6,4.3-1.8Z"/>
  <path class="st9" d="M467.5,92.9c.8-4.2,1.9-6.3,6.2-7.8,0,3.2-.6,6.6-4,8,.2-1,.3-1.5.7-2.4.2-.5.7-1.6.9-2.1l-.4.4c-.4.1-1.1,1.2-1.4,1.7-.6.3-1.6,1.6-2,2.2Z"/>
  <path class="st9" d="M362.2,95.1c1.6-.1,2.1,0,3.6.4-1.7.5-2.7.9-4.3,1.7,1.6-.1,3.1-.5,4.7-.7-.6.8-.9,1.1-1.7,1.7-.1,0-.3.2-.4.3-2.1,1.3-4.3.8-6.6.3,1.3-1.9,2.4-2.9,4.6-3.6Z"/>
  <path class="st9" d="M503.1,95.1c3.3-.2,4.8,1.1,6.4,3.7-2.3.5-3.8.8-6,0-1.4-.8-1.7-1.2-2.9-2.4,1.9.4,3,.7,4.9.8-1.4-.7-2.8-1-4.2-1.5.6-.3,1-.4,1.7-.6Z"/>
  <path class="st9" d="M473,96.1c1.2,0,2,.4,3.1,1-1.2.8-2,1.3-3.5,1.6-1.3,0-2-.4-3.2-.9,1.4-1,1.8-1.4,3.6-1.6Z"/>
  <path class="st9" d="M456.4,55.2c2.6-.2,4.4-.3,5.5,2.5-1.4,0-2,.2-3.4-.4-.8-.3-1.8-1.3-2.1-2Z"/>
  <path class="st9" d="M408,55.1c1,0,2,0,3,0-.8,1-1.7,1.8-2.9,2.3-1.1.3-1.7.2-2.8,0,.9-1.2,1.3-1.9,2.7-2.4Z"/>
  <path class="st9" d="M486.6,70.4c.2,1.6-.4,2.3-1.3,3.4-.4-1.1.7-2.6,1.3-3.4Z"/>
  <path class="st1" d="M449.3,37.3c-3.5,0-6.9,0-10.4,0-.6-1.2-4.6-8.4-5.2-9l-5.2,9h-10.3c1.6,3,3.5,6,5.1,8.9-1.7,3-3.4,6-5.1,9h10.3c.6,1.1,4.6,8.2,5.2,8.8h.1c1.7-2.9,3.4-5.8,5-8.8h10.4c-1.7-2.9-3.5-6.2-5.2-9,1.7-2.9,3.4-6,5.2-8.9ZM444.7,40c-.4.7-.9,1.5-1.3,2.3l-.8,1.2-2.1-3.5h4.2ZM433.7,33.7c.2.3,1.8,3.1,2.1,3.6h-2s-2.2,0-2.2,0l2.1-3.6ZM422.8,40h4.1c-.4.7-.8,1.4-1.2,2.1l-.8,1.4c-.7-1.2-1.4-2.3-2.1-3.5ZM425.2,52.6h-2.3c.5-1.1,1.4-2.5,1.9-3.6.5.2,1.8,3,2.2,3.6h-1.8ZM434.5,57.6l-.7,1.2c-.8-1.2-1.3-2.3-2.1-3.6h4.2s-1.4,2.4-1.4,2.4ZM437.3,52.6c-2.4,0-4.9,0-7.2,0-1-2-2.5-4.4-3.6-6.3,1.1-2.1,2.4-4.2,3.6-6.3h7.3c1.1,2.1,2.3,4.2,3.6,6.2-1,2-2.5,4.4-3.7,6.4ZM444.7,52.6h-2s-2.3,0-2.3,0c.7-1.2,1.4-2.4,2.1-3.5.3.3,1.8,3,2.2,3.6Z"/>
  <g>
    <path class="st2" d="M124.2,77.2c-1-1-3.4-5.2-4.2-6.6,1.4-.5,2.7-1.3,3.3-2.7.6-1.3.7-2.9.2-4.3-.5-1.3-1.6-2.3-2.9-2.8-2.7-1.1-6.1-.8-9-.8-1.5,0-3,0-4.5,0,0,.3-.1.7,0,1,.8.9,1.5.8,1.5,2.2.1,2.8,0,5.6,0,8.3,0,1.5.1,3.1,0,4.5,0,.5-.1.9-.4,1.3-.4.4-1.2.7-1.2,1.4,0,.2,0,.3.3.4.4.1,6.8.1,7.5,0,.2,0,.3,0,.5-.1,0,0,0,0,0,0,0-.3,0-.4-.2-.6-1.6-1.8-1.7-.8-1.7-3.7,0-1.2,0-2.3,0-3.5.6,0,1.3,0,1.9.1,1.3,2.3,2.3,4.7,3.8,6.9,1,1,2.2,1.1,3.5,1.1.9,0,2.2.1,3-.2.2-.2.2-.3.2-.5,0-.5-1.4-1.1-1.8-1.5ZM117.9,68.4c-1.3.9-2.9.9-4.4.8,0-2.3,0-4.6,0-6.8,1.5,0,3.3-.2,4.5,1,.6.6.9,1.4.9,2.3,0,1.2-.3,2-1.1,2.8Z"/>
    <path class="st2" d="M85.7,70c1.1-1.2,1.6-2.8,1.5-4.3,0-1.5-.6-2.9-1.7-3.9-2.5-2.3-7-1.8-10.2-1.7-1.6,0-3.3,0-4.9,0,0,.3-.1.7,0,1,.4.5,1.1.6,1.4,1.3.4,1.1.2,11.4.2,13.3,0,.8,0,1.5-.7,2-.4.3-1,.7-1,1.2,0,.2,0,.2.1.4.9.1,7.7.2,8.1,0,.1,0,0,0,.1-.3-.2-.6-.8-.9-1.2-1.3-.2-.2-.5-.4-.6-.7-.3-.9-.1-3.5-.2-4.6,3,0,6.7.2,9-2.2ZM76.7,62.3c1.4,0,3.2-.2,4.3.8.7.6,1.1,1.6,1.1,2.6,0,1.2-.2,2.4-1,3.3-1.4,1.1-2.8.9-4.4.9,0-2.5,0-5,0-7.5Z"/>
    <path class="st2" d="M141.4,60c.2,0,.4,0,.7,0,.1,0,.1,0,.2.1.2.6.5,4.1.3,4.6,0,.1-.2.2-.3.2-.6.1-1.1-1-1.5-1.4-.4-.4-.8-.7-1.3-.9-1.4-.6-4-.3-5.5-.3v5.8c.9,0,1.9,0,2.8,0,1.8-.2,1.3-.4,2.3-1.5.2-.2.3-.3.6-.3.2,0,.3,0,.4.1.2.6.2,4.2.1,4.9,0,.3,0,.5-.2.8-.1.1-.2.2-.4.2-.5,0-.7-.8-1.1-1.2-.9-.9-3.4-.7-4.6-.7,0,2.1,0,4.2,0,6.4,1.2,0,2.4,0,3.6,0,1.6,0,2.8-.4,3.9-1.6.4-.4.7-1.2,1.2-1.4.2,0,.3,0,.5,0,.6.9-.1,4.3-.3,5.5-3.2,0-6.4-.1-9.5,0-1.9,0-3.7,0-5.6,0l-.2-.2c0-.9,1.4-1.4,1.6-2.2.3-1.3.3-13.2,0-14.3-.2-.7-1.2-1-1.5-1.7-.1-.2,0-.3,0-.5.3-.2.4-.2.7-.2,1.3,0,2.6,0,3.8,0,3.2,0,6.3,0,9.5,0Z"/>
    <path class="st2" d="M89,60.1c4.9-.1,9.9,0,14.8,0,.2,1.1.6,3.6.3,4.6,0,.3-.2.3-.4.4-.7,0-1-1.1-1.5-1.5-1.6-1.5-4.9-1.2-6.9-1.2,0,1.9,0,3.9,0,5.8,1.2,0,2.5.1,3.6-.2.6-.1,1-.4,1.3-.9l.3-.5c.3-.2.4-.2.7-.2.1,0,.2,0,.3.2.2.5.1,5.2,0,5.8,0,0-.1,0-.2,0-.8,0-.9-.8-1.4-1.2-.9-.9-3.4-.6-4.6-.6v1.7s0,4.6,0,4.6c2.5,0,5.5.6,7.4-1.4.4-.4.8-1.4,1.3-1.6.3,0,.5.1.8.3.2.6-.5,4.5-.7,5.2-3.5-.2-7.1-.1-10.6-.2-1,0-3.7.2-4.5,0,0-.1,0-.2,0-.3,0-.6.8-1,1.2-1.4.3-.3.4-.8.5-1.2.2-1.5,0-3,0-4.5v-7c0-.8.1-2.5-.6-3-.3-.2-.7-.4-1-.7-.2-.2-.1-.7,0-1Z"/>
    <path class="st2" d="M146.5,59.9c1.3,0,2.6.1,3.9.1h11.1s0,1.4,0,1.4c-3.4,5.1-6.9,10.2-10.1,15.4,2.9,0,6.9.7,8.7-2,.3-.4.5-1,.9-1.2.3,0,.5.1.8.3.3.6-.5,4.5-.6,5.4-.8.2-3.4,0-4.4,0h-11.5c0-.5,0-1,0-1.6.9-1.6,2.1-3.2,3.1-4.7,2.4-3.5,4.8-7,7-10.6-1.8,0-4.1-.2-5.9.4-1.3.5-2,1.5-2.6,2.7-.4,0-.8-.2-1.1-.3.3-1.7.4-3.5.7-5.3Z"/>
  </g>
  <path class="st1" d="M438.7,66.9h.1c.6,2.5,0,5.7-2,7.2-.8.6-2.6,1.8-2.5,2.9,1.1.6,1.7.5,2.4,1.9.5,1.2.6,2.5,1.1,3.7.9,1.9,2.2,2.9,2.3,5.1.2,2.9-1.9,5.9-5,5.9-.4,0-1.2-.3-1.6-.2-2.7.2-3.5.5-5.6-1.5-.5-.7-.9-1.4-1.1-2.2-.3-1-.3-2,0-3,.5-1.7,1.6-2.7,2.3-4.3.6-1.2.6-2.8,1.3-4,.7-1.2,1.9-1.4,3.1-1.7-3.8-.6-5.1-1.5-5.7-5.5,2.3,0,4,.3,5.4,2.2,0-4.2,2-5.2,5.4-6.7Z"/>
  <path class="st3" d="M438.7,87.1c-.4-1.4-1.5-2.6-2.1-4-.6-1.3-.7-4.3-2.3-4.7-.8.3-.7.3-1.3,0-1.4,0-1.9,1.7-2.1,2.8-.7,3.2-1.9,3.5-2.5,5.4-.4.9-.5,2-.3,2.9.3,1.1,1,1.9,1.9,2.5,1.3.7,2.2.5,3.5.1,2.4.8,4.6,0,5.2-2.7.2-.8.1-1.6,0-2.3ZM431.8,83.8c-.1.5-.9,3.1-1,3.4-.5,0-.7,0-1.2-.3,0-1.1,1.3-2.7,1.9-4.2,0-.2.4-1.3.5-1.6h.3c-.1.9-.3,1.8-.5,2.6Z"/>
  <path class="st9" d="M437.6,68.6h0c.2.6,0,1.9-.1,2.4-.5,1.8-1.8,2.5-3.3,3.4v-.2c-.4-2.7,1-4.6,3.3-5.7Z"/>
  <path class="st9" d="M429.4,72.7c2,0,2.7,1,3.7,2.7-2.1.3-3.1-.9-3.7-2.7Z"/>
  <path class="st1" d="M368.5,62.9c5.3-.5,8.7,1.9,10.4,6.9-1.9.8-3.4,1.2-5.4,1.4-5.3,0-7.7-2.4-10.7-6.5,2.2-.9,3.4-1.4,5.7-1.8Z"/>
  <path class="st9" d="M364.6,65.1c4.5-1.8,9.3-2.1,12.1,2.6-1.2-.5-3.1-.9-4.4-1.3.5.6,1.2.6,2,1.3.7.3,2.5.9,2.9,1.5-.2.2-.4,0-.8,0-.8.6-3.4.9-4.5.8-3.4-.4-5.2-2.4-7.2-4.9Z"/>
  <path class="st6" d="M368.1,66.1c.7-.1,3.4.2,4.2.4.5.6,1.2.6,2,1.3-1.4-.4-3.1-.9-4.5-1.3l-.4.3c-.5-.2-.8-.3-1.3-.5h0Z"/>
  <path class="st1" d="M496.2,100.1c5.4-.5,8.5,3.4,10.5,7.9-1.9.3-3.1.5-5,.7-5.8,0-8-1.8-10.8-6.7,2.1-1.1,3-1.6,5.3-2Z"/>
  <path class="st9" d="M495.1,102.1l-.7-.3c0-.2,0-.1.2-.2,2-.6,4.2-.6,6,.5,2,1.1,3.3,3.1,4.5,5-4.7.9-9.4.7-12-3.9-.3-.2-.5-.2-.6-.5.3-.3.3-.2.9-.4h.2c.9-.1,1,.5,1.7,0h-.1s0-.2,0-.2Z"/>
  <path class="st6" d="M495.1,102.1c1.6.4,4.3,1.1,5.3,2.6-1.8-.8-3.6-1.5-5.5-1.9-.4-.1-1.2-.3-1.6-.5h.2c.9-.1,1,.5,1.7,0h-.1s0-.2,0-.2Z"/>
  <path class="st1" d="M496.6,62.8c2.8-.2,5.3.8,7.8,1.9-2.1,3-4.4,5.4-8,6.3-2.4.5-5.9-.2-8-1.3,1.6-4.1,3.7-6.5,8.3-6.9Z"/>
  <path class="st9" d="M490.6,67.6c3.1-4.5,7.4-4.1,12.1-2.5-2.2,2.5-3.8,4.5-7.5,4.9-.9,0-3.2,0-4-.5,0-.2,0-.1,0-.3-.4,0-.9.2-1.2,0,.6-1,7.1-2.7,8.5-3.1-2.4-.3-5.5.9-7.8,1.4Z"/>
  <path class="st1" d="M367.8,100.1c2.9-.4,4.7.4,7.1,2-1.9,4-4,6.1-8.4,6.7-2.2.3-4.8-.2-7-.7,1.5-3.8,4-7.2,8.3-7.9Z"/>
  <path class="st9" d="M361.1,107.1c2.3-4.4,5.3-6.7,10.5-5.7-1.5.6-6.3,2.7-7.1,3.9h0c1.2-.8,7.4-3.8,8.7-3.1v.3c-2.3,4.9-7.4,5.5-12.1,4.5Z"/>
  <path class="st1" d="M367.4,77.2c2.6,1.5,5.2,5,5.7,8,.5,3.1-.4,5.6-2.1,8.2h-.3c-1.7-.8-4.1-3.1-4.8-5-1.5-4.2-.2-7.4,1.4-11.2Z"/>
  <path class="st9" d="M367.9,78.9c2.1,1.8,4.1,4.6,4.2,7.4.1,1.6-.4,3.9-1.4,5.1v.4c0,0-.2.1-.2.1-.3-.2-.4-.5-.6-.8-.6-.1-.9-.4-1.3-.9-2.2-2.2-2.5-5-1.9-7.9.2-1.2.6-2.3,1.1-3.4Z"/>
  <path class="st1" d="M499.8,77.2c.1.2.1.1.2.3,1.7,3.5,2.6,6.8,1.2,10.6-.8,2.1-2.9,4.4-5,5.3-4.4-6.8-2.3-11.5,3.5-16.3Z"/>
  <path class="st9" d="M499.4,79c-3.6,3.2-5.7,7.4-3.1,12,.1,0,0,0,.2,0h0c.8-1.3,1.2-5,1.7-6.7v-.7c.2-.4.2-.5.3-.8h.1c.4,1.2.3,2.1,0,3.1-.2,2-.5,3-1,5,.4,0,1.1-.8,1.4-1.2,2.5-3,1.9-7.3.3-10.7Z"/>
  <path class="st9" d="M480.4,106.4c7.2-.4,11,3.1,11.4,10.4-3.7-.4-7.2-1-9.7-4.1-1.2-1.6-2-3.8-1.8-5.8v-.4Z"/>
  <path class="st1" d="M480.4,106.4c7.2-.4,11,3.1,11.4,10.4-3.7-.4-7.2-1-9.7-4.1-1.2-1.6-2-3.8-1.8-5.8.8,1,1.1,1.4,2.1,2.2-.3,0-.3,0-.6,0v.2c0,1,.5,1.7,1,2.4,2,2.8,4.5,3.3,7.7,3.8-.1-.6-.2-1.1-.4-1.7-.7-2.7-2.4-5.1-5.3-5.8-.5-.1-1.4-.3-1.8-.2-1,.2-.9-.7-1.8-.8-.3-.2-.5-.3-.8-.5Z"/>
  <path class="st6" d="M481.3,106.9c.9,0,.8,1,1.8.8.9.6,4.4,3.8,4.6,4.7-.2-.2-.5-.4-.7-.5-1.4-1.5-4-3.3-5.7-4.9Z"/>
  <path class="st1" d="M441.5,62.9c2,1.1,4.4,3.1,5.3,5.3,1.4,3.3.4,5.5-.9,8.6,0,0-.1.1-.2.2-1.7-1.5-3.7-2.6-4.7-4.6-1.5-3.1-.6-6.3.4-9.4Z"/>
  <path class="st9" d="M442.1,64.6c1.2.5,3,2.5,3.6,3.7,1,2.2.9,3.8.2,6-.7-2-1.5-4.2-2.3-6.2-.1-.2-.1-.2-.3-.4,0,.8,1.3,5.6,1.6,6.7-3.8-2.4-3.8-5.9-2.7-9.8Z"/>
  <path class="st1" d="M369.1,53.2c6.1.4,8.9,3.6,9.1,9.5-6.2,0-8.3-4-9.1-9.5Z"/>
  <path class="st9" d="M370.5,54.5c4.2.9,6.1,2.7,6.6,7.1-4.1-.9-6-2.9-6.6-7.1Z"/>
  <path class="st1" d="M497.8,53.2h.1c0,.7,0,1.5-.2,2.1-.9,4.9-3.8,6.9-8.6,7.4-.8-1,.8-5.3,1.7-6.3,1.9-2.2,4.1-2.9,6.9-3.2Z"/>
  <path class="st9" d="M496.4,54.5c.2,0,0,0,.3.1,0,.9-.5,2.6-1,3.4-1.4,2.3-2.8,2.8-5.2,3.5-.2,0,0,0-.3,0-.1-1.1.6-2.9,1.2-3.9,1.2-1.8,3-2.5,5-3Z"/>
  <path class="st1" d="M464.9,86.9c.2,0,.2,0,.4,0,.3.4.2,1.1.2,1.7-.4,4.8-2.3,7.1-7,8.1-.1,0-.2,0-.4,0-.7-1.1,0-4.2.5-5.3,1.4-2.6,3.5-3.6,6.2-4.5Z"/>
  <path class="st9" d="M464.2,88.3v.2c0,2.9-1.4,6-4.5,6.7.8-1,1.6-2.4,2.3-3.5-.8.4-2.6,2.4-3.1,3.1.6-3.6,1.8-5.2,5.3-6.4Z"/>
  <path class="st1" d="M411.1,92.7c5.5,1.5,6.6,4.9,5.7,10.1-5.3-1.7-6.5-5-5.7-10.1Z"/>
  <path class="st9" d="M412,94.3c3.4,1.2,4.4,3.6,4,7-3.3-1.6-4.2-3.5-4-7Z"/>
  <path class="st1" d="M357.3,71c5.2,1.5,6.9,4.3,6.3,9.6-1.3.1-4.1-1.7-4.9-2.7-1.5-2.1-1.7-4.4-1.4-6.9Z"/>
  <path class="st9" d="M358.2,72.6c3.4,1.2,4.4,3.4,4.5,6.8-3.4-1.4-4.3-3.3-4.5-6.8Z"/>
  <path class="st1" d="M509.7,71h.3c.5,1-.1,4.5-.6,5.6-1.1,2.4-3,3.2-5.3,4-.2,0-.1,0-.3-.2-.3-1.3-.2-3.7.4-5,1.1-2.6,3.2-3.4,5.6-4.4Z"/>
  <path class="st9" d="M508.9,72.5c.1.6,0,2,0,2.5-.6,2.2-2.3,3.2-4.1,4.3-.2-.8,0-2.4.3-3.2.8-2,2-2.8,3.8-3.7Z"/>
  <path class="st1" d="M455.9,90.3h.2c.4,1.9-.5,4.8-1.6,6.3-1.1,1.6-3.2,2.1-5,2.5-.1,0,0,0-.2,0,0-5.2,1.5-7.4,6.6-8.7Z"/>
  <path class="st9" d="M454.7,91.7h.1c.2.6-.4,2.7-.7,3.3-.8,1.5-1.9,2.1-3.5,2.6h-.2s-.1-.2-.1-.2c.4-3.2,1.4-4.5,4.3-5.7Z"/>
  <path class="st1" d="M408.8,77.1c2.8-.2,5.7,0,7.3,2.7.4.7,1.2,2.7,1,3.4h-.3c-1.2.1-2.1.2-3.3,0-1.7-.4-3.2-1.4-4.1-2.9-.3-.5-1.4-2.3-1.2-2.9,0-.2.2-.2.4-.2Z"/>
  <path class="st9" d="M410.1,78.2c1.8-.1,2.9.2,4.4,1.4.6.5,1.4,1.8,1.5,2.6-2.2,0-4.2-.5-5.4-2.5-.3-.5-.6-.9-.4-1.5Z"/>
  <path class="st1" d="M427.8,76.5h.4c.6.7-.2,4-.7,4.8-1.1,2.1-2.9,2.8-5,3.4h-.3c-.3-.6-.2-1.8-.2-2.5.2-3.6,2.7-5.1,5.8-5.8Z"/>
  <path class="st9" d="M426.7,77.9h.3c.2.5,0,1.8-.3,2.3-.7,1.8-1.8,2.4-3.4,3.2h-.2s-.1,0-.1,0c0-2.9,1.1-4.3,3.7-5.4Z"/>
  <path class="st1" d="M455.6,76.3c.4,0,.2,0,.5,0,.2,1.2-.6,3.9-1.3,4.9-1.4,1.9-2.8,2.3-5,2.7h-.3c-.2-.1-.2-.1-.2-.3,0-4.5,2-6.8,6.3-7.4Z"/>
  <path class="st9" d="M454.5,77.6c.2,0,.2,0,.4,0-.2,2.7-1.6,4.2-4.1,5.1-.2,0-.1,0-.3-.1,0-.7.4-1.8.7-2.5.8-1.5,1.8-2,3.3-2.5Z"/>
  <path class="st1" d="M513.1,91.6c2.4-.2,4.9,1.8,6.2,3.7-1.5.6-2.4,1-4,1.2-.6,0-1.2,0-1.8,0-1.9-.4-3.4-1.8-4.4-3.3,1.4-.8,2.5-1.3,4-1.5Z"/>
  <path class="st9" d="M513.4,92.7c1.1,0,3.1.8,3.7,1.7.1,1-1.4,1-2.1,1.1-2.2-.2-2.7-.5-4.2-2.1.8-.3,1.7-.6,2.6-.7Z"/>
  <path class="st1" d="M353.8,91.6c1.6,0,3.1.7,4.4,1.5-1.4,2.1-3,3.1-5.5,3.3-1.9-.1-2.9-.5-4.6-1.2.1-.2.2-.3.4-.5,1.5-1.9,2.9-2.9,5.4-3.2Z"/>
  <path class="st9" d="M353.1,92.8c1.5-.1,2.2.1,3.6.6-1.1,1.1-1.7,1.6-3.3,1.9-1.3.1-2.5,0-3.7-.5,1.3-1.1,1.8-1.6,3.5-2.1Z"/>
  <path class="st1" d="M493.3,90.6h.2c.6,4.2-.8,7.4-5.1,8.4-.2,0,0,0-.3-.2-.3-4.5,1.1-6.4,5.2-8.2Z"/>
  <path class="st9" d="M492.4,92.2c.6,2.5-1.2,4.5-3.3,5.6,0-.5.2-1.8.4-2.3.7-1.7,1.4-2.5,2.9-3.3Z"/>
  <path class="st1" d="M392.2,84.1c2.6-.2,4,1.6,4.7,3.9.2.6.4,1.3,0,1.9-.6.3-1.8-.2-2.5-.5-1.8-.6-4.5-2.4-5.8-3.7,1.2-.8,2.2-1.3,3.6-1.6Z"/>
  <path class="st9" d="M392.6,85c2.5-.2,3.1,2,3.5,4-.6-.2-1.1-.4-1.6-.6-1.3-.5-3.1-1.6-4.3-2.4.8-.4,1.6-.8,2.4-1Z"/>
  <path class="st1" d="M438,75.5c4.6.5,6.7,2.4,6.4,7.2-4.5-.8-5.9-2.7-6.4-7.2Z"/>
  <path class="st9" d="M439.3,76.8c2.7.3,4.1,2.1,4.4,4.7-2.5-1-3.8-1.9-4.4-4.7Z"/>
  <path class="st1" d="M419.5,138.3s0,0,0,0c.1.5.3.8.2,1.4-.1.3-.3.4-.6.5-2.2,1.3-4.8,2.3-7.1,3.3-3.3,1.5-6.6,3.1-10,4.4-.2,0-.3,0-.5,0v-.2c1.3-1.1,3.3-2,4.8-2.8,4.3-2.3,8.7-4.6,13.1-6.7Z"/>
  <path class="st1" d="M483.1,96.7c.5,0,1.3,0,1.8,0-.9,2.6-2.1,4.7-5.1,5h-2.1c.8-3.2,2.3-4.7,5.4-5Z"/>
  <path class="st9" d="M482.9,97.8h.3c.1.9-1.4,2.3-2.1,2.8-.6.3-1.1.4-1.7.5-.3,0-.2,0-.4-.1,0-.4.1-.7.4-1.1,1.1-1.5,1.9-1.8,3.6-2.1Z"/>
  <path class="st1" d="M408.2,153.7c.8,2.6,1.1,3.9,3,6,.4.5.9,1,1.4,1.3l.5-1.2,1.3-3.6c-1.5-.6-4.8-2.3-6.2-2.5ZM412.3,158.2c0,.2,0,0-.2.2-.9-.5-1.5-1.8-1.9-2.8.9.4,1.7.9,2.5,1.3l-.4,1.2Z"/>
  <path class="st1" d="M408.4,127.2l-3.1,1.2c-.2.9-1.3,5.7-1.1,6.2h.2c1.6-1.3,3.2-2.5,4.7-3.8-.2-.7-.6-3.5-.6-3.6ZM406.1,131.5h-.1c0,0,0,0,0,0,.1-1.2,0-1.8,1.3-2.4.3.1.3.9.3,1.2-.5.4-1,.8-1.4,1.2Z"/>
  <path class="st1" d="M412.6,71.7c2.9,1.2,6,2.9,4.9,6.7h-.2c-3.4-2-4.9-1.8-4.7-6.7Z"/>
  <path class="st9" d="M413.4,73.1c1.9.7,3.1,1.9,3.4,3.9-2.2-.3-3.2-1.9-3.4-3.9Z"/>
  <path class="st1" d="M380,68.8c2.9,1.8,3.3,3.3,2.8,6.5-3-1.3-3.3-3.7-2.8-6.5Z"/>
  <path class="st9" d="M380.4,70.3c.8.4,1.1.8,1.7,1.5.1.9.2,1.1,0,1.9-1.6.1-1.7-2.4-1.7-3.4Z"/>
  <path class="st1" d="M415.5,148c-.1-.3-.5-.6-.8-.7-.6-.2-1.5-.3-2.1-.3-.9.7-1.7,1.7-2.6,2.4,1.2.5,2.4.9,3.6,1.3.6-.1,1.4-1.1,1.7-1.6.2-.3.3-.7.2-1.1ZM413.2,149.3c-.3,0-.5-.1-.8-.3.1-.4.5-.6.8-.8.3.2.5.4.6.7-.2.3-.3.3-.7.4Z"/>
  <path class="st1" d="M418,130.1c.3.2.6.6.8.9-2.8,1.9-5.3,3.5-8.2,5.2-.3,0-.3,0-.5,0v-.2c.7-1.2,6.5-5,8-6Z"/>
  <path class="st1" d="M407.2,140.2c.3,0,.3,0,.5.2v.3c-.7,1.3-3.2,2.4-4.5,3.1h-.2s-.1,0-.1,0c0,0,0,0,0-.1.3-.8,3.4-3,4.3-3.5Z"/>
  <g>
    <path class="st6" d="M352.2,122.8v-.3c.5.5.2,1.2.6,1.7.4-.2.4-.4.6-.8l.2-.2.2.3h.1c.3-.9-.3-2.9-.4-3.9l-.7,1c0-.5.3-3.5.2-3.7h-.1c-1,1.5-1.7,4.2-.8,5.9h.1Z"/>
    <path class="st6" d="M356.6,142.6c-.2.4-.3.7-.3,1.1-.3-.7-.7-2.7-1.4-3,0,2,.5,3.6,1.8,5h0c0,0,.1-1.8.1-1.8,1,1.8,1.4,3,1.6,5,.4-.4.5-.9.5-1.4,0-1.7-1.3-3.6-2.3-5h-.2Z"/>
    <path class="st6" d="M363.8,126c-1.1.3-2.2.8-3.2,1.3,1.8.3,2.6,1.1,3.4,1.1,1.3,0,1.7.1,2.9.6-.5-.7-2.2-2.9-3-3Z"/>
    <path class="st6" d="M342.1,134.3c0,0,0,.3,0,.4.3-.5,3.4-5.1,3.5-5.3-1.7,1.2-3.1,2.8-3.5,5Z"/>
    <path class="st6" d="M362.9,130.3c-1-.2-1.9-1.4-2.7-1.6,1,2,2,2.6,4.1,1.8h0c-.6-.2-1-.1-1.5-.2Z"/>
    <path class="st6" d="M358.2,139.1h0c0-.1.4-1.4.4-1.4-1.1.2-2,.5-3.1.9h0c0,0,0-.3,0-.3.4-.9.6-1.2,1.1-2-1.7.4-2.1.7-3.4,1.9,0-1.8.3-2.5,1.1-4.1-1.7.3-2.6.8-4,1.7.6-2.6,1-3.7,2.4-5.9l-2.2.6c1-1.5,1.9-2.5,3.1-3.9h-.1c0,0-.2.2-.2.2-2.6,1.3-3.9,3.2-4.8,5.9.8-.4,1.7-1,2.4-1.4-1.2,2.1-1.5,3.9-1.4,6.3,1-.7,2.2-1.5,3.3-2.1-.7,2.1-.4,3.1.1,5.1.8-1.3,1-1.7,2.1-2.6,0,.6,0,1.2-.1,1.8.7-.3,2-.9,2.8-.9,0,.5-.1,1,.2,1.4.6-.1,1.6-1.6,2.2-2.1h0c-.8.1-1.6,1-1.9.9Z"/>
    <path class="st6" d="M363.5,124.8c.8.2,1.3,1.1,1.9,1.4,0-1.7-.9-1.9-2.4-1.8-.1,0-.2,0-.3,0h.2c.1.2.4.4.6.4Z"/>
    <path class="st6" d="M355.7,122.5v-.2c-.4.3-1.7,1.2-1.3,1.7.5-.5,1-.9,1.3-1.5Z"/>
    <path class="st6" d="M354.6,131.9c2.3-1.6,2.5-.4,4.8-3.4-.6.3-1.1.7-1.7,1-1.5.8-2.3.9-3.5,2.1-.3.4-.4.4-.4.8.3,0,.5-.2.8-.5Z"/>
    <path class="st6" d="M352.6,149.5c1.6,1.5,3.6,2.3,5.2,3.7-2.5-.7-4.8-2-7.1-3.1.6.5,1.2,1.1,1.9,1.6,1.5,1,3,1.9,4.6,2.7.6-.6,1.1-1.3,1.6-2-1.7-.8-4.5-2.4-6.2-2.8Z"/>
    <path class="st6" d="M343.3,142.2c-1.1-1.5-4.1-5.4-4.7-7-.6.5-1.3,1.2-1.9,1.8,1.2,2.4,3.3,4.8,5.5,6.4-1.5-2.1-3.3-4.5-4.2-6.8,1.7,2,2.7,3.4,4.6,5.3.4.4.4.5.9.7,0-.2,0-.1-.3-.3Z"/>
    <path class="st6" d="M379.3,131.1c-.6-1.1-3.3-1.7-4.4-2.2-1.8-.8-4.1-1.3-5.7-2.3-.8-.5-1.2-2.1-1.7-2.8-1.2-2-4.5-3.4-6.6-4.2,0-1.5,0-5-.7-6.1-.2-.1-.3-.2-.4-.2-1.1.2-3.1,3-3.8,3.9-.4-1.2-1.2-4.1-2.3-4.8-.6-.4-1.3.9-1.7,1.3-1.6,1.8-2.9,4.5-4.3,6.3-1.1,1.6-5.6,4.3-7.2,5.2.7.4.9.5,1.7.7-1.7,1.2-3,2-4.8,3v.2c.4.5,1.4.6,2,.7-1.4,1-2.4,1.5-3.8,2.4.6.2,1.5.5,2.1.7-1.6,1.5-2.3,1.9-3.5,3.7-.9.2-2.9.7-3.5,1.2,0,.7,0,0,.4.6-.3.2-1.1.4-1.5.5,0,.5,0,.8.1,1.4.5-.2,3-.8,3.1-1.3.3-1,1.1-1,2-1.3,2.4,4.1,5.4,7.7,9,10.8,1.4,1.2,3.6,2.6,4.7,3.9,1.7,2.9,1.9,3.2,2.7,6.4.3-1.8.3-3.6-.3-5.3,1.5.8,3,1.5,4.4,2.3,0,2.2-.1,3-.9,5-.3-1-.6-1.7-1-2.7-.7,2.8-.9,3.4-2.3,5.8-.1-1.1-.3-2-.5-3.1-1.3,2.5-2.3,4.1-4.3,6.1-.5.5-1.8,1.6-2.1,2.1v.2c1.6,0,4.8-3.5,5.8-4.7-.2,1.1-.4,2.1-.5,3.2,2-1.5,3.2-3.5,4.1-5.8l.4,2.4c2.1-2.3,2.5-5.2,2.7-8.1.7.8,1.5,1.8,2.7,1.3,2.1-.9,4.6-4.7,2.7-6.8-.4-.5-.9-.7-.6-1.3.5,0,1.1.6,1.6.9,0-1.5-.2-2.1-.5-3.5.5.2,1.2.6,1.7.4,0-.7-1.1-2.3-1.3-3.4-.1-1-.3-2.2.3-3.1,1.8-2.5,6.9-.9,9.5-1.6,1.5-.4,4.4-3.8,5.2-5.2.4-.6,1.4-2.4,1-3.1ZM359.3,115.2c.3.5.2,3.2.3,4-.7-.2-1.5-.4-2.2-.6-.3,0-.4,0-.7-.2l2.6-3.2ZM352.4,152.7c-6.8-3.8-12.8-9.3-16.5-16.2l2.5-2.4c.2.2,2.8,3.9,3.3,4.5,5,5.8,11.2,10.4,18.1,13.5-.6,1.1-1.5,2.2-2.3,3-1.8-.6-3.5-1.5-5.2-2.4ZM361.8,152.2c.2.4.1.9,0,1.3-.4,1.2-1.7,2.5-2.8,3.1-.2,0-.3,0-.4-.2,0-.8,1.9-2.7,2.3-3.4.2-.4.3-.9.4-1.3.2.2.4.3.5.5ZM365.5,135.4c-.4,0-1.3.6-1,1.1.4.2,1.7,0,2.3,0,2.7.4,4.6.9,7.3.7-.4.2-1,.7-1.5.7-4.8.8-12.9-1.6-13.2,5.7.9-2.1,1-2.6,3-4-1.3,3-.7,2.5-.6,5.3-.2,0-.3,0-.5,0l-.2.2c0,.9.3,1.9.7,2.7l-1.3-.8c-.2,1.2-.3,2.2-.7,3.3-1.3-.5-5.2-2.3-5.8-3.4-1.1-2-2.5-4.8-3.5-6.9.6,2.7,1.5,4.1,2.6,6.6-.7-.5-2-1.5-2.6-2.1-1.7-1.9-2.4-5.3-3-7.8,0,2.4.2,4.2,1.2,6.3-2.4-1.8-2.8-3.2-2.9-6.2,0-.7.2-1.5,0-2.1h-.2c-.5.3-.6.4-1,.9l-.4.3c-.4-.4.8-3.5,1-4.2-1.8,1.8-1.8,3.1-1.6,5.5.5-.7.6-1,1.2-1.5.2.3.1.4.1.8,0,1.5.1,2.5.5,3.9-2-2.2-4.1-4.4-5.7-7-.2-.3-.3-1-.4-1.3,0-.3-.7,0-.9-.4,1.6-1.1,2.7-1.9,4-3.3h-2.1c1.1-.8,3.7-2.4,4.3-3.5-.4-.3-.6,0-.9-.2.9-.9,2.2-1.9,3.2-2.6-.3,2.1-.4,3.7.8,5.6-.6-4.1.4-6.3,2.4-9.7-.4,1.3-.7,2.1-.9,3.4-.1.9,0,4.7,1.2,4.7,0-1-.2-2.7-.2-3.8,0-3,1.4-6.1,3-8.6.7,1.6,2,6.7,3.1,7.5h.2c.2-.6,0-1.1,0-1.6,2.8.7,7.9,2.1,9.6,4.8.7,1,.8,2.3,2.2,3.1,1.7,1.1,5.3,1.9,6.8,2.9-.3,1.8.1,2.1,1.5,3.3-2.8,4.3-7.5,1-11.3,1.5Z"/>
    <path class="st6" d="M344.7,159.1c.5-1.4.3-3.5-.2-4.9-.4-1-.7-1.5-1.3-2.4.1,1.1.3,1.5.6,2.6-1-1-2.6-3.4-3.2-4.6-.2-.4-.5-1.2-.8-1.8h-.1c-.2.6,0,2,.3,2.6.9,2.1,2.7,3.6,3.7,5.6.4.9.4,2.1.7,3h.1Z"/>
    <path class="st6" d="M336,142.9h-.1c-1,1-1.6,1.8-1.9,3.2l1.5-2c-.1,1.4-.1,2.5,0,3.9.3.9.7,1.8,1.1,2.7-.2-1.1-.3-2.2-.4-3.4,0-.5,0-4.2-.2-4.4Z"/>
    <path class="st6" d="M345.7,164.1l.3-.3c1.1-2.3,1.6-4.6.7-7.1-.2-.5-.3-1-.7-1.4h0c.1,2.6.5,4.9-.1,7.4,0,.3-.4,1.3-.3,1.4Z"/>
    <path class="st6" d="M335.2,140.1c0,0,0-.1-.1-.2-1.1,1.1-2,2.7-2.1,4.3,0,.6,0,1.1.4,1.6.2-1.5.6-2.9,1.2-4.2,0-.2.7-1.2.6-1.4Z"/>
  </g>
  <path class="st3" d="M406.3,113.8c-.5-1.1-.5-3.5-1.9-4-.2,0-.4.2-.5.3-1.7-.8-1.9,1.1-2.3,2.4-.3,1.1-.5,1.6-1.1,2.6-2.2,3-.7,7.2,3.1,5.9,1,.3,1.5.5,2.5.1.8-.3,1.4-1,1.7-1.8.9-2.2-.7-3.7-1.5-5.6ZM402.9,113.4c-.4,1.4-.8,2.7-1.3,4.1-.6-.3-.7-.3-.9-1,1-1.5,1.3-1.9,1.9-3.6,0,0,.3-1.1.3-1.3h0c0,.2,0,.5,0,.8v1.1Z"/>
</svg>