<?xml version="1.0" encoding="UTF-8"?>
<svg id="Capa_1" xmlns="http://www.w3.org/2000/svg" version="1.1" viewBox="0 0 232.2 232.1">
  <!-- Generator: Adobe Illustrator 30.3.0, SVG Export Plug-In . SVG Version: 2.1.3 Build 157)  -->
  <defs>
    <style>
      .st0 {
        fill: #153045;
      }

      .st1 {
        fill: #cbcbca;
      }

      .st2 {
        fill: #19508f;
      }

      .st3 {
        fill: #60934a;
      }

      .st4 {
        fill: #df9c37;
      }
    </style>
  </defs>
  <path class="st0" d="M18.3,0c5.1-.2,11,0,16.2,0h31s94.7,0,94.7,0h39.4s9.6,0,9.6,0c1.5,0,3.3,0,4.8,0,.6,0,1.3,1,1.6,1.5.2,1.3.1,3.7.1,5v8.2s0,27.8,0,27.8v48.6c0,14.1.5,28.6-1.7,42.5-3,18.9-11.1,36.7-23.4,51.4-3.1,3.7-7.9,8.9-11.5,12.1-2.9,2.8-6.7,5.9-9.9,8.3-16,11.9-34,20.9-53.1,26.6-4.4-1.4-8.4-2.7-12.7-4.4-28.5-11.2-55-29.3-71.2-55.8-6.9-11.4-11.6-24-13.8-37.1-1-6.4-1.7-12.9-1.8-19.4-.3-10.1-.1-21.2-.1-31.4V30.7s0-19.7,0-19.7c0-2.7-.1-6.6.2-9.3,0-.7,1.1-1.3,1.8-1.6Z"/>
  <path class="st1" d="M21,4.7h190.2s0,65.2,0,65.2v27.2c0,5.1,0,10.2,0,15.2-.4,33.1-10.4,57.9-34.3,80.8-15.8,15.2-40,27.9-60.8,34.3-39.8-12.7-78.1-39.4-90.4-81.3-4.5-15.5-4.7-29.3-4.7-45.2v-25.2s0-70.9,0-70.9Z"/>
  <path class="st0" d="M42.2,26c3.7-.1,7.9,0,11.6,0h21.7s65.2,0,65.2,0h34.1s10.1,0,10.1,0c1.6,0,3.4,0,5,0,.7,0,1.2.7,1.6,1.3.2,7,0,14.7,0,21.8v41.2s0,26.1,0,26.1c0,10.1.5,22.7-2.4,32.5-4,13.7-14.5,25.5-25.2,34.6-11.7,9.5-24.6,17.2-38.5,22.8-2.1.9-7.6,3.4-9.8,3.3-.8,0-4.7-1.6-5.6-2-5.4-2.1-10.8-4.6-16-7.2-20.3-10.3-43.4-28.2-50.8-50.6-3.4-10.4-2.7-26.6-2.7-37.7v-31.2s0-35.8,0-35.8v-12.2c0-1.6-.3-4.3.3-5.9.2-.5.8-.7,1.3-.9Z"/>
  <path class="st2" d="M46.7,30.1c11,0,22.1,0,33.1,0h54.5s36.8,0,36.8,0c5,0,11.5-.2,16.3,0v69.9s0,15.8,0,15.8c0,11,.6,24.5-3.4,34.9-4.3,11.2-13.4,21.4-22.4,29.1-1.5,1.4-4.9,3.9-6.6,5.2-11.3,8.1-25.8,15.8-39,20.2-18.8-6.9-37.7-17.2-52-31.4-7.3-7.2-14.4-17-17.1-27-2.4-8.9-2.1-19.6-2.1-28.7v-22.3s0-65.7,0-65.7h2Z"/>
  <path class="st0" d="M114.2,33.3c.5,0,1.5,0,2.1,0,7.8,0,14.9,4.1,18.7,10.9,4.2-2.3,9.1-2.8,13.7-1.6,4.8,1.3,8.9,4.4,11.3,8.7,2.7,4.6,3.2,9.4,1.8,14.5,12.1,5.8,15.1,21,5.6,30.7-1.4,1.5-3.1,2.4-4.8,3.5-.3,4.5-1.4,8.2-4.3,11.7-3.2,4-7.9,6.5-13,7-6.3.6-10.7-1.5-15.4-5.5-1.7,1.3-5.9,5.4-6.6,7.2-3,8-1.7,20.8-1.4,29,.9,0,1.5.1,2.4.4.6.6.7,1.2,1.5,1.4,1.8-.5,1.4-2.3,4.3-2.1h.2c.7-.5.3-2.2.7-3,.6-1.3,3-1.9,2.3-3.8-1.1-2.1-4.1-1.3-6-2.4-1.1-.6-2.5-2.5-1.9-3.8.4-.9,3.6-1.3,4.7-1.6,1.2-1.4,1.5-2,3.4-2.3,0-1.1,0-2.5.4-3.4.9-.6,1.6.5,2.2,1.2.2-.7.3-1.7,1-1.9,1.6.6,2.9,4.7,3.6,6.1.5,1,1.6,2.3,2.2,3.4,1.7.5,1.3,1.5,2.3,2.6.4.5,1.5.9,2,1.1,5.1,2.3,9.5.5,14.8,1.9,6.5,1.7,7.8,7.4,14.6,8.2,2.5.3,3.3-.5,5-.5,1.1.6-1.3,3.8-1.8,4.5-1,1.6-3.7,1.4-5.1,1.3-.5.4-.7.5-1.3.4-3.1-.3-4.5-2.1-6.4-4.3,0,5.5.8,2.8,2.8,6.8.3.5.4,2.4.4,3,.2,2.7.5,4.2-.7,6.7-1.6,0-3.2,0-4.8,0,0-.7,0-1.3,0-2,.5-.8.9-1.2,1.5-1.8-.2-1.6-.4-2.6-.9-4.1-.9-.7-2-1.3-3-1.9.5,2.4-1.7,7.1-2.8,9.2-1.2,0-4.4.5-5.2-.4-.6-1.7,1.4-2.8,2.6-3.4v-.2c.7-1.3.7-1.8.9-3.2-.3-.5-1.3-1.5-1.7-2-1.3-1.5-1.8-2.5-2.6-4.4-1.7.6-3.4,1.1-5.2,1.4-.4,2.6-.5,5.1-.7,7.7,0,1.1-1,3.9-1.4,5.1-1.2,0-3.8.3-5,0-.2,0-.2-.5-.3-.7-1.9.1-3.5.2-5.4,0,.2-2.4.3-2.6,2.5-3.7.6-2.7.9-11.2-1.5-13.2l-.3.4h-.3c-1-.6-1.3-2.7-1.6-3.8-.8.8-2.4,1-2.5,1.2-.9,2.2-1.1,4.3-4.2,3.9-.4,0-1.5-1.2-2-1-1.7.6-1.4,1.1-3.3,1.1,1.4,7.5,5.2,8.7,10.1,13.6.2.2.3.8.2,1.2-.7,1-2.5.6-3.6.6-3.7-.2-6.5-1.5-9.7-3.2-1.2,2-1.5,2.8-3.5,4.2-1.5.8-4.3,2-5.9,1.6-1.5-.4.4-3.8.8-4.7-2.7,1.2-5.1,2-8.1,2.2-1,0-2.4.5-3.1-.6-.2-1.5,1.8-2.9,2.9-3.7,3.7-3,5.5-4.8,6.9-9.4-.7,0-1.9,0-2.3-.8-1.4-2.7-2.2-.4-4.4-1.2-2.1-.7-1.6-2-2.5-3.6-.3-.4-1.6-.2-2-.7-.1-.1-.3-.2-.4-.3-.6,1-.6,2.6-1.5,3.4-.4,0-.4,0-.8-.4-2.4,1.5-2.1,10.9-1.4,13.2.7.3,1.1.5,1.8.9.6,1,.5,1.6.7,2.8-1.6.2-4.4,0-5.4.1-.1.4,0,.4-.3.6-1.2.4-3.6,0-4.9,0-.3-1.1-1.4-4.6-1.4-5.6,0-2.5-.2-4.6-.6-7.1l-5.3-1.5c-.9,3.2-2.1,3.9-4.2,6.3.2,1.3.4,2.3.8,3.5,1.4.5,3.6,1.8,2.6,3.7-1.2.5-3.8.1-5.2,0-1.4-2.7-3-6-2.8-9-.9.5-2.5,1.3-3.2,2-.5,1.3-.6,2.6-.7,4,.2.2.4.4.6.6,1,1,.9,1.7.9,3.1-.9,0-4.4.3-4.9-.2-1.3-1.4-.8-5.1-.6-6.9,0-1,.3-3.2,1.1-3.8,2.2-1.9,2.1-2.3,2.2-5.4-1.3,1.6-4.8,5.4-7.6,3.9-.3-.1-.7,0-1,0-1.4,0-2.9,0-4-1,0-1.2-.3-.9-1.1-1.8-.6-.6-1.3-2-1.1-2.8.6-.6,2.8.4,3.8.3,1.3,0,2.2-.2,3.4-.5,5.2-1.6,7-6.1,12.4-7.7,5.2-1.5,12,.5,16.8-2.9.2-.2,1.1-1.7,1.4-2.1,2.5-2.4,3.8-5,5.1-8.1.3-.6,1.2-2.1,1.9-2.1.4.4.6,1.5.8,2.1.5-.6,1.3-1.8,2.2-1.4.5.7.5,2.4.5,3.4,1.8.6,2.1.9,3.3,2.4,1.1.3,3.9.8,4.7,1.4.5.8,0,1.7-.4,2.5-1.2,2.9-5.2,1.6-6.9,3.1-1.6,1.4,0,3.2,1.1,4,.9.6.8,2.3.8,3.2.4.6,1.6,0,2.9.8,1.4.9,1.3,2.1,2.2,2.5.2,0,1.3-.6,1.4-.6,5.8-.4-2-3.1,2.5-6h.2c0-6.6.7-12.4-.1-19.1-.9-6.9-2.6-9.1-7.9-13.3-3.5,3.2-7.3,5.4-12.1,5.7-11.6.8-20-7.6-20.9-18.8-3.6-1.9-6.6-4.8-8.4-8.6-2.2-4.6-2.4-9.9-.7-14.7,1.8-5.1,5.3-8.5,10.1-10.8-1.4-4.5-.9-9.1,1.1-13.4,2.1-4.4,5.8-7.8,10.4-9.5,5.3-1.9,10.2-1.4,15.2,1,.7-1.1,1.5-2.3,2.3-3.3,3.7-4.4,8.9-7.1,14.6-7.5Z"/>
  <path class="st3" d="M113.9,35.5c2-.4,5.4,0,7.2.5,5,1.2,9.5,4.7,11.9,9.2,1.1,2.2,1.9,1.4,3.8.4,3.4-1.7,7.6-2,11.2-1,4.2,1.1,7.8,3.9,10,7.6,2.2,3.8,2.9,8.6,1.6,12.8-.1.4-.4,1.7-.2,1.8,1.3.9,2.7,1.5,4.1,2.5,9.6,6.5,9.7,20.9,0,27.5-1,.7-2.2,1.2-3.2,1.8,0,.6,0,1.1,0,1.7-.2,4.8-2.1,8.7-5.7,11.9-3.3,2.9-7.7,4.5-12.1,4.2-7.4-.4-13.3-5.4-15.4-12.4-.3-.8-.6-2.2-1.2-2.9-1.3.4-2.3,1.1-3.5,1.7-1.4.7-2.7,1.1-4.2,1.4-2.6.4-4.6,0-7.2-.7-1.6-.5-3.5-1.9-5.1-2.1-.2,0-.5,1.1-.6,1.3-.7,3.1-1.9,5.6-4.1,8-3,3.4-7.3,5.4-11.8,5.6-4.5.2-9.1-1.4-12.3-4.5-4.2-4-5.3-7.9-5.5-13.4-3.3-2.1-4.5-2.2-7.1-5.7-2.6-3.6-3.7-8.1-3-12.4.7-4.4,3.3-8.5,6.9-11,.5-.5,4.4-2.1,4.3-2.7-.5-3.1-1.2-4.6-.9-7.9.5-4.4,2.8-8.5,6.3-11.2,4.4-3.4,10.1-4.4,15.3-2.7,1.3.4,3.4,1.6,4.5,1.7.6-.3,1.6-2.6,2.4-3.5,3.5-4.5,7.7-6.9,13.3-7.6Z"/>
  <path class="st0" d="M106.1,43.4c4.8-.1,8.2,1.3,10.4,5.7.2-.3.5-.6.7-.9.7-.8,3-2.9,4.2-1.5.9,1.1-1.5,2.1-2.2,2.6-1.2.8-1.7,2.8-1.9,4.2,5.5,2,3.3,5.9,6,9.6,3.1,4.2,4,9.2,0,13.1-3.9,3.4-10.9,3.5-14.6,0-1.6-1.5-2.5-3.5-2.6-5.7-.1-4.3,2-5.5,3.6-8.8,1.1-2.3.3-4.2,2.7-6.7-4.8-1.5-7.6-5.4-7.1-10.5,0-.6.3-.9.7-1.2Z"/>
  <path class="st4" d="M115.6,55.6c4.2,0,3.6,4.1,4.7,6.8,1,2.4,3.2,4.1,3.4,6.9.4,4.8-2.7,7-7,7.4-6.1,0-10.3-3.8-7.3-10.3.8-1.3,1.9-2.7,2.5-4.1,1.2-3,.1-5.3,3.7-6.7Z"/>
  <path class="st3" d="M107.4,45.6c4.9.3,7.1,3,7.6,7.7-4.8-.4-7.1-3-7.6-7.7Z"/>
  <path class="st0" d="M77.9,66.3c4.8-.3,8.1,1.5,10.4,5.7.4-.5.8-1.1,1.3-1.6.7-.6,1.9-1.4,2.8-1.4.6,0,1.1.8.9,1.4-.3,1-1.5,1.1-2.2,1.7-1.2.9-1.7,2.8-2,4.3,4.5,1.9,3.8,4.4,5.2,8.2.4,1,1.6,2.8,2.2,3.8,2.1,3.8,1.8,7.5-1.2,10.7-5.4,4.6-15.4,3.3-17.1-4.3-1.1-4.7,1.9-6.7,3.4-10.4,1.1-2.6.5-3.6,2.5-6.5-4.8-1.7-7.5-5.2-7.1-10.5,0-.6.4-.9.8-1.1Z"/>
  <path class="st4" d="M87.2,78.5c.9,0,1.7,0,2.4.6.5.4.9.9,1.2,1.5.6,1.3.7,3.5,1.3,4.9,1.1,2.4,3.2,4,3.4,6.9.3,4.7-2.9,6.9-7,7.2-7.3.4-10.7-5.9-6.3-11.7,1-1.3,1.7-2.8,2-4.4.4-2.3.6-3.9,2.9-5Z"/>
  <path class="st3" d="M79.2,68.3c4.8.8,7.2,2.7,7.6,7.7-4.6-.5-7.4-2.8-7.6-7.7Z"/>
  <path class="st0" d="M151.9,66.3c3.1-.4,3.6.1,3.3,3.1-.5,4.6-3,7-7.1,8.4,2.3,3,1.4,3.9,2.7,7,.9,1.9,2.5,3.5,3.1,5.7,1.3,5-1.2,9.4-6.2,10.8-3.2.9-6.5.4-9.3-1.2-4.2-3.1-4.9-7.5-2.4-12.1.5-.9,1.7-2.2,2-3.1,1.5-4.2.6-6.6,5.3-8.6-.3-1.4-.7-2.8-1.7-3.9-.8-.8-3.3-1.4-2.6-2.9,1.9-1.3,4,1.3,5.1,2.5,1.7-3.5,4-5,7.8-5.7Z"/>
  <path class="st4" d="M143.7,78.5c4.3-.2,3.7,4.3,4.9,7.1.6,1.5,2,2.8,2.6,4.3,2.3,5.7-.9,9.2-6.3,9.7-5.1.2-9.7-3.2-7.8-8.8.6-1.9,2.1-3.4,2.9-5.2,1.3-2.8.3-5.5,3.7-7Z"/>
  <path class="st3" d="M152.7,68.4h.3s.1.3.1.3c0,1.1-.6,3.1-1.2,4-1.6,2.2-3.4,2.9-5.8,3.3h-.2c-.8-.7.6-3.9,1.2-4.7,1.5-2,3.3-2.6,5.7-3Z"/>
  <path class="st1" d="M88.4,140.6c.1,0,1.5,1.3,1.9,1.6,2.3,1.8,3.8,2.5,6.6,3.5-.1,1-.3,2.8-.7,3.7-.1.4-.4-.4-1.1-.3-.4.5-.4,1.1-.6,1.7-.7,2-2.3,3.2-4.1,4.1.2-.5.4-.8.3-1.3-.2-.5,0-.3-.5-.5-2,.7-2.7,9.8-2.6,11.7.2,2.7,2.4,2,2.2,3.4-.8,0-2.1,0-2.9,0-.2-.8-1.3-4.1-1.3-4.6,0-2.9.1-4.3-.7-7.3.3-1,.8-2.3.3-3.2h-.2c-.7.6-.8,1.4-.9,2.3-3.2-.8-6-2-9.4-2.6.2-.7.6-1.5.1-2.1-.4,0-.2-.1-.6,0-.4.7-.5,1.3-.8,2-.4,1.4-1.1,2.6-2,3.7-2.5,3-5.2,2.3-6.3,5.6-.4,1.4-.5,2.8-.7,4.3.7.3,1.4.6,1.7,1.4v.2c-.9.3-1.4,0-2.2.1-.9.1-1-1.4-1-2.1,0-1.9.1-4.2.5-6.1.5-.6,1.1-1.1,1.6-1.7,1.8-2,1.2-3.9,1.3-6.3,0-1,.4-2.2.6-3.3-.2-.3,0-.2-.5-.3-.3.1-.5.3-.6.5-1.2,3-2.7,5.1-5.6,6.8.1-.5.4-.9,0-1.3-1.3,0-2.8,2.3-5.6,1.2v-.2c.2-.4.2-.2.2-.6-1.7-.8-1.8-.8-3.1-2.1.3,0,.6.1,1,.1,9.1,1.2,10.9-5.9,17.3-8,5.8-1.8,12,1,18.4-3.9Z"/>
  <path class="st1" d="M143.8,140.6c.2,0,1,.7,1.2.8,5.7,4.1,12.6.9,18.6,3.6,2.7,1.2,4.9,3.9,7.4,5.5,3.3,2.1,5.7,2.6,9.5,1.8-1,1.2-1.6,1.4-3,2.2-.3.8.2,0,.1.8-1.7,1-4.4-.6-5.8-1.5,0,.7.2,1.2.4,1.8-2.1-1.3-3.5-2.7-4.7-4.9-.3-.7-.9-2.1-1.5-2.5-.4,0-.2,0-.6.3,0,.8.5,1.8.6,2.4,0,2.1-.4,4.4.7,6.3.3.6,1.9,2,2,2.4.7,2,.9,6.3.4,8.2-.6,0-2.6.2-3.1,0,0-.6,1.6-1.3,1.7-1.6.3-.9-.2-2.9-.3-3.8-1.1-3.8-4.3-3.3-6.7-6.3-1-1.3-2.3-5.4-2.9-5.7-.4.1-.3,0-.5.4,0,.7.1,1.2.3,1.9-2.9.5-6.4,1.8-9.4,2.6-.1-.7-.3-2.2-1-2.5-1,.5-.3,1.7,0,2.5.4,1.3-.4,2.9-.4,4.2,0,3.3-.2,5.4-1.4,8.6-.8,0-2,0-2.8,0v-.3c.6-1,1.7-.8,2.1-2.3.4-1.9-.7-12.2-2.7-12.4l-.2.3c-.1.5,0,.9.2,1.5-3.3-1.9-3.6-2.6-4.7-6.1l-1.2.8c-.3-1.4-.5-2.6-.6-3.9,3.3-1.1,5.9-2.5,8.3-5.1Z"/>
  <path class="st3" d="M111,106c.7.2,1.6.3,2.4.5.4,1.1,1.4,4.6,2.7,4.5,1.1-.7,1.5-3.1,1.8-4.4.7-.1,1.6-.3,2.3-.4-.5,1.9-2.1,7.9-1.4,9.4,1.2,1,3.7-1.7,4.7-2.6,1.2-1,2.5-2,3.8-3,.4.5.8,1,1.1,1.5-2.4,2.3-6.6,5.9-7.6,9-2.3,7.7-1.8,17.6-1.3,25.6,0,.8.4,3.5,0,4.1-1.4-.2-1.9-2.5-5.3-1.6h-.2c0,0-1.6-.8-1.6-.8.5-6.7.7-14.3.2-20.9-.6-7.7-3-10.9-8.7-15.6.3-.4.6-1,.9-1.4,2.3,1.6,4.2,3.4,6.3,5.2,5.2,4.5.3-7.5-.2-9Z"/>
  <path class="st3" d="M118.8,151.9c.2,0,1,0,1.1.2.6,1.8.9,4.6,1.6,6.3,1.3,3.2,4.8,6,7.3,8.3-2.6-.5-4.4-.9-6.8-2-1-.5-2.2-1.8-3.2-1.9-1.8.8-1,4.5-6.3,6.2h0c-.3-.8,1.8-4,.8-5.5-.3-.2-.5-.4-.9-.2-1.1.4-2.5,1.5-3.5,1.9-1.6.7-3.7,1.2-5.4,1.5.7-.8,2.4-2.2,3.2-2.9,3.7-3.3,4-5.3,5.4-9.8,1.5-.4,5.8-1.3,6.8-2.2Z"/>
  <path class="st1" d="M94.7,130.1c.6.6.7,2.3,1.2,2.6,1.8,1.2,2.9-.3,4.6,1.8l.8.9c1.4.5,2.9.7,4.4,1.2-.1.3-.8,1.5-1,1.6-2,1.8-3.2.3-6,2-.9.9-1,1.3-1.3,2.6-2.8-1.2-5-2.5-7.2-4.7,1.2-1.9,2.6-3.5,3.3-5.7.2-.8.7-1.6,1.2-2.3Z"/>
  <path class="st0" d="M98.6,134.8c.6,0,1,0,1.3.6-.2.4-.2.3-.7.6-.4-.2-1-.4-1.2-.8v-.2c0,0,.7-.1.7-.1Z"/>
  <path class="st1" d="M137.5,130.2c1.2,1.5,1.3,3.2,2.1,4.4.8,1.3,1.6,2.2,2.5,3.6-2,2.2-4.5,3.5-7.2,4.7-.3-1.2-.4-1.6-1.2-2.6-1.6-1.1-4-.9-6-1.6l-1.2-2.1c1.5-.4,3.2-.6,4.5-1.2.1-.2.2-.3.4-.5,1.5-1.9,2.6-1.6,4.9-1.9.5-1,.8-1.7,1.1-2.8Z"/>
  <path class="st0" d="M132.8,134.8c.5,0,1.2,0,1.5.3-.1.4-.1.3-.6.7-.6.1-.9.2-1.3-.2,0-.5,0-.3.4-.7Z"/>
  <path class="st1" d="M74.4,154c1,.1,2,.4,3,.7-1.2,2.8-2.5,3.7-4,6.1-.7,1.1.3,4,.8,5.3,1,.3,1.4.2,2.2.9v.3c-.6.2-2.5.1-3.1.1-.8-1.9-1.9-4.6-2.5-6.6.1-.3.7-2.1.8-2.3,1-1.6,1.8-2.8,2.8-4.5Z"/>
  <path class="st1" d="M157.5,154.1c0,0,.2,0,.3,0,1.6,2.2,2.8,4.1,3.6,6.7-.4,1.5-1.9,5.2-2.5,6.6-.9,0-2.4.1-3.2,0,.6-1.1,1.2-1,2.3-1.3,0-.1.2-.3.2-.5,2.1-4.8.3-5.2-2.3-8.7-.4-.5-.8-1.6-1.1-2.3.9-.3,1.7-.4,2.7-.6Z"/>
  <path class="st1" d="M139.6,155c.6.2,2.4,1.3,3,1.7-.2,1.7-1.5,10.1-2.7,10.8-.7,0-2.4.2-2.8-.4.4-.6,1.3-.8,2-.9,1.2-3.1,1-7.9.5-11.1Z"/>
  <path class="st1" d="M92.4,155.1c.3.2.1.5.1.9-.1,1.4-.2,2.7-.2,4.1,0,1.4,0,5.4,1.2,6,.4.2,1.4.8,1.6,1.1v.2c-.7.2-1.6.1-2.3.1h-.5c-1.2-1.1-2.5-9-2.7-10.9,1-.5,1.8-1,2.8-1.6Z"/>
  <path class="st2" d="M124.7,104.3c.3.4,1.3,3.1,1.5,3.8-1.1,1-2.9,2.3-4.1,3.3l-1,.8c.5-2.3.9-4.5,1.7-6.8.6-.4,1.2-.7,1.8-1.1Z"/>
  <path class="st2" d="M107.5,104.4c1,.7,2.8,5.5,2.9,6.7h-.2s-.5-.3-.5-.3c-1.2-.9-2.4-1.9-3.5-2.8l1.3-3.6Z"/>
  <path class="st3" d="M112.3,149.4c1.1.4,1.7,1.4,2.1,2.5l-.3.2c-.6.1-1.4.3-2,.4.2-1.1.2-2,.3-3.1Z"/>
  <path class="st2" d="M143.1,161.2c.5.6.3,3.6.2,4.4-.3.2-.8.4-1.2.6h-.2c.1-1.2.8-3.8,1.1-5Z"/>
  <path class="st2" d="M89,161c.4.6,1,4.1,1.3,5.2-.2,0-.8-.3-1-.5-.8-1.1-.5-3.4-.3-4.7Z"/>
  <path class="st2" d="M132.9,145.5c0,0,.2.4.3.5.4.2.5.2.8.6,0,.5-.3.7-.6,1.1-.6-.4-1.1-.4-1.3-1.2.2-.5.4-.7.8-1.1Z"/>
  <path class="st2" d="M129.2,150.3h.2c.3.9.6.6.6,1.3-.4.3-.8.5-1.2.7h0c-.3-.2-.5-.7-.7-1.2.3-.2.9-.5,1.2-.7Z"/>
  <path class="st2" d="M99.3,145.5c.3.3.8.9.8,1.4-.3.6-.5.3-.9,1h-.1c-.5-.4-1-1-.6-1.6.3,0,.3,0,.6-.2l.2-.7Z"/>
  <path class="st2" d="M102.9,150.2c.5.2.7.2,1.1.6.2.7-.3.7,0,1.7-.7-.3-1.5-.5-1.6-1.3.3-.4.3-.4.4-.9h0Z"/>
  <path class="st3" d="M116,149.6c.6,0,1,0,1.2.7,0,.5-.2.7-.4,1.2-.5-.2-1-.3-1.3-.6.2-.9.4-.1.5-1.3Z"/>
  <path class="st2" d="M122.1,150.7c.6,0,.8,0,1.3.1l.2.3c0,.5,0,.6,0,1.1h0c-.3.2-.8.3-1.1,0-.3-.4-.3-1-.3-1.6Z"/>
  <path class="st2" d="M108.1,152.3c.5,0,1-.1,1.4,0,.3.5.2.7.2,1.4-.5,0-.6,0-1.1,0-.4-.5.1-.3-.5-1.4Z"/>
  <path class="st0" d="M194.5,95.5c1.6,0,13.6-.3,14,.2.7.8.4,6.7.4,8.1-.2,3-1.2,5.2-3.4,7.1-.8.6-1.7,1.2-2.7,1.6-1.2.5-2.1.5-3.3,0-2.5-1.1-4.5-3.3-5.5-5.8-.3-.7-.4-1.5-.5-2.3-.1-1-.2-8,.1-8.5.2-.3.5-.3.9-.4Z"/>
  <path class="st4" d="M195,97.2h12.2c0,4.7.8,8.5-2.3,12-1.3,1.2-2.2,1.7-3.8,2.2-1.4-.4-2.6-1.2-3.6-2.2-3.1-3.2-2.5-7.8-2.4-12Z"/>
  <path class="st0" d="M24.1,95.5c2.5,0,13.1-.4,14.5.4.5.8.2,5.3.3,6.7.1,3.4-.8,5.7-3.2,8.2-6.5,6.1-13.1-2.5-12.3-8.9.2-1.6-.6-5.6.7-6.3Z"/>
  <path class="st4" d="M25,97.2h12.2c0,4.8.8,8.4-2.3,12-1.2,1.2-2.2,1.7-3.8,2.2-7-2.1-6.1-8.4-6.1-14.2Z"/>
  <path class="st0" d="M23.9,8.7c2.3,0,13.4-.4,14.7.4.5.9.2,4.1.2,5.3.2,3.8-.3,6.6-3,9.4-1.4,1.2-3,2.1-4.8,2.5-6.4-2.1-8.1-6.6-7.6-12.9.1-1.3-.4-3.6.5-4.6Z"/>
  <path class="st4" d="M26.5,10.3h10.7c0,4.7.8,8.9-2.9,12.4-1.1.9-2,1.3-3.3,1.7-6.9-2.5-6-8.1-6-14.1h1.5Z"/>
  <path class="st0" d="M193.9,8.7c2.1,0,13.4-.4,14.7.3.3.6.3,1.2.3,1.8-.2,5.5,1,8.7-3.1,12.9-1.4,1.3-2.9,2-4.7,2.5-6.4-2-8.1-6.6-7.6-12.9.1-1.3-.4-3.6.4-4.6Z"/>
  <path class="st4" d="M195.5,10.3c3.8,0,7.8,0,11.7,0,0,4.8.8,8.7-2.7,12.2-1.1.9-2.2,1.5-3.5,1.9-.5-.2-.9-.4-1.4-.6-2-1-3.5-2.7-4.1-4.8-.5-1.4-.8-7.8-.4-8.7h.4Z"/>
  <path class="st0" d="M110.1,211.2c1.3-.2,11.7-.2,12.3.3.2.5.3,1.1.3,1.7-.2,4.6.7,7.1-2.6,10.5-1.4,1.1-2.4,1.8-4.1,2.1-4.7-1.7-6.7-5.2-6.3-10.1.1-1.3-.4-3.4.4-4.5Z"/>
  <path class="st4" d="M111.2,212.7h9.9c0,3.7.6,6.8-1.9,9.6-1,1-1.8,1.4-3,2-5.8-2.3-5-6.6-5-11.6Z"/>
</svg>