<?xml version="1.0" encoding="UTF-8"?>
<svg id="Capa_2" xmlns="http://www.w3.org/2000/svg" version="1.1" viewBox="0 0 192 216.4">
  <!-- Generator: Adobe Illustrator 30.6.0, SVG Export Plug-In . SVG Version: 2.1.4 Build 11)  -->
  <defs>
    <style>
      .st0 {
        fill: #02782c;
      }

      .st1 {
        fill: #040503;
      }

      .st2 {
        fill: #fbca03;
      }

      .st3 {
        fill: #fcca03;
      }

      .st4 {
        fill: #036927;
      }

      .st5 {
        fill: #39361f;
      }
    </style>
  </defs>
  <path class="st1" d="M191.6,0l.3,1.2v1.5c-.2,0-.3.3-.3.5s.1.5.3.5v31.6s-.3.2-.3.2v15.7s.3.2.3.2v4.2c-.1,0-.2,22.6-.2,22.6v2.7s-.2.2-.2.2v9s.3.2.3.2v1.2c-.1,0-.5,0-.5,0v-13.5s-.4,0-.4,0v14.6c0,.2,0,.7.1.7h.5c0,0,0,1.3,0,1.3-.3.3-.3,1,0,1.3-.1.6-.2,1.3-.1,1.8-.3.2-.3.9,0,1.1l-.2.4-.5-.2c-.1,0-.2.6,0,.6h.6c0,0,0,.8,0,.8v.4c-.1,0-.2,1.3-.2,1.3-.2,0-.3.3-.3.4l.2.3v1.3c-.1,0-.4.3-.4.3,0,0,0,.3,0,.3v.3s-.4,0-.4,0c0,0,0,.3,0,.3h.3s0,.2,0,.2c0,0-.3.2-.3.3l.2.3-.3,2.2v.4c0,0-.2.8-.2.8v.4c-.1,0-.2.8-.2.8v.4c-.1,0-.2.8-.2.8,0,0-.3.1-.2.2v.2c0,0,0,.5,0,.5-.1,0-.3,0-.2.2v.3s0,.5,0,.5v.3c0,0-.1.5-.1.5l-.3.2s0,.3,0,.4l-.3,2.1c0,0-.3.1-.3.2v.3c0,0-1.8,7.2-1.8,7.2l-.3.2c0,0,0,.3,0,.3v.8c-.2,0-.4,0-.4.2v.3c-3.7,11.7-9.1,22.7-16.2,32.9-17.9,26-44.7,44.9-73.7,56.8-9.1-3.7-17.8-8.1-26.2-13.1-12.1-7.2-23.2-15.9-33-26-16.5-17.1-28.2-37.4-33.5-60.4l.4-.9h-.6c0-.1-.9-4.7-.9-4.7v-.5c0,0-.5-3-.5-3v-.4c0,0,0,0-.1-.1v-.9c0,0,0-.3,0-.3,0,0-.2-.3-.3-.3v-.9c0,0,0-.3,0-.3,0,0-.2-.3-.3-.3v-1.1c-.1,0,0-.3,0-.3,0,0-.2-.3-.3-.3v-1.5c-.1,0-.2-.4-.2-.4l-.2-1.3.2-.5c0,0-.2-.3-.3-.3v-1.9c0-.3,0-1-.2-1.1v-1.7s.7-.1.7-.1v-26.1s-.4,0-.4,0v3.2c0,0,0,.3-.1.3H.2s0-3.2,0-3.2v-32.2s0-.4,0-.4c0-3.6.1-7.3,0-10.8l.3-.4v-7s-.3-.4-.3-.4c.2-2.6,0-5.2,0-7.8.1,0,.2-.3.2-.4v-1.6s.2,0,.2,0v28s.4,0,.4,0V1.6S.2,1,.2,1v-.4s.6-.6.6-.6h190.8ZM1.3,35.3v32.4s0,23.6,0,23.6c-.3.7-.3,2,.2,2.3v2.4s-.2.3-.2.3c0,.1.2.4.3.4v2.2c0,0-.1.4,0,.5l.4.5h0c0,.1,0,.4,0,.4v1.4s.3,0,.3,0c0,.2,0,.6,0,.8v.8c.1,0,.2,1.3.2,1.3v.6c0,0,.7,4.4.7,4.4v.3s.8,3.7.8,3.7v.6c.1,0,.6,2.2.6,2.2v.3c.1,0,.5,2.1.5,2.1l.2.4,1,3.7v.3c.1,0,1.1,3.4,1.1,3.4v.4c.1,0,1.1,3,1.1,3l.3.8.2.5.4,1,2.3,5.8c4.2,9.6,9.7,18.6,16,26.8,3.2,4.2,6.8,8.2,10.6,12.1,9.6,9.8,20.4,18.2,32.2,25.3,8.2,4.9,16.8,9.3,25.7,12.9,23.8-9.9,45.4-24.1,62.6-43.3l5.7-6.9c7.6-9.9,14-20.9,18.3-32.6l.8-2.1.5-1.3.2-.6v-.2s.4-1.1.4-1.1l.3-1.1.2-.4,1-3.5.5-1.8.5-2.1.4-1.7,1.5-8.1v-.4c0,0,.2-.5.2-.5v-.9c0,0,.3-1.6.3-1.6v-.4c0,0,.2-.9.2-.9v-1.3c.1,0,.2-.9.2-.9v-1.2c0,0,.2-1.5.2-1.5h.2c0-.1-.1-.3-.2-.4v-2.4c.2,0,.5-.3.4-.5l-.2-.5v-3.5c.2,0,.3,0,.3-.1v-.4c0-.5,0-1.1-.2-1.5v-21.5c0,0,0-.3,0-.3v-4.4c0,0,.1-12,.1-12v-.3s0-3,0-3v-10.5s0-1.9,0-1.9V8.2s0-7,0-7H1.3s0,34.1,0,34.1ZM191.1,72.2c0-.1,0-.8,0-.8-.4,0-.4.8,0,.8ZM191.1,75.7v-1.3c-.5.4-.6,1,0,1.3Z"/>
  <path class="st5" d="M.1,9.1v-2.5s.4,0,.4,0V2.4s-.4,0-.4,0v-1.3s.8.6.8.6v33.5s-.4,0-.4,0V7.1s-.2,0-.2,0v1.6c0,.1-.2.5-.3.4Z"/>
  <path class="st5" d="M.3,93.9v-.4c0,.1.3-.3.3-.4v-4c0-.1-.4-.4-.4-.3v-.8c.2,0,.5-.3.4-.5s-.3-.3-.4-.3v-2.4c0,.1.4-.2.4-.3v-4.7c0-.1-.4-.4-.4-.3v-1.3s.4-.1.4-.1v-6.4s-.4,0-.4,0v-.6s.3,0,.3,0c0,0,.1-.2.1-.3v-3.2s.4,0,.4,0v26.1s-.6.1-.6.1Z"/>
  <path class="st5" d="M191.5,91.3v1.9c-.1,0-.6,0-.6,0-.2,0-.1-.5-.1-.7v-14.6s.4,0,.4,0v13.5s.4,0,.4,0Z"/>
  <polygon class="st5" points="191.8 51.4 191.6 51.2 191.6 35.5 191.9 35.3 191.8 51.4"/>
  <polygon class="st5" points="191.7 90.2 191.4 90 191.4 81 191.6 80.8 191.7 90.2"/>
  <path class="st5" d="M.1,24.6c-.1-2.6-.2-5.1,0-7.7l.3.4v7s-.3.4-.3.4Z"/>
  <polygon class="st1" points=".2 78.4 .2 71.8 .6 71.9 .6 78.2 .2 78.4"/>
  <path class="st1" d="M.2,84.9v-5.2c0-.1.4.2.4.3v4.7c0,.1-.4.4-.4.3Z"/>
  <polygon class="st1" points=".2 6.6 .2 2.4 .6 2.4 .6 6.6 .2 6.6"/>
  <path class="st1" d="M.3,93.6v-1.1c-.1,0,.1-.5.1-.5,0,0-.1-.3-.2-.3v-2.8c0-.1.4.2.4.3v4c0,.1-.2.6-.3.4Z"/>
  <path class="st5" d="M191.4,95.8c-.2-.4-.2-1.1,0-1.3,0,.5,0,.9,0,1.3Z"/>
  <polygon class="st5" points="191.8 1.2 191.6 0 192 .5 191.8 1.2"/>
  <path class="st5" d="M.8,0L.2.6C.2.6,0,0,.1,0h.6Z"/>
  <path class="st5" d="M.3,96.7c0-.4,0-.7,0-1.1.3.2.3.9,0,1.1Z"/>
  <path class="st5" d="M191.2,98.8c-.2-.3-.2-1,0-1.1,0,.4,0,.8,0,1.1Z"/>
  <path class="st5" d="M191.1,99.2v.5s-.6,0-.6,0c-.1,0,0-.7,0-.6l.5.2Z"/>
  <path class="st5" d="M191.8,3.7c-.1,0-.3-.3-.3-.5s.1-.5.3-.5v.9Z"/>
  <polygon class="st5" points="3.3 116.9 3 115.8 3.6 116 3.3 116.9"/>
  <path class="st5" d="M.5,99.4v-.8c0,0,.3.2.2.3l-.2.5Z"/>
  <path class="st5" d="M190.8,102.9l-.2-.3c0-.1.1-.5.3-.4v.8Z"/>
  <path class="st5" d="M.2,92.4v-.4c-.2,0,0-.3,0-.3,0,0,.2.2.2.3l-.2.5Z"/>
  <path class="st1" d="M.2,88.1v-.7c.2,0,.4.1.4.3s-.3.5-.4.5Z"/>
  <path class="st5" d="M190.4,106.3l-.2-.3c0,0,.2-.3.3-.3,0,0,.2.2.1.3l-.2.3Z"/>
  <path class="st5" d="M1.3,106.3l-.2-.3c0,0,0-.2.1-.3,0,0,.3.2.3.3l-.2.3Z"/>
  <path class="st5" d="M1,103.1l-.2-.3c0,0,0-.2.1-.3,0,0,.3.2.3.3l-.2.3Z"/>
  <path class="st5" d="M1.2,104.8l-.2-.3c0,0,0-.2.1-.3,0,0,.3.2.3.3l-.2.3Z"/>
  <path class="st5" d="M190.5,104.8c0,0,0-.3,0-.3l.2-.3v.4c0,0-.1.2-.2.2Z"/>
  <path class="st5" d="M189.1,114.7v.4c0,0-.1,0-.2.1,0,0,0-.3,0-.4l.3-.2Z"/>
  <path class="st5" d="M189.1,114.1v-.3c0,0,.1.2.1.2,0,0,0,0-.1.1Z"/>
  <path class="st5" d="M189.4,112.8v.4c0,0-.2,0-.2,0v-.3c0,0,.1-.2.2-.2Z"/>
  <path class="st5" d="M189.4,112.3v-.2c-.1,0,0-.2.1-.2v.3c.1,0-.2.1-.1,0Z"/>
  <path class="st5" d="M189.7,111.2v-.4c.1,0,.2.2.2.2s-.1.1-.2.1Z"/>
  <path class="st5" d="M2.1,111.2v-.3c-.2,0-.1,0,0-.2v.5Z"/>
  <path class="st5" d="M189.8,110v-.4c.1,0,.2.2.2.2s-.1.1-.2.1Z"/>
  <path class="st5" d="M191,100.9v-.4c.1,0,.2.2.2.2,0,0-.1.1-.2.1Z"/>
  <path class="st5" d="M190,108.9v-.4c.1,0,.2.2.2.2s-.2.1-.2.1Z"/>
  <path class="st5" d="M1.6,107.7l-.2-.3c0,0,0-.2,0-.3.1,0,.2,0,.2.1v.4Z"/>
  <path class="st5" d="M.1,35.9v-.4s0,.4,0,.4Z"/>
  <path class="st5" d="M188.5,117.3v.4c0,0-.1,0-.2.1v-.3c-.1,0,0-.2.2-.2Z"/>
  <path class="st5" d="M190.5,105.2v.4s-.3,0-.3,0c0,0-.2-.3,0-.3h.4Z"/>
  <path class="st5" d="M186.5,125l-.3.5c0,0,0-.3,0-.3l.3-.2Z"/>
  <path class="st5" d="M186.1,126.3v.4c0,0-.2.1-.2.1v-.3c0,0,.1-.2.2-.2Z"/>
  <path class="st5" d="M.8,101.1v-.2c-.2,0-.1,0,0-.1v.4Z"/>
  <polygon class="st3" points="190.7 35.3 188.9 35.3 1.3 35.3 1.3 1.2 190.6 1.2 190.7 8.2 190.7 35.3"/>
  <path class="st0" d="M188.9,35.3l.4,1.2c0,.2.2.8.4.8h.8s0,10.4,0,10.4h-.3c0,0-.1.3-.1.4v2.3c0,0,0,.3.1.3h.3s0,.4,0,.4l-.4.2v11.6s.3.2.3.2v4.4c0,0-.3.2-.3.2H1.3s0-32.4,0-32.4h187.6Z"/>
  <path class="st3" d="M190.2,67.6h.3c0,0,0,21.6,0,21.6v2.1c-.1,0-.2,3.5-.2,3.5v1c0,0-.2,2.4-.2,2.4,0,0-.1.2-.1.2s0,0,0,.1v1.5c-.1,0-1.8,0-1.8,0H1.8s0-.1,0-.1l-.2-.9v-2.2c-.1,0-.2-.8-.2-.8v-2.4s-.2-2.3-.2-2.3v-23.6s188.9,0,188.9,0Z"/>
  <path class="st0" d="M188.2,100.1l-.4,1.8c0,.2,0,.6.2.6l.4-.3,1-.7c0-.2.2-.5.3-.2v.9c0,0-.5.1-.5.1,0,0,0,.4,0,.5l.3.7v.9c-.1,0-.4,0-.4,0,0,0-.2.2-.1.3h.3c0,.1-.2,1.8-.2,1.8-.1,0-.2,0-.2-.2l-.2-.7-.5.7c-.1.2-.2.8,0,.9l.8.2v.5c0,0-.4.1-.4.1,0,0,.2.2.2.3l-1.5,8.1h-1.1c-.2.6-.4,1-.2,1.2s.6.6.9.5l-.5,2.1-1.2-.6c-.4-.2-1.1,1.1-.5,2s.8.4,1.3.4l-1,3.5h-.4c0,.1.2.4.2.4l-.3,1.1h-1c-.2,0-.5.7-.3.9s.7.3.9.3v.2s-.4.3-.4.3c0,0,.1.3.2.3l-.5,1.3c-.7-.2-1.2.1-1.7.7-1,.2-2,.7-2.6,1.4h-.7s-.8-.8-.8-.8c-.3-.2-1.1.1-1.4.3h-5.5c0,0-.4,0-.4,0-.1,0-.1.2-.1.4h-4.5c-.4-.6-1.3-.9-2.1-.8h-2.4c0,.1-1.5,0-1.5,0h-2.1s-9.3,0-9.3,0c-.2,0-.7.2-.9.1-.6-.3-1.3,0-2,.1-1.5.4-3.5-.3-3.6.5h-4.1c0-.2-.2-.4-.3-.4s-.5.2-.5.4h-3c0-.2-.3-.4-.5-.4s-.7.2-.7.4h-5.2s0-.3,0-.3h-.5c0,0-3.1-.4-3.1-.4-.8.6-1.7.2-1.7.4v.3s-3.4,0-3.4,0c0,0,0-.3,0-.3h-.6s-1.1,0-1.1,0c-.1,0-.2.3-.2.4h-1.5s0-.3,0-.3c0,0-.3-.2-.3-.1v.4c0,0-.5,0-.5,0v-.3c0,0-.3-.1-.4-.1h-1.7c0,0-.3,0-.3.1v.3s-1.5,0-1.5,0v-.3c0,0-.3-.1-.4-.1h-3c-1.1,0-2.1-.6-3.2-.4s-2.7.5-4,.4c-1.3-1-3.8,0-3.8.1v.3c0,0-1,0-1,0,0,0,.1-.3,0-.3h-.6c0-.1-2.4,0-2.4,0h-.6c-.1,0-.1.3-.1.4h-3.4s0-.3,0-.3c0,.2-2.4-.5-2.6-.5l-2.6.3h-2c-.8,0-1.7.2-2.5-.2-1.1-.5-2.2.8-3.7.2h-.9c0,.1-.3.2-.3.3v.3s-2.1,0-2.1,0c-.1-.5-1.2-.6-2.1-.4h-3.3c-.1,0-.4.4-.3.4h-1.9c0-.2-.2-.4-.3-.4s-.5.2-.5.4h-2.2c0,0-.1-.4-.2-.4h-2.7s-4.6,0-4.6,0c-1.1,0-2.1.1-3.1-.3l-1,.4h-4.1c0,0-.4.4-.3.4h-4.7c0-.3-.6-.8-.9-.8l-3,.5c-.1,0-.4.3-.3.3h-1.3c0,0-.1-.4-.2-.4h-1.7c-.1,0-.3.4-.2.4h-.4c0-.1,0-.3-.1-.4h-.6c-.8-.1-1.5-.2-2.3,0h-6s-.2.4-.2.4h-2.8c0-.2-.3-.4-.5-.4s-.5.3-.5.4h-.9s0-.3,0-.3c0,0-.3-.2-.3-.1v.4c0,0-1,0-1,0v-.3c0,0-.3-.1-.4-.1h-1.5c0,0-.3,0-.3.1v.3s-4.1,0-4.1,0v-.9s-1.9,0-1.9,0l-.2-.5c.2,0,.2-.4.1-.5l-.4-.2-1-3h.3c0-.2,0-.4-.1-.4h-.3s-1-3.5-1-3.5v-.3c-.1,0-1.1-3.7-1.1-3.7,0,0,.3-.3.2-.3h-.4c0-.1-.4-2.3-.4-2.3v-.3c-.1,0-.6-2.2-.6-2.2l.3-.5c0-.1-.4-.1-.4-.1l-.7-3.7v-.3s-.7-4.4-.7-4.4l.3-.5c0-.1-.3-.1-.4-.1v-1.3c0,0,.6-.2.6-.2.2,0,0-.7,0-.7h-.8c0,0,0-.5,0-.7l.2-1.5h-.5s0-.2,0-.2h186.4Z"/>
  <path class="st2" d="M14.8,132.3h2.3s.9,0,.9,0h.4s.9,0,.9,0h.9s2.8,0,2.8,0h9.2s.4,0,.4,0h2.1s1.3,0,1.3,0h4.1s4.7,0,4.7,0h16.1s2.2,0,2.2,0h.8s1.9,0,1.9,0h5.6s2,0,2,0h14.6s3.4,0,3.4,0h3.7s1,0,1,0h14.4s1.5,0,1.5,0h2.4s.4,0,.4,0h.4s1.5,0,1.5,0h1.9s3.4,0,3.4,0h5.4s5.2,0,5.2,0h1.1s3,0,3,0h.8s4.1,0,4.1,0h24s4.5,0,4.5,0h8.3s.7,0,.7,0h3c0,0,.3-.1.3-.1l.2.2c-4.4,11.7-10.7,22.7-18.3,32.6H27.5c-6.3-8.3-11.8-17.2-16-26.9l-2.3-5.8h1.6c0,0,4.1,0,4.1,0Z"/>
  <path class="st4" d="M164.3,165l-5.7,6.9c-17.2,19.2-38.8,33.4-62.6,43.3-8.9-3.6-17.4-8-25.7-12.9-11.8-7-22.6-15.5-32.2-25.3-3.8-3.9-7.3-7.9-10.6-12.1h136.8Z"/>
  <polygon class="st4" points="190.6 51 190.6 63 190.2 62.8 190.2 51.2 190.6 51"/>
  <path class="st4" d="M183.4,130.3l-.8,2.1-.2-.2.2-.6c0,0-.5,0-.5,0v.6s-3,0-3,0c.6-.7,1.6-1.2,2.6-1.4.4-.5,1-.8,1.7-.7Z"/>
  <path class="st4" d="M186.5,120.2l-.5,1.8c-.4,0-1,0-1.3-.4-.6-.9,0-2.2.5-2l1.2.6Z"/>
  <path class="st4" d="M189.9,100.1v1.2c-.2-.4-.3,0-.4.2l-1,.7-.4.3c-.1,0-.2-.4-.2-.6l.4-1.8h1.6Z"/>
  <path class="st4" d="M190.7,35.3v1.9s-.9,0-.9,0c-.2,0-.3-.6-.4-.8l-.4-1.2h1.7Z"/>
  <path class="st4" d="M187.4,116.4l-.4,1.7c-.4.1-.7-.1-.9-.5s0-.6.2-1.2h1.1Z"/>
  <polygon class="st4" points="10.7 132.3 9.1 132.3 8.8 131.4 10.7 131.4 10.7 132.3"/>
  <path class="st4" d="M189.2,106.5v.9c0,0-.9-.2-.9-.2-.2,0-.2-.7,0-.9l.5-.7.2.7c0,0,0,.1.2.2Z"/>
  <path class="st4" d="M184.5,127.1l-.4,1.1c-.2,0-.8,0-.9-.3s.1-.8.3-.8h1Z"/>
  <path class="st4" d="M190.6,47.7v3s-.3,0-.3,0c0,0-.1-.3-.1-.3v-2.3c0,0,0-.3.1-.3h.3Z"/>
  <path class="st5" d="M1.5,93.6c-.5-.3-.5-1.6-.2-2.3l.2,2.3Z"/>
  <path class="st5" d="M190.3,91.3v-2.1c.3.4.3,1,.3,1.5v.4c0,0-.2.1-.3.1Z"/>
  <polygon class="st4" points="2.1 101.8 1.8 101.7 1.8 100.3 2.3 100.3 2.1 101.8"/>
  <path class="st4" d="M2.2,103.3v-.8c-.1,0,.7-.1.7-.1,0,0,.2.7,0,.7l-.7.2Z"/>
  <path class="st4" d="M189.7,102.2v1.3c-.1,0-.5-.7-.5-.7,0,0,0-.4,0-.5h.4Z"/>
  <path class="st5" d="M191.1,75.7c-.6-.4-.5-1,0-1.3v1.3Z"/>
  <path class="st5" d="M190.2,95.8v-1c0,0,.3.5.3.5,0,.1-.2.4-.3.5Z"/>
  <path class="st5" d="M1.9,99.9l-.4-.5c0-.1.1-.4.2-.5l.2.9Z"/>
  <path class="st5" d="M1.6,96.7c0,0-.3-.3-.3-.4v-.3c.1,0,.3.8.3.8Z"/>
  <path class="st4" d="M8.6,130.8l-.3-.8.4.2c.1,0,0,.6-.1.5Z"/>
  <path class="st5" d="M191.1,72.2c-.4,0-.4-.7,0-.8,0,0,0,.7,0,.8Z"/>
  <path class="st4" d="M3.9,114.2v-.6c0,0,.3,0,.3.1l-.3.5Z"/>
  <path class="st4" d="M2.3,105.2v-.6s.3,0,.3.1l-.3.5Z"/>
  <path class="st4" d="M183.9,128.9c0,0-.3-.2-.2-.3l.4-.3-.2.6Z"/>
  <path class="st4" d="M189.5,104.4v.4c0,0-.4-.1-.4-.1,0,0,0-.3.1-.3h.3Z"/>
  <path class="st4" d="M189.1,107.9v.4c-.1,0-.4-.2-.3-.3h.3Z"/>
  <path class="st5" d="M190,98.6c0,0,0-.1,0-.1,0,0,0-.3.1-.2,0,0,.3.3.2.3h-.2Z"/>
  <path class="st4" d="M5,119.2l-.2-.4h.4c0,.2-.2.4-.2.4Z"/>
  <path class="st4" d="M185,125.6l-.2.4s-.3-.3-.2-.3h.4Z"/>
  <path class="st4" d="M7.3,127.1v-.4c-.1,0,.1,0,.1,0,0,0,.2.2.1.3h-.3Z"/>
  <path class="st4" d="M4.4,116.7v-.3c-.1,0,0,.3,0,.3Z"/>
  <path class="st4" d="M3,109.9v-.3s0,.3,0,.3Z"/>
  <polygon class="st5" points="190.5 67.7 190.2 67.6 190.5 67.4 190.5 67.7"/>
  <path class="st4" d="M6.1,123.2v-.3c-.1,0,0,.3,0,.3Z"/>
  <path class="st4" d="M165.7,132.3h-24c0-.8,2.1,0,3.6-.5s1.4-.4,2-.1.7,0,.9-.1h9.3s2.1,0,2.1,0h1.5c0,.1,2.4,0,2.4,0,.8,0,1.7.2,2.1.8Z"/>
  <path class="st4" d="M110.6,132.3h-14.4s0-.3,0-.3c0-.1,2.5-1.2,3.8-.1,1.3.1,2.6-.1,4-.4s2.1.3,3.2.3h3c0,0,.3.1.3.2v.3Z"/>
  <path class="st4" d="M88.1,132.3h-14.6s0-.3,0-.3c0,0,.2-.1.3-.1h.9c1.6.4,2.6-.9,3.7-.3s1.6.3,2.5.3h2c0,0,2.6-.3,2.6-.3.2,0,2.6.6,2.6.5v.3Z"/>
  <path class="st4" d="M60.9,132.3h-16.1c-.1,0,.2-.4.3-.4h4.1s1-.4,1-.4c1.1.5,2,.3,3.1.3h4.6s2.7,0,2.7,0c.1,0,.3.4.2.4Z"/>
  <path class="st4" d="M32.2,132.3h-9.2s.2-.4.2-.4h6c.8-.2,1.5,0,2.3,0h.6c.1,0,.1.3.1.4Z"/>
  <path class="st4" d="M178.5,132.3h-8.3c0-.1,0-.4.1-.4h.4s5.5,0,5.5,0c.3-.2,1.1-.5,1.4-.3l.8.8Z"/>
  <path class="st4" d="M127.5,132.3h-5.4s0-.3,0-.3c0-.2.9.2,1.7-.4l3.1.4h.5c0,0,0,.3,0,.4Z"/>
  <path class="st4" d="M71.4,132.3h-5.6c-.1,0,.2-.4.3-.4h3.3c.9-.2,2-.1,2.1.4Z"/>
  <path class="st4" d="M40.1,132.3h-4.1c0,0,.2-.3.3-.3l3-.5c.3,0,.8.5.9.8Z"/>
  <path class="st4" d="M95.2,132.3h-3.7c0-.1,0-.4.1-.4h.6s2.4,0,2.4,0h.6c0,.1,0,.3,0,.4Z"/>
  <path class="st4" d="M114.5,132.3h-2.4s0-.3,0-.3c0,0,.3-.1.3-.1h1.7c0,0,.3,0,.3.1v.3Z"/>
  <path class="st4" d="M17.1,132.3h-2.3s0-.3,0-.3c0,0,.3-.1.3-.1h1.5c0,0,.3,0,.3.1v.3Z"/>
  <path class="st4" d="M34.7,132.3h-2.1c0,0,.1-.4.2-.4h1.7c.1,0,.3.4.2.4Z"/>
  <path class="st4" d="M118.7,132.3h-1.9c0,0,0-.4.2-.4h1.1s.6,0,.6,0c0,0,0,.3,0,.3Z"/>
  <path class="st4" d="M133.8,132.3h-1.1c0-.2.4-.4.7-.4s.5.2.5.4Z"/>
  <path class="st4" d="M20.2,132.3h-.9c0-.2.3-.4.5-.4s.5.3.5.4Z"/>
  <path class="st4" d="M137.6,132.3h-.8c0-.2.3-.4.5-.4s.3.3.3.4Z"/>
  <path class="st4" d="M63.9,132.3h-.8c0-.2.3-.4.5-.4s.3.3.3.4Z"/>
  <path class="st4" d="M18.4,132.3h-.4s0-.4,0-.4c0,0,.3,0,.3.1v.3Z"/>
  <path class="st4" d="M115.3,132.3h-.4s0-.4,0-.4c0,0,.3,0,.3.1v.3Z"/>
  <path class="st0" d="M182.5,132.2h-.3s0-.6,0-.6c0-.1.4,0,.5,0l-.2.6Z"/>
</svg>