<?xml version="1.0" encoding="UTF-8"?>
<svg id="Capa_2" xmlns="http://www.w3.org/2000/svg" version="1.1" viewBox="0 0 232.2 232.1">
  <!-- Generator: Adobe Illustrator 30.3.0, SVG Export Plug-In . SVG Version: 2.1.3 Build 157)  -->
  <defs>
    <style>
      .st0 {
        fill: #a00000;
      }

      .st1 {
        fill: #f9cb0d;
      }
    </style>
  </defs>
  <path class="st0" d="M26.1,198.5V2.8h180.9v196.7l-.2.8c-1.7,10.8-11,19.3-22.1,19.3h-49.9c-7.3,0-13.9,3.8-17.9,9.6h-.7c-3.8-5.8-10.4-9.5-17.6-9.6h-50.3c-11.5-.1-21-9.8-22.3-21.1ZM185.2,218.5c11.4-.7,20.2-9.7,20.8-21v-10s-63.6-76.3-63.6-76.3l63.6-76.3V3.9s-25.7,0-25.7,0l-63.7,76.4L52.9,3.9h-25.7s0,31,0,31l63.6,76.3-63.6,76.3v10c.6,11.4,9.6,20.4,21,21h4.7s63.7-76.4,63.7-76.4l63.7,76.4h4.9ZM114.7,41.7l.2,2.7h1.6s0-32.5,0-32.5c-6.1,6.9-7.6,13.2-3.8,21.7s1.8,5.3,2,8.2ZM120.8,32.9c3.6-8.1,1.7-14.5-4-21v32.4s1.5,0,1.5,0l.2-2.6c.3-3.1,1-6,2.3-8.8ZM113.6,44.3h1c-.6-5.1-3.9-12.4-8.9-13.7s-4.6.4-6.2,2.1-1.7,4.7,0,6.7,2.6,2.2,4.2,2.9c-1-1.5-1.8-3-1.9-4.6s1.1-3.3,2.9-3.3c4.6-.1,8.4,5.3,8.8,10ZM128.9,34.4c1.5.2,2.5,1.2,2.6,2.7s-.8,3.5-1.8,5.2c1.9-.8,3.5-2,4.6-3.6s1.2-4-.2-5.7-1.7-1.6-2.8-2.1c-6.5-2.8-12,7.2-12.5,13.5h1c.4-4.8,4.5-10.5,9.2-10ZM111.7,44.4h1.5c-.3-4.4-4.2-9.9-8.5-9.6s-2.6,1.2-2.5,2.7.5,2.4,1.1,3.3c0-.8,0-1.6.4-2,1.6-1.5,6.9,2.3,8,5.5ZM129.4,38.7c.9.6.6,1.5.6,2.3.7-1.1,1.2-2.5,1.2-3.9s-.9-2.3-2.2-2.4c-4.5-.6-8.5,5.1-8.9,9.6h1.6c1-3.1,5.9-6.8,7.7-5.7ZM122.4,45.3c-.2-.4-.5-.5-.8-.5h-9.8c-.4,0-.8.3-.9.5h11.5ZM121.6,46.9c.7,0,1.3-.6,1-1.2h-12c0,.8.5,1.2,1.2,1.2h9.8ZM108.1,54.4c3.2-1,5-3.8,5.1-7.1h-1.1c-.4,3-2.1,4.9-4,7.1ZM114.7,47.3h-1.1c0,3.5-1.9,6.3-5.2,7.6,4,.1,6.2-3.7,6.3-7.6ZM116.5,61v-13.7s-1.4,0-1.4,0c-.2,1.3-.4,2.3-.7,3.6-.3,3.7-.5,7.5,2.1,10.2ZM118.9,50.9l-.7-3.6h-1.3c0,0,0,13.7,0,13.7,1.4-1.5,2-3.4,2.2-5.4s.1-3.2-.2-4.7ZM125.2,54.9c-3.4-1.3-5.4-4.1-5.5-7.6h-1.2c.2,4.2,2.5,7.8,6.7,7.6ZM124,52.8c-1.4-1.7-2.6-3.4-2.8-5.6h-1.1c0,3.3,2,6.2,5.3,7.2l-1.4-1.6ZM52,114.8l.2,2.7h1.5s0-32.5,0-32.5c-3.9,4.4-6.5,9.3-5.7,15.2.3,1.8.7,3.5,1.4,5.2,1.3,3,2.2,6,2.5,9.4ZM57.8,106.9c1.2-2.6,2-5.2,2.2-8,.3-5.3-2.4-9.9-5.8-13.9v32.4s1.5,0,1.5,0l.2-2.6c.2-2.8.7-5.3,1.9-7.9ZM177.3,113.5l.4,3.9h1.6s0-30.2,0-30.2v-2.2c-6.2,7.3-7.6,13-3.8,21.7.9,2.2,1.6,4.4,1.9,6.8ZM181.3,114.8c.2-3,.9-5.7,2.1-8.3,3.7-8.4,2.1-14.5-3.8-21.4v2.5s0,28.4,0,28.4v1.5s1.5,0,1.5,0l.2-2.7ZM50.8,117.4h1.1c-.6-5-3.8-12.3-8.8-13.7s-4.6.3-6.2,1.9-2,4.9,0,7,2.5,2.1,4,2.8c-1.1-1.6-1.8-3.1-1.9-4.9s1.1-2.8,2.8-2.9c4.9-.1,8.5,5.2,9,10ZM66,107.4c1.6.1,2.7,1.2,2.8,2.8s-.8,3.4-1.8,5.1c3-1.3,5.8-3.8,5.4-6.9s-1-2.6-2.2-3.5c-3.6-2.7-7.5-1.2-10.1,2.3s-3.6,6.5-4.1,10.3h1c.4-4.7,4.3-10.3,9-10ZM176.3,117.5h1.1c-.7-4.7-2.6-9.3-6.2-12.4s-6-2-8.5.2-2.5,4.9-.5,7.1,2.5,2.3,4.1,2.9c-.9-1.6-1.6-2.9-1.8-4.5s1.1-3.3,3-3.3c4.6,0,8.4,5.3,8.8,10ZM191.6,107.5c1.9.2,2.7,1.7,2.6,3.5s-.9,2.9-1.8,4.4c1.8-.8,3.3-1.8,4.4-3.3s1.5-4,.2-5.8-4.5-3.3-7.1-2.4c-4.7,1.7-7.8,8.5-8.4,13.6h1c.4-4.6,4.5-10.4,9.1-9.9ZM49,117.5h1.5c-.4-4.4-4-9.7-8.4-9.7s-2.8,1.1-2.7,2.8.5,2.3,1.1,3.3c.1-.8.1-1.4.5-1.8,1.4-1.6,6.9,2.2,8,5.5ZM67.1,112.2c.2.5.2,1.1.2,1.9.9-1.6,1.8-3.8.7-5.3s-3.9-1.1-5.9.4-4.2,5-4.6,8.3h1.5c1.3-3.7,7.2-7.3,8.2-5.3ZM174.4,117.4h1.5c-.4-4.4-4-9.7-8.4-9.6s-2.3.6-2.5,1.7c-.4,1.6.2,3.2,1,4.5,0-.7-.1-1.6.5-2.1,1.9-1.4,6.8,2.5,7.9,5.5ZM192.4,112.2c.3.4.2,1.3.2,1.8.8-1.1,1.2-2.5,1.1-4s-.8-1.9-1.9-2.1c-4.4-.8-8.7,4.9-9,9.6h1.5c1.1-3.2,6.6-7.3,8.2-5.3ZM59.7,118.4c-.3-.5-.6-.5-1-.5h-9.6c-.3,0-.8.3-.9.5h11.5ZM185.1,118.4c-.2-.4-.5-.5-.8-.5h-9.6c-.4,0-.9.1-1.2.5h11.6ZM58.8,120c.7,0,1.3-.7,1-1.3h-12c0,.7.5,1.3,1.1,1.3h9.8ZM184.1,120c.7,0,1.3-.5,1.3-1.2h-12.1c-.1.8.5,1.2,1.2,1.2h9.6ZM50.5,120.4h-1.1c-.3,1.5-.6,2.9-1.5,4.1l-2.5,3.1c3.4-1.1,4.9-3.7,5.1-7.2ZM50.7,125.1c.8-1.5,1.2-3.1,1.3-4.7-.4,0-.9-.1-1,0-.5.7.3,5.2-5.4,7.6,2.2.1,3.9-1.1,5.1-2.9ZM53.8,134.1v-13.7s-1.3,0-1.3,0l-.7,3.6c-.3,1.7-.3,3.5-.1,5.1s.8,3.6,2.2,5ZM56.1,123.7l-.7-3.4h-1.3s0,13.6,0,13.6c2.4-2.1,2.6-7,2-10.2ZM62.5,128c-3.4-1.3-5.4-4-5.5-7.5h-1.2c.2,4.2,2.4,7.6,6.6,7.5ZM61.7,126.3c-1.2-1.5-2.5-3.1-3-5.1s0-.8-.2-.8h-1.1c0,3.2,2,6.1,5.3,7.1l-1-1.2ZM175.9,120.4h-1.1c-.4,3.1-2.1,5.1-4.1,7.3,3.5-1.2,5.1-3.8,5.2-7.3ZM177.4,120.4h-1.1c-.3,3.9-1.8,6-5.2,7.6,4.1,0,6.1-3.7,6.3-7.6ZM179.2,134v-13.6s-1.3,0-1.3,0l-.7,3.7c-.6,3-.3,8,2,10ZM181.5,123.9l-.7-3.6h-1.3c0,0,0,13.7,0,13.7,2.3-2.3,2.6-7,2-10.1ZM188,128c-3.4-1.3-5.5-4.1-5.5-7.6h-1.2c.3,4.3,2.4,7.7,6.7,7.6ZM186.4,125.5c-1.3-1.5-2.2-3.2-2.5-5.2h-1.1c0,3.3,2,6.2,5.3,7.2l-1.8-2ZM114.7,187l.2,2.7h1.6c0-.1,0-32.5,0-32.5-4.1,4.7-6.7,9.6-5.7,15.9.4,2.1,1.1,4,1.9,6s1.7,5.1,1.9,7.9ZM120.6,178.8c3.8-8.7,2.1-14.7-3.8-21.6v32.4s1.5,0,1.5,0l.2-2.7c.2-2.9.9-5.5,2-8.2ZM113.6,189.6h1c-.7-5.2-3.7-12.1-8.7-13.7s-4.8.3-6.4,2.1-1.7,4.4-.2,6.3,2.7,2.5,4.4,3.3c-1-1.5-1.9-3.1-1.9-4.9s.9-2.8,2.5-3c4.6-.6,8.8,5.1,9.2,9.9ZM128.6,179.7c1.7,0,2.8,1.2,2.9,2.8s-.8,3.5-1.9,5.1c3.3-1.4,6.6-4.6,5.2-7.9s-3.9-4.4-6.8-3.9c-5.1.8-8.8,8.6-9.4,13.8h1c.5-4.7,4-10,8.9-10ZM111.7,189.7h1.5c-.4-4.6-4.3-10-8.7-9.6s-2.5,1.3-2.4,2.8.5,2.3,1.1,3.3c0-.7,0-1.5.5-2,1.5-1.5,6.8,2.2,7.9,5.5ZM129.6,184.3c.3.5.4,1.1.3,1.9,1-1.5,1.8-3.8.6-5.3s-4.3-1-6.4.8-3.7,4.8-4.1,7.9h1.5c1.2-3.4,6.8-7.1,8.1-5.4ZM122.3,190.6c-.2-.3-.5-.4-.8-.5h-9.9c-.3.1-.6.3-.8.5h11.5ZM121.8,192.2c.6,0,1.1-.8.9-1.2h-12c-.2.7.4,1.3,1.2,1.3h10ZM113.3,192.7h-1.2c-.4,3-2.1,5.1-4.1,7.2,3.5-1.2,4.9-3.6,5.2-7.2ZM113.5,197.2c.8-1.5,1.1-2.9,1.2-4.6h-1.1c0,2-.6,3.6-1.7,5.2-1,1-2.1,1.7-3.3,2.4,2.2,0,3.8-1.2,4.9-3ZM116.5,206.2v-13.6s-1.4,0-1.4,0l-.7,3.4c-.4,3.5-.5,7.8,2.1,10.1ZM118.8,196.1l-.7-3.4h-1.3s0,13.7,0,13.7c1.4-1.5,2-3.4,2.2-5.5s.1-3.2-.2-4.7ZM125,200.2c-3.3-1.4-5.2-4-5.3-7.5h-1.2c.2,1.7.5,3,1.2,4.4,1.1,1.9,3,3.3,5.3,3.1ZM121.2,192.7h-1.1c0,3.5,2.2,6.2,5.4,7.2-2.1-2.1-3.9-4.2-4.4-7.2Z"/>
  <path class="st1" d="M185.2,218.5h-4.9s-63.7-76.4-63.7-76.4l-63.7,76.4h-4.7c-11.4-.5-20.5-9.5-21-21v-10s63.6-76.3,63.6-76.3L27.3,34.9V3.9s25.7,0,25.7,0l63.7,76.4L180.3,3.9h25.6s0,31,0,31l-63.6,76.3,63.6,76.3v10c-.5,11.3-9.4,20.3-20.8,21Z"/>
  <path class="st1" d="M177.3,113.5c-.2-2.4-.9-4.7-1.9-6.8-3.7-8.7-2.4-14.4,3.7-21.7v2.2c.1,0,.1,30.2.1,30.2h-1.6s-.4-3.9-.4-3.9Z"/>
  <path class="st1" d="M114.7,41.7c-.3-2.9-.9-5.6-2-8.2-3.8-8.5-2.3-14.8,3.8-21.7v32.5s-1.5,0-1.5,0l-.2-2.7Z"/>
  <path class="st1" d="M114.7,187c-.2-2.8-.8-5.4-1.9-7.9s-1.5-3.9-1.9-6c-1-6.3,1.6-11.2,5.7-15.9v32.4s-1.6.1-1.6.1l-.2-2.7Z"/>
  <path class="st1" d="M52,114.8c-.3-3.4-1.2-6.4-2.5-9.4s-1.1-3.4-1.4-5.2c-.8-5.9,1.8-10.8,5.7-15.2v32.5s-1.5,0-1.5,0l-.2-2.7Z"/>
  <path class="st1" d="M57.8,106.9c-1.2,2.6-1.7,5.2-1.9,7.9l-.2,2.6h-1.5s0-32.5,0-32.5c3.4,3.9,6.1,8.6,5.8,13.9-.2,2.8-1,5.4-2.2,8Z"/>
  <path class="st1" d="M120.8,32.9c-1.3,2.8-2,5.7-2.3,8.8l-.2,2.6h-1.5s0-32.5,0-32.5c5.7,6.6,7.6,12.9,4,21Z"/>
  <path class="st1" d="M120.6,178.8c-1.2,2.7-1.8,5.3-2,8.2l-.2,2.7h-1.5c0,0,0-32.5,0-32.5,5.9,6.9,7.6,12.9,3.8,21.6Z"/>
  <path class="st1" d="M181.3,114.8l-.2,2.7h-1.5c0,0,0-1.5,0-1.5v-28.4s0-2.5,0-2.5c5.9,6.8,7.5,13,3.8,21.4s-1.9,5.3-2.1,8.3Z"/>
  <path class="st1" d="M191.6,107.5c-4.7-.5-8.8,5.3-9.1,10h-1c.6-5.2,3.7-12,8.4-13.7s5.5.3,7.1,2.4,1.2,4-.2,5.8-2.6,2.5-4.4,3.3c.9-1.5,1.6-2.8,1.8-4.4s-.6-3.3-2.6-3.5Z"/>
  <path class="st1" d="M176.3,117.5c-.4-4.7-4.2-10.1-8.8-10s-3.1,1.4-3,3.3.8,2.9,1.8,4.5c-1.5-.6-3-1.6-4.1-2.9-2-2.2-1.7-5.2.5-7.1s5.9-2.4,8.5-.2,5.5,7.7,6.2,12.3h-1.1Z"/>
  <path class="st1" d="M128.9,34.4c-4.7-.5-8.8,5.2-9.2,9.9h-1c.6-6.2,6-16.2,12.5-13.4s2.1,1.2,2.8,2.1c1.4,1.7,1.5,3.9.2,5.7s-2.7,2.8-4.6,3.6c1-1.7,1.9-3.3,1.8-5.2s-1.1-2.5-2.6-2.7Z"/>
  <path class="st1" d="M113.6,189.6c-.5-4.8-4.6-10.5-9.2-9.9s-2.5,1.4-2.5,3,.9,3.4,1.9,4.9c-1.8-.8-3.3-1.9-4.4-3.3s-1.5-4.4.2-6.3,4.1-2.8,6.4-2.1c5,1.5,8,8.5,8.7,13.7h-1Z"/>
  <path class="st1" d="M128.6,179.7c-4.9,0-8.4,5.3-8.9,10h-1c.6-5.2,4.3-13.1,9.4-13.8s5.7,1.3,6.8,3.9-1.9,6.4-5.2,7.9c1-1.7,2-3.3,1.9-5.1s-1.2-2.7-2.9-2.8Z"/>
  <path class="st1" d="M66,107.4c-4.6-.3-8.6,5.3-9,9.9h-1c.5-3.7,1.8-7.1,4.1-10.2s6.5-5.1,10.1-2.3,2.1,2.2,2.2,3.5c.4,3.1-2.4,5.6-5.4,6.9,1-1.6,1.9-3.2,1.8-5.1s-1.2-2.7-2.8-2.8Z"/>
  <path class="st1" d="M113.6,44.3c-.4-4.6-4.2-10.1-8.8-10s-3.1,1.5-2.9,3.3.9,3.1,1.9,4.6c-1.5-.7-3-1.7-4.2-2.9-1.8-2-1.9-4.7,0-6.7s3.9-2.7,6.2-2.1c5,1.3,8.3,8.7,8.9,13.8h-1Z"/>
  <path class="st1" d="M50.8,117.4c-.5-4.8-4.1-10.1-9-10-1.6.1-2.8,1.3-2.8,2.9s.8,3.4,1.9,4.9c-1.6-.6-2.9-1.6-4-2.8-1.9-2.1-2-5,0-7s3.9-2.5,6.2-1.9c5,1.4,8.2,8.7,8.8,13.8h-1.1Z"/>
  <path class="st1" d="M192.4,112.2c-1.6-2-7,2.1-8.2,5.3h-1.5c.3-4.7,4.6-10.4,9-9.6s1.9,1,1.9,2.1-.3,2.8-1.1,4c0-.5,0-1.4-.2-1.8Z"/>
  <path class="st1" d="M129.6,184.3c-1.3-1.8-6.8,2-8.1,5.4h-1.5c.4-3.2,1.8-5.9,4.1-7.9s5.1-2.4,6.4-.8.4,3.7-.6,5.3c0-.8,0-1.4-.3-1.9Z"/>
  <path class="st1" d="M111.7,44.4c-1.1-3.2-6.4-7-8-5.5s-.4,1.1-.4,2c-.6-.9-1-2.1-1.1-3.3s.9-2.6,2.5-2.7c4.4-.3,8.2,5.2,8.5,9.6h-1.5Z"/>
  <path class="st1" d="M174.4,117.4c-1-3-6-6.9-7.9-5.5s-.5,1.3-.5,2.1c-.8-1.3-1.4-2.9-1-4.5s1.4-1.7,2.5-1.7c4.3,0,8,5.3,8.4,9.7h-1.5Z"/>
  <path class="st1" d="M67.1,112.2c-1-2-6.9,1.5-8.2,5.2h-1.5c.4-3.3,1.9-6.3,4.6-8.3s4.8-1.8,5.9-.4.3,3.8-.7,5.3c0-.8,0-1.4-.2-1.9Z"/>
  <path class="st1" d="M129.4,38.7c-1.8-1.1-6.7,2.6-7.7,5.6h-1.6c.4-4.5,4.4-10.1,8.9-9.6s2.2,1.1,2.2,2.4-.5,2.7-1.2,3.9c0-.8.4-1.7-.6-2.3Z"/>
  <path class="st1" d="M49,117.5c-1.1-3.3-6.5-7.1-8-5.5s-.4,1.1-.5,1.8c-.5-1-1-2.1-1.1-3.3s1.1-2.7,2.7-2.8c4.4,0,8,5.2,8.4,9.7h-1.5Z"/>
  <path class="st1" d="M111.7,189.7c-1.1-3.3-6.5-7-7.9-5.5s-.5,1.2-.5,2c-.6-1-1-2.1-1.1-3.3s.8-2.7,2.4-2.8c4.4-.4,8.3,5,8.7,9.6h-1.5Z"/>
  <path class="st1" d="M179.2,134c-2.4-2-2.6-7-2-10l.7-3.7h1.4c0,0,0,13.7,0,13.7Z"/>
  <path class="st1" d="M116.5,61c-2.6-2.7-2.4-6.5-2.1-10.2.4-1.2.6-2.3.7-3.6h1.4s0,13.7,0,13.7Z"/>
  <path class="st1" d="M116.5,206.2c-2.6-2.3-2.4-6.6-2.1-10.1l.7-3.4h1.4s0,13.6,0,13.6Z"/>
  <path class="st1" d="M53.8,134.1c-1.3-1.4-2-3.1-2.2-5s-.2-3.5.1-5.1l.7-3.6h1.4s0,13.7,0,13.7Z"/>
  <path class="st1" d="M56.1,123.7c.6,3.2.5,8.1-2,10.2v-13.6s1.3,0,1.3,0l.7,3.4Z"/>
  <path class="st1" d="M118.9,50.9c.3,1.5.3,3.2.2,4.7s-.7,3.9-2.2,5.4v-13.6s1.3,0,1.3,0l.7,3.6Z"/>
  <path class="st1" d="M118.8,196.1c.3,1.6.3,3.2.2,4.7s-.7,4-2.2,5.5v-13.6s1.3,0,1.3,0l.7,3.4Z"/>
  <path class="st1" d="M181.5,123.9c.6,3.1.4,7.8-2,10.1v-13.6s1.3,0,1.3,0l.7,3.6Z"/>
  <path class="st1" d="M121.8,192.2h-10c-.7,0-1.3-.5-1.2-1.2h12c.2.4-.3,1.2-.9,1.2Z"/>
  <path class="st1" d="M184.1,120h-9.6c-.7,0-1.3-.5-1.2-1.3h12.1c0,.8-.6,1.3-1.3,1.3Z"/>
  <path class="st1" d="M58.8,120h-9.8c-.6,0-1.2-.5-1.1-1.2h12c.3.6-.3,1.2-1,1.2Z"/>
  <path class="st1" d="M121.6,46.9h-9.8c-.7,0-1.3-.4-1.2-1.2h12c.2.6-.4,1.2-1,1.2Z"/>
  <path class="st1" d="M188,128c-4.3,0-6.4-3.4-6.7-7.6h1.2c0,3.6,2.1,6.3,5.5,7.6Z"/>
  <path class="st1" d="M62.5,128c-4.2.1-6.4-3.4-6.6-7.6h1.2c0,3.7,2.1,6.3,5.5,7.6Z"/>
  <path class="st1" d="M125.2,54.9c-4.2.2-6.5-3.4-6.7-7.6h1.2c0,3.6,2.1,6.3,5.5,7.6Z"/>
  <path class="st1" d="M125,200.2c-2.3.2-4.2-1.2-5.3-3.1-.7-1.4-1-2.8-1.2-4.5h1.2c.1,3.5,2,6.1,5.3,7.5Z"/>
  <path class="st1" d="M121.2,192.7c.5,3,2.3,5.1,4.4,7.2-3.3-1-5.4-3.7-5.4-7.2h1.1Z"/>
  <path class="st1" d="M61.7,126.3l1,1.2c-3.3-1-5.3-3.9-5.3-7.2h1.1c.2.1.2.7.2.9.5,2,1.8,3.6,3,5.1Z"/>
  <path class="st1" d="M186.4,125.5l1.8,2c-3.3-1-5.3-3.8-5.3-7.2h1.1c.2,2,1.1,3.7,2.5,5.2Z"/>
  <path class="st1" d="M124,52.8l1.4,1.6c-3.3-1-5.3-3.8-5.3-7.2h1.1c.2,2.2,1.3,3.9,2.8,5.6Z"/>
  <path class="st1" d="M114.7,47.3c-.1,4-2.4,7.7-6.3,7.6,3.3-1.3,5.2-4.1,5.2-7.6h1.1Z"/>
  <path class="st1" d="M175.9,120.4c-.2,3.5-1.8,6-5.2,7.3,2-2.2,3.7-4.2,4.1-7.3h1.1Z"/>
  <path class="st1" d="M50.7,125.1c-1.2,1.8-2.9,3.1-5.1,2.9,5.7-2.3,4.9-6.8,5.4-7.6s.6,0,1,0c0,1.6-.4,3.2-1.3,4.7Z"/>
  <path class="st1" d="M177.4,120.4c-.2,3.9-2.2,7.6-6.3,7.6,3.4-1.7,4.9-3.7,5.2-7.6h1.1Z"/>
  <path class="st1" d="M108.1,54.4c1.9-2.3,3.6-4.1,4-7.1h1.1c0,3.3-1.8,6.1-5.1,7.1Z"/>
  <path class="st1" d="M113.3,192.7c-.3,3.6-1.8,6-5.2,7.2,1.9-2.1,3.7-4.2,4.1-7.2h1.2Z"/>
  <path class="st1" d="M50.5,120.4c-.2,3.5-1.7,6-5.1,7.2l2.5-3.1c.9-1.2,1.3-2.6,1.5-4.1h1.1Z"/>
  <path class="st1" d="M113.5,197.2c-1.1,1.8-2.8,3.1-4.9,3,1.3-.7,2.4-1.4,3.3-2.4,1.1-1.5,1.7-3.2,1.7-5.1h1.1c-.1,1.7-.5,3.1-1.2,4.6Z"/>
  <path class="st1" d="M122.4,45.3h-11.5c0-.3.6-.5.9-.5h9.8c.3,0,.5.1.8.5Z"/>
  <path class="st1" d="M185.1,118.4h-11.6c.3-.4.8-.5,1.2-.5h9.6c.3,0,.5.1.8.5Z"/>
  <path class="st1" d="M59.7,118.4h-11.5c.1-.2.6-.5.9-.5h9.6c.4,0,.7,0,1,.5Z"/>
  <path class="st1" d="M122.3,190.6h-11.5c.2-.2.5-.4.8-.5h9.9c.3,0,.5.2.8.5Z"/>
</svg>