<?xml version="1.0" encoding="UTF-8"?>
<svg id="Capa_3" xmlns="http://www.w3.org/2000/svg" version="1.1" viewBox="0 0 232.2 232.1">
  <!-- Generator: Adobe Illustrator 30.3.0, SVG Export Plug-In . SVG Version: 2.1.3 Build 157)  -->
  <defs>
    <style>
      .st0 {
        fill: #9c2317;
      }

      .st1 {
        fill: #12190a;
      }

      .st2 {
        fill: #e5a837;
      }

      .st3 {
        fill: #243b14;
      }

      .st4 {
        fill: #daba5f;
      }

      .st5 {
        fill: #575e39;
      }

      .st6 {
        fill: #1e1e17;
      }

      .st7 {
        fill: #f30000;
      }

      .st8 {
        fill: #243119;
      }

      .st9 {
        fill: #aa9b59;
      }

      .st10 {
        fill: #030202;
      }
    </style>
  </defs>
  <path class="st7" d="M-2363.3-81.2l39.2,127.3,3.1,10,10.5-.2,133.2-2.1-109,76.6-8.6,6,3.4,9.9,43.1,126-106.5-79.9-8.4-6.3-8.4,6.3-106.5,79.9,43.1-126,3.4-9.9-8.6-6-109-76.6,133.2,2.1,10.5.2,3.1-10,39.2-127.3M-2363.3-128.7l-52.6,170.7-178.6-2.8,146.1,102.8-57.8,169,142.9-107.2,142.9,107.2-57.8-169,146.1-102.8-178.6,2.8-52.6-170.7h0Z"/>
  <path class="st7" d="M-2363.3,42.5l12.3,40,3.1,10,10.5-.2,41.8-.6-34.2,24.1-8.6,6,3.4,9.9,13.5,39.6-33.5-25.1-8.4-6.3-8.4,6.3-33.5,25.1,13.5-39.6,3.4-9.9-8.6-6-34.2-24.1,41.8.6,10.5.2,3.1-10,12.3-40M-2363.3-5.1l-25.7,83.4-87.3-1.3,71.4,50.2-28.3,82.6,69.8-52.4,69.8,52.4-28.3-82.6,71.4-50.2-87.3,1.3-25.7-83.4h.2Z"/>
  <g>
    <path class="st6" d="M11.3,0c1.5-.1,3.4,0,5,0h7.9s26.3,0,26.3,0h83.2c0,0,57.7,0,57.7,0h18.7c3.1,0,6.8,0,9.9,0,.5,0,.5,0,.9.1.2,5.9,0,13,0,19v37.3s0,39.3,0,39.3v16.5c0,4.2,0,8.2-.3,12.4-.5,6.4-1.6,12.8-3.4,19.1-10.9,39.2-48.1,61.7-82.2,78.9-6.3,3.2-12.6,6.3-19,9.3-7-3.6-14.4-6.9-21.4-10.6-26.7-14-54.8-30.6-70.9-57-3.4-5.5-6.1-11.4-8.1-17.5-2.1-6.6-3.5-12.9-4.1-19.8-.4-4.6-.4-9.2-.4-13.8v-17.5s0-18.2,0-18.2c0-3.1,0-6.4,0-9.5-.1-2.4,0-6.4,0-8.9,0-5.2,0-10.5,0-15.7,0-1.1,0-2.5,0-3.6,0-.9,0-3.2,0-4.2,0-2.7,0-5.4,0-8.1,0-5.6,0-11.4,0-17,0-2.9-.1-8,.1-10.6Z"/>
    <path class="st10" d="M133.7.2h57.7s18.7,0,18.7,0c3.1,0,6.8,0,9.9,0h0c-.6.6-1.6.5-2.4.5-4,.1-8.1,0-12.1,0h-37.4s-20.2,0-20.2,0h-9.8c-.9,0-4.4.2-4.8-.2l.4-.2Z"/>
    <path class="st10" d="M11.2,43.6l.2-.3c.3.6.2,23.4,0,26.3h0c0-.4,0-1.1-.2-1.4-.1-2.4,0-6.4,0-8.9,0-5.2,0-10.5,0-15.7Z"/>
    <path class="st10" d="M11.2,27.7c0-.2.1-.5.2-.6.4,3.9.2,7.8.2,11.7,0,.6,0,2.5-.1,2.9,0-.5,0-1.2-.2-1.6,0-.9,0-3.2,0-4.2,0-2.7,0-5.4,0-8.1Z"/>
    <path class="st0" d="M14.3,3.4h133.8c0,.1,45,.1,45,.1,7.8,0,16.9-.2,24.6,0v79.4c-.1,0,0,22.9,0,22.9,0,7.9.2,15.3-.7,23.1-3,25.1-16.4,46.3-36.2,61.8-17.9,15-43.1,27.7-64.4,37.6-1.6-.6-4-1.8-5.6-2.6-3.8-1.8-7.5-3.6-11.3-5.6-34.1-17.3-71.3-39.4-82.1-78.7-3.5-12.9-3.1-24.2-3.1-37.4v-27.1s0-73.6,0-73.6Z"/>
    <path class="st6" d="M42.3,29.7c5.2,0,10.7,0,15.9,0h32.5s99.4,0,99.4,0v56.3s0,15,0,15c0,7.4,0,14.2-1,21.6-1.8,13.5-6.5,27.2-15.3,37.7-3,3.6-7.4,7.6-11.1,10.4-3.6,2.9-8.5,6-12.4,8.4-7,4.3-14.1,8.3-21.3,12.2-3.4,1.8-9.6,5.5-13,6.9-4.3-1.9-9.9-5.2-14.2-7.5-6.8-3.5-13.5-7.4-20.1-11.4-12-7.5-23.3-15.9-30.1-28.7-4.4-8.4-7.3-17.5-8.6-26.8-.6-4.1-1-8.2-1.1-12.4-.2-5.6,0-12,0-17.7v-37.2s0-18.5,0-18.5c0-1.3,0-7.4.2-8.2h.3Z"/>
    <path class="st2" d="M45.3,33.1c6.4.2,13.2,0,19.7,0h36.2s85.6,0,85.6,0v47.2s0,19.7,0,19.7c0,12.4.1,26.5-4.5,38.3-1.7-1.6-3.8-3.4-5.2-5.2-1.3-1.6-2.5-3.5-3.7-5.1-3.6-4.6-8.2-5.8-13.9-5.5-6.7.4-11.9,1-17.3-3.8-.3-.3-.6-.6-.8-1,0-.6.2-.5,0-.9-1.1-.6-1.8-.3-2.5.7-3-.8-3.7.2-4.8,2.8-2.2.8-4.3,1.4-5.4,3.6-.5,1,.5,1.6,1.2,1.9,3.2,1.2,7.4,0,8.9,3.9.4,1,.7,2.1,1.2,3,.4.8,1.3,1.7,1.8,2.4,0,3.3-1.1,6.5-3.4,8.9-2.3,2.4-3.7,2.8-6.7,3.9-5.6-2.2-7.9-3.2-11.8-7.8v-19.9c0-3.7,0-7.7,0-11.4,2.5-3.1,3-3.2,5.2-6.9,4.7,2.5,8.2,3.9,13.6,3.8-1.6-1.4-3.5-2.8-5.2-4.2-4-3.3-7.6-6.5-11.2-10.3l.2-.3c3.6,3.3,7.3,6.3,12.1,7.6,2.5.7,4.7.5,7.2,0-1.5-1.2-2.4-1.9-3.8-3.2,2.7,1.4,4.4,2.2,7.5,1.9,3.6-.3,6.3-2,8.6-4.7-1.5-.6-3.1-.7-4.7-.7-3.3-.2-6.1-.8-8.9-2.6.5-.3,1-.5,1.1-1-.5-.5-2.3-.3-3.1-.4-1.1-1.3-5.7-3.9-7.4-5-2.7-1.7-5.3-3.3-7.7-5.5l.3-.2c2,1.5,4.7,3.4,7.1,4.2-.1-.2-7.5-4.1-8.3-6.7.6-.4,2.9.8,3.6,1,2.8,1.1,7.5,1.6,10.3.5h0c0,0,.2-.4.2-.4h-.2c.4-.4.8-.9,1.1-1.3-.3,0-.6-.2-.9-.2-4-1.2-15.6-6.4-17.6-10.1.2,0,1,.9,1.3,1.1,1.7,1.4,4.6,3.5,6.7,4.1,5.1,1.6,9.4-1.3,13.7-3.4-5.2-1.9-10.3-3.9-15.3-6.2-.9-.4-4.1-2-4.5-2.9.4.1,1.1.7,1.5.9,1.8,1,3.3,1.5,5.3,1h.1c-.7-.8-2.4-.3-3.5-.8-.9-.4-1.6-1.1-2.4-1.5-3-1.7-5.2-2.1-5.6-6l-.2.8h-.1s0-.7,0-.7c-.3,1.2-.8,1.7-1.6,2.7,0,.6-.2.7-.6,1.2-.3,1.3-4.4,3.9-5.7,4.6-1.9,1.2-5,2.4-7.1,3.3-3,1.2-6.5,2.9-9.6,3.7,2.8,1.9,8.4,4.3,11.9,3.5,1.6-.4,3.7-1.1,5-2l.4.3c-3.4,2.3-7.2,4-10.9,5.6-.4.2-2.4,1-2.5,1.3,0,.4-.4.9-1,1.1-3.2,1.1-6.4,1.8-9.7,1.5,2.3,2.4,4,4.4,7.4,5.1,6.3,1.2,12.1-1.7,16.9-5.6l.3.3c-4.2,3.6-9,6.4-13.4,9.6-1.3.9-3.8.9-4.2,1.4.3.4.4.4,1,.7-3.2,1.9-5.6,2.5-9.3,2.8-1.8.1-3.2.2-5,.7,5.3,5.5,10.1,6.2,17,2.9-.8.8-3.3,2.4-4.4,3.2,4.9,1.2,8.6-.7,12.8-3.3,2-1.2,3.9-2.7,5.5-4.4l.3.2c-4.4,4.6-9.3,8.8-14.2,12.9-.7.6-1.4,1.2-2.1,1.9,4,0,6.4-.5,10.1-2.2,1.2-.5,2.4-1.3,3.5-1.8,2,3.6,2.7,4.3,5.5,7.5,0,10.4-.1,21.2,0,31.5-1.4,1.6-4.7,4.5-6.7,5.4-2.2,1-2.7.7-4.8,2.3-7.4-2.3-8.9-5.7-10.7-12.8.6-1,1.4-1.8,1.8-2.6,1.1-1.9,2.3-5.7,4.9-6.1,3.1-.5,4.3-.7,7.3-2-.9-3.3-4-4.6-7.2-4.5-.2-2.3-1.3-3.7-3.9-3.6-1.5.2-2.8,1.7-4,2.4-1.7.9-3.8,2.6-5.7,3-5.8,1.4-11.4-.7-17.2.9-5.4,1.5-7.4,5.5-10.6,9.7-1.5,1.9-3.9,3.6-5.3,5.5.5,1.6,4.5.6,5.7,0,4.3-1.9,5.8-5.3,6.4-9.6.5,3.6.4,5.4-1.4,8.7-2.4,4.3-3.2,7.8-1.4,12.5h-4.6c-4.5-7.1-7.4-17.2-8.7-25.5-1.2-7.5-1.1-13.2-1.1-20.7v-15.1s0-55.4,0-55.4Z"/>
    <path class="st3" d="M116.2,36.4c3.6,6.6,3.3,8,10.3,12.4-1.7,1.1-2.9,1.6-5,1.3,3.1,1.8,6.1,3.6,9.4,5.1.5.2,1.2.6,1.7.9-1.1,1.2-3.1,2.5-4.7,2.7-.7-.7-2.4-.2-3.5-.8-.9-.4-1.6-1.1-2.4-1.5-3-1.7-5.2-2.1-5.6-6l-.2.8h-.1s0-.7,0-.7c-.3,1.2-.8,1.7-1.6,2.7,0,.6-.2.7-.6,1.2-.3,1.3-4.4,3.9-5.7,4.6-.4-.2-.3,0-.5-.5-1.7.4-3.5.3-5.2-.3-1.4-.4-2.8-1.3-3.8-2.4,2.4-1,4.5-2.1,6.8-3.2,1.6-.9,4-2.3,5.7-3.1-2,0-3,0-4.8-1.2,1.3-1.1,2.5-2,3.7-3.1,2.8-2.6,4.4-5.8,6.2-9.1Z"/>
    <path class="st1" d="M114.4,53.4c0,.6-.2.7-.6,1.2-.3,1.3-4.4,3.9-5.7,4.6-.4-.2-.3,0-.5-.5-1.7.4-3.5.3-5.2-.3.5-.2,3,.5,3.5.4,2-.4,7.3-4.1,8.4-5.4Z"/>
    <path class="st4" d="M113.9,54.6c-.3,1.3-4.4,3.9-5.7,4.6-.4-.2-.3,0-.5-.5,3-1.4,3.6-2,6.1-4.1Z"/>
    <path class="st8" d="M113,47.7h.1c-.4.7-.8,1.2-1.4,1.5,0-.1,0-.5,0-.6.3-.4.8-.6,1.3-.9Z"/>
    <path class="st3" d="M130.8,81.5c-.1-.2-7.5-4.1-8.3-6.7.6-.4,2.9.8,3.6,1,2.8,1.1,7.5,1.6,10.3.5h0c0,0,.2-.4.2-.4.4,0,3.3,1,4.1,1.1,2.5.5,4.4.6,6.9.6-2.5,3.2-4.7,4.7-8.7,5.3-2.2.3-6.3-.3-8.1-1.4Z"/>
    <path class="st2" d="M122,149.9c2.1,2.7,5.2,4.7,8.4,6,1.7.7,3.4,1.2,4.9,2.3,2.2,1.6,3.3,4.3,5.6,5.9.2-.1.2,0,.4,0h.1c.2,0,0-.3.1-.6-1.3-1.8-1.6-2.2-2.1-4.3,4.9-1.7,6.7,1.2,10,4-.6-1.2-1.7-3.6-2.7-4.5-3.2-2.6-8.3-2.5-12-4.3-2.1-1.1-3.1-1.8-4.9-3.4,4,.1,8.2,0,12.2,0,11.4.1,22.9-.2,34.3,0-8.8,15.5-27,25.2-42,33.7-5.5,3.1-12.6,7.2-18.2,10-1.7-.8-4-2.1-5.7-3l-9.1-4.8c-13.2-7.1-27.9-15.4-38.5-26.2-2.4-2.5-5.4-6.7-7.1-9.7h29c6,0,12.3-.1,18.3,0-1.6,1.9-4.9,3.7-7.3,4.4-5,1.5-7.8,1.2-11.1,5.7.2.1.5.3.7.4,1.4-1,6.2-4,7.8-2.4.3,1-.4,2.1-.9,2.9-.3.4-.5.9-.8,1.3h.2c0,0,0,.2,0,.2.3.1.4.1.6.3,1.9-1.7,3-3.6,4.8-5.2.9-.9,3.8-1.9,5-2.3,3.4-1.2,6-3.1,8.3-5.8-1.3,4.3-3.8,6.1-6.8,9.3-2.4,2.5-4.7,5.1-7.3,7.4-1.3,1.2-2.8,2.3-4,3.5h-.1c2.4-1.1,4.7-2.7,7.2-3.9-.1,3.3-.2,4.4-1.3,7.3,3.7-3.5,2.4-7.2,4.9-11.2,1.6-2.5,4.4-4.2,6.6-6,1.9-1.6,3.5-3.6,4.6-5.8l.2-.4h.2c.1.9-.1,2.4-.3,3.3-.6,3.8-2.8,7.7-5.2,10.6-2.9,3.5-4.8,6.8-5.2,11.5,1-1,1.8-2.6,2.6-3.8,1.8-2.8,3.7-5.3,6.4-7.3.4-.3.9-1,1.4-1.1.6,1.8.6,3.9,0,5.7-.4,1.7-1.4,3.9-2.2,5.4-.6,1.1-1.5,2.3-2,3.5,2-1.4,2.4-2.8,4.9-3.9.3,1.7.2,3.8.2,5.5,0,2.5.3,5.1.8,7.6.6-2.1,1.1-4.6,1.3-6.8.1-1.5-.2-3.8.3-5.3,0-.3.3-.4.5-.4.9.2,3.8,3,4.8,3.8-1.6-3.3-3.6-5.6-4.6-9.5-.6-1.9-.6-4.2,0-6.1l.2-.6h.2c2.3,1.3,5.8,6.7,7.3,8.9.7,1,1.3,2.6,2.2,3.7-.3-10.4-7.5-11.4-9.7-20.8-.3-1.4-.3-3.2-.2-4.6,2.1,7.5,8.4,7.4,11.9,13,2.1,3.4.8,7.7,4.4,11-.4-1.6-1.5-4.9-1.2-6.5l.2-.3c1.1-.1,2.5,1.1,3.4,1.4.2,0,.3-.2.4-.3,0-.3,0-.3-.1-.7-2.9-2.7-5.1-5.3-7.7-8-3.8-3.9-5.1-4.6-7.4-9.7Z"/>
    <path class="st10" d="M91.3,163.3h.2c0,0,0,.2,0,.2.3.1.4.1.6.3-2.3,2.1-3.4,2.9-6.3,4.1,2-1.6,3.6-2.8,5.4-4.6Z"/>
    <path class="st10" d="M141.6,163.4c1.6,1.6,3.2,2.6,4.8,4.1-2-.9-3.9-1.8-5.5-3.4.2-.1.2,0,.4,0h.1c.2,0,0-.3.1-.6Z"/>
    <path class="st4" d="M118.2,163.3c.2.9.1,5.2,0,6.1-.6-1.9-.6-4.2,0-6.1Z"/>
    <path class="st4" d="M114.1,163.9c.6,1.8.6,3.9,0,5.7-.2-.8-.1-4.8,0-5.7Z"/>
    <path class="st10" d="M137.1,167.6c1.1.9,2.2,1.8,3.3,2.7-.8-.4-2.8-1.2-3.5-1.7.2,0,.3-.2.4-.3,0-.3,0-.3-.1-.7Z"/>
    <path class="st4" d="M114,151.1l.2-.4h.2c.1.9-.1,2.4-.3,3.3-.1-1-.1-2,0-2.9Z"/>
    <path class="st10" d="M84.6,161c.2.1.5.3.7.4-.7.6-1.2,1-1.9,1.6.4-.9.6-1.2,1.2-2Z"/>
    <path class="st2" d="M73.5,134.3c2.1.8,5.2,2.2,6.5,4.1.5,4.5-.7,6.2,2.2,10.1-.8,0-1.7,0-2.6.1-2.4,0-3.7-.1-5.8-1.5-4.7-3-3-9-.4-12.9Z"/>
    <path class="st2" d="M158.2,134.3h.1c1.5,1.6,2.8,5.3,2.7,7.5,0,4.3-3.6,6.6-7.5,6.6h-3.2c2.3-3.9,2-6.1,1.7-10.6,1.4-1.3,4.3-3.1,6.2-3.6Z"/>
    <path class="st2" d="M169.9,129.2c.3.7.4,1.7.6,2.5,1.7,5.1,6.3,8.1,11.5,7.4-.7,2.2-2.4,6-3.6,8.1-.5,1-.9,1.7-1.5,2.6-1.5,0-3.1,0-4.7,0,4.8-8.7-4.6-13.9-2.4-20.7Z"/>
    <path class="st3" d="M117.6,72.2c4.2,6.4,10.1,9.4,16.2,13.6,1.2.8,2.8,1.6,3.8,2.6-2,0-5-.2-6.9-.8-.6-.2-2.2-1.1-2.6-1.2-.4.2-.7,0-1.2-.1-1.5,0-5.4-4-6.3-5.1-1.2-1.4-3.7-4.8-3.6-6.8,0-.3.5-1.8.6-2.1Z"/>
    <path class="st1" d="M120.7,80.9c-.2-.3-.3-.4-.3-.7.7.4,1.3,1.1,1.9,1.6,1.3,1.1,4.4,3.9,5.8,4.6-.4.2-.7,0-1.2-.1-1.5,0-5.4-4-6.3-5.1v-.2Z"/>
    <path class="st9" d="M120.7,80.9c1.8,2.1,3.9,3.8,6.2,5.4-1.5,0-5.4-4-6.3-5.1v-.2Z"/>
    <path class="st3" d="M114.8,64.1c.3,0,.2,0,.5.2.3.7.1,1.7-.2,2.3-2.9,5.6-10.4,10-16.7,9.1-.5-.2-.9-.5-1.3-.7,4.1-1.6,9.9-4.5,13.4-7.1,1.2-.9,2.7-2.6,4.3-3.8Z"/>
    <path class="st2" d="M165.4,138.6c.3.2,1.2,1.1,1.5,1.4,1.3,1.4,3.3,2.6,3.7,4.6.6,2.8-.9,4-3.4,4.5-1.8,0-3.7,0-5.6,0,2.5-3.4,3.2-6.3,3.8-10.4Z"/>
    <path class="st2" d="M66.1,138.9c.5.3,1.2,4.5,1.6,5.6.7,1.8,1.3,2.9,2.3,4.5-1.5,0-2.9,0-4.4,0-2.3-.3-4.1-1.3-4.1-3.8,0-2.5,2.9-4.6,4.6-6.3Z"/>
    <path class="st2" d="M147.6,137.6c1.4,1.4,1.6,7.2,0,8.7-2.2,1.9-3.5,2-6.1,2.2-.4,0-.9,0-1.1,0,1.2-1.7,1.3-2.3,1.8-4.3,2.6-2.4,3.3-4.6,5.5-6.6Z"/>
    <path class="st3" d="M117.6,55c1.1,1,2.3,2.7,3.5,3.4,2.6,1.5,5.3,2.8,8.1,4.1,1.9.8,4.1,1.3,5.7,2.6h0c0,.1-.4.1-.4.1-.6,0-2.2.4-2.6.3-1.9-.3-3.8-1.4-5.7-1.9-3.6-1-7.2-1.7-9.1-5.4,0-1.1,0-2.3.6-3.2Z"/>
    <path class="st2" d="M84.7,137.4c1.3.7,1.9,2.9,3.1,4.1,1.1,1.1,2.1,1.8,3.4,2.8l-.8,1.1c.5,1.1,1,1.5,1.7,2.4.3.4.1.6,0,1-.8.1-1.5,0-2.2-.2-6.3-1.2-6.7-5.7-5.2-11.1Z"/>
    <path class="st2" d="M112.2,97.1c.3.3.2,8.2.2,9.3-.4-.6-.9-1.4-1.3-2.1-.7-1.1-1.4-2.7-1.9-4,1.2-1.1,2.1-2,3.1-3.2Z"/>
    <path class="st2" d="M119.9,97.2c1,1.2,1.9,2.2,3,3.4-.4,1.4-1.1,2.7-1.8,4-.4.6-.7,1.1-1.2,1.7v-9Z"/>
    <path class="st8" d="M116.7,59.2c.3.3.6.7.9,1.1,1.5,1.7,10.3,5.1,12.7,5.5,1.9.3,3.9.1,5.8.3-5,.4-7,0-11.3-2-.9-.4-6.3-2.6-6.6-3h-.1c0,1.5,3.8,4.4,4.9,5.2.6.4,1.4.8,1.8,1.3h-.2c-2.4-1.5-5-3.3-6.6-5.8-.5-.8-1.3-1.6-1.2-2.6Z"/>
    <path class="st3" d="M96.8,75.8c1.3.1,1.9.6,3.6.5.9,0,3-.3,3.5-.2v.2c-1.9.7-5.4,1-7.1-.5Z"/>
    <path class="st4" d="M113.3,79.4c-.5,1.7-4.3,4.8-6,5.7h0c.1-.3,0-.3.3-.4,2.2-1.5,3.9-3.3,5.8-5.2Z"/>
    <path class="st1" d="M100.2,88.6l.2-.2c.6-.2,2.8-1,3.3-1l-.2.3c-.3.7-2.7,1.3-3.5,1.3h-.2c.2-.2.3-.3.5-.4Z"/>
    <path class="st9" d="M100.2,88.6l.2-.2c.6-.2,2.8-1,3.3-1l-.2.3c-1.2.4-2,.7-3.2.9Z"/>
    <path class="st4" d="M108.4,67.7c2.4-1.4,3.7-2.7,5.6-4.6-.3,1.1-4.3,4.2-5.2,4.8l-.4-.3Z"/>
    <path class="st9" d="M113.3,72.7c-.9,1.8-2.6,3.2-4,4.6l-.3-.3c1.8-1.6,2.7-2.4,4.3-4.3Z"/>
    <path class="st5" d="M136.4,76.2c-2.1.5-2.5.3-4.6.2-.4,0-.1.1-.4,0,.3-.4,3.7,0,5-.5h.2c0,0-.2.4-.2.4Z"/>
    <path class="st4" d="M122.2,91.2c-1-1.1-1.9-2.2-2.7-3.5-.2-.3,0,0-.1-.2,1,1,2.1,2.3,3,3.4l-.2.3Z"/>
    <path class="st3" d="M128.7,88.4c.8.4,3.4,1.7,3.7,2.4-.9-.3-3.2-1.5-3.7-2.4Z"/>
    <path class="st8" d="M108.4,74.2h.1c-.4.9-2.3,1.6-3.1,1.8h0c.4-.5,2.2-1.2,3.1-1.8Z"/>
    <path class="st4" d="M123.5,77.4c-1-.8-1.6-1.3-2.4-2.3h0c.9.5,1.8,1.4,2.6,2.2l-.3.2Z"/>
    <path class="st4" d="M110.9,89v.2c-.4.6-.8,1.2-1.4,1.7l-.3-.2c.6-.6,1.1-1.1,1.7-1.8Z"/>
    <path class="st5" d="M110.9,89c.4-.5.8-1.2,1.4-1.6,0,.4-.9,1.4-1.2,1.8v-.2Z"/>
    <path class="st2" d="M26.1,10.4c1.8,0,3.1,1.6,4.3,2.8,1.1,1.2,2.3,2.3,3.5,3.5,1.4-1.4,6-6.5,7.4-6.2,5.4,1.3-3.1,8.3-4.1,9.1,1.2,1.2,2.3,2.4,3.4,3.6,1.7,2,2.9,3.6.6,5.6-1,.4-1.7,0-2.4-.6-1.8-1.6-3.5-3.6-5.1-5.4-1.5,1.5-5.2,6.1-6.8,5.9-6.3-1.1,2.7-8.1,3.4-8.8-1.3-1.4-2.6-2.7-3.9-4.1-1.7-1.7-3.4-4.1-.2-5.3Z"/>
    <path class="st2" d="M191.9,10.5c2.3-.1,5.8,4.2,7.5,5.9,1.6-1.6,7.7-9.1,8.9-3.7.3,1.4-4.6,5.7-5.7,6.7,1.4,1.3,2.8,2.7,4.1,4.2,1.5,1.7,2,3.3,0,4.8-1.8.7-3.3-1.5-4.5-2.7-1-1-2.1-2.1-3.1-3.2l-3.4,3.4c-.7.7-2.5,2.5-3.5,2.2-5.4-1.6,2.3-7.4,3.6-8.7-2.1-2.3-7.8-6.2-3.8-9.1Z"/>
    <path class="st2" d="M196.6,71.3c.3,0,.9.2,1.1.4,1.8,1.4,3.9,3.7,5.5,5.4,1-1.1,5.1-5.9,6.3-5.6,5.6,1.1-1.6,7.3-3.1,8.8,1.5,1.2,3.6,3.2,4.9,4.8,1.5,1.8.4,3.9-1.9,4.3-1.9-1-4.4-4-6-5.6-1.6,1.7-3.2,3.4-4.9,5-2.4,2.3-4.9-.9-3.7-2.7,1-1.5,3.9-4.2,5.2-5.5-2.2-2.3-8.6-6.5-3.4-9.1Z"/>
    <path class="st2" d="M193.4,131.6c.9,0,1.6.2,2.3.8,1.8,1.6,3.4,3.6,5.2,5.3,1.5-1.7,3.2-3.8,4.9-5.2,1-.8,3.7.2,3.4,1.7-.4,2.4-3.6,5.3-5.2,7,1.5,1.8,3.8,3.3,4.8,5.4-.2,1.9-.2,2.5-2.1,3.2-1.5-.3-4.9-4.2-6.2-5.5-1,.9-5.4,6-6.7,5.7-3-.7-1.7-4.2.3-5.7.6-.5,2.6-2.5,3.3-3.2-1.7-1.7-3.6-3.4-5-5.4-1.2-1.6-.6-3.1,1-4Z"/>
    <path class="st2" d="M22.6,71c2.5-.2,5.2,3.6,6.8,5.4,1.4-1.4,5.1-5.8,6.6-5.2,3.1,1.3.7,4.4-.9,5.7-.9.8-1.9,1.9-2.5,2.5,1.6,1.7,3.6,3.5,4.6,5.5.9,1.7-.8,4.7-2.9,3.2-1.4-1.3-3.4-3.8-5-5.4-1.9,2.1-8.5,10.5-9.1,3.3.9-1.7,4.4-4.9,5.9-6.4-1.1-.9-2.1-2-3-3.1-1.7-2-3.2-3.7-.6-5.7Z"/>
    <path class="st2" d="M121.5,201.3c.7,0,1.5-.2,2.1.3,2.7,2.4-2.7,6.6-4.3,8.4,1,1.3,5.5,5.1,5.1,6.6-1.4,6-6.9-1.6-8.4-3.3-1.4,1.5-3.7,4-5.2,5.1-.2,0-.8.4-.9.4-6.2-1.4,2.2-8.1,3-8.9-.2-.2-.4-.4-.6-.6-1-.9-4.4-3.9-4.2-5.5.2-2.2,2.4-2.7,4-1.3,1.4,1.2,2.7,2.8,3.9,4.2,1.5-1.6,3.8-4.6,5.6-5.5Z"/>
    <path class="st2" d="M109.5,9.1c2.6,0,4.9,4,6.7,5.8l.2.2c1.5-1.1,5.1-5.6,6.2-5.3,3.4.8,2.1,4.1-.1,5.8-.2.2-2.4,2.3-2.6,2.4,1.3,1.5,2.9,3.1,3.9,4.8,1.1,1.8.3,3.6-1.6,4.4-1.9-.9-4.5-4.1-6.1-5.6-1.4,1.6-7.1,8.7-8.1,3.2-.3-1.5,4.1-5.2,5.2-6.3-.9-.9-1.7-1.8-2.5-2.7-1.8-2.1-4.6-4.4-1.1-6.5Z"/>
    <path class="st2" d="M64.5,179.5c1.8-.3,2.9.9,4,2.2,1.1,1.3,2.2,2.5,3.4,3.7.8-.9,6.6-7.9,7.8-2.6.3,1.3-3.4,4.6-4.6,6,1.7,2.5,8.3,6.5,2.7,8.9l-.8-.7-.2-.2c-1.7-1.5-3.3-3.5-5.1-5.2-.1.1-.2.3-.4.4-1.1,1.3-5.2,5.7-6.4,5.5-5.9-1.3,3.1-8.5,3.8-9.1-1.7-1.7-3.6-3.4-4.9-5.3-1-1.4-.8-2.8.7-3.7Z"/>
    <path class="st2" d="M37.2,132.7c.9,0,2.3.1,2.3,1.2,0,2.5-3.2,5.1-4.7,7h-.1c.9,1.3,4.9,5.2,4.7,6.6-.9,5.6-6.4-1.4-7.9-2.9-1.4,1.6-4.2,4.8-6,5.6-1.2,0-2.4-1.5-2.3-2.5.2-2.1,3.6-4.8,5.1-6.2-1.2-1.3-4.8-5-4.7-6.3.8-5.9,7.4,2.2,8.1,3,1.4-1.9,3.5-4.3,5.5-5.5Z"/>
    <path class="st2" d="M167.5,179.5c4.8,1.3-2.5,8-3.8,9.4,1.5,1.7,3.4,3.2,4.8,5.1-.8,6.9-6.1,0-8-2.1-1.4,1.6-3.6,4.2-5.4,5.2-2.4.7-2.7-1-2.6-2.9,1-1.6,3.8-4.2,5.1-5.5-1-1-4.4-4.4-4-5.6,1.5-5.7,5.7.9,7.2,2.5,1.7-2,4.4-5.2,6.8-6.1Z"/>
  </g>
</svg>