<?xml version="1.0" encoding="UTF-8"?>
<svg id="Capa_2" xmlns="http://www.w3.org/2000/svg" version="1.1" xmlns:xlink="http://www.w3.org/1999/xlink" viewBox="0 0 232.2 232.1">
  <!-- Generator: Adobe Illustrator 30.2.1, SVG Export Plug-In . SVG Version: 2.1.1 Build 1)  -->
  <defs>
    <style>
      .st0 {
        fill: none;
        stroke-width: 5px;
      }

      .st0, .st1 {
        stroke: #000;
      }

      .st2 {
        fill: #fff;
      }

      .st2, .st3, .st1 {
        fill-rule: evenodd;
      }

      .st3 {
        fill: url(#Degradado_sin_nombre_2);
      }

      .st1 {
        fill: blue;
        stroke-width: 3px;
      }
    </style>
    <radialGradient id="Degradado_sin_nombre_2" data-name="Degradado sin nombre 2" cx="-96.78" cy="221.99" fx="-96.78" fy="221.99" r="103.23" gradientTransform="translate(220.24 377.5) scale(1.35 -1.35)" gradientUnits="userSpaceOnUse">
      <stop offset="0" stop-color="#fff" stop-opacity=".31"/>
      <stop offset=".19" stop-color="#fff" stop-opacity=".25"/>
      <stop offset=".6" stop-color="#6b6b6b" stop-opacity=".13"/>
      <stop offset="1" stop-color="#000" stop-opacity=".13"/>
    </radialGradient>
  </defs>
  <g id="layer3">
    <path id="path2855" class="st2" d="M116.1,229.09s102.72-38.65,102.72-136.88,0-88.97,0-88.97H13.38v88.97c0,98.23,102.72,136.88,102.72,136.88Z"/>
    <path id="path2946" class="st1" d="M61.74,26.78c-12.09.23-12.41,5.7-25.36,5.8-12.33.1-13.08-4.31-22.79-5.51v34.33c8.49,1.04,7.14,5.16,18.1,5.56,13.27.49,16.54-5.55,31.25-5.8,14.71-.24,14.38,5.8,27.58,5.8,13.2,0,12.26-5.98,25.24-5.8,12.98.18,13.19,5.74,26.67,5.8,13.48.06,13.66-5.86,27.25-5.8,13.59.06,14.03,5.67,27.12,5.8,11.72.12,11.99-4.67,22.01-5.62V26.89c-10.46.77-10.9,5.73-23.01,5.69-13.29-.05-13.37-5.68-26.57-5.8-13.21-.12-12.96,5.8-26.25,5.8s-13.53-5.92-26.89-5.8c-13.37.12-13.29,5.92-26.57,5.8-13.29-.12-13.29-5.68-26.57-5.8-.42,0-.81,0-1.2,0ZM62.94,88.74c-13.29-.12-13.2,5.69-26.56,5.8-12.33.1-13.08-4.3-22.79-5.5v10.72c.47,8.6,1.74,16.73,3.65,24.38,4.74,1.57,5.4,4.44,14.45,4.77,13.27.49,16.54-5.55,31.25-5.8,14.71-.24,14.38,5.8,27.58,5.8s12.26-5.98,25.24-5.8c12.98.18,13.19,5.74,26.67,5.8,13.48.06,13.66-5.86,27.25-5.8,13.59.06,14.03,5.67,27.12,5.8,10.03.1,11.68-3.39,18.23-5,2.43-9.79,3.79-20.35,3.79-31.7,0-3.72,0,.05,0-3.37-10.46.77-10.9,5.73-23.01,5.69-13.29-.05-13.37-5.68-26.57-5.8-13.21-.12-12.96,5.8-26.25,5.8s-13.53-5.92-26.89-5.8c-13.37.12-13.29,5.92-26.57,5.8-13.29-.12-13.29-5.68-26.57-5.8ZM61.74,150.7c-12.09.23-12.41,5.7-25.36,5.8-2.57.02-4.64-.16-6.39-.46,6.53,11.6,14.48,21.67,22.87,30.33,2.78-.7,5.99-1.21,10.08-1.28,14.71-.24,14.38,5.8,27.58,5.8s12.26-5.98,25.24-5.8c12.98.18,13.19,5.74,26.67,5.8,13.48.06,13.66-5.86,27.25-5.8,4.21.02,7.16.57,9.61,1.32,8.44-8.69,16.43-18.82,22.99-30.5-1.76.37-3.84.6-6.48.59-13.29-.05-13.37-5.68-26.57-5.8-13.21-.12-12.96,5.8-26.25,5.8s-13.53-5.92-26.89-5.8c-13.37.12-13.29,5.92-26.57,5.8-13.29-.12-13.29-5.68-26.57-5.8-.42,0-.81,0-1.2,0Z"/>
  </g>
  <g id="layer2">
    <path id="path2875" class="st3" d="M116.1,229.09s102.72-38.65,102.72-136.88,0-88.97,0-88.97H13.38v88.97c0,98.23,102.72,136.88,102.72,136.88Z"/>
  </g>
  <g id="layer1">
    <path id="path1411" class="st0" d="M116.1,229.09S13.38,190.44,13.38,92.21,13.38,3.24,13.38,3.24h205.44v88.97c0,98.23-102.72,136.88-102.72,136.88Z"/>
  </g>
</svg>