<?xml version="1.0" encoding="UTF-8"?>
<svg id="Capa_2" xmlns="http://www.w3.org/2000/svg" version="1.1" viewBox="0 0 232.2 232.1">
  <!-- Generator: Adobe Illustrator 30.2.1, SVG Export Plug-In . SVG Version: 2.1.1 Build 1)  -->
  <defs>
    <style>
      .st0 {
        fill: #fff;
      }
    </style>
  </defs>
  <path class="st0" d="M184.89,187.53c9.89-11.22,16.84-24.04,20.79-38.49,2.94-10.23,4.14-20.36,4.49-31.14L210.14,0H22.85s-.02,117.48-.02,117.48c.21,11.66,1.79,22.65,5.11,33.71,12.24,41.62,50.51,65.36,88.55,80.81,25.04-10.04,50.53-24.2,68.4-44.47Z"/>
  <g>
    <path d="M184.89,187.53c-17.87,20.27-43.37,34.43-68.4,44.47-38.04-15.45-76.31-39.19-88.55-80.81-3.32-11.07-4.9-22.05-5.11-33.71l.02-117.48h187.28s.03,117.9.03,117.9c-.35,10.77-1.55,20.91-4.49,31.14-3.95,14.45-10.9,27.28-20.79,38.49ZM202.28,152.16c3.53-10.91,5.13-21.81,5.47-33.4l-.03-116.46H25.24s0,116,0,116c.29,10.7,1.67,20.79,4.62,30.99,11.4,41.05,49.31,64.96,86.7,80.21,36.05-14.79,73.7-38.15,85.72-77.34Z"/>
    <path class="st0" d="M202.28,152.16c-12.02,39.19-49.66,62.55-85.72,77.34-37.38-15.25-75.29-39.16-86.7-80.21-2.95-10.2-4.33-20.28-4.62-30.99V2.31s182.47,0,182.47,0l.03,116.46c-.34,11.59-1.94,22.49-5.47,33.4ZM90.8,108.11c-1,1.2-1.87,2.04-1.43,3.55,2.27-.24,4.9-.74,6.58-1.7.56-2.5,1.73-4.28,3.66-5.49.69-5.53,2.03-10.97,4.66-15.96,2.21-4.18-1.54-5.21-.44-10.05.36,2.1.76,4.34,2.06,5.84,12.37.54,14.92-7.65,26.58-7.23-1.35-1.1-2.76-1.48-4.32-1.88,3.53-.6,6.25,1.81,7.88,4.87,8.35,15.76,19.43,8.31,21.67,20.44.16.87.35,2.66-.26,3.4-1.38,1.7-3.59,1.05-5.1,3.33-.5.76-.43,2.06.18,2.79.84-1.31,1.36-2.18,2.02-2.87-.22,1.34-.72,2.76-.32,3.51.16.31,1.48.8,1.55.45l.26-1.28c.19-.98.81-2.18,1.65-2.09-.58.66-1.48,3.07-.6,3.35,4.39,1.38,6.82-6.44,6.64-7.15-1.01-4.09-1.7-7.58-2-11.74-.27-3.83-5.32-2.24-8.01-9l2.11-.25-2.69-3.9,2.05-.25-2.64-4.08,2.63.26c-1.74-1.77-2.64-3.95-3.47-6.38l-.96-2.84c2.89.76,5.38,1.29,7.97,1.24l-1.69-1.66c3.05.41,5.86.21,8.55-.75l-2.39-1.16c2.96-.89,5.61-1.43,7.18-4.1l-2.84-.26c2.85-1.82,5.39-3.35,6.27-6.77l-2.31.35c1.76-2.55,3.21-4.93,2.63-8.08l-2.05,1.84c.52-3.24.8-5.29.61-8.32l-2.05,2.13c.49-2.81,1.35-4.81,2.57-7.29l-2.83,1.02c.76-2.64,2.32-4.29,4.18-6.13-3.48-.09-6.06,1.64-7.98,4.25l-.31-2.16c-3.13,2.16-3.87,5.74-4.34,9.45l-1.46-2.61c-.87,2.98,0,5.72.72,8.48-.97-.64-1.87-1.18-2.78-1.6,2.92,4.46,2.95,10.37-.96,14.28-3.26,3.25-8.34,3.64-12.49,1.66-5.08-2.43-10.17-3.52-15.84-2.82l-9.09,1.12c-3.1.38-6.36-.06-9.24-1.08-3.39-1.21-6.43-1.51-10.32-1.9l3.22-1.92c-2.77-.74-4.82-1.51-6.91-3.35l2.57-.93-5.69-3.19,2.43-.95c-2.68-1.61-4.94-3.48-7.48-5.72l-.71,1.89c.17-4.88-.9-9.24-4.04-12.39l-3.71,7.54c-3.21.44-6.23,1.05-9.11,2.12l-2.19,3.05-10.88,3.09c3.45,10.45,10.11,2.07,15.32,6.36-4-.19-7.48-.17-11.07.52.26,5.09,13.98-1.52,14.97,6.85.25,2.12-.49,3.84-1.42,5.96l2.62-.76c-.56,2.39-.96,4.51-.57,6.84l2.29-2.68c.24,3.16.24,5.61,1.23,8.08l1.28-2.14,2.08,4.88,1.22-.68c1.96,2.72,4.42,4.83,7.32,6.08l-1.76-5.36c-.46-1.39-.17-3.13.45-4.43-.43,6.58,3.33,9.5,3.43,13.03.14,5.03-.3,9.94-1.25,14.75-.55,2.76-2.78,4.31-5.47,4.16-1.17-.06-2.49.6-3.27,1.46-.69.76-1.02,2.12-.39,3.2,1.15-1.38,1.9-2.37,2.94-2.96l-1.69,2.67c-.25.39.54,1.55.99,1.52,2.39-.2.19-2.99,3.59-3.37ZM79.74,35.36l1.12-2.92c-.95-1.61-1.9-2.85-3.2-4.26l-1.42,7.38,3.5-.2ZM119.86,108.45l2.01-2.66-.42,3.17c9.37.04,7.09-3.9,16.03-12.17,2.98-2.76-4.24-5.85-.14-12.75-1.17-2.01-2.12-4.33-3.8-5.76-1.15-.98-3.5.28-4.74.47l.42-1.07c-1.4.14-4.16.54-4.93,1.82-2.28,3.84,2.02,9.32,4.55,12.01,3.81,4.04.02,7.47-3.06,10.84-2.06,2.25-4.48-.52-7.38,1.73-.87.68-1.54,1.94-.99,3.19,1.11-1.4,2.08-2.44,3.28-2.62l-1.94,2.05c-.39.41.73,2.13,1.11,1.74ZM70.67,96.1l.99,2.13c.18.38,1.52.49,1.83.2,1.52-1.42.99-4.22.65-6.15,3.86-1.13,1.42-4.18,4.83-4.61l10.69-1.37c1.27-.16,2.82-.9,3.68-1.56-2.97-1.73-5.25-3.47-7.23-5.85l-11.2,4.73c-1.15.49-2.51,1.43-3.05,2.53l-4.48,9.18c-.81,1.67-.48,4.06,1.21,4.84l.22-3.21.94,3.09c.33.51,2.13.1,2.28-.41-1.12-1.08-1.63-2.28-1.36-3.54ZM88.15,201.7c.41-1.23,1.04-2.51,1.48-2.67-.2,1.19-.38,2.3-.34,3.24,2.46-.32,5.2-.82,6.65-2.04.74-2.33,1.64-4.08,3.65-5.22.62-5.71,2.09-11.38,4.87-16.49,1.75-3.21-1.74-5.31-.64-9.44.36,2.1.84,4.3,2.18,5.79,12.14.28,15.2-7.61,26.29-7.4l-3.25-1.78c3.29-.79,6.64,3.77,7.93,6.23,6.98,13.36,18.26,7.24,20.74,18.87.17.8.37,2.66-.11,3.39-.44.66-1.62,1.32-2.63,1.63-2.04.65-4.02,2.7-2.32,4.75.74-1.45,1.25-2.78,2.35-3.04-.74,1.13-1.61,2.8-.75,3.75.15.17,1.2.63,1.26.42l.29-1.01c.33-1.15.78-2.35,1.93-2.38-.78.96-1.51,2.54-.79,3.53,4.37.84,7.03-6.65,6.85-7.3-1.08-4.02-1.76-7.63-2.02-11.72s-5.34-2.14-8.16-9.28l2.33.06-2.81-4.25,2.33.14-2.92-4.14,2.25.07c-1.24-2.02-2.08-3.62-2.82-5.6l-1.35-3.6c2.69.76,5.15,1.35,8.14,1.44l-1.82-1.79c3.09.23,5.65.24,8.42-.8l-2.43-1.2c3.09-.66,5.76-1.44,7.41-3.95l-3.22-.21c3.13-1.74,5.85-3.73,6.73-7.06l-2.76.96c1.95-2.67,3.58-5.23,2.9-8.41l-1.95,1.65c.46-2.83.86-5.33.63-8.07l-1.93,1.69c.3-2.72,1.17-4.59,2.3-6.88l-2.62.78c.63-2.16,2.07-3.97,3.76-5.93-3.33-.06-5.84,1.68-7.63,4.25l-.24-2.33c-3.13,2.32-4.01,5.76-4.22,9.85l-1.4-2.6c-1.07,2.49-.34,4.49.3,7.53l-2.28-.82c1.02,2.45,1.86,4.71,1.74,7.35-.25,5.44-4.52,9.67-9.99,9.7-6.68.04-10.12-5.43-20.59-4.13l-9.84,1.22c-3.52.44-6.93-.21-10.15-1.41-5.01-1.87-5.18-.61-9.25-1.75l2.99-1.72c-2.68-.83-4.88-1.5-6.74-3.47l2.51-.75-5.68-3.29,2.62-1.01c-2.84-1.42-5.06-3.23-7.43-5.36l-1.09,1.21c.43-4.66-.93-8.97-3.91-11.92l-3.73,7.5c-2.97.4-6.24,1.01-9.2,2.1l-1.95,2.89-10.98,3.26c3.29,10.06,9.97,1.97,15.15,6.25-3.64-.1-7.3-.03-11.13.36,1.62,4.94,9.12.23,13.46,3.98,2.81,2.43,1.94,6.31-.08,9.15l2.83-.81c-.51,2.39-.78,4.64-.58,6.93l2.45-2.75c.21,3.17.26,5.21,1.09,8l1.45-2.18,2.19,5.51,1.03-1.24c2.07,2.71,4.5,4.69,7.34,6.14-1.17-3.7-2.88-6.94-1.29-10.15-.44,7.38,3.54,9.59,3.46,14.65-.07,4.61-.44,9.06-1.33,13.43-.56,2.76-2.72,4.24-5.43,4.17-2.3-.06-4.84,1.9-3.87,4.59l2.32-2.4-.91,2.65c-.2.58,1.77,1.34,1.97.74ZM79.55,125.83c.64-.34,1.25-2.36,1.05-3.07-.35-1.25-1.85-3.02-2.9-3.93l-1.42,7.26c.96.04,2.55.11,3.26-.26ZM120.5,198.69c.35-1.57,1.58-3.28,2.95-2.82l-1.96,1.58c-.37.3-.14,1.96.36,1.99,1.8.12,5.17-.54,6.66-1.66,2.66-3.5,5.01-6.79,8.22-9.77,4.24-3.96-3.72-6.14.73-13.45-1.08-1.87-2.15-4.04-3.66-5.56s-3.63-.01-5.26.46l.25-1.09c-1.31.04-3.97.45-4.6,1.77-1.31,2.74-.07,6.22,1.75,8.4l3.57,4.29c1.16,1.39,1.39,3.47.33,5-7.42,10.77-7.02,2.76-11.65,6.99-.66.6-1.23,2.07-.74,2.92l1.79-2c-.29,1.09-.54,1.95-.55,2.54,0,.48,1.69.88,1.8.4ZM70.72,186.38c.44,1.51.99,3.24,2.29,2.69,2.76-1.18.58-5.9,1.39-6.62,3.27-.18,1.14-3.86,4.49-4.3l9.82-1.28c1.72-.22,3.42-.65,4.8-1.55-3.02-1.86-5.41-3.41-7.38-5.98l-10.63,4.58c-1.2.52-2.85,1.39-3.47,2.51-1.75,3.17-7.74,12.75-3.28,14.33l.02-3.09.75,2.33c.12.37.9.96,1.29.97s1.14-.79.91-1.08c-.7-.79-1.4-2.76-.99-3.52Z"/>
    <g>
      <g>
        <path d="M90.8,108.11c-3.4.38-1.2,3.17-3.59,3.37-.45.04-1.24-1.12-.99-1.52l1.69-2.67c-1.04.59-1.79,1.58-2.94,2.96-.63-1.08-.29-2.45.39-3.2.78-.86,2.1-1.53,3.27-1.46,2.69.15,4.92-1.4,5.47-4.16.95-4.81,1.4-9.72,1.25-14.75-.1-3.53-3.86-6.46-3.43-13.03-.62,1.3-.9,3.04-.45,4.43l1.76,5.36c-2.9-1.25-5.36-3.36-7.32-6.08l-1.22.68-2.08-4.88-1.28,2.14c-.99-2.47-.99-4.92-1.23-8.08l-2.29,2.68c-.39-2.34,0-4.45.57-6.84l-2.62.76c.92-2.12,1.67-3.85,1.42-5.96-.99-8.37-14.71-1.76-14.97-6.85,3.59-.7,7.06-.71,11.07-.52-5.21-4.29-11.87,4.08-15.32-6.36l10.88-3.09,2.19-3.05c2.88-1.08,5.91-1.68,9.11-2.12l3.71-7.54c3.14,3.15,4.21,7.51,4.04,12.39l.71-1.89c2.53,2.24,4.8,4.11,7.48,5.72l-2.43.95,5.69,3.19-2.57.93c2.09,1.84,4.14,2.62,6.91,3.35l-3.22,1.92c3.89.38,6.93.69,10.32,1.9,2.88,1.02,6.14,1.46,9.24,1.08l9.09-1.12c5.67-.7,10.76.39,15.84,2.82,4.15,1.98,9.23,1.59,12.49-1.66,3.91-3.9,3.88-9.82.96-14.28.91.42,1.81.96,2.78,1.6-.72-2.76-1.58-5.49-.72-8.48l1.46,2.61c.48-3.71,1.21-7.29,4.34-9.45l.31,2.16c1.92-2.61,4.5-4.35,7.98-4.25-1.86,1.84-3.42,3.49-4.18,6.13l2.83-1.02c-1.22,2.48-2.07,4.48-2.57,7.29l2.05-2.13c.19,3.03-.09,5.08-.61,8.32l2.05-1.84c.58,3.15-.87,5.53-2.63,8.08l2.31-.35c-.87,3.42-3.42,4.95-6.27,6.77l2.84.26c-1.57,2.67-4.22,3.2-7.18,4.1l2.39,1.16c-2.69.95-5.5,1.15-8.55.75l1.69,1.66c-2.59.04-5.08-.48-7.97-1.24l.96,2.84c.82,2.43,1.73,4.61,3.47,6.38l-2.63-.26,2.64,4.08-2.05.25,2.69,3.9-2.11.25c2.69,6.76,7.74,5.17,8.01,9,.3,4.16.98,7.65,2,11.74.17.71-2.25,8.53-6.64,7.15-.89-.28.02-2.69.6-3.35-.84-.09-1.46,1.11-1.65,2.09l-.26,1.28c-.07.35-1.39-.15-1.55-.45-.39-.75.1-2.17.32-3.51-.67.69-1.18,1.57-2.02,2.87-.61-.74-.68-2.04-.18-2.79,1.5-2.27,3.71-1.63,5.1-3.33.6-.74.42-2.53.26-3.4-2.23-12.13-13.32-4.67-21.67-20.44-1.62-3.07-4.35-5.47-7.88-4.87,1.56.4,2.97.78,4.32,1.88-11.66-.41-14.21,7.77-26.58,7.23-1.29-1.5-1.7-3.74-2.06-5.84-1.1,4.84,2.64,5.87.44,10.05-2.63,4.99-3.97,10.44-4.66,15.96-1.93,1.21-3.1,3-3.66,5.49-1.67.96-4.31,1.46-6.58,1.7-.45-1.51.42-2.35,1.43-3.55ZM84.61,39.71c.76-2.41.79-4.72.04-7.22l-1.44,4.92c-.18.63.67,1.73,1.4,2.3ZM76.07,41.25c-1.07-.71-3.44-.94-3.95.81.76,1.08,2.78.53,3.95-.81ZM81.82,53.9l.52,2.72c1.45-.96,2.17-2.43,2.55-4.24l1.46.86-.06-4.19,1.33.6c.08-1.89-.67-3.31-1.97-4.21l1.14,2.83-1.51-.05.44,3.4-1.62-.53c-.16,1.5-.42,2.81-1.02,4.28l-1.27-1.46Z"/>
        <path d="M119.86,108.45c-.38.39-1.5-1.33-1.11-1.74l1.94-2.05c-1.21.18-2.17,1.22-3.28,2.62-.55-1.26.12-2.51.99-3.19,2.9-2.25,5.32.52,7.38-1.73,3.08-3.37,6.86-6.8,3.06-10.84-2.53-2.69-6.83-8.17-4.55-12.01.76-1.28,3.52-1.68,4.93-1.82l-.42,1.07c1.25-.2,3.59-1.46,4.74-.47,1.68,1.43,2.64,3.75,3.8,5.76-4.1,6.9,3.12,9.99.14,12.75-8.95,8.28-6.66,12.21-16.03,12.17l.42-3.17-2.01,2.66Z"/>
        <path d="M70.67,96.1c-.27,1.26.24,2.46,1.36,3.54-.15.5-1.95.91-2.28.41l-.94-3.09-.22,3.21c-1.69-.78-2.02-3.18-1.21-4.84l4.48-9.18c.54-1.1,1.9-2.04,3.05-2.53l11.2-4.73c1.98,2.38,4.27,4.12,7.23,5.85-.86.66-2.41,1.4-3.68,1.56l-10.69,1.37c-3.4.44-.97,3.48-4.83,4.61.35,1.93.87,4.73-.65,6.15-.31.29-1.65.19-1.83-.2l-.99-2.13Z"/>
        <path d="M79.74,35.36l-3.5.2,1.42-7.38c1.3,1.41,2.24,2.64,3.2,4.26l-1.12,2.92Z"/>
        <path class="st0" d="M81.82,53.9l1.27,1.46c.6-1.46.85-2.78,1.02-4.28l1.62.53-.44-3.4,1.51.05-1.14-2.83c1.3.9,2.05,2.32,1.97,4.21l-1.33-.6.06,4.19-1.46-.86c-.38,1.81-1.09,3.28-2.55,4.24l-.52-2.72Z"/>
        <path class="st0" d="M84.61,39.71c-.73-.57-1.58-1.67-1.4-2.3l1.44-4.92c.75,2.49.73,4.8-.04,7.22Z"/>
        <path class="st0" d="M76.07,41.25c-1.17,1.34-3.19,1.88-3.95.81.51-1.75,2.88-1.52,3.95-.81Z"/>
      </g>
      <g>
        <path d="M88.15,201.7c-.2.59-2.17-.17-1.97-.74l.91-2.65-2.32,2.4c-.97-2.69,1.57-4.65,3.87-4.59,2.7.07,4.86-1.4,5.43-4.17.89-4.38,1.25-8.82,1.33-13.43.08-5.06-3.89-7.27-3.46-14.65-1.59,3.21.13,6.45,1.29,10.15-2.84-1.45-5.27-3.42-7.34-6.14l-1.03,1.24-2.19-5.51-1.45,2.18c-.83-2.8-.88-4.84-1.09-8l-2.45,2.75c-.2-2.29.07-4.55.58-6.93l-2.83.81c2.02-2.84,2.89-6.72.08-9.15-4.35-3.75-11.84.96-13.46-3.98,3.83-.4,7.48-.47,11.13-.36-5.19-4.28-11.86,3.81-15.15-6.25l10.98-3.26,1.95-2.89c2.96-1.09,6.23-1.7,9.2-2.1l3.73-7.5c2.99,2.95,4.34,7.26,3.91,11.92l1.09-1.21c2.37,2.13,4.59,3.94,7.43,5.36l-2.62,1.01,5.68,3.29-2.51.75c1.86,1.97,4.06,2.64,6.74,3.47l-2.99,1.72c4.07,1.14,4.24-.12,9.25,1.75,3.23,1.21,6.63,1.85,10.15,1.41l9.84-1.22c10.47-1.3,13.91,4.17,20.59,4.13,5.47-.03,9.74-4.26,9.99-9.7.12-2.64-.72-4.9-1.74-7.35l2.28.82c-.64-3.04-1.36-5.04-.3-7.53l1.4,2.6c.21-4.08,1.09-7.52,4.22-9.85l.24,2.33c1.79-2.58,4.3-4.31,7.63-4.25-1.69,1.96-3.13,3.77-3.76,5.93l2.62-.78c-1.12,2.29-2,4.16-2.3,6.88l1.93-1.69c.22,2.75-.18,5.24-.63,8.07l1.95-1.65c.68,3.19-.96,5.75-2.9,8.41l2.76-.96c-.88,3.32-3.6,5.32-6.73,7.06l3.22.21c-1.65,2.52-4.32,3.29-7.41,3.95l2.43,1.2c-2.77,1.04-5.34,1.03-8.42.8l1.82,1.79c-2.99-.09-5.45-.68-8.14-1.44l1.35,3.6c.74,1.98,1.58,3.57,2.82,5.6l-2.25-.07,2.92,4.14-2.33-.14,2.81,4.25-2.33-.06c2.82,7.14,7.89,5.01,8.16,9.28s.94,7.7,2.02,11.72c.18.65-2.48,8.14-6.85,7.3-.72-.99.01-2.57.79-3.53-1.15.03-1.6,1.23-1.93,2.38l-.29,1.01c-.06.22-1.11-.25-1.26-.42-.86-.94.01-2.62.75-3.75-1.1.27-1.61,1.59-2.35,3.04-1.69-2.04.28-4.1,2.32-4.75,1-.32,2.19-.98,2.63-1.63.48-.73.28-2.6.11-3.39-2.48-11.64-13.76-5.52-20.74-18.87-1.29-2.46-4.64-7.03-7.93-6.23l3.25,1.78c-11.09-.21-14.15,7.68-26.29,7.4-1.34-1.48-1.82-3.68-2.18-5.79-1.1,4.13,2.39,6.23.64,9.44-2.78,5.11-4.25,10.78-4.87,16.49-2.01,1.15-2.91,2.9-3.65,5.22-1.46,1.22-4.19,1.72-6.65,2.04-.04-.94.14-2.04.34-3.24-.44.16-1.07,1.44-1.48,2.67ZM84.63,130.29c.73-2.51.79-5.13-.03-7.64l-1.01,4.15c-.66,1.22-.22,2.57,1.04,3.49ZM76.17,131.93c-1.31-1.19-3.18-.95-4.3.55,1.53.99,2.89.58,4.3-.55ZM81.78,144.21l.75,3c1.28-1.08,2.02-2.6,2.43-4.17l1.35.74c.1-1.49.08-2.69-.01-4.22l1.45.63c.02-1.73-.73-3.33-2.11-4.12l1.16,2.63-1.63.07.52,3.47-1.64-.55-.63,3.95-1.65-1.44Z"/>
        <path d="M120.5,198.69c-.11.48-1.8.08-1.8-.4,0-.59.26-1.44.55-2.54l-1.79,2c-.49-.85.08-2.32.74-2.92,4.63-4.23,4.23,3.77,11.65-6.99,1.06-1.54.82-3.61-.33-5l-3.57-4.29c-1.82-2.18-3.06-5.66-1.75-8.4.63-1.31,3.29-1.73,4.6-1.77l-.25,1.09c1.63-.48,3.83-1.9,5.26-.46,1.5,1.52,2.58,3.69,3.66,5.56-4.46,7.31,3.51,9.5-.73,13.45-3.2,2.99-5.56,6.27-8.22,9.77-1.5,1.12-4.87,1.78-6.66,1.66-.5-.03-.73-1.69-.36-1.99l1.96-1.58c-1.37-.46-2.59,1.26-2.95,2.82Z"/>
        <path d="M70.72,186.38c-.41.76.29,2.73.99,3.52.24.29-.52,1.09-.91,1.08s-1.17-.6-1.29-.97l-.75-2.33-.02,3.09c-4.46-1.59,1.52-11.16,3.28-14.33.62-1.13,2.27-2,3.47-2.51l10.63-4.58c1.98,2.58,4.36,4.13,7.38,5.98-1.38.91-3.08,1.33-4.8,1.55l-9.82,1.28c-3.35.44-1.21,4.11-4.49,4.3-.81.71,1.37,5.44-1.39,6.62-1.3.55-1.84-1.18-2.29-2.69Z"/>
        <path d="M79.55,125.83c-.71.38-2.31.3-3.26.26l1.42-7.26c1.05.91,2.54,2.68,2.9,3.93.2.7-.41,2.73-1.05,3.07Z"/>
        <path class="st0" d="M81.78,144.21l1.65,1.44.63-3.95,1.64.55-.52-3.47,1.63-.07-1.16-2.63c1.38.79,2.12,2.39,2.11,4.12l-1.45-.63c.09,1.53.11,2.73.01,4.22l-1.35-.74c-.4,1.57-1.14,3.09-2.43,4.17l-.75-3Z"/>
        <path class="st0" d="M84.63,130.29c-1.26-.92-1.7-2.27-1.04-3.49l1.01-4.15c.82,2.51.76,5.13.03,7.64Z"/>
        <path class="st0" d="M76.17,131.93c-1.42,1.13-2.77,1.54-4.3.55,1.12-1.5,2.99-1.74,4.3-.55Z"/>
      </g>
    </g>
  </g>
</svg>