<?xml version="1.0" encoding="UTF-8"?>
<svg id="Capa_2" xmlns="http://www.w3.org/2000/svg" version="1.1" viewBox="0 0 278.1 278.1">
  <!-- Generator: Adobe Illustrator 30.1.0, SVG Export Plug-In . SVG Version: 2.1.1 Build 65)  -->
  <defs>
    <style>
      .st0 {
        fill: #fff;
      }
    </style>
  </defs>
  <path d="M277.1,169.2c-3-17.5-11.6-34.3-24.4-48.8-7.8-8.7-17-16.2-27.2-22.6v-1.4c0-1.2,0-3.2-.9-5.3-2.4-16.2-9.1-32.5-19.1-45.9-11-14.8-25.1-25.5-40.9-30.7-8.8-3-17.9-4.5-26.8-4.5-19.3,0-37.6,6.8-53.1,19.7-14.5,12.1-25.5,29.3-31,48.2-1.4,4.9-2.5,9.7-3.3,14.7-3.9,1.1-7.2,3.8-8.8,7.9-.9,2.4-2.9,5.3-5.5,8.3-16.2,13.4-27.5,30.4-32.7,48.9-5,17.7-4.5,36.3,1.7,53.4,5.8,16.3,16.2,30.2,30.1,40.1,14.7,10.5,32.9,16.2,52.3,16.2s19.4-1.3,29.6-3.9c4.5-1.2,8.9-2.6,13.4-4.3,2.2,1.4,4.7,2.4,7.5,2.4s3.9-.4,5.8-1.3l.7-.3c.4-.3.8-.3,1.3-.3,1.1,0,2.5.3,4.5.9,1.6.7,3.3,1.2,4.9,1.7h0c8.7,2.8,18.3,4.9,25.1,5.4,3,.3,6,.4,8.9.4,18.7,0,36.1-4.9,50.6-14.1,13.8-8.8,24.7-21.3,31.3-36.1,6.7-15.1,8.8-31.9,5.9-48.6h.3ZM252.7,142.1c-.3-.5-.7-1.1-.9-1.4.3.5.7,1.1.9,1.4ZM265.1,183v-1.8,1.8ZM265.1,180.2v-1.7,1.7ZM264.9,177.5c0-.5,0-1.2-.1-1.7,0,.5,0,1.2.1,1.7ZM264.6,174.7c0-.5-.1-1.1-.3-1.7,0,.5.1,1.1.3,1.7ZM264.2,172c0-.5-.1-1.1-.3-1.6,0,.5.3,1.1.3,1.6ZM263.7,169.3c0-.5-.3-1.1-.4-1.6,0,.5.3,1.1.4,1.6ZM263,166.6c0-.5-.3-1.1-.4-1.6.1.5.3,1.1.4,1.6ZM262.4,163.8c-.1-.5-.3-1.1-.5-1.6.1.5.3,1.1.5,1.6ZM261.5,161.1c-.1-.5-.4-1.1-.5-1.6.1.5.4,1.1.5,1.6ZM260.5,158.3c-.1-.5-.4-1.1-.5-1.6.3.5.4,1.1.5,1.6ZM259.5,155.5c-.3-.5-.4-1.1-.7-1.6.3.5.4,1.1.7,1.6ZM258.3,152.9c-.3-.5-.5-1.1-.7-1.4.3.5.5,1.1.7,1.4ZM257.1,150.2c-.3-.5-.5-1.1-.8-1.4.3.5.5,1.1.8,1.4ZM255.7,147.5c-.3-.5-.5-1.1-.8-1.4.3.5.5,1.1.8,1.4ZM254.2,144.9c-.3-.5-.7-1.1-.9-1.4.3.5.7.9.9,1.4ZM250.8,139.5c-.4-.5-.7-1.1-1.1-1.4.4.5.7,1.1,1.1,1.4ZM249,136.9c-.4-.5-.8-1.1-1.2-1.6.4.5.8,1.1,1.2,1.6ZM247,134.4c-.4-.5-.9-1.2-1.4-1.7.5.5.9,1.2,1.4,1.7ZM245,131.8c-.7-.8-1.4-1.7-2.1-2.5.8.8,1.4,1.6,2.1,2.5ZM242.8,129.3c-.9-.9-1.8-2-2.8-2.9.9.9,1.8,1.8,2.8,2.9ZM239.1,125.4c-.7-.7-1.3-1.3-2-1.8.7.7,1.3,1.3,2,1.8ZM60.3,169.5c5.9,14.5,14.1,28.3,24,40.6-12-.9-21.7-6.6-25.9-15.4-3.4-7.4-2.8-16.2,1.8-25.4h0ZM97.1,205c.8,1.1,1.7,2.5,2.5,3.9h0c-.7-1.4-1.6-2.9-2.5-3.9ZM226.9,158.3c.8,1.2,1.4,2.5,2.2,3.8.7,1.3,1.3,2.6,1.8,3.9-.5-1.3-1.2-2.6-1.8-3.9s-1.4-2.6-2.2-3.8ZM223.1,152.9h0c.9,1.2,1.8,2.4,2.6,3.5-.8-1.2-1.7-2.4-2.6-3.5ZM185.1,200.7h0c1.2-1.6,2.4-3.2,3.5-4.9-1.2,1.6-2.4,3.3-3.5,4.9ZM150.2,193.8c.7-.7,1.3-1.4,2-2.1-.7.7-1.3,1.4-2,2.1h0ZM130.1,194.2c-.3,0-.4-.3-.7-.4.3,0,.5.3.7.4h0ZM126.6,192.1c.4.4.8.7,1.3.9-.4-.3-.8-.5-1.3-.9ZM128.2,193.1c.3.1.5.4.9.5-.3-.1-.5-.3-.9-.5ZM106.1,123.9c.1,0,.4-.3.5-.4-.1,0-.4.3-.5.4h0ZM110.7,121.4h.1-.1c-1.2.5-2.2,1.2-3.2,1.7.9-.5,2-1.1,3.2-1.7ZM111.3,89.7c.4,0,.9-.1,1.3-.3-.4,0-.9.1-1.3.3ZM115.6,120.1c-.4,0-.8.1-1.3.3.4,0,.8-.1,1.3-.3ZM172.4,121.6c-.3,0-.5-.1-.8-.3.3,0,.5.1.8.3ZM166.2,89.4c-.8-.1-1.7-.3-2.5-.4.8.1,1.7.3,2.5.4h0ZM158,88.3c-.9,0-1.7-.3-2.6-.3.9,0,1.7.1,2.6.3ZM162.1,88.8c-.8,0-1.7-.3-2.5-.4.8,0,1.7.3,2.5.4ZM141.9,87.1h2.9-2.9ZM146,87.2c1.3,0,2.6.1,3.9.3-1.3,0-2.6-.1-3.9-.3ZM150.8,87.5c1.1,0,2.1.1,3.2.3-1.1,0-2.1-.1-3.2-.3ZM168.8,120.7c-.4,0-.8-.1-1.1-.3.4,0,.8.1,1.1.3ZM165,119.9c-.3,0-.5,0-.8-.1.3,0,.5,0,.8.1ZM160.8,119h-.8.8ZM157.3,118.5c-.4,0-.8,0-1.1-.1.4,0,.8,0,1.1.1ZM153.4,118.1h-.9.9ZM149,117.7h-.7.7ZM145.4,117.4h-1.1,1.1ZM141.7,117.3h-.9.9ZM138.3,87.1h2.2-2.2ZM121,88.1c.5,0,1.1,0,1.4-.1-.5,0-1.1,0-1.4.1ZM126.4,87.6h1.4-1.4ZM132.9,87.2h.8-.8ZM138.6,117.3h-1.8,1.8ZM134.8,117.4h-1.7,1.7ZM131,117.7c-.5,0-1.2,0-1.7.1.5,0,1.2,0,1.7-.1ZM127,118.1c-.5,0-1.2,0-1.7.3.5,0,1.2-.1,1.7-.3ZM123.2,118.6c-.5,0-1.1.1-1.6.3.5,0,1.1-.1,1.6-.3ZM119.4,119.3c-.5,0-1.1.1-1.4.3.5,0,1.1-.1,1.4-.3ZM137.1,182.1h-1.7s-.3-.1-.4-.3c-1.3-1.2-2.6-2.5-3.7-3.8-8.7-9.9-16.6-23.1-21.3-37.5.7-.9,1.3-2,1.7-3,.9-2.4,1.1-2.5,3.7-3.8,7.8-2.1,16.2-3.2,25-3.2s18.9,1.3,27.7,3.7c-4.2,18.4-13.5,35.6-26,49-1.6-.7-3.3-1.1-5-1.1h0ZM171.6,163.3c-.9,2-2,3.8-3,5.7,1.1-1.8,2.1-3.8,3-5.7ZM164.7,175.3c-2.6,4.2-5.7,8.3-8.8,12.1,3.2-3.8,6.2-7.9,8.8-12.1ZM175,155.8c1.1-2.8,2.1-5.5,3-8.3-.9,2.8-2,5.5-3,8.3-.7,1.7-1.4,3.4-2.2,5.1.8-1.7,1.6-3.4,2.2-5.1ZM139.1,73.9c-7.1,0-14.2.5-21,1.3,6-6.3,13.4-8.9,19.8-8.9s13.8,3,19.2,8.5c-5.9-.7-11.8-.9-17.9-.9h-.1ZM103.4,72.8h0v-.3c.1,0,.1.1,0,.3ZM105.5,69.9s.3-.3.3-.4c0,0-.3.3-.3.4ZM217.7,168.7c6,12,6.2,26.7-4.9,36-4.2,3.5-9.2,5.5-15.4,6.2-.3-1.1-.7-2.1-1.2-3,9.1-12.2,16.4-25.5,21.4-39.2h0ZM212.2,220.3c-.3,0-.5.3-.8.3.3,0,.5-.3.8-.3ZM210.2,221.2c-.3,0-.4.1-.7.3.3,0,.4-.1.7-.3ZM207.8,222h-.1.1ZM205.7,222.7c-.3,0-.4,0-.7.1.3,0,.4,0,.7-.1ZM203.8,223.1c-.3,0-.5,0-.8.1.3,0,.5,0,.8-.1ZM201.8,223.5h-.8.8ZM199.7,223.7h-.8.8ZM197.7,224h-.8.8ZM214,219.4c-.3,0-.5.3-.8.4.3,0,.5-.3.8-.4ZM219.4,216.1c-.1.1-.4.3-.5.4.1-.1.4-.3.5-.4ZM217.7,217.3c-.3.1-.4.3-.7.4.3-.1.4-.3.7-.4ZM215.9,218.5c-.3.1-.5.3-.8.4.3-.1.5-.3.8-.4ZM231.8,168c.5,1.3.9,2.8,1.3,4.1-.4-1.3-.8-2.8-1.3-4.1ZM231.1,118.1c.7.5,1.4,1.2,2.1,1.7-.7-.7-1.4-1.2-2.1-1.7ZM227,114.9c1.1.8,2.1,1.6,3.2,2.5-1.1-.8-2.1-1.6-3.2-2.5ZM223.9,112.6c.9.7,1.8,1.3,2.8,2-.9-.7-1.8-1.3-2.8-2ZM220.5,110.3c.8.5,1.4.9,2.2,1.4-.7-.5-1.4-.9-2.2-1.4ZM219.3,109.4c-.4-.3-.8-.5-1.2-.7h0c.4.3.8.5,1.2.8h0ZM165.3,64.6c-.4-.4-.8-.7-1.2-1.1.4.4.8.7,1.2,1.1ZM162.6,62.4c-.4-.3-.8-.7-1.2-.9.4.3.8.7,1.2.9ZM140.8,53.3h.4-.4ZM143.9,53.7c.4,0,.7.1,1.1.3-.4,0-.7-.1-1.1-.3ZM147,54.4c.4,0,.8.3,1.2.4-.4,0-.8-.3-1.2-.4ZM150,55.3c.4.1.8.3,1.3.5-.4-.1-.8-.3-1.3-.5ZM153,56.3c.4.1.8.4,1.3.5-.4-.3-.8-.4-1.3-.5ZM155.9,57.8c.4.3.8.5,1.3.7-.4-.3-.8-.5-1.3-.7ZM158.7,59.5c.4.3.8.5,1.2.8-.4-.3-.8-.5-1.2-.8ZM166.7,66.1c.4.4.8.8,1.1,1.2-.4-.4-.7-.8-1.1-1.2ZM169.2,68.8c.4.4.7.8,1.1,1.2-.4-.4-.7-.8-1.1-1.2ZM171.4,71.8c.3.4.7.9.9,1.3-.3-.4-.7-.9-.9-1.3ZM173.7,75.1c.3.4.5.9.8,1.3-.3-.4-.5-.9-.8-1.3ZM118.8,58.3c.1,0,.3-.1.4-.3-.1,0-.3.1-.4.3ZM121.6,56.7c.1,0,.3-.1.4-.3-.1,0-.3.1-.4.3ZM124.8,55.5c.1,0,.3,0,.4-.1-.1,0-.3,0-.4.1ZM128,54.5h.4-.4ZM131.1,53.8h.3-.3ZM134.4,53.3h0ZM137.5,53.2h.3-.3ZM115.9,60.1s.3-.1.4-.3c0,0-.3.1-.4.3ZM113.1,62.1s.1,0,.3-.1c0,0-.1,0-.3.1ZM110.5,64.3h0ZM107.8,67s.1-.1.3-.3c0,0-.1.1-.3.3ZM108.4,30c1.1-.5,2.1-.9,3-1.4-1.1.4-2.1.9-3,1.4ZM102.3,33.3c.7-.4,1.3-.8,2-1.2-.7.4-1.3.8-2,1.2ZM105.3,31.6c.8-.5,1.7-.9,2.6-1.3-.9.4-1.7.9-2.6,1.3ZM93,40c.9-.8,1.7-1.4,2.6-2.1-.9.7-1.8,1.4-2.6,2.1ZM96.2,37.5c.8-.5,1.6-1.2,2.2-1.7-.8.5-1.6,1.1-2.2,1.7ZM99.4,35.3c.7-.4,1.3-.9,2-1.3-.7.4-1.3.8-2,1.3ZM90.5,42.4c.7-.5,1.3-1.2,1.8-1.7-.7.5-1.3,1.1-1.8,1.7ZM84.5,187.9c3.7,5.8,7.8,11.3,12.1,16.6h0c-4.3-5.3-8.4-10.8-12.1-16.6-1.4-2.4-2.9-4.7-4.2-7.1,1.3,2.4,2.8,4.7,4.2,7.1ZM80.2,53.7c.7-.9,1.3-1.7,2-2.5-.7.8-1.3,1.7-2,2.5ZM82.5,50.9c.8-.9,1.4-1.8,2.2-2.6-.8.9-1.6,1.7-2.2,2.6ZM71.4,162.1h0c1.4,3.8,3.2,7.6,5,11.3-1.8-3.7-3.4-7.5-5-11.3ZM76.3,59.6c.4-.7.8-1.3,1.3-2-.4.7-.9,1.3-1.3,2ZM54.2,154.2c-.1.3-.3.4-.5.7.1-.3.3-.4.5-.7ZM43.2,185.6v.5-.5ZM54.8,247.4c-.5-.3-1.1-.5-1.4-.7.5.3,1.1.5,1.4.7ZM52,246.1c-.5-.3-.9-.5-1.4-.8.5.3.9.5,1.4.8ZM49.2,244.6c-.5-.3-.9-.5-1.4-.8.5.3.9.5,1.4.8ZM46.7,243.2c-.5-.4-1.2-.7-1.7-1.1.5.4,1.1.8,1.7,1.1ZM43.2,187.5v.4-.4ZM43.7,191.3v.3-.3ZM44.1,193v.4-.4ZM44.5,194.8v.3-.3ZM45.7,198.4v.3-.3ZM46.3,200s0,.3.1.4c0,0,0-.3-.1-.4ZM47.1,201.5v.3-.3ZM49,204.7s0,.1.1.3c0,0,0-.1-.1-.3ZM49.9,206.1s.1.3.3.3c0,0-.1-.3-.3-.3ZM51.1,207.6h0q0,.1,0,0ZM52.3,209h0ZM53.4,210.3s.1.1.3.3c0,0-.1-.1-.3-.3ZM56.2,213h0ZM55,211.8s-.3-.1-.3-.3c0,0,.1.1.3.3ZM43.2,184.1v-.3.3ZM43.3,182h0q0-.1,0,0ZM43.5,180.1v-.5.5ZM43.7,178.1v-.5.5ZM44.1,176v-.3.3ZM44.6,173.8v-.4.4ZM45.2,172c0-.1,0-.4.1-.5,0,.1,0,.4-.1.5ZM45.8,170c0-.1.1-.4.3-.5,0,.1-.1.4-.3.5ZM46.7,167.8v-.3.3ZM47.7,165.5c0-.1.1-.3.3-.5,0,.1-.1.3-.3.5ZM48.6,163.6c0-.3.3-.4.4-.7,0,.3-.3.4-.4.7ZM49.6,161.5c0-.3.3-.4.4-.7,0,.3-.3.4-.4.7ZM51.1,159.1v-.3.3ZM52.4,156.9c0-.1.3-.4.4-.5,0,.1-.3.4-.4.5ZM57.8,214.1h-.1.1ZM62.4,217.2h0ZM60.9,216.3s-.3-.1-.4-.3c0,0,.3.1.4.3ZM59.4,215.3s-.3-.1-.4-.3c0,0,.3.1.4.3ZM86.3,223.5h-.3.3ZM84.1,223.3h-.5.5ZM82,223.2h-.7.7ZM79.9,223h-.5.5ZM75.5,222.2h-.5.5ZM73.7,221.8c-.1,0-.4,0-.5-.1.1,0,.4,0,.5.1ZM71.7,221.1c-.1,0-.3,0-.5-.1.1,0,.3,0,.5.1ZM69.5,220.5h0ZM67.8,219.8c-.1,0-.3,0-.4-.1.1,0,.3,0,.4.1ZM66.1,219c-.1,0-.3-.1-.5-.3.1,0,.3.1.5.3ZM64.3,218.2s-.3,0-.3-.1c0,0,.3,0,.3.1ZM88.5,223.5h-.5.5ZM100.9,253.3c-1.1.1-2,.3-3,.4,1.1,0,2-.3,3-.4ZM97.2,253.8c-1.2,0-2.5.3-3.7.3,1.2,0,2.4-.1,3.7-.3ZM92.6,254.1h-2.6,2.6ZM186.3,254.8h-1.2,1.2ZM192.7,224.3c-1.4,0-2.8,0-4.2-.1,1.4,0,2.8.1,4.2.1ZM195.5,224.1h-.7.7ZM193.1,224.3h-.4.4ZM193.8,254.8h-1.7,1.7ZM221.4,248.7c-.8.3-1.6.7-2.4.9.8-.3,1.6-.7,2.4-.9ZM218.8,249.8c-1.8.7-3.7,1.3-5.5,1.8,1.8-.5,3.7-1.2,5.5-1.8ZM212.6,251.7c-.8.3-1.4.4-2.2.5.8-.1,1.4-.4,2.2-.5ZM209.3,252.5c-.7.1-1.3.3-1.8.4.7-.1,1.3-.3,1.8-.4ZM206.3,253.2c-.7,0-1.2.3-1.8.4.7,0,1.2-.3,1.8-.4ZM203.1,253.7c-.5,0-1.2.1-1.7.3.5,0,1.2-.1,1.7-.3ZM200.1,254.2c-.5,0-1.2.1-1.7.1.5,0,1.2,0,1.7-.1ZM196.9,254.5h-1.7,1.7ZM223.9,247.7c-.7.3-1.3.5-2,.8.7-.3,1.3-.5,2-.8ZM231.2,243.8c-.5.3-1.1.7-1.6.9.5-.3,1.1-.5,1.6-.9ZM228.9,245.2c-.5.3-1.1.5-1.7.9.5-.3,1.1-.5,1.7-.9ZM226.5,246.5c-.5.3-1.2.5-1.7.8.5-.3,1.2-.5,1.7-.8ZM233.6,242.4c-.5.3-1.1.7-1.4.9.5-.3,1.1-.7,1.4-.9ZM234.8,188.8c0-1.4.1-2.8.1-4.2,0,1.4,0,2.8-.1,4.2ZM235.8,240.8c-.5.4-.9.7-1.4,1.1.5-.3.9-.7,1.4-1.1ZM234.4,178.4c.3,1.4.4,2.8.4,4.2,0-1.4-.3-2.8-.4-4.2ZM234.3,120.9c.7.5,1.3,1.2,1.8,1.7-.7-.5-1.3-1.2-1.8-1.7ZM140.7,23.2h-3.4,3.4ZM160.4,27c-1.2-.4-2.4-.8-3.5-1.1,1.2.4,2.4.7,3.5,1.1ZM155.8,25.6c-.9-.3-1.8-.5-2.8-.7.9.3,1.8.4,2.8.7ZM152.3,24.7c-1.2-.3-2.4-.5-3.5-.7,1.2.1,2.4.4,3.5.7ZM147.9,24c-.9-.1-1.8-.3-2.8-.4.9,0,1.8.3,2.8.4ZM144.1,23.5c-1.1,0-2.1-.1-3.2-.3,1.1,0,2.1,0,3.2.3ZM112.3,28.3c.8-.3,1.4-.7,2.2-.9-.8.3-1.6.5-2.2.9ZM115.7,27c.7-.3,1.4-.5,2.1-.7-.7.3-1.4.5-2.1.7ZM119,26c.8-.3,1.6-.4,2.4-.7-.8.3-1.6.4-2.4.7ZM122.3,25.1c1.1-.3,2.2-.5,3.3-.7-1.2.3-2.2.4-3.3.7ZM126.1,24.3c.9-.1,2-.3,2.9-.4-.9,0-2,.3-2.9.4ZM130.2,23.6c.8,0,1.6-.1,2.4-.3-.8,0-1.6.1-2.4.3ZM133.7,23.3h2.4-2.4ZM89.6,43.2c-.5.5-1.1,1.1-1.7,1.6.5-.5,1.1-1.1,1.7-1.6ZM85.4,47.5c.5-.7,1.1-1.2,1.7-1.8-.5.7-1.2,1.2-1.7,1.8ZM79.6,54.5c-.5.7-.9,1.3-1.4,2,.4-.7.9-1.3,1.4-2ZM67.5,78.1c-.4,1.2-.8,2.4-1.1,3.5-1.4,4.7-2.4,9.6-3.2,14.5h0c.8-4.9,1.7-9.7,3.2-14.5.4-1.2.7-2.4,1.1-3.5ZM75.7,60.7c-.5.8-.9,1.6-1.4,2.4.4-.8.9-1.6,1.4-2.4ZM73.8,63.7c-.5,1.1-1.2,2.1-1.7,3.2.5-1.1,1.1-2.1,1.7-3.2ZM71.8,67.6c-.4.8-.8,1.6-1.2,2.5.4-.8.8-1.6,1.2-2.5ZM70.1,71.3c-.3.8-.7,1.4-.9,2.2.3-.8.7-1.4.9-2.2ZM68.8,74.7c-.3.8-.5,1.6-.9,2.4.3-.8.5-1.6.9-2.4ZM45.3,118.4c-1.1.8-2,1.6-2.9,2.5.9-.8,1.8-1.7,2.9-2.5ZM38.6,124.3l-1.6,1.6,1.6-1.6ZM41.5,121.6c-.7.5-1.2,1.2-1.8,1.7.7-.5,1.2-1.2,1.8-1.7ZM36,127c-.5.5-.9,1.1-1.4,1.6.5-.5.9-1.1,1.4-1.6ZM33.6,129.7c-.4.5-.9,1.1-1.3,1.6.4-.5.9-1.1,1.3-1.6ZM31.4,132.4c-.4.5-.8,1.1-1.2,1.6.4-.5.8-1.1,1.2-1.6ZM29.1,135.2c-.4.5-.8,1.1-1.2,1.7.4-.5.8-1.1,1.2-1.7ZM27.2,137.9c-.4.7-.8,1.2-1.2,1.8.4-.7.8-1.2,1.2-1.8ZM25.3,140.7c-.5.9-1.2,1.8-1.7,2.8.5-.9,1.1-1.8,1.7-2.8ZM23.2,144.2c-.4.7-.8,1.4-1.2,2.1.4-.7.8-1.4,1.2-2.1ZM21.5,147.7c-.3.5-.5,1.2-.8,1.7.3-.5.5-1.2.8-1.7ZM20.1,150.7c-.3.5-.5,1.1-.7,1.6.3-.5.5-1.1.7-1.6ZM18.8,153.7c-.3.5-.4,1.1-.7,1.6.1-.5.4-1.1.7-1.6ZM17.7,156.6c-.1.5-.4,1.1-.5,1.6.1-.5.4-1.1.5-1.6ZM16.6,159.6c-.1.5-.3,1.1-.4,1.6.1-.5.3-1.1.4-1.6ZM15.9,162.6c-.1.5-.3,1.1-.4,1.6,0-.5.3-1.1.4-1.6ZM15.1,165.7c0,.5-.3,1.1-.3,1.4,0-.5.1-1.1.3-1.4ZM14.4,168.7c0,.5-.1,1.1-.3,1.6,0-.5.1-1.1.3-1.6ZM13.8,173c0,.4,0,.9-.1,1.3,0-.4,0-.9.1-1.3ZM13.5,176v1.3-1.3ZM13.4,179.1v1.3-1.3ZM13.2,182.1v1.3-1.3ZM13.4,185v1.3-1.3ZM13.5,188v1.2-1.2ZM13.8,190.9c0,.4,0,.8.1,1.2,0-.4,0-.8-.1-1.2ZM14.2,193.8c0,.3,0,.7.1.9,0-.3,0-.7-.1-.9ZM15.9,201.3c0,.3.1.5.3.9,0-.3-.1-.5-.3-.9ZM16.5,203.8c0,.4.3.7.3,1.1,0-.4-.3-.7-.3-1.1ZM17.4,206.5c0,.4.3.7.4,1.1-.1-.4-.3-.7-.4-1.1ZM18.5,209.2c.1.4.3.7.4,1.1-.1-.4-.3-.7-.4-1.1ZM19.5,211.8c.1.4.3.7.5,1.1-.1-.4-.3-.7-.5-1.1ZM20.7,214.4c.1.4.4.7.5,1.1-.1-.4-.4-.7-.5-1.1ZM22,217c.1.3.4.7.5.9-.1-.3-.4-.7-.5-.9ZM23.5,219.5c.1.3.3.5.5.8-.1-.3-.3-.5-.5-.8ZM33.1,232l.9.9-.9-.9ZM27.6,225.6c.3.3.4.5.7.9-.3-.3-.4-.5-.7-.9ZM29.3,227.8c.3.3.5.7.8.9-.3-.3-.5-.7-.8-.9ZM31.1,229.9c.3.3.5.7.8.9-.3-.3-.5-.7-.8-.9ZM35.2,234.1l.9.9c-.4-.3-.7-.7-.9-.9ZM43.2,240.8c-.4-.3-.9-.7-1.3-.9.4.3.9.7,1.3.9h0ZM40.7,238.9c-.4-.3-.8-.5-1.2-.9.4.3.8.7,1.2.9ZM38.3,237c-.4-.3-.7-.7-1.1-.9.4.3.7.7,1.1.9ZM56.1,248.1c.5.3,1.1.4,1.6.7-.5-.3-1.1-.4-1.6-.7ZM59,249.2c.5.3,1.1.4,1.6.7-.5-.1-1.1-.4-1.6-.7ZM62,250.3c.5.1,1.2.4,1.7.5-.5-.1-1.2-.4-1.7-.5ZM65,251.2c.7.1,1.3.4,2,.5-.7-.1-1.3-.4-2-.5ZM68.2,252c.9.3,2,.4,3,.7-1.1-.3-2-.4-3-.7ZM71.6,252.8c1.1.3,2.1.4,3.2.5-1.1-.1-2.1-.4-3.2-.5ZM75.8,253.4c.8,0,1.4.3,2.2.3-.8,0-1.4-.1-2.2-.3ZM79.3,253.8c.7,0,1.4,0,2.1.1-.7,0-1.4,0-2.1-.1ZM82.9,254.1h2.1-2.1ZM86.6,254.2h2.2-2.2ZM113.8,250.8c-1.3.4-2.6.7-3.9.9,1.3-.3,2.6-.7,3.9-.9,3.7-.9,7.4-2.2,11-3.5h0c-3.7,1.3-7.4,2.6-11,3.5ZM102.1,253.2c.9,0,1.7-.3,2.6-.4-.9.1-1.7.3-2.6.4ZM106,252.5c.9-.1,1.8-.4,2.6-.5-.9.1-1.8.4-2.6.5ZM159.2,249.6c-1.6-.5-3.3-1.1-4.7-1.7-.4,0-.8-.3-1.2-.3h0c.4,0,.8.3,1.1.4,1.6.5,3.2,1.2,4.7,1.7h.1ZM159.2,249.6h0c7.9,2.5,16.4,4.3,22.2,4.9h0c-5.7-.4-14.3-2.2-22.2-4.9ZM188.8,254.8h1.7-1.7ZM238.7,238.6c.4-.4.9-.7,1.3-1.1-.4.4-.9.7-1.3,1.1ZM236.6,240.3c.5-.4.9-.7,1.4-1.1-.4.4-.9.7-1.4,1.1ZM242.1,235.8c-.4.4-.8.8-1.3,1.2.4-.4.9-.8,1.3-1.2ZM242.8,235.2c.4-.4.8-.8,1.2-1.2-.4.4-.8.8-1.2,1.2ZM244.8,233.3c.4-.4.8-.8,1.2-1.2-.4.4-.8.8-1.2,1.2ZM246.6,231.5c.4-.4.8-.8,1.2-1.3-.4.4-.8.8-1.2,1.3ZM248.3,229.5c.4-.4.8-.9,1.1-1.3-.4.4-.8.9-1.1,1.3ZM250,227.6c.4-.4.7-.9,1.1-1.3-.4.5-.7.9-1.1,1.3ZM251.6,225.5c.4-.5.7-.9,1.1-1.4-.4.5-.7.9-1.1,1.4ZM253.1,223.3c.4-.5.7-1.1,1.1-1.4-.3.5-.7,1.1-1.1,1.4ZM265.1,185.8v-1.8,1.8ZM254.5,221.2c.3-.5.7-1.1.9-1.6-.3.5-.7,1.1-.9,1.6ZM255.8,219c.3-.5.7-1.1.9-1.7-.3.5-.7,1.1-.9,1.7ZM257.1,216.8c.3-.5.7-1.2.9-1.7-.3.5-.5,1.2-.9,1.7ZM258.3,214.4c.3-.7.5-1.2.9-1.8-.3.7-.5,1.2-.9,1.8ZM259.4,212c.3-.7.5-1.3.8-2-.3.7-.5,1.3-.8,2ZM260.4,209.7c.3-.8.5-1.6.8-2.2-.3.8-.5,1.6-.8,2.2ZM261.2,207.2c1.4-4.1,2.5-8.4,3.2-12.7-.7,4.3-1.7,8.7-3.2,12.7ZM264.5,194.2c0-.8.3-1.6.3-2.4,0,.8-.1,1.6-.3,2.4ZM264.7,191.3c0-.7.1-1.4.1-2.1,0,.7,0,1.4-.1,2.1ZM265,188.5v-2,2Z"/>
  <g>
    <g>
      <path class="st0" d="M209.8,147.1c-8.3-7.2-17.2-11.7-27.5-15.6-.4,1.4-.7,2.1-.7,2.4-6.7,34-29.6,66.4-61,81.5-56.1,26.9-101.6-18.7-63.2-65.2,2.2-1.3,3.5-.7,6.6,1.3-10.9-22.6-10-46.1-10-46.1-2.1,5.3-6.2,10.2-8.5,12.9-66.6,54.3-22.5,156.2,68.5,132.5,46-12,85.2-55.2,96.1-101.3.4-1.6-.4-.8,0-2.4h-.3Z"/>
      <path class="st0" d="M181.6,133.9v-.4c.3-1.3-.4,1.2,0,.4Z"/>
    </g>
    <path class="st0" d="M211.7,93.8c-3.9-28.6-23.5-57.6-51.2-66.9-42.7-14.3-82.1,13.9-94.1,54.7-12.4,42.6,2.2,89.2,30.1,122.7h0c2.5,2.9,6.3,10,2.9,11.7,0,0,20.5-3.2,37.7-20.9h-.7s-4.2,1.2-9.9-3.3c-1.8-1.7-3.5-3.4-5.1-5.3-21.6-24.6-35.1-61.9-26.7-94.5,12.6-48.6,65.6-52.4,83.3-8.4.7,1.7,1.3-1.1,1.8.8,5.9,2,12.1,3.4,17.9,5.7,5,2,9.6,4.6,14.5,6.6,0-2.5-.3-.7-.7-3.2v.3Z"/>
    <path class="st0" d="M242.8,129.3c-30.6-34-82.7-47.4-126.9-40.5-1.3.3-4.6.8-8.1,1.6h0s-5,.9-5.4-4.6c0,0-9.5,15-2.9,46.9,2.5-6.4,4.9-8.4,11.3-11.4,38.2-11,87.9,1.1,112.4,31.5,14.7,18.4,17.5,45.7-2,61.9-9.6,7.9-21,10.1-32.7,9.3h0c-2.4,0-7.6-2.4-3.9-10.2-2.8,3.2-5.5,5.9-8.1,8.5q-.3,0-.3.3c-8,7.8-15.4,13.1-22.9,17.5-1.1.5-2.1,1.2-3,1.7-4.1,2.2-8.1,4.3-12.5,6.4,5.3-2.8,10.4-2.2,16.6-.4,1.6.5,3.2,1.2,4.7,1.7h0c7.9,2.5,16.4,4.3,22.2,4.9,74,5.9,110.5-70.7,61.4-125.2h.3Z"/>
  </g>
</svg>