<?xml version="1.0" encoding="UTF-8"?>
<svg id="1egacy-logo" xmlns="http://www.w3.org/2000/svg" viewBox="0 0 278.1 278.1">
  <defs>
    <style>
      /* COLOR PARA MODO CLARO (Navegador blanco, Google blanco) */
      .logo-path { 
        fill: #C0A062; /* Negro profundo para que resalte en Google */
        transition: fill 0.2s ease;
      }

      /* COLOR PARA MODO OSCURO (Navegador oscuro, Tab de móvil negra) */
      @media (prefers-color-scheme: dark) {
        .logo-path { 
          fill: #C0A062; /* El Dorado de la marca 1egacy */
        }
      }
    </style>
  </defs>
  
  <g>
    <g>
      <path class="logo-path" d="M209.8,147.1c-8.3-7.2-17.2-11.7-27.5-15.6-.4,1.4-.7,2.1-.7,2.4-6.7,34-29.6,66.4-61,81.5-56.1,26.9-101.6-18.7-63.2-65.2,2.2-1.3,3.5-.7,6.6,1.3-10.9-22.6-10-46.1-10-46.1-2.1,5.3-6.2,10.2-8.5,12.9-66.6,54.3-22.5,156.2,68.5,132.5,46-12,85.2-55.2,96.1-101.3.4-1.6-.4-.8,0-2.4h-.3Z"/>
      <path class="st0" d="M181.6,133.9v-.4c.3-1.3-.4,1.2,0,.4Z"/>
    </g>
    <path class="logo-path" d="M211.7,93.8c-3.9-28.6-23.5-57.6-51.2-66.9-42.7-14.3-82.1,13.9-94.1,54.7-12.4,42.6,2.2,89.2,30.1,122.7h0c2.5,2.9,6.3,10,2.9,11.7,0,0,20.5-3.2,37.7-20.9h-.7s-4.2,1.2-9.9-3.3c-1.8-1.7-3.5-3.4-5.1-5.3-21.6-24.6-35.1-61.9-26.7-94.5,12.6-48.6,65.6-52.4,83.3-8.4.7,1.7,1.3-1.1,1.8.8,5.9,2,12.1,3.4,17.9,5.7,5,2,9.6,4.6,14.5,6.6,0-2.5-.3-.7-.7-3.2v.3Z"/>
    <path class="logo-path" d="M242.8,129.3c-30.6-34-82.7-47.4-126.9-40.5-1.3.3-4.6.8-8.1,1.6h0s-5,.9-5.4-4.6c0,0-9.5,15-2.9,46.9,2.5-6.4,4.9-8.4,11.3-11.4,38.2-11,87.9,1.1,112.4,31.5,14.7,18.4,17.5,45.7-2,61.9-9.6,7.9-21,10.1-32.7,9.3h0c-2.4,0-7.6-2.4-3.9-10.2-2.8,3.2-5.5,5.9-8.1,8.5q-.3,0-.3.3c-8,7.8-15.4,13.1-22.9,17.5-1.1.5-2.1,1.2-3,1.7-4.1,2.2-8.1,4.3-12.5,6.4,5.3-2.8,10.4-2.2,16.6-.4,1.6.5,3.2,1.2,4.7,1.7h0c7.9,2.5,16.4,4.3,22.2,4.9,74,5.9,110.5-70.7,61.4-125.2h.3Z"/>
  </g>
</svg>