<?xml version="1.0" encoding="UTF-8"?>
<svg id="Capa_2" xmlns="http://www.w3.org/2000/svg" version="1.1" viewBox="0 0 828.6 177.8">
  <!-- Generator: Adobe Illustrator 30.1.0, SVG Export Plug-In . SVG Version: 2.1.1 Build 65)  -->
  <defs>
    <style>
      .st0 {
        fill: #a08042;
      }

      .st1 {
        fill: #725c35;
      }
    </style>
  </defs>
  <g id="Capa_2-2">
    <g>
      <g>
        <g>
          <path class="st1" d="M149.5,95.1c-6.3-5.5-13.1-8.9-20.9-11.8-.3,1.1-.4,1.6-.5,1.8-5.1,25.9-22.5,50.5-46.4,62-42.7,20.5-77.3-14.2-48.2-49.6,1.7-1,2.7-.5,5,1-8.3-17.2-7.6-35.1-7.6-35.1-1.6,4-4.7,7.8-6.6,9.8-50.7,41.3-17.1,118.9,52.1,100.8,34.9-9.1,64.8-42,73.1-77.1.3-1.2-.3-.6,0-1.8h0Z"/>
          <path class="st1" d="M128.1,85c0,0,0-.2,0-.3.2-.9-.3.9,0,.3Z"/>
        </g>
        <path class="st1" d="M151,54.5c-2.9-21.8-17.9-43.8-39-50.9C79.5-7.3,49.5,14.2,40.5,45.3c-9.4,32.4,1.7,67.9,22.9,93.4h0c1.9,2.2,4.8,7.6,2.2,8.9,0,0,15.6-2.4,28.7-15.9h-.5s-3.2.9-7.5-2.5c-1.4-1.3-2.7-2.6-3.9-4-16.4-18.7-26.7-47.1-20.3-71.9,9.6-37,49.9-39.9,63.4-6.4.5,1.2,1-.8,1.4.6,4.5,1.5,9.2,2.6,13.6,4.3,3.8,1.5,7.3,3.5,11,5,0-1.9-.2-.5-.5-2.4h0Z"/>
        <path class="st1" d="M174.7,81.5c-23.3-25.9-62.9-36.1-96.6-30.8-1,.2-3.5.6-6.2,1.2h0s-3.8.7-4.1-3.5c0,0-7.2,11.4-2.2,35.7,1.9-4.8,3.7-6.4,8.6-8.7,29.2-8.4,66.9.8,85.5,24,11.2,14,13.3,34.8-1.5,47.1-7.2,6-16,7.7-24.9,7.1h0c-1.8,0-5.8-1.8-3-7.8-2.1,2.4-4.2,4.5-6.2,6.5-.2,0-.2,0-.2.1-6.1,5.9-11.7,10-17.4,13.3-.8.4-1.6.9-2.3,1.3-3.1,1.7-6.2,3.3-9.6,4.9,4-2.1,7.9-1.8,12.6-.3,1.2.4,2.4.9,3.6,1.3h0c6,1.9,12.5,3.3,16.9,3.7,56.3,4.5,84.1-53.8,46.7-95.3h0Z"/>
      </g>
      <g>
        <path class="st0" d="M371.5,52.4c-4.7-4.6-10.3-8.2-16.8-10.7s-13.8-3.8-21.7-3.8-15.2,1.3-21.8,3.8-12.2,6.1-16.9,10.7c-4.7,4.6-8.3,10.2-10.8,16.7-2.5,6.5-3.8,13.8-3.8,21.7s1.3,15.2,3.8,21.8,6.1,12.2,10.8,16.9c4.7,4.7,10.3,8.3,16.9,10.8s13.9,3.8,21.8,3.8c12.5,0,23.1-3,31.8-9.1s14.8-14.3,18.2-24.7h-27c-5.1,7.4-12.8,11.1-23.3,11.1s-13.5-1.9-18.3-5.9c-4.8-3.9-7.9-9.4-9.3-16.6h80.5c.1-1.4.2-2.7.3-4s.1-2.7.1-4.2c0-8-1.3-15.2-3.8-21.7-2.5-6.5-6.1-12.1-10.8-16.7h0ZM307,76.4c2.2-5.1,5.5-9,9.9-11.7,4.4-2.7,9.7-4.1,15.9-4.1s11.5,1.4,16,4.1c4.5,2.8,7.8,6.7,10,11.7h-51.7,0Z"/>
        <path class="st0" d="M601,52.5c-4.7-4.7-10.3-8.3-16.9-10.8s-13.9-3.8-21.8-3.8-15.2,1.3-21.7,3.8c-6.5,2.5-12.1,6.1-16.8,10.7-4.7,4.6-8.3,10.2-10.8,16.7-2.5,6.5-3.8,13.8-3.8,21.7s1.3,15.2,3.8,21.8c2.5,6.6,6.1,12.2,10.6,16.9,4.5,4.7,10,8.3,16.3,10.8s13.2,3.8,20.6,3.8,13.9-1.2,19-3.5c5.2-2.3,9-5.1,11.4-8.2v9.9h24.7v-51.1c0-8-1.3-15.2-3.8-21.8-2.5-6.6-6.1-12.2-10.8-16.9h0ZM583.2,113.4c-5.2,5.3-12,8-20.7,8s-15.6-2.7-20.8-8c-5.2-5.3-7.8-12.8-7.8-22.4s2.6-17.1,7.8-22.4c5.2-5.3,12.1-8,20.8-8s15.5,2.7,20.7,8,7.7,12.8,7.7,22.4-2.6,17.1-7.7,22.4Z"/>
        <path class="st0" d="M694.1,117.1c-4.5,2.9-9.8,4.3-16.2,4.3s-15.5-2.7-20.7-8c-5.1-5.3-7.7-12.8-7.7-22.4s2.6-17.1,7.7-22.4c5.2-5.3,12-8,20.7-8s11.5,1.4,16,4.1c4.5,2.8,7.8,6.7,10,11.7h25.7c-2.8-11.8-8.7-21.2-17.7-28.1-9.1-6.9-20.3-10.4-33.8-10.4s-15.2,1.3-21.8,3.8-12.2,6.1-16.9,10.7c-4.7,4.6-8.3,10.2-10.8,16.7-2.5,6.5-3.8,13.8-3.8,21.7s1.3,15.2,3.8,21.8,6.1,12.2,10.8,16.9c4.7,4.7,10.3,8.3,16.9,10.8s13.9,3.8,21.8,3.8c13.6,0,24.9-3.5,34-10.5,9.1-7,15-16.5,17.7-28.6h-25.7c-2.2,5.2-5.5,9.3-10,12.2h0Z"/>
        <path class="st0" d="M802.9,39.3l-24.7,71.2-24.7-71.2h-25.7l35.4,100.3c1.2,3.4,1.5,7,.9,10.6-.6,3.6-1.9,7-3.9,10-2,3-4.5,5.5-7.4,7.4-3,1.9-6.1,2.9-9.6,2.9v7.4h33.5c.3-.4.6-.7.9-1.1,3.4-4.9,6.2-10.3,8.3-16.4s4.2-12.1,6.3-18.1l36.4-102.9h-25.7Z"/>
        <path class="st0" d="M486.3,52.3c-4.7-4.7-10.3-8.3-16.9-10.8s-13.9-3.8-21.8-3.8-15.2,1.3-21.7,3.8-12.1,6.1-16.8,10.7c-4.7,4.6-8.3,10.2-10.8,16.7-2.5,6.5-3.8,13.8-3.8,21.7s1.3,15.2,3.8,21.8,6.1,12.2,10.6,16.9c4.5,4.7,10,8.3,16.3,10.8s13.2,3.8,20.6,3.8,13.9-1.2,19-3.5,9-5.1,11.4-8.2v6c0,7-2.3,12.7-6.8,17.2s-11.1,6.7-19.8,6.7-12.9-1.5-17.4-4.4c-4.5-2.9-8.1-6.1-10.8-9.6l-20.2,14.2c5,6.4,11.3,11.6,18.8,15.6h58.1c3.2-1.8,6.1-3.8,8.6-6.1,4.5-4.1,7.9-9,10.4-14.7,2.5-5.7,3.7-12,3.7-18.8v-47.1c0-8-1.3-15.2-3.8-21.8-2.5-6.6-6.1-12.2-10.8-16.9h0ZM468.5,113.2c-5.1,5.3-12,8-20.7,8s-15.6-2.7-20.8-8c-5.2-5.3-7.8-12.8-7.8-22.4s2.6-17.1,7.8-22.4c5.2-5.3,12.1-8,20.8-8s15.5,2.7,20.7,8,7.7,12.8,7.7,22.4-2.6,17.1-7.7,22.4Z"/>
        <path class="st0" d="M264.2,35.7h.2V0h-20.8c-1,3-2.2,5.6-3.8,7.8-1.6,2.2-3.4,4-5.4,5.5-2,1.4-4.1,2.6-6.4,3.6-2.3,1-4.6,1.7-6.9,2.3v21.2c6.9-.7,12.7-2.5,17.5-5.3v109.1h25.5V35.7Z"/>
      </g>
    </g>
  </g>
</svg>