<svg id="Capa_2" data-name="Capa 2" xmlns="http://www.w3.org/2000/svg" viewBox="0 0 828.64 177.81">
  <defs>
    <style>
      .cls-1 {
        fill: #fff;
        transition: fill 0.3s ease;
      }
      .cls-2 {
        fill: #7f7f7f;
        transition: fill 0.3s ease;
      }
    </style>
  </defs>
  <g id="Capa_2-2" data-name="Capa 2">
    <g>
      <g>
        <g>
          <path class="cls-2" d="M149.54,95.08c-6.29-5.49-13.15-8.87-20.92-11.85-.3,1.06-.45,1.58-.53,1.81-5.11,25.88-22.47,50.54-46.38,62.03-42.74,20.54-77.35-14.17-48.15-49.63,1.73-1.01,2.65-.47,4.96.96-8.26-17.19-7.58-35.06-7.58-35.06-1.6,4.03-4.66,7.77-6.55,9.84-50.7,41.35-17.09,118.86,52.07,100.78,34.95-9.14,64.82-42.04,73.12-77.06.28-1.19-.28-.62-.05-1.82Z"/>
          <path class="cls-2" d="M128.09,85.04c.02-.1.04-.19.06-.29.18-.95-.28.95-.06.29Z"/>
        </g>
        <path class="cls-2" d="M150.97,54.53c-2.95-21.84-17.87-43.8-38.97-50.88C79.47-7.27,49.49,14.24,40.45,45.28c-9.44,32.43,1.66,67.95,22.94,93.39,0,0,0,0,0,0,1.89,2.21,4.8,7.63,2.17,8.95,0,0,15.58-2.39,28.7-15.89h-.5s-3.19.86-7.53-2.49c-1.36-1.29-2.7-2.59-3.93-3.99-16.44-18.73-26.74-47.11-20.33-71.9,9.56-36.98,49.91-39.88,63.43-6.39.51,1.25.98-.76,1.4.59,4.52,1.48,9.18,2.61,13.63,4.31,3.83,1.47,7.28,3.46,11.03,5.04-.07-1.89-.24-.47-.49-2.37Z"/>
        <path class="cls-2" d="M174.67,81.51c-23.3-25.89-62.87-36.06-96.62-30.78-.97.15-3.54.61-6.19,1.18h0s-3.77.71-4.08-3.48c0,0-7.24,11.41-2.17,35.74,1.89-4.85,3.7-6.36,8.57-8.71,29.15-8.4,66.88.82,85.5,24.01,11.23,13.98,13.29,34.81-1.47,47.07-7.25,6.03-16,7.68-24.87,7.1,0,0,0,0,0,0-1.78-.09-5.76-1.84-2.96-7.75-2.13,2.4-4.17,4.53-6.16,6.48-.19,0-.2.06-.15.15-6.07,5.91-11.65,9.96-17.39,13.34-.82.44-1.6.88-2.29,1.31-3.08,1.72-6.23,3.31-9.55,4.94,4.03-2.11,7.87-1.75,12.59-.26,1.17.44,2.38.87,3.63,1.27,0,0,0,0,0,0h0c5.96,1.92,12.53,3.32,16.87,3.66,56.27,4.46,84.08-53.79,46.73-95.29Z"/>
      </g>
      <g>
        <path class="cls-1" d="M371.45,52.39c-4.67-4.6-10.26-8.16-16.78-10.7-6.52-2.54-13.76-3.81-21.72-3.81s-15.23,1.27-21.82,3.81c-6.59,2.54-12.22,6.11-16.88,10.7-4.67,4.6-8.27,10.16-10.81,16.67-2.54,6.52-3.81,13.76-3.81,21.72s1.27,15.23,3.81,21.82c2.54,6.59,6.14,12.22,10.81,16.88,4.66,4.67,10.29,8.27,16.88,10.81,6.59,2.54,13.86,3.81,21.82,3.81,12.49,0,23.09-3.02,31.8-9.06,8.71-6.04,14.79-14.27,18.22-24.7h-26.97c-5.08,7.41-12.83,11.12-23.26,11.12-7.41,0-13.52-1.95-18.32-5.87-4.8-3.91-7.89-9.43-9.26-16.57h80.49c.13-1.37.24-2.71.31-4.01.07-1.3.1-2.71.1-4.22,0-7.96-1.27-15.2-3.81-21.72-2.54-6.52-6.14-12.08-10.81-16.67ZM307.01,76.37c2.19-5.08,5.49-8.99,9.88-11.73,4.39-2.74,9.67-4.12,15.85-4.12s11.49,1.37,15.95,4.12c4.46,2.75,7.79,6.66,9.98,11.73h-51.67Z"/>
        <path class="cls-1" d="M600.97,52.49c-4.67-4.66-10.29-8.27-16.88-10.81-6.59-2.54-13.86-3.81-21.82-3.81s-15.2,1.27-21.72,3.81c-6.52,2.54-12.11,6.11-16.78,10.7-4.67,4.6-8.27,10.16-10.81,16.67-2.54,6.52-3.81,13.76-3.81,21.72s1.27,15.23,3.81,21.82c2.54,6.59,6.07,12.22,10.6,16.88,4.53,4.67,9.95,8.27,16.26,10.81,6.31,2.54,13.17,3.81,20.59,3.81s13.89-1.17,19.04-3.5c5.15-2.33,8.95-5.08,11.43-8.23v9.88h24.7v-51.05c0-7.96-1.27-15.23-3.81-21.82-2.54-6.59-6.14-12.21-10.81-16.88ZM583.16,113.42c-5.15,5.35-12.04,8.03-20.69,8.03s-15.58-2.68-20.79-8.03c-5.22-5.35-7.82-12.83-7.82-22.44s2.61-17.09,7.82-22.44c5.21-5.35,12.14-8.03,20.79-8.03s15.54,2.68,20.69,8.03,7.72,12.83,7.72,22.44-2.57,17.09-7.72,22.44Z"/>
        <path class="cls-1" d="M694.11,117.13c-4.46,2.88-9.85,4.32-16.16,4.32-8.65,0-15.54-2.68-20.69-8.03-5.14-5.35-7.72-12.83-7.72-22.44s2.57-17.09,7.72-22.44c5.15-5.35,12.04-8.03,20.69-8.03,6.17,0,11.49,1.37,15.95,4.12,4.46,2.75,7.79,6.66,9.98,11.73h25.73c-2.75-11.8-8.65-21.17-17.7-28.1-9.06-6.93-20.31-10.4-33.76-10.4-7.96,0-15.23,1.27-21.82,3.81-6.59,2.54-12.22,6.11-16.88,10.7-4.67,4.6-8.27,10.16-10.81,16.67-2.54,6.52-3.81,13.76-3.81,21.72s1.27,15.23,3.81,21.82c2.54,6.59,6.14,12.22,10.81,16.88,4.66,4.67,10.29,8.27,16.88,10.81s13.86,3.81,21.82,3.81c13.59,0,24.91-3.5,33.97-10.5,9.06-7,14.96-16.54,17.7-28.61h-25.73c-2.2,5.22-5.53,9.26-9.98,12.15Z"/>
        <path class="cls-1" d="M802.91,39.32l-24.7,71.22-24.7-71.22h-25.73l35.41,100.25c1.23,3.43,1.54,6.96.93,10.6-.62,3.63-1.92,6.96-3.91,9.98-1.99,3.02-4.46,5.49-7.41,7.41-2.95,1.92-6.14,2.88-9.57,2.88v7.37h33.51c.28-.37.6-.71.86-1.09,3.43-4.87,6.21-10.33,8.34-16.37,2.13-6.04,4.22-12.08,6.28-18.12l36.43-102.92h-25.73Z"/>
        <path class="cls-1" d="M486.31,52.28c-4.67-4.66-10.29-8.27-16.88-10.81-6.59-2.54-13.86-3.81-21.82-3.81s-15.2,1.27-21.72,3.81c-6.52,2.54-12.11,6.11-16.78,10.7-4.67,4.6-8.27,10.16-10.81,16.67-2.54,6.52-3.81,13.76-3.81,21.72s1.27,15.23,3.81,21.82c2.54,6.59,6.07,12.22,10.6,16.88,4.53,4.67,9.95,8.27,16.26,10.81,6.31,2.54,13.17,3.81,20.59,3.81s13.89-1.17,19.04-3.5c5.15-2.33,8.95-5.07,11.43-8.23v5.97c0,7-2.26,12.73-6.79,17.19-4.53,4.46-11.12,6.69-19.76,6.69-7.14,0-12.94-1.48-17.39-4.43-4.46-2.95-8.06-6.14-10.81-9.57l-20.17,14.2c5.03,6.45,11.32,11.64,18.83,15.6h58.07c3.17-1.75,6.07-3.77,8.62-6.13,4.46-4.12,7.93-9.03,10.4-14.72,2.47-5.7,3.71-11.97,3.71-18.83v-47.14c0-7.96-1.27-15.23-3.81-21.82-2.54-6.59-6.14-12.21-10.81-16.88ZM468.5,113.22c-5.15,5.35-12.04,8.03-20.69,8.03s-15.58-2.68-20.79-8.03c-5.22-5.35-7.82-12.83-7.82-22.44s2.61-17.09,7.82-22.44c5.21-5.35,12.14-8.03,20.79-8.03s15.54,2.68,20.69,8.03c5.15,5.35,7.72,12.83,7.72,22.44s-2.57,17.09-7.72,22.44Z"/>
        <path class="cls-1" d="M264.19,35.7h.22V0h-20.79c-.96,3.02-2.23,5.63-3.81,7.82-1.58,2.2-3.36,4.01-5.35,5.46-1.99,1.44-4.12,2.64-6.38,3.6-2.26.96-4.56,1.72-6.9,2.26v21.2c6.86-.69,12.69-2.47,17.5-5.35v109.1h25.51V35.7Z"/>
      </g>
    </g>
  </g>
</svg>